<svg xmlns="http://www.w3.org/2000/svg" viewBox="0 0 222.43 343.31"><defs><style>.cls-1{fill:#d48d5f;}.cls-2{fill:#efeaca;}.cls-3{fill:#725647;}.cls-4{fill:#e8e1d4;}</style></defs><title>Asset 2</title><g id="Layer_2" data-name="Layer 2"><g id="Layer_1-2" data-name="Layer 1"><path class="cls-1" d="M14.89,221.67A203,203,0,0,0,25.7,283c2.17,6.31,4.71,12.49,7.41,18.59L59,286.46l-2.84-5.14a15.2,15.2,0,0,0-9-6.89l-4-.54a11.35,11.35,0,0,0-5.78,1.3,14.35,14.35,0,0,0-7.18,6.13l-1.51,3.59a15.18,15.18,0,0,0,0,8,34.79,34.79,0,0,0,1.61,6.45,58.4,58.4,0,0,0,4.09,9.22,62.46,62.46,0,0,0,5.84,8.16,42.54,42.54,0,0,0,4.51,4.79,69.35,69.35,0,0,0,48.06,18,15.63,15.63,0,0,0,10.61-4.39,15.23,15.23,0,0,0,4.39-10.61c-.17-3.88-1.45-7.9-4.39-10.6a15.31,15.31,0,0,0-10.61-4.4,53.32,53.32,0,0,1-8.66-.46l4,.53a57.17,57.17,0,0,1-14.06-3.86l3.59,1.51a53.68,53.68,0,0,1-11.68-6.74l3,2.34a45.72,45.72,0,0,1-8-7.87l2.35,3a38.91,38.91,0,0,1-5-8.41L60,293.19a35,35,0,0,1-2.32-8.28L30.27,296.47l2.84,5.14A15,15,0,0,0,53.64,307c3.2-2.07,6-5.14,6.89-9l.53-4a14.94,14.94,0,0,0-2-7.58c-.5-1.12-1-2.25-1.47-3.38l1.52,3.58A190,190,0,0,1,46,238.8l.54,4a191.19,191.19,0,0,1-1.66-21.12,15.6,15.6,0,0,0-4.39-10.6,15.31,15.31,0,0,0-10.61-4.4c-3.88.18-7.9,1.45-10.61,4.4a15.3,15.3,0,0,0-4.39,10.6Z"/><path class="cls-1" d="M98,340.62l7.74,0v-30l-7.58.56v30c12.93-1.23,25.89.67,38.83-.2,7.14-.47,14.51-1.43,21.26-4a56.1,56.1,0,0,0,19.11-11.44,42.72,42.72,0,0,0,12.12-19.95A15.58,15.58,0,0,0,188,294.1a15.28,15.28,0,0,0-9-6.89c-3.84-.88-8.15-.69-11.56,1.51a15.59,15.59,0,0,0-6.9,9,25.3,25.3,0,0,1-1.19,3.5l1.51-3.58a28.56,28.56,0,0,1-3.55,6l2.34-3a34,34,0,0,1-5.8,5.76l3-2.34a39.27,39.27,0,0,1-8.39,4.92l3.58-1.51A54.65,54.65,0,0,1,138.21,311l4-.54c-14.63,1.9-29.37-.68-44,.71a11.29,11.29,0,0,0-5.78,1.29,11.33,11.33,0,0,0-4.83,3.1,15.23,15.23,0,0,0-4.39,10.61c.17,3.88,1.45,7.9,4.39,10.61s6.67,4.68,10.61,4.39l7.58-.56c4-.29,7.68-1.47,10.6-4.39a15.29,15.29,0,0,0,4.4-10.61c-.18-3.88-1.45-7.9-4.4-10.6a15.64,15.64,0,0,0-10.6-4.4l-7.74,0A15.4,15.4,0,0,0,87.4,315,15.24,15.24,0,0,0,83,325.62c.18,3.87,1.45,7.9,4.4,10.6a15.69,15.69,0,0,0,10.6,4.4Z"/><path class="cls-1" d="M172.87,237.25c.27,10.68.5,21.4-.93,32l.54-4a81.55,81.55,0,0,1-3.17,14.15c-1.55,4.72-3.85,9.16-5.32,13.91a15,15,0,0,0,10.48,18.45c3.84.87,8.15.68,11.56-1.51a16.11,16.11,0,0,0,6.89-9c1.22-3.95,3.06-7.67,4.49-11.55a72.85,72.85,0,0,0,3.15-11.35A147.23,147.23,0,0,0,203.07,251c0-4.59-.08-9.17-.2-13.76a15.68,15.68,0,0,0-4.39-10.61,15.25,15.25,0,0,0-10.61-4.39c-3.88.17-7.9,1.45-10.61,4.39a15.34,15.34,0,0,0-4.39,10.61Z"/><path class="cls-1" d="M166.46,238.26a197.89,197.89,0,0,0-26.74,43.92c-2.23,5.17-4.16,10.41-6.24,15.63l1.52-3.59a10,10,0,0,1-.95,1.76l2.35-3a7.07,7.07,0,0,1-.65.69l3-2.35a4.35,4.35,0,0,1-.8.48l3.58-1.51-.3.1,18.45,18.45A143.24,143.24,0,0,1,170,273.53l-1.51,3.58c5.25-12.38,11.64-24.21,18.09-36l1.52-3.58a11.38,11.38,0,0,0,.26-6,7.41,7.41,0,0,0-1-3.79,11.23,11.23,0,0,0-3.1-4.83,17.88,17.88,0,0,0-6.62-3.85,11.27,11.27,0,0,0-6-.27A11.11,11.11,0,0,0,166,220.6c-11.7,8.48-21.64,18.87-31.35,29.52-9.09,10-17.93,20.59-24.39,32.48A94.07,94.07,0,0,0,101.4,305c-.9,3.68-.6,8.28,1.51,11.56s5.16,6.1,9,6.89a37,37,0,0,0,6.46.84,34.76,34.76,0,0,0,6.44-.68,28.58,28.58,0,0,0,8.75-3.28,20.9,20.9,0,0,0,2.28-1.45,46,46,0,0,0,5.12-4.13,33,33,0,0,0,3-3.56,36.26,36.26,0,0,0,2.81-3.95c6.47-11.32,5.92-25,2.74-37.23a112.12,112.12,0,0,0-6.38-17.48,32.88,32.88,0,0,0-3.16-5.91,28.39,28.39,0,0,0-4-4.83,25.38,25.38,0,0,0-8.67-5.18,22.6,22.6,0,0,0-6.38-1.16,25.44,25.44,0,0,0-6.85.69A26.74,26.74,0,0,0,105,240a51.13,51.13,0,0,0-13.46,13.26,57.8,57.8,0,0,0-7,13.69,60.86,60.86,0,0,0-3.16,11.56,111.74,111.74,0,0,0-1.7,15.8,50.78,50.78,0,0,0,.45,8.54,24,24,0,0,0,1,5,28,28,0,0,0,2.71,6c4.15,6.33,10,10.37,17.13,12.79a39.56,39.56,0,0,0,9.21,1.63A24.85,24.85,0,0,0,123,325.63a16.63,16.63,0,0,0,5.13-3.91A25.51,25.51,0,0,0,133.2,313a26.52,26.52,0,0,0,1.46-5.58,47.41,47.41,0,0,0,.8-9.51,52,52,0,0,0-1.3-9.28,48.76,48.76,0,0,0-3.2-8.67,29.64,29.64,0,0,0-2.77-5,47,47,0,0,0-5.79-7.11,27.42,27.42,0,0,0-2.16-1.88,32.51,32.51,0,0,0-5.73-4.07,24.4,24.4,0,0,0-6.16-2.32,25.12,25.12,0,0,0-10.36.08,24,24,0,0,0-5.86,2.27,28.66,28.66,0,0,0-5.57,4c-4.38,3.7-6.69,8.9-9,14a28,28,0,0,1-3.18,5.51l2.35-3a16.46,16.46,0,0,1-2.59,2.62l3-2.34A11.55,11.55,0,0,1,74.67,284l3.59-1.51a10.75,10.75,0,0,1-2.09.56l4-.54a9.82,9.82,0,0,1-2.1,0l4,.54a10.34,10.34,0,0,1-2.31-.6L83.32,284a12.4,12.4,0,0,1-2.7-1.58l3,2.35a17.68,17.68,0,0,1-2.8-2.87l2.35,3a21.14,21.14,0,0,1-2.43-4.17l1.52,3.59a52,52,0,0,1-2.3-7.73,66.89,66.89,0,0,0-3.75-11c-2.7-6.23-8-10.61-12.1-15.84l2.34,3a36.75,36.75,0,0,1-4.8-8.16l1.51,3.58a30.14,30.14,0,0,1-2-7.11l.53,4a26.91,26.91,0,0,1,0-6.77l-.53,4a25.28,25.28,0,0,1,1.62-6.11l-1.52,3.58A23,23,0,0,1,64,235l-2.35,3c.49-.62,1-1.21,1.55-1.79l-25.07-6.61c2.63,8.28,5.28,16.58,8.64,24.6A152.86,152.86,0,0,0,53.61,269a92,92,0,0,0,8.68,12.77A48,48,0,0,0,73.46,291.8a24.12,24.12,0,0,0,11.39,3.59,8.56,8.56,0,0,0,1.13,0,23.16,23.16,0,0,0,4.75-.68,18.32,18.32,0,0,0,2.07-.86,16.85,16.85,0,0,0,2.07-.88,20.1,20.1,0,0,0,3.76-2.91c6.48-6.52,6.21-16.29,4.72-24.65-1-5.37-3.33-10.52-5.67-15.41a150,150,0,0,0-17.4-27.3l2.34,3A14.38,14.38,0,0,1,81,223.1l1.51,3.58a8.41,8.41,0,0,1-.57-1.91l.54,4a5.53,5.53,0,0,1,0-.91l-.54,4a4.18,4.18,0,0,1,.2-.83l-1.51,3.59a2.42,2.42,0,0,1,.27-.5l-2.34,3a3.53,3.53,0,0,1,.65-.63l-3,2.35.35-.21-3.58,1.51a6,6,0,0,1,1.17-.34l-4,.54A97.93,97.93,0,0,1,81.74,240a94.41,94.41,0,0,1,11.65.73l-4-.54a52,52,0,0,1,13,3.4l-3.58-1.51a24.7,24.7,0,0,1,5.45,3l-3-2.34a11.25,11.25,0,0,1,1.68,1.7l-2.34-3a9.66,9.66,0,0,1,1,1.79l-1.51-3.58a12.33,12.33,0,0,1,.66,2.45l-.54-4a18.66,18.66,0,0,1,0,4.78l.54-4a22.46,22.46,0,0,1-1.37,5.16l1.51-3.58a11.51,11.51,0,0,1-1.23,2.26l2.35-3a7.1,7.1,0,0,1-1.22,1.23l3-2.35a3.3,3.3,0,0,1-.57.34l3.58-1.51a4.36,4.36,0,0,1-.95.29l4-.54a2.91,2.91,0,0,1-.78,0l4,.53a6,6,0,0,1-1.25-.36l3.58,1.51a21.31,21.31,0,0,1-3.76-2.42l3,2.35a30.62,30.62,0,0,1-5.25-5.3l2.34,3a29.24,29.24,0,0,1-3.57-6.12l1.52,3.58a16.46,16.46,0,0,1-1-3.5l.54,4a10.36,10.36,0,0,1,0-2.36l-.53,4a7.53,7.53,0,0,1,.5-1.86l-1.52,3.58a8.63,8.63,0,0,1,.76-1.28l-2.34,3a8.35,8.35,0,0,1,1.23-1.22l-3,2.35a10.37,10.37,0,0,1,2.15-1.22L102.85,241a38.46,38.46,0,0,1,9-1.93l-4,.54a65,65,0,0,1,17.18-.27l-4-.53a38.73,38.73,0,0,1,9.63,2.57l-3.58-1.51a31.13,31.13,0,0,1,6.54,3.79l-3-2.34a22.35,22.35,0,0,1,3.63,3.58l-2.35-3a16.8,16.8,0,0,1,2,3.34l-1.51-3.58a13.45,13.45,0,0,1,.87,3.19l-.54-4a12.61,12.61,0,0,1,0,2.88l.54-4a12,12,0,0,1-.73,2.75l1.51-3.59a10.45,10.45,0,0,1-1.23,2.12l2.35-3a9.56,9.56,0,0,1-1.55,1.5l3-2.34a8.56,8.56,0,0,1-1.35.77l3.58-1.51a7,7,0,0,1-1.11.31l4-.53a6,6,0,0,1-1.12,0l4,.54a6.92,6.92,0,0,1-1.42-.38l3.58,1.51a9.06,9.06,0,0,1-1.61-1l3,2.35A14.37,14.37,0,0,1,146,237l2.35,3a15.71,15.71,0,0,1-1.94-3.19l1.51,3.59a13.19,13.19,0,0,1-.82-2.75l.54,4a10.7,10.7,0,0,1,0-2.77l-.53,4a11.5,11.5,0,0,1,.71-2.5L146.32,244a15,15,0,0,1,1.75-2.9l-2.34,3a21.22,21.22,0,0,1,3.63-3.52l-3,2.35a35.79,35.79,0,0,1,7.32-4.22l-3.59,1.52a29.57,29.57,0,0,1,7.49-2.08l-4,.53a13.37,13.37,0,0,1,2.53,0l-4-.54a8.16,8.16,0,0,1,2,.53l-3.58-1.51a6.81,6.81,0,0,1,.93.57l-3-2.34a7.18,7.18,0,0,1,.78.78l-2.34-3a7.4,7.4,0,0,1,.56.93l-1.51-3.58a5.23,5.23,0,0,1,.28,1l-.53-4a3.37,3.37,0,0,1,0,.71l.53-4a2.85,2.85,0,0,1-.14.63l1.51-3.59a3.38,3.38,0,0,1-.44.73l2.35-3a3.13,3.13,0,0,1-.42.39l3-2.34a4.93,4.93,0,0,1-.74.43l3.58-1.51a4.46,4.46,0,0,1-.82.2l4-.54a2.44,2.44,0,0,1-.54,0l4,.53A2.25,2.25,0,0,1,161,216l3.58,1.51a2.2,2.2,0,0,1-.47-.27l3,2.34a2.3,2.3,0,0,1-.42-.46l2.35,3-.16-.29,1.51,3.59a2.69,2.69,0,0,1-.19-.61l.54,4a4,4,0,0,1,0-1l-.54,4a7.3,7.3,0,0,1,.3-1l-1.51,3.58a10.13,10.13,0,0,1,1.13-1.9l-2.35,3a31.7,31.7,0,0,1,5.25-5.36l-3,2.35a16.12,16.12,0,0,1,3.31-2L169.81,232a13,13,0,0,1,2.94-.82l-4,.54a13.17,13.17,0,0,1,3,0l-4-.53a48.63,48.63,0,0,1,7.54,2.14c2.47.8,5,1.45,7.44,2.46l-3.58-1.51a3.64,3.64,0,0,1,.66.38l-3-2.35a2.66,2.66,0,0,1,.55.56l-2.35-3a3.21,3.21,0,0,1,.39.7L173.89,227a71.41,71.41,0,0,1,2.36,8.26,75.87,75.87,0,0,1,1.71,8.59l-.53-4a41.85,41.85,0,0,1,.08,10.55l.54-4a29.93,29.93,0,0,1-2,7.43l1.51-3.58c-.34.79-.72,1.55-1.13,2.31a15.66,15.66,0,0,0-1.52,11.55,15.32,15.32,0,0,0,6.9,9c3.48,1.84,7.7,2.76,11.56,1.51a15.36,15.36,0,0,0,9-6.89c8.23-14.94,5.87-32.77.64-48.31a19,19,0,0,0-8.64-11,42,42,0,0,0-7.84-2.94,87.89,87.89,0,0,0-9.84-3,27.6,27.6,0,0,0-7.89-.73,29,29,0,0,0-10.86,3,31.65,31.65,0,0,0-9.48,7.44,47,47,0,0,0-4.54,5.73,23.17,23.17,0,0,0-2.22,4.89,18.63,18.63,0,0,0-.88,5.65,17.19,17.19,0,0,0,2.42,8.78,17.63,17.63,0,0,0,6,6,17.87,17.87,0,0,0,8.33,2.31,17.69,17.69,0,0,0,5.35-.74,18.61,18.61,0,0,0,10.44-8.19,17.62,17.62,0,0,0,2.32-8.63,17.06,17.06,0,0,0-1.59-7.34,19.63,19.63,0,0,0-8.1-9.29,21.51,21.51,0,0,0-11.16-2.79,39.58,39.58,0,0,0-8,1.15,31.59,31.59,0,0,0-4.73,1.57,48.23,48.23,0,0,0-10.9,5.72c-4.1,3.08-8.07,6.44-10.45,11.13a25.62,25.62,0,0,0-2.54,6.75,25.89,25.89,0,0,0,.17,11.55,23.67,23.67,0,0,0,1.42,3.73,24.67,24.67,0,0,0,1.73,3.63,29.28,29.28,0,0,0,4.9,6.13,24.22,24.22,0,0,0,9.16,5.45,19,19,0,0,0,13.08-.85,20.6,20.6,0,0,0,7.5-5.1,26.35,26.35,0,0,0,5.44-9.34,25.8,25.8,0,0,0,.24-15c-2.52-8.78-9.39-16-17.39-20.1A56.57,56.57,0,0,0,121,209c-7.07-.38-14.23.59-21.17,1.81a26.54,26.54,0,0,0-10.58,3.93,21.4,21.4,0,0,0-10.13,18.59c.16,9.15,5.29,18,11.65,24.38a36.63,36.63,0,0,0,13,8.62,16.93,16.93,0,0,0,11,.07,20.73,20.73,0,0,0,7.46-4.41,21.49,21.49,0,0,0,3.5-4.35c3-4.61,4.08-10.22,4.54-15.59.45-5.18-.72-11.22-3.7-15.55a28.28,28.28,0,0,0-11.84-9.9,65.2,65.2,0,0,0-12-4.29A99.3,99.3,0,0,0,80.19,210c-3.07,0-6.17.05-9.24.25-5.24.33-9.51,1.68-13.43,5.42a17.46,17.46,0,0,0-5.06,12.75,23.13,23.13,0,0,0,2.79,10.11,39,39,0,0,0,4.37,6.1l-2.34-3a125.33,125.33,0,0,1,16,26.88l-1.51-3.58a39.9,39.9,0,0,1,2.81,9.6l-.53-4a24,24,0,0,1,0,6.28l.53-4a7.77,7.77,0,0,1-.46,1.78L75.66,271a4,4,0,0,1-.37.63l2.34-3a3.27,3.27,0,0,1-.44.47l3-2.35a3.68,3.68,0,0,1-.78.47L83,265.7a4.48,4.48,0,0,1-.89.23l4-.53a7,7,0,0,1-1.29,0l4,.53a9.21,9.21,0,0,1-2-.56l3.58,1.52a17.34,17.34,0,0,1-3.49-2.19L90,267a41.25,41.25,0,0,1-6.85-7l2.34,3a91.13,91.13,0,0,1-11.1-19.94l1.52,3.59c-3.44-8.16-6.14-16.6-8.82-25a15.32,15.32,0,0,0-10.48-10.48A15,15,0,0,0,42,215.07a37.08,37.08,0,0,0-9.25,16.55,42.4,42.4,0,0,0-.1,19.5,48.71,48.71,0,0,0,3.28,9.05A36.56,36.56,0,0,0,39.12,266a69.75,69.75,0,0,0,6,7.61c1.55,1.71,3.15,3.35,4.58,5.15l-2.34-3a23,23,0,0,1,3,5.08l-1.51-3.58c1.62,4,2.27,8.25,3.53,12.35A40.63,40.63,0,0,0,56,298.08a44.4,44.4,0,0,0,3.69,5.05,17.7,17.7,0,0,0,2,2.17,28.45,28.45,0,0,0,10.46,6.26,25.89,25.89,0,0,0,6,1,23.67,23.67,0,0,0,6.45-.61,26.15,26.15,0,0,0,5.8-2.23A26.8,26.8,0,0,0,95.47,306a29.68,29.68,0,0,0,5.77-6.91c2.66-4.06,3.82-8.92,6.75-12.82l-2.34,3a15.8,15.8,0,0,1,2.72-2.7l-3,2.34a13,13,0,0,1,2.28-1.34L104,289.15a10.62,10.62,0,0,1,2.48-.69l-4,.54a8.71,8.71,0,0,1,1.84,0l-4-.54a9.76,9.76,0,0,1,2,.54l-3.58-1.51a16.06,16.06,0,0,1,3.27,2l-3-2.34a28,28,0,0,1,4.76,4.79l-2.34-3a30.48,30.48,0,0,1,3.75,6.47l-1.51-3.59a31.71,31.71,0,0,1,2.07,7.57l-.54-4a29.67,29.67,0,0,1,0,7.82l.54-4a26,26,0,0,1-1.56,5.94l1.51-3.58a9,9,0,0,1-1.14,2l2.35-3a8.75,8.75,0,0,1-.81.8l3-2.35a6.8,6.8,0,0,1-1.3.76l3.59-1.51a10,10,0,0,1-2.22.56l4-.54a18.49,18.49,0,0,1-4.14-.11l4,.54a23.23,23.23,0,0,1-5.49-1.48l3.58,1.51a18.14,18.14,0,0,1-3.93-2.28l3,2.35a15.32,15.32,0,0,1-2.41-2.42l2.35,3a13,13,0,0,1-1.54-2.68l1.51,3.59a16,16,0,0,1-.87-3.4l.53,4a60.88,60.88,0,0,1,.53-15.37l-.54,4A63.14,63.14,0,0,1,114,273.56l-1.51,3.59a43.78,43.78,0,0,1,5.47-9.47l-2.35,3a35.9,35.9,0,0,1,6.22-6.22l-3,2.34a20.74,20.74,0,0,1,4.19-2.46l-3.58,1.51a14.48,14.48,0,0,1,3.42-.95l-4,.53a11,11,0,0,1,2.29,0l-4-.54a9.39,9.39,0,0,1,2.21.6L115.73,264a9.78,9.78,0,0,1,1.62,1l-3-2.35a11.92,11.92,0,0,1,1.83,1.86l-2.34-3a36.55,36.55,0,0,1,4,7.71l-1.51-3.58A79.3,79.3,0,0,1,122,284.94l-.54-4a38.81,38.81,0,0,1,.13,10.1l.54-4a27.4,27.4,0,0,1-1.8,6.65l1.51-3.59a21.38,21.38,0,0,1-2.61,4.39l2.35-3a21.75,21.75,0,0,1-3.63,3.61l3-2.35a19.58,19.58,0,0,1-4,2.37l3.58-1.51a16.83,16.83,0,0,1-4.07,1.12l4-.54a15.26,15.26,0,0,1-3.51,0l4,.53c-.35-.05-.7-.11-1.06-.19L130.33,313a75.78,75.78,0,0,1,3.78-11.37l-1.51,3.58a107.76,107.76,0,0,1,13.92-23.05l-2.34,3c5.36-6.94,11.27-13.44,17.29-19.82,6.49-6.88,13.05-13.74,20.55-19.54l-3,2.35c.72-.56,1.45-1.1,2.19-1.64L160.65,226c-10.2,18.63-20.37,37.67-26.27,58.18a123.25,123.25,0,0,0-3.59,16.66,15.21,15.21,0,0,0,0,8,15,15,0,0,0,3.86,6.62c3.64,3.64,9.58,5.51,14.59,3.86a19.8,19.8,0,0,0,10.9-8.43,34.72,34.72,0,0,0,2.93-6.83q1.65-4.57,3.55-9.06l-1.52,3.59a184.7,184.7,0,0,1,23.83-40.72l-2.34,3c.36-.46.72-.93,1.09-1.39a16.7,16.7,0,0,0,4.39-10.61,15.3,15.3,0,0,0-4.39-10.6c-2.86-2.63-6.62-4.57-10.61-4.4-3.7.17-8.21,1.35-10.61,4.4Z"/><path class="cls-1" d="M197.05,195.06c.2,7.55.48,15.1.58,22.65.05,3.73,0,7.46-.33,11.18-.13,1.68-.28,3.37-.43,5.05-.08.95-.18,1.9-.28,2.85-.14,1.3.22-1.1,0,.29-.09.47-.16.94-.26,1.41h11.57c-2.67-13.28-4.82-26.87-11-39.1l-5.18,9c5.42.68,10.42-3.3,12.13-8.21.13-.36.23-.72.34-1.08.06-.21.48-1.61.13-.5-.24.52-.24.57,0,.17a3.77,3.77,0,0,1-1.33,1.36c-2.13.39-2.66.59-1.58.6l.6.07a7.67,7.67,0,0,0,8.22-5.48,6,6,0,0,0-2.15-6.31,5.92,5.92,0,0,0-6.66-.47,27.65,27.65,0,0,1-2.87,1.73c-.46.24-.94.45-1.41.68-.7.35,1.4-.53.16-.07l-.74.28a29.53,29.53,0,0,1-3.21.94c-.51.12-1,.22-1.54.31-.2,0-1.13.16-.18,0l-.38,0a30.05,30.05,0,0,1-3.15.13c-.59,0-1.18,0-1.77-.07l-.78-.07c-.2,0-1.13-.13-.18,0s-.26-.05-.37-.07l-.78-.15c-.51-.11-1-.23-1.53-.37s-1.13-.32-1.69-.51-2.18-.86-.59-.18a6.47,6.47,0,0,0-4.62-.61,6.22,6.22,0,0,0-3.12,2.16c-1.72,2.22-1.79,5.89.47,7.87q4.23,3.72,8.13,7.8l5.84-10a6,6,0,0,1-.73-.19c-.6-.22-.47-.15.41.2-.1-.2-1.07-.57-1.29-.71l-.62-.42c-.51-.38-.41-.29.31.26,0-.16-1-.85-1.18-1a34.92,34.92,0,0,0-5.58-4.19c-4.53-2.46-9.57-3.13-14.63-3.57-9.57-.84-19.38-1.24-28.16,3.32a6,6,0,0,0-1.21,9.43c4,3.58,8.85,4.24,13.93,5L163.86,209l-1.43-11a54.36,54.36,0,0,1-5.72,3.09c-.39.17-.79.4-1.19.53,1.58-.49-.26.09-.58.21-.94.36-1.9.7-2.86,1a53,53,0,0,1-6.31,1.6c-.43.09-.85.16-1.28.23l-.86.14.31,0a14,14,0,0,1-3,.29,53.45,53.45,0,0,1-6.07.05l-1.73-.11c-.67-.07-.53,0,.41.05.73.38.91.46.55.26s-.2-.09.6.45c.59.83.73,1,.42.44.37,1,.48,1.13.31.53.11,1,.15,1.26.13.61-.17,1-.21,1.26-.11.79a3.59,3.59,0,0,1,.12-.47c-.37.82-.41.94-.11.36a7.39,7.39,0,0,1,.42-.66c-.54.69-.6.78-.19.29l.41-.44c.32-.33.7-.63,1-1q-9.52-4.17-7-.7c.17.25.33.5.49.76s.47.77.7,1.16c.6,1,1.14,2.12,1.64,3.21a5.9,5.9,0,0,0,5.18,3,6.08,6.08,0,0,0,5.18-3,13.75,13.75,0,0,0-.25-14.25,12.86,12.86,0,0,0-5.39-4.89,6.28,6.28,0,0,0-6,0c-.49.29-.93.66-1.43.94a5.61,5.61,0,0,1-1.52.78c.78-.32.87-.37.25-.13l-.61.2c-.48.14-1,.23-1.45.36-.67.12-.56.11.33,0-.28,0-.56.06-.85.07-1.07.07-2.14,0-3.2,0-3.25.11-6.46,1-8.71,3.48a10.29,10.29,0,0,0-2.25,10,10.42,10.42,0,0,0,7.17,6.79l1.59-11.78q-16.49.19-32.93-1.18c-3.13-.26-6.14,2.95-6,6a6.16,6.16,0,0,0,6,6q16.43,1.38,32.93,1.18a6,6,0,0,0,1.6-11.79c-.61-.18-.45-.1.47.25-.53-.33-.41-.21.37.35-.84-.79.61,1.11.07.17-.29-.56-.23-.4.19.49-.14-.62-.12-.44.07.53-.14-1.19-.29,1.22,0,.15-.39.85-.42,1-.11.45-.58.71-.65.84-.2.39-.73.54-.82.65-.26.33l-.73.33a6.11,6.11,0,0,1,.74-.17c-1,.11-1.11.14-.44.09l1.39,0c4.83,0,9.57-1,13.54-3.88h-6c.41.18.81.51,1.22.66s-.79-.78-.49-.38a4.59,4.59,0,0,0,.54.54c.58.55-.31-.31-.36-.49a3.8,3.8,0,0,0,.41.66c.1.17.18.37.28.55.31.48-.43-1.44-.2-.43a9.69,9.69,0,0,0,.29,1.21c-.48-1.37-.1-1.13-.12-.52,0,.2,0,.42,0,.62.06.69.35-1.49.08-.53-.05.19-.11.4-.14.59-.19.94.59-1,.21-.43-.14.2-.25.47-.38.67h10.36a33,33,0,0,0-3.26-5.75,7.55,7.55,0,0,0-5.89-3.49,7.91,7.91,0,0,0-5.66,2.52,15.62,15.62,0,0,0-4.5,6.74,10.23,10.23,0,0,0,1.12,8.17c3.21,5,10.18,4.6,15.43,4.3a59.26,59.26,0,0,0,28-8.73,6,6,0,0,0,2.86-6c-.28-2.13-2-4.63-4.3-5l-14.53-2.26c-2.16-.33-4.33-.61-6.47-1-.88-.19-1.73-.44-2.59-.71-.6-.23-.47-.17.39.17-.23-.1-.45-.22-.67-.34s-.42-.26-.63-.41c.71.58.82.65.34.23l-1.21,9.42a7.52,7.52,0,0,1,1.54-.74c-1.61.39.2,0,.55-.16a28.09,28.09,0,0,1,2.86-.78c.56-.12,1.12-.21,1.68-.31,1.23-.23-1.26.1.1,0,1-.08,2-.18,3-.21a97.47,97.47,0,0,1,12.78.58l1.48.14.85.1c.67.08.56.07-.33-.05.9.31,2,.33,2.91.56.62.15,2.32.38,2.79.87-.79-.34-.89-.38-.29-.1.25.12.5.24.74.38.42.23.84.48,1.24.75l.46.32c.51.38.41.3-.31-.24,0,0,1.09.9,1.18,1,.68.58,1.36,1.15,2.06,1.7A17.84,17.84,0,0,0,183.9,210a6.12,6.12,0,0,0,6.77-2.75,6.19,6.19,0,0,0-.94-7.27q-3.89-4.08-8.13-7.8l-7.27,9.42a34.41,34.41,0,0,0,33.13-2.65l-8.82-6.77a4.78,4.78,0,0,1,3-3.12l1-.16a5.72,5.72,0,0,0-1.19-.12,8.15,8.15,0,0,0-4.48,1,13.79,13.79,0,0,0-4.67,7.37c.38-.85.46-1.07.24-.67a3.12,3.12,0,0,1-.27.43c.57-.7.7-.89.39-.56a4.17,4.17,0,0,1-.37.36c.74-.54.91-.68.54-.42l-.44.26c-.93.57,1.29-.39.17-.09s1.16,0,.42,0c-.4,0-.78,0-1.19-.05-2-.26-4.21,1.32-5.18,3a6.15,6.15,0,0,0,0,6.05c.37.75.73,1.49,1.08,2.25.09.2.49.85.45,1l-.25-.6c.09.2.17.41.26.62q.89,2.2,1.62,4.45c1,3,1.83,6.07,2.56,9.15,1.52,6.41,2.72,12.89,4,19.34a6,6,0,0,0,5.79,4.41c2.51-.12,5.26-1.77,5.78-4.41a109,109,0,0,0,1.39-12.1c.31-3.79.43-7.57.39-11.38-.09-7.71-.38-15.43-.59-23.14-.08-3.14-2.7-6.15-6-6a6.09,6.09,0,0,0-6,6Z"/><path class="cls-1" d="M13,202.55c-.11,2.83-.33,5.68-.3,8.51,0,4.6,3.24,8.81,8.11,8.82,4.29,0,7.51-2.72,9-6.63a13.36,13.36,0,0,0,.7-4.57c0-.7,0-1.41,0-2.11,0-.23.11-1.59,0-.52-.09.46-.09.54,0,.25q.84-2.91-4.39,3.32l-3-.82a18.41,18.41,0,0,0,3.48,1.7,14,14,0,0,0,3.93.37c.82,0,1.63-.14,2.46-.12.3,0,.59,0,.89.06-.85-.13-.94-.14-.26,0,.44.11.88.18,1.32.3,4.14,1,8.23,2.41,12.33,3.63l-2.65-10c1.34-1-.2,0-.5.18-1,.61,1.17-.36-.28.08-.17.05-1.29.45-1.39.33.92-.12,1-.15.37-.1H41.9l5.78,7.6,1.13-6.36-7.38,4.19a27.07,27.07,0,0,0,4.83.63,16.5,16.5,0,0,0,1.86,0c.61,0,4-.32,1.74-.2.68,0,.54-.06-.4-.16A3.91,3.91,0,0,1,47.12,209c.5.8-.46-1.49,0,0a20.32,20.32,0,0,0,1.21,3.35c2.67,5.48,9.17,7.05,14.74,6.94a15.07,15.07,0,0,0,4.23-.49,7.68,7.68,0,0,0,5.07-5.1c1-3.5-.25-6.83-2.58-9.47a17.22,17.22,0,0,0-6.17-4,39,39,0,0,0-7.89-2.6v11.57l2-.48-3.19-11.57-4.31,1.18,4.62,11a25.55,25.55,0,0,1,4.48-2.78l.58-.26-.46.19c.4-.14.79-.3,1.19-.43a23.25,23.25,0,0,1,2.44-.68l.62-.13c.56-.1.56-.1,0,0-1.53.33-2.88-.33-4.06-2,.12.2.23.41.34.63.31.59.6,1.2.93,1.8A12.5,12.5,0,0,0,65,210.34a8,8,0,0,0,8.35.43c2.84-1.64,3.58-5.27,3.42-8.31-.26-5-3.26-10.3-8.56-11.19l1.43,11c.51-.27,1-.51,1.53-.76,1.3-.63-1.23.43.12,0,.94-.32,1.86-.65,2.81-.91s1.92-.47,2.89-.64c.18,0,1.89-.37.88-.16s.71-.08.9-.1a93.73,93.73,0,0,1,11.85-.24c2.05.05,4.09.11,6.14.3.68.08.6.07-.24,0l.9.16c.45.08.9.18,1.34.29,1.09.26,2.18.54,3.27.81,4.21,1,8.44,2,12.62,3.14l1.6-11.78c-4.55-.25-8.89,1.23-13.26,2.23-.51.12-1,.23-1.56.33-1.62.29.88-.1-.44.07s-2.78.37-4.16.61l-3,.51c-.17,0-2,.3-1.07.18s-.91.09-1.08.1c-4.64.4-9.23-.46-13.86.49-4.23.86-8.53,3.54-10.45,7.52-1.43,3-.8,6.41,2.15,8.2a22.81,22.81,0,0,0,22.13.66,6,6,0,0,0,3-5.18,6.26,6.26,0,0,0-3-5.18c-2.8-2.05-6.42-2-9.67-1.39a14.7,14.7,0,0,0-8.14,3.7c-.19.2-.43.4-.6.62-.48.63.83-.61.26-.21s1-.26.39-.2c-.31,0-.62.16-.93.22-1.3.28-2.62.5-3.94.72s-2.7.45-4.06.65c-.63.1-1.28.24-1.91.28,1.39-.08.23,0-.08,0l-1.2.15a6.57,6.57,0,0,0-4.25,1.75,6.09,6.09,0,0,0-1.75,4.25c.13,2.92,2.66,6.41,6,6,2.93-.37,5.86-.76,8.77-1.24,2.59-.41,5.37-.67,7.79-1.7a8.94,8.94,0,0,0,4-2.81c.37-.55-.8.41-.28.16.17-.08,1-.47.12-.12s0,0,.18,0l.74-.2,1.5-.33c.2,0,1.11-.17.17-.06s0,0,.17,0,.52,0,.76,0c.65-.09-1.08-.3-.48-.09.19.07,1,.33.15,0s.06.13.23.25V202.8c-.1,0-1.27.57-.34.2s-.18.05-.38.11a18.1,18.1,0,0,1-1.88.52,6.53,6.53,0,0,0-.77.14c1.29-.43.78-.1.23-.06a15.86,15.86,0,0,1-2,0,5.45,5.45,0,0,0-1-.07c.26,0,1.28.22.44.06a17.63,17.63,0,0,1-1.91-.44l-.93-.3-.36-.14c-.42-.17-.25-.09.53.22a13.32,13.32,0,0,0-1.71-.93l2.15,8.21a5.15,5.15,0,0,0,.52-.94c-.6.73-.7.86-.29.38.12-.13.24-.26.37-.38,1-.91-.58.32-.1,0l1.09-.64c1-.57-1.25.37-.09,0,.36-.1.7-.23,1.06-.32s.72-.17,1.08-.24c1.23-.25-1.49.05.1,0,4-.1,8.06.31,12.09-.21,2.25-.29,4.48-.68,6.72-1.05.17,0,2-.31,1.07-.18-.48.06-.44.06.14,0l1.25-.17a34,34,0,0,0,3.47-.61c1.81-.41,3.58-.93,5.38-1.34.45-.11.9-.2,1.35-.29l.9-.16-.7.09a10.33,10.33,0,0,1,3.14-.1,6,6,0,0,0,1.59-11.79c-4.33-1.21-8.71-2.19-13.08-3.25a62.05,62.05,0,0,0-8-1.54c-2.18-.23-4.38-.26-6.57-.31-9.11-.22-18.38.15-26.6,4.5a6,6,0,0,0-2.87,6c.29,2.15,2,4.6,4.3,5,.62.1,1.13.49-.1-.19.71.4-.24-.15-.35-.35a4.44,4.44,0,0,1,.38.37c.31.33.18.16-.38-.52,0,0,.68,1.28.2.25s.13.48.06.43c-.24-.19-.09-1.39,0-.17,0,.35,0,.69,0,1l0,.41a3,3,0,0,1,.43-1.55l2.15-2.15a4.06,4.06,0,0,1,4.29-.12c-.53-.3-.38-.16.45.44a4.47,4.47,0,0,1-.45-.42c-.4-.47-.28-.31.34.46a12.73,12.73,0,0,0-1.17-2,11.63,11.63,0,0,0-2.21-3.34,7.69,7.69,0,0,0-6.47-2A28.3,28.3,0,0,0,48.76,199c-2.4,1.84-3.72,4.5-2.45,7.49a6,6,0,0,0,7.08,3.47l4.31-1.18a6,6,0,0,0-3.19-11.57l-2,.48a6.06,6.06,0,0,0-4.4,5.79c.11,2.51,1.76,5.25,4.4,5.78a37,37,0,0,1,5.63,1.65c1.17.44-1-.49.22.11.39.19.78.37,1.16.57s.69.37,1,.58c1.27.79,0,0,0,0a5.58,5.58,0,0,1,.56.53c.33.38.34.38,0,0s-.33-.4-.06,0c-.31-.84-.41-1.05-.29-.62s.09.2-.1-.79a3.77,3.77,0,0,1,.52-1.83l2.49-2c.95-.1,1.1-.13.43-.1-.89,0-1.78.06-2.68,0-.28,0-1.07.09-1.33-.08.86.13,1,.13.28,0-.22,0-.43-.09-.65-.15s-1.53-.38-.53-.14c1.25.3-.76-.28-.59-.39s1.19.95.09,0c-.8-.7.57,1.08.08,0,.69,1.45.23.59.1.16s-.17-.64-.26-1a12.58,12.58,0,0,0-1.28-3,8.26,8.26,0,0,0-7.95-3.8c-1.72.23-2.13.29-1.23.16.52-.07.48-.07-.1,0s-.93.05-1.4.05-.93,0-1.39-.06c-.69-.07-.62-.06.2,0-.3-.05-.61-.11-.91-.18-2.94-.62-6.79.85-7.38,4.19l-1.13,6.36a6.18,6.18,0,0,0,1.08,5.23,6,6,0,0,0,4.71,2.36,17,17,0,0,0,11.1-4c1.64-1.26,2.06-4,1.55-5.83a6.11,6.11,0,0,0-4.19-4.19c-4.24-1.26-8.47-2.74-12.77-3.74a25,25,0,0,0-7.16-.54c-.57,0-2.05-.28-.37.14-1.14-.28.89.74,0,.05A7.1,7.1,0,0,0,24,197.82c-3.92,1.07-5.39,4.84-5.46,8.52,0,1.07,0,2.16,0,3.24q-.06.71.09-.63a6.93,6.93,0,0,1-.2.75c.39-.83.44-1,.13-.4a2.11,2.11,0,0,1,.84-.86c.44-.29.47-.32.09-.08,1-.37,1.17-.47.57-.31a3.58,3.58,0,0,1,3.27.68,3.43,3.43,0,0,1,1.4,2.05c.08,1,.1,1.14.06.47,0-.5,0-1,0-1.51l.26-7.19a6.05,6.05,0,0,0-6-6,6.12,6.12,0,0,0-6,6Z"/><path class="cls-1" d="M13.71,198.32q.73,10.74,1.13,21.52a3.06,3.06,0,0,0,3,3,3,3,0,0,0,3-3q-.39-10.77-1.13-21.52a3.08,3.08,0,0,0-3-3,3,3,0,0,0-3,3Z"/><path class="cls-1" d="M203.75,189.3c0,.31-.06.62-.1.93l.11-.79a20.23,20.23,0,0,1-.84,3.58,2.19,2.19,0,0,0-.06,1.19,2.28,2.28,0,0,0,.36,1.12,3.09,3.09,0,0,0,1.79,1.38,3.05,3.05,0,0,0,2.31-.31l.61-.46a3,3,0,0,0,.77-1.33,22.41,22.41,0,0,0,1.05-5.31,2.2,2.2,0,0,0-.26-1.16,2.24,2.24,0,0,0-.62-1,3,3,0,0,0-2.12-.87,3,3,0,0,0-2.12.87l-.47.61a3,3,0,0,0-.41,1.52Z"/><path class="cls-2" d="M13.62,182.44q.06,3.09,0,6.18c-.15,4.12,3.55,7.41,7.5,7.5l5.19.12a7.59,7.59,0,0,0,5.31-2.2,8.38,8.38,0,0,0,2.19-5.3c0-.28.05-.55.09-.82l-.27,2a10.85,10.85,0,0,1,.7-2.36l-.76,1.79a10.61,10.61,0,0,1,1-1.78L26.09,191a26.68,26.68,0,0,0,9.57,1l-6.48-11.29c-.13.22-.27.43-.41.65-.73,1.14.92-1,.35-.47-.41.39-.79.82-1.22,1.21-.81.75.58-.52.62-.46l-.63.42a13.55,13.55,0,0,1-1.69.88l1.79-.76-.71.28c-3.54,1.3-5.9,4.34-5.38,8.23a7.53,7.53,0,0,0,7.37,6.5c3.94.14,7.88.29,11.82.4,3.59.11,7.47-1,9.23-4.45,1.89-3.74.76-7.51-1-11l-8.47,11a47.52,47.52,0,0,0,7.6,1.1l-7.23-5.51,0,.23v-4l-.07.19,1.93-3.31c-.31.34-.18.26.39-.25s.72-.56.29-.26A5.24,5.24,0,0,0,42,182.8a8.29,8.29,0,0,0-2.46,5.9,8.94,8.94,0,0,0,6.59,8.48,12.07,12.07,0,0,0,8.73-1.54,17.35,17.35,0,0,0,2.77-2,10.32,10.32,0,0,0,.82-.8c.49-.52,1.2-.87-.56.28l-1.79.76.31-.11-2,.27.33,0-2-.27.31.09-3.31-1.93.24.21a8,8,0,0,0,5.3,2.19,7.65,7.65,0,0,0,5.3-2.19c2.57-2.79,3.2-7.9,0-10.61a8.57,8.57,0,0,0-12.07,0c-.42.4-.83.83-1.22,1.26s-.38.34.17-.1.61-.47.14-.15c-.34.17-.67.38-1,.54l1.79-.76a7.81,7.81,0,0,1-1.49.47l2-.27a2.27,2.27,0,0,1-.78,0l2,.27-.37-.12,1.79.75,2.1,2.1.76,1.79-.1-.26.27,2,0-.27-.27,2,0-.26-.76,1.79c-.82,1.55-3.09,2.75-1.66,1.76a11.1,11.1,0,0,0,1.88-1.51c2.07-2.32,2.46-4.74,2-7.72A6.91,6.91,0,0,0,53,180.87a7.79,7.79,0,0,0-4.55-1.61c-.78,0-1.57-.13-2.35-.23l2,.27c-1.09-.15-2.17-.36-3.25-.61a7.54,7.54,0,0,0-8.47,11c.13.23.24.48.35.72L36,188.64a10.25,10.25,0,0,1,.69,2.31l-.27-2,0,.41,1-3.79,2.11-2.1,1.79-.75a2.57,2.57,0,0,1-.61.14l2-.26a63.53,63.53,0,0,1-6.47-.17l-6.91-.24,2,14.73a20.79,20.79,0,0,0,10.87-8.63c2.84-4.55-.77-11.8-6.47-11.29a21.83,21.83,0,0,1-4.5-.07l2,.27a23.24,23.24,0,0,1-3.09-.65c-3.43-1-6.53.72-8.47,3.44a17.24,17.24,0,0,0-2.84,8.75l7.5-7.5-5.19-.12,7.5,7.5q.11-3.09.05-6.18c-.07-3.93-3.4-7.69-7.5-7.5a7.61,7.61,0,0,0-7.5,7.5Z"/><path class="cls-2" d="M93.18,182.59c.15-.24-2.61-.69-2.86-.67-1.39.09-2.72.22-4.11.19q-4.5-.06-9-.2c-2.91-.08-5.82-.17-8.72-.29a18.13,18.13,0,0,1-4.21-.54,15.09,15.09,0,0,0-4.15-.79,1.52,1.52,0,0,0-1.3,2.26,20.94,20.94,0,0,0,2,3c.35.44.82.84,1.13,1.3.15.23.33,1.11.11,1.18l1.46,2.51c1.67-1.55,4.43-2.1,6.51-2.93a21.25,21.25,0,0,1,7.31-1.94c1.64-.05,2.1-2.56.4-2.95a26.77,26.77,0,0,0-15.32.95,1.52,1.52,0,0,0-.66,2.51,5.88,5.88,0,0,0,8.72.07,1.52,1.52,0,0,0-.3-2.36c-2-.85-4.42.06-6.23,1a24.06,24.06,0,0,0-5.39,4.3,1.52,1.52,0,0,0,1.06,2.56,5.46,5.46,0,0,0,3.14-.93c1.58-1.09.08-3.69-1.52-2.59a2.61,2.61,0,0,1-1.62.52l1.06,2.56a24.71,24.71,0,0,1,3.91-3.32A10.31,10.31,0,0,1,66.74,187a8.74,8.74,0,0,1,1.14-.32,3,3,0,0,1,.59-.09c.38,0,.44,0,.2-.06l-.31-2.36a2.87,2.87,0,0,1-4.48-.06l-.66,2.51a23.8,23.8,0,0,1,13.72-1l.4-2.94a24.62,24.62,0,0,0-8.53,2.21c-2.51,1-5.38,1.66-7.42,3.53a1.51,1.51,0,0,0,1.46,2.51,3.92,3.92,0,0,0,2.32-4.51A7,7,0,0,0,63.35,184,17.64,17.64,0,0,1,61.43,181l-1.29,2.25c1.55,0,3,.66,4.47,1a31.09,31.09,0,0,0,4.62.4c3.33.13,6.66.23,10,.32s6.44.34,9.61.11a10.11,10.11,0,0,1,2-.15c.61.08,1.18.4,1.79.51a3,3,0,0,0,3.1-1.33c1-1.65-1.57-3.16-2.59-1.52Z"/><path class="cls-2" d="M44.88,151c.6-1.82,1.27-3.61,2-5.39l-1.51,3.59A74.25,74.25,0,0,1,55,133l-2.34,3c3.21-4.16,6.75-8.05,10.34-11.88a108.82,108.82,0,0,1,12.15-11.76l-3,2.35a36.85,36.85,0,0,1,7.67-4.61l-3.59,1.51c.88-.37,1.77-.7,2.68-1l-14.6-3.86.23.21-2.35-3a1.44,1.44,0,0,1,.29.51l-1.51-3.59.08.29-.54-4a4.22,4.22,0,0,1,0,.94l.53-4a7.2,7.2,0,0,1-.37,1.28l1.51-3.59C57.52,102.36,50,111.39,43.24,120.59A134.47,134.47,0,0,0,33.77,135c-.69,1.26-1.35,2.53-2,3.82a39.27,39.27,0,0,0-3,7.11,16.42,16.42,0,0,0,5.78,17.3,16.84,16.84,0,0,0,10,3.52c.93.05,1.86,0,2.79,0l11.52-.11a74.64,74.64,0,0,1,10.36.21l-4-.54a17.3,17.3,0,0,1,3.74,1l-3.59-1.51a11.77,11.77,0,0,1,2.34,1.33l3.58-27.41c-.27.06-.54.12-.82.16l4-.54a10.12,10.12,0,0,1-2.52,0l4,.53a10.8,10.8,0,0,1-2-.56l3.58,1.51c-.39-.18-.75-.36-1.12-.57L64.87,167.63a54.49,54.49,0,0,0,9.21,1.87,51.67,51.67,0,0,0,9.38.55c3.78-.17,8-1.51,10.61-4.39l2.34-3a14.91,14.91,0,0,0,2-7.57C99,149.26,97,142.81,93.88,138a45.78,45.78,0,0,0-5.59-7.12c-1.27-1.33-2.87-2.39-4.05-3.78l2.35,3a2.28,2.28,0,0,1-.36-.62L87.74,133l-.07-.32.54,4v-.32l-.53,4,.13-.32L84,146.68l.23-.26-3,2.35a5.19,5.19,0,0,1,1-.54l-3.58,1.51a14.66,14.66,0,0,1,3.62-1l-4,.53a15.54,15.54,0,0,1,3.34,0l-4-.54a14.58,14.58,0,0,1,2.84.71,15.18,15.18,0,0,0,8,0,11.34,11.34,0,0,0,5.1-2.69A14.51,14.51,0,0,0,99.35,135a86.36,86.36,0,0,1,.87-13l-.53,4c1.45-10.72,4-21.47,3.56-32.35A15.65,15.65,0,0,0,98.86,83a15.23,15.23,0,0,0-10.61-4.39c-3.87.17-7.9,1.45-10.6,4.39a15.22,15.22,0,0,0-4.4,10.61,82.64,82.64,0,0,1-.86,14l.53-4C71.5,114,69.13,124.47,69.35,135l19-14.46a24.17,24.17,0,0,0-10.16-1.27c-5.61.53-11.35,2-15.43,6.16a16.16,16.16,0,0,0-2.42,19.13,17.79,17.79,0,0,0,4.11,5,33.09,33.09,0,0,1,4.49,4.6l-2.34-3a22.17,22.17,0,0,1,2.84,4.72l-1.51-3.58A16.69,16.69,0,0,1,69,156l-.54-4a13.8,13.8,0,0,1,0,3.08l15-15a43.32,43.32,0,0,1-7.38-.28l4,.53a43.39,43.39,0,0,1-7.21-1.6,11.38,11.38,0,0,0-6-.26,11.11,11.11,0,0,0-5.58,1.78l-3,2.34a11.33,11.33,0,0,0-3.1,4.83,14.36,14.36,0,0,0-.75,9.77,15.57,15.57,0,0,0,6.89,9,24.63,24.63,0,0,0,18,2.5l3.58-1.51,3-2.34,2.34-3a11.11,11.11,0,0,0,1.78-5.58,7.47,7.47,0,0,0,0-4,7.41,7.41,0,0,0-1-3.79,7.55,7.55,0,0,0-1.93-3.31,11.34,11.34,0,0,0-4.21-3.86,25.26,25.26,0,0,0-6.27-3,17.11,17.11,0,0,0-3.39-.82,66.23,66.23,0,0,0-11.15-.78l-8.83.08a84.66,84.66,0,0,1-8.87,0l4,.53-.36-.1,3.58,1.51-.33-.18,3,2.34-.21-.22,2.35,3-.14-.26L57.83,147l-.08-.28.54,4a1.79,1.79,0,0,1,0-.61l-.54,4a6,6,0,0,1,.37-1.25l-1.51,3.58c6.85-15.71,19.34-27.9,27.87-42.59,1.17-2,2.27-4.07,3.24-6.17a41.54,41.54,0,0,0,2-4.73c.07-.21.12-.43.17-.64a24.24,24.24,0,0,0,.6-4.48,16.74,16.74,0,0,0-5-12.21c-3.85-3.55-9.4-5.52-14.6-3.86A48.65,48.65,0,0,0,61.16,86a66,66,0,0,0-8.55,6.23,114.72,114.72,0,0,0-10.3,10.15c-6.8,7.21-13.5,14.76-18.59,23.31A88.38,88.38,0,0,0,16,143c-1.19,3.58-.35,8.36,1.51,11.55a15.28,15.28,0,0,0,9,6.9c3.84.87,8.15.68,11.56-1.51a16.43,16.43,0,0,0,6.89-9Z"/><path class="cls-2" d="M22.69,159.71a22.72,22.72,0,0,1,3.4.17l-2-.27A22.5,22.5,0,0,1,29.45,161l-1.79-.76a22.76,22.76,0,0,1,4.1,2.27l1.79-13.71-.39.16c-1.8.75-3.51,1.62-4.48,3.45a7.72,7.72,0,0,0-.89,4.78,7.1,7.1,0,0,0,2.07,4.31,8.64,8.64,0,0,0,5.3,2.19,70.88,70.88,0,0,0,12.19.12l12.84-.71,12.62-.71,6.44-.36,3-.16a15,15,0,0,0,3-.33,8.28,8.28,0,0,0,4.6-3.64c.65-.94,1.26-1.9,1.92-2.84l.94-1.29.42-.55c.59-.8-.16.16-.34.43a39.36,39.36,0,0,1,4.48-5.18L85.45,147l.16.37-.75-1.79a7.69,7.69,0,0,1,.29,1.17l-.27-2a6.22,6.22,0,0,1,0,1.22l.27-2a6.48,6.48,0,0,1-.3,1.17c-1.3,3.71,1.47,8.37,5.24,9.23a7.68,7.68,0,0,0,9.22-5.24c1.17-3.34.47-6.59-.91-9.7-.92-2.08-3.37-3.3-5.48-3.58a7.24,7.24,0,0,0-6.3,2.06,87.54,87.54,0,0,0-9.88,12.66l6.47-3.71L59,148.21c-7.86.43-16,1.45-23.79.52l2,14.74.39-.17a9.65,9.65,0,0,0,3.31-1.92,7.4,7.4,0,0,0,2.06-4.31,7.65,7.65,0,0,0-3.58-7.47,28.38,28.38,0,0,0-16.64-4.89c-3.92.1-7.69,3.38-7.5,7.5s3.29,7.61,7.5,7.5Z"/><path class="cls-2" d="M74.08,83.08,76.66,83a5.11,5.11,0,0,0,2.36-.3c1.3-.72,1.09-2.29.52-3.4l-.9,2.2c1.14-.28,2.29-.24,3.43-.48a11.94,11.94,0,0,0,2.6-1.12c2-.94,4.17-1.29,6.21-2S95,76,97.29,75.57a18.34,18.34,0,0,1,7.27,0l-.36-2.75a18.3,18.3,0,0,1-3.87,1.58,26,26,0,0,1-4,.26,27.32,27.32,0,0,0-7.78,2,1.51,1.51,0,0,0,0,2.89c2.94.84,6.15.24,9.12-.13,2.75-.34,5.8-.53,8-2.42l-2.36-1.82c-2.54,5.25-1.92,11.09-3.13,16.65H103a21.68,21.68,0,0,1-1-6.36c-.06-1.13-.1-2.25-.12-3.37a7.75,7.75,0,0,1,.19-3.26l-2.8-.76a9.7,9.7,0,0,1-1.64,6h2.59a9.3,9.3,0,0,1-1-2.71,6.7,6.7,0,0,0-.88-2.72c-1.21-1.72-3.14-1.51-4.79-.59a1.51,1.51,0,0,0,0,2.59,9.84,9.84,0,0,0,6.4,1.14,1.47,1.47,0,0,0,1-1,2.37,2.37,0,0,0-1.5-2.9c-1.34-.49-2.52.26-3.49,1.12-1.45,1.29.68,3.4,2.12,2.13a1.3,1.3,0,0,1,.41-.33c.38-.19.23-.46-.44-.82l1.05-1a6.5,6.5,0,0,1-4.09-.84v2.59c.62-.34.77-.51,1,.2a16.79,16.79,0,0,1,.32,1.72,11.68,11.68,0,0,0,1.17,3,1.52,1.52,0,0,0,2.59,0,12.52,12.52,0,0,0,2-7.56c-.07-1.36-2.12-2.21-2.79-.76-1.07,2.29-.62,5.21-.51,7.67a26,26,0,0,0,1.09,7.64c.46,1.28,2.55,1.56,2.89,0,1.14-5.23.45-11,2.83-15.93a1.51,1.51,0,0,0-2.35-1.82A6,6,0,0,1,100.61,76c-1.31.25-2.63.43-4,.58-2.39.27-5,.79-7.35.12v2.89a24.67,24.67,0,0,1,8.31-2,17.82,17.82,0,0,0,8.09-2.21,1.51,1.51,0,0,0-.35-2.74,22.08,22.08,0,0,0-7.52-.22,27.56,27.56,0,0,0-6.91,2.2c-2.16.86-4.47,1.29-6.63,2.15a17.79,17.79,0,0,1-3,1.32c-1.13.21-2.27.2-3.4.48a1.52,1.52,0,0,0-.9,2.2c.66-.69.64-1,0-.81L76,80l-1.88,0c-1.93,0-1.94,3,0,3Z"/><path class="cls-2" d="M99.73,105.54c.19,8.19-2,16.2-2,24.38a86.55,86.55,0,0,1-.55,12.26c-.61,4-1.34,8-1.75,12a118.32,118.32,0,0,0-.58,14.09l1.5-1.5a18.79,18.79,0,0,1-6-.57l.35,2.74a12.2,12.2,0,0,1,4.42-1.34c1.9-.32,1.09-3.21-.8-2.89a14.22,14.22,0,0,0-5.13,1.64,1.52,1.52,0,0,0,.36,2.74,21.75,21.75,0,0,0,6.82.68,1.54,1.54,0,0,0,1.5-1.5,139.74,139.74,0,0,1,2.11-24.59,72.76,72.76,0,0,0,.76-12.07,89.25,89.25,0,0,1,.9-12.22,90.57,90.57,0,0,0,1.13-13.85c0-1.93-3-1.93-3,0Z"/><path class="cls-2" d="M126.79,109.33a60.14,60.14,0,0,1-.59,10.47l.54-4c-.84,6.18-2,12.31-2.7,18.51a54.71,54.71,0,0,0-.38,7.24c.09,4.12.45,8.4,2.06,12.21a13.23,13.23,0,0,0,3.52,5.57,23.65,23.65,0,0,0,3.74,2.87c3.13,1.91,6.76,2.22,10.32,2.42l7.92.44c5.42.29,10.84.65,16.26.88a46.74,46.74,0,0,0,11.13-.87,37.66,37.66,0,0,0,10.2-4c6.72-3.56,13.07-8.58,14.84-16.4a23,23,0,0,0-.08-10.49,30.15,30.15,0,0,0-2.65-6.66,74.43,74.43,0,0,0-3.86-6.49q-4-6.39-8.45-12.52c-2.29-3.17-4.68-6.27-7.08-9.36-1.7-2.19-3.37-4.44-5.26-6.47a28.32,28.32,0,0,0-8.54-6.29c-3.31-1.56-6.76-2.75-10.13-4.16l3.59,1.51a22.75,22.75,0,0,1-4.43-2.44l-3.58-1.51-4-.53a14.84,14.84,0,0,0-9.09,3.22,7.54,7.54,0,0,0-2.69,2.69,7.5,7.5,0,0,0-1.93,3.31,7.4,7.4,0,0,0-1,3.78,11.27,11.27,0,0,0,.27,6,217.06,217.06,0,0,0,5.73,25.32c.58,2,1.19,4,1.83,6,.32,1,.64,2,1,3a30.83,30.83,0,0,0,2.45,5.66,21.33,21.33,0,0,0,11.69,9.13c1.59.55,3.28.68,4.84,1.28l-3.58-1.51a6.92,6.92,0,0,1,1.22.68,11.11,11.11,0,0,0,5.58,1.78,11.37,11.37,0,0,0,6-.26,15.27,15.27,0,0,0,9-6.9c1.84-3.48,2.77-7.7,1.52-11.56l-1.52-3.58a15,15,0,0,0-5.38-5.38,21.07,21.07,0,0,0-4.8-2.2,14.39,14.39,0,0,0-1.7-.5,23,23,0,0,1-3.47-.91l3.59,1.52a7,7,0,0,1-1.21-.71l3,2.34a7.27,7.27,0,0,1-.78-.79l2.34,3a10,10,0,0,1-1.09-2l1.52,3.58a143.34,143.34,0,0,1-5.12-17.12q-2.24-8.86-3.71-17.89l-22,16.94c4,2.91,9,4.22,13.49,6.12l-3.59-1.51a21.81,21.81,0,0,1,4.41,2.44l-3-2.35c3,2.33,5.26,5.65,7.57,8.63l-2.35-3q4.83,6.26,9.24,12.82,2.15,3.18,4.18,6.44a56.21,56.21,0,0,1,4,6.9L174,140.09a11.9,11.9,0,0,1,.74,2.49l-.53-4a8.12,8.12,0,0,1,0,2.09l.53-4a7.78,7.78,0,0,1-.32,1.17l1.52-3.58a7.43,7.43,0,0,1-.88,1.52l2.35-3a10.91,10.91,0,0,1-1.79,1.74l3-2.34a37.87,37.87,0,0,1-7.63,4.28l3.58-1.51a21.23,21.23,0,0,1-4.88,1.38l4-.54c-5.27.69-10.76-.06-16-.35s-10.74-.39-16.06-.9l4,.53a5.37,5.37,0,0,1-1.05-.26l3.59,1.51-.31-.16,3,2.34a1.94,1.94,0,0,1-.51-.48l2.35,3a2.57,2.57,0,0,1-.31-.62l1.51,3.58a14.51,14.51,0,0,1-.46-2.38l.53,4a53,53,0,0,1,.36-13.55l-.54,4c1.22-8.86,3.39-17.75,3-26.73a15.75,15.75,0,0,0-4.4-10.61,15.23,15.23,0,0,0-10.6-4.39c-3.88.17-7.9,1.44-10.61,4.39s-4.56,6.61-4.39,10.61Z"/><path class="cls-2" d="M163.14,83.29a49.75,49.75,0,0,0-7.53-3.55c-1.24-.46-2.5-.88-3.77-1.23-.71-.2-1.43-.38-2.14-.55l-.87-.19-.61-.13c-.43-.15-.44.13,0,.86l-1.3.74a1.5,1.5,0,0,1,.86.17l1.16-2.74L135.77,73c-1.61-.45-3.78-1.4-5,.37a7.16,7.16,0,0,0-.72,2.66c-.2,1.14-.39,2.27-.58,3.4q-2.17,13.33-3,26.84a1.54,1.54,0,0,0,1.5,1.5c2.41.31,3-3.56,3.5-5.2.71-2.18,1.51-4.32,3.28-5.87a1.53,1.53,0,0,0-.66-2.51c-1.57-.63-4.29-1.41-5.23.56-.62,1.29-.88,4,.91,4.45s3.28-1.44,3.94-2.75a8.65,8.65,0,0,0,1.11-4.88A2.31,2.31,0,0,0,131,90.26c-1.11.92-2.92,3.19-2.31,4.72s3.07,1.85,4.53,1.35a4.92,4.92,0,0,0,.67-8.87,3.31,3.31,0,0,0-4.64,2.07,1.49,1.49,0,0,0,.38,1.46c1.37,1.2,3.48,2.17,5.29,1.34s2.06-3.14,2-4.86a4.91,4.91,0,0,0-2.56-4.31c-1.63-.82-3.71-.31-4.05,1.66a3.75,3.75,0,0,0,6.66,2.88c2.36-3.14-1.28-6.85-4.6-5.25-1.51.73-.43,3.39,1.15,2.74,2.39-1,4.42-3.73,3.25-6.38a2.58,2.58,0,0,0-2.76-1.7A3.76,3.76,0,0,0,131.4,80c-.78,2.66,2.29,5.29,4.32,2.82s.45-5.87-1.17-8.15a1.52,1.52,0,0,0-2.74.36,5.4,5.4,0,0,0,1.43,5.9c1.51,1.42,4,2.52,6,1.49a3.67,3.67,0,1,0-3.57-6.4,3.43,3.43,0,0,0-.8,5.1,3.18,3.18,0,0,0,4.9-.24c1.16-1.77-.5-4.45-2.64-3.48-1,.45-1.51,1.7-1.91,2.64a5.58,5.58,0,0,0-.47,3.43,2.92,2.92,0,0,0,2.08,2.36,3.07,3.07,0,0,0,3-1.46,17.6,17.6,0,0,0,3.22-7.27,1.52,1.52,0,0,0-2.21-1.69c-1.55.81-3.39,2.85-2.54,4.73s3.57,2.33,5.27,2c1.54-.3,3.71-1.87,3.17-3.71-.63-2.16-3.69-1.83-5.15-.89a1.5,1.5,0,0,0-.3,2.35,7.63,7.63,0,0,0,4.29,1.87c1.92.22,1.9-2.78,0-3a4.09,4.09,0,0,1-2.17-1l-.31,2.36c.2-.13.45-.19.64-.31.43.08.49-.1.19-.53,0-.51-.07-.65-.27-.41-.06,0-.45.26-.55.29a1.92,1.92,0,0,1-.89,0c-.27,0-.51-.17-.77-.22-.58-.12-.1-.18-.31.13A2.87,2.87,0,0,1,142.45,78l-2.21-1.69A15.61,15.61,0,0,1,137.93,82c0-.07-.85,1.11-.21.85-.15.06.26-1.63.3-1.73.12-.26.64-.86.62-1.15q-.55-1.09-1.29-.81a.62.62,0,0,1-.26-.12.59.59,0,0,1,1-.43c.63.59-.11,1.18-.71,1.17a3,3,0,0,1-2.68-4l-2.75.36a10.27,10.27,0,0,1,1.56,2.65,3.08,3.08,0,0,1,.18,1.13c0,.56-.54.95.13,1,.35.15.52,0,.52-.32.1-.21.22-.42.34-.63L134,80a1.19,1.19,0,0,1,0,.46c-.3.77-.51,1.45-1.36,1.81L133.83,85a.58.58,0,0,1,.6,1,.59.59,0,0,1-.8.09c-.17-.1-.21-.28-.34-.4a.55.55,0,0,1-.07-.25c0-.3-.14-.19-.38.33,0,.08.74.59.84.82a3.46,3.46,0,0,1,.17,1.72c-.06.56,0,1.23-.6,1.27a2.59,2.59,0,0,1-1.54-.73l.39,1.46c.13-.5.69,0,.86.19a2,2,0,0,1,.33,1.68,1.69,1.69,0,0,1-.95,1.25c-.33.15-.56,0-.88.12l-.29-.09c0,1.07.18,1.35.41.87a6.69,6.69,0,0,0,1.14-1.62c.36-.32.09-.54-.82-.64v.22a7,7,0,0,0-.22,1,7.71,7.71,0,0,1-.54,1.62,3.76,3.76,0,0,1-.5.81c-.43.51-.6.17.12.6l.69.89a5.83,5.83,0,0,1,.09-.7c0-.13,0-.27.05-.4.09-.39-.08-.28-.51.36a5,5,0,0,0,.94.15,9.29,9.29,0,0,1,1.29.43l-.66-2.5a12.32,12.32,0,0,0-3.23,4.87c-.37.94-.69,1.91-1,2.87-.16.48-.31,1-.47,1.45l-.24.72c-.26.38-.17.48.27.28l1.5,1.5c.5-8,1.34-15.94,2.57-23.85q.45-2.93,1-5.83c.05-.3.36-1.11.25-1.36.08-.27,0-.22-.19.14l.71.19,2.81.79,11.51,3.2c1.59.44,2.73-2,1.16-2.75a3.87,3.87,0,0,0-3-.45,2,2,0,0,0-1,2.26c.4,2,2.92,2,4.48,2.43a46,46,0,0,1,11.87,4.82,1.5,1.5,0,0,0,1.51-2.59Z"/><path class="cls-2" d="M201.15,131.7q2.47,9.12,4.24,18.39l.18,1c0,.23.09.47.13.71s.09.33.31,0c.72-.31-.37-.28-.58-.28a5.33,5.33,0,0,0-1.05.1,17.86,17.86,0,0,0-3.9,1.53,41.56,41.56,0,0,1-8.84,2.75l.79,2.89c6.44-1.59,10.4-7.2,12.52-13.15l-2.74.36a6.73,6.73,0,0,1,1,3.51,2.48,2.48,0,0,1-.17.86s-.23.48-.11.29.25-.57.67-.86a3.42,3.42,0,0,0,1.83-2.64c.09-1.33,0-2.71-.09-4a1.5,1.5,0,0,0-3,0c-.35,4.13-1.5,8.24-5.1,10.68a37.42,37.42,0,0,1-5.86,3,41.52,41.52,0,0,1-6.41,2.31,37.89,37.89,0,0,0-6.26,1.79,48.85,48.85,0,0,1-6.53,2.71c-4.48,1.22-9.16,1.21-13.76,1.21a1.5,1.5,0,0,0,0,3,69.91,69.91,0,0,0,11.75-.7,26.27,26.27,0,0,0,5.52-1.53c1.83-.74,3.53-1.8,5.4-2.42s3.71-.88,5.54-1.4a45,45,0,0,0,5.64-2.11c3.26-1.41,6.8-2.82,9.2-5.56,2.67-3,3.54-7,3.87-10.94h-3a18.09,18.09,0,0,1,.1,3.52c-.1.53-.35.54-.8.88a4.66,4.66,0,0,0-1,1,3.23,3.23,0,0,0,1.1,4.84c1.91.83,3.88-.69,4.34-2.54a8.92,8.92,0,0,0-1.23-6.36,1.51,1.51,0,0,0-2.74.36c-1.78,5-5,9.72-10.42,11.05-1.89.47-1.08,3.27.79,2.89a44.55,44.55,0,0,0,9.56-3,18.44,18.44,0,0,1,2.55-1.09,8.2,8.2,0,0,1,2,0,2.42,2.42,0,0,0,2.19-2.9,87.81,87.81,0,0,0-2-10.26q-1.18-5.31-2.63-10.57a1.5,1.5,0,0,0-2.89.8Z"/><path class="cls-2" d="M123.39,150.63a147.68,147.68,0,0,0-1.11,15.3c0,2-.1,4.17,2.26,4.71a15.62,15.62,0,0,0,3.06.14l4,.08c4.95.1,9.94.37,14.89.25s9.63-1.53,14.29-3a1.53,1.53,0,0,0,.67-2.51c-2.46-3-7.05-.58-10.07,0a59.74,59.74,0,0,1-12.24,1c-2,0-4-.07-6-.15a30.33,30.33,0,0,1-6-.49l-.66-.18c.2.23.23.1.11-.37a11.38,11.38,0,0,0,0-1.43c0-1,.06-2.06.13-3.09s.15-2.05.26-3.07c0-.48.11-1,.17-1.42s.09-.68.14-1c.23-.68,0-.7-.7-.06l-1.06-.44c.62.5.37,2.74.34,3.47a26.86,26.86,0,0,1-.4,3.35c-.32,1.77-1,4.21,1,5.2a3,3,0,0,0,4.09-2.06c.56-2-.91-3.66-1.24-5.57l-1,1.85c-.41-.08-.48,0-.18.38l.14.41a9.26,9.26,0,0,1,.31,1.26,11.78,11.78,0,0,0,.32,2.13,2.64,2.64,0,0,0,3.22,1.71,3,3,0,0,0,2.15-3.15,5.25,5.25,0,0,0-2.33-3.68,1.52,1.52,0,0,0-2.56,1.06,5.45,5.45,0,0,0,8.29,4.6,1.52,1.52,0,0,0,0-2.59c-1.53-1.14-4.18-1.45-4.83.87s1.94,3.38,3.63,2.36a1.51,1.51,0,0,0,.74-1.3,3.53,3.53,0,0,0-1.67-2.92c-1.17-.78-2.44.5-2.2,1.69a4.15,4.15,0,0,0,7.84.91,1.53,1.53,0,0,0-1.69-2.21c-1.63.25-3.06,1.89-1.91,3.49s3.22.71,4.94.73a48.53,48.53,0,0,0,6,0l6.51-.69c1.9-.21,1.92-3.21,0-3-2.72.29-5.45.67-8.19.84-1.31.07-2.59-.06-3.9-.12a10.44,10.44,0,0,0-1.77.05,3.35,3.35,0,0,0-1,.18c-.38,0-.44.27-.2.77-.21.61-.1.83.34.66l-1.7-2.21c-.57,1.32-2.06,1.32-2.36-.18L134,164.9a.3.3,0,0,1,.18.33l.74-1.29c-.93.56.82,1.66,1.21,1.95V163.3a2.43,2.43,0,0,1-3.78-2l-2.56,1.06a6.44,6.44,0,0,1,1.1,1c.1.13.49,1.33.78.91a7.65,7.65,0,0,0-.11-1,12,12,0,0,0-.31-1.67c-.48-1.8-1.57-3.84-3.76-3.31a1.53,1.53,0,0,0-1,1.85A17.49,17.49,0,0,0,127.5,163c.08.25,0,1,.14,1.15.45.6.52-.78.58-1.13a24.14,24.14,0,0,0,.49-7.43,3.91,3.91,0,0,0-1.11-2.78A1.92,1.92,0,0,0,125,153a4.91,4.91,0,0,0-.8,2.81c-.18,1.32-.33,2.65-.44,4-.09,1.18-.16,2.37-.2,3.56a12.39,12.39,0,0,0,.09,3.6c.61,2.16,3.71,2.26,5.53,2.4a112.92,112.92,0,0,0,14.83.22,55.69,55.69,0,0,0,7.94-.95c1.36-.27,2.7-.62,4-1,1.11-.34,2.5-.9,3.36.17l.66-2.51c-4.08,1.29-8.22,2.61-12.52,2.85s-8.94-.07-13.38-.16l-6.48-.13a7,7,0,0,1-2,0c-.52-.21-.14.37-.34-.32a5.73,5.73,0,0,1,0-1.49c0-.66,0-1.32,0-2q.23-6.69,1.06-13.32c.23-1.91-2.77-1.9-3,0Z"/><path class="cls-2" d="M122,182.32c-.23,2.37-.55,4.74-.69,7.11-.11,1.81.83,3.39,2.8,3.47A3.51,3.51,0,0,0,127.6,190c.5-2.23-1-4-1.14-6.17a1.5,1.5,0,0,0-3,0,33.18,33.18,0,0,0-.56,5.78,2.4,2.4,0,0,0,3,2.36c1.66-.5,1.8-2.47,1.93-3.91a20.61,20.61,0,0,0-.39-5.86l-2.2,1.7c1.37.82,1.69,2.49,1.61,4s-.53,3.89,1.74,3.83c2-.05,2.57-2.79,2.45-4.34a6.83,6.83,0,0,0-.53-2.76c0-.6-.4-.45-1.1.43a2.5,2.5,0,0,1,.15.75,9.48,9.48,0,0,1,0,1.41c-.05,1.7.73,3.86,2.86,3.25,1.7-.49,3.24-2.36,3.94-3.91.9-2,0-3.63-2.13-4.09-1.84-.4-3.83-.06-4.44,2a1.53,1.53,0,0,0,.68,1.7c1.78,1.08,4.68,1.66,5.62-.84.8-2.12-1.84-4.31-3.66-2.74s-.18,4,1.69,4.42c2.64.58,5.51-.38,7.93-1.34a1.51,1.51,0,0,0,0-2.89,32.41,32.41,0,0,0-4.15-.95c-1.16-.18-2.49-.51-3.35.53s-.92,2.57-1.05,3.77-.21,2.42.84,3.19a2.68,2.68,0,0,0,2.9-.08,14,14,0,0,1,3.71-1.06c2.15-.44,4.47-1.69,4.85-4.06a1.54,1.54,0,0,0-.68-1.69,7.05,7.05,0,0,0-4.57-.73c-1.5.22-1.37,2.57,0,2.89l5.74,1.37-.89-2.21c-.14.28-.64.27-1,.28l1.06,2.56a30.75,30.75,0,0,0,3.32-3,1.52,1.52,0,0,0-.66-2.5A3.46,3.46,0,0,0,144,182c-.83,1.32.2,2.82,1.26,3.62a4.66,4.66,0,0,0,7.22-2.37,1.52,1.52,0,0,0-1-1.84,3.23,3.23,0,0,0-3.5.81,1.52,1.52,0,0,0,.31,2.35,6,6,0,0,0,2.78.85c.87.06,1.28.58,2.09.93,1.38.6,3.82.78,4.6-.83.69-1.43-.38-3.12-1.61-3.87a4.29,4.29,0,0,0-4.27-.12,1.53,1.53,0,0,0-.3,2.36c1.22,1.32,2.89,1.31,4.53,1a18.26,18.26,0,0,1,6.17.05c1.6.23,2.72-1.79,1.16-2.74-2-1.22-5.77-2.2-7.73-.36a2.59,2.59,0,0,0-.4,3.34,3.8,3.8,0,0,0,3.65,1.47,13.62,13.62,0,0,0,4.3-1.05c1.09-.46,2.77-1.09,2.79-2.52s-1.41-2.25-2.62-2.47a5,5,0,0,0-3.82,1,1.53,1.53,0,0,0-.54,2,5.92,5.92,0,0,0,5,2.63c2.28.08,4.94-1.17,7.1,0a1.5,1.5,0,0,0,1.51-2.59c-2.14-1.58-5.33-4.17-8.22-3.3a2.63,2.63,0,0,0-1.91,3c.39,1.44,1.88,1.88,3.18,2.05a1.5,1.5,0,0,0,0-3c-.44-.06-.5-.39-.43.33s0,.25.5.45,1.24.39,1.85.7a27.5,27.5,0,0,1,3.52,2.33l1.51-2.59a9.26,9.26,0,0,0-5.83-.63c-1.6.23-4.13.79-5.18-.88l-.54,2a2.75,2.75,0,0,1,1.26-.61,1.47,1.47,0,0,1,.59,0c.31.18.36.15.14-.09l.15-1.16c.3-.23.24-.21-.19.06a7.69,7.69,0,0,1-.76.38,10.84,10.84,0,0,1-1.24.46,8,8,0,0,1-2.69.45,1.17,1.17,0,0,1-.55-.1c-.13.44,0,.56.32.38a6.75,6.75,0,0,0,1.18,0,5.68,5.68,0,0,1,2.6.88l1.15-2.74a26.9,26.9,0,0,0-5.14-.44,15,15,0,0,0-2.22.3c-.67.13-1.49.43-2-.14l-.3,2.35a1.12,1.12,0,0,1,1,0,1.56,1.56,0,0,1,.4.27c.25.18.1.38.16.18l.69-.9c-.82.63-2-.57-2.67-.9-1-.5-2.15-.17-3.16-.77l.3,2.36c.23-.22.26-.16.58,0l-1-1.84a1.63,1.63,0,0,1-2,1c-.33-.1-.72-.67-.94-.71-.13-.27-.17-.14-.13.4-.22.42-.19.58.07.48,0,0,.73.17.69.15l-.66-2.51a31.82,31.82,0,0,1-3.32,3c-1,.81-.16,2.62,1.06,2.56,1.4-.06,2.88-.4,3.56-1.76a1.53,1.53,0,0,0-.9-2.21l-5.75-1.36v2.89a3.63,3.63,0,0,1,2.26.43l-.69-1.69c-.2,1.25-1.43,1.67-2.55,1.92a17.51,17.51,0,0,0-4.36,1.24c-.45.22-.75.14-.05.51s.47-.06.53-.64a10.92,10.92,0,0,1,.24-1.39l.11-.44c.26-.64.12-.61-.44.1,0,.06,2.06.33,2.26.38.88.18,1.75.41,2.61.66V182.7a17.73,17.73,0,0,1-4.66,1.33c-.62.06-1.33,0-1.89,0a3.73,3.73,0,0,1-2.72-.57l.69,1.69,1.09.21c0-.5,0-.51-.16-.05a5,5,0,0,1-.29.5,5.07,5.07,0,0,1-.84,1,3.87,3.87,0,0,1-.59.48c-.62.28-.4.43.65.45a6,6,0,0,0,0-1.21,9.49,9.49,0,0,0-.11-1.6,4.22,4.22,0,0,0-1.11-2.36,2.24,2.24,0,0,0-3.82,1,5.6,5.6,0,0,0,.27,2.5c.11.44.65,2.46,0,2.74l1.16-.15c.42.82.65,1,.69.49,0-.24.08-.48.11-.72s.06-.66.07-1a8.89,8.89,0,0,0-.32-2.52,6.19,6.19,0,0,0-2.79-3.73,1.51,1.51,0,0,0-2.2,1.69,17.54,17.54,0,0,1,.35,3.23c0,.46,0,.92,0,1.38a7.15,7.15,0,0,0-.19,1.56c-.16.53.25.55,1.25.06,0-.28,0-.56.09-.84,0-.45.09-.91.14-1.37l.34-3.19h-3a12.37,12.37,0,0,0,.89,3.58s.66,2.94-.11,2.53c-.09,0,.33-3,.36-3.32l.42-4.27c.19-1.92-2.82-1.9-3,0Z"/><path class="cls-2" d="M208.05,183.12l-1-6.18a1.51,1.51,0,0,0-1.45-1.1c-2.09-.17-3.88.72-5.76,1.51a14.88,14.88,0,0,1-6.14,1.16l.4,3a29.78,29.78,0,0,0,6.07-1.71,1.5,1.5,0,0,0-.4-2.94c-2.43-.24-4.61,1-7,1.11-2.71.15-5.34-.18-8.06.16-5.47.69-10.93,1.43-16.4,2.15-.86.11-1.84.88-1.45,1.9,1.32,3.42,6.39,3.59,9.3,2.46,1.76-.68,1.07-3.5-.8-2.89l-4.12,1.36a18.76,18.76,0,0,1-3.94,1.1,1.51,1.51,0,0,0-.4,3,20.15,20.15,0,0,0,7.67,1.27,4.13,4.13,0,0,0,2.71-1.18c.84-.9.8-2.12,2-2.74,1.56-.83.45-3.09-1.16-2.74-1.77.38-4.76,1.48-5,3.61-.26,2.32,2.41,3.38,4.32,3.18a5.45,5.45,0,0,0,4.51-3.29c.72-1.85-.05-4.41-2.37-4.43-2,0-4.24,2.58-4.79,4.36a3.58,3.58,0,0,0,2.73,4.77,4.53,4.53,0,0,0,4.74-2.74,11.52,11.52,0,0,0,.77-3c.06-.37.07-.73.36-.92a6.94,6.94,0,0,1,2.26-.3c6.3-.75,12.63-1.29,19-1.88l-.76-2.8c-4.16,1.84-8.72,1.42-13.11,2.22-2.1.39-4.15,1-6.21,1.59-1.59.44-4.06.87-3.93,3a1.58,1.58,0,0,0,1.1,1.44c3.55,1.44,7.62,0,11.07-1.08,1.88-.6,3.76-1.23,5.69-1.64,1.71-.37,4.13-.82,5.82-.14l-.9-.69q.34-1.08-.21-.66a3.55,3.55,0,0,1-.64.17c-.59.12-1.2.17-1.8.26l-3.93.54c-2.45.33-4.9.66-7.34,1-2,.28-12,1.27-9.16,5.22,1.14,1.6,3.87,1.81,5.65,2a21.58,21.58,0,0,0,6.65-.59c4.51-1.08,8.62-3.39,12.61-5.69A1.51,1.51,0,0,0,204,182.5c-6.71,2.13-13.55,4.14-20.66,4-1.93,0-1.93,3,0,3,7.37.16,14.5-1.88,21.46-4.09l-1.15-2.74c-4.23,2.43-8.57,4.9-13.45,5.7a18.5,18.5,0,0,1-3.41.22,13.83,13.83,0,0,1-1.82-.16,11.3,11.3,0,0,0-2-.46l-.22-.06c-.34.87-.28,1.18.18.94a3.21,3.21,0,0,0,.85-.3c.57-.18,1.14-.34,1.72-.48,1.25-.3,2.51-.5,3.77-.69,2.58-.37,5.16-.71,7.74-1.06l3.69-.51a14.54,14.54,0,0,0,3.48-.64c1.5-.61,3.06-3,1.16-4.17a6.73,6.73,0,0,0-3.3-.53,20,20,0,0,0-3.79.38,74.7,74.7,0,0,0-7.89,2.26c-2.54.77-5.37,1.65-8,.6l1.1,1.45c-.31.39-.31.5,0,.32l.64-.18,1.28-.36c.94-.26,1.89-.53,2.84-.78a32.68,32.68,0,0,1,5.81-1.08c3.88-.34,7.57-.6,11.18-2.18,1.34-.6.68-2.94-.76-2.8-4.48.42-9,.83-13.43,1.28-2.24.22-4.48.46-6.71.74-1.79.23-3.42.44-4.09,2.36-.46,1.29-.18,3.38-1.44,4.28-.42.29-1.15.44-1.35-.14-.26-.78,1-1.91,1.46-2.33a2.59,2.59,0,0,1,.61-.48l-.43-.25c-.13.21,0,.62-.22.91a2.59,2.59,0,0,1-1.65,1.06,2.42,2.42,0,0,1-.76,0,1.64,1.64,0,0,1-.56-.2c-.06.53.06.63.35.3.3,0,.74-.45,1-.57a8,8,0,0,1,1.51-.45l-1.16-2.74a5.09,5.09,0,0,0-2.06,1.95c-.45.8-.38,1.5-1.45,1.58a17.75,17.75,0,0,1-6.52-1.18l-.4,2.94c3-.3,6-1.62,8.86-2.57l-.8-2.89a6.71,6.71,0,0,1-3.1.5c-.53,0-2.27-.26-2.5-.87l-1.45,1.9c5.47-.72,10.93-1.46,16.4-2.15,2.64-.33,5.19-.05,7.82-.15,2.45-.1,4.79-1.36,7.23-1.12l-.4-2.95a30.34,30.34,0,0,1-6.06,1.71c-1.72.29-1.24,2.91.39,2.94a16.85,16.85,0,0,0,6.06-.93c1.92-.68,3.73-1.91,5.84-1.74l-1.44-1.1,1,6.17c.31,1.9,3.2,1.1,2.89-.79Z"/><path class="cls-3" d="M174.74,273.49l-.17.11c-.39.29-.87.65-1.24,1l0,0-.09.08-.14.16c-.25.31-.7.9-.94,1.22l0,0-.06.09-.05.09v0l0,0-.6,1.43a.83.83,0,0,0-.06.21.11.11,0,0,0,0,0c-.05.3-.19,1.31-.22,1.61,0,0,0,.07,0,.1v.09a.13.13,0,0,1,0,.06v0l.22,1.6a1.16,1.16,0,0,0,0,.18c.09.27.26.63.33.8a7.87,7.87,0,0,0,.35.8s0,0,0,.08l0,0c.17.24.75,1,.94,1.23l.14.14.61.46.63.49,0,0,.08.05a7.26,7.26,0,0,0,1.59.65h.06l1.59.21h.09a9.54,9.54,0,0,0,1.75-.23l.09,0,0,0h0l1.43-.61.09,0,0,0h0l1.21-.94a6.4,6.4,0,0,0,1.75-2.93,5.76,5.76,0,0,0-2.15-6.3,4.58,4.58,0,0,0-2-1.08l-1.59-.21a6,6,0,0,0-3,.82l-1.21.94a6,6,0,0,0-1.55,2.64s0,0,0,.05l.61-1.43a.75.75,0,0,1-.07.12l.93-1.22a.63.63,0,0,1-.11.12l1.21-.94-.14.08,1.43-.6a.83.83,0,0,1-.21.06l1.59-.22h-.19l1.6.22-.19-.05,1.43.6a.46.46,0,0,1-.15-.09l1.21.94a.54.54,0,0,1-.15-.15l.94,1.21a.82.82,0,0,1-.12-.2l.6,1.43a1.11,1.11,0,0,1-.07-.26l.21,1.59a1.22,1.22,0,0,1,0-.27l-.21,1.6a1.28,1.28,0,0,1,.07-.28l-.6,1.44a1.11,1.11,0,0,1,.17-.3l-.94,1.21a2,2,0,0,1,.29-.29l-1.22.94.17-.11a4.58,4.58,0,0,0,1.69-1.55,4.47,4.47,0,0,0,1.07-2,4.52,4.52,0,0,0,.11-2.39,4.58,4.58,0,0,0-.71-2.23l-.94-1.22a6.07,6.07,0,0,0-2.65-1.54l-1.59-.21a5.84,5.84,0,0,0-3,.82Z"/><path class="cls-3" d="M146.87,283.86l0,4.55a6,6,0,0,0,9,5.18,21.76,21.76,0,0,0,2-1c.32-.18.63-.36.94-.56a17,17,0,0,0,1.53-1.15l.16-.14.07-.07a14.7,14.7,0,0,0,1-1.27.41.41,0,0,0,0-.09c.1-.18.56-1.27.62-1.46l0-.1c.06-.2.21-1.44.22-1.63a6.36,6.36,0,0,0-.12-1,5.68,5.68,0,0,0-.17-1c-.27-.78-.6-1.54-.94-2.28l-.21-.4-.13-.18c-.32-.46-.69-.93-1.05-1.36a2.27,2.27,0,0,0-.31-.31,16.43,16.43,0,0,0-1.32-1l-.2-.12c-.49-.24-1.06-.47-1.59-.67l-.25-.07h-.1c-.5-.09-1.14-.19-1.66-.23h-.32a15.23,15.23,0,0,0-1.65.23,1.29,1.29,0,0,0-.21.06c-.32.12-1.16.46-1.47.62l-.11.06-.08.05c-.41.29-.9.68-1.28,1a6.14,6.14,0,0,0,0,8.49l1.21.94a6,6,0,0,0,3,.81l1.59-.21a6.07,6.07,0,0,0,2.65-1.54l.05-.05-1.21.94a1.07,1.07,0,0,1,.21-.13l-1.43.61a1,1,0,0,1,.3-.09l-1.6.21h.39l-1.6-.21a1.76,1.76,0,0,1,.45.12l-1.44-.6a1.51,1.51,0,0,1,.35.2l-1.22-.94a2.27,2.27,0,0,1,.41.41l-.94-1.22a4.7,4.7,0,0,1,.47.85l-.61-1.43a4.51,4.51,0,0,1,.31.87l-.21-1.59a1,1,0,0,1,0,.24l.22-1.6,0,.13.6-1.44a.47.47,0,0,1-.07.12l.94-1.22a1,1,0,0,1-.25.24l1.22-.93a17.92,17.92,0,0,1-3.25,1.77l9,5.18,0-4.55a6.15,6.15,0,0,0-6-6l-1.59.21a6.07,6.07,0,0,0-2.65,1.54l-.94,1.22a6,6,0,0,0-.82,3Z"/><path class="cls-3" d="M166.12,303a.2.2,0,0,0,0,.07l-.22-1.6a2.08,2.08,0,0,1,0,.61l.22-1.6a2.93,2.93,0,0,1-.18.66l.6-1.43a2.36,2.36,0,0,1-.33.55l.94-1.21a2.5,2.5,0,0,1-.43.43l1.22-.94-.27.18,6,10.36.35-.17-1.44.6a3.05,3.05,0,0,1,.66-.17l-1.59.21a3.37,3.37,0,0,1,.55,0,6.62,6.62,0,0,0,4.24-1.75,6.76,6.76,0,0,0,1.76-4.25l-.21-1.59a6,6,0,0,0-1.55-2.65l-1.21-.94a6.09,6.09,0,0,0-3-.82h-.53c-.53.06-1.13.14-1.66.22l-.21,0a2.91,2.91,0,0,0-.39.12,13.63,13.63,0,0,0-1.79.79,6.69,6.69,0,0,0-2.76,3.59,6.64,6.64,0,0,0,.61,4.62l.93,1.21a6,6,0,0,0,2.65,1.55l1.6.21a5.83,5.83,0,0,0,3-.82,1,1,0,0,0,.17-.1l.08,0c.41-.31.87-.66,1.27-1a2.37,2.37,0,0,0,.28-.27,12.73,12.73,0,0,0,1.15-1.48,3.79,3.79,0,0,0,.2-.34,13.53,13.53,0,0,0,.72-1.76,2.34,2.34,0,0,0,.09-.38,12,12,0,0,0,.24-1.95,1.09,1.09,0,0,0,0-.18.41.41,0,0,0,0-.11c-.06-.55-.14-1.12-.22-1.66a6.81,6.81,0,0,0-2.76-3.59,4.38,4.38,0,0,0-2.23-.71,4.52,4.52,0,0,0-2.39.1l-1.44.61a6,6,0,0,0-2.15,2.15l-.6,1.44a6,6,0,0,0,0,3.19Z"/><path class="cls-3" d="M143.51,321.08a1.14,1.14,0,0,1,.25-.06l-1.59.21a2.41,2.41,0,0,1,.38,0L141,321a.86.86,0,0,1,.23.06l-1.43-.6.08,0-1.22-.94.09.09-.94-1.21a.16.16,0,0,1,0,.07l-.6-1.43,0,.08-.22-1.59v.05l.22-1.6a.83.83,0,0,1,0,.15l.61-1.43c-.08.16-.2.3-.29.46s-.28.64-.41.93-.28.62-.38.94a10.07,10.07,0,0,0-.32,2.05,3.41,3.41,0,0,0,0,.55l.21,1.6a4.58,4.58,0,0,0,1.08,2,3,3,0,0,0,1.07,1.08,4.56,4.56,0,0,0,2,1.07,40.13,40.13,0,0,0,4.1.44,11.72,11.72,0,0,0,2.5-.25,5.31,5.31,0,0,0,1.09-.41,5.49,5.49,0,0,0,2.22-1.41,7.25,7.25,0,0,0,1.15-1.48,6.89,6.89,0,0,0,.91-3.32v-.25l-.22-1.59a.5.5,0,0,0,0-.12,6.22,6.22,0,0,0-.77-1.77,7,7,0,0,0-2.39-2.37.52.52,0,0,0-.13-.06l-1.43-.61-.26-.07a7.19,7.19,0,0,0-3.54,0,6.36,6.36,0,0,0-1.81.75,6.61,6.61,0,0,0-2.76,3.58,4.56,4.56,0,0,0-.11,2.4,4.51,4.51,0,0,0,.71,2.23l.94,1.21a6,6,0,0,0,2.65,1.54l1.59.22a6,6,0,0,0,3-.82l.12-.07-1.43.61a1.29,1.29,0,0,1,.26-.08l-1.59.21h.34l-1.59-.21a1.25,1.25,0,0,1,.26.07l-1.43-.6.18.1-1.22-.94a1,1,0,0,1,.18.18l-.93-1.21.12.21-.61-1.43a1,1,0,0,1,.07.24l-.21-1.6a2.08,2.08,0,0,1,0,.25l.21-1.59a1,1,0,0,1-.06.23l.6-1.43a.51.51,0,0,1-.09.16l.94-1.21-.17.17,1.21-.93a1.35,1.35,0,0,1-.26.15l1.43-.61a2,2,0,0,1-.5.13l1.6-.22a7.59,7.59,0,0,1-1.43,0c-.56,0-1.11-.1-1.67-.17l1.6.21-.19,0,4.41,5.78a2.56,2.56,0,0,1,0-.55l-.22,1.6a3.11,3.11,0,0,1,.19-.68l-.6,1.43a2.38,2.38,0,0,1,.23-.41l.13-.2q.18-.37.33-.78a6,6,0,0,0,.33-.79c0-.29.08-.58.11-.87a2.76,2.76,0,0,0,.11-.85c0,.8-.1-1.2-.23-1.68a6.39,6.39,0,0,0-1.64-2.79,6.5,6.5,0,0,0-2.8-1.63,7.71,7.71,0,0,0-1.84-.26,6.51,6.51,0,0,0-2.19.29,4.56,4.56,0,0,0-2,1.07,4.64,4.64,0,0,0-1.54,1.69,4.38,4.38,0,0,0-.71,2.23,4.52,4.52,0,0,0,.1,2.39l.61,1.43a6,6,0,0,0,2.15,2.16l1.43.6a6,6,0,0,0,3.2,0Z"/><path class="cls-3" d="M101.47,268.6l-.53,1.62-.26.79-.06.19a4.05,4.05,0,0,0-.12.86c0,.29-.08.57-.11.86V273l.21,1.6a3.29,3.29,0,0,0,.32.78,3.43,3.43,0,0,0,.33.76l.94,1.21s0,0,0,.06c.21.17.41.33.63.49a4.43,4.43,0,0,0,.65.49c.26.14.58.25.82.35s.55.25.84.35l.8.29,1.67.62-1.44-11a1.68,1.68,0,0,1-.34.2l1.43-.6a2.13,2.13,0,0,1-.51.14l1.6-.21h-.47l1.6.21a2.46,2.46,0,0,1-.39-.09l4.19,7.38c0-.06,0-.12.07-.19l-.61,1.44a3.1,3.1,0,0,1,.29-.5l-.93,1.22a3.49,3.49,0,0,1,.68-.65l-1.21.93c.82-.62,1.66-1.19,2.46-1.85a4.42,4.42,0,0,0,.53-.53,13,13,0,0,0,1.12-1.5,10.85,10.85,0,0,0,.75-1.75H104.9s0,.1,0,.14l-.21-1.59a3.39,3.39,0,0,1,0,.78l.21-1.59a3.19,3.19,0,0,1-.2.75l.61-1.43a2.75,2.75,0,0,1-.2.38,4.62,4.62,0,0,0-.71,2.23,6.13,6.13,0,0,0,2.87,6l1.43.61a6.16,6.16,0,0,0,3.19,0l1.43-.61a6,6,0,0,0,2.16-2.15l.13-.25c.25-.53.49-1.09.69-1.63a4,4,0,0,0,.16-.59c.1-.59.18-1.21.24-1.81a2.62,2.62,0,0,0,0-.28,2.81,2.81,0,0,0,0-.29c-.06-.61-.15-1.23-.25-1.84l-.61-1.43a4.45,4.45,0,0,0-1.54-1.68,3,3,0,0,0-1.33-.78,4.56,4.56,0,0,0-2.31-.51l-1.59.21-1.44.61a4.53,4.53,0,0,0-1.68,1.54,4.47,4.47,0,0,0-1.07,2l-.06.14.61-1.43a3.14,3.14,0,0,1-.28.46l.94-1.22a4.25,4.25,0,0,1-.68.66l1.21-.94c-.83.64-1.7,1.21-2.5,1.89a9.63,9.63,0,0,0-1.46,1.74,3.62,3.62,0,0,0-.2.33,11.15,11.15,0,0,0-.73,1.75,6.72,6.72,0,0,0,.6,4.62l.94,1.22a6,6,0,0,0,2.65,1.54,8.73,8.73,0,0,0,2,.32,9.72,9.72,0,0,0,2-.23,2.28,2.28,0,0,0,.45-.11,8,8,0,0,0,1.84-.84l1.21-.93.94-1.22.61-1.43a4.52,4.52,0,0,0,.1-2.39,2.89,2.89,0,0,0-.41-1.52,2.94,2.94,0,0,0-.77-1.32,3,3,0,0,0-1.07-1.08,4.47,4.47,0,0,0-2-1.07c-.87-.32-1.74-.63-2.6-1l1.44.61-.15-.08,1.22.94a.27.27,0,0,1-.08-.07l.94,1.21,0,0,.6,1.43,0-.06.22,1.59a.24.24,0,0,1,0-.12l-.21,1.59c.11-.44.28-.88.42-1.31l.44-1.35a6.64,6.64,0,0,0-.61-4.62,4.45,4.45,0,0,0-1.54-1.68,4.58,4.58,0,0,0-2-1.08l-1.6-.21a5.93,5.93,0,0,0-3,.82L103,266a5.94,5.94,0,0,0-1.54,2.64Z"/><path class="cls-3" d="M86.86,293a13.45,13.45,0,0,0-1.66,2.37c-.16.33-.29.67-.43,1s-.29.67-.42,1-.15.47-.21.72a6.16,6.16,0,0,0,0,3.19,4.58,4.58,0,0,0,1.08,2,4.53,4.53,0,0,0,1.68,1.54,6,6,0,0,0,3,.82,29.45,29.45,0,0,1,3.64-.1,5.93,5.93,0,0,0,3-.82,6,6,0,0,0,2.16-2.15,6.79,6.79,0,0,0,.87-3.31c0-.18-.18-1.46-.22-1.64a.31.31,0,0,1,0-.08,6.28,6.28,0,0,0-.33-.78,6.72,6.72,0,0,0-.34-.8l0-.07-.94-1.22,0,0-.07-.06-1.21-.94,0,0-.07,0-.76-.32a4.82,4.82,0,0,0-.74-.31l-.08,0-.82-.11a4.83,4.83,0,0,0-.84-.11,6.7,6.7,0,0,0-4.25,1.76,6.62,6.62,0,0,0-1.75,4.24l.21,1.59A6.07,6.07,0,0,0,88.81,303l1.22.94a5.94,5.94,0,0,0,3,.82h0l-1.59-.21.12,0L90.2,304a.75.75,0,0,1,.15.09l-1.21-.94.09.1L88.29,302a.86.86,0,0,1,.1.16l-.61-1.44a1.09,1.09,0,0,1,0,.17l-.21-1.59v.13l.21-1.59,0,.12.6-1.43v0l5.18-3a29.45,29.45,0,0,0-3.64.1l5.79,7.6a5.93,5.93,0,0,1,.32-1l-.61,1.43a6.51,6.51,0,0,1,.82-1.39l-.94,1.22,0-.05a4.58,4.58,0,0,0,1.24-1.93,5.51,5.51,0,0,0,0-4.63A4.58,4.58,0,0,0,95.35,293l-1.22-.94a6,6,0,0,0-3-.82l-1.59.22A6,6,0,0,0,86.86,293Z"/><path class="cls-3" d="M100.52,318a11.38,11.38,0,0,0,1,8.33,12.26,12.26,0,0,0,1.36,1.85,4.82,4.82,0,0,0,.63.65,13,13,0,0,0,1.83,1.37l.38.2c.59.26,1.18.54,1.79.74a8,8,0,0,0,2.37.37,7,7,0,0,0,1-.13,4.66,4.66,0,0,0,1-.16l.71-.3a5.82,5.82,0,0,0,.81-.35,6.92,6.92,0,0,0,.69-.52q.36-.25.69-.54a3.19,3.19,0,0,0,.33-.4c.39-.48.78-1,1.14-1.47a8.31,8.31,0,0,0,.58-.95,11,11,0,0,0,1.33-4.76,8.62,8.62,0,0,0-1.21-4.62,7.89,7.89,0,0,0-1.52-1.89,13.14,13.14,0,0,0-1.51-1.16,8.33,8.33,0,0,0-1.14-.52,6.84,6.84,0,0,0-1.24-.46,17.35,17.35,0,0,0-2-.27,6.32,6.32,0,0,0-1.23,0,5.8,5.8,0,0,0-5.48,3.69,4.51,4.51,0,0,0-.52,2.31l.22,1.6a6,6,0,0,0,1.54,2.65l1.22.93a5.83,5.83,0,0,0,3,.82,6.39,6.39,0,0,1,1.45,0l-1.6-.21a3.93,3.93,0,0,1,.75.19l-1.44-.6a2.64,2.64,0,0,1,.65.38l-1.21-.94a3.33,3.33,0,0,1,.46.46l-.94-1.21a2.64,2.64,0,0,1,.38.65l-.6-1.44a3.31,3.31,0,0,1,.17.69l-.21-1.6a3.37,3.37,0,0,1,0,.84l.21-1.59a4.09,4.09,0,0,1-.29,1l.6-1.43a7.23,7.23,0,0,1-1,1.6l.94-1.21a2.64,2.64,0,0,1-.42.46l1.22-.93-.18.1,1.44-.61a.7.7,0,0,1-.19.06l1.59-.22a1.41,1.41,0,0,1-.41,0l1.6.21a3.93,3.93,0,0,1-.83-.23l1.43.6a4.22,4.22,0,0,1-1-.58l1.21.94a4.71,4.71,0,0,1-.74-.74l.94,1.22a5.25,5.25,0,0,1-.6-1l.61,1.43a5,5,0,0,1-.34-1.26l.22,1.6a5.74,5.74,0,0,1,0-1.31l-.22,1.59q.06-.37.15-.75a5.76,5.76,0,0,0-2.15-6.3,4.58,4.58,0,0,0-2-1.08l-1.59-.21a5.89,5.89,0,0,0-3,.82,6.22,6.22,0,0,0-2.76,3.58Z"/><path class="cls-3" d="M115.81,296.48a16.48,16.48,0,0,0,0,1.72,14.84,14.84,0,0,0,.28,2.21,5.43,5.43,0,0,0,.33.8,7,7,0,0,0,.35.82c.11.18.81,1.09,1,1.24a2.61,2.61,0,0,0,.66.53l.64.49a6.29,6.29,0,0,0,.82.37,7.34,7.34,0,0,0,.84.34l.34.07.91.18c.55.11,1.1.23,1.66.33a7.25,7.25,0,0,0,3.7,0,6.4,6.4,0,0,0,2-.92c.58-.42,1.16-.86,1.72-1.32a4,4,0,0,0,.54-.55,12.08,12.08,0,0,0,1.06-1.41,10.83,10.83,0,0,0,.71-1.64,3.58,3.58,0,0,0,.11-.35c.06-.27.1-.74.12-.88a9.06,9.06,0,0,0,.12-1,1.1,1.1,0,0,0,0-.18,15,15,0,0,0-.22-1.64,6.57,6.57,0,0,0-.39-1,6.14,6.14,0,0,0-1.5-2.31l-.12-.1a14.26,14.26,0,0,0-1.31-1,1.92,1.92,0,0,0-.31-.18,16.17,16.17,0,0,0-1.66-.7,2,2,0,0,0-.35-.09,15.67,15.67,0,0,0-2.37-.3c-.33,0-.66,0-1-.06l1.59.22-.32-.06a4.56,4.56,0,0,0-2.4-.1,4.41,4.41,0,0,0-2.23.71,4.53,4.53,0,0,0-1.68,1.54,4.47,4.47,0,0,0-1.07,2l-.22,1.6a6,6,0,0,0,.82,3l.94,1.21a5.88,5.88,0,0,0,2.65,1.54A14.64,14.64,0,0,0,125,302c.33,0,.66,0,1,.07l-1.6-.22a3.56,3.56,0,0,1,.73.19l-1.43-.6a2.46,2.46,0,0,1,.42.23l-1.22-.94a1.8,1.8,0,0,1,.28.27l-.93-1.21a1.64,1.64,0,0,1,.16.26l-.61-1.44a1.26,1.26,0,0,1,.1.33l-.22-1.6a1.45,1.45,0,0,1,0,.36l.21-1.6a1.59,1.59,0,0,1-.12.44l.6-1.43a2.3,2.3,0,0,1-.23.4l.94-1.22a4,4,0,0,1-.69.68l1.21-.94a4.1,4.1,0,0,1-.86.56l1.43-.6-.17,0,1.6-.22a1.27,1.27,0,0,1-.39,0l1.6.22c-.52-.09-1-.21-1.55-.31a12.14,12.14,0,0,1-1.48-.31l1.43.6-.14-.08,1.22.94-.05-.06.93,1.21a.83.83,0,0,1-.07-.13l.61,1.43a1,1,0,0,1,0-.23l.21,1.59a14.4,14.4,0,0,1-.06-2.18,4.56,4.56,0,0,0-.51-2.31,4.49,4.49,0,0,0-1.25-1.93,4.38,4.38,0,0,0-1.93-1.24,4.46,4.46,0,0,0-2.31-.52l-1.59.21a6,6,0,0,0-2.65,1.55l-.94,1.21a6.09,6.09,0,0,0-.82,3Z"/><path class="cls-3" d="M125.11,262.2a8.49,8.49,0,0,0,0,4.1,6.89,6.89,0,0,0,1,2.37A9.63,9.63,0,0,0,129,271.5a9.06,9.06,0,0,0,2.47,1.13,7.06,7.06,0,0,0,1.19.27,19.93,19.93,0,0,0,2.91.31,6.64,6.64,0,0,0,1-.12,9.57,9.57,0,0,0,1-.15,6.87,6.87,0,0,0,2.95-1.74,7,7,0,0,0,1.88-3.44,8.58,8.58,0,0,0,0-4,16.5,16.5,0,0,0-1-2.3,11.38,11.38,0,0,0-3.09-3,10,10,0,0,0-1.91-.8,6.47,6.47,0,0,0-2.43-.29,8.13,8.13,0,0,0-2,.34,7.24,7.24,0,0,0-3,1.77,6.94,6.94,0,0,0-2,4.79,9.17,9.17,0,0,0,1.15,4,8.65,8.65,0,0,0,3.71,4.08,9.34,9.34,0,0,0,2.58,1,24.12,24.12,0,0,0,2.93.34,6.7,6.7,0,0,0,4.24-1.76,6.32,6.32,0,0,0,1.76-4.24v-.38a4.51,4.51,0,0,0-.52-2.31,5.39,5.39,0,0,0-3.17-3.17,4.49,4.49,0,0,0-2.31-.52l-1.6.22a5.94,5.94,0,0,0-2.64,1.54,6.22,6.22,0,0,0-1.76,4.24v.38l6-6c-.38,0-.76-.05-1.13-.1l1.59.22a4.82,4.82,0,0,1-1.17-.31L138,262a3.29,3.29,0,0,1-.6-.36l1.21.94a3.86,3.86,0,0,1-.49-.5l.94,1.21a6.22,6.22,0,0,1-.73-1.34l.6,1.43a3,3,0,0,1-.23-.65l.21,1.6a1.09,1.09,0,0,1,0-.18l-.21,1.6a1.89,1.89,0,0,1,.05-.23l-.6,1.44a.57.57,0,0,1,.08-.13l-.94,1.21a1.29,1.29,0,0,1,.16-.17l-1.21.94a1.31,1.31,0,0,1,.28-.17l-1.44.6a3.17,3.17,0,0,1,.41-.12l-1.59.21a2.17,2.17,0,0,1,.51,0l-1.6-.21a2.19,2.19,0,0,1,.57.16l-1.43-.61a3.53,3.53,0,0,1,.59.35l-1.22-.93a2.78,2.78,0,0,1,.48.49l-.93-1.21a3.12,3.12,0,0,1,.34.59l-.6-1.43a2.91,2.91,0,0,1,.17.66l-.21-1.6a2.41,2.41,0,0,1,0,.6l.22-1.6a3,3,0,0,1-.11.43l.6-1.44a1.87,1.87,0,0,1-.17.31l.94-1.22-.12.13,1.21-.94a1,1,0,0,1-.24.14l1.44-.61-.2.05,1.59-.22a7.86,7.86,0,0,1-1.53-.09l1.6.22a6.37,6.37,0,0,1-1.5-.39l1.44.61a4.08,4.08,0,0,1-.81-.47l1.21.94a3.38,3.38,0,0,1-.53-.54l.93,1.21a4.08,4.08,0,0,1-.34-.57l.61,1.43a2.21,2.21,0,0,1-.18-.62l.21,1.6a2.62,2.62,0,0,1,0-.56l-.21,1.6,0-.18a4.56,4.56,0,0,0,.11-2.4,5.34,5.34,0,0,0-2.26-3.91,4.58,4.58,0,0,0-2-1.08l-1.59-.21a5.94,5.94,0,0,0-3,.82,6,6,0,0,0-2.76,3.59Z"/><path class="cls-3" d="M80.3,247.75a6.75,6.75,0,0,0-.89,3.28,7.82,7.82,0,0,0,.27,1.93l.3.71c.11.27.22.54.34.8l.12.2a9.3,9.3,0,0,0,1.24,1.54,17.44,17.44,0,0,0,1.87,1.43,7.25,7.25,0,0,0,1,.57,10.21,10.21,0,0,0,2.29.87,8.73,8.73,0,0,0,4,0,3.81,3.81,0,0,0,.45-.13,12.63,12.63,0,0,0,1.77-.77,8.68,8.68,0,0,0,1.89-1.46,8.87,8.87,0,0,0,.72-.9,9.19,9.19,0,0,0,.69-.92,3.5,3.5,0,0,0,.25-.47,16.13,16.13,0,0,0,.77-1.88,14.35,14.35,0,0,0,.42-2.5,9.79,9.79,0,0,0,.07-1.08,7.3,7.3,0,0,0-.11-1,4.38,4.38,0,0,0-.73-2.31,6.22,6.22,0,0,0-3.69-2.88,17,17,0,0,0-2.58-.33,14.11,14.11,0,0,0-3.72.3,11.59,11.59,0,0,0-2.38.91,10.14,10.14,0,0,0-2,1.41A9.57,9.57,0,0,0,81,246.92c-.09.13-.17.28-.25.42A12.05,12.05,0,0,0,80,249.2a5.76,5.76,0,0,0,2.15,6.3,4.58,4.58,0,0,0,2,1.08l1.59.21a5.84,5.84,0,0,0,3-.82,6.3,6.3,0,0,0,2.76-3.58,3.38,3.38,0,0,1,.11-.34l-.6,1.43a3.37,3.37,0,0,1,.36-.61l-.93,1.21a3.77,3.77,0,0,1,.57-.56l-1.21.94a3.78,3.78,0,0,1,.87-.5l-1.43.6a5.08,5.08,0,0,1,1.22-.31l-1.6.21a11.35,11.35,0,0,1,2.54.06l-1.59-.22a.53.53,0,0,1,.17,0l-1.44-.6.07,0-2.15-2.16,0,.07L86,250.27l0,.08-.21-1.6a9.07,9.07,0,0,1-.07,1.28l.21-1.59a5.36,5.36,0,0,1-.33,1.25l.61-1.43a4.29,4.29,0,0,1-.51.88l.94-1.22a3.52,3.52,0,0,1-.61.61l1.21-.94a3.25,3.25,0,0,1-.57.33l1.43-.6a2.21,2.21,0,0,1-.62.18l1.59-.21a2.66,2.66,0,0,1-.69,0l1.6.22a4.14,4.14,0,0,1-.71-.2l1.43.6a7.84,7.84,0,0,1-1.54-.94l1.21.94a3.17,3.17,0,0,1-.5-.47l.94,1.21a1.65,1.65,0,0,1-.18-.32l.6,1.44a1.09,1.09,0,0,1,0-.17l.22,1.6a.49.49,0,0,1,0-.17l-.22,1.6a.85.85,0,0,1,0-.17l-.6,1.43,0-.08a4.49,4.49,0,0,0,.72-2.23,5.37,5.37,0,0,0-1.19-4.43,4.48,4.48,0,0,0-1.68-1.55,6.07,6.07,0,0,0-4.62-.6l-1.44.6a6.07,6.07,0,0,0-2.15,2.15Z"/><path class="cls-3" d="M65.45,285.84l.19.13L64.43,285a3.71,3.71,0,0,1,.54.58L64,284.4c.53.7,1,1.44,1.61,2.12a7.64,7.64,0,0,0,3.42,2.12,7.48,7.48,0,0,0,4.56-.12,19,19,0,0,0,2.91-1.21A8.49,8.49,0,0,0,81,280.06a6.93,6.93,0,0,0-.91-3.5,6.3,6.3,0,0,0-2.25-2.28,5.26,5.26,0,0,0-2.41-.78,9.76,9.76,0,0,0-1.61-.11h-1a4.51,4.51,0,0,0-2.31.52,5.39,5.39,0,0,0-3.17,3.17,4.51,4.51,0,0,0-.52,2.31l.22,1.6a6,6,0,0,0,1.54,2.65,6.21,6.21,0,0,0,4.24,1.75c.59,0,1.2-.05,1.78,0l-1.6-.21.1,0-1.44-.6.09,0-1.21-.93,0,.05-.93-1.21a.61.61,0,0,1,.07.14l-.6-1.44a.9.9,0,0,1,0,.16L69,279.82a2,2,0,0,1,0,.49l.21-1.6a2.62,2.62,0,0,1-.13.48l.6-1.44a2.43,2.43,0,0,1-.3.52l.93-1.21a3.38,3.38,0,0,1-.5.5l1.21-.94a5.11,5.11,0,0,1-1,.58l1.44-.6a7.77,7.77,0,0,1-1.63.53l1.6-.21a1.76,1.76,0,0,1-.46,0l1.59.22a1.61,1.61,0,0,1-.29-.09l1.43.61-.31-.19,1.21.94a3.45,3.45,0,0,1-.53-.55l.94,1.21c-.51-.67-1-1.34-1.52-2a7.89,7.89,0,0,0-1.91-1.59,4.55,4.55,0,0,0-2.23-.71,4.53,4.53,0,0,0-2.39.11,4.47,4.47,0,0,0-2,1.07,4.55,4.55,0,0,0-1.54,1.69,6,6,0,0,0-.61,4.62l.61,1.43a6.09,6.09,0,0,0,2.15,2.16Z"/><path class="cls-3" d="M59.13,312.62a25,25,0,0,1-.21,2.87l.21-1.59c-.05.4-.11.79-.19,1.19H70.51c-.06-.26-.11-.51-.15-.77l.21,1.6a6.84,6.84,0,0,1,0-1.75l-.21,1.59a7.16,7.16,0,0,1,.45-1.69l-.61,1.43a7,7,0,0,1,.82-1.43l-.93,1.21a1.73,1.73,0,0,1,.26-.28l-1.21.93.16-.1-1.44.6a1.67,1.67,0,0,1,.3-.08l-1.59.21a5.39,5.39,0,0,1,1.06.06l-1.6-.21a7.49,7.49,0,0,1,1.74.48l-1.43-.6a5.78,5.78,0,0,1,1.17.64L66.29,316l.18.18L65.53,315l0,.08-.6-1.44a.84.84,0,0,1,0,.17l-.21-1.6a.49.49,0,0,1,0,.17l.21-1.6A1,1,0,0,1,65,311l.6-1.43a5.62,5.62,0,0,1-.43.69,10,10,0,0,0-.76,1.74,2.3,2.3,0,0,0-.14.42,15.44,15.44,0,0,1-.39,1.63l.6-1.44a2.46,2.46,0,0,1-.25.45l.93-1.21a1.31,1.31,0,0,1-.23.24l1.22-.94a1.75,1.75,0,0,1-.29.18l1.43-.6-.13,0,1.6-.22h-.15l1.6.21-.07,0,1.44.61a.24.24,0,0,1-.11-.06l2.16,2.15,0,0,.61,1.43,0-.05.22,1.59v-.06a4.6,4.6,0,0,0-.51-2.31A4.55,4.55,0,0,0,72.59,312a4.47,4.47,0,0,0-1.93-1.24,4.46,4.46,0,0,0-2.31-.52l-1.59.22A6,6,0,0,0,64.11,312l-.94,1.21a6.18,6.18,0,0,0,0,6.17,6.77,6.77,0,0,0,2.19,2.2,6.39,6.39,0,0,0,3.34.9,6.32,6.32,0,0,0,3.38-1,7.7,7.7,0,0,0,2.47-2.48,7.18,7.18,0,0,0,1-2.49,7.44,7.44,0,0,1,.34-1.41l-.61,1.43a5.58,5.58,0,0,1,.35-.58,7.31,7.31,0,0,0,.9-2,5.57,5.57,0,0,0,.24-1.81c0-.28-.09-.73-.11-.88a5.42,5.42,0,0,0-.14-.92c-.1-.29-.48-1.19-.63-1.47s-1.53-1.91-1-1.29l-.08-.09a10,10,0,0,0-1.31-1A12.77,12.77,0,0,0,71,305.32a7,7,0,0,0-1.48-.44,20.76,20.76,0,0,0-2.22-.3l-.38,0h-.31l-1.6.22a4.82,4.82,0,0,0-1,.38,6.82,6.82,0,0,0-.8.35l-.08.06-1.21.94a2.83,2.83,0,0,0-.24.25c-.38.47-.76.95-1.11,1.45a7.1,7.1,0,0,0-.68,1.24,13.29,13.29,0,0,0-1,2.64,20.21,20.21,0,0,0-.32,2.32,5.09,5.09,0,0,0,0,.78,13.26,13.26,0,0,0,.17,1.53,14.1,14.1,0,0,0,.26,1.56l.61,1.43a4.45,4.45,0,0,0,1.54,1.68,3,3,0,0,0,1.33.77,4.46,4.46,0,0,0,2.31.52l1.59-.21,1.44-.61a4.53,4.53,0,0,0,1.68-1.54,4.47,4.47,0,0,0,1.07-2,33.69,33.69,0,0,0,.62-5.66,4.56,4.56,0,0,0-.51-2.31,4.62,4.62,0,0,0-1.24-1.93,4.49,4.49,0,0,0-1.93-1.24,4.52,4.52,0,0,0-2.32-.52l-1.59.21a6,6,0,0,0-2.65,1.55L60,309.59a6.09,6.09,0,0,0-.82,3Z"/><path class="cls-3" d="M36,275.8a17.12,17.12,0,0,0-.42,3.1,11.91,11.91,0,0,0,.26,2.23,6.38,6.38,0,0,0,.47,1.26,5.66,5.66,0,0,0,.59,1.21c.29.4.65.89,1,1.26L38,285a9,9,0,0,0,1.43,1.12,8,8,0,0,0,1.92.85,12.66,12.66,0,0,0,2.23.35,3.87,3.87,0,0,0,.68,0c.31,0,.66-.09.94-.13a8.62,8.62,0,0,0,1-.13,1.57,1.57,0,0,0,.35-.11,11.71,11.71,0,0,0,1.64-.71l.09-.06c.41-.28.89-.66,1.27-1a7.91,7.91,0,0,0,1.29-1.58,8.72,8.72,0,0,0,.84-1.87,8.37,8.37,0,0,0,.34-2.09,7.68,7.68,0,0,0-.23-2.05,1.83,1.83,0,0,0-.06-.25c-.1-.28-.25-.6-.35-.83a7.57,7.57,0,0,0-.37-.85,6.42,6.42,0,0,0-1.28-1.65,11.11,11.11,0,0,0-1.44-1.12,1.35,1.35,0,0,0-.26-.15,7.4,7.4,0,0,0-2-.77c-.5-.08-1.15-.18-1.65-.22h-.18a10.88,10.88,0,0,0-1.88.25,4.45,4.45,0,0,0-2,1.07,4.53,4.53,0,0,0-1.54,1.68,4.41,4.41,0,0,0-.71,2.23,4.56,4.56,0,0,0,.1,2.4l.61,1.43A6,6,0,0,0,40.79,283l1.44.61a6.16,6.16,0,0,0,3.19,0l.11,0-1.59.21a2.8,2.8,0,0,1,.41,0l-1.6-.21a1.66,1.66,0,0,1,.45.12l-1.43-.61a2.13,2.13,0,0,1,.46.27L41,282.42a2.13,2.13,0,0,1,.34.33l-.94-1.21a2,2,0,0,1,.21.35L40,280.46a1.69,1.69,0,0,1,.12.44l-.21-1.59a2.26,2.26,0,0,1,0,.45l.21-1.59a1.69,1.69,0,0,1-.12.44l.61-1.43a2.13,2.13,0,0,1-.26.44l.93-1.21a1.62,1.62,0,0,1-.32.32l1.21-.94a2.39,2.39,0,0,1-.34.21l1.43-.61a2.19,2.19,0,0,1-.5.14l1.6-.22a2.89,2.89,0,0,1-.83,0l1.6.22a3.34,3.34,0,0,1-.77-.19l1.43.6a1.86,1.86,0,0,1-.41-.23l1.22.94a1.52,1.52,0,0,1-.31-.31l.94,1.22a2.5,2.5,0,0,1-.29-.5l.61,1.44a2.73,2.73,0,0,1-.18-.68l.21,1.6a4.19,4.19,0,0,1,0-1.12l-.22,1.59c0-.3.1-.59.16-.89a4.52,4.52,0,0,0,.1-2.39,4.38,4.38,0,0,0-.71-2.23,4.53,4.53,0,0,0-1.54-1.68,4.48,4.48,0,0,0-2-1.08l-1.6-.21a5.89,5.89,0,0,0-3,.82l-1.21.93A5.93,5.93,0,0,0,36,275.8Z"/><path class="cls-3" d="M192.63,211.82c3.86,0,3.87-6,0-6s-3.87,6,0,6Z"/><path class="cls-3" d="M174.67,220.69c3.86,0,3.86-6,0-6s-3.87,6,0,6Z"/><path class="cls-3" d="M193,234c3.86,0,3.87-6,0-6s-3.86,6,0,6Z"/><path class="cls-4" d="M121.61,20.25l5.31-.35L120.55,4.53A25.78,25.78,0,0,0,113.14,22c-.15,4.92,4.25,8.93,9,9L125,31l-6.36-15.37a25.22,25.22,0,0,0-6.59,11.56c-.94,3.73.58,8.28,4.13,10.16A9.22,9.22,0,0,0,127.09,36c.22-.22.44-.43.68-.63L126,36.76a6.88,6.88,0,0,1,1.1-.67l-2.15.9a4.81,4.81,0,0,1,.84-.26l-2.39.32a1.8,1.8,0,0,1,.52,0l-2.39-.32a1.23,1.23,0,0,1,.46.14l-2.15-.91.2.14-1.82-1.41.18.18L116.94,33l.15.24-.91-2.15a1.77,1.77,0,0,1,.18.71L116,29.44a11.07,11.07,0,0,1-.06,1.15l.33-2.39a12.71,12.71,0,0,1-.83,2.95l.91-2.15c-2.44,5.64-6.91,10.82-4.86,17.43A11,11,0,0,0,124.74,54a10.67,10.67,0,0,0,5.79-3.81,10.36,10.36,0,0,0,1.81-8.87,8.76,8.76,0,0,0-7.48-6.44,9,9,0,0,0-9,4.29,40.28,40.28,0,0,0-5.24,13.35,9.2,9.2,0,0,0,1.61,7.85c1.87,2.42,4.13,3.19,7.07,3.55l3.1.38-6.36-15.37a32,32,0,0,0-7.55,14,13,13,0,0,0-.07,6.47,10.09,10.09,0,0,0,7.14,6.91,11.38,11.38,0,0,0,8.11-1,19.5,19.5,0,0,0,3.76-2.89l-1.82,1.41a4.42,4.42,0,0,1,.93-.56L113.35,63.05q-1.55,6.53-3.41,13l15-4L122.48,70a11,11,0,0,0-4-2.31,8.94,8.94,0,0,0-5.86.45,9.18,9.18,0,0,0-5.53,8.23l-1.36,19a8.46,8.46,0,0,0,1.94,5.45,8.56,8.56,0,0,0,4.67,3.23c3.82.87,8.21-.54,10.16-4.14a59,59,0,0,0,5.22-13c1-3.72-.62-8.3-4.14-10.16a10.62,10.62,0,0,0-4.54-1.23,9,9,0,0,0-6.37,2.63A39.11,39.11,0,0,0,106,89.7,34.3,34.3,0,0,0,103.91,101a35.63,35.63,0,0,0,.6,6.76,9.9,9.9,0,0,0,9.88,8.12,11.61,11.61,0,0,0,9.59-6.2,15.73,15.73,0,0,0,2-8.72,9.79,9.79,0,0,0-1.93-5.45,8.59,8.59,0,0,0-4.67-3.23,9.29,9.29,0,0,0-10.17,4.14L107,100.14l16.45,6.93a25.05,25.05,0,0,1,1.62-5.9l-.91,2.15c.29-.67.6-1.33.94-2,2.19-4.16,1.21-10-3.22-12.31a9.2,9.2,0,0,0-12.32,3.23,47.29,47.29,0,0,0-7.25,24.88c0,2.85,1.66,6.58,4.46,7.77,2.57,1.1,4.92,1.79,7.69,1.06a12.05,12.05,0,0,0,3.26-1.39,47.94,47.94,0,0,0,4.15-3.47l-1.82,1.41a3.44,3.44,0,0,1,.7-.4l-2.15.91a1.89,1.89,0,0,1,.34-.09l-2.39.33a1,1,0,0,1,.34,0l-2.39-.32.17.05-2.15-.91a1.48,1.48,0,0,1,.35.19L109.68,110a41.27,41.27,0,0,0-6,20.66l17.68-2.4c-.16-.75-.3-1.51-.4-2.28l.32,2.4a18.92,18.92,0,0,1-.18-4.38l-.32,2.39.08-.32L120,128.2l.15-.31-1.41,1.83.19-.23-1.83,1.41a1.15,1.15,0,0,1,.48-.27l-2.15.91.28-.06-2.39.32h.29l-2.39-.32a2.4,2.4,0,0,1,.59.13l-2.15-.91a2.1,2.1,0,0,1,.53.29l-1.82-1.4a1.56,1.56,0,0,1,.42.43l-1.41-1.82.19.32-.91-2.15a4.6,4.6,0,0,1,.3,1l-.32-2.4c.28,2.92-.4,6.1-.79,9l.32-2.39a137.34,137.34,0,0,1-4.57,21c-1.36,4.5,1.62,10,6.29,11.07a9.19,9.19,0,0,0,11.07-6.29,148.89,148.89,0,0,0,5.43-27.91,19,19,0,0,0-.24-7.58,11.23,11.23,0,0,0-10.83-8.1A10.47,10.47,0,0,0,106,117a11.2,11.2,0,0,0-2.91,7.67,35.24,35.24,0,0,0,1,8.37,9,9,0,0,0,4.14,5.38,9.24,9.24,0,0,0,5.74,1.06,9,9,0,0,0,7.8-8.83c0-1.17.11-2.33.25-3.48l-.32,2.39a33.05,33.05,0,0,1,2.3-8.39l-.91,2.15a34.32,34.32,0,0,1,2.22-4.25,9.12,9.12,0,0,0,.91-6.93,9.86,9.86,0,0,0-4.14-5.38,10.36,10.36,0,0,0-10.81.11,32.65,32.65,0,0,0-4.14,3.45l1.82-1.41a4.7,4.7,0,0,1-.73.46l2.15-.9a2.91,2.91,0,0,1-.56.15l2.39-.32a1.22,1.22,0,0,1-.38,0l2.39.32-.19,0,2.15.91-.19-.08,4.46,7.77a38.74,38.74,0,0,1,.33-4.81l-.33,2.39A39.79,39.79,0,0,1,123,105l-.91,2.15a39.84,39.84,0,0,1,3.06-5.82L109.6,92.26a31.45,31.45,0,0,0-3.46,10c-.35,2.38-.48,4.78.9,6.93a9.31,9.31,0,0,0,4.31,3.68,9,9,0,0,0,11.24-3.68l2.17-3.67L108,101a8.18,8.18,0,0,1,0,1.64l.32-2.39a9,9,0,0,1-.52,2l.91-2.15a10.06,10.06,0,0,1-.82,1.42l1.4-1.82a2.73,2.73,0,0,1-.44.46l1.82-1.41a2.69,2.69,0,0,1-.54.33l2.15-.91-.29.09,2.4-.32h-.28l2.39.32-.26-.06,2.15.9-.24-.16,3.23,3.23-.18-.26.9,2.15a7.72,7.72,0,0,1-.29-1.43l.32,2.39a27.23,27.23,0,0,1,0-6.75l-.33,2.4a29,29,0,0,1,1.84-6.92l-.9,2.15A27.65,27.65,0,0,1,126.09,90l-1.41,1.82.75-.93-15-8.76a49.36,49.36,0,0,1-2.16,6.38l.91-2.15A47.79,47.79,0,0,1,107,90.84l16.77,4.55,1.36-19-15.37,6.36,2.51,2.06c2.55,2.09,5.42,3.23,8.75,2.31a9.12,9.12,0,0,0,6.29-6.28q1.86-6.45,3.41-13a9.09,9.09,0,0,0-3.23-9.46,8.45,8.45,0,0,0-4.25-1.77,9.74,9.74,0,0,0-5.74,1.06,17.24,17.24,0,0,0-3.86,3l1.82-1.41a3.9,3.9,0,0,1-.83.5l2.15-.91a2.39,2.39,0,0,1-.6.14l2.39-.32a1.62,1.62,0,0,1-.58,0l2.39.33-.26-.08,2.15.9-.24-.12,1.82,1.4-.2-.18,1.41,1.82-.15-.23.91,2.15-.1-.31.33,2.39a2.09,2.09,0,0,1,0-.66l-.32,2.4A22.07,22.07,0,0,1,127,64.2l-.91,2.15a24.32,24.32,0,0,1,3.06-5.27l-1.4,1.82c.34-.43.69-.84,1.05-1.25a9.11,9.11,0,0,0,1.86-9.83,8.62,8.62,0,0,0-2.77-3.6,9.94,9.94,0,0,0-5.46-1.93l-3.1-.38L128,57.3a34.11,34.11,0,0,1,2.06-6.84l-.91,2.15a34.08,34.08,0,0,1,2.28-4.36L115,46.1l0,.23-.32-2.39v.21l.32-2.39,0,.21.91-2.15a1.31,1.31,0,0,1-.21.36l1.4-1.82-.15.15,1.82-1.4a1.52,1.52,0,0,1-.38.24l2.15-.9a2.93,2.93,0,0,1-.7.2l2.39-.32a2.68,2.68,0,0,1-.49,0l2.39.32a1.89,1.89,0,0,1-.47-.11l2.15.91a1.76,1.76,0,0,1-.42-.24l1.82,1.41-.17-.17,1.4,1.82a2.3,2.3,0,0,1-.38-.61l.9,2.15a3.22,3.22,0,0,1-.2-.69l.32,2.4a5.89,5.89,0,0,1,0-1.11l-.32,2.39a7.84,7.84,0,0,1,.5-1.84l-.91,2.15c.78-1.84,1.83-3.52,2.76-5.27A23.67,23.67,0,0,0,134,30.4a10.41,10.41,0,0,0-8.93-11.21,12.72,12.72,0,0,0-10.71,4.07l15,8.75a18.52,18.52,0,0,1,.74-2.29l-.91,2.15a17.61,17.61,0,0,1,2.21-3.8L130,29.89c.42-.52.87-1,1.34-1.49A9,9,0,0,0,125,13l-2.86,0,9,9a18.89,18.89,0,0,1,.17-2L131,22.4a18.08,18.08,0,0,1,1.07-3.84l-.91,2.15a18.07,18.07,0,0,1,2.21-3.78L132,18.75a18.85,18.85,0,0,1,1.33-1.49,9,9,0,0,0,1.86-9.83c-1.31-3.1-4.68-5.77-8.22-5.53l-5.31.35a9.55,9.55,0,0,0-6.36,2.64,9.15,9.15,0,0,0-2.64,6.36c.21,4.61,4,9.34,9,9Z"/><path class="cls-4" d="M101.74,136.91q-.73,16.07-2.87,32l.32-2.39q-.41,2.94-.84,5.88c-.46,3.15-1,6.18,0,9.32,2.22,7.31,10.76,11.82,17.71,7.62a9,9,0,0,0,4.46-7.77,230.13,230.13,0,0,1,2-35.1l-.32,2.39.07-.49c.34-2.51.43-4.65-.91-6.93A9,9,0,0,0,109,138.23c-1.82,1.17-3.83,3.13-4.14,5.38a244.93,244.93,0,0,0-2.36,38l4.46-7.77-.28.16,2.15-.9a2,2,0,0,1-.58.19l2.39-.32a2.5,2.5,0,0,1-.61,0l2.39.32a4.77,4.77,0,0,1-.92-.23l2.15.9a5.57,5.57,0,0,1-.85-.5l1.82,1.4a5.15,5.15,0,0,1-.69-.71l1.41,1.82a4.08,4.08,0,0,1-.34-.57l.91,2.15a6.8,6.8,0,0,1-.43-1.65l.32,2.39a14.33,14.33,0,0,1,.1-2.62l-.32,2.39c1.91-13.69,3.52-27.35,4.16-41.16a9.06,9.06,0,0,0-9-9,9.2,9.2,0,0,0-9,9Z"/><path class="cls-4" d="M114,193.5a11,11,0,0,0,1.3.18h.24l.62-.09.62-.08h.07l.11,0,.06,0,0,0,1.07-.45a.94.94,0,0,0,.22-.12c.35-.24.68-.5,1-.77a.6.6,0,0,0,.08-.08,7.34,7.34,0,0,0,.85-1.08l.06-.11c.09-.19.18-.43.25-.59s.17-.39.24-.58a.56.56,0,0,0,0-.12,11.46,11.46,0,0,0,.18-1.31,3.44,3.44,0,0,0-.39-1.73,4,4,0,0,0-2.38-2.38,3.44,3.44,0,0,0-1.73-.39l-1.2.17a4.41,4.41,0,0,0-2,1.15l-.71.91a4.44,4.44,0,0,0-.61,2.27v0l.16-1.19a2.33,2.33,0,0,1-.07.25l.45-1.07a1.42,1.42,0,0,1-.14.23l.71-.91a1.45,1.45,0,0,1-.22.21l.91-.7a1.35,1.35,0,0,1-.26.15l1.08-.45a1.53,1.53,0,0,1-.29.07l1.19-.16a.76.76,0,0,1-.26,0l1.19.16-.1,0a3.55,3.55,0,0,0-1.8-.08,4.05,4.05,0,0,0-2.93,1.7,3.34,3.34,0,0,0-.81,1.53l-.16,1.19a4.43,4.43,0,0,0,.62,2.27l.7.91a4.41,4.41,0,0,0,2,1.16Z"/><path class="cls-4" d="M100.73,186.87a4.5,4.5,0,1,0-4.5-4.5,4.56,4.56,0,0,0,4.5,4.5Z"/><path class="cls-4" d="M10.09,172.38a17.14,17.14,0,0,1,3.28.1l-2-.27a4.84,4.84,0,0,1,1,.23l-1.79-.75.2.12-1.52-1.18.17.17-1.17-1.52.08.15-.76-1.79,0,.17-.27-2V166l.27-2,0,.17.76-1.8-.08.15L9.44,161l-.11.1,3.31-1.92-.16.05A8,8,0,0,0,8,162.67a7.5,7.5,0,0,0,8.47,11,6.48,6.48,0,0,1,.85-.19l-2,.26a7.81,7.81,0,0,1,1.45,0l-2-.26a33.5,33.5,0,0,1,4.81,1.3l5,1.48a7.5,7.5,0,1,0,4-14.46l-6.54-2c-3.1-.93-6.35-1.65-9.55-.66l4,14.46a8.58,8.58,0,0,0,4.16-2.84,7.73,7.73,0,0,0,1.6-3.86,8.14,8.14,0,0,0-4-8.19,15.25,15.25,0,0,0-8.16-1.41,7.9,7.9,0,0,0-5.31,2.2,7.51,7.51,0,0,0,0,10.6,7.44,7.44,0,0,0,5.31,2.2Z"/><path class="cls-4" d="M209,156.31l-2.42,1,1.79-.75a7.57,7.57,0,0,1-1.05.34l2-.26a2.06,2.06,0,0,1-.7,0l2,.26-.33-.12,3.31,1.93-.19-.15,1.17,1.52-.13-.19.76,1.79-.09-.23.27,2a1.07,1.07,0,0,1,0-.47l-.27,2,.07-.21-.75,1.79.11-.17-2.69,2.69L212,169l-1.79.76.22,0-9.23-5.24,0,.3-.27-2a6.42,6.42,0,0,1,0,1.24l.27-2a2.23,2.23,0,0,1-.16.56l.76-1.79-.13.24,1.17-1.51a1.27,1.27,0,0,1-.41.39l1.52-1.17-.35.15,1.79-.76-.37.07,2-.27h-.39l2,.27c-2.63-.36-5-.9-7.61,0a11.82,11.82,0,0,0-4.34,2.51A11.2,11.2,0,0,0,194,165.2c-.95,2.42.18,5.56,1.93,7.3,2,2,4.58,2.4,7.29,1.93l.67-.12a6.85,6.85,0,0,0,3.9-2.69,7.14,7.14,0,0,0,1.61-4.54,7.87,7.87,0,0,0-5.51-7.23,11.17,11.17,0,0,0-7.5.24,21.2,21.2,0,0,1-4.34,1.35l2-.27c-3.34.44-6.37.67-9.41,2.26A7.57,7.57,0,0,0,182,173.69a7.66,7.66,0,0,0,10.26,2.69q.34-.18.69-.33l-1.79.76a11.74,11.74,0,0,1,2.6-.63l-2,.27a38,38,0,0,0,6-.9,44.11,44.11,0,0,1,4.33-1.47l-2,.27a5.88,5.88,0,0,1,1.11,0l-2-.27a3.83,3.83,0,0,1,.73.22V159.85l-.67.11,9.22,9.23.11-.28-.76,1.79a3.12,3.12,0,0,1,.31-.49L207,171.73a2.65,2.65,0,0,1,.41-.41l-1.52,1.17a4.94,4.94,0,0,1,.75-.47l-1.79.76a5.32,5.32,0,0,1,1.18-.34l-2,.27a6.42,6.42,0,0,1,1.24,0l-2-.27a23.22,23.22,0,0,0,3.88.54,9.26,9.26,0,0,0,6.34-2.7c2.69-2.76,2.76-6.22,2.24-9.76a7.46,7.46,0,0,0-3.45-4.48,8.73,8.73,0,0,0-5.78-.76c-3.19.47-5.54,3.77-5.95,6.76a8.41,8.41,0,0,0,2.48,7.34,9.1,9.1,0,0,0,8.68,2,44.72,44.72,0,0,0,4.91-2.06c1.6-.69,3-2.88,3.45-4.48a7.68,7.68,0,0,0-.76-5.78,7.54,7.54,0,0,0-4.48-3.44,8.78,8.78,0,0,0-5.78.75Z"/><path class="cls-4" d="M181.8,164.88c-2.85,1.13-5.55,3.06-5.67,6.44A6,6,0,0,0,182,177.7a4.36,4.36,0,0,0,3.89-2.23,6.28,6.28,0,0,0,0-5.68,4.41,4.41,0,0,0-3.88-2.23l-6.13-.05,3.18,7.68.61-.65-6.37-6.37a5.58,5.58,0,0,0-1.56,3.58c0,.18,0,.34,0,.52.07,1.58.15-1,1-1.66l2-1.15c-.92.35.85.07-.37.11H173c-.93,0,.41.16-.58-.05-.43-.1-.86-.2-1.29-.32l2.69,6.61a2.17,2.17,0,0,1-1.17.87,4.51,4.51,0,0,0-1.2-8.84,12.7,12.7,0,0,0-6.18,1.77l-1.16.58c-.81.41.67-.09-.28.1-.19,0-1.08.16-.43.12a16.5,16.5,0,0,1-1.86,0c-4.24-.17-8.5.51-12.73.78-8.71.55-17.45.66-26.18.89a4.5,4.5,0,1,0,0,9c8.73-.23,17.47-.33,26.18-.89,4.23-.27,8.49-1,12.73-.78a14,14,0,0,0,6.78-1.25c.78-.36,1.57-.73,2.32-1.15-.87.48,0,0,.26-.08.51-.11.46-.13-.16,0a4.22,4.22,0,0,1,.71,0L170.22,168a7.89,7.89,0,0,0-4.22,3.27c-1.6,2.47,0,5.84,2.69,6.61a15.65,15.65,0,0,0,7.86.4,5.41,5.41,0,0,0,3.79-3.21,5.12,5.12,0,0,0,.43-2.26l-.06-.55c0-.51-.05-.36-.08.46l-1.15,2,.16-.18c1.56-1.76,1.86-4.66,0-6.37a4.58,4.58,0,0,0-6.37,0l-.6.65a4.56,4.56,0,0,0,3.18,7.69l6.13.05-3.89-2.23.12.28-.61-2.27.49-1.41L182,168.7c2.5.14,4.13,2.81,2.47,4.71-.49.34-.52.38-.1.11s.4-.21-.15,0c2.18-.87,3.95-3,3.14-5.53-.68-2.11-3.19-4.08-5.53-3.14Z"/><path class="cls-4" d="M97.73,178.33a5.06,5.06,0,0,0-4.53-7.6,9.9,9.9,0,0,0-1.87.33c-.17,0-1.41.28-.57.18a16.71,16.71,0,0,1-2.74,0c-4.15-.19-8.29-.43-12.44-.64L63.1,170c-2-.1-3.9-.18-5.85-.3l-1.29-.1c-1.06-.08.43.16-.5-.08-.47-.11-1-.28-1.44-.37-.3-.1-.26-.08.1.07a6.72,6.72,0,0,1-.75-.4L52.3,177c.28-.11,1.23-.26.17-.16.82-.08-.42-.2,0,0,.25.08.23.06,0,0s-.28-.14.1.06c-.45-.59-.12-.11.16.21l4.38-7.52L41.25,167c-4.8-.76-12.17-3.1-15.1,2.42A4.56,4.56,0,0,0,28.83,176c11.93,3.71,24.5,1.79,36.72,3.17l-1.2-8.83c-1.52.22.83-.06-.7.08-.47,0-.95.09-1.42.12-.88.06-1.75.09-2.63.08s-1.75,0-2.62-.09l-1.43-.13c-.92-.09.31.06-.69-.1-2.32-.36-5,.59-5.54,3.14-.49,2.16.66,5.15,3.14,5.54a46.21,46.21,0,0,0,14.28,0c2.21-.33,3.49-3,3.23-4.93-.32-2.37-2.16-3.65-4.42-3.91-5.88-.66-11.8-.54-17.71-.67-2.9,0-5.8-.17-8.68-.49L38,168.92c.5.06.12,0-.15,0-.75-.12-1.5-.25-2.24-.4a39.6,39.6,0,0,1-4.41-1.13L33.92,174c.39-.67.09-.43-.88.74.42-.23.33-.19-.27.11.72-.32-.77-.06.06,0,.13,0,1.47.06.7,0s1,.17,1.18.2l6.59,1,13.42,2.12c1.92.3,4.08-.19,5.08-2.07a4.68,4.68,0,0,0-.71-5.45,8.63,8.63,0,0,0-9.18-2.34,4.6,4.6,0,0,0-3.23,3.74,4.5,4.5,0,0,0,2.15,4.48c3.46,2,7.39,2.06,11.27,2.26l11.48.59,11.49.59c1.8.1,3.6.22,5.41.28a17.8,17.8,0,0,0,2.73-.09,16.36,16.36,0,0,0,2.08-.33l.44-.12c.5-.15.44-.15-.19,0l-2.28-.61.23.13-1.62-1.62-.26-.62.45-3.47-.1.21c-1,2.12-.64,5,1.61,6.16,2,1.07,5.05.64,6.16-1.61Z"/><path d="M14,175.64a259.8,259.8,0,0,0-1.55,46.82A263.61,263.61,0,0,0,19.31,269q2.75,11.41,6.52,22.53c2.41,7.11,5.06,14.25,9,20.67,7,11.44,18.25,19.44,30.6,24.35,14,5.58,29.27,6.9,44.23,6.77,8-.06,16.06-.51,24.08-1,7.33-.42,14.72-1,21.88-2.73a48.65,48.65,0,0,0,18.67-8.76,55.72,55.72,0,0,0,12.55-14.3c7.43-11.77,11.81-25.47,15.54-38.78a255.63,255.63,0,0,0,8.47-45.91,227.21,227.21,0,0,0-.51-46.64q-.68-5.72-1.63-11.39c-.32-1.9-3.21-1.09-2.89.8,5.1,30.2,3.48,61.34-3.45,91.12q-2.58,11.06-6.11,21.87A155.8,155.8,0,0,1,189.17,306c-5.47,11.52-13.31,22.18-25.19,27.6-6.42,2.92-13.49,4.22-20.46,4.95-7.55.78-15.16,1.08-22.74,1.41-15.23.65-30.78.65-45.59-3.38-12.36-3.37-24.26-9.55-32.81-19.25a61.7,61.7,0,0,1-10.57-18.16A217.41,217.41,0,0,1,24.6,277.4a259.55,259.55,0,0,1-8.74-90.67q.45-5.56,1.14-11.09c.24-1.91-2.77-1.9-3,0Z"/><path d="M118.59,169.54c-16.6-.38-33.21-.77-49.77-2-8.26-.63-16.5-1.48-24.7-2.64-3.9-.55-7.92-1-11.65-2.28a108.11,108.11,0,0,1-10.08-4.34c-5.93-2.77-12.88-4.95-18.6-.47A9.23,9.23,0,0,0,0,165.27,10.32,10.32,0,0,0,4.64,173c2.94,2.08,6.61,2.72,10.09,3.21q6,.84,12,1.57,12.16,1.49,24.39,2.54a706.22,706.22,0,0,0,98,1.63c16.17-.86,32.4-2.12,48.46-4.27,6.92-.93,14.62-2.27,20.18-6.81a11.76,11.76,0,0,0,4.58-7.57,8.6,8.6,0,0,0-3.36-7.61c-5.83-4.64-13.14-2.08-19.28.41a228,228,0,0,1-22.08,7.84,137.54,137.54,0,0,1-23.06,4.81,197.29,197.29,0,0,1-24.31,1c-3.9,0-7.8-.12-11.7-.21-1.93,0-1.93,3,0,3,15.47.36,31,.58,46.24-2.39a162.18,162.18,0,0,0,21.22-5.75c3.56-1.2,7.08-2.5,10.57-3.87a102.72,102.72,0,0,1,10.28-3.88c3-.82,6.32-1,9.15.6,2.31,1.32,3.91,3.74,3.23,6.47s-3.11,4.87-5.48,6.28a33.51,33.51,0,0,1-9.83,3.53c-7.37,1.65-15,2.19-22.54,2.93s-15.3,1.4-23,1.9a704.77,704.77,0,0,1-93.62,0q-23.25-1.56-46.36-4.65c-3.54-.47-7.41-.73-10.66-2.33-2.55-1.25-5-3.73-4.81-6.78.2-2.65,2.43-4.7,4.75-5.7,3-1.28,6.3-.72,9.25.33,6.58,2.34,12.49,6.3,19.47,7.5,7.61,1.31,15.29,2.25,23,3,15.85,1.55,31.77,2.14,47.68,2.56l11.46.27C120.52,172.59,120.52,169.59,118.59,169.54Z"/><path d="M16.05,155.45c-1-9,2.42-17.52,6.87-25.16a185.31,185.31,0,0,1,14.8-21.45,101.09,101.09,0,0,1,17.67-18C62.72,85.25,71,81.66,79.75,79c18.22-5.57,37.81-8.2,56.7-4.68,16.59,3.1,32.32,10.85,43.69,23.49,6.13,6.81,11.07,14.64,16,22.33a85.85,85.85,0,0,1,7.05,12.73,58,58,0,0,1,3.89,13.6,55.94,55.94,0,0,1,.65,6.84c.08,1.93,3.08,1.94,3,0a62.06,62.06,0,0,0-7.84-27.81c-2.41-4.35-5.19-8.49-7.92-12.65-2.62-4-5.3-7.94-8.21-11.72A76.68,76.68,0,0,0,167.3,83a83.79,83.79,0,0,0-23.87-10.25c-18.89-4.92-38.89-3.49-57.63,1.36C76.4,76.58,67,79.64,58.73,84.87a87.5,87.5,0,0,0-19.32,17.21,203.26,203.26,0,0,0-15.83,21.44c-5,7.62-9.53,15.94-10.55,25.12a31,31,0,0,0,0,6.81c.22,1.89,3.22,1.91,3,0Z"/><path d="M13.79,195.57c11.76,4.2,24.91,6.29,37.19,3.09a41.43,41.43,0,0,0,8.73-3.35c2.85-1.49,5.49-3.32,8.34-4.78,6.2-3.16,13.52-3,20.32-3a38,38,0,0,1,10.18,1.13c3.17.88,6,2.5,9,3.81,6,2.61,12.18,2.87,18.56,1.76s12.39-3.27,18.64-4.68a50.36,50.36,0,0,1,21-.2c7.55,1.46,15.06,4.31,22.87,3.8,7.53-.49,14.36-4,20.88-7.49,1.7-.92.19-3.51-1.51-2.59-5.77,3.12-11.85,6.34-18.48,7-6.87.69-13.54-1.53-20.16-3a56.37,56.37,0,0,0-20.65-1.28c-6.38.92-12.48,3.06-18.72,4.58-6,1.47-12.34,2.38-18.36.48-3.08-1-5.91-2.62-8.89-3.87a32,32,0,0,0-9.7-2.25,85.65,85.65,0,0,0-10.26-.05,52.82,52.82,0,0,0-10,1c-6.37,1.44-11.31,5.86-17.23,8.35-13,5.48-28,3.31-40.93-1.31-1.82-.65-2.6,2.24-.79,2.89Z"/><path d="M176.57,221.63a2.37,2.37,0,0,0,2.55-2.72v-1.63a3.66,3.66,0,0,0-.31-2,3.77,3.77,0,0,0-2.38-1.38,7.89,7.89,0,0,0-2.16-.26,4.9,4.9,0,0,0-2.34.62,3.61,3.61,0,0,0-1.59,2.08,3.73,3.73,0,0,0,1.78,4.38,8.44,8.44,0,0,0,4.45.87,1.5,1.5,0,0,0,0-3,9.63,9.63,0,0,1-1.42,0l-.18,0c-.27,0,.41.07.15,0l-.31-.05a5.38,5.38,0,0,1-.79-.2c-.14,0-.55-.24,0,0l-.32-.15-.29-.18c-.21-.13.3.26.12.09l-.12-.11-.12-.12c-.12-.11-.06-.2.1.14l-.17-.28c-.13-.21.12.39.06.15,0-.06,0-.11-.05-.16a1.16,1.16,0,0,0,0-.18c.13.48,0,.26,0,.09a2.68,2.68,0,0,1,0-.4c0,.5,0,.13,0,0l.06-.18c.08-.25-.18.35-.05.13l.09-.16c.17-.29-.23.23-.06.07a2.72,2.72,0,0,0,.24-.24c-.22.28-.28.19-.12.1l.14-.08.15-.08c.22-.12-.38.13-.14.06l.34-.1c.15,0,.6-.06,0,0l.38,0a5.63,5.63,0,0,1,.82,0c.27,0-.41-.07-.14,0l.19,0,.31.06a7.08,7.08,0,0,1,.75.22l.16.06c.22.08-.41-.19-.11,0l.17.08.15.09a.87.87,0,0,1-.43-.57c.1.29,0-.36,0-.06,0,.1,0,.21,0,.31v.79c0,.51,0,1,0,1.52,0,.31.1-.35,0-.06s0,.11.06-.13a.81.81,0,0,1,.31-.3l.2-.09-.17,0,.13,0h-.09a1.5,1.5,0,0,0,0,3Z"/><path d="M195.85,211.86a3.88,3.88,0,0,0,.91-3.52,5.14,5.14,0,0,0-1.24-2.43,4.88,4.88,0,0,0-4.65-1.62,4.25,4.25,0,0,0-3.14,4.1,5.15,5.15,0,0,0,8.12,3.47,1.5,1.5,0,0,0-2.12-2.12l-.13.11s.34-.24.17-.14l-.07,0-.14.08-.07,0c-.16.09.2-.1.21-.09a2.42,2.42,0,0,1-.35.11l-.19,0,.26,0h-.49l-.18,0h-.09c-.16,0,.39.07.23,0a7.19,7.19,0,0,1-.8-.2.77.77,0,0,0-.17-.07l.21.09a.2.2,0,0,0-.08,0,2.82,2.82,0,0,1-.38-.21,2.46,2.46,0,0,1-.34-.22c-.21-.15.18.15.11.09l-.18-.16L191,209a1.12,1.12,0,0,0-.13-.16s.2.29.14.19l-.06-.1a3.37,3.37,0,0,1-.19-.32c-.13-.25.07.15.06.15s-.06-.17-.06-.18,0-.13-.05-.19c-.07-.27.06.16,0,.18s0-.36,0-.39c0-.22-.07.38,0,.17a1.16,1.16,0,0,1,0-.18,1.52,1.52,0,0,1,.06-.2c0-.15-.09.25-.09.21s0-.1.06-.13a2.86,2.86,0,0,1,.24-.42.28.28,0,0,1,.06-.09s-.23.28-.13.17l.18-.2.14-.13.08-.07s-.29.2-.18.15.24-.15.36-.22-.38.14-.14.06l.19-.06.17,0c.21-.06-.42,0-.14,0,.13,0,.26,0,.38,0l.18,0c-.53,0-.25,0-.11,0l.35.1c.06,0,.33.13.05,0s0,0,0,0l.35.2.16.11c.24.16-.27-.23-.06,0a3.26,3.26,0,0,1,.33.31l.17.2c.1.1-.15-.18-.13-.18a.52.52,0,0,1,.08.11,2.91,2.91,0,0,1,.25.42,2,2,0,0,1,.1.21c-.22-.42-.07-.18,0,0l.06.23c0,.07.08.44,0,.17s0,.08,0,.15,0,.2,0,.3.07-.33,0-.14,0,.11,0,.16l0,.13c-.05.19,0-.08.06-.13a1,1,0,0,0-.16.29s.21-.23.1-.14l-.08.1a1.51,1.51,0,0,0,0,2.12A1.53,1.53,0,0,0,195.85,211.86Z"/><path d="M189.76,233.47a4,4,0,0,0,1,1.61,3.27,3.27,0,0,0,1.95.83,3.61,3.61,0,0,0,3.08-1.37,5.77,5.77,0,0,0,1.21-3.37,5.17,5.17,0,0,0-.82-3.08c-1-1.38-2.79-2.67-4.53-1.94a4,4,0,0,0-2.08,3.15,9.22,9.22,0,0,0-.15,2.22,6.47,6.47,0,0,0,.36,1.95,1.61,1.61,0,0,0,.69.89,1.49,1.49,0,0,0,1.15.15,1.52,1.52,0,0,0,1.05-1.84,3.24,3.24,0,0,1-.16-.53l-.06-.29s0-.1,0-.16a2.42,2.42,0,0,0,0,.28s0-.08,0-.1a8.4,8.4,0,0,1,0-1.42,2,2,0,0,1,0-.34c0-.24,0,.13,0,.19a1.38,1.38,0,0,0,0-.2q.06-.33.15-.66a2.47,2.47,0,0,1,.1-.29c0-.07.11-.28,0,0s0,.09,0,0a2.15,2.15,0,0,1,.14-.26l.07-.1c.08-.14-.29.34-.11.14a1.37,1.37,0,0,0,.17-.17c.05-.06-.36.24-.18.15l.12-.08c.16-.1-.3.11-.23.1l.12,0,.11,0c-.45.13-.39,0-.22,0h.14c.07,0-.44-.09-.24,0s.44.15.15,0,.07,0,.15.09l.35.23c-.4-.27-.16-.12-.06,0l.19.17.17.17.08.09c.09.1.12.23,0-.08.08.16.19.3.27.46a1.17,1.17,0,0,0,.05.11s-.12-.32-.07-.17.07.21.1.32a2,2,0,0,1,0,.24l0,.16c0,.16,0-.2,0-.19s0,.49,0,.59,0,.17,0,.25,0,.12,0,.17.06-.36,0-.19-.08.38-.14.58-.07.21-.11.32.08-.17.07-.16a1.11,1.11,0,0,0-.07.16c0,.1-.11.2-.17.3l-.07.1c-.09.15.23-.26,0-.07a2.09,2.09,0,0,1-.2.22l-.1.08c.2-.24.2-.14.07-.06s-.16.08-.24.13c.28-.18.27-.1.15-.06l-.15,0-.12,0c-.18,0,.38,0,.13,0h-.27c-.19,0,.35.07.17,0l-.15,0c-.31-.08.29.17,0,0l-.09,0c-.2-.11.13.08.12.09l-.09-.08c-.18-.19,0,0,0,.06,0-.08-.11-.19-.15-.27-.16-.32.09.24,0,0a1.64,1.64,0,0,0-.69-.9,1.54,1.54,0,0,0-1.15-.15A1.52,1.52,0,0,0,189.76,233.47Z"/><path d="M81.47,259c2,1.36,4.24,2.57,6.73,2.42a19.26,19.26,0,0,0,6.54-1.64,7.14,7.14,0,0,0,4.12-4.73,17.92,17.92,0,0,0,.69-7.86,7.32,7.32,0,0,0-4.26-5.47,14.58,14.58,0,0,0-6.89-1c-4.38.35-8.8,2.51-10.61,6.72s-.06,8.9,3.68,11.53A1.5,1.5,0,1,0,83,256.44a6.46,6.46,0,0,1-2.79-6.76c.82-3.23,3.89-5.14,7-5.74,3-.56,7.83-.48,9.13,2.85.75,1.91.38,4,0,6-.36,1.78-.76,3.21-2.43,4.12a15.7,15.7,0,0,1-5.26,1.52c-2.14.28-3.94-.81-5.64-2S79.88,257.94,81.47,259Z"/><path d="M123.61,263a10.46,10.46,0,0,0,6,10.95,14.52,14.52,0,0,0,6.75,1.39c2.25-.07,4.82-.46,6.42-2.21s2-4.3,2.29-6.55a10,10,0,0,0-1.46-6.88c-2.66-3.82-7.93-5.38-12.42-4.86a7.7,7.7,0,0,0-5.15,2.61,11.85,11.85,0,0,0-2.38,5.55c-.36,1.88,2.54,2.69,2.89.79.42-2.28,1.28-4.94,3.73-5.72a10.33,10.33,0,0,1,4.63-.11,10.12,10.12,0,0,1,4.83,1.93c3,2.39,2.83,6.51,1.63,9.83-.63,1.73-2,2.31-3.75,2.53a12.85,12.85,0,0,1-5.23-.41c-3.37-1-6.44-4.29-5.84-8.05a1.55,1.55,0,0,0-1-1.84A1.5,1.5,0,0,0,123.61,263Z"/><path d="M113.78,301a7,7,0,0,0,4.44,5.32c2.27,1,4.72,2,7.23,1.95a10.47,10.47,0,0,0,9.78-8,11.43,11.43,0,0,0-.27-6.75,8.11,8.11,0,0,0-5-4.7c-4-1.52-8.6-2-12.13.83a12.06,12.06,0,0,0-4,11.31,1.5,1.5,0,0,0,1.84,1,1.52,1.52,0,0,0,1-1.84,9.16,9.16,0,0,1,2-7.19,6.77,6.77,0,0,1,3-2.14,9.55,9.55,0,0,1,5.19.21c1.56.38,3.34.84,4.44,2.1a6.62,6.62,0,0,1,1.25,4.81,7.71,7.71,0,0,1-5.83,7.12c-2.13.5-4.26-.32-6.22-1.08a10.48,10.48,0,0,1-2.45-1.19,4,4,0,0,1-1.41-2.64C116.29,298.28,113.39,299.08,113.78,301Z"/><path d="M144.46,290.25a9,9,0,0,0,4.09,4.88,11,11,0,0,0,7.15.73,10.07,10.07,0,0,0,6-3.23A10.51,10.51,0,0,0,164,286a11.16,11.16,0,0,0-6.84-10.45A9,9,0,0,0,147,278a12.45,12.45,0,0,0-2.49,12.24c.64,1.81,3.54,1,2.89-.8a9.51,9.51,0,0,1,.9-8.21,6.57,6.57,0,0,1,6.12-3.38,7.87,7.87,0,0,1,6.44,6.29c.72,3.31-.62,6.93-3.88,8.25a9.79,9.79,0,0,1-6,.48,5.62,5.62,0,0,1-3.56-3.43,1.53,1.53,0,0,0-1.84-1A1.5,1.5,0,0,0,144.46,290.25Z"/><path d="M61.87,284.25A15.14,15.14,0,0,0,64,287.12a13.53,13.53,0,0,0,2.72,2.46c2.38,1.54,5.29,1.33,7.89.49a14,14,0,0,0,6.4-3.73,10.31,10.31,0,0,0,2-7.44c-.12-2.36-.87-4.85-3-6.11a10.3,10.3,0,0,0-5.72-1,20.08,20.08,0,0,0-9.69,2.75,8,8,0,0,0-3.43,4,7.27,7.27,0,0,0,.65,5.69c.86,1.73,3.45.21,2.59-1.51a4.44,4.44,0,0,1-.45-3.08,4.55,4.55,0,0,1,1.64-2.14A15.55,15.55,0,0,1,72.71,275c2.45-.33,6.26-.71,7.12,2.25a9.6,9.6,0,0,1-.2,5.81c-.72,1.78-2.5,2.83-4.19,3.55-2,.84-4.49,1.72-6.56.76a8.3,8.3,0,0,1-2.52-2.13,12.6,12.6,0,0,1-1.9-2.47C63.59,281,61,282.53,61.87,284.25Z"/><path d="M35.9,286.58c3.21,3.25,8.94,3.9,12.92,1.84A9.79,9.79,0,0,0,53.11,276a12.22,12.22,0,0,0-11.73-7.16,8,8,0,0,0-5.73,2.3,9.54,9.54,0,0,0-2.25,4.44c-.82,3.69-.21,8.22,2.5,11,1.34,1.39,3.46-.73,2.12-2.12a7,7,0,0,1-1.58-3,11,11,0,0,1-.34-3.85,8.61,8.61,0,0,1,1-3.38,4.19,4.19,0,0,1,2.29-2,9.43,9.43,0,0,1,10,3.22,7.07,7.07,0,0,1-1,9.74A8.39,8.39,0,0,1,38,284.46C36.66,283.08,34.54,285.2,35.9,286.58Z"/><path d="M56.4,318.34c1.87,4.77,7.11,6.66,11.91,6.24,2.38-.21,5.2-.62,7-2.28a6.53,6.53,0,0,0,1.76-3.08q.65-2.06,1.23-4.14c.74-2.69.76-5.32-1.14-7.54A14.77,14.77,0,0,0,71.8,304c-4-1.74-8.78-2.51-12,1.06-3,3.3-5,8.93-3.4,13.29.66,1.8,3.56,1,2.89-.8-1.09-2.92,0-6.41,1.59-9A6.18,6.18,0,0,1,64,305.7a8,8,0,0,1,4.68.3,19.37,19.37,0,0,1,4.5,2.09c1.54,1,2.78,2.23,2.66,4.17a28.4,28.4,0,0,1-1.64,6.17,3.17,3.17,0,0,1-1.4,2,9,9,0,0,1-2.83.88c-3.65.72-9.09.3-10.7-3.79a1.55,1.55,0,0,0-1.85-1A1.5,1.5,0,0,0,56.4,318.34Z"/><path d="M82.16,303.79A6.5,6.5,0,0,0,84.83,306a19.5,19.5,0,0,0,3.32,1.52,11.49,11.49,0,0,0,6.86.36,9.17,9.17,0,0,0,4.93-3.41,8,8,0,0,0,1-6.51,11.41,11.41,0,0,0-7.41-8.76,8.64,8.64,0,0,0-5.7.05A8.1,8.1,0,0,0,84,292.47a15,15,0,0,0-2.22,5.5,9.66,9.66,0,0,0,.23,5.46,1.56,1.56,0,0,0,1.85,1.05,1.5,1.5,0,0,0,1-1.85,6.07,6.07,0,0,1-.31-3.37,12.4,12.4,0,0,1,1.08-3.64c1.14-2.39,2.73-4.1,5.58-3.85a7.61,7.61,0,0,1,6.1,4.64c.63,1.6,1.24,3.54.69,5.25a5.15,5.15,0,0,1-2.6,2.85,7.45,7.45,0,0,1-5.15.52,14,14,0,0,1-3.07-1.13c-.73-.38-2.06-.89-2.47-1.62C83.82,300.58,81.23,302.1,82.16,303.79Z"/><path d="M98.93,326.72a10.58,10.58,0,0,0,2.68,2.86A25.05,25.05,0,0,0,105,332a11.41,11.41,0,0,0,8.06,1.45c5.5-1.24,7.44-7.75,7.09-12.73a11.09,11.09,0,0,0-3-7.16,10.08,10.08,0,0,0-5.48-2.59c-3.77-.69-9.1-.8-11.59,2.68a13.38,13.38,0,0,0-2,6.43,12.18,12.18,0,0,0,.86,6.67c.87,1.73,3.46.21,2.59-1.51A9.19,9.19,0,0,1,101,321a14.08,14.08,0,0,1,.93-4.53,3.91,3.91,0,0,1,2.66-2.48,12.84,12.84,0,0,1,4.74-.38,16.66,16.66,0,0,1,2.32.35c.33.08.66.16,1,.26l.36.12c.06,0,.68.27.38.14a6.43,6.43,0,0,1,3.39,4,12.6,12.6,0,0,1,0,6.73,7.32,7.32,0,0,1-2.78,4.58c-2,1.27-4.58.93-6.61,0a17.38,17.38,0,0,1-3.29-2.08,9.7,9.7,0,0,1-2.55-2.52A1.5,1.5,0,0,0,98.93,326.72Z"/><path d="M135,320.8a12.88,12.88,0,0,0,5.31,5,8.79,8.79,0,0,0,6.9.65c4.2-1.31,8.46-4.25,8.44-9.1,0-4.64-3.49-8.23-7.71-9.62a16.76,16.76,0,0,0-6.71-.73,7.18,7.18,0,0,0-5.46,2.7c-2.19,3-2.28,7.8-.77,11.07a1.5,1.5,0,0,0,2.05.54,1.54,1.54,0,0,0,.54-2,9.64,9.64,0,0,1,.1-6.91,3.34,3.34,0,0,1,2.32-2.11,12.06,12.06,0,0,1,5.28-.09c3.29.6,6.39,2.47,7.2,5.91s-1.73,5.73-4.61,7c-1.82.77-3.66,1.23-5.56.43a10,10,0,0,1-4.73-4.19C136.68,317.57,134.09,319.09,135,320.8Z"/><path d="M168.54,311.7a10.14,10.14,0,0,0,6.32-.47c2.11-.85,4.32-2.19,5.08-4.45a13.55,13.55,0,0,0,.44-3.48c.06-1.11.15-2.24.1-3.35a5.42,5.42,0,0,0-1.11-3.27,7,7,0,0,0-2.5-1.84c-3-1.45-6.88-2-9.91-.23s-4.15,5.49-4.27,8.75a9,9,0,0,0,1.17,5,7.78,7.78,0,0,0,4.68,3.34,1.5,1.5,0,0,0,.8-2.89,5.34,5.34,0,0,1-1.63-.69,2.85,2.85,0,0,1-.58-.45,2.37,2.37,0,0,1-.27-.28s-.33-.41-.2-.23a4,4,0,0,1-.65-1.25,6.84,6.84,0,0,1-.23-.89c0-.1,0-.21-.05-.31,0,.24,0-.33,0-.38-.13-2.11.4-5,2-6.54a4.47,4.47,0,0,1,1.23-.82,6.3,6.3,0,0,1,.71-.24l.48-.11s.48-.08.26-.05a8.32,8.32,0,0,1,3.72.37c1,.32,2.7.84,3.21,2a5.34,5.34,0,0,1,.19,2.32q0,1.49-.15,3a4.22,4.22,0,0,1-.56,2.31,6.57,6.57,0,0,1-2.31,1.65,7.43,7.43,0,0,1-5.11.65A1.5,1.5,0,0,0,168.54,311.7Z"/><path d="M175.87,288c2.18.38,4.56.59,6.57-.55a7.39,7.39,0,0,0,3.31-5.11,10.25,10.25,0,0,0-3.33-9.38,7.92,7.92,0,0,0-9.74-.49,8.58,8.58,0,0,0-3.55,8.27,8.44,8.44,0,0,0,6.74,7.26,1.54,1.54,0,0,0,1.84-1.05,1.51,1.51,0,0,0-1.05-1.84,8.89,8.89,0,0,1-.89-.22,4,4,0,0,1-.49-.17h0l-.26-.12a6.65,6.65,0,0,1-.73-.43c-.06-.05-.32-.25-.14-.1-.14-.11-.27-.23-.41-.36s-.37-.39-.55-.6c.16.19,0-.05-.08-.12s-.18-.26-.26-.4a6.21,6.21,0,0,1-.4-.77c.1.24,0,0,0-.13l-.15-.45c-.07-.26-.12-.52-.18-.78l0-.2s0,.25,0,.07a4.91,4.91,0,0,1,0-.53,5.48,5.48,0,0,1,0-.81c0-.06,0-.42,0-.26s.05-.25.06-.33a8.19,8.19,0,0,1,.23-.85c0-.05.14-.38.09-.26s0-.05,0-.07l.12-.24a6.1,6.1,0,0,1,.41-.7l.16-.23s-.13.16,0,0,.21-.25.32-.37a4.25,4.25,0,0,1,1.31-1,5.4,5.4,0,0,1,1.71-.64,1.24,1.24,0,0,1,.32-.05,3.71,3.71,0,0,1,.47,0l.46,0,.22,0c.26,0-.2,0,.05,0s.57.14.86.23l.21.07c-.22-.08,0,0,0,0l.46.23A6.14,6.14,0,0,1,181.9,277a5.83,5.83,0,0,1,.71,1.64c.08.3.16.61.21.91a3.79,3.79,0,0,1,.08.84,8,8,0,0,1,0,1.09c0-.22,0,.21-.05.29s-.09.4-.15.6a5.25,5.25,0,0,1-.17.52,1.08,1.08,0,0,1-.13.29,4.78,4.78,0,0,1-.73,1.1c-1.25,1.35-3.32,1.12-5,.83a1.54,1.54,0,0,0-1.84,1.05A1.5,1.5,0,0,0,175.87,288Z"/><path d="M98.77,274.71a7.91,7.91,0,0,0,2.67,5.74,12.37,12.37,0,0,0,6,2.26,9.94,9.94,0,0,0,10.3-6.09c1.7-3.83,2.12-9.21-1.62-12-3.4-2.52-8.37-2.32-12-.55a8.82,8.82,0,0,0-4.35,4.23,13.51,13.51,0,0,0-1,6.38c.12,1.92,3.12,1.93,3,0a12.38,12.38,0,0,1,.34-4.2,6.3,6.3,0,0,1,.72-1.61,4,4,0,0,1,.58-.73,3.89,3.89,0,0,1,.36-.34c.12-.11.12-.11,0,0l.33-.24a9.78,9.78,0,0,1,8.72-1.32,4.34,4.34,0,0,1,2.94,2.65,8.87,8.87,0,0,1-.13,4.82c-.76,2.87-2.88,5.61-6,6.05a9.9,9.9,0,0,1-5.44-1.11,4.63,4.63,0,0,1-2.41-4C101.61,272.8,98.61,272.79,98.77,274.71Z"/><path d="M134.16,5.66l-3,36.33c-1,12.07-1.71,24.2-3.54,36.18-.92,6-2,11.9-2.62,17.89s-1,12.14-1.35,18.22l-2.24,36.79-2.51,41.26c-.12,1.93,2.88,1.92,3,0q2.23-36.79,4.48-73.58c.37-6.09.68-12.19,1.2-18.27S129,88.38,130,82.36c1.9-11.92,2.82-23.92,3.81-35.95l3.38-40.75c.16-1.92-2.85-1.91-3,0Z"/><path d="M115.92,4.7c3.2-.68,6.26-1.9,9.59-1.69a14.28,14.28,0,0,1,8.37,3.09c1.46,1.25,3.59-.86,2.12-2.12A17.49,17.49,0,0,0,126.15.06c-3.84-.36-7.34,1-11,1.75-1.89.4-1.09,3.29.8,2.89Z"/><path d="M112.85,3.51,110,39.69c-.47,5.84-.88,11.7-1.48,17.53a158.82,158.82,0,0,1-2.92,17.18,132.54,132.54,0,0,0-2.68,17.5c-.47,6-.65,12-1,18-.68,11.89-1.65,23.77-2.77,35.62-1.28,13.51-2.76,27-4.24,40.49-.21,1.91,2.79,1.9,3,0,2.62-23.85,5.23-47.71,6.74-71.65.76-12,.73-24,3.13-35.82,1.16-5.66,2.48-11.26,3.23-17s1.15-11.57,1.62-17.36l3.26-40.64c.16-1.92-2.84-1.91-3,0Z"/></g></g></svg>