<svg xmlns="http://www.w3.org/2000/svg" viewBox="0 0 240.88 171.22"><defs><style>.cls-1{fill:#bfa366;}.cls-2{fill:#d3bd5f;}.cls-3{fill:#ad8550;}.cls-4{fill:#ad763a;}.cls-5{fill:#ddce90;}</style></defs><title>Asset 1</title><g id="Layer_2" data-name="Layer 2"><g id="Layer_1-2" data-name="Layer 1"><path class="cls-1" d="M46.08,53.36c-.73,3.64-.81,7.34,1.84,10.26A8.26,8.26,0,0,0,58,65.37L49.18,58.6l-.24.95,11.79,1.6a39.68,39.68,0,0,0,.1-7.06A8,8,0,0,0,53,47l4.25,10.24a3.69,3.69,0,0,1-1.57.84c.63-.16.42-.14-.62.07a4.49,4.49,0,0,1-2.45-1c.65.36,1.15,1,1.8,1.38a6.69,6.69,0,0,0,3.67.91A6.24,6.24,0,0,0,63.83,55a16.39,16.39,0,0,0,.72-4.4l-4.4,5.78A112.92,112.92,0,0,0,71.22,54l11.37-2.73a6.06,6.06,0,0,0,4.2-7.38,6.13,6.13,0,0,0-7.39-4.19L68,42.47A112.92,112.92,0,0,1,57,44.84,5.46,5.46,0,0,0,53.84,47a6.24,6.24,0,0,0-1.29,3.64c-.06,1.36.39-1.29,0,0-.1.39-.2.79-.32,1.18L58,47.43q4.32,2.32,2.88,1.1a8.45,8.45,0,0,0-.75-.59A7.18,7.18,0,0,0,59,47.13a8.64,8.64,0,0,0-10.28,1.58C45.08,52.33,47.74,59,53,59l-2.1-.62-1.45-1.45A2.62,2.62,0,0,1,49,55.27a8.87,8.87,0,0,0,0,1.86l-.19,4a6,6,0,0,0,11.78,1.59l.25-1a6.07,6.07,0,0,0-2.15-6.31A6.14,6.14,0,0,0,51.94,55c2-1,4.9-.64,5.55,1.79.35,1.32-.3.21.1-.11l-.1.73c0-.29.1-.58.16-.87.61-3.06-.88-6.62-4.19-7.38-3-.68-6.72.9-7.38,4.19Z"/><path class="cls-2" d="M14.23,103.64a8.39,8.39,0,0,0,4.95,3.94,8.83,8.83,0,0,0,6.43-.77l-8.21-8.2a16.64,16.64,0,0,0-2.42,7.8c0,3,1.35,5.51,2.74,8l6.54,11.76,6.71,12c2.14,3.83,4.18,7.93,7.38,11,3.95,3.81,10.16,6.22,15.54,4.11a6.59,6.59,0,0,0,3.59-2.76,6.11,6.11,0,0,0,.6-4.62c-.92-2.83-4.25-5.42-7.38-4.19a7.53,7.53,0,0,0-1.45.43c1-.12,1.13-.15.47-.11q-.37,0-.75,0c1,.16,1.11.17.46.05-.25-.05-.5-.12-.74-.19s-.5-.16-.74-.26c.84.37,1,.41.38.13A9.31,9.31,0,0,1,47,141c.71.56.8.63.29.2l-.61-.57c-.25-.25-1-.88-1.11-1.23l.17.23-.24-.34c-2.79-4-4.93-8.46-7.29-12.68q-3.69-6.65-7.39-13.3c-1.21-2.18-2.49-4.34-3.64-6.56-.14-.26-.27-.53-.4-.8q.46,1.13.15.18c.07.86.08,1,.05.3s0-.56-.08.35a8.12,8.12,0,0,1,.22-.81c.23-.62.19-.54-.13.24a5.37,5.37,0,0,1,.77-1.53,6.14,6.14,0,0,0-.94-7.27,6.29,6.29,0,0,0-7.27-.94A4.13,4.13,0,0,1,22.37,96l.87.35q2.11,2.55,1.35,1.23a6,6,0,0,0-10.36,6.06Z"/><path class="cls-2" d="M30.56,125.47A97.69,97.69,0,0,1,37,135.23,53.36,53.36,0,0,0,39.78,140a17.08,17.08,0,0,0,2.44,2.85,15.42,15.42,0,0,1,1.84,1.77l-.93-1.21c.11.15.22.3.32.46,1.7,2.64,5.4,4,8.21,2.16,2.63-1.7,4-5.39,2.15-8.21a14.16,14.16,0,0,0-2.45-2.89,17.12,17.12,0,0,1-1.88-1.83l.94,1.22a27.6,27.6,0,0,1-2.1-3.51q-1.11-2-2.31-4-2.37-3.82-5.09-7.42a6.55,6.55,0,0,0-3.59-2.76A6,6,0,0,0,30,120.85a5.83,5.83,0,0,0,.61,4.62Z"/><path class="cls-2" d="M41,124.72a135.8,135.8,0,0,0,10.34,16.05c1.49,2,3.38,3.22,6,2.87,2.13-.29,4.62-2,5-4.3A17.19,17.19,0,0,0,62,132c-.47-1.8-1-3.58-1.55-5.37l-1.53-5.24c-.26-.9-.51-1.8-.76-2.71-.33-1.19,0,1.19,0-.13s-.34,1.15.09-.07a6,6,0,0,0-2.15-6.31c-1.75-1.34-4.75-1.86-6.67-.46l-3.9,2.84c-.56.4-1.1.82-1.67,1.2a4.39,4.39,0,0,1-.87.54c-.19-.18,2.62-.34,1.13-.39-6-.22-8.16,8.33-3,11.18a138,138,0,0,0,14.8,7c2.18.88,5-.46,6.3-2.16a6.14,6.14,0,0,0,.47-6.66L61,121.76,51.58,129a22.9,22.9,0,0,0,14.48,7l-3-11.18c-4.54,2.46-8.63,5.45-10.53,10.46a23,23,0,0,0-1.17,7.57c-.06,3.3.63,6.41,3.25,8.65a70.51,70.51,0,0,0,6.19,4.52,57.55,57.55,0,0,0,5.66,3.47c1.37.72,2.79,1.34,4.23,1.93.54.23,1.09.43,1.63.66-1.45-.61-.09,0,.15.15s.48.3.7.47q-1.47-1.15.64.48a9.13,9.13,0,0,0,1.35.87,8.82,8.82,0,0,0,6.56.73,6.07,6.07,0,0,0,4.19-4.19,5.92,5.92,0,0,0-1.54-5.84c-2.1-1.7-4.21-3.41-6.21-5.23-1-.89-1.91-1.8-2.82-2.75s-1.58-2.05-2.49-2.88c.27.24.62.84.18.21l-.48-.68c-.36-.51-.7-1-1-1.58s-.63-1.08-.91-1.64l-.36-.74c-.36-.72-.09,0,.1.29-.66-.88-.31-3-.82.09a2.21,2.21,0,0,1-.51,1.95c-.3.37-.34.44-.12.22a4.74,4.74,0,0,0,.85-.77L73,138.36l-10-2.64c1.33,6.55,3.13,12.81,7.53,18,2,2.4,6.42,2.25,8.49,0a6.16,6.16,0,0,0,0-8.48c-.88-1,.49.75,0,.1-.18-.28-.39-.54-.57-.83a19.89,19.89,0,0,1-1-1.73c-.13-.24-.25-.48-.36-.73,0-.08-.6-1.28-.18-.39s-.07-.22-.14-.42-.23-.64-.34-1a68.64,68.64,0,0,1-1.91-7.76,5.93,5.93,0,0,0-4.19-4.19,6.14,6.14,0,0,0-5.84,1.54l-3.59,3.26A8,8,0,0,0,58,140.32,18.7,18.7,0,0,0,60,145.76a27.45,27.45,0,0,0,2.21,3.78c3.73,5.43,8.62,9.64,13.69,13.76l2.65-10a4.47,4.47,0,0,1,1.63,0l.69.29c-.23-.14-.45-.29-.67-.45.78.61.77.61,0,0a12.94,12.94,0,0,0-2.8-1.76c-.74-.33-1.49-.64-2.25-.94l-.41-.16q-.91-.37.21.09a25.63,25.63,0,0,0-2.38-1.15,76.63,76.63,0,0,1-9.29-6.05l-.54-.39c-.37-.28-.24-.17.41.33a3.39,3.39,0,0,1-.45-.4c-.31-.32-.21-.16.33.47a2.72,2.72,0,0,1,.4,1.48v-.42c0-.43,0-.87,0-1.3s0-1,.07-1.53c0-.2.22-1.68.05-.71s.12-.52.17-.7a4.91,4.91,0,0,1,.17-.63c.22-.62.17-.55-.14.22-.08-.13.49-.87.54-1,.53-1-.87.9,0,0,.26-.27.5-.54.78-.79a5,5,0,0,1,.42-.37c.34-.29.18-.17-.48.35.27,0,1.62-1.1,1.9-1.27.76-.46,1.54-.89,2.32-1.31a6.07,6.07,0,0,0,2.75-6.78c-.88-2.74-3-4.07-5.78-4.4,1.88.23.06,0-.34-.13s-.76-.19-1.13-.31-.75-.32-1.11-.4c1.49.34.32.12-.17-.14s-2.05-.94-2.15-1.36c.69.54.79.61.3.2l-.3-.26c-.38-.36-.75-.73-1.1-1.12a6,6,0,0,0-7.88-.47c-2.49,1.93-2.83,5-1.54,7.74l1.62,3.48L59,122.47c-.27-.11-2.2-.85-.71-.28-.57-.22-1.14-.49-1.7-.74-1.05-.48-2.11-1-3.15-1.47-2.16-1-4.28-2.14-6.37-3.3l-3,11.18c4.43.16,8-3.39,11.37-5.83l-8.82-6.78c-1.43,4.14.51,8.65,1.67,12.62l1.53,5.24c.26.9.54,1.79.75,2.7l.09.44c.12.67.12.59,0-.27.18.15-.18,2,.12.17l11-1.43a136.74,136.74,0,0,1-10.34-16.06,6.06,6.06,0,0,0-8.21-2.15A6.12,6.12,0,0,0,41,124.72Z"/><path class="cls-2" d="M75.28,137.15c3.51.63,7.39,1.13,10.63-.72,2.41-1.38,4.14-3.77,5.88-5.86.22-.27,2.22-2.71,2.44-2.58,0,0-1.17.73-.32.29l-.77.34-3.28-.42c.68.27-.17-.1-.38-.34a8.36,8.36,0,0,0,.92.75l3.12,2.53,1.47,1.2.92.74c.62.52.2.56-.2-.34l-.82-3V130l.82-3c0,.06,1-1.26.46-.67s.29-.32.38-.29a11.94,11.94,0,0,0-1.26.77c-.12.06-.49.17-.57.28.06-.08,1.07-.35.45-.22s-1.12.28-1.67.43.42-.08.48,0c-.11-.06-.54.06-.67.07l-1.57.16a39.26,39.26,0,0,0-3.89.59,27.23,27.23,0,0,0-11.92,6,8.65,8.65,0,0,0-2.69,8.73c1,3.88,5,5.66,8.74,5.52,4.56-.18,8.68-2.43,12.92-3.9a56.1,56.1,0,0,1,6.76-1.93c.61-.12,1.23-.24,1.84-.34.23,0,.48-.05.7-.11-.33.09-1.19.1-.38.08l.61,0c.5,0,1.21.25-.19-.1.25.06.68.3,0-.07-.4-.2-.46-.22-.17-.07q1.19.67-1.37-1.38l-.82-3,.62-1.49c.85-1.52,1-1.91.32-1.18a5,5,0,0,0-.48.44c-.45.49.33-.22.36-.25a5.78,5.78,0,0,1-.71.51c-.86.58-1.75,1.1-2.66,1.59s-1.85,1-2.8,1.38.88-.32-.21.08c-.56.21-1.11.43-1.67.62-4.15,1.41-8.67,1.72-12.51,4A13.81,13.81,0,0,0,77,148.34c-1.68,3.22-1.74,7.51,1.06,10.18,2.24,2.13,5.61,2.72,8.59,2.68a26.57,26.57,0,0,0,7.44-1.27c5-1.52,9.83-3.52,14.72-5.32L105.6,143A92.17,92.17,0,0,0,94,148.88c-3.58,2.07-7.1,4.48-9.14,8.19-1.18,2.16-1.12,5.57.94,7.27,3.7,3.07,8.07,4,12.79,3.61L97,156.17c-.52.15-1,.31-1.56.43-.26.07-.52.12-.79.17.86-.09,1.06-.12.6-.08l-.59,0c-.67,0-.52,0,.44.12a4.61,4.61,0,0,1-.73-.19c.84.38,1,.41.42.08l-4.63,11a34.12,34.12,0,0,0,9.7,2.18A20.16,20.16,0,0,0,110,167.34a18.44,18.44,0,0,0,7.17-6c2.46-3.87,1.46-8.19-.49-12a6,6,0,0,0-8.21-2.15,6.14,6.14,0,0,0-2.15,8.21l.41.81c-.29-.74-.32-.79-.09-.17s.15.58.08.08,0-.48,0,.08q.24-1.35,0-.45c.39-.87.43-1,.12-.47l.49-.63a6.51,6.51,0,0,1-.51.54,6.8,6.8,0,0,1-.57.5c.72-.55.82-.63.31-.26-.36.21-.7.46-1.06.68s-.88.53-1.33.77-1.76,1-.36.24a6.7,6.7,0,0,1-2.94.84c.77-.09.92-.12.45-.08-.23,0-.47,0-.7,0s-.63,0-.95,0c-.69-.07-.63,0,.19.06-.93.16-2.4-.49-3.26-.75-1.08-.31-2.14-.68-3.2-1.05-2.82-1-6,.89-7.07,3.47a6,6,0,0,0,2.45,7.5c3.47,2.23,7.7,1.78,11.46.64a6,6,0,0,0,4.29-6.59c-.36-2.74-2.91-5.44-5.89-5.2-.63.05-1.26.09-1.89.1-.39,0-.77,0-1.15,0s-1.37-.14-.34,0-.16-.06-.3-.1c-.3-.07-.59-.18-.89-.26-.65-.17,1.11.68.26.09-.34-.23-1.25-.95,0,.1l.94,7.27a7.92,7.92,0,0,0,.6-1c-.52.64-.64.8-.35.46.12-.15.25-.29.38-.43s.57-.53.84-.8c.77-.76-.74.5-.14.08,1.26-.88,2.56-1.67,3.89-2.44s2.9-1.68,4.38-2.47c.81-.43,1.62-.84,2.44-1.24l1.24-.58c1.14-.54-1,.41.25-.11a6.59,6.59,0,0,0,3.58-2.75,6.18,6.18,0,0,0,.61-4.63c-.94-2.88-4.23-5.34-7.38-4.19-5.1,1.87-10.17,4-15.39,5.52-.6.17-1.19.32-1.8.45l-.9.17c-.84.18,1.11-.05.24,0-.6,0-1.19.08-1.8.05-.21,0-1.2-.08-.32,0s-.35-.12-.54-.14c-.88-.1.31.14.49.24,2.4,1.32,2.17,5.38,2.19,3.43,0,0-.09,1.58-.42,1.67,0,0,.36-.68.36-.63s-1,1-.27.36c.18-.16.35-.34.52-.51.61-.6-.09.37-.35.26.08,0,.69-.43.78-.48s.44-.22.65-.34c.69-.39-1.22.42-.39.15.57-.17,1.12-.38,1.69-.54,1.21-.33,2.45-.57,3.67-.85a48.46,48.46,0,0,0,8.2-2.83,33.8,33.8,0,0,0,6.4-3.53,17.27,17.27,0,0,0,3.73-3.4,7,7,0,0,0,.61-7.91c-2-3.31-6.33-4.37-10-4A49.6,49.6,0,0,0,94.38,132c-2.48.75-4.91,1.65-7.31,2.6-1.17.46-2.33.95-3.52,1.33a16.82,16.82,0,0,1-1.81.47c0-.12,1.55,0,.23-.06h-.46c-.59,0-.62,0-.09,0l.37.05c2.22.88,3.21,2.26,2.95,4.14v1.08a2.3,2.3,0,0,1-.54,1c-.26.67,0,.16.21-.11.54-.58-.93.63-.25.18a28,28,0,0,1,3-1.85l.75-.36c1-.48-.15.12-.28.11a5.78,5.78,0,0,0,1.57-.55c.53-.16,1.07-.31,1.61-.43l.82-.17.61-.11c.45-.07.28,0-.53.07a7.15,7.15,0,0,1,1.8-.18c1-.11,2-.22,2.93-.39a18,18,0,0,0,4.5-1.55,15.84,15.84,0,0,0,3.69-2.54,6.7,6.7,0,0,0,1.42-8.11,12.06,12.06,0,0,0-3.51-3.57l-3.31-2.69c-1.58-1.28-3.08-2.72-5.08-3.32a8.2,8.2,0,0,0-6.63,1c-2.57,1.62-4.28,4.15-6.24,6.39-.42.47-.84.93-1.29,1.37l-.62.56c-.36.3-.21.18.46-.36l.78-.29c1.31-.29.83,0,.38-.06s-.92,0-1.39,0l-.92-.07c-1.29-.1,1.15.2-.23,0-3.08-.56-6.62.83-7.38,4.19-.67,2.93.88,6.78,4.19,7.38Z"/><path class="cls-2" d="M108.23,139c5.71.67,11.36-.84,16.57-3.06a20.51,20.51,0,0,0,6.55-4.24,33,33,0,0,0,4.84-6.75L128,127.06l4.62,2.33,2.21,1.1,1.1.56c.57.28,1.48,1.13.12-.16l-1.54-2.65.08.25V125.3c.46-1.23.27-.79.05-.42.08-.14.92-1,.23-.34-.31.31-.6.64-.93.93l-.57.5c-.59.51,1-.67.3-.25-.49.3-1,.64-1.45.94-1.76,1-3.62,1.93-5.42,2.89-2,1.07-4,2.2-6.07,3.19-.25.12-1.47.51-1.59.74,0-.1,1.31-.51.21-.11l-.61.23a27.21,27.21,0,0,1-3.53,1c-3.64.79-6.87,3.22-7.39,7.1a7.53,7.53,0,0,0,1.92,6.25,8.3,8.3,0,0,0,5.59,2.42,20.32,20.32,0,0,0,7.5-1.21,40.89,40.89,0,0,0,7.13-3.07c2.23-1.23,4.23-2.81,6.44-4.08.25-.15.51-.28.77-.42.95-.55-.66.17-.05,0a11.48,11.48,0,0,0,1.7-.47c-.06,0-1.25.06-.63.1a6.27,6.27,0,0,0,1,0c-.16.29-1.33-.31-.46,0,1.12.35-1.13-.63,0,0l-2.76-6.78c.05-.13.65-1.28.17-.4-.1.17-.18.33-.27.5l-.3.47c-.55.93.18-.34.27-.31a10,10,0,0,0-.89,1l-.42.38c-.91.87.78-.5.17-.11a23,23,0,0,1-2.28,1.38,4,4,0,0,0-.58.27c0-.11,1.08-.41.19-.08-.56.21-1.12.41-1.69.6-4.32,1.4-8.8,2.24-12.81,4.48a17.24,17.24,0,0,0-5.91,5.25c-2.49,3.68-1.87,9,2.53,10.86-.21-.09,1.54.56,1.54.54s-1.89-1.11-1.78-1c0-.06-.63-1.1-.55-.69a10.22,10.22,0,0,0,.92,1.92,9,9,0,0,0,1.92,2.56,15.38,15.38,0,0,0,1.36,1c.43.3,1,.88-.2-.35a3.28,3.28,0,0,1-1-1.36,18.19,18.19,0,0,0,.86,1.92c3.07,5.18,9.36,4.27,14.42,4a15.94,15.94,0,0,0,3.9-.53,9.71,9.71,0,0,0,5.14-3.94,32.58,32.58,0,0,0,3-6.36,16.68,16.68,0,0,0,1.27-7.14,8,8,0,0,0-6.49-7.58,27.34,27.34,0,0,0-8.75.15,18,18,0,0,0-6.94,2.19,8.22,8.22,0,0,0-2.84,11.2c1.83,3.18,5.76,4.59,9.26,4.29.57-.06,1.14-.15,1.71-.2.29,0,.58,0,.86,0,.91-.08-.17.12-.41-.09,0,0,.62.21.66.2-.23.08-1.35-.65-.32-.11.42.22.82.46,1.22.71,2.32,1.41,4.81,2.62,7.6,2.51,3.13-.12,6.14-2.67,6-6-.15-3.15-2.65-6.13-6-6a3.86,3.86,0,0,0-.68,0s1.64.17.62,0c-.18,0-.79-.31.09.06s.16.06-.05-.06c-.83-.44-1.61-1-2.44-1.43a13,13,0,0,0-8-1.68l-1.72.15c-.23,0-.92-.11,0,.05l.44.07c-.47-.14-.46-.11,0,.09l.38.17c-.57-.37-.44-.19.4.52a3,3,0,0,1,1,1.49,4.4,4.4,0,0,1-1.08,3.93c-.3.32-1.06.77-.23.24.63-.41-1.17.34-.44.2.2,0,.41-.13.61-.19q.9-.25,1.83-.45l.92-.17c.14,0,.92-.17.13,0s.15,0,.37,0c.39,0,.78-.06,1.17-.07.63,0,1.25,0,1.88,0l.63,0c.74,0-1.35-.31-.64-.07S135,153,135,153l-1.5-1.53L133,149.4a4.06,4.06,0,0,0,0,.78c.06,1.12.22-.8,0-.1-.11.49-.2,1-.34,1.46a12.41,12.41,0,0,0-.57,1.64c0-.05.61-1.33.09-.22-.09.19-.18.39-.28.59-.28.59-.57,1.18-.86,1.77l-.37.69c-.09.2-.49.64,0,.05l.24-.3c-.51.47-.33.4.54-.19l.8-.48c-.53.13-.53.16,0,.08.81.05.17,0,0,0l-.89.06-2.13.12c-1.09.06-2.18.15-3.27.16-.25,0-1.69,0-.54,0,1,.06.28,0,0-.07s-.21-.06.28.12a2.5,2.5,0,0,1,1.18.74,4.73,4.73,0,0,1,.86,1.41c-.28-.58-.45-1.23-.77-1.8a8.51,8.51,0,0,0-2.78-2.85c-.26-.19-.74-.72-.12-.05a1.57,1.57,0,0,1,.64.66q.51.7.15.15c-.17-.34-.36-.67-.52-1a10.9,10.9,0,0,0-2-3.13,8.84,8.84,0,0,0-1.83-1.39s-1.19-.55-1.69-.7c-.66-.2-.84-.59.4.23l2.15,2.15.42.94v3.19c.14-.87-.57.76-.19.23.72-1-.19-.12-.1.07,0-.09.67-.66.73-.71s.21-.18.31-.27l-.4.32c.39,0,1.2-.77,1.57-1l.91-.46c1-.52-.81.29-.11,0,2.65-1,5.39-1.65,8.1-2.47a27.12,27.12,0,0,0,8.24-3.76,18.09,18.09,0,0,0,6.63-8.56c.89-2.39-.58-5.6-2.76-6.78a13.31,13.31,0,0,0-10.07-1,27.84,27.84,0,0,0-7.65,4.06c-1,.68-2,1.32-3.12,1.9-.5.28-1,.54-1.53.79l-.77.37-.59.26c.71-.3.86-.36.44-.2-1.15.4-2.27.81-3.45,1.11-.56.13-1.11.24-1.67.35-1.15.22.23-.09.32,0s-.95,0-1,0a3.36,3.36,0,0,1,1.8.51l1.11,2a3,3,0,0,1,.57,4,3.9,3.9,0,0,1-1.14,1.22c-1,.65-.83.3-.36.21a29,29,0,0,0,3.67-.94,53.24,53.24,0,0,0,8.23-3.7c4.38-2.33,9.17-4.36,12.89-7.73a15.47,15.47,0,0,0,3-3.66,6.67,6.67,0,0,0-2.55-9.17c-2.82-1.65-5.9-3-8.82-4.43a6.13,6.13,0,0,0-8.21,2.16c-.53.91-1.07,1.83-1.66,2.72-.22.33-.89,1.7-.18.33a6.06,6.06,0,0,1-1.12,1.26c-.16.16-.86.65-.93.85.66-.51.72-.57.19-.2-.24.16-.48.3-.72.44s-.74.41-1.12.59-.51.25-.76.36c-.6.26-.52.23.24-.1a12.61,12.61,0,0,1-3,1,26.61,26.61,0,0,1-3.05.75l-.88.16c.86-.11,1-.13.27,0-.45,0-.89.08-1.34.1a22.33,22.33,0,0,1-3.56-.15,6,6,0,0,0-4.24,1.76,6,6,0,0,0,0,8.48,7,7,0,0,0,4.24,1.76Z"/><path class="cls-2" d="M149,133.79a30,30,0,0,0,9.63-1.9,13.71,13.71,0,0,0,7.15-6.43c1.29-2.73,1-5.81-1.55-7.74a6,6,0,0,0-7.88.47c-.17.18-1,.8-.28.35s-.3.19-.38.24-.61.23-.71.38c.76-.3.93-.37.5-.22a5.58,5.58,0,0,1-.58.18l5.84,10,5.57-5.71c2.39-2.45,5.26-5,5-8.78l-9,5.18c3.72,2.17,8,2.6,12.18,3.33l-3.59-8.82c1-1.28-.38.42-.67.74-.47.51-1,1-1.48,1.49-.31.29-.64.58-1,.86-.13.11-1.1,1-.45.37s-.44.31-.49.34l-.93.66c-2.68,1.85-5.41,3.63-8.12,5.45-1.32.88-2.63,1.77-3.95,2.64-.6.4-1.21.79-1.84,1.15-.32.17-.65.32-1,.5-.62.37,1.1-.36,0,0-3.08,1-6.42,1.64-8.63,4.24a6.22,6.22,0,0,0-1.54,5.84,5.92,5.92,0,0,0,4.19,4.19,38.36,38.36,0,0,0,10.32.29,62.58,62.58,0,0,0,10.12-1.32,29.33,29.33,0,0,0,8.61-3.43,34.75,34.75,0,0,0,7.47-6.59c2.11-2.32,2.47-6.22,0-8.48s-5.88-2.13-8.48,0q-2.74,2.24-5.52,4.44c-.86.68-1.72,1.38-2.6,2,.16-.13,1-.75.1-.08l-.57.43q-.75.59-1.5,1.14a108.41,108.41,0,0,1-11.29,7.86c-.52.3-1.06.57-1.6.84-.12.06-.82.39-.11.06s-.14,0-.33.1c-1.06.38-2.15.69-3.21,1.05a8.22,8.22,0,0,0-4.73,3.33,6.94,6.94,0,0,0,.11,7.12c3.82,6,12.09,2.9,17.36,1s10.2-4,15.29-6a6.6,6.6,0,0,0,3.59-2.76,6.14,6.14,0,0,0,.6-4.63c-1-3-4.17-5.19-7.38-4.19-3,.93-5.83,2.11-8.7,3.29a49.4,49.4,0,0,0-9.2,4.52,60.17,60.17,0,0,0-7.51,6.2,15.7,15.7,0,0,0-3.14,4c-.06.12-.49.72-.45.84-.07-.22,2.31-1.85,1.06-1.22a7,7,0,0,0-2.8,2.82,6,6,0,0,0,6.77,8.81,23.36,23.36,0,0,0,11.08-5.66L150,150.18l-1.36,1.66a6.26,6.26,0,0,0-1.54,5.84c.5,1.83,2.19,3.89,4.19,4.19a13.31,13.31,0,0,0,9-1.65,52.54,52.54,0,0,0,5.13-3.54,30.66,30.66,0,0,1,5.09-3.16c2-.93,4-1.7,5.45-3.5a6.49,6.49,0,0,0,1.75-4.24,6.11,6.11,0,0,0-1.75-4.24c-2.18-2-6.4-2.62-8.49,0-.84,1.05-.18,0,.18.06-.12,0-.77.47-1,.56-.67.34-1.37.6-2,.91a27.34,27.34,0,0,0-4.59,2.75c-1.41,1-2.77,2.05-4.2,3-.71.49-1.46.88-2.2,1.33-.4.2-.25.14.46-.17a6.17,6.17,0,0,1-.61.19c-.45.11-.26.1.58,0-.67,0-.56,0,.35.15l2.65,10,1.36-1.67a6.45,6.45,0,0,0,1.76-4.24A6,6,0,0,0,150,150.18l-.46.4c-.35.28-.21.18.4-.3a3.37,3.37,0,0,0-.68.48,18.25,18.25,0,0,1-2,1.13l-.37.17c-.41.19-.25.12.48-.2-.12.18-.78.29-1,.35a18.73,18.73,0,0,1-2.21.54l6.78,8.82-1.63,1.56.37-.22a12.1,12.1,0,0,0,1.57-1.17,9.27,9.27,0,0,0,1.71-2.27l.45-.86c.4-.79-.24.1-.25.24,0-.36,1-1.06,1.23-1.32,1-.93,2-1.81,3-2.69.5-.43,1-.84,1.52-1.26s-.93.63,0,0c.3-.2.59-.42.9-.62a30.05,30.05,0,0,1,3.5-2l1.83-.84c1.35-.6-.78.32,0,0l1-.42c2.73-1.13,5.47-2.24,8.29-3.12L171.37,135c-4.11,1.62-8.22,3.27-12.35,4.86-2,.75-3.92,1.48-5.91,2.14a30,30,0,0,1-3.2.93c-.24.06-.47.1-.7.14q-.68.12.42-.06c-.32,0-.63,0-.95,0q-3.75-.25,4.19,4.66l-.82,3c-.86,1.94-4.07,2.51-2.12,1.87l1.07-.35c.72-.23,1.43-.45,2.14-.71a31.8,31.8,0,0,0,5.09-2.37,92.83,92.83,0,0,0,7.68-5.24c5.37-3.91,10.58-8,15.73-12.24l-8.48-8.48c-.86.94-1.72,1.89-2.63,2.78-.11.1-1.34,1.42-1.5,1.35.07,0,.94-.66.16-.13-.3.2-.59.41-.89.6-.55.34-1.11.65-1.69.94-.12.06-.73.26-.77.37.07-.18,1.11-.43.24-.11a32.34,32.34,0,0,1-3.71,1.13c-.58.13-1.17.25-1.76.36l-1.16.19c-.87.15,1.08-.12.2,0-1.32.13-2.65.27-4,.36s-2.83.18-4.24.23c-.64,0-1.27,0-1.91,0-.39,0-.78-.06-1.18-.07-.87,0,1.44.26,0,0l2.65,10a3.17,3.17,0,0,1,.34-.39c.33-.31.15-.18-.56.4.17,0,.61-.33.75-.41.54-.32-1.42.44-.3.15.29-.07.58-.17.86-.26a29.55,29.55,0,0,0,4.88-1.74,66.9,66.9,0,0,0,8.15-5.2c2.68-1.79,5.42-3.53,8-5.43a37.48,37.48,0,0,0,8.18-8c2.22-2.93,0-8.2-3.58-8.81-1.87-.33-3.74-.63-5.61-1-.83-.16-1.65-.34-2.46-.58-.2-.06-1.36-.32-.47-.12.46.2.44.19,0,0-.25-.13-.5-.26-.74-.41-3.73-2.17-9.33.55-9,5.18a5.72,5.72,0,0,1,.43-1.57c.5-.61.59-.75.3-.42a12.27,12.27,0,0,0-1,1L156.82,116l-4.53,4.64a6,6,0,0,0,5.84,10,15.33,15.33,0,0,0,6.75-4l-9.42-7.27a6.82,6.82,0,0,1-.34.66c-.35.53-.25.43.3-.31-.1,0-.65.67-.78.8q-.72.61.33-.24c-.2.14-.42.27-.63.4s-.44.24-.67.35q1.2-.48.57-.24a28.52,28.52,0,0,1-3,.77c-.46.08-.3.06.48,0l-.89.09c-.6.06-1.2.1-1.8.15-3.12.23-6.15,2.59-6,6,.14,3,2.65,6.25,6,6Z"/><path class="cls-2" d="M182.7,123.59a14.81,14.81,0,0,0,11.4-1.47,37.88,37.88,0,0,0,7.19-6.07,24.35,24.35,0,0,0,5.59-8.83,30.71,30.71,0,0,0,1.2-4.29,8.61,8.61,0,0,0,.06-4.16,6.34,6.34,0,0,0-3.16-4,6.49,6.49,0,0,0-4.63-.61,6.24,6.24,0,0,0-3.11,2.15c-1.65,2.13-1.89,6,.47,7.88l2.64,2.07,1.33,1a3.16,3.16,0,0,0,.45.37l-.78-5.41-.18.39c-1,1.84-1.79,3.81-2.82,5.64-.5.88-1,1.74-1.59,2.58-.13.19-.95,1.22-.42.62s-.07.08-.2.24l-.57.66a39.7,39.7,0,0,1-4.68,4.3c-1.66,1.35-3.35,2.66-5,4l-1.29,1c-.57.46.36-.3.38-.3a5.45,5.45,0,0,0-.68.46c-.14.11-.78.37,0,.06.95-.38-.73-.12.37-.11.34,0,.89-.18,1.22,0a2.45,2.45,0,0,0-.77-.15,9,9,0,0,0-8.72,2.88,16.49,16.49,0,0,0-3.29,6.6,12.83,12.83,0,0,0,1.08,10.09c.28.46.58.9.85,1.36.11.18.21.36.31.54.65,1.12-.19-.77,0-.08.05.2.14.4.2.6s.21,1.39.15.44,0-.13,0,0c0,.42,0,.83,0,1.26-.13,4.23,5.33,7.9,9,5.18a46.25,46.25,0,0,0,11.53-12.1c1.95-3,.18-8.21-3.59-8.82a27.51,27.51,0,0,0-5.8-.44L188.41,141l6.77-1.54a9.65,9.65,0,0,0,4.55-2.12,9.18,9.18,0,0,0,2.33-4.32c.27-.83.54-1.66.84-2.47l.2-.53c.25-.59.19-.46-.17.4.22-.14.43-.9.57-1.16s.41-.74.64-1.1c.13-.2.27-.4.41-.59-.55.69-.67.86-.38.52l.87-.89c.48-.4.36-.31-.37.29.2-.14.41-.27.62-.39a6,6,0,0,0-6.06-10.36c-4.06,2.39-6.3,6.33-7.9,10.62-.28.76-.54,1.53-.78,2.3-.08.23-.15.46-.22.7q-.9,2.49,3-2.77a11.65,11.65,0,0,0-1.3.3l-6.77,1.53a6,6,0,0,0,1.6,11.79c.62,0,1.25,0,1.88,0q.47,0,.93.06l-.2,0-3.58-8.81q-.45.71-.93,1.38l-.49.68c-.39.52-.34.44.17-.23a10.89,10.89,0,0,1-2,2.36c-.72.76-1.46,1.49-2.24,2.19-.41.37-.85.72-1.27,1.08s-.43.35.24-.16l-.67.5,9,5.18a16.92,16.92,0,0,0-2-8.31c-.12-.23-1.53-2.36-1.45-2.43s.37,1.59.17.26c0,.08,0,1.14.08.5,0-.23.16-1.15,0-.32s.06-.16.09-.32c.13-.52.28-1,.44-1.53a3.12,3.12,0,0,0,.22-.63c0,.11-.66,1.35-.2.49.14-.25.9-1.33.23-.55s-.19.24-.05.11c.66-.66-.67.39-.95.52-.79.38-.4.14-.15.08s-1.73.32-1.78,0c0,.23,2.38.38,2.56.39A9.87,9.87,0,0,0,190,132.4c2.24-1.2,4.22-3.14,6.21-4.72,1.76-1.38,3.54-2.75,5.21-4.23a36.71,36.71,0,0,0,8.34-11c1.53-3,3.56-6.28,2.88-9.73-.64-3.25-4-5.11-6.42-7l-7.27,9.42.23.1L197,103.05c0-3.66-.23-4.69-.54-3.1l-.21.87c-.14.58-.29,1.15-.46,1.73-.12.42-.27.84-.4,1.27-.24.62-.2.55.12-.2-.12.27-.25.54-.39.8a14.08,14.08,0,0,1-.85,1.45l-.24.35c-.38.52-.32.45.18-.22-.14.42-.81.94-1.11,1.26s-.69.71-1,1c-.77.74-1.56,1.44-2.37,2.13-.31.27-.62.55-.94.81s-.41.35-.62.52c.69-.53.78-.6.25-.23-.22.15-.46.29-.69.42-.59.29-.49.26.3-.1,0,.13-1.21.31-1.2.33.91-.1,1-.12.36-.06a7.48,7.48,0,0,1-.82,0c-.68,0-.55,0,.36.07-.27,0-.54-.12-.8-.19a6,6,0,1,0-3.19,11.57Z"/><path class="cls-2" d="M208.61,132.21c.14-.55.29-1.09.48-1.63.07-.19.32-.6.3-.8,0,.49-.45,1,0,.08a19.06,19.06,0,0,1,1.94-3.06l-11.18-3c-.07.69-.05.62,0-.22,0,.23-.08.46-.13.69a14.39,14.39,0,0,1-.45,1.55c-1,2.84.88,6,3.48,7.08a6,6,0,0,0,7.49-2.45c2.4-4.11,3.68-8.72,5-13.24l4-13.3-4.19,4.19.25-.08h-3.19l-.93-.39-2.15-2.15a3.28,3.28,0,0,1-.5-2.44c.08-.54.07-.51,0,.07-.07.37-.13.75-.19,1.12-.15.83-.31,1.65-.49,2.47-.34,1.57-.75,3.12-1.22,4.65s-1,3.05-1.57,4.54l-.42,1.06c-.28.69.45-1,0,0-.38.83-.76,1.66-1.17,2.49-1.38,2.81-.85,6.62,2.16,8.2,2.7,1.43,6.72.86,8.2-2.15a69.09,69.09,0,0,0,5.2-13.86,60.57,60.57,0,0,0,1.23-6.28c.38-2.63.24-5.17-1.77-7.18a6.71,6.71,0,0,0-6.59-1.68c-4.09,1.21-4.68,5.8-5.73,9.32l-2,6.53c-.67,2.26-1.32,4.54-2,6.78a15.54,15.54,0,0,1-1.08,3c.81-1.37-.17.34-.31.64-.27.54-.57,1.07-.87,1.59l11,4.62a21.86,21.86,0,0,0,1-5.21,6,6,0,0,0-4.41-5.78c-2.83-.65-5.08.53-6.78,2.75A23.41,23.41,0,0,0,197,129c-.78,3,1,6.66,4.2,7.38a6.09,6.09,0,0,0,7.38-4.19Z"/><path class="cls-2" d="M231.78,69.65c-3.6,1.45-7.61,1.76-11.42,2.35-1.74.27-1.2,2.86.4,3l10.21.56-.4-2.94c-2.78.82-5.72,1.73-8.65,1.32-1.1-.15-2.6,1-1.7,2.21,2.17,2.85,7,2.48,10.17,2l-1.7-2.2c-1.21,2-5.05,1.21-6.81.66l-.8,2.89c2.56.42,4.31,2.7,7.06,2.58l-.4-2.94c-.82.11-4.24,1.87-4.47.65l-2.21,1.69,2,1.09A11,11,0,0,0,225,83.58l.43.24.33-1.44c-.07-.09-.74-.09-.86-.11l-2.4-.35a1.51,1.51,0,0,0-1.16,2.74c1.26,1,2.46,2,3.63,3l.3-2.36a2.4,2.4,0,0,1-1.24.57c-.21,0-.86-.14-.9,0h-2.89c.5,3-1.89,5.55-3.4,7.84-1.19,1.81-2.59,5.19-.28,6.8s4.16-2.55,4.81-4.16c.26-.65,2.17-7.75,2.4-7.7l-1.05-1c.4,1.33-.46,2.51-1.06,3.64A20.19,20.19,0,0,0,220.22,95,43.18,43.18,0,0,1,217.1,103c-.88,1.72,1.71,3.24,2.59,1.52a50.86,50.86,0,0,0,3.54-9c.83-2.83,3.28-5.49,2.36-8.58a1.52,1.52,0,0,0-1.05-1c-2.86-.65-3.86,2.11-4.47,4.33-.68,2.46-1.17,5.06-2.55,7.25-.33.53-.53.43.3.72,1,.37.48.19.48-.39a3.63,3.63,0,0,1,.57-1.59c.66-1.17,1.52-2.23,2.25-3.36a10.6,10.6,0,0,0,2-7.65c-.25-1.51-2.53-1.34-2.89,0a3,3,0,0,0,1.92,3.52,4.86,4.86,0,0,0,4.63-.69,1.52,1.52,0,0,0,.3-2.35c-1.36-1.24-2.77-2.4-4.23-3.52l-1.16,2.74c1.79.26,5.86,1.6,6.54-1,.32-1.23-.53-2.09-1.51-2.66-1.36-.79-2.75-1.54-4.12-2.3a1.52,1.52,0,0,0-2.21,1.69,3.45,3.45,0,0,0,3.29,2.67c1.75.09,3.19-1,4.87-1.22s1.28-3-.39-3c-2.25.1-4-2.11-6.26-2.47a1.5,1.5,0,0,0-.8,2.89c3.24,1,8.17,1.3,10.2-2a1.51,1.51,0,0,0-1.69-2.2,16.08,16.08,0,0,1-3.67.16c-.75-.06-2.58-.07-3.11-.76l-1.69,2.2c3.54.49,6.87-.32,10.25-1.32a1.51,1.51,0,0,0-.4-2.95L220.76,72l.4,3c3.81-.59,7.82-.9,11.42-2.35,1.77-.72,1-3.62-.8-2.9Z"/><path class="cls-3" d="M207.52,40.61l-.09,5.85a27.69,27.69,0,0,0,.28,6.56,9.3,9.3,0,0,0,6.6,7c3.34,1,6-.6,8.88-1.9l-1.79.76a9.59,9.59,0,0,1,2.18-.57l-2,.26a10.58,10.58,0,0,1,2.25,0l-2-.26a10.28,10.28,0,0,1,2.17.6l-1.79-.75c.43.19.89.58,1.32.72-1-.83-1.24-1-.67-.5a4.68,4.68,0,0,1,.39.38c1.14,1.18-.8-1.4-.17-.24.24.43.48.83.68,1.28L223,58a10.07,10.07,0,0,1,.59,2.08l-.27-2a9.27,9.27,0,0,1,0,2.17l1-3.79c-.56.84.45-.58.53-.68-.71.9,1.29-.8.58-.4a11.8,11.8,0,0,1-1.41.74l1.8-.76a13.19,13.19,0,0,1-2.83.71l2-.27a17.92,17.92,0,0,1-4.39,0l2,.27a13.73,13.73,0,0,1-3.2-.84l1.79.76a11,11,0,0,1-1.13-.58l-.52-.34c1.05.84,1.36,1.07.92.68l-.33-.32c-.49-.56-.29-.29.59.79-.17-.38-.43-.72-.61-1.11-1-2.33-4-3.71-6.47-3.71s-5.38,1.38-6.48,3.71a43.85,43.85,0,0,0-4.09,14.92c-.45,4.88.53,9.55,1.25,14.34l-.27-2a16,16,0,0,1,.14,3.66l.27-2a6.43,6.43,0,0,1-.33,1.29l.76-1.79c-.26.47-.17.4.25-.21a4.1,4.1,0,0,1,1.35-1.27l1.79-.76a2,2,0,0,1-.68.21l2-.27a2.41,2.41,0,0,1-.71,0l2,.27a6,6,0,0,1-1.09-.34l1.79.76c-.24-.12-.48-.24-.71-.38s-1.27-.91-.23-.11.19.07,0-.06-.21-.17.2.32.44.61.17.09l.76,1.8-.1-.38.27,2a28.9,28.9,0,0,1,.56-6l-.27,2a59.13,59.13,0,0,1,1.48-8.37L213,74.66l.12-.19-2.69,2.69.18-.09h-7.57l.12.06-3.44-4.48,0,.14v-4l0,.13L207,63.42h-.11a8,8,0,0,0-5.3,2.19,7.57,7.57,0,0,0-2.2,5.31c.17,3.83,3.31,7.79,7.5,7.5H207a7.66,7.66,0,1,0-5.62-13c-2.13,2.13-2.45,5.21-2.93,8s-.84,5.49-1.16,8.25c-.38,3.34-.35,6.36,1.84,9.19a15.12,15.12,0,0,0,7.5,5.1,9.87,9.87,0,0,0,11.08-4.34c3-5,1-11,.31-16.29l.27,2a34.55,34.55,0,0,1,.06-8.74l-.27,2a34.55,34.55,0,0,1,2.35-8.42l-.76,1.79.54-1.2H207.25c1.73,3.86,5.82,6.51,9.81,7.54a23.4,23.4,0,0,0,11.81-.1,15.24,15.24,0,0,0,6.56-3.66,9.7,9.7,0,0,0,3-6.26,12.88,12.88,0,0,0-.17-3.16,15.62,15.62,0,0,0-7.91-11.65,16,16,0,0,0-8.16-1.94,20.27,20.27,0,0,0-8.23,2.5l1.79-.75a4.21,4.21,0,0,1-1.05.3l2-.27-.35,0,2,.27-.35-.1,1.79.75q2.81,3.51,1.89,1.83l.75,1.79a5.16,5.16,0,0,1-.23-.94l.27,2a97.39,97.39,0,0,1,.1-10.25c.06-3.93-3.5-7.68-7.5-7.5a7.63,7.63,0,0,0-7.5,7.5Z"/><path class="cls-3" d="M193.62,74.47l-2.08,3,13.71,5.78a7.09,7.09,0,0,1,.38-1.4l-.76,1.8c.1-.23.22-.44.32-.66.5-1.07-1,1.06-.44.48.17-.16.36-.34.51-.51.5-.55-1.59,1.1-.48.44l-9.09-11.78a40.06,40.06,0,0,0-7.92,9.2,7.49,7.49,0,0,0,0,7.57,7.78,7.78,0,0,0,6.48,3.71l7.78.64v-15a44,44,0,0,0-12.58,1L198.94,86l.2-1.79c.28-2.54-1.62-5.25-3.71-6.47-2.5-1.46-5.06-1.14-7.58,0-5.09,2.31-8.19,8-8.26,13.43a7.58,7.58,0,0,0,9.49,7.24l.3-.08-2,.27h.3l-2-.27.3.06-1.79-.75q.71.34-.21-.27a4.35,4.35,0,0,1-1.32-1.38l-.75-1.79a2.86,2.86,0,0,1,.22.81l-.27-2a6.87,6.87,0,0,1,0,1.28l.27-2a17.81,17.81,0,0,1-1.16,4l.76-1.79a18.4,18.4,0,0,1-1.62,2.87,7.5,7.5,0,0,0-.76,5.78A7.74,7.74,0,0,0,182,107a7.49,7.49,0,0,0,9.85-.59l2.05-2.16a7.55,7.55,0,0,0,.58-9.85c-2.14-2.78-6.57-4-9.67-1.93a28.43,28.43,0,0,0-7,6.75c-1.56,2.07-1.23,5.46,0,7.57a7.6,7.6,0,0,0,6.48,3.71l1.62,0-2-14.73a28.1,28.1,0,0,1-3.14.62l2-.27a25.7,25.7,0,0,1-6.38,0l2,.27a14.85,14.85,0,0,1-3.65-.88l1.79.76a4.3,4.3,0,0,1-.59-.34q2.76,3.41,1.88,1.76l.75,1.79-.08-.29.27,2v-.32l-.27,2a1.91,1.91,0,0,1,.21-.73l-.75,1.8c.13-.23.28-.44.42-.66.82-1.23-.84,1-.28.36.39-.49.78-1,1.2-1.45.82-.94,1.69-1.84,2.59-2.7s1.77-1.58,2.68-2.32c.71-.58-1.4,1-.35.28l.68-.48c.56-.4,1.15-.78,1.73-1.15,3.32-2.1,4.94-6.78,2.7-10.26-2.14-3.32-6.72-4.94-10.27-2.7a50.35,50.35,0,0,0-8.37,6.6,39.7,39.7,0,0,0-3.07,3.41c-2,2.46-3.86,4.82-3.85,8.17a9.49,9.49,0,0,0,5.06,8.11,18.44,18.44,0,0,0,6.59,1.85,32.08,32.08,0,0,0,12.49-.71,7.51,7.51,0,0,0-2-14.73l-1.62,0,6.47,11.29c-1.35,1.79-.42.56-.1.21s.58-.62.89-.91a4.44,4.44,0,0,1,.95-.84l-.86.65c.23-.16.46-.33.7-.48l-9.09-11.78-2,2.17,11.78,9.09a22.63,22.63,0,0,0,3.8-10.64,9.6,9.6,0,0,0-11.76-10.36l9.5,7.23a10,10,0,0,1,.07-1.09l-.27,2a9.78,9.78,0,0,1,.49-1.76l-.76,1.79c.2-.45.45-.86.69-1.29.61-1.1-1.23,1.28-.26.37a4.75,4.75,0,0,1,.4-.38q.65-.59-.81.6c.43-.16.86-.51,1.29-.71l-11.29-6.48-.2,1.79c-.24,2.28,1.26,4.58,3,5.89a7.54,7.54,0,0,0,6.54,1.34c.95-.2,1.9-.36,2.86-.5l-2,.27a37.68,37.68,0,0,1,7.73-.19c3.92.31,7.67-3.67,7.5-7.5-.2-4.34-3.31-7.16-7.5-7.5l-7.78-.64,6.47,11.29a10.11,10.11,0,0,1,1.46-2.12c-.4.36-1,1.27-.25.34.27-.33.55-.65.83-1a33.64,33.64,0,0,1,3.54-3.42,7.46,7.46,0,0,0,2.19-5.3,7.75,7.75,0,0,0-1.61-4.55,7.5,7.5,0,0,0-9.67-1.93,13.37,13.37,0,0,0-6.43,8.82,8,8,0,0,0,.76,5.78,7.67,7.67,0,0,0,3.59,3.07c3.58,1.52,7.22.05,9.36-3.07l2.08-3c2.23-3.24.71-8.46-2.69-10.26a7.68,7.68,0,0,0-10.26,2.69Z"/><path class="cls-3" d="M161.15,96.4v.35l.27-2a2.62,2.62,0,0,1-.16.67l.76-1.8a3,3,0,0,1-.32.62c.85-1,1-1.27.46-.73,1.53-1.47.71-.56-.06-.23l1.79-.76c-2.36.84-4.69,1-7,2.19a17.64,17.64,0,0,0-5.77,5.5c-.49.66-.95,1.32-1.43,2s-.29.41.5-.63c-.16.2-.33.4-.5.59s-.53.56-.8.83a10.63,10.63,0,0,0-.87.77c1-.77,1.22-.93.6-.47l-.64.43a18,18,0,0,1-2.38,1.25l1.79-.76a16.91,16.91,0,0,1-2.94.9c-5.24,1.1-7.6,9-3.31,12.53a12.08,12.08,0,0,0,4.45,2.55,10.89,10.89,0,0,0,5.29,0l-4-14.47a14.92,14.92,0,0,1-2.1.5l2-.27a13.58,13.58,0,0,1-3.43,0l2,.26a12.18,12.18,0,0,1-2.83-.8l1.79.76c-.72-.35-1.6-1.3-.05.19-.54-.54-.4-.3.45.72a2.4,2.4,0,0,1-.33-.61l.75,1.8a2.66,2.66,0,0,1-.18-.67l.27,2a2.76,2.76,0,0,1,0-.76l-.26,2a3.48,3.48,0,0,1,.22-.78l-.75,1.79a5.72,5.72,0,0,0,.57-1.06c-.81,1-1,1.22-.47.64a3.78,3.78,0,0,1,.4-.4c1.13-1.08-1,.58-.33.25.39-.2.76-.43,1.16-.61l-1.79.76a16.53,16.53,0,0,1,3.81-.84l-2,.26,8.38-1.11c2.07-.28,3.76-.66,5.3-2.2a7.5,7.5,0,0,0,0-10.61c-1.35-1.24-3.39-2.45-5.3-2.19-4.08.54-8.27.87-12.3,1.68a15.06,15.06,0,0,0-10.39,7.86,10.69,10.69,0,0,0,.09,10.1,12.37,12.37,0,0,0,5.17,4.76,19.27,19.27,0,0,0,14.13,1.08c3.74-1.19,6.52-5.27,5.24-9.23a7.68,7.68,0,0,0-9.22-5.24l-.37.08,2-.27a2.36,2.36,0,0,1-.75,0l2,.27a2.57,2.57,0,0,1-.71-.23l1.79.76.9.74-3.31,12.53a23.07,23.07,0,0,0,11.2-6.11,37,37,0,0,0,3.89-4.91c.39-.55,1.16-1.12-.28.32.26-.26.47-.57.72-.84s.57-.47.8-.74c-1.06.78-1.27,1-.63.55a6.59,6.59,0,0,1,.71-.34l-1.79.75c2.45-.93,4.89-1,7.26-2.32a11.15,11.15,0,0,0,5.82-9.53c.06-3.92-3.5-7.68-7.5-7.5a7.63,7.63,0,0,0-7.5,7.5Z"/><path class="cls-3" d="M133.38,98.11h-4.92a7.62,7.62,0,0,0-7.23,5.51c-.71,3.13.43,6.91,3.45,8.47l3.38,1.75c3.48,1.8,8.3,1,10.26-2.69a7.63,7.63,0,0,0-2.69-10.26A17.74,17.74,0,0,0,123.05,99a10.46,10.46,0,0,0-6.23,3.73A8.21,8.21,0,0,0,115,108a20.43,20.43,0,0,0,.66,3.51l-.27-2a2.83,2.83,0,0,1,0,.77l.27-2a7.53,7.53,0,0,1-.32,1.15l.76-1.79a10.6,10.6,0,0,1-.58,1.11c-.11.18-.23.35-.35.52q-.51.7.54-.69a18.23,18.23,0,0,0-1.45,1.59c-.24.23-.47.46-.72.67l-.44.38c-.45.37-.2.17.74-.58-.67.25-1.32.83-2,1.13l1.8-.76a10.19,10.19,0,0,1-1.89.53l2-.27a10,10,0,0,1-2.5,0l2,.27a13.48,13.48,0,0,1-3.24-.92l1.79.75a21.39,21.39,0,0,1-3.64-2.13c-.55-.39-1.09-.8-1.63-1.2-.92-.7.39.4.5.38a5.3,5.3,0,0,1-.43-.38q-.61-.61.6.75l.75,1.79a1.79,1.79,0,0,1-.17-.6l.27,2a1.84,1.84,0,0,1,0-.62l-.27,2a2.64,2.64,0,0,1,.17-.61l-.75,1.79c.14-.3.72-1.13-.07,0a2.19,2.19,0,0,1-.87.89c-.61.43-.68.5-.22.23l-1.79.76a6,6,0,0,1,1.18-.37l-2,.27a9.59,9.59,0,0,1,2.51,0l-2-.27c2.15.33,4.38.93,6.56.64,2.46-.32,4.33-.93,5.89-3a7.21,7.21,0,0,0,1.35-6.54l-.84-2.51-5.24,9.23a23.23,23.23,0,0,1,2.76-.55l-2,.27a22.18,22.18,0,0,1,5.15,0l-2-.26.93.14a8.12,8.12,0,0,0,5.78-.75,7.68,7.68,0,0,0,3.45-4.49c.82-3.63-1.1-8.52-5.24-9.22a29.66,29.66,0,0,0-12.82.39c-3.76,1-6.52,5.41-5.24,9.22l.84,2.51,7.23-9.5a9.4,9.4,0,0,1-2.31,0l2,.27c-3.25-.47-6.33-1.2-9.57-.2A10.71,10.71,0,0,0,93,111.35a9.55,9.55,0,0,0,2.55,6.85A22.38,22.38,0,0,0,98.94,121a30.62,30.62,0,0,0,7.26,4.17,16.81,16.81,0,0,0,8.54,1,17.39,17.39,0,0,0,8.66-4.07c4.75-3.79,8.36-9.74,6.37-15.93l.27,2,0-.31-.27,2,.06-.28-.75,1.79c-1.45,2.49-3.05,2.44-1.57,1.81l-1.8.76a10.94,10.94,0,0,1,1.95-.5l-2,.26a11.41,11.41,0,0,1,2.8,0l-2-.27a11.77,11.77,0,0,1,2.32.65l-1.79-.76c.37.17.72.35,1.08.55l7.57-13-3.38-1.75-3.79,14h4.92c3.92,0,7.68-3.45,7.5-7.5a7.63,7.63,0,0,0-7.5-7.5Z"/><path class="cls-3" d="M103.35,98.14c-6.22-.09-12.29.28-18,3A19.64,19.64,0,0,0,78.46,107c-.33.44-.68.86-1,1.31-.56.77,1-1.15.34-.44-.4.45-.79.88-1.22,1.3-.75.72.53-.53.66-.5-.08,0-.52.35-.61.4a12.37,12.37,0,0,1-1.62.83l1.79-.75a14.84,14.84,0,0,1-3.2.86l2-.27a16,16,0,0,1-4.09,0l2,.27a14,14,0,0,1-3.12-.81l1.79.76c-.22-.1-.89-.6-1.13-.58,1,.8,1.18,1,.62.48a4.31,4.31,0,0,1-.37-.37c-.55-.5,1.13,1.7.33.4a8.8,8.8,0,0,1-.57-1.1l.76,1.79a14.37,14.37,0,0,1-.84-3.15l.27,2a13.16,13.16,0,0,1-.16-3.13l-.27,2a3.43,3.43,0,0,1,.24-.83l-.76,1.79-2.2,2.13-1.8.75.23-.08-2,.27.26,0-2-.27.35.11-1.79-.76c-1.8-1.18-.79-.58-.31-.16.26.23.52.45.79.66a26.55,26.55,0,0,0,3,2.23,15.06,15.06,0,0,0,7,2.09,8.3,8.3,0,0,0,8.79-8c.13-1.74.12-3.5.16-5.24l-9.49,7.23A58.66,58.66,0,0,0,89.7,112a7.93,7.93,0,0,0,5.3-2.19,7.67,7.67,0,0,0,2.2-5.31c-.17-3.84-3.31-7.78-7.5-7.5a53.07,53.07,0,0,1-10.39-.32l2,.26a54,54,0,0,1-6-1.19,7.61,7.61,0,0,0-9.5,7.24c0,1.74,0,3.51-.16,5.24l1-3.78-.13.26L69.2,102l-.26.15,3.79-1a5.15,5.15,0,0,1-1.11,0l2,.27a8.18,8.18,0,0,1-1.9-.5l1.79.75a10.88,10.88,0,0,1-1.08-.54c-.24-.14-1.63-1.15-.59-.35s-.13-.13-.35-.33a16.71,16.71,0,0,0-2.41-2,8.48,8.48,0,0,0-12.12,4,12.81,12.81,0,0,0-.72,6.85,20.44,20.44,0,0,0,2.25,7.74c2.83,5.11,8.22,7.19,13.76,7.66a19.91,19.91,0,0,0,12.42-3.1A19.23,19.23,0,0,0,88,119c.73-.81,1.38-1.71,2-2.58l.41-.54c.57-.77-1,1.12-.33.44.38-.39.71-.79,1.12-1.16,1.16-1-1.11.7-.13.09a19.12,19.12,0,0,1,2.79-1.49l-1.8.76a22.49,22.49,0,0,1,5.28-1.34l-2,.27a59.31,59.31,0,0,1,8-.26c3.92.06,7.68-3.49,7.5-7.5a7.66,7.66,0,0,0-7.5-7.5Z"/><path class="cls-3" d="M67.47,95.34a18.64,18.64,0,0,0-7.31-1.24,23.15,23.15,0,0,0-8.58,2.12l1.79-.75a5.82,5.82,0,0,1-1.08.32l2-.27a3.44,3.44,0,0,1-.85,0l2,.27a13.58,13.58,0,0,0-6.7.29,45.88,45.88,0,0,0-5,2.25c-2.15,1.1-3.92,2.81-6.09,3.85l1.8-.76a6.34,6.34,0,0,1-1.43.41l2-.27a5,5,0,0,1-1.1,0l2,.27a3.19,3.19,0,0,1-.67-.19l1.79.76c-.21-.09-.41-.2-.62-.3-1-.52,1.14,1,.57.41s.84,1.4.5.67c-.12-.27-.3-.52-.43-.79l.76,1.79a7.84,7.84,0,0,1-.48-1.83l.27,2a11.37,11.37,0,0,1,.06-2.26l-.26,2a20.56,20.56,0,0,1,1.31-4.61l-.75,1.8a4.13,4.13,0,0,1,.36-.65,3.26,3.26,0,0,1-1.24,1.38c-1.15.86.06,0,.38-.09l-1.79.76a8.2,8.2,0,0,1,1.67-.43l-2,.27a14.63,14.63,0,0,1,3.24,0l-2-.27a24.3,24.3,0,0,1,6,1.72l-1.79-.76c1.66.71,3.27,1.52,4.87,2.35,3.49,1.79,8.3,1,10.26-2.69,1.82-3.44,1-8.35-2.69-10.26s-7.75-4-12-4.73C40.83,87,34.76,87.26,31.13,92a17.74,17.74,0,0,0-3,6.72,17.12,17.12,0,0,0-.11,8.76c1.87,6.17,7.83,10.26,14.29,8.77,2.41-.56,4.29-2,6.26-3.37a31.85,31.85,0,0,1,5.69-3l-1.79.76a7.14,7.14,0,0,1,1.64-.46l-2,.27a3.44,3.44,0,0,1,.85,0l-2-.27a13.32,13.32,0,0,0,5.26.09A18.4,18.4,0,0,0,59.51,109l-1.8.75a15,15,0,0,1,2.93-.81l-2,.27a14.38,14.38,0,0,1,3.47,0l-2-.27a14.34,14.34,0,0,1,3.36.88,7.5,7.5,0,0,0,5.78-.76A7.51,7.51,0,0,0,72,98.78a8.69,8.69,0,0,0-4.48-3.44Z"/><path class="cls-3" d="M31.09,96.47a4.58,4.58,0,0,1,.75.19l-1.79-.76a4.37,4.37,0,0,1,.89.51l-1.52-1.17.2.17,7.3-12.54a52,52,0,0,0-7.5-2.69,15.55,15.55,0,0,0-7.18,0c-1.16.29-2.2.91-3.4,1.09l2-.27a4,4,0,0,1-.85,0l2,.27a2.9,2.9,0,0,1-.48-.14l1.79.75a3,3,0,0,1-.55-.31l1.52,1.18a4.11,4.11,0,0,1-.58-.6l1.17,1.52a5.52,5.52,0,0,1-.42-.75l.75,1.79a8.19,8.19,0,0,1-.48-1.76l.27,2a8,8,0,0,1-.07-1.83l-.27,2a2,2,0,0,1,.17-.59l-.75,1.8.14-.24L23,87.54a2.34,2.34,0,0,1,.38-.39l-1.52,1.17a5,5,0,0,1,.87-.5L21,88.58a4.5,4.5,0,0,1,.89-.24l-2,.27a4.92,4.92,0,0,1,1.15,0l-2-.26a5.43,5.43,0,0,1,1.12.29l-1.79-.75a5.82,5.82,0,0,1,1,.58L17.8,87.29a4.43,4.43,0,0,1,.64.66l9.09-11.78L27.32,76l1.51,1.18a11.19,11.19,0,0,1-1.7-1.74L28.3,77a10.82,10.82,0,0,1-1.22-2.11l.75,1.79q-.2-.49-.36-1A7.85,7.85,0,0,0,24,71.14a7.5,7.5,0,0,0-11,8.47,17.07,17.07,0,0,0,2.19,4.7A20.55,20.55,0,0,0,20,89.12a7.45,7.45,0,0,0,5.78.76,7.76,7.76,0,0,0,3.89-2.69,7.08,7.08,0,0,0,1.61-4.54l-.26-2a7.55,7.55,0,0,0-1.93-3.31,11.06,11.06,0,0,0-5.16-3.25,12,12,0,0,0-6-.21,10.14,10.14,0,0,0-5.44,3.06,9.86,9.86,0,0,0-2.48,7.6c.39,3.95,1.78,8.06,5.5,10.09a10.87,10.87,0,0,0,8,1c1.19-.29,2.26-.91,3.47-1.11l-2,.27a8.22,8.22,0,0,1,1.92,0l-2-.26c2.8.46,5.49,1.79,8.13,2.8l2,.27A5.61,5.61,0,0,0,37.81,97a7.19,7.19,0,0,0,3.59-3.07,9,9,0,0,0,1-3.79,7.48,7.48,0,0,0-2.19-5.3A11,11,0,0,0,35.08,82a8.12,8.12,0,0,0-5.78.75,7.7,7.7,0,0,0-3.45,4.48A7.62,7.62,0,0,0,26.61,93a7.31,7.31,0,0,0,4.48,3.45Z"/><path class="cls-3" d="M11.08,70.25l.5,1.11,13-7.58A16.56,16.56,0,0,0,20.89,59a13.06,13.06,0,0,0-4.59-2.63,17.77,17.77,0,0,0-3.84-.47l2,.27-.21-.06,1.79.75-.2-.13,1.52,1.18a2.11,2.11,0,0,1-.31-.36L18.21,59a13.52,13.52,0,0,1-1.44-2.43l.76,1.79A8.71,8.71,0,0,1,17,56.45l.27,2a6.22,6.22,0,0,1,0-1.43L17,59a6,6,0,0,1,.32-1.23l-.76,1.8a5.78,5.78,0,0,1,.63-1.11L16,60a5.11,5.11,0,0,1,.72-.75L15.16,60.4a4.34,4.34,0,0,1,.88-.52l-1.8.75a3.78,3.78,0,0,1,.8-.21l-2,.26a2.26,2.26,0,0,1,.52,0l-2-.27.24.09L10,59.74l.15.1L8.66,58.67l.12.13L7.61,57.28a1.32,1.32,0,0,1,.18.33L7,55.82c.87,2.32,1.64,4.51,3.62,6.16a12.63,12.63,0,0,0,4.65,2.63,8.7,8.7,0,0,0,7-.71,8.13,8.13,0,0,0,3.53-4.62,9.06,9.06,0,0,0,0-4.42c-.18-.85-.41-1.68-.62-2.52a10.76,10.76,0,0,0-2.5-4.74A8.2,8.2,0,0,0,19,45.38a9.1,9.1,0,0,0-4.49,0l4,14.46,1.13-.42a8.1,8.1,0,0,0,4.49-3.45,7.51,7.51,0,0,0-2.69-10.26,7.39,7.39,0,0,0-5.78-.75l-1.14.42a8.08,8.08,0,0,0-4.48,3.45,7.49,7.49,0,0,0,2.69,10.26,8.16,8.16,0,0,0,5.78.75l.17,0-2,.27h.17l-2-.27.16.05-1.79-.75.14.09L11.87,58a1.6,1.6,0,0,1,.25.27L11,56.76a3.6,3.6,0,0,1,.29.55l-.76-1.79a24.66,24.66,0,0,1,.86,3.41l-.26-2v.18l.27-2,0,.17.75-1.79-.08.14L14.69,51l-.16.08,1.79-.75-.18,0,2-.26-.19,0,2,.27a5.35,5.35,0,0,1-1-.29l1.79.75a5.17,5.17,0,0,1-.93-.55l1.52,1.17a5,5,0,0,1-.77-.76l1.17,1.51a4.84,4.84,0,0,1-.55-.93L21.88,53c-.15-.38-.24-.77-.38-1.15a8.7,8.7,0,0,0-11.15-5.7,12,12,0,0,0-7.69,8.06c-1.07,3.47-.24,7,1.27,10.22a17,17,0,0,0,2.5,3.72,8.13,8.13,0,0,0,4,2.48,18.66,18.66,0,0,0,3.15.3l-2-.26a4.11,4.11,0,0,1,.93.25l-1.79-.76a5.27,5.27,0,0,1,1.05.62l-1.51-1.17a7.22,7.22,0,0,1,1.07,1.07l-1.18-1.52a17.64,17.64,0,0,1,1.4,2.22,7.53,7.53,0,0,0,10.27,2.69,7.56,7.56,0,0,0,3.44-4.49l.27-2a7.53,7.53,0,0,0-1-3.79L24,62.68a7.49,7.49,0,0,0-4.48-3.44,7.63,7.63,0,0,0-5.78.75,7.54,7.54,0,0,0-3.44,4.48l-.27,2a7.4,7.4,0,0,0,1,3.78Z"/><path class="cls-3" d="M33.14,41.75a15.08,15.08,0,0,1,0-2.77l-.27,2a6.54,6.54,0,0,1,.33-1.32l-.76,1.79a5.68,5.68,0,0,1,.67-1.14L32,41.83a8,8,0,0,1,.93-.91L31.36,42.1a16.41,16.41,0,0,1,3.46-1.9L33,41a21.86,21.86,0,0,1,5.2-1.4l-2,.27.3,0-3.79-14a37.72,37.72,0,0,0-5.67,4.42,31.52,31.52,0,0,0-4.86,5.39c-2.07,2.87-2.91,6.43-5.07,9.25l1.17-1.52-.17.21A8.16,8.16,0,0,0,16,48.87a7.63,7.63,0,0,0,2.2,5.3,7.55,7.55,0,0,0,5.3,2.2c1.86-.09,4.08-.68,5.31-2.2a29.26,29.26,0,0,0,3.88-6.25,27.27,27.27,0,0,1,2.79-5.08l-1.17,1.52a34.57,34.57,0,0,1,6.12-5.78l-1.52,1.17a14.4,14.4,0,0,1,1.46-1,7.6,7.6,0,0,0,3.45-8.46A8.83,8.83,0,0,0,41.84,27a7.38,7.38,0,0,0-5.3-2.2c-4.24.54-8.46,1.53-12.1,3.9a13.4,13.4,0,0,0-5.69,7,15.43,15.43,0,0,0-.61,6.08,8,8,0,0,0,2.2,5.31,7.52,7.52,0,0,0,10.61,0,7.49,7.49,0,0,0,2.19-5.31Z"/><path class="cls-3" d="M39.75,42.53l.2-.26-1.17,1.51a18.13,18.13,0,0,1,2.63-2.32c1-.77,1.8-1.67,2.75-2.43L42.65,40.2a13.86,13.86,0,0,1,2.64-1.46l-1.79.76c1.84-.77,3.75-1.42,5.52-2.36a22.55,22.55,0,0,0,4.75-3.55A46,46,0,0,0,60,25.51c2.18-3.27.75-8.44-2.69-10.26a7.68,7.68,0,0,0-10.26,2.69c-.85,1.28-1.7,2.54-2.63,3.76l1.18-1.52a22,22,0,0,1-3.82,3.95L43.34,23a16,16,0,0,1-3.42,1.94l1.79-.76c-1.54.64-3.1,1.22-4.61,1.93A17.49,17.49,0,0,0,32.88,29c-.86.78-1.69,1.56-2.6,2.28A18.22,18.22,0,0,0,26.8,35c-1.1,1.44-1.22,4.13-.76,5.78A7.52,7.52,0,0,0,35.27,46l1.79-.76a7.54,7.54,0,0,0,2.69-2.69Z"/><path class="cls-3" d="M52.44,35a17.23,17.23,0,0,0,5.57-.8c3.61-1.2,6.7-4.1,6.57-8.2-.11-3.6-1.78-6.94-3.4-10.06l.75,1.79-.06-.26v4l.06-.24L60,24.56l.21-.17-3.3,1.93a33.75,33.75,0,0,1,4.18-1.08l-2,.27a6.18,6.18,0,0,1,1.36,0l-2-.27a5.79,5.79,0,0,1,1.23.36l-1.79-.76a3.65,3.65,0,0,1,.54.32L56.94,24a3.88,3.88,0,0,1,.64.64l-1.17-1.51a2.35,2.35,0,0,1,.29.54l1.17-9.09c-3.71,3.48-5.17,10.34-.72,13.9L56,27l.15.24-1-3.79,0,.26,2.19-5.3-.14.18C56,20.11,54.9,21.74,55,23.85a7.79,7.79,0,0,0,1.61,4.54c2.39,3.1,6.26,3.58,9.68,1.93a29.86,29.86,0,0,0,6.35-4.42l-1.52,1.17.29-.16-1.79.75.33-.06-2,.26c.57,0,1.15,0,1.72.05L63.19,16.62l-.74,1.3A7.55,7.55,0,0,0,63,26.25a7.46,7.46,0,0,0,7.89,2.69A45.6,45.6,0,0,0,79.64,25c3.37-2,4.9-6.84,2.69-10.26a7.62,7.62,0,0,0-10.26-2.69,39.57,39.57,0,0,1-4.15,2.13l1.79-.76c-.92.39-1.84.74-2.78,1.05l8.47,11,.75-1.3a7.58,7.58,0,0,0-6.48-11.28,10.41,10.41,0,0,0-5.84,1,33.71,33.71,0,0,0-3.28,2.57l1.52-1.18a20.57,20.57,0,0,1-3.36,2l9.08,11.78a8.93,8.93,0,0,0,2.08-3.49A8.53,8.53,0,0,0,70,22.4a7.67,7.67,0,0,0-2.63-4.88L68.51,19l-.15-.22.76,1.79,0-.23.27,2,0-.23-.27,2a6.17,6.17,0,0,1,.3-.95L68.66,25a5.18,5.18,0,0,1,.53-.84L68,25.65a4.08,4.08,0,0,1,.46-.47,7.15,7.15,0,0,0,2.06-4.31,8.17,8.17,0,0,0-.89-4.78c-1.16-2.58-3.93-4.41-6.56-5.18a14,14,0,0,0-7.56.21l-2.34.65a8.16,8.16,0,0,0-5.73,5.49c-1,3.45.69,5.76,2,8.66l-.76-1.79a16.89,16.89,0,0,1,1.16,3.74l-.26-2v.33l.27-2-.11.29,1.93-3.31-.26.23,1.52-1.17-.32.15,1.79-.76a11.8,11.8,0,0,1-2.34.59l2-.27a12.4,12.4,0,0,1-1.61.08c-3.92-.06-7.68,3.49-7.5,7.5a7.63,7.63,0,0,0,7.5,7.5Z"/><path class="cls-3" d="M78,22.92a90.64,90.64,0,0,0,10.27-1l1.79-.76a5.58,5.58,0,0,0,2.1-1.93,7.11,7.11,0,0,0,1.61-4.55,8.78,8.78,0,0,0-1-3.78,7.56,7.56,0,0,0-4.48-3.45,16.94,16.94,0,0,1-3.13-.89l1.79.75c-.19-.09-.39-.18-.58-.29V20l.29-.12-1.79.76A9.66,9.66,0,0,1,87,20l-2,.27a9.93,9.93,0,0,1,2.18,0l-2-.27a39,39,0,0,1,5.5,1.54l2-14.73C88.45,6.69,84.9,9,81.18,10.62L83,9.87a57.43,57.43,0,0,1-6.76,2.34A7.52,7.52,0,0,0,71,21.44a7.66,7.66,0,0,0,9.23,5.24c4.45-1.18,8.94-2.67,13.5-3.32l-2,.27a30.4,30.4,0,0,1,4.67-.25,7.56,7.56,0,0,0,7.5-7.5,7.64,7.64,0,0,0-7.5-7.5c-6.9-.16-13.57,2.08-20.17,3.83l4,14.47a59,59,0,0,0,6-2c2.43-1,4.76-2.15,7.15-3.19l-1.79.76a9.71,9.71,0,0,1,2.16-.63l-2,.27a7.7,7.7,0,0,1,1,0,7.51,7.51,0,0,0,2-14.73,40.17,40.17,0,0,0-6.49-1.68A16,16,0,0,0,78.79,7c-2.34,1-3.71,4.09-3.71,6.48A7.48,7.48,0,0,0,78.79,20a20.86,20.86,0,0,0,5.5,1.95V7.43l-1.07.16,2-.27q-3.58.48-7.2.6a7.85,7.85,0,0,0-5.3,2.2,7.48,7.48,0,0,0,0,10.6,7.61,7.61,0,0,0,5.3,2.2Z"/><path class="cls-3" d="M105.33,24.25a15.19,15.19,0,0,0,5.82-1.91,12.54,12.54,0,0,0,2.66-2.15,27.78,27.78,0,0,0,2-3l-2.69,2.69.23-.15-1.79.75.26-.05h-4l.24.09-4.48-3.45a8.53,8.53,0,0,1,.49.95,14.41,14.41,0,0,0,1.52,2,8,8,0,0,0,7.17,2.72,7.63,7.63,0,0,0,6.59-6.7c.14-1.11,0-2.13.06-3.23l-.27,2a1.91,1.91,0,0,1,.12-.47l-.75,1.79.12-.19-1.17,1.52.18-.14-3.31,1.93.3-.08h-4l.32,0-1.8-.75a1.47,1.47,0,0,1,.57.33l-1.52-1.17a3,3,0,0,1,.46.49l-1.17-1.51c1.51,2,2.68,4.09,5,5.32a9.07,9.07,0,0,0,12-3,9.37,9.37,0,0,0,1-8,12.75,12.75,0,0,0-5.7-6.56l-3.79,14a34.77,34.77,0,0,1,4.21,0l-2-.27a6.93,6.93,0,0,1,1,.24l-1.79-.75a4.32,4.32,0,0,1,.82.44l-1.52-1.17a2.67,2.67,0,0,1,.46.43l-1.18-1.52a2.18,2.18,0,0,1,.33.52l-.76-1.79a2.23,2.23,0,0,1,.19.67l-.27-2a2.73,2.73,0,0,1,0,.7l.27-2a9.65,9.65,0,0,1-.44,1.76,7.45,7.45,0,0,0,1.92,7.3,7.79,7.79,0,0,0,7.3,1.92l1.59-.29a7.54,7.54,0,0,0,4.48-3.44A7.5,7.5,0,0,0,128,8.88a8.49,8.49,0,0,0-5.78-.75l-1.59.29,9.23,9.23a12.2,12.2,0,0,0,.44-6.45A9.9,9.9,0,0,0,125.73,5c-3-1.81-6.35-1.7-9.68-1.65-3.17,0-6.5,2.28-7.23,5.5a7.76,7.76,0,0,0,3.45,8.47c.35.23.7.45,1,.7l-1.52-1.17a6,6,0,0,1,.89.85l-1.17-1.51a2.51,2.51,0,0,1,.32.52l-.75-1.79a2.73,2.73,0,0,1,.2.69l-.27-2a2.66,2.66,0,0,1,0,.49l.26-2a2.81,2.81,0,0,1-.18.69l.76-1.79a1.67,1.67,0,0,1-.25.38l1.17-1.52-.16.16,1.52-1.17a1.25,1.25,0,0,1-.41.22l1.8-.75-.29.07,2-.27h-.29l2,.26a1.82,1.82,0,0,1-.57-.13l1.79.75a2.78,2.78,0,0,1-.53-.3l1.52,1.17a5,5,0,0,1-.66-.64l1.17,1.52a28.85,28.85,0,0,0-2.54-3.47,8.81,8.81,0,0,0-8.57-2.51,8.43,8.43,0,0,0-5.79,6,18.77,18.77,0,0,0-.22,4.35l.27-2-.07.21L106.67,10l-.15.13,5.31-2.2-.24,0,3.78,1-.21-.16L116.68,10a3.8,3.8,0,0,1-.42-.47L117.43,11c-.33-.46-.54-1-.84-1.47a7.83,7.83,0,0,0-7.71-3.67,8.15,8.15,0,0,0-6,3.79A16.46,16.46,0,0,1,102,11.1l1.18-1.51a6.35,6.35,0,0,1-.65.62L104.08,9a6.58,6.58,0,0,1-1.31.76L104.56,9a14.76,14.76,0,0,1-3.22.74c-1.73.26-3.64,2-4.48,3.45A7.68,7.68,0,0,0,96.1,19a7.6,7.6,0,0,0,3.45,4.48l1.79.76a7.71,7.71,0,0,0,4,0Z"/><path class="cls-3" d="M129.59,22.47c3.09,1.28,6.88.28,9.41-1.67a9.88,9.88,0,0,0,3.12-4.11A13.54,13.54,0,0,0,143,12.3l-1,3.78.08-.19-1.17,1.52.14-.13-1.51,1.17c.25-.14.52-.25.78-.37l-1.79.76A19.21,19.21,0,0,1,143,17.59l-2,.27a19.15,19.15,0,0,1,5,0l-2-.27a13.79,13.79,0,0,1,3.29.82l-1.79-.75a6.1,6.1,0,0,1,1,.55L144.86,17a5.39,5.39,0,0,1,.59.58l3.31-12.53q-4.86,1.46-9.84,2.45A7.51,7.51,0,0,0,134.44,11a7.75,7.75,0,0,0-.89,4.79,7.08,7.08,0,0,0,2.07,4.3,7.3,7.3,0,0,0,5.3,2.2,10.83,10.83,0,0,1,2.13,0l-2-.27.7.11a8.07,8.07,0,0,0,5.78-.76,7.49,7.49,0,0,0,2.69-10.26,7.3,7.3,0,0,0-4.48-3.44,17.75,17.75,0,0,0-4.82-.38l2,14.73a100.1,100.1,0,0,0,9.83-2.45A7.61,7.61,0,0,0,158,14.29,7.74,7.74,0,0,0,156.05,7a12.47,12.47,0,0,0-6.84-3.67A25.49,25.49,0,0,0,135.43,4a13.5,13.5,0,0,0-5,2.66A8.7,8.7,0,0,0,128,13l.27-2a4.54,4.54,0,0,1-.19.81l.75-1.79a3.9,3.9,0,0,1-.42.71l1.17-1.52a1.8,1.8,0,0,1-.39.39l1.52-1.17a3.94,3.94,0,0,1-.72.41l1.79-.75a3.18,3.18,0,0,1-.53.14l2-.27a3.84,3.84,0,0,1-.83,0l2,.27a3.21,3.21,0,0,1-.8-.24c-1.66-.69-4.29-.11-5.77.76A7.5,7.5,0,0,0,125.1,19l1.18,1.52a7.5,7.5,0,0,0,3.31,1.93Z"/><path class="cls-3" d="M151.1,23.66a33.26,33.26,0,0,0,11.38-1.39,88.17,88.17,0,0,1,9.71-2.52l-2,.27a13,13,0,0,1,3.12,0l-2-.27a12.36,12.36,0,0,1,2.38.66l-1.79-.75a28.2,28.2,0,0,1,4.71,2.71l1.79-13.7a24.51,24.51,0,0,1-3.2.65l2-.27a50.16,50.16,0,0,1-11.74-.4,7.5,7.5,0,0,0-5.3,2.2,7.5,7.5,0,0,0,0,10.61,8.69,8.69,0,0,0,5.3,2.19c5.68.66,11.36,1,16.94-.52a7.51,7.51,0,0,0,5.37-6.24,7.62,7.62,0,0,0-3.58-7.47,28.81,28.81,0,0,0-7.27-3.75,19.54,19.54,0,0,0-9.61-.22c-4.64.85-9,2.75-13.71,3.4l2-.27a21.83,21.83,0,0,1-4.5.1,7.49,7.49,0,0,0-5.3,2.2,7.63,7.63,0,0,0-2.2,5.3c.2,4.35,3.3,7.13,7.5,7.5Z"/><path class="cls-3" d="M181.59,26.05a21.4,21.4,0,0,0,8.51-.12c1.78-.34,3.51-.86,5.3-1.11l-2,.27a13.05,13.05,0,0,1,3.42,0l-2-.27a32.45,32.45,0,0,1,4.92,1.31,7.57,7.57,0,0,0,8.47-3.45A7.68,7.68,0,0,0,207,13.63a13.24,13.24,0,0,0-4-2.82l-5.78,13.71.33.13-1.79-.75a8.06,8.06,0,0,1,1.48.91l-1.52-1.18a18.2,18.2,0,0,1,3,3l-1.17-1.52a7.77,7.77,0,0,1,.53.87l-.76-1.79a2.69,2.69,0,0,1,.19.61l-.27-2a1.84,1.84,0,0,1,0,.62l.27-2-.08.31.75-1.79a1.72,1.72,0,0,1-.25.46l1.18-1.52a2.45,2.45,0,0,1-.36.36l1.51-1.17a3.89,3.89,0,0,1-.69.4l1.8-.76a9.46,9.46,0,0,1-1.94.47l2-.26a3.43,3.43,0,0,1-.64,0l2,.27a1.71,1.71,0,0,1-.63-.15l1.79.76c-1.25-.65-2.29-1.58-3.61-2.17-1.79-.8-3.63-1.47-5.45-2.22l1.79.76a17,17,0,0,1-2.14-1.06c-3.4-2-8.37-.89-10.27,2.69A7.65,7.65,0,0,0,187,27.11a59.82,59.82,0,0,0,7.13,3.07l-1.79-.76a14.53,14.53,0,0,1,2.7,1.43,10.55,10.55,0,0,0,4.8,2,11.74,11.74,0,0,0,10.52-4.09A9.32,9.32,0,0,0,212,20.8a12.82,12.82,0,0,0-3.09-5.32,21.12,21.12,0,0,0-2.11-2.12,19.09,19.09,0,0,0-5.53-3.31,7.42,7.42,0,0,0-5.78.76,7.81,7.81,0,0,0-3.07,3.58,7.17,7.17,0,0,0-.37,4.89c.55,1.72,1.7,3.73,3.44,4.48a8.63,8.63,0,0,1,1.72,1l-1.52-1.18c.26.21.5.43.74.66l7.29-12.53c-3.06-1-6.33-1.93-9.59-1.69s-6.16,1.23-9.29,1.66l2-.27a11.89,11.89,0,0,1-2.53,0l2,.27q-.36,0-.72-.12a8,8,0,0,0-5.78.76,7.49,7.49,0,0,0-2.69,10.26,7.41,7.41,0,0,0,4.48,3.45Z"/><path class="cls-3" d="M210,39.55l3.12.05a7.49,7.49,0,0,0,7.37-6.5,7.23,7.23,0,0,0-.89-4.79,7.39,7.39,0,0,0-4.48-3.44,37.18,37.18,0,0,1-5.39-1.42l-2,14.73.54,0-2-.27c1.85.25,3.57,1,5.38,1.39a19.22,19.22,0,0,0,4.47.51,27.48,27.48,0,0,1,3,0l-2-.27a6.66,6.66,0,0,1,1.33.34l-1.79-.76a9.41,9.41,0,0,1,2,1.21l-1.52-1.17a6.55,6.55,0,0,1,.56.49l-1.17-1.52.14.19L216,36.58a1.33,1.33,0,0,1,.14.44l-.27-2a28.21,28.21,0,0,1-.09,4.11,7.5,7.5,0,0,0,12.8,5.31,8.29,8.29,0,0,0,2.2-5.31,31.34,31.34,0,0,0,.09-4.11,8.8,8.8,0,0,0-2.64-6.1,21.92,21.92,0,0,0-2.77-2.1,13.76,13.76,0,0,0-6.84-2c-1.34-.06-2.66.14-4,0l2,.27a24,24,0,0,1-3.55-.91,24.3,24.3,0,0,0-5.29-1,7.47,7.47,0,0,0-5.31,2.2,7.78,7.78,0,0,0-2.06,4.3,7.19,7.19,0,0,0,.89,4.78,8.25,8.25,0,0,0,4.48,3.45,37.18,37.18,0,0,0,5.39,1.42l2-14.73L210,24.55a7.68,7.68,0,0,0-5.3,2.2,7.48,7.48,0,0,0,0,10.6,7.88,7.88,0,0,0,5.3,2.2Z"/><path class="cls-4" d="M130.36,39.43c-.07,3.16-.18,6.33-.21,9.49,0,4.19,1.4,8.61,5.33,10.71l5.78-13.71L140,45.58c-3.78-1-8.33,1.29-9.23,5.24A7.69,7.69,0,0,0,136,60.05a23.67,23.67,0,0,0,19.84-2.41,67.78,67.78,0,0,0,7-5.37l.77-.63c.23-.18,1.21-.94.18-.15s0,0,.19-.13l.64-.46a22.64,22.64,0,0,1,3.49-2l-1.79.76a22.49,22.49,0,0,1,5.76-1.53l-2,.27a39.52,39.52,0,0,1,9.9.23l-2-.26a14.9,14.9,0,0,1,3.23.77l-1.79-.75a7.36,7.36,0,0,1,.75.36c.21.11,1.26.87.22.07s.31.35.57.61c.43.44.84.9,1.24,1.38a2.66,2.66,0,0,1,.53.64c-.15-.43-1-1.36-.28-.35a32.46,32.46,0,0,1,3.59,6.37l-.75-1.79c.89,2.18,1.45,4.33,3.43,5.86,2.33,1.8,5.18,1.9,8,1.45,3.46-.56,6.35-3,8.25-5.84a16.72,16.72,0,0,0,2.37-9A15.36,15.36,0,0,0,205,39.36c-3.41-4.8-9.4-7.17-14.66-9.37A71,71,0,0,0,177,25.92a131,131,0,0,0-15.53-2.05c-2.36-.18-4.72-.32-7.08-.44a43.69,43.69,0,0,0-7.84-.05c-7.38,1-11.28,9.42-9.11,16.15a13.09,13.09,0,0,0,6.23,7.8,12.73,12.73,0,0,0,9.94.93,11.34,11.34,0,0,0,5.91-4.51,9,9,0,0,0,.16-9.16c-1.67-2.86-5.15-4.66-7.8-6.54S147,24.31,144,23.34c-4.06-1.32-8.06.14-11.7,1.91s-4.77,7-2.69,10.26a7.68,7.68,0,0,0,10.26,2.69c.53-.25,1-.5,1.58-.72l-1.79.75a11.55,11.55,0,0,1,2.06-.6l-2,.26a8.71,8.71,0,0,1,1.25,0l-2-.27a6.35,6.35,0,0,1,1.6.45l-1.79-.76a40.32,40.32,0,0,1,5.32,3.59l2.8,2c.4.28.79.58,1.19.85.75.54.54.37-.61-.49-.75-1.18-1-1.43-.64-.76l-.76-1.8.06.34-.27-2,0,.33.27-2-.12.32.76-1.79a4.72,4.72,0,0,1,1.71-1.64,4.65,4.65,0,0,1-.63.32l1.79-.75a8.54,8.54,0,0,1-1,.29l2-.27a6.73,6.73,0,0,1-1.42,0l2,.27a7.26,7.26,0,0,1-1.39-.35l1.79.75c-.27-.12-.53-.29-.8-.4-.66-.28,1.47,1.25.54.39-.75-.7.56.55.51.69,0,0-.47-.89-.49-1l.75,1.79a7.78,7.78,0,0,1-.45-1.72l.27,2a7.65,7.65,0,0,1,0-1.79l-.26,2a6.38,6.38,0,0,1,.38-1.34L151.29,37c.14-.3,1-1.56.13-.41-.47.56-.51.64-.13.26-1.11.78-1.33,1-.67.63l-1.8.76a3,3,0,0,1,.72-.22l-2,.27a31.06,31.06,0,0,1,5.19.11c1.81.08,3.62.17,5.43.28,3.61.22,7.22.54,10.8,1l-2-.27a77,77,0,0,1,19.39,5.08l-1.79-.76c2,.88,4.07,1.84,6,2.92.85.46,1.66,1,2.48,1.47.47.33.22.13-.76-.6a6.75,6.75,0,0,1,.54.53c-.75-1.06-.91-1.26-.46-.59a6.1,6.1,0,0,1,.37.72L192,46.36a9.05,9.05,0,0,1,.53,2l-.27-2a14.27,14.27,0,0,1,0,3.75l.27-2a10.85,10.85,0,0,1-.54,2l.76-1.79a10,10,0,0,1-.45.93c-.34.58-1,1,.37-.42-.73.77.56-.49.68-.44l-1,.55,1.79-.76a6.65,6.65,0,0,1-1.39.38l2-.27a6.38,6.38,0,0,1-1.07,0l2,.26-.35-.07,5.24,5.23a42.47,42.47,0,0,0-6.9-12.48c-3-3.79-6.75-6.56-11.63-7.27a47.62,47.62,0,0,0-14.74-.11,26.15,26.15,0,0,0-11.47,5.06c-2,1.55-4,3.17-6,4.8-.6.49.78-.65.74-.57s-.48.36-.64.47c-.42.31-.86.61-1.3.9A20.37,20.37,0,0,1,145.88,46l1.79-.75a17,17,0,0,1-4.09,1.13l2-.27a17.69,17.69,0,0,1-4.24,0l2,.26a17.06,17.06,0,0,1-3.3-.79l-4,14.47,1.23.33a7.51,7.51,0,0,0,5.78-13.7c-.66-.37-.39-.16.78.63.81,1.16,1,1.41.7.75l.75,1.79a6.85,6.85,0,0,1-.32-1.26l.27,2a37.17,37.17,0,0,1,0-5.17l.13-6a7.57,7.57,0,0,0-7.5-7.5,7.66,7.66,0,0,0-7.5,7.5Z"/><path class="cls-4" d="M197.1,71.11a40.52,40.52,0,0,0,2.15-3.93,5,5,0,0,0-.94-5.59l-.91-.7c-1.27-.56-1.43-.61-.46-.16l1.62,1.61-.08-.17.61,2.27-.1.8-1.16,2-1.4.79.26-.05a2.5,2.5,0,0,0,.53-.11,7.82,7.82,0,0,0,1.95-.84,9.13,9.13,0,0,0,2.89-2.88,10.49,10.49,0,0,0,1-7.91,21.62,21.62,0,0,0-2.9-6.33c-1.32-2.12-2.7-4.24-4.93-5.5a4.5,4.5,0,1,0-4.54,7.77c.61.35-.12,0-.11-.17,0,.06.41.38.47.44a5.8,5.8,0,0,0,.42.49c-.33-.44-.41-.52-.21-.25l.18.27c.53.81,1.05,1.63,1.53,2.47.29.49.57,1,.82,1.49a4.83,4.83,0,0,1,.33.69c-.11-.37-.18-.49,0,0,.07.23.52,1.22.38,1.42.07-.11,0-.81,0-.11,0,.18-.17,1.08,0,.49s-.07,0-.09.17c-.07.47.41-.68.13-.3-.09.12-.46.64,0,.14s0,0-.1.07c-.28.39.67-.4.26-.19s.87-.2.33-.11a8.92,8.92,0,0,0-1.16.28,5.29,5.29,0,0,0-3.71,4.83,4.89,4.89,0,0,0,3.85,4.87l-2.69-2.06.12.17L190.76,65l.3-1.44-.29.51-.48.85-1,1.7a4.5,4.5,0,0,0,7.78,4.54Z"/><path class="cls-4" d="M132.85,23.51l-.33,0,1.19.16a2.41,2.41,0,0,1-.58-.17l1.07.46a2.87,2.87,0,0,1-.48-.28l.91.7a3,3,0,0,1-.43-.44l-.1-.11-.06-.06-.91-.7a3.83,3.83,0,0,0-.79-.38c-.61-.25-1.23-.49-1.85-.72a3.55,3.55,0,0,0-1.8-.08,3.34,3.34,0,0,0-1.67.54,3.38,3.38,0,0,0-1.27,1.16,3.42,3.42,0,0,0-.8,1.53l-.16,1.19a4.52,4.52,0,0,0,.61,2.27l.71.91a4.43,4.43,0,0,0,2,1.16l1.32.49-1.08-.45a1.28,1.28,0,0,1,.25.15l-.91-.71c.16.15.28.33.43.47l.13.11c.31.26.66.54,1,.77a2.26,2.26,0,0,0,.26.16,11.57,11.57,0,0,0,1.3.56l.29.1a7,7,0,0,0,1.77.23,3.22,3.22,0,0,0,1.73-.39A4.05,4.05,0,0,0,137,29.75a3.47,3.47,0,0,0,.39-1.74l-.16-1.19a4.41,4.41,0,0,0-1.16-2l-.91-.7a4.43,4.43,0,0,0-2.27-.62Z"/><path class="cls-5" d="M190.27,70.79c-1.05-4.89-1.65-10.56-4.56-14.77-3.68-5.33-11.12-8.57-17.44-6.17a33.49,33.49,0,0,0-7,4.21c-2,1.42-4.13,2.79-6.3,4-1,.56-2.06,1.1-3.11,1.58a7.17,7.17,0,0,1-.8.35c1.31-.42.53-.22.23-.11-.68.25-1.35.5-2,.72a26.89,26.89,0,0,1-3.41.83,9.28,9.28,0,0,1-.92.15c1.38-.08.51-.07.21,0-.78.06-1.55.13-2.33.17-1.4.06-2.81.08-4.21.08-.78,0-1.56,0-2.34,0l-.93-.05c-1.16,0,.68.21,0,0a11,11,0,0,0-1.13-.29c-1-.19.84.47.26.13a7.18,7.18,0,0,0-1.4-.85c.61.06.89.77.38.24a6.25,6.25,0,0,0-.75-.79c.15.1.75,1.17.29.33-.17-.32-.36-.62-.53-.95a6,6,0,0,0-8.21-2.15A6.15,6.15,0,0,0,122,65.62a14.94,14.94,0,0,0,5.83,6.07,18.37,18.37,0,0,0,9.06,2.1c5.47.07,11.1-.1,16.31-1.89a57.1,57.1,0,0,0,13.71-7.23c1-.66,1.9-1.34,2.85-2,.47-.33.94-.66,1.42-1,.24-.15.5-.28.74-.43.93-.56-.75.17-.08,0,.27-.07.56-.15.83-.24.77-.25-1,0-.24.06.29,0,.62,0,.91,0,.84,0-1-.3-.24,0,.28.11.58.15.86.23s1.06.19.22,0-.08,0,.2.11c.07,0,.87.43.86.52s-.94-.86-.27-.21a6,6,0,0,0,.82.85c-.16-.07-.73-1.16-.24-.28.15.29.33.55.48.84l.1.17c.22.47.22.47,0,0s-.19-.48,0,0l.13.37c.22.63.41,1.26.57,1.91.72,2.73,1.23,5.52,1.83,8.29a6,6,0,0,0,7.38,4.19,6.14,6.14,0,0,0,4.19-7.38Z"/><path class="cls-5" d="M131.64,57.73c-.17-.33-.33-.67-.5-1-.33-.65.37,1.06,0,0-.24-.71-.48-1.42-.68-2.15-.41-1.45-.72-2.93-1-4.4-.08-.37-.15-.73-.22-1.1,0-.15-.05-.29-.08-.44q-.1-.69.06.48c-.28-.45,0-1.77,0-2.3.12-1.52.38-3,.35-4.53-.14-6.95-3.14-15.71-10.18-18.3V35.53l.85-.3c3-1,5.24-4.15,4.2-7.38s-4-4.72-7.39-4.19c-1.57.25,1.33-.11-.26.05l-1.17.11c-.85.07-1.71.12-2.57.13a40.47,40.47,0,0,1-5.16-.29,6,6,0,0,0-4.24,1.76,6.13,6.13,0,0,0-1.76,4.24,6.05,6.05,0,0,0,1.76,4.24,7,7,0,0,0,4.24,1.76,44.07,44.07,0,0,0,12.35-.43L117,23.66l-.85.3c-2.42.84-4.52,3.05-4.4,5.78a6.28,6.28,0,0,0,4.4,5.79l-.75-.31c.41.27.41.26,0,0-.73-.42.14.44-.29-.27s.08.13.2.31.3.48.44.73a11.27,11.27,0,0,0,1,1.9c-.23-.24-.37-1-.13-.25.11.34.24.67.34,1,.18.61.34,1.23.46,1.86,0,.2.25,1.44.1.46s0,.08,0,.27a21.35,21.35,0,0,1-.14,4.15,27.86,27.86,0,0,0,.8,9.31,36.39,36.39,0,0,0,3.13,9.13,6.05,6.05,0,0,0,8.21,2.15,6.14,6.14,0,0,0,2.15-8.21Z"/><path class="cls-5" d="M105.5,23.55a19.77,19.77,0,0,0-10.1,1c-.67.22-1.35.45-2,.64-.34.1-.68.18-1,.26l-.42.08c-.43.08-.27.07.49,0a39.4,39.4,0,0,0-4.37.24c-6.53.46-12.8,2.21-19,4.1-3,.91-5.2,4.24-4.19,7.38a6.1,6.1,0,0,0,7.38,4.19c2.75-.83,5.5-1.66,8.29-2.35,1.39-.34,2.79-.65,4.19-.9l1.18-.2.47-.07L85.9,38A6.64,6.64,0,0,1,88,37.74c3.08-.21,6.14-.24,9.13-1.15,1.22-.37,2.42-.82,3.65-1.15l.81-.2c1.05-.23.29.12-.17,0a3.71,3.71,0,0,0,.81,0c.44,0,1.62.25,0-.05,3.08.58,6.62-.85,7.38-4.19.67-2.95-.89-6.76-4.19-7.38Z"/><path class="cls-5" d="M33.61,49.77c-3.31,2.57-6.23,5.5-7.58,9.59a20.21,20.21,0,0,0-.7,6.76,12.16,12.16,0,0,0,2.29,7.39,8.8,8.8,0,0,0,8.83,3.35,8.7,8.7,0,0,0,6.15-5.77,13.36,13.36,0,0,0,.61-5.33c0-.67,0-1.34,0-2-.17,1-.18,1.25,0,.63l.1-.3a3.2,3.2,0,0,1-1,1.61c.43-.42.27-.3-.49.38l-8.21-2.16.39.79s.61,1.34.25.49.05.16.1.31c.12.35.2.7.3,1,.29,1,0-.32,0-.32s0,1.6,0,.47c0-.78,0-.12-.1.1-.23.68.6-1.48.12-.4-.33.74.13-.38.36-.43-.11,0-.38.37-.46.46-.67.72.75-.38.29-.24a2.75,2.75,0,0,0-.58.32c-.54.36,1.32-.36.35-.18a2.29,2.29,0,0,0-.65.16c.31-.24,1.5,0,.44-.1-.27,0-.55,0-.83,0-4.28-.45-7.82,5.54-5.18,9a16.67,16.67,0,0,0,6.37,5.38,37,37,0,0,0,7.08,2.34,6.09,6.09,0,0,0,7.6-5.78l.28-4.48c0-.31-.09-1.59.12-1.79l-.12,1c.13-.44.09-.39-.13.15-.75,1.14-1.09,1.95-2.77,2.39l-7.59-5.78a10.32,10.32,0,0,0,0,1.11c.15-.92.18-1.15.1-.68a4.71,4.71,0,0,1-.12.54c-.08.31-.19.59-.28.89s-.08.23.24-.58a4.53,4.53,0,0,1-.27.48c-.06.12-.53.66-.5.78.53-.67.65-.83.35-.5a4.83,4.83,0,0,1-.38.4c-.77.83,1.07-.67.05,0-.44.29-.86.61-1.29.94-5.36,4.14-2.87,12.16,3.07,14.17a13.42,13.42,0,0,0,7,.27c3.07-.7,4.94-2.93,6-5.8a19,19,0,0,0,.87-5c-.12,1.82-.1.7,0,.24s.16-.64.23-1c.22-1-.72,1.17-.1.27l-.57.7a3.33,3.33,0,0,1,.46-.46l-9.43-1.21c-.72-1.64,0,0,.06.38s.12.81.25,1.14c-.11-1-.13-1.1-.07-.44a5.63,5.63,0,0,1,0,.58c0,.46,0,.91,0,1.36,0,1.27.3-1.19,0-.06-.13.5-.27,1-.4,1.5-.3,1.11.62-1.08,0,0-.26.45-.5.9-.78,1.34a6,6,0,0,0,2.15,8.21A6.13,6.13,0,0,0,54,86.26a18.3,18.3,0,0,0,1-17.91,5.63,5.63,0,0,0-4.39-2.86,6,6,0,0,0-5,1.65C43,69.45,42.42,72.61,42,75.84l-.09.69c0-.44.22-1.37,0-.39a7.63,7.63,0,0,0-.39,1.47l.32-.81L44.42,75c.61-.2,1-.11.1-.07-.28,0-.58,0-.86,0s-.28,0,.17,0,.51.08,0,0a3.5,3.5,0,0,1,2.24,2.4c.35,1.42-.13,2.11-1,3.25-1.33,1.82-1.13,1.42-.42.93a16.54,16.54,0,0,0,4-3.94,14.15,14.15,0,0,0,2.59-8.75A6.09,6.09,0,0,0,43.67,63c-6.42,1.71-5.86,9.07-6.19,14.31l7.59-5.79c-.84-.19-1.67-.4-2.51-.63-.41-.12-.83-.24-1.24-.38a5.26,5.26,0,0,0-1.22-.44c.87.38,1,.43.43.17l-.33-.16c-.42-.22-.82-.48-1.24-.72-.94-.56.91.91.09.06-.28-.3-1.35-1.55-.26-.11l-5.18,9a12.47,12.47,0,0,0,11.44-5.88C48,67.72,46.3,62.4,44,57.86c-1.47-2.88-5.55-3.74-8.21-2.15-3.45,2-4.75,5.87-4.58,9.72,0,.54.08,1.07.07,1.6,0,.16,0,.32,0,.48,0,.49,0,.22.12-.79a2.36,2.36,0,0,0-.13.61c-.16,1,.63-1.2.13-.35a3.91,3.91,0,0,1,1.36-1.38,3.83,3.83,0,0,1,3.78,0c-.82-.4.32.35.56.61s.31.42.15.15-.14-.2.22.53c0,0-.35-1.55-.13-.38.19,1,0-.26,0-.41,0-.35,0-.69,0-1s0-.74,0-1.11c0-.21.16-1.48,0-.54s.12-.44.14-.51.42-1.3.09-.37.13-.14.22-.3l.21-.32c.29-.42.28-.43,0,0s-.31.4,0,0l.25-.3c.22-.24.45-.47.68-.7a36.69,36.69,0,0,1,3.17-2.67A6,6,0,0,0,43.86,54a6.12,6.12,0,0,0-1.76-4.24A6,6,0,0,0,37.86,48a7,7,0,0,0-4.25,1.76Z"/><path class="cls-5" d="M37.39,53.39A11.41,11.41,0,0,1,38.78,52c.3-.23.7-.38,1-.63.62-.56.26.49-.82-.26L37.86,50c.19.28.22.3.09,0,.13.33.26.66.41,1a3.85,3.85,0,0,0,1.36,1.5,3.64,3.64,0,0,0,4.37-.48,3.94,3.94,0,0,0,1-4A5.16,5.16,0,0,0,44,46.15c-.16-.17-.33-.34-.51-.5-.48-.56-.42-.28.19.83L43.24,48q-.69.67.09.21l.82-.36,1.65-.72c1-.43,1.89-.88,2.8-1.4,1.77-1,3.28-2.44,5.17-3.26a41.6,41.6,0,0,1,5.37-1.64c.93-.26,1.85-.53,2.76-.86.63-.23,1.24-.51,1.87-.76a2.92,2.92,0,0,1,.49-.19c.66-.12.55-.2-.32-.23L62.86,37.7l-.12-.23v-1.6c-.05.38-.36,1-.46,1.62A3.69,3.69,0,0,0,62.7,40a3.58,3.58,0,0,0,4.78,1.23c2.64-1.21,1.4-5.92-1.52-5.59-5.51.62-10.76,1.51-15.71,4.17A28.22,28.22,0,0,0,39.4,50.05c-2,3.32,3.19,6.34,5.18,3A22.26,22.26,0,0,1,53.28,45c3.93-2.11,8.27-2.86,12.68-3.35l-1.51-5.59-.22.1,2.31-.3-.24-.07,1.32.77-.2-.18.77,1.32C68,39,68,39.06,68.4,38l.09-.26a4,4,0,0,0,0-1.88,3.63,3.63,0,0,0-1.89-2.45c-2-1.07-4-.14-6,.61-3.13,1.23-6.48,1.74-9.57,3.09a23.66,23.66,0,0,0-4.06,2.47,28,28,0,0,1-4.7,2.53c-1.8.8-4,1.41-4.6,3.56a3.88,3.88,0,0,0,.44,2.92,6.27,6.27,0,0,0,.89,1.16c.13.13.25.26.39.38.45.52.38.3-.2-.65L39.69,48l.52-.49,1.52-.41h-.27l1.52.41q1.07,1.7.66.72c-.13-.33-.27-.66-.43-1A4.05,4.05,0,0,0,42,45.92a4.31,4.31,0,0,0-3.7-.43,11.91,11.91,0,0,0-5.12,3.66,3.08,3.08,0,0,0,0,4.24,3,3,0,0,0,4.24,0Z"/><path class="cls-5" d="M111.09,33.19a29.24,29.24,0,0,1-6.74.2l2.79.37a11.42,11.42,0,0,1-2.75-.74l2.5,1.06A10.19,10.19,0,0,1,105,33l2.12,1.64a9.3,9.3,0,0,1-1.26-1.25l1.64,2.12a7.25,7.25,0,0,1-.89-1.49l1.06,2.51a7,7,0,0,1-.37-1.34l.38,2.79,0-.35L97.18,48.1a2,2,0,0,1,.59,0L95,47.73a1.93,1.93,0,0,1,.53.17L93,46.84a2.17,2.17,0,0,1,.47.32l-2.12-1.65a3.32,3.32,0,0,1,.41.43l-1.64-2.12a6.27,6.27,0,0,1,.63,1.1l-1.06-2.51A7.77,7.77,0,0,1,90.11,44l-.38-2.79a17.59,17.59,0,0,1,0,4.35l.37-2.79A18,18,0,0,1,89,46.93L90,44.42a17.71,17.71,0,0,1-2.2,3.76l1.65-2.13-.51.61h14.85l-.21-.26,1.64,2.13a2.85,2.85,0,0,1-.31-.6l1,2.51a2.83,2.83,0,0,1-.17-.65l.38,2.79a3.72,3.72,0,0,1,0-1l-.38,2.79a2.8,2.8,0,0,1,.2-.64l-1,2.51.15-.3L85.94,47.85a9.92,9.92,0,0,1-.58,2.2l1.06-2.51a12,12,0,0,1-1.33,2.31l1.64-2.12a15,15,0,0,1-2.45,2.46l2.13-1.64a21.89,21.89,0,0,1-4.47,2.53L84.45,50c-3.5,1.47-7.16,2.57-10.75,3.79A31,31,0,0,0,67,56.55a15,15,0,0,0-4.83,4.8A26.66,26.66,0,0,0,60.15,66l1.06-2.5a18.33,18.33,0,0,1-2.14,3.72l1.64-2.12a18.16,18.16,0,0,1-3,3l2.12-1.64c-.42.31-.84.61-1.28.89-3.79,2.43-6.29,7.34-4.83,11.86a10.94,10.94,0,0,0,10.13,7.71,70.75,70.75,0,0,0,26.9-4,86.39,86.39,0,0,0,13.42-6,93.54,93.54,0,0,0,12.21-8.51l-2.12,1.65a7.19,7.19,0,0,1,1-.67l-2.51,1.06a2.13,2.13,0,0,1,.78-.19l-2.79.37h.35l-2.79-.38a2.11,2.11,0,0,1,.65.19l-2.51-1.06a3.21,3.21,0,0,1,.59.36l-2.13-1.64a5.51,5.51,0,0,1,.75.78L104,66.76a11.35,11.35,0,0,1,1.11,2.06l-1.06-2.51c1.18,2.92,2,5.92,3.4,8.75a21.76,21.76,0,0,0,7,7.68C119,86,124.75,87,130.15,87.57a78.57,78.57,0,0,0,13.46,0A89.48,89.48,0,0,0,159.88,85a64.09,64.09,0,0,0,16.91-7.13,10.94,10.94,0,0,0,4.82-6.28,10.5,10.5,0,0,0-15.42-11.86,80.19,80.19,0,0,1-8.75,4.37L160,63.08a113.34,113.34,0,0,1-28.87,7.47l2.79-.38c-16.89,2.25-34,2.1-51,3A79.9,79.9,0,0,1,68.59,73l2.79.37c-1.1-.15-2.19-.33-3.27-.56A11.19,11.19,0,0,0,60,73.91a10.51,10.51,0,0,0-3.76,14.37,10.45,10.45,0,0,0,6.27,4.82c8,1.68,16,1.36,24.14.89,7.44-.43,14.9-.62,22.34-.91,14.93-.6,30.07-1.67,44.54-5.63a98.22,98.22,0,0,0,23.25-9.54l-10.6-18.14a52.94,52.94,0,0,1-6.78,3.49l2.5-1.06a63.93,63.93,0,0,1-16,4.24l2.8-.37a76.61,76.61,0,0,1-20,.33l2.79.38a25.4,25.4,0,0,1-5.82-1.49l2.51,1.06A15.4,15.4,0,0,1,125,64.51l2.13,1.64a12.26,12.26,0,0,1-1.92-1.89l1.64,2.13a13.5,13.5,0,0,1-1.56-2.68l1.06,2.51c-.59-1.41-1-2.88-1.54-4.32a23.25,23.25,0,0,0-4.37-8,12.63,12.63,0,0,0-11-4.08,12.39,12.39,0,0,0-5.4,1.85c-1.33.87-2.53,2-3.78,2.93L102.31,53a72.51,72.51,0,0,1-16,9.35l2.51-1.06a67,67,0,0,1-16.55,4.59l2.79-.37a61.76,61.76,0,0,1-11.29.48l5.3,19.56a25.83,25.83,0,0,0,6.32-5.42,31.85,31.85,0,0,0,3-4.24,43.08,43.08,0,0,0,2.23-5.07l-1.06,2.5a7.51,7.51,0,0,1,.81-1.5l-1.64,2.12a6.25,6.25,0,0,1,.79-.75l-2.13,1.65a9.62,9.62,0,0,1,1.29-.72l-2.51,1.06c5.62-2.31,11.54-3.7,17.07-6.27a24.48,24.48,0,0,0,7.5-5.39c2.51-2.75,4.79-6.29,5.35-10,.42-2.77.55-5.59-1.06-8.09a10.85,10.85,0,0,0-5-4.3c-4.63-1.95-10.62-.33-13.11,4.3a13.71,13.71,0,0,0-1.81,7.24,13,13,0,0,0,1.6,6,18,18,0,0,0,2.17,3c1.51,1.89,5.09,3.18,7.43,3.08,2.65-.12,5.64-1,7.42-3.08a30.6,30.6,0,0,0,5.4-9,26.27,26.27,0,0,0,1.65-8.37,19.52,19.52,0,0,0-2-10c-2.17-4.15-6.8-7.4-11.63-7.07a10.92,10.92,0,0,0-7.42,3.07c-1.78,1.94-3.35,4.7-3.08,7.43.31,3.07.88,5.92,2.72,8.48a18.37,18.37,0,0,0,6.73,6.05c4.78,2.33,9.76,2.65,15,2.06,2.87-.33,5.3-1,7.42-3.08a10.49,10.49,0,0,0,0-14.85c-1.92-1.76-4.72-3.38-7.42-3.07Z"/><path class="cls-5" d="M66.62,78.43c-.07-.31-.12-.63-.16-.94l.37,2.79c-.06-.46-.1-.92-.12-1.39a7.81,7.81,0,0,0-.9-4,7.91,7.91,0,0,0-2.17-3.38,7.79,7.79,0,0,0-3.38-2.17,7.94,7.94,0,0,0-4-.91l-2.79.38a10.49,10.49,0,0,0-4.63,2.7l-1.64,2.12a10.52,10.52,0,0,0-1.44,5.3c0,.4,0,.8.1,1.19.16,1.31.3,2.63.56,3.93a7.9,7.9,0,0,0,1.88,3.57,8,8,0,0,0,2.94,2.7,7.79,7.79,0,0,0,3.91,1.25,7.93,7.93,0,0,0,4.18-.19l2.51-1.06a10.61,10.61,0,0,0,3.77-3.76L66.62,84a10.57,10.57,0,0,0,0-5.58Z"/><path class="cls-5" d="M85.36,41.25a10.52,10.52,0,0,1,2.38,0l-1.2-.16a10.63,10.63,0,0,1,1.93.46,3.3,3.3,0,0,0,1.79.08,3.23,3.23,0,0,0,1.67-.53A3.38,3.38,0,0,0,93.2,40a3.42,3.42,0,0,0,.8-1.53l.16-1.19A4.55,4.55,0,0,0,93.55,35l-.71-.91a4.5,4.5,0,0,0-2-1.15,14.67,14.67,0,0,0-3.28-.65,9.7,9.7,0,0,0-2.22,0,3.46,3.46,0,0,0-1.73.39A4,4,0,0,0,81.25,35a3.41,3.41,0,0,0-.39,1.73L81,38a4.5,4.5,0,0,0,1.15,2l.91.71a4.54,4.54,0,0,0,2.27.61Z"/><path class="cls-5" d="M77,95.68c14.56.55,29.14,1.39,43.71,1.56a144.72,144.72,0,0,0,22-1.57c1.56-.23,3.11-.49,4.65-.82q1.26-.27,2.52-.6L151,94l.9-.21c-.43.05-.38.06.15,0,3.55.12,6.94-1.35,10.27-2.41,3.91-1.26,7.84-2.39,11.27-4.72s6.69-4.71,10-7.06c1.92-1.35,3-4,1.62-6.15-1.23-1.91-4.1-3.07-6.16-1.62l-8.86,6.25a33.45,33.45,0,0,1-4,2.48c-1.27.65.7-.21-.64.27l-.88.32c-.89.31-1.79.59-2.69.88l-5.11,1.64c-.75.24-1.5.49-2.26.72l-.82.25c-.28.07-.55.14-.83.19.49-.06.46-.07-.09,0-3.44-.16-6.89,1.27-10.26,1.86-.86.15-1.71.28-2.57.4s1.07-.12-.44.06l-1.41.17q-2.66.3-5.34.54c-3.41.28-6.82.45-10.24.46-7.06,0-14.13-.39-21.18-.66L77,86.68a4.54,4.54,0,0,0-4.5,4.5,4.59,4.59,0,0,0,4.5,4.5Z"/><path d="M98.15,22.62A159.86,159.86,0,0,0,53.79,34.13C41.64,39.25,27.45,46.23,24,60.18c-1.6,6.39-.43,13,4,18a32.73,32.73,0,0,0,7.51,6,84.79,84.79,0,0,0,9.94,5.23c14.29,6.36,29.79,8.18,45.25,9.15,28.44,1.79,59.27,3.26,84.88-11.43a180.82,180.82,0,0,0,18.85-13,42.88,42.88,0,0,0,7.57-6.92,31.27,31.27,0,0,0,4.93-8.78c2.09-5.61,3-12.46,1.34-18.29-.85-3-3-4.82-5.48-6.51a56.24,56.24,0,0,0-8.8-4.86c-12.5-5.55-26.33-6.94-39.87-7.24-7.2-.17-14.4,0-21.6,0-7.61,0-15.22-.19-22.82.15q-5.76.25-11.48.91c-1.9.21-1.92,3.22,0,3,14.59-1.67,29.27-1,43.92-1.07,13-.11,26.21,0,38.91,3.07a63,63,0,0,1,17.84,7.14c2.35,1.42,5.44,3,6.35,5.78a20,20,0,0,1,.74,8c-.53,6.33-2.6,12.72-6.89,17.53a47.4,47.4,0,0,1-7.17,6.25c-2.93,2.18-5.87,4.35-8.87,6.44a94.24,94.24,0,0,1-18.93,10.59,96.9,96.9,0,0,1-19.43,5.32C131,97,117,96.9,103.17,96.27c-14.6-.66-29.5-1.24-43.68-5A84.93,84.93,0,0,1,39.6,83.17c-5.52-3.13-11.35-7-12.93-13.54-1.41-5.88.63-12.29,4.19-17,4-5.3,9.79-8.92,15.64-11.87A152.43,152.43,0,0,1,87.61,27.16q5.25-.94,10.54-1.54c1.9-.21,1.92-3.22,0-3Z"/><path d="M12.5,73.3c-5,4.69-6.07,13.11-2.05,18.76a14.88,14.88,0,0,0,18.34,4.58l-2.26-1.3c-.74,7.67-.94,18.2,7.32,22.12,8.46,4,16.46-2.5,22.27-8l-2.56-1.06a21.26,21.26,0,0,0,11.71,17.06,20.23,20.23,0,0,0,20.52-1.84A20.83,20.83,0,0,0,93.33,114a1.47,1.47,0,0,0-.39-1.46l-.46-.45a1.51,1.51,0,0,0-2.36,1.82,26.6,26.6,0,0,0,15.11,12.75c6.57,2.2,14.77,1.86,20.19-2.88a12.56,12.56,0,0,0,4.39-10.44l-2.56,1.06c3.15,2.77,6.36,5.53,10.31,7.08a20.54,20.54,0,0,0,27.3-14l-2.21.89c7.31,4.82,16.63,7.69,25.12,4.28,7.51-3,12.81-11.15,10.25-19.29l-1,1.85c3.78-.58,7.33,2.37,10.94,3a11.07,11.07,0,0,0,9.84-3.26c6.44-6.41,4.52-15.89,1.52-23.46l-.39,1.46.4-.44-1.06.44c6.62.1,14.53-.09,19.24-5.51a13.82,13.82,0,0,0,.19-17.95,14.13,14.13,0,0,0-9.82-4.81l1.06,2.56c4.89-4.64,5.49-12.86,1.6-18.32-4.1-5.73-12-7.79-18.55-5.53l1.9,1.45a16.85,16.85,0,0,0-9-15.69A16.93,16.93,0,0,0,186.6,11.4l2.36.3A19.32,19.32,0,0,0,175.13,3c-6.42-.9-12.88,1.16-18.23,4.65a1.56,1.56,0,0,0-.54,2.06l.27.61,2.59-1.51A20.16,20.16,0,0,0,144.49.07a19.91,19.91,0,0,0-16.21,6.44h2.12a21,21,0,0,0-30.72,3.81L102,10A22,22,0,0,0,84.52,3.65a22.28,22.28,0,0,0-15.78,9.24l2.05-.54A19.25,19.25,0,0,0,41.17,25.5l2.21-.9c-3.23-2.05-7.39-1.64-11-1.08a23.21,23.21,0,0,0-10.08,3.9c-5.46,4-8.5,11.67-4.92,17.91l1.7-2.2A16.58,16.58,0,0,0,2.25,50.54c-3.65,5.68-2.65,12.87,1.46,18a15.6,15.6,0,0,0,9.23,5.66l-1-1,.22,1.6c.26,1.9,3.15,1.09,2.89-.8l-.22-1.59a1.45,1.45,0,0,0-1-1.05c-6.64-1.23-11.89-8.17-10.63-15A13.42,13.42,0,0,1,18.28,46,1.52,1.52,0,0,0,20,43.82c-2.89-5,0-11.28,4.49-14.26a21.38,21.38,0,0,1,8.32-3.08c2.89-.49,6.49-.94,9.08.71a1.51,1.51,0,0,0,2.21-.89,16.77,16.77,0,0,1,8.82-12.39,16.59,16.59,0,0,1,16.39,1,1.53,1.53,0,0,0,2-.54,18.7,18.7,0,0,1,28.58-2.27,1.53,1.53,0,0,0,2.36-.3,18.26,18.26,0,0,1,26-3.2,1.54,1.54,0,0,0,2.12,0,16.63,16.63,0,0,1,26.23,1.64,1.5,1.5,0,0,0,2.59-1.51L159,8.14l-.54,2.06c4.69-3.07,10.28-5,15.94-4.35a16.38,16.38,0,0,1,12,7.36,1.53,1.53,0,0,0,2.36.31,13.46,13.46,0,0,1,22.12,11.29,1.52,1.52,0,0,0,1.9,1.45c5.24-1.82,11.76-.48,15.16,4.14a11.45,11.45,0,0,1-1.13,14.69,1.51,1.51,0,0,0,1.06,2.56,11,11,0,0,1,8.89,5.69,10.74,10.74,0,0,1-.18,10.19c-1.87,3.39-5.32,5.12-9,5.85a32.4,32.4,0,0,1-5.82.54c-1,0-2.08,0-3.12,0a2.19,2.19,0,0,0-1.85.87,1.5,1.5,0,0,0-.39,1.46c2.66,6.69,5,15.52-1.26,21-2.59,2.3-5.66,2.46-8.82,1.33-3.38-1.22-6.41-2.92-10.12-2.36a1.52,1.52,0,0,0-1.05,1.85c2.19,7-2.7,13.81-9.26,16-7.53,2.51-15.34-.18-21.7-4.38a1.52,1.52,0,0,0-2.21.9,17.7,17.7,0,0,1-13.06,12.79,17.9,17.9,0,0,1-10.34-.76c-3.52-1.35-6.4-3.93-9.18-6.39-.88-.77-2.7-.33-2.57,1.07a10.05,10.05,0,0,1-5.13,9.48,18,18,0,0,1-11.51,1.94,23.61,23.61,0,0,1-17.46-12.37l-2.35,1.82.46.45-.38-1.46a18.28,18.28,0,0,1-13.69,11c-6.17,1.16-12.31-1.58-16.24-6.34a17.35,17.35,0,0,1-3.95-9.49A1.52,1.52,0,0,0,54,107.33c-2.65,2.5-5.33,5-8.6,6.73-3.11,1.6-7.16,2.33-10.39.63-6.87-3.61-6.1-12.88-5.48-19.35.12-1.22-1.34-1.74-2.25-1.29a11.8,11.8,0,0,1-14.43-3.79,11.82,11.82,0,0,1,1.78-14.84C16,74.1,13.91,72,12.5,73.3Z"/><path d="M12.3,94.12c.14,11,4,21.37,8.81,31.12,2.39,4.88,4.94,9.71,7.64,14.43,2.56,4.47,5.52,8.86,9.64,12,4.38,3.38,9.85,5.26,15.38,4.19,1.89-.37,1.09-3.26-.8-2.9-10,1.94-17.28-7.24-21.63-14.84-5-8.74-9.9-17.82-13.06-27.39a55.26,55.26,0,0,1-3-16.65c0-1.93-3-1.93-3,0Z"/><path d="M37.39,118.19a115.29,115.29,0,0,0,11.79,27c2.31,4,4.7,8.09,8,11.39s7.42,5.39,11.76,7c4.85,1.79,10.53,4.21,15.73,2.67,1.85-.55,1.07-3.45-.79-2.9-4.26,1.26-8.94-.83-12.93-2.22s-8.18-3.26-11.35-6.36-5.31-6.79-7.47-10.49c-2.33-4-4.52-8.11-6.47-12.33a94.42,94.42,0,0,1-5.36-14.59,1.5,1.5,0,0,0-2.89.8Z"/><path d="M70.78,126.62c1.34,10.37,5,20.13,9.21,29.65,1.05,2.39,2.14,4.77,3.23,7.15,1,2.11,2,4.08,4.09,5.28,3.93,2.27,9.34,2.72,13.78,2.45a32.34,32.34,0,0,0,15-4.72c1.64-1,.13-3.61-1.52-2.59-7.13,4.4-16.75,5.92-24.69,2.79-2.18-.86-3.07-2.48-4-4.51s-2-4.34-3-6.52c-2-4.38-3.79-8.81-5.35-13.35a80,80,0,0,1-3.82-15.63c-.24-1.89-3.24-1.91-3,0Z"/><path d="M105.28,127.53a264.36,264.36,0,0,0,7.54,29.16c.73,2.28,1.44,4.58,2.3,6.82a8.49,8.49,0,0,0,3.47,4.57,12.45,12.45,0,0,0,5.69,1.39,49.81,49.81,0,0,0,6.69-.12c4.68-.41,9.58-2.15,11.88-6.56.89-1.71-1.7-3.23-2.6-1.51-1.83,3.51-5.79,4.79-9.51,5.09a53.82,53.82,0,0,1-6.09.11,9.07,9.07,0,0,1-4.69-1.09c-1.61-1-2.09-3-2.67-4.73q-1.08-3.18-2.09-6.37c-1.33-4.25-2.56-8.55-3.68-12.87q-1.87-7.29-3.34-14.68c-.38-1.9-3.27-1.1-2.9.79Z"/><path d="M143.86,122.4a338.16,338.16,0,0,0-1.93,36.27c0,1.39,0,2.78,0,4.17a4.41,4.41,0,0,0,.92,3.15c1.65,1.71,4.55.7,6.52.23a57,57,0,0,0,27.42-15.46c1.36-1.38-.76-3.5-2.12-2.12a54.41,54.41,0,0,1-23.15,13.91c-1,.3-2.09.58-3.14.83l-1.59.34c-.39.08-1.14.36-1.53.21-.61-.22-.34-1.7-.35-2.31,0-1.48,0-3,0-4.42,0-5.4.17-10.81.45-16.2q.48-9.31,1.48-18.6c.2-1.92-2.8-1.9-3,0Z"/><path d="M179.77,113.3c-1.63,9.53-3.45,19-4.88,28.59-.59,3.88-.41,8.74,3.46,11s8,.07,10.81-2.51A66.4,66.4,0,0,0,198.85,139c1.11-1.59-1.49-3.09-2.59-1.52a72.53,72.53,0,0,1-7.37,8.93c-2.12,2.18-5.48,5.56-8.85,3.93-3.58-1.73-2.37-7.05-1.86-10.07l2.08-12.11,2.4-14.05c.32-1.89-2.57-2.7-2.89-.8Z"/><path d="M233.83,68.27a254.73,254.73,0,0,0-12,30.26q-2.55,7.66-4.85,15.41c-1.47,4.91-2.79,10-5.64,14.3-2.64,4-6.84,8.13-12,7-1.89-.39-2.69,2.5-.8,2.89,10.7,2.22,17-9.68,19.75-18.09,3.5-10.84,6.59-21.77,10.59-32.45,2.27-6.06,4.74-12,7.55-17.85.83-1.74-1.75-3.26-2.59-1.52Z"/><path d="M208,97.43c-.77,7-3,13.73-4.89,20.48l-3,10.32a43,43,0,0,1-1.57,5,34.07,34.07,0,0,1-2.27,4.26,1.5,1.5,0,0,0,2.59,1.52c3.74-6.17,5.13-13.42,7.1-20.28,2-7,4.19-14,5-21.28.22-1.92-2.79-1.9-3,0Z"/><path d="M121.44,24.55c2.64,3,5.26,5.7,6.16,9.71s.86,8.58,1.12,12.8l.42,6.79c.11,1.84.12,3.82,1.23,5.39a9.08,9.08,0,0,0,4.39,2.87,23,23,0,0,0,5.49,1.31,23.53,23.53,0,0,0,11.15-1.33,32.82,32.82,0,0,0,9-5.65c2.56-2.11,5.08-4.37,8.11-5.8a11.57,11.57,0,0,1,9.86-.07c8.48,3.85,10.43,13.75,10,22.17-.1,1.93,2.9,1.92,3,0,.4-7.74-1-16.35-7.05-21.79a16.93,16.93,0,0,0-9.69-4.42,15.73,15.73,0,0,0-9.8,2.73c-3,1.88-5.5,4.31-8.27,6.44a22.46,22.46,0,0,1-10,4.61,20.6,20.6,0,0,1-11.33-1.25,6.23,6.23,0,0,1-2.1-1.22,4.31,4.31,0,0,1-.87-2.82c-.16-2.33-.29-4.66-.43-7-.29-4.75-.24-9.69-1.24-14.36s-3.94-7.81-7-11.24c-1.29-1.45-3.4.68-2.12,2.12Z"/><path d="M54.39,65.86c-2.66-1.58-5.61-3.3-7.34-6a7.5,7.5,0,0,1,.39-8.65c4.25-6.17,13.33-6.54,20-7.6,4.17-.66,8.35-1.5,12.54-2,1.76-.19,3.79-.24,5.19,1s.93,2.7-.3,3.87c-2.43,2.31-5.9,3.16-9.07,3.89a40.5,40.5,0,0,0-9.26,2.84c-2.95,1.48-5.67,3.86-6.58,7.14-.46,1.67-.15,3.66-1.57,4.91a3.55,3.55,0,0,1-4,.5c-1.71-.91-3.23,1.68-1.52,2.59A6.64,6.64,0,0,0,61.75,66c.93-1.71.64-3.68,1.38-5.44a8.59,8.59,0,0,1,3.41-3.73c6.38-4.09,15.75-2.56,21-8.63a5.25,5.25,0,0,0,1.28-5.3,6.5,6.5,0,0,0-3.89-3.72,13.44,13.44,0,0,0-6.67-.2c-2.49.38-5,.79-7.47,1.18-4.65.74-9.39,1.29-14,2.37-4,1-8,2.6-10.8,5.76s-4.14,7.59-2.37,11.65,5.66,6.44,9.23,8.56a1.5,1.5,0,0,0,1.52-2.59Z"/></g></g></svg>