<svg xmlns="http://www.w3.org/2000/svg" viewBox="0 0 244.77 174.47"><defs><style>.cls-1{fill:#1f0040;}.cls-2{fill:#d291ff;}</style></defs><title>Asset 5</title><g id="Layer_2" data-name="Layer 2"><g id="Layer_1-2" data-name="Layer 1"><path class="cls-1" d="M238.5,95.13c1.46,12.82,2.16,9.3,2.06,22.2,0,3.59.52,3.18-.38,7.45a5.7,5.7,0,0,1-3.44,4.12l-1.63.67L188,144.26l-50.18,17.4-31.62,8.11c-5.1,1.68-10.93.26-15.87-3.87-27.46-21.19-53.47-44-80.23-66.05L6,95.3C5.15,83.33,4.17,83,4.44,71c.19-8.33,1.17-17.72,7.7-22.89"/><path class="cls-2" d="M234.32,95.13c.6,5.1,1.77,10.2,2,15.34.18,4,1.89,13-2.32,15.06-5,2.44-11.27,3.52-16.58,5.17-11.62,3.63-23.34,7-34.84,11-15,5.2-29.93,10.76-45,15.62-5,1.61-10.21,2.69-15.29,4l-13,3.34c-3.21.82-6.58,2.08-9.9,1.31-5-1.16-9.16-5.45-13.09-8.55q-6.34-5-12.6-10.09c-8.34-6.77-16.6-13.65-24.83-20.56q-12-10.08-24-20.16c-5.52-4.62-11-9-15.86-14.28l1.23,3c-.5-7-1.58-14-1.56-21,0-8-.05-17.53,6.52-23.2,4.08-3.52-1.86-9.42-5.92-5.92-12,10.36-9.29,30.13-7.9,44.18.34,3.53-.05,6.88,2.38,9.66a52.11,52.11,0,0,0,6.24,6.1c8.74,7.23,17.42,14.54,26.11,21.85,17.28,14.53,34.43,29.47,52.6,42.9a21.64,21.64,0,0,0,19.2,3.83c4.06-1.07,8.13-2.08,12.19-3.12,6.69-1.72,13.58-3.1,20.14-5.28,8.87-2.93,17.67-6.12,26.49-9.18,14.13-4.9,28.23-9.59,42.51-14,9-2.81,18.18-5.28,27.06-8.44,7.13-2.54,8.77-8,8.56-15.1-.25-8-1.14-15.44-2.07-23.38-.62-5.29-9-5.35-8.37,0Z"/><path class="cls-1" d="M227.44,113.66l-59.67,19L110.3,152.34c-5.11,1.68-10.93.26-15.88-3.86L73.73,131.19l-20-16.67L36.92,102.09,17.62,84.33C3.75,72.74,4.42,48.26,18.75,43.53l26.94-8.89L74.13,24.29l35.43-10.74,26.33-8.69c5.11-1.69,10.93-.27,15.88,3.86l17.9,15,21.66,18.1,21.4,17.87,15.84,13.23C242.44,84.46,241.77,108.93,227.44,113.66Z"/><path class="cls-2" d="M226.33,109.63c-32.48,10.33-64.85,20.75-97.09,31.8-6.81,2.33-13.7,5.34-20.7,7-6.26,1.52-10.83-2.69-15.22-6.36l-13.13-11C67.63,120.66,55.12,110.35,42,100.63c-.67-.49-3.81-3-2.19-1.61-1.2-1.07-2.37-2.18-3.55-3.27L23.72,84.26c-3.64-3.36-7.31-6.5-9.48-11.1C11.33,67,10.59,58.93,14,52.8c2.22-4,5.77-5.19,9.8-6.52l16.33-5.39c7-2.32,14-4.86,20.94-7.39C77.17,27.62,93.57,22.91,110,17.8c7.94-2.47,15.81-5.2,23.71-7.81,5.59-1.84,10.18-2.14,15.27,1.81,3.74,2.9,7.28,6.08,10.91,9.11L195.9,51l18.72,15.63c8.94,7.47,19.14,14.16,19.75,27,.3,6.17-1.64,13.59-8,15.94-5,1.84-2.85,9.93,2.22,8.07,15.11-5.55,17-24.38,10.86-37.38C234.73,70.4,224.22,63.81,216,57L175.25,22.91c-6.44-5.38-12.85-10.81-19.33-16.15-5.68-4.68-12.28-8-19.85-6.29-4.3,1-8.52,2.74-12.71,4.12C106.67,10.1,89.68,14.69,73,20.25,55.77,26,38.8,32.51,21.52,38.21c-4.43,1.47-8.69,2.87-12,6.45-5,5.46-6.66,13.26-6,20.47C4.85,78.81,13.92,86.6,23.3,95.24A244.38,244.38,0,0,0,44,112.47c2.1,1.54,4.19,3.1,6.3,4.64.45.33.9.65,1.34,1-1.75-1.35,0,0,.3.3,4.3,3.68,8.69,7.26,13,10.89l19.63,16.4c8.42,7,16.59,14.07,28.35,10.16,18.61-6.19,37-12.9,55.67-19.07,17.69-5.87,35.53-11.31,53.28-17l6.67-2.12C233.66,116.07,231.48,108,226.33,109.63Z"/><path class="cls-2" d="M162.28,58.89c-5.41-2.7-14.65-5.28-19,.65-3.76,5.17-.74,11.06,2.72,15.4,4.55,5.71,9.46,8.91,16.86,9.22,3.18.14,10.91-1.67,10,3.49-.72,4.25-6.19,5.47-9.69,5.73-5.14.37-5.18,8.43,0,8.05,6.24-.44,12.7-2.47,16-8.24,2.68-4.64,2.64-11.13-1.8-14.65C171.7,74,163.81,78.16,157.66,75c-2.69-1.38-5.25-4.42-6.82-7-1.21-2-2-3,.31-3.92,1.92-.72,5.41.94,7.06,1.76,4.63,2.32,8.71-4.63,4.07-7Z"/><path class="cls-2" d="M59.19,58c21.73,22.93,46.68,42.65,67.44,66.53,3.41,3.93,9.08-1.79,5.7-5.69C111.57,95,86.62,75.28,64.88,52.34c-3.57-3.77-9.26,1.94-5.69,5.7Z"/><path class="cls-2" d="M94.07,45.24c.26,9.61,2.19,19,3.4,28.54.85,6.66-1.14,17.42,6.83,20.13,7.62,2.59,15.23,4.66,22.71,7.77,7.68,3.19,15.24,6.66,23,9.66,4.84,1.86,6.94-5.92,2.14-7.77-13.4-5.18-26.27-11.9-40.09-16-1.3-.39-3.35-.49-4.5-1.17-1.47-.87-1.15-1.85-1.23-3.6-.17-4-.64-8-1.18-11.92-1.16-8.55-2.79-17-3-25.68-.14-5.18-8.19-5.2-8.06,0Z"/></g></g></svg>