<svg xmlns="http://www.w3.org/2000/svg" viewBox="0 0 206.31 183.05"><defs><style>.cls-1{opacity:0.3;}.cls-2{fill:#353535;}.cls-3{fill:#2d1b08;}.cls-4{fill:#de9448;}</style></defs><title>Asset 25</title><g id="Layer_2" data-name="Layer 2"><g id="Layer_1-2" data-name="Layer 1"><g class="cls-1"><path class="cls-2" d="M12.64,160.39A7.34,7.34,0,0,0,4,157.84,6.9,6.9,0,0,0,.3,166.1a6.48,6.48,0,0,0,7.58,4.13C11.73,169.39,13,165.5,13,162c0-1.93-3-1.93-3,0s-.28,4.58-2.49,5.27a3.5,3.5,0,0,1-4.3-1.93c-1.58-4.24,4.3-6.75,6.85-3.39,1.15,1.51,3.76,0,2.59-1.52Z"/><path class="cls-2" d="M9.8,144.69A130.76,130.76,0,0,0,12,171.18c.35,1.89,3.24,1.09,2.9-.8a126.5,126.5,0,0,1-2.06-25.69c0-1.94-3-1.94-3,0Z"/><path class="cls-2" d="M20.38,157.14a27.76,27.76,0,0,0,7.43-.86c1.87-.47,1.08-3.37-.79-2.89a25.21,25.21,0,0,1-6.64.75c-1.93,0-1.93,3,0,3Z"/><path class="cls-2" d="M20.74,163.54l5.3-.64a1.55,1.55,0,0,0,1.5-1.5,1.5,1.5,0,0,0-1.5-1.5l-5.3.64a1.55,1.55,0,0,0-1.5,1.5,1.5,1.5,0,0,0,1.5,1.5Z"/><path class="cls-2" d="M18.85,155.59c.12,2.47.33,4.94.66,7.4.24,1.88.25,4.28,1.09,6,1.58,3.19,5.12,1.77,7.77.92,1.83-.58,1-3.48-.8-2.89a12.64,12.64,0,0,1-2.88.9c-1.81.07-1.68-1.65-1.93-3.22a84.27,84.27,0,0,1-.91-9.09c-.09-1.92-3.1-1.94-3,0Z"/><path class="cls-2" d="M41.56,154.53c-3.29-.35-10.9,2.3-8.56,7,1,2,3.53,1.95,5.48,2.08.5,0,3.08.11,2.91,1.12-.11.65-1.52.84-2,.91a5,5,0,0,1-4-.69c-1.56-1.15-3.06,1.46-1.52,2.59,2.89,2.11,11.4,1.83,10.45-3.33-.44-2.4-2.82-3.37-5-3.56-1.27-.11-4.78.28-2.9-1.68,1.28-1.33,3.44-1.58,5.15-1.4,1.92.2,1.91-2.8,0-3Z"/><path class="cls-2" d="M48.54,157.82a88.55,88.55,0,0,1,1.53,9.45c.2,1.9,3.2,1.92,3,0A93.44,93.44,0,0,0,51.43,157c-.41-1.88-3.3-1.09-2.89.8Z"/><path class="cls-2" d="M49.36,151.13a1.5,1.5,0,0,0,0-3,1.5,1.5,0,0,0,0,3Z"/><path class="cls-2" d="M65.88,156.78a6.56,6.56,0,0,0-7.36.46c-1.94,1.58-3.23,4.71-1.87,7s4.55,2.43,6.75,1.22a7.93,7.93,0,0,0,3.93-6.62c.09-1.93-2.91-1.93-3,0a4.89,4.89,0,0,1-1.41,3.25c-.84.84-2.93,2-3.67.51-.53-1.08.41-2.51,1.25-3.14a3.49,3.49,0,0,1,3.87-.13c1.69.93,3.2-1.66,1.51-2.59Z"/><path class="cls-2" d="M64.6,158.44a73,73,0,0,1,.17,12.1c-.2,2.23-.52,5.28-2,7.15-2.19,2.83-8.95,3.32-10.37-.76-.63-1.82-3.53-1-2.89.79,1.74,5,9.12,6.83,13.46,4,6.67-4.38,5.12-16.66,4.6-23.27-.16-1.91-3.16-1.93-3,0Z"/><path class="cls-2" d="M75,168.57c.08-3.64.27-7.27.59-10.9L73,158.73c3,3.58,4.67,8.1,7.79,11.64a1.52,1.52,0,0,0,2.12,0c1.23-1.41,1-2.94.81-4.7l-.63-7.77c-.15-1.91-3.15-1.93-3,0l.46,5.61c.06.77.79,4.11.24,4.73H83c-3.11-3.52-4.74-8.05-7.79-11.63-.92-1.08-2.46-.11-2.56,1.06-.32,3.63-.51,7.26-.59,10.9,0,1.93,3,1.93,3,0Z"/><path class="cls-2" d="M89.93,163c2.79-.22,9.85.61,7.76-4.09-1.49-3.35-5.75-5.86-9-3-5.82,5.16.56,18.91,8.3,13.83,1.61-1.05.11-3.65-1.51-2.59-3.16,2.07-5.6-1.64-5.91-4.45-.17-1.5-.13-3.3,1-4.38a2.37,2.37,0,0,1,3.37.36,15.34,15.34,0,0,1,1.12,1.8l1-1c-1.83.61-4.35.44-6.26.59s-1.93,3.15,0,3Z"/><path class="cls-2" d="M101.87,156.49a78.43,78.43,0,0,1,.35,13.27h3a38.2,38.2,0,0,1,.41-6.75c.39-2.58,2-3.12,4.26-3.6,1.89-.4,1.09-3.29-.8-2.9-2.25.48-4.67,1.23-5.76,3.45-1.34,2.73-1.21,6.86-1.11,9.8a1.5,1.5,0,0,0,3,0,78.43,78.43,0,0,0-.35-13.27c-.22-1.89-3.22-1.92-3,0Z"/><path class="cls-2" d="M124.57,155.2a114.78,114.78,0,0,1,1.07,21.6c-.08,1.93,2.92,1.93,3,0a119.76,119.76,0,0,0-1.17-22.39c-.28-1.91-3.17-1.1-2.9.79Z"/><path class="cls-2" d="M126.78,156.1a3.27,3.27,0,0,1,4,1.94,2.93,2.93,0,0,1-.46,2.35c-.38.55-1.54,1.57-2.24.93-1.43-1.29-3.56.82-2.13,2.13,3.47,3.15,8.06-1.2,7.91-5-.17-4.2-5-6.46-8.62-4.93-1.77.76-.24,3.34,1.52,2.59Z"/><path class="cls-2" d="M139.12,165.31a83.27,83.27,0,0,1,.78-9.86l-1,1.05c1-.22,3.87-.52,2.77,1.44-.63,1.11-2.33,1.38-3.45,1.65a1.52,1.52,0,0,0-.36,2.74l5.63,3.15c1.68.94,3.2-1.65,1.51-2.6l-5.62-3.14-.36,2.74c2.76-.67,6.12-2.17,5.88-5.58s-4.08-3.89-6.8-3.3a1.45,1.45,0,0,0-1.05,1.05,86.42,86.42,0,0,0-.89,10.66c0,1.93,3,1.93,3,0Z"/><path class="cls-2" d="M153.19,164.34c6.62-1.37,2.61-13.6-3-10.59-4.81,2.57-2.79,11.52,3,10.59,1.9-.31,1.09-3.2-.8-2.9-2.17.35-2.31-3.64-1.22-4.73,1.59-1.6,4.1,4.14,1.22,4.73C150.5,161.83,151.3,164.72,153.19,164.34Z"/><path class="cls-2" d="M161.93,168.88c-.06-3.35,0-6.7.27-10,.12-1.71-.23-3.42,1.5-4.37,1.37-.75,3.73-.83,5.26-1.18,1.88-.42,1.09-3.31-.8-2.89-2.62.59-7.67.44-8.48,3.57-1.2,4.6-.83,10.21-.75,14.91,0,1.93,3,1.94,3,0Z"/><path class="cls-2" d="M161,164.25l7-1.86a1.5,1.5,0,0,0-.8-2.89l-6.95,1.85a1.5,1.5,0,0,0,.79,2.9Z"/><path class="cls-2" d="M172.09,159.58a36.22,36.22,0,0,1,.68,7.2,1.5,1.5,0,0,0,3,0,39.82,39.82,0,0,0-.79-8c-.38-1.89-3.27-1.09-2.89.8Z"/><path class="cls-2" d="M174.26,155.86a1.5,1.5,0,0,0,0-3,1.5,1.5,0,0,0,0,3Z"/><path class="cls-2" d="M179,151.41l.86,7.53c.25,2.16,0,5.15.91,7.15,1.39,3.23,6.29,0,8.45-.79,1.8-.65,1-3.55-.8-2.89-1.1.4-4.84,2.3-5.68,2.12l1,1.05c-.86-2.05-.74-5-1-7.18l-.8-7c-.21-1.9-3.22-1.92-3,0Z"/><path class="cls-2" d="M195.94,159.64a26.42,26.42,0,0,0,7.46-.78,1.5,1.5,0,0,0,1-1.84c-1-2.47-2.42-5.35-5.45-5.46s-5.18,2.43-5.6,5.18c-.44,2.93.59,6.87,3.21,8.55,2.88,1.85,6.28.65,9-.93a1.5,1.5,0,0,0-1.51-2.59c-1.39.82-3,1.72-4.66,1.4-1.9-.36-2.67-2.13-3-3.87-.29-1.53-.16-3.75,1.49-4.51,2.06-.94,3.08,1.57,3.65,3l1.05-1.85a23.42,23.42,0,0,1-6.67.67c-1.93-.07-1.93,2.93,0,3Z"/></g><path class="cls-3" d="M182.9,67.1c1,9.09,1.11,9.27,1,18.41a53.78,53.78,0,0,1-.52,9.6A4,4,0,0,1,181.06,98l-1.12.47-32.28,10.42-34.39,12.34L91.6,127c-3.49,1.2-7.48.19-10.87-2.73L52.34,101.59,42,91.29,25.76,77.43l-2.84-3.22q-.83-12.73-.54-25.49c.13-5.91.8-12.57,5.27-16.23"/><path class="cls-4" d="M180.51,67.1a161.78,161.78,0,0,1,1,18.41c0,2.57.87,8.37-1.16,10.15a6.69,6.69,0,0,1-2.22.9c-7.32,2.44-14.7,4.75-22,7.12-11.92,3.84-23.66,8.16-35.44,12.39-4.27,1.53-8.41,3-12.78,4.14l-12.71,3.37c-4,1.06-7.6,2.44-11.52-.08-5.28-3.39-10-8-15-11.87S58.7,104.05,54,99.91c-4.5-4-8.37-8.64-13-12.55-5.63-4.79-11.58-9.28-16.47-14.84l.7,1.69c-.47-7.48-.68-15-.59-22.46.07-6-.23-13.24,4.62-17.57,2.3-2-1.09-5.42-3.38-3.38-6,5.38-6,14.11-6,21.56q-.08,7.29.22,14.57c.14,3.46-.44,7.23,1.93,9.94,5,5.7,11.41,10.28,17.18,15.2,4.18,3.56,7.62,8,11.79,11.52,6.47,5.56,13.37,10.69,20,16,6.3,5,12.69,12,21.5,9.61,7.08-1.93,14.31-3.47,21.32-5.65,12.37-3.85,24.32-9.09,36.66-13.07l28.35-9.15a25.62,25.62,0,0,0,2.78-1c3.87-1.74,4.35-5.32,4.55-9.18a147.63,147.63,0,0,0-1-24.06c-.33-3-5.12-3.06-4.78,0Z"/><path class="cls-3" d="M175.18,77.41l-40.89,13L94.91,103.91c-3.49,1.15-7.49.18-10.87-2.65L69.86,89.42,56.18,78,44.63,69.48,31.41,57.31c-9.51-8-9-24.72.77-28l18.46-6.09,19.49-7.09L94.41,8.81l18-6c3.5-1.15,7.49-.18,10.88,2.65L135.6,15.74l14.84,12.4L165.1,40.39,176,49.46C185.47,57.4,185,74.17,175.18,77.41Z"/><path class="cls-4" d="M174.55,75.1C152.3,82.18,130.11,89.33,108,96.89c-4.66,1.6-9.38,3.66-14.18,4.84-4.48,1.09-7.75-1.85-10.9-4.48l-9-7.52c-8.58-7.16-17.12-14.21-26.11-20.84l-1.56-1.15c-.59-.44-.2-.17,0,0-.83-.72-1.62-1.49-2.43-2.23L35.25,57.6c-2.53-2.33-5.06-4.52-6.57-7.7-2.07-4.36-2.6-10.1-.19-14.44,1.59-2.87,4.11-3.73,7-4.68l11.19-3.7C51.49,25.49,56.25,23.75,61,22c11.07-4,22.31-7.26,33.55-10.76C100,9.56,105.4,7.7,110.81,5.91c4-1.32,7.31-1.46,10.93,1.36,2.55,2,5,4.17,7.47,6.24l24.7,20.63,12.83,10.72C173,50.07,180,54.73,180.41,63.73c.22,4.46-1.26,9.69-5.86,11.37-2.87,1.06-1.63,5.68,1.27,4.61C185.86,76,187,63.41,183,54.8,179.8,48.05,172.6,43.55,167,38.9L139.09,15.56c-4.42-3.69-8.81-7.41-13.25-11.07C122.08,1.4,117.71-.84,112.7.3c-3,.68-5.84,1.89-8.7,2.83C92.56,6.91,80.92,10.05,69.5,13.86c-11.82,3.95-23.45,8.4-35.29,12.31-3,1-5.78,1.91-8,4.29-3.34,3.62-4.41,8.91-4,13.69.87,9.23,7,14.47,13.38,20.3A167.48,167.48,0,0,0,49.71,76.18L54,79.36c.31.22.62.44.92.68-1-.79.12.12.31.28,2.94,2.52,6,5,8.93,7.46L77.63,99c5.64,4.71,11.08,9.47,19,6.85C109.34,101.61,122,97,134.74,92.79c12.12-4,24.34-7.75,36.51-11.62l4.57-1.46C178.74,78.78,177.49,74.17,174.55,75.1Z"/><path class="cls-4" d="M87.77,35.11c-6.36-5.22-16.5-7.94-22.33-.28s.07,16.42,4.64,22.94C75.47,65.46,82,72.27,88.46,79.05c2.82,3,6.13,6,10.35,6.61,3.42.46,7.29-1.21,10-3.28,3.38-2.62,4-6.28,2.47-10.15-1.89-4.73-4.62-9.08-6.52-13.81L100.35,61l14.57,13.79c2.45,2.32,6.16-1.38,3.71-3.7L104.05,57.27c-1.74-1.65-5.41,0-4.38,2.55,1.47,3.67,3.36,7.13,5.09,10.68,1.62,3.34,3.56,6.34-.4,8.54-1.59.88-3.56,1.77-5.38,1.35-2-.47-3.74-2-5.19-3.39-3.07-2.94-5.94-6.16-8.81-9.29C79.2,61.42,73.76,54.8,69.73,47.23c-1-1.9-1.72-3.46-1.41-5.64a6.9,6.9,0,0,1,3.55-5.5c4.09-2.23,8.95.06,12.2,2.73,2.58,2.12,6.31-1.56,3.7-3.71Z"/><path class="cls-4" d="M97,65.9,107.69,58c2.69-2,.08-6.53-2.64-4.52L94.31,61.38c-2.68,2-.07,6.53,2.65,4.52Z"/><path class="cls-4" d="M92.47,26.66C104.11,40,114.68,54.19,126,67.79c2,2.39,5.38-.66,4.11-3.18-1.09-2.15-6.75-21.35-4.38-21.83,1.08-.22,3.94,3.11,4.53,3.74a54.36,54.36,0,0,1,4.09,5c2.34,3.17,4.53,6.44,7,9.48,2.14,2.6,5.83-1.12,3.7-3.7-3.5-4.26-6.36-9-10-13.19-2.78-3.23-8.22-9-12.78-5.61-4.27,3.2-1.91,9.64-1.08,14,1,5,2,10.2,4.33,14.81l4.11-3.18C118.39,50.49,107.81,36.28,96.18,23c-2.23-2.54-5.92,1.18-3.71,3.71Z"/></g></g></svg>