<svg xmlns="http://www.w3.org/2000/svg" viewBox="0 0 206.31 168.25"><defs><style>.cls-1{fill:#1f0040;}.cls-2{fill:#d291ff;}.cls-3{fill:#353535;}</style></defs><title>Asset 17</title><g id="Layer_2" data-name="Layer 2"><g id="Layer_1-2" data-name="Layer 1"><path class="cls-1" d="M182.19,64.19c1,8.72,1.47,6.33,1.4,15.1,0,2.44.35,2.16-.26,5.06a3.88,3.88,0,0,1-2.34,2.8l-1.11.45-32,10-34.11,11.83-21.5,5.51c-3.46,1.14-7.43.18-10.79-2.62C62.79,97.89,45.11,82.38,26.92,67.4l-2.81-3.09c-.55-8.13-1.22-8.37-1-16.52.13-5.66.79-12,5.23-15.56"/><path class="cls-2" d="M179.82,64.19c.41,3.47,1.2,6.94,1.35,10.43.13,2.85,1.34,9.39-1.92,10.7-3.62,1.45-7.56,2.35-11.27,3.51-7.9,2.47-15.87,4.78-23.69,7.49-10.2,3.54-20.35,7.32-30.62,10.62-3.4,1.09-6.94,1.83-10.4,2.72l-8.85,2.26c-2.27.59-4.63,1.45-7,.89-3.5-.82-6.37-3.77-9.12-5.93s-5.72-4.55-8.55-6.86c-5.68-4.6-11.29-9.28-16.89-14C47.44,81.48,42,76.89,36.56,72.34a105.71,105.71,0,0,1-10.78-9.71l.7,1.68c-.34-4.77-1.08-9.5-1.06-14.3,0-5.58,0-12.16,4.57-16.1,2.31-2-1-5.34-3.35-3.35-8,6.94-6.17,20.28-5.24,29.69.22,2.26-.06,4.46,1.48,6.23a35.36,35.36,0,0,0,4.24,4.15C33.07,75.55,39,80.52,44.87,85.48c11.75,9.88,23.39,20.06,35.76,29.16a14.22,14.22,0,0,0,12.59,2.49c2.76-.73,5.52-1.42,8.28-2.13,4.56-1.16,9.24-2.1,13.7-3.58,6-2,12-4.16,18-6.25,9.6-3.33,19.19-6.51,28.89-9.54,6.12-1.91,12.36-3.59,18.4-5.74,4.64-1.65,5.6-5.23,5.46-9.8-.16-5.45-.76-10.5-1.4-15.9-.35-3-5.1-3-4.74,0Z"/><path class="cls-1" d="M174.67,76.79,134.1,89.7,95,103.08c-3.47,1.15-7.43.18-10.79-2.62L70.18,88.71,56.61,77.37,45.16,68.93,32,56.85c-9.43-7.88-9-24.52.77-27.73l18.31-6.05,19.33-7,24.08-7.3,17.91-5.91c3.47-1.14,7.43-.18,10.79,2.62L135.4,15.62l14.72,12.3,14.55,12.15,10.76,9C184.87,56.94,184.41,73.58,174.67,76.79Z"/><path class="cls-2" d="M174,74.51C152,81.53,130,88.62,108,96.12c-4.63,1.59-9.31,3.63-14.07,4.8-4.44,1.09-7.69-1.84-10.81-4.45L74.24,89c-8.51-7.11-17-14.1-25.9-20.68-.52-.38-1-.75-1.55-1.14l0,0c-.82-.72-1.61-1.48-2.41-2.22l-8.49-7.81c-2.51-2.31-5-4.48-6.52-7.64-2-4.32-2.58-10-.19-14.32,1.58-2.85,4.08-3.7,6.94-4.65l11.1-3.66c4.78-1.58,9.5-3.31,14.24-5,11-4,22.12-7.2,33.27-10.67,5.4-1.68,10.75-3.54,16.12-5.31,4-1.3,7.25-1.44,10.84,1.35,2.53,2,4.95,4.14,7.41,6.2l24.51,20.46L166.29,44.5c6.2,5.18,13.14,9.8,13.57,18.72.21,4.43-1.26,9.61-5.82,11.29-2.84,1-1.62,5.62,1.26,4.57,10-3.66,11.12-16.17,7.1-24.71-3.15-6.7-10.29-11.16-15.82-15.78L138.86,15.43c-4.38-3.65-8.74-7.34-13.14-11C122,1.39,117.65-.83,112.68.3c-2.92.67-5.79,1.87-8.63,2.81C92.7,6.85,81.15,10,69.82,13.75,58.1,17.66,46.56,22.08,34.82,26c-2.95,1-5.74,1.9-7.93,4.26C23.57,33.81,22.51,39.06,23,43.8c.87,9.15,7,14.35,13.28,20.13A164.76,164.76,0,0,0,50.19,75.57c1.43,1.05,2.85,2.11,4.28,3.15.3.23.62.45.91.68-1-.78.12.12.31.28,2.92,2.5,5.9,4.93,8.86,7.4L77.89,98.23c5.59,4.67,11,9.39,18.81,6.78,12.65-4.21,25.19-8.76,37.84-13,12-4,24.15-7.69,36.23-11.53l4.53-1.44C178.19,78.16,177,73.58,174,74.51Z"/><path class="cls-2" d="M130.37,39.56c-3.67-1.84-10-3.59-12.89.44-2.55,3.51-.5,7.52,1.86,10.47,3.09,3.88,6.42,6.06,11.45,6.27,2.17.09,7.42-1.14,6.82,2.37C137.12,62,133.4,62.83,131,63c-3.5.25-3.53,5.73,0,5.48,4.24-.31,8.63-1.68,10.89-5.6,1.82-3.16,1.8-7.57-1.22-10-3.92-3.11-9.29-.26-13.46-2.41a13.48,13.48,0,0,1-4.64-4.76c-.82-1.34-1.38-2.07.21-2.66,1.3-.49,3.67.63,4.8,1.2,3.14,1.57,5.92-3.15,2.76-4.73Z"/><path class="cls-2" d="M60.29,39C75.07,54.57,92,68,106.14,84.21c2.32,2.67,6.18-1.22,3.87-3.87C95.9,64.1,78.94,50.7,64.17,35.11c-2.43-2.56-6.3,1.31-3.88,3.87Z"/><path class="cls-2" d="M84,30.28c.17,6.53,1.49,12.94,2.31,19.4.57,4.53-.78,11.84,4.64,13.68,5.18,1.76,10.36,3.17,15.44,5.28s10.36,4.53,15.63,6.57c3.3,1.27,4.72-4,1.46-5.28-9.11-3.52-17.86-8.09-27.25-10.85a15.36,15.36,0,0,1-3.07-.79c-1-.59-.78-1.26-.83-2.45-.12-2.72-.43-5.41-.8-8.1-.79-5.81-1.9-11.59-2.05-17.46-.1-3.52-5.57-3.53-5.48,0Z"/><path class="cls-3" d="M12.64,145.59A7.32,7.32,0,0,0,4,143,6.89,6.89,0,0,0,.3,151.3a6.5,6.5,0,0,0,7.58,4.13c3.85-.84,5.16-4.74,5.11-8.27,0-1.93-3-1.94-3,0s-.28,4.58-2.49,5.27a3.5,3.5,0,0,1-4.3-1.93c-1.58-4.24,4.3-6.75,6.85-3.39,1.15,1.51,3.76,0,2.59-1.52Z"/><path class="cls-3" d="M9.8,129.88A130.7,130.7,0,0,0,12,156.37c.35,1.9,3.24,1.1,2.9-.79a126.54,126.54,0,0,1-2.06-25.7c0-1.93-3-1.93-3,0Z"/><path class="cls-3" d="M20.38,142.34a28.17,28.17,0,0,0,7.43-.86c1.87-.48,1.08-3.37-.79-2.9a24.81,24.81,0,0,1-6.64.76c-1.93,0-1.93,3,0,3Z"/><path class="cls-3" d="M20.74,148.74l5.3-.65a1.54,1.54,0,0,0,1.5-1.5,1.52,1.52,0,0,0-1.5-1.5l-5.3.65a1.55,1.55,0,0,0-1.5,1.5,1.51,1.51,0,0,0,1.5,1.5Z"/><path class="cls-3" d="M18.85,140.78c.12,2.48.33,4.95.66,7.41.24,1.88.25,4.28,1.09,6,1.58,3.19,5.12,1.77,7.77.92,1.83-.59,1-3.48-.8-2.89a12.64,12.64,0,0,1-2.88.9c-1.81.07-1.68-1.66-1.93-3.23a83.77,83.77,0,0,1-.91-9.09c-.09-1.92-3.1-1.93-3,0Z"/><path class="cls-3" d="M41.56,139.73c-3.29-.35-10.9,2.29-8.56,7,1,2,3.53,1.95,5.48,2.08.5,0,3.08.1,2.91,1.12-.11.65-1.52.84-2,.91a5,5,0,0,1-4-.7c-1.56-1.14-3.06,1.46-1.52,2.59,2.89,2.12,11.4,1.84,10.45-3.32-.44-2.41-2.82-3.37-5-3.56-1.27-.11-4.78.28-2.9-1.68,1.28-1.34,3.44-1.58,5.15-1.4,1.92.2,1.91-2.8,0-3Z"/><path class="cls-3" d="M48.54,143a88.55,88.55,0,0,1,1.53,9.45c.2,1.9,3.2,1.92,3,0a93.44,93.44,0,0,0-1.64-10.25c-.41-1.89-3.3-1.09-2.89.8Z"/><path class="cls-3" d="M49.36,136.33a1.5,1.5,0,0,0,0-3,1.5,1.5,0,0,0,0,3Z"/><path class="cls-3" d="M65.88,142a6.56,6.56,0,0,0-7.36.47c-1.94,1.57-3.23,4.71-1.87,7s4.55,2.43,6.75,1.21a7.91,7.91,0,0,0,3.93-6.61c.09-1.93-2.91-1.93-3,0a4.91,4.91,0,0,1-1.41,3.25c-.84.84-2.93,2-3.67.5-.53-1.07.41-2.5,1.25-3.13a3.48,3.48,0,0,1,3.87-.13c1.69.93,3.2-1.66,1.51-2.6Z"/><path class="cls-3" d="M64.6,143.63a73.09,73.09,0,0,1,.17,12.11c-.2,2.23-.52,5.28-2,7.15-2.19,2.83-8.95,3.32-10.37-.77-.63-1.81-3.53-1-2.89.8,1.74,5,9.12,6.83,13.46,4,6.67-4.38,5.12-16.65,4.6-23.27-.16-1.91-3.16-1.92-3,0Z"/><path class="cls-3" d="M75,153.77c.08-3.64.27-7.27.59-10.9L73,143.93c3,3.57,4.67,8.1,7.79,11.63a1.5,1.5,0,0,0,2.12,0c1.23-1.4,1-2.93.81-4.69l-.63-7.77c-.15-1.91-3.15-1.93-3,0l.46,5.61c.06.77.79,4.11.24,4.73H83c-3.11-3.52-4.74-8.05-7.79-11.63-.92-1.08-2.46-.12-2.56,1.06-.32,3.63-.51,7.26-.59,10.9,0,1.93,3,1.93,3,0Z"/><path class="cls-3" d="M89.93,148.22c2.79-.23,9.85.61,7.76-4.09-1.49-3.35-5.75-5.87-9-3-5.82,5.16.56,18.91,8.3,13.83,1.61-1.06.11-3.66-1.51-2.59-3.16,2.07-5.6-1.64-5.91-4.45-.17-1.5-.13-3.3,1-4.38a2.38,2.38,0,0,1,3.37.35,17.23,17.23,0,0,1,1.12,1.8l1-1c-1.83.61-4.35.43-6.26.59s-1.93,3.15,0,3Z"/><path class="cls-3" d="M101.87,141.69a78.43,78.43,0,0,1,.35,13.27h3a38.08,38.08,0,0,1,.41-6.75c.39-2.58,2-3.12,4.26-3.61,1.89-.39,1.09-3.29-.8-2.89-2.25.47-4.67,1.23-5.76,3.45-1.34,2.73-1.21,6.86-1.11,9.8a1.5,1.5,0,0,0,3,0,78.43,78.43,0,0,0-.35-13.27c-.22-1.9-3.22-1.92-3,0Z"/><path class="cls-3" d="M124.57,140.4a114.74,114.74,0,0,1,1.07,21.6c-.08,1.93,2.92,1.93,3,0a119.91,119.91,0,0,0-1.17-22.4c-.28-1.9-3.17-1.09-2.9.8Z"/><path class="cls-3" d="M126.78,141.3a3.27,3.27,0,0,1,4,1.94,2.94,2.94,0,0,1-.46,2.35c-.38.55-1.54,1.57-2.24.93-1.43-1.29-3.56.82-2.13,2.12,3.47,3.16,8.06-1.19,7.91-5-.17-4.21-5-6.47-8.62-4.93-1.77.75-.24,3.34,1.52,2.59Z"/><path class="cls-3" d="M139.12,150.5a83.27,83.27,0,0,1,.78-9.85l-1,1c1-.22,3.87-.52,2.77,1.44-.63,1.11-2.33,1.38-3.45,1.65a1.52,1.52,0,0,0-.36,2.74l5.63,3.14c1.68,1,3.2-1.65,1.51-2.59l-5.62-3.14-.36,2.74c2.76-.67,6.12-2.17,5.88-5.58s-4.08-3.89-6.8-3.3a1.45,1.45,0,0,0-1.05,1,86.42,86.42,0,0,0-.89,10.65c0,1.93,3,1.93,3,0Z"/><path class="cls-3" d="M153.19,149.53c6.62-1.36,2.61-13.59-3-10.58-4.81,2.57-2.79,11.52,3,10.58,1.9-.3,1.09-3.2-.8-2.89-2.17.35-2.31-3.64-1.22-4.74,1.59-1.59,4.1,4.15,1.22,4.74C150.5,147,151.3,149.92,153.19,149.53Z"/><path class="cls-3" d="M161.93,154.08c-.06-3.35,0-6.7.27-10,.12-1.71-.23-3.42,1.5-4.37,1.37-.75,3.73-.84,5.26-1.18,1.88-.42,1.09-3.32-.8-2.89-2.62.59-7.67.44-8.48,3.57-1.2,4.6-.83,10.2-.75,14.91,0,1.93,3,1.94,3,0Z"/><path class="cls-3" d="M161,149.44l7-1.85a1.5,1.5,0,0,0-.8-2.89l-6.95,1.85a1.5,1.5,0,0,0,.79,2.89Z"/><path class="cls-3" d="M172.09,144.78a36.22,36.22,0,0,1,.68,7.2,1.5,1.5,0,0,0,3,0,39.75,39.75,0,0,0-.79-8c-.38-1.89-3.27-1.09-2.89.8Z"/><path class="cls-3" d="M174.26,141.06a1.5,1.5,0,0,0,0-3,1.5,1.5,0,0,0,0,3Z"/><path class="cls-3" d="M179,136.6l.86,7.54c.25,2.16,0,5.14.91,7.14,1.39,3.23,6.29,0,8.45-.78,1.8-.66,1-3.56-.8-2.89-1.1.4-4.84,2.29-5.68,2.12l1,1.05c-.86-2.05-.74-5-1-7.18l-.8-7c-.21-1.89-3.22-1.92-3,0Z"/><path class="cls-3" d="M195.94,144.84a26.42,26.42,0,0,0,7.46-.78,1.5,1.5,0,0,0,1-1.84c-1-2.47-2.42-5.35-5.45-5.47s-5.18,2.44-5.6,5.19c-.44,2.93.59,6.87,3.21,8.55,2.88,1.85,6.28.64,9-.93a1.5,1.5,0,0,0-1.51-2.59c-1.39.81-3,1.72-4.66,1.4-1.9-.36-2.67-2.13-3-3.87-.29-1.53-.16-3.75,1.49-4.51,2.06-1,3.08,1.56,3.65,3l1.05-1.84a23.79,23.79,0,0,1-6.67.67c-1.93-.07-1.93,2.93,0,3Z"/></g></g></svg>