<?xml version="1.0" encoding="utf-8"?>
<!-- Generator: Adobe Illustrator 23.0.6, SVG Export Plug-In . SVG Version: 6.00 Build 0)  -->
<svg version="1.1" id="Layer_1" xmlns="http://www.w3.org/2000/svg" xmlns:xlink="http://www.w3.org/1999/xlink" x="0px" y="0px"
	 viewBox="0 0 206.3 183.1" style="enable-background:new 0 0 206.3 183.1;" xml:space="preserve">
<style type="text/css">
	.st0{opacity:0.3;}
	.st1{fill:#353535;}
	.st2{fill:#2D1B08;}
	.st3{fill:#DE9448;}
</style>
<title>Asset 25</title>
<g class="st0">
	<path class="st1" d="M12.6,160.4c-2-2.7-5.5-3.8-8.6-2.6c-3.1,1.4-4.7,5-3.7,8.3c1.1,3.1,4.4,4.9,7.6,4.1c3.8-0.8,5.1-4.7,5.1-8.2
		c0-1.9-3-1.9-3,0s-0.3,4.6-2.5,5.3c-1.7,0.6-3.6-0.3-4.3-1.9c-1.6-4.2,4.3-6.8,6.8-3.4C11.2,163.5,13.8,162,12.6,160.4L12.6,160.4z
		"/>
	<path class="st1" d="M9.8,144.7c-0.2,8.9,0.6,17.8,2.2,26.5c0.4,1.9,3.2,1.1,2.9-0.8c-1.6-8.5-2.2-17.1-2.1-25.7
		C12.8,142.7,9.8,142.7,9.8,144.7L9.8,144.7z"/>
	<path class="st1" d="M20.4,157.1c2.5,0,5-0.2,7.4-0.9c1.9-0.5,1.1-3.4-0.8-2.9c-2.2,0.5-4.4,0.8-6.6,0.8
		C18.4,154.1,18.4,157.1,20.4,157.1z"/>
	<path class="st1" d="M20.7,163.5l5.3-0.6c0.8,0,1.5-0.7,1.5-1.5c0-0.8-0.7-1.5-1.5-1.5l-5.3,0.6c-0.8,0-1.5,0.7-1.5,1.5
		C19.2,162.9,19.9,163.5,20.7,163.5z"/>
	<path class="st1" d="M18.9,155.6c0.1,2.5,0.3,4.9,0.7,7.4c0.2,1.9,0.2,4.3,1.1,6c1.6,3.2,5.1,1.8,7.8,0.9c1.8-0.6,1-3.5-0.8-2.9
		c-0.9,0.4-1.9,0.7-2.9,0.9c-1.8,0.1-1.7-1.6-1.9-3.2c-0.5-3-0.8-6-0.9-9.1C21.8,153.7,18.8,153.7,18.9,155.6L18.9,155.6z"/>
	<path class="st1" d="M41.6,154.5c-3.3-0.4-10.9,2.3-8.6,7c1,2,3.5,1.9,5.5,2.1c0.5,0,3.1,0.1,2.9,1.1c-0.1,0.6-1.5,0.8-2,0.9
		c-1.4,0.3-2.8,0.1-4-0.7c-1.6-1.1-3.1,1.5-1.5,2.6c2.9,2.1,11.4,1.8,10.5-3.3c-0.4-2.4-2.8-3.4-5-3.6c-1.3-0.1-4.8,0.3-2.9-1.7
		c1.3-1.3,3.4-1.6,5.2-1.4C43.5,157.8,43.5,154.8,41.6,154.5L41.6,154.5z"/>
	<path class="st1" d="M48.5,157.8c0.7,3.1,1.2,6.3,1.5,9.4c0.2,1.9,3.2,1.9,3,0c-0.4-3.5-0.9-6.9-1.6-10.3
		C51,155.1,48.1,155.9,48.5,157.8L48.5,157.8z"/>
	<path class="st1" d="M49.4,151.1c0.8,0,1.5-0.7,1.5-1.5s-0.7-1.5-1.5-1.5s-1.5,0.7-1.5,1.5S48.5,151.1,49.4,151.1z"/>
	<path class="st1" d="M65.9,156.8c-2.3-1.4-5.2-1.2-7.4,0.5c-1.9,1.6-3.2,4.7-1.9,7s4.5,2.4,6.8,1.2c2.4-1.4,3.9-3.9,3.9-6.6
		c0.1-1.9-2.9-1.9-3,0c0,1.2-0.6,2.4-1.4,3.2c-0.8,0.8-2.9,2-3.7,0.5c-0.5-1.1,0.4-2.5,1.2-3.1c1.1-0.8,2.7-0.9,3.9-0.1
		C66.1,160.3,67.6,157.7,65.9,156.8L65.9,156.8z"/>
	<path class="st1" d="M64.6,158.4c0.4,4,0.4,8.1,0.2,12.1c-0.2,2.2-0.5,5.3-2,7.1c-2.2,2.8-9,3.3-10.4-0.8c-0.6-1.8-3.5-1-2.9,0.8
		c1.7,5,9.1,6.8,13.5,4c6.7-4.4,5.1-16.7,4.6-23.3C67.4,156.5,64.4,156.5,64.6,158.4L64.6,158.4z"/>
	<path class="st1" d="M75,168.6c0.1-3.6,0.3-7.3,0.6-10.9l-2.6,1.1c3,3.6,4.7,8.1,7.8,11.6c0.6,0.6,1.5,0.6,2.1,0
		c1.2-1.4,1-2.9,0.8-4.7l-0.6-7.8c-0.2-1.9-3.2-1.9-3,0l0.5,5.6c0.1,0.8,0.8,4.1,0.2,4.7H83c-3.1-3.5-4.7-8.1-7.8-11.6
		c-0.9-1.1-2.5-0.1-2.6,1.1c-0.3,3.6-0.5,7.3-0.6,10.9C72.1,170.5,75.1,170.5,75,168.6L75,168.6z"/>
	<path class="st1" d="M89.9,163c2.8-0.2,9.8,0.6,7.8-4.1c-1.5-3.4-5.8-5.9-9-3c-5.8,5.2,0.6,18.9,8.3,13.8c1.6-1.1,0.1-3.6-1.5-2.6
		c-3.2,2.1-5.6-1.6-5.9-4.4c-0.2-1.5-0.1-3.3,1-4.4c1-0.8,2.5-0.7,3.3,0.3c0,0,0,0,0,0c0.4,0.6,0.8,1.2,1.1,1.8l1-1
		c-1.8,0.6-4.3,0.4-6.3,0.6s-1.9,3.1,0,3L89.9,163z"/>
	<path class="st1" d="M101.9,156.5c0.5,4.4,0.6,8.8,0.3,13.3h3c-0.1-2.3,0.1-4.5,0.4-6.8c0.4-2.6,2-3.1,4.3-3.6
		c1.9-0.4,1.1-3.3-0.8-2.9c-2.2,0.5-4.7,1.2-5.8,3.4c-1.3,2.7-1.2,6.9-1.1,9.8c0,0.8,0.7,1.5,1.5,1.5s1.5-0.7,1.5-1.5
		c0.3-4.4,0.1-8.9-0.3-13.3C104.7,154.6,101.7,154.6,101.9,156.5z"/>
	<path class="st1" d="M124.6,155.2c1,7.2,1.4,14.4,1.1,21.6c-0.1,1.9,2.9,1.9,3,0c0.3-7.5-0.1-15-1.2-22.4
		C127.2,152.5,124.3,153.3,124.6,155.2z"/>
	<path class="st1" d="M126.8,156.1c1.6-0.5,3.4,0.3,4,1.9c0.2,0.8,0,1.7-0.5,2.4c-0.4,0.6-1.5,1.6-2.2,0.9c-1.4-1.3-3.6,0.8-2.1,2.1
		c3.5,3.1,8.1-1.2,7.9-5c-0.2-4.2-5-6.5-8.6-4.9C123.5,154.3,125,156.9,126.8,156.1L126.8,156.1z"/>
	<path class="st1" d="M139.1,165.3c0.1-3.3,0.3-6.6,0.8-9.9l-1,1.1c1-0.2,3.9-0.5,2.8,1.4c-0.6,1.1-2.3,1.4-3.4,1.6
		c-0.8,0.2-1.3,1.1-1,1.9c0.1,0.3,0.3,0.6,0.6,0.8l5.6,3.1c1.7,0.9,3.2-1.6,1.5-2.6l-5.6-3.1l-0.4,2.7c2.8-0.7,6.1-2.2,5.9-5.6
		s-4.1-3.9-6.8-3.3c-0.5,0.1-0.9,0.5-1.1,1.1c-0.5,3.5-0.8,7.1-0.9,10.7C136.2,167.2,139.2,167.2,139.1,165.3L139.1,165.3z"/>
	<path class="st1" d="M153.2,164.3c6.6-1.4,2.6-13.6-3-10.6C145.4,156.3,147.4,165.3,153.2,164.3c1.9-0.3,1.1-3.2-0.8-2.9
		c-2.2,0.4-2.3-3.6-1.2-4.7c1.6-1.6,4.1,4.1,1.2,4.7C150.5,161.8,151.3,164.7,153.2,164.3z"/>
	<path class="st1" d="M161.9,168.9c-0.1-3.4,0-6.7,0.3-10c0.1-1.7-0.2-3.4,1.5-4.4c1.4-0.8,3.7-0.8,5.3-1.2c1.9-0.4,1.1-3.3-0.8-2.9
		c-2.6,0.6-7.7,0.4-8.5,3.6c-1.2,4.6-0.8,10.2-0.8,14.9C158.9,170.9,161.9,170.9,161.9,168.9L161.9,168.9z"/>
	<path class="st1" d="M161,164.2l7-1.9c0.8-0.2,1.2-1.1,1-1.9c-0.2-0.8-1-1.2-1.8-1l-6.9,1.9c-0.8,0.2-1.3,1-1.1,1.8
		C159.4,164,160.2,164.5,161,164.2L161,164.2z"/>
	<path class="st1" d="M172.1,159.6c0.5,2.4,0.7,4.8,0.7,7.2c0,0.8,0.7,1.5,1.5,1.5s1.5-0.7,1.5-1.5c0-2.7-0.3-5.4-0.8-8
		C174.6,156.9,171.7,157.7,172.1,159.6z"/>
	<path class="st1" d="M174.3,155.9c0.8,0,1.5-0.7,1.5-1.5s-0.7-1.5-1.5-1.5s-1.5,0.7-1.5,1.5S173.4,155.9,174.3,155.9z"/>
	<path class="st1" d="M179,151.4l0.9,7.5c0.2,2.2,0,5.1,0.9,7.1c1.4,3.2,6.3,0,8.4-0.8c1.8-0.6,1-3.6-0.8-2.9
		c-1.1,0.4-4.8,2.3-5.7,2.1l1,1.1c-0.9-2.1-0.7-5-1-7.2l-0.8-7C181.7,149.5,178.7,149.5,179,151.4L179,151.4z"/>
	<path class="st1" d="M195.9,159.6c2.5,0.1,5-0.2,7.5-0.8c0.8-0.2,1.2-1.1,1-1.8c-1-2.5-2.4-5.4-5.4-5.5s-5.2,2.4-5.6,5.2
		c-0.4,2.9,0.6,6.9,3.2,8.6c2.9,1.9,6.3,0.6,9-0.9c0.7-0.4,0.9-1.4,0.5-2.1c-0.4-0.7-1.3-0.9-2-0.5c-1.4,0.8-3,1.7-4.7,1.4
		c-1.9-0.4-2.7-2.1-3-3.9c-0.3-1.5-0.2-3.8,1.5-4.5c2.1-0.9,3.1,1.6,3.6,3l1.1-1.9c-2.2,0.5-4.4,0.8-6.7,0.7
		C194,156.5,194,159.5,195.9,159.6L195.9,159.6z"/>
</g>
<path class="st2" d="M182.9,67.1c1,9.1,1.1,9.3,1,18.4c0.1,3.2-0.1,6.4-0.5,9.6c-0.3,1.3-1.1,2.4-2.3,2.9l-1.1,0.5l-32.3,10.4
	l-34.4,12.3L91.6,127c-3.5,1.2-7.5,0.2-10.9-2.7l-28.4-22.7L42,91.3L25.8,77.4l-2.8-3.2c-0.6-8.5-0.7-17-0.5-25.5
	c0.1-5.9,0.8-12.6,5.3-16.2"/>
<path class="st3" d="M180.5,67.1c0.7,6.1,1,12.3,1,18.4c0,2.6,0.9,8.4-1.2,10.2c-0.7,0.4-1.4,0.7-2.2,0.9c-7.3,2.4-14.7,4.8-22,7.1
	c-11.9,3.8-23.7,8.2-35.4,12.4c-4.3,1.5-8.4,3-12.8,4.1l-12.7,3.4c-4,1.1-7.6,2.4-11.5-0.1c-5.3-3.4-10-8-15-11.9s-10-7.6-14.7-11.7
	c-4.5-4-8.4-8.6-13-12.6c-5.6-4.8-11.6-9.3-16.5-14.8l0.7,1.7c-0.5-7.5-0.7-15-0.6-22.5c0.1-6-0.2-13.2,4.6-17.6
	c2.3-2-1.1-5.4-3.4-3.4c-6,5.4-6,14.1-6,21.6c-0.1,4.9,0,9.7,0.2,14.6c0.1,3.5-0.4,7.2,1.9,9.9c5,5.7,11.4,10.3,17.2,15.2
	c4.2,3.6,7.6,8,11.8,11.5c6.5,5.6,13.4,10.7,20,16c6.3,5,12.7,12,21.5,9.6c7.1-1.9,14.3-3.5,21.3-5.7c12.4-3.8,24.3-9.1,36.7-13.1
	l28.4-9.2c0.9-0.3,1.9-0.6,2.8-1c3.9-1.7,4.4-5.3,4.6-9.2c0.3-8,0-16.1-1-24.1c-0.3-3-5.1-3.1-4.8,0L180.5,67.1z"/>
<path class="st2" d="M175.2,77.4l-40.9,13l-39.4,13.5c-3.5,1.2-7.5,0.2-10.9-2.7L69.9,89.4L56.2,78l-11.5-8.5L31.4,57.3
	c-9.5-8-9-24.7,0.8-28l18.5-6.1l19.5-7.1l24.3-7.3l18-6c3.5-1.1,7.5-0.2,10.9,2.7l12.3,10.3l14.8,12.4l14.7,12.2l10.9,9.1
	C185.5,57.4,185,74.2,175.2,77.4z"/>
<path class="st3" d="M174.6,75.1c-22.2,7.1-44.4,14.2-66.6,21.8c-4.7,1.6-9.4,3.7-14.2,4.8c-4.5,1.1-7.8-1.8-10.9-4.5l-9-7.5
	c-8.6-7.2-17.1-14.2-26.1-20.8l-1.6-1.2c-0.6-0.4-0.2-0.2,0,0c-0.8-0.7-1.6-1.5-2.4-2.2l-8.6-7.9c-2.5-2.3-5.1-4.5-6.6-7.7
	c-2.1-4.4-2.6-10.1-0.2-14.4c1.6-2.9,4.1-3.7,7-4.7l11.2-3.7c4.8-1.6,9.6-3.3,14.3-5.1c11.1-4,22.3-7.3,33.6-10.8
	c5.4-1.7,10.8-3.5,16.3-5.3c4-1.3,7.3-1.5,10.9,1.4c2.6,2,5,4.2,7.5,6.2l24.7,20.6l12.8,10.7c6.3,5.2,13.3,9.9,13.7,18.9
	C180.6,68.2,179.2,73.4,174.6,75.1c-2.9,1.1-1.6,5.7,1.3,4.6c10-3.7,11.2-16.3,7.2-24.9c-3.2-6.8-10.4-11.2-16-15.9l-27.9-23.3
	c-4.4-3.7-8.8-7.4-13.2-11.1c-3.8-3.1-8.1-5.3-13.1-4.2c-3,0.7-5.8,1.9-8.7,2.8c-11.4,3.8-23.1,6.9-34.5,10.7
	C57.7,17.8,46,22.3,34.2,26.2c-3,1-5.8,1.9-8,4.3c-3.3,3.6-4.4,8.9-4,13.7c0.9,9.2,7,14.5,13.4,20.3c4.5,4.2,9.2,8.1,14.1,11.7
	l4.3,3.2c0.3,0.2,0.6,0.4,0.9,0.7c-1-0.8,0.1,0.1,0.3,0.3c2.9,2.5,6,5,8.9,7.5L77.6,99c5.6,4.7,11.1,9.5,19,6.8
	c12.7-4.2,25.4-8.8,38.1-13.1c12.1-4,24.3-7.8,36.5-11.6l4.6-1.5C178.7,78.8,177.5,74.2,174.6,75.1z"/>
<path class="st3" d="M87.8,35.1c-6.4-5.2-16.5-7.9-22.3-0.3s0.1,16.4,4.6,22.9c5.4,7.7,11.9,14.5,18.4,21.3c2.8,3,6.1,6,10.3,6.6
	c3.4,0.5,7.3-1.2,10-3.3c3.4-2.6,4-6.3,2.5-10.2c-1.9-4.7-4.6-9.1-6.5-13.8l-4.4,2.6l14.6,13.8c2.4,2.3,6.2-1.4,3.7-3.7l-14.6-13.8
	c-1.7-1.7-5.4,0-4.4,2.5c1.5,3.7,3.4,7.1,5.1,10.7c1.6,3.3,3.6,6.3-0.4,8.5c-1.6,0.9-3.6,1.8-5.4,1.3c-2-0.5-3.7-2-5.2-3.4
	c-3.1-2.9-5.9-6.2-8.8-9.3c-5.8-6.3-11.2-12.9-15.3-20.5c-1-1.9-1.7-3.5-1.4-5.6c0.2-2.3,1.5-4.4,3.6-5.5c4.1-2.2,8.9,0.1,12.2,2.7
	C86.7,40.9,90.4,37.3,87.8,35.1z"/>
<path class="st3" d="M97,65.9l10.7-7.9c2.7-2,0.1-6.5-2.6-4.5l-10.7,7.9C91.6,63.4,94.2,67.9,97,65.9L97,65.9z"/>
<path class="st3" d="M92.5,26.7C104.1,40,114.7,54.2,126,67.8c2,2.4,5.4-0.7,4.1-3.2c-1.1-2.2-6.8-21.3-4.4-21.8
	c1.1-0.2,3.9,3.1,4.5,3.7c1.5,1.6,2.8,3.3,4.1,5c2.3,3.2,4.5,6.4,7,9.5c2.1,2.6,5.8-1.1,3.7-3.7c-3.5-4.3-6.4-9-10-13.2
	c-2.8-3.2-8.2-9-12.8-5.6c-4.3,3.2-1.9,9.6-1.1,14c1,5,2,10.2,4.3,14.8l4.1-3.2C118.4,50.5,107.8,36.3,96.2,23
	C93.9,20.5,90.3,24.2,92.5,26.7L92.5,26.7z"/>
</svg>
