<svg xmlns="http://www.w3.org/2000/svg" viewBox="0 0 241.22 188.28"><defs><style>.cls-1{fill:#2d1b08;}.cls-2{fill:#de9448;}</style></defs><title>Asset 6</title><g id="Layer_2" data-name="Layer 2"><g id="Layer_1-2" data-name="Layer 1"><path class="cls-1" d="M235.06,97.38c1.43,13.05,1.6,13.3,1.49,26.43,0,3.65.14,9.44-.75,13.78a5.77,5.77,0,0,1-3.37,4.2l-1.62.67-46.35,15L135.1,175.13,104,183.38c-5,1.71-10.75.27-15.61-3.93L47.62,146.89,32.81,132.11,9.45,112.22l-4.07-4.64Q4.2,89.31,4.6,71c.19-8.48,1.15-18,7.58-23.3"/><path class="cls-2" d="M230.56,97.38a228.93,228.93,0,0,1,1.49,26.43c0,3.63,1.3,12.05-2,14.14a10.48,10.48,0,0,1-2.31.78c-10.71,3.51-21.45,6.92-32.17,10.38-16.8,5.42-33.34,11.52-50,17.48-6.23,2.24-12.27,4.35-18.66,6l-18,4.76c-5.36,1.43-10.36,3.42-15.59.18-7.75-4.81-14.7-11.6-21.8-17.28-6.89-5.5-14.19-10.71-20.76-16.58s-12-12.4-18.61-18c-8.08-6.88-16.62-13.32-23.64-21.3l1.32,3.18c-.68-10.9-1-21.82-.84-32.74.1-8.17-.28-18.05,6.32-24C19.68,47,13.3,40.65,9,44.51.47,52.16.18,64.2,0,74.84Q-.11,85.45.29,96c.2,5.23-.76,11.55,2.79,15.72,7.1,8.34,16.44,14.92,24.75,22C34,139,39,145.37,45.11,150.61c9.16,7.86,18.92,15.12,28.35,22.65S92.28,191,105.52,187.63c10.25-2.57,20.69-5,30.77-8.16,17.77-5.53,34.91-13.05,52.63-18.77l40.32-13c1.35-.43,2.66-.84,4-1.39,6-2.54,7.25-7.29,7.69-13.4.84-11.86,0-23.74-1.33-35.52-.63-5.69-9.64-5.76-9,0Z"/><path class="cls-1" d="M224,112.18l-58.7,18.67-56.54,19.37c-5,1.66-10.75.27-15.61-3.79l-20.37-17L53.13,113,36.55,100.8l-19-17.48c-13.65-11.41-13-35.48,1.11-40.14l26.5-8.74,28-10.19L108,13.69l25.91-8.55c5-1.66,10.75-.26,15.62,3.8l17.61,14.71,21.31,17.8,21,17.58,15.58,13C238.74,83.45,238.08,107.53,224,112.18Z"/><path class="cls-2" d="M222.78,107.84c-31.58,10-63.07,20.17-94.43,30.91-6.88,2.36-13.77,5.2-20.8,7.13-6.21,1.71-10.62-2.12-15-5.79l-12.81-10.7c-12.33-10.3-24.59-20.46-37.52-30L40,97.76c-.2-.14-1.68-1.34-.69-.5s-.25-.27-.41-.44c-.72-.72-1.5-1.38-2.25-2.06L24.43,83.52c-3.55-3.27-7.27-6.3-9.5-10.69C11.91,66.91,11,59.09,14,53c2.09-4.18,5.57-5.37,9.64-6.72L39.51,41c7-2.31,13.92-4.83,20.86-7.36,15.89-5.78,32-10.4,48.17-15.44,7.83-2.45,15.59-5.13,23.38-7.71,5.34-1.76,9.73-2,14.6,1.73,3.61,2.77,7,5.86,10.51,8.78l35.09,29.3,18.36,15.34c8.83,7.37,19.19,14,19.93,26.65.35,5.94-1.45,13.22-7.63,15.51-5.38,2-3.05,10.7,2.4,8.68,14.89-5.53,17-23.86,11.13-36.88-4.56-10-15-16.59-23.21-23.45l-40-33.4c-6.34-5.29-12.64-10.64-19-15.89-5.56-4.58-11.81-8-19.27-6.59-4.31.8-8.55,2.62-12.69,4C105.5,9.79,88.6,14.41,72,19.91,55,25.53,38.28,32,21.28,37.59c-4.5,1.49-8.73,2.95-12,6.59-4.83,5.32-6.52,13-5.9,20,1.21,13.64,10.09,21.42,19.45,30a238.8,238.8,0,0,0,20.58,17.15c2.11,1.56,4.21,3.14,6.33,4.67s-.67-.66,1.5,1.2c4.16,3.56,8.41,7,12.61,10.53L83.5,144.23c8.34,7,16.42,13.65,28,9.79,35.77-11.9,71.38-24.05,107.31-35.48l6.35-2C230.68,114.77,228.33,106.08,222.78,107.84Z"/><path class="cls-2" d="M98.48,51.46C89.36,44,74.8,40.05,66.42,51s.1,23.58,6.66,32.94c7.74,11,17.1,20.82,26.4,30.55,4,4.24,8.8,8.68,14.85,9.5,4.92.66,10.47-1.74,14.31-4.72,4.84-3.76,5.76-9,3.54-14.57-2.72-6.79-6.64-13-9.36-19.82l-6.28,3.66,20.92,19.8c3.52,3.32,8.85-2,5.32-5.32l-20.92-19.8c-2.5-2.36-7.77,0-6.29,3.66,2.11,5.27,4.82,10.25,7.3,15.34,2.34,4.79,5.12,9.1-.57,12.26-2.28,1.26-5.11,2.54-7.73,1.93-2.88-.66-5.36-2.87-7.44-4.86-4.42-4.22-8.53-8.84-12.66-13.34-8.29-9-16.1-18.53-21.89-29.4-1.45-2.73-2.47-5-2-8.09.5-3.44,1.93-6.17,5.1-7.9,5.86-3.2,12.85.09,17.51,3.91,3.71,3,9.06-2.24,5.31-5.31Z"/><path class="cls-2" d="M111.67,95.66l15.42-11.39c3.85-2.84.1-9.37-3.8-6.49L107.88,89.17c-3.85,2.84-.11,9.37,3.79,6.49Z"/><path class="cls-2" d="M105.23,39.31c16.71,19.14,31.89,39.54,48.15,59.06,2.86,3.43,7.73-.94,5.9-4.56-1.56-3.1-9.68-30.66-6.29-31.35,1.56-.32,5.66,4.46,6.51,5.37A79.19,79.19,0,0,1,165.37,75c3.36,4.55,6.51,9.24,10.11,13.61,3.07,3.74,8.37-1.61,5.31-5.32-5-6.11-9.13-12.93-14.31-18.93-4-4.63-11.8-13-18.35-8.06-6.13,4.6-2.75,13.85-1.55,20,1.4,7.22,2.87,14.65,6.21,21.26l5.91-4.55c-16.26-19.52-31.44-39.91-48.15-59-3.19-3.66-8.49,1.68-5.32,5.31Z"/></g></g></svg>