<svg xmlns="http://www.w3.org/2000/svg" viewBox="0 0 243.32 200.19"><defs><style>.cls-1{fill:#e0edfc;}.cls-2{fill:#070707;}.cls-3{fill:#ede2b2;}.cls-4{fill:#1d4575;}.cls-5{fill:#aa4922;}.cls-6{opacity:0.7;}.cls-7{fill:#824831;}</style></defs><title>Asset 10</title><g id="Layer_2" data-name="Layer 2"><g id="Layer_1-2" data-name="Layer 1"><path class="cls-1" d="M94.09,138.49c25.85-29.29,53.09-56.25,80-85.43,13.77-14.91,30.17-27.37,44-42.25,2.57-2.76,5-5.39,8.55-9l.33-.15a67.15,67.15,0,0,1,8.32,8.71l.35.94c-2.38,3-5.76,6.13-8.37,8.86-13.65,14.25-29.37,27.26-43.74,41.06-28.54,27.42-56.41,55.87-82.6,85.55"/><path class="cls-2" d="M95.25,139.65c17.18-19.41,35.14-38.08,53-56.82s35.65-37.52,54.84-55.11c4.24-3.89,8.43-7.82,12.46-11.92,2.24-2.29,8.14-11,11.26-11.27,1.38-.12,5,3.57,5.75,5.09,1.38,2.7.41,2.27-2.22,5-4.22,4.38-8.49,8.72-12.88,13-18.78,18.1-38.36,35.3-56.88,53.7q-31.41,31.22-60.85,64.31c-1.39,1.57.92,3.89,2.32,2.31,21.39-24.18,43.73-47.49,66.75-70.14,22.26-21.91,47.67-41.55,68-65.34a1.65,1.65,0,0,0,.42-1.59c-1.54-4.1-5.93-7.5-9.09-10.36a1.71,1.71,0,0,0-2-.26c-4.09,1.83-7.92,8.13-11,11.38-5.51,5.75-11.36,11.15-17.25,16.51-12.4,11.27-24,23-35.52,35.17-23.18,24.65-47,48.73-69.41,74.07-1.4,1.58.91,3.9,2.31,2.32Z"/><path class="cls-3" d="M9.13,108.69a1.61,1.61,0,0,1-.38.08l1.16-.15a3.85,3.85,0,0,1-.59,0l1.16.16a3.29,3.29,0,0,1-.76-.21l1,.44a3.9,3.9,0,0,1-.35-.19c.58.48.74.6.5.37s-.12-.07.36.51a2.33,2.33,0,0,1-.2-.34,4.4,4.4,0,0,0-6-1.57,4.47,4.47,0,0,0-1.56,6,7,7,0,0,0,7.92,3.36,4.37,4.37,0,0,0-2.33-8.42Z"/><path class="cls-3" d="M22.11,103.05a38.08,38.08,0,0,0-8.44.91c-8.37,1.76-8.28,15,0,16.84,16.17,3.57,32.57,3.63,49.05,3.43,18.15-.21,36.27-.6,54.36-2.28,3.57-.33,8.53.45,11.83-.48-1.9.54-2.29-2.77-1.47.32.48,1.77,2.43,3.89,3.45,5.45,4.71,7.19,5.73,14.62,7,23,1.33,8.62,2.5,17.26,3.07,26,.49,7.55.25,14.11,5.41,20.16L157,182.64c-5.83-3.28-11.61-7.1-17.84-9.61-5.06-2-10.14-1.25-15.27-2.55-9.43-2.39-16.91-13.39-24.73-18.8-17.21-11.92-39-17-53.42-32.74l-3.85,14.59c9.66-2.93,22.2-.31,32.12.54,11.18,1,22.42,2,33.63,1,3.27-.27,11.91-3,14.73-1.76,2.58,1.11,3.7,10.07,4.13,12.41,1.83,10,2,20.06,4.85,29.85l12.83-9.86-39.4-21.22c-5.47-2.95-10.87-6.24-16.66-8.52-6.3-2.49-13.08-2.91-19.5-5l2.09,16c8.57-5.39,18.36-2.76,27.52-.42,8.46,2.16,17.52,4.59,22.13,12.66,5.75,10,19.35,1.22,15.08-8.81l-8.07-19c-4.39-10.31-19.44-1.42-15.08,8.81l8.07,19,15.08-8.81c-7-12.19-19.55-17.36-32.57-20.69-13.8-3.53-28.24-5.82-41,2.18a8.84,8.84,0,0,0,2.08,16c5.72,1.87,11.91,2.11,17.53,4.23,5.9,2.23,11.45,5.92,17,8.91l36.86,19.85c6.56,3.53,15-2.33,12.83-9.86-5-17.53-1.19-59.1-29.92-54.89A171.59,171.59,0,0,1,78,117c-13-1.1-28.13-4.12-40.82-.27a8.84,8.84,0,0,0-3.86,14.6c15.15,16.54,36.93,22.29,55.19,34.27,9,5.94,15.67,15.23,25.6,19.83,5.48,2.53,10.47,1.88,16.12,3,6.21,1.27,12.42,6.23,17.89,9.3,9,5.05,16.88-6.33,10.58-13.71-1.23-1.44-.35-8.69-.51-10.65-.37-4.73-.91-9.45-1.53-14.16-1.09-8.39-2.09-16.93-3.92-25.19-1.76-8-6.06-14.16-10.26-21-4-6.48-8.62-9-16.24-9.07-8.71-.14-17.55,1.4-26.25,1.87-9.08.49-18.17.71-27.26.86-18.13.28-36.63,1.25-54.45-2.68V120.8a10.07,10.07,0,0,1,3.79-.29c11.24.13,11.25-17.33,0-17.46Z"/><path class="cls-4" d="M124.05,106.1l3.08-4a1.64,1.64,0,1,0-2.83-1.65l-3.08,4a1.64,1.64,0,0,0,.59,2.24,1.69,1.69,0,0,0,2.24-.59Z"/><path class="cls-3" d="M2.55,108.58c5-2.41,10.11-4.88,14.09-8.76,3-2.9,5.3-6.58,8.9-8.65,3.86-2.22,8.55-2.24,13-2.17,2.88,0,5.85.1,8.53-1a34.76,34.76,0,0,0,5.71-3.51,37.13,37.13,0,0,1,17.47-5.42,25.55,25.55,0,0,1,8.14.45c2.29.57,4.44,1.61,6.69,2.32,5.42,1.7,11.24,1.4,16.91,1.88s11.68,2,15.4,6.27c2.06,2.38,3.25,5.44,5.45,7.7,4.71,4.84,13.23,5.2,16.69,11"/><path d="M3.38,110c5.13-2.48,10.26-5,14.42-9,2-1.93,3.59-4.26,5.65-6.14,3.79-3.44,7.91-4.06,12.85-4.22s9.11.2,13.58-2.19c6.88-3.69,12.28-7.17,20.37-7.7,7.17-.47,12.71,2.78,19.56,3.8,6.68,1,13.76,0,20.18,2.49,6.78,2.6,8.16,9.23,13.39,13.32,4.67,3.64,11.06,4.17,14.74,9.2,1.23,1.68,4.07,0,2.83-1.65-3.14-4.29-7.38-5.58-11.91-8-6.31-3.41-8.16-10.24-14-14-4.93-3.18-11-3.68-16.71-4-4.32-.24-8.63-.42-12.82-1.6-3.33-1-6.3-2.49-9.8-2.83a40.13,40.13,0,0,0-19.32,3.28c-3,1.31-5.34,3.39-8.16,4.87-4.17,2.18-8.54,1.62-13,1.77-5.41.18-10,1.43-14,5.16-3.17,2.93-5.41,6.32-9,8.89a68.74,68.74,0,0,1-10.44,5.74c-1.89.92-.23,3.74,1.66,2.83Z"/><path class="cls-3" d="M148.21,119.71c4,4.66,3.8,11.52,6.41,17,1.54,3.27,4,6,5.67,9.23a26.88,26.88,0,0,1,2.43,8,39.52,39.52,0,0,1-1.5,18.13c-1.12,3.43-2.73,6.88-2.42,10.47.42,4.77,4,10,1.11,13.8"/><path d="M146.8,120.54c3.63,5,3.73,11.15,6.24,16.66,2.81,6.15,7,10.28,8,17.32,1.2,8.09-1.11,14.77-3.15,22.39a17.4,17.4,0,0,0-.72,6c.3,4.08,3.44,8.64,1.29,12.76-1,1.86,1.86,3.52,2.83,1.65,3.22-6.18-1.7-11.9-.54-18.44,1.46-8.32,4.73-14.7,3.73-23.49-.76-6.66-3.52-11-6.87-16.58-3.74-6.28-3.7-13.91-8-19.87-1.22-1.69-4.06-.06-2.82,1.65Z"/><path d="M33.2,103c-7.85,1-13.92,5.53-19.74,10.6-1.59,1.39.73,3.7,2.32,2.32,5.08-4.43,10.52-8.76,17.42-9.64,2.07-.26,2.09-3.54,0-3.28Z"/><path d="M45,103.31a75.86,75.86,0,0,1,36.43-5.6c2.1.18,2.09-3.09,0-3.28a77.71,77.71,0,0,0-37.3,5.73c-1.91.8-1.07,4,.87,3.15Z"/><path d="M100.57,99.49a32.28,32.28,0,0,1,28.54,17.32c1,1.86,3.82.21,2.83-1.65a35.58,35.58,0,0,0-31.37-19,1.64,1.64,0,0,0,0,3.28Z"/><path d="M139.84,134.52a38.8,38.8,0,0,1,8.91,29.6c-.22,2.09,3.06,2.08,3.28,0a42.14,42.14,0,0,0-9.87-31.92c-1.36-1.62-3.67.71-2.32,2.32Z"/><path d="M15.62,101.23l4,7.88c.95,1.88,3.78.22,2.83-1.66l-4-7.88c-.95-1.88-3.78-.22-2.83,1.66Z"/><path d="M43.41,90.51a16.72,16.72,0,0,0,1.93,9.71c1,1.86,3.82.21,2.83-1.66a13.7,13.7,0,0,1-1.49-8c.22-2.09-3-2.08-3.27,0Z"/><path d="M88.63,84.92V89a19.93,19.93,0,0,1,0,4.16l.75-1a10.32,10.32,0,0,1-2.93.44c-2.07.3-1.19,3.45.88,3.16s4.36-.13,4.62-2.66a80.88,80.88,0,0,0,0-8.24,1.64,1.64,0,0,0-3.28,0Z"/><path d="M146.29,140.17a24.77,24.77,0,0,0,9.06-1c2-.59,1.16-3.75-.87-3.15a22.23,22.23,0,0,1-8.19.83c-2.1-.17-2.09,3.11,0,3.28Z"/><path d="M153.59,180.13h5.15a1.64,1.64,0,0,0,0-3.27h-5.15a1.64,1.64,0,0,0,0,3.27Z"/><path d="M150.21,175.25a36.45,36.45,0,0,1,1.06,8.26c0,2.1,3.3,2.11,3.27,0a40.08,40.08,0,0,0-1.17-9.13c-.5-2-3.66-1.18-3.16.87Z"/><path class="cls-5" d="M18.8,127.87c9.25,4.07,12.35,13.35,19.35,20.07,1.58,1.52,4.64,1.85,6.17,0,5-6.06.9-10.95-4-15.57-3.44-3.25-9.87,1.1-6.86,5.29,4.2,5.84,9.34,11.29,16.27,13.75,8.47,3,17,6.66,25.59,9.22,4.61,1.37,8-5.95,3.36-8a35.83,35.83,0,0,1-7.19-4.17c-4.51-3.35-8.87,4.22-4.4,7.54a37,37,0,0,0,7.18,4.17l3.37-8c-6.58-2-12.59-5.34-19.14-7.38-7.59-2.36-12.7-4.89-17.5-11.58l-6.86,5.3c.06,0,3.49,3.84,4,3.22h6.17C36.65,134.4,33.75,125,23.2,120.33c-5.09-2.24-9.54,5.28-4.4,7.54Z"/><path class="cls-5" d="M43.17,152.87c5.6,1.29,11.4,2.25,16.79,4.24C65,159,70.83,160.22,75.43,163c4.83,2.89,9.22-4.65,4.4-7.54-5.15-3.09-11-4.19-16.54-6.43s-11.89-3.21-17.8-4.56c-5.47-1.25-7.8,7.17-2.32,8.42Z"/><path class="cls-5" d="M86.58,170.88c.63.66,5.38,4.6,2.74.32.37.6,0,2.46.44,3.36,1.53,3.3,4.41,2.47,7.22,3.51l-3-3c2.82,6.88,10,11.38,16.51,14.92,8.1,4.38,16.14,5.3,25.13,6.58,5.5.79,7.88-7.63,2.33-8.42-6.25-.89-13-1.13-18.9-3.62-5.37-2.3-12.33-6.11-16.16-10.57-1.11-1.3-.92-2.71-2.5-3.82-.73-.32-1.47-.62-2.22-.88q-3.21-1-.26,3.61c3.4-1-5-7.95-5.11-8.12-3.9-4.06-10.07,2.12-6.17,6.18Z"/><path class="cls-5" d="M139.59,196.12h3.73c2.06,0,3.11-3.09,1.1-4.07a19.67,19.67,0,0,1-3.17-1.92,2.19,2.19,0,0,0-3,.78,2.24,2.24,0,0,0,.78,3,19.67,19.67,0,0,0,3.17,1.92l1.1-4.07h-3.73a2.19,2.19,0,0,0,0,4.37Z"/><path class="cls-5" d="M77.61,165.06c5.66,4.2,11.83,7.92,16.64,13.16,1.23,1.33,2.28,3.15,4.26,3.12,1.73,0,4.54-1.81,3.64-3.71,1.2,2.54,5,.33,3.77-2.2-2.27-4.8-5.85,1.28-8.28,1.66l2.13.56c-3.24-2.67-5.86-6-9.24-8.58s-7.17-5.15-10.72-7.78c-2.26-1.68-4.44,2.11-2.2,3.77Z"/><path d="M158.75,195.29c-2.33,2.1-7.9,1-10.58.35a36.46,36.46,0,0,0-4.15-.89,83.39,83.39,0,0,0-11.83-.36,46.08,46.08,0,0,1-26.07-8C93,177.86,83.19,164.15,68.58,157.91c-5.93-2.54-12.33-3.53-18.51-5.25C41.2,150.18,35.5,146,30.72,138.11c-3.49-5.77-6.83-10.53-12.22-14.68-2.45-1.87-17.35-10.53-14.79-13.7,1.31-1.62-1-4-2.32-2.31-3.13,3.88-.47,6.89,3,9.81,7.43,6.22,15.87,10.25,21.2,18.72,4.33,6.88,7.86,13.25,15.44,16.94,7.11,3.46,15.11,4.15,22.54,6.64,19.48,6.55,30.74,26.26,49.49,34.43,8.66,3.78,16.54,3.26,25.73,3.67,7.24.32,16,5.62,22.27,0,1.56-1.41-.76-3.72-2.32-2.31Z"/><path class="cls-5" d="M13.37,121.14a19.73,19.73,0,0,1,18.88,1.24c7.21,4.69,10.67,13.69,17.76,18.56,4.78,3.27,10.68,4.32,16.31,5.72s11.48,3.43,15.09,8"/><path d="M13.8,122.72c17.36-7,22.63,9.14,33.35,18.08,9.72,8.09,24.35,5.43,33.1,15,1.43,1.56,3.74-.76,2.31-2.31-4.3-4.69-9.75-6.79-15.81-8.38-9.54-2.51-16.74-5-23.09-12.93-8-10.11-17.14-18.09-30.73-12.59-1.92.78-1.08,4,.87,3.16Z"/><path d="M90.09,164.37a85.71,85.71,0,0,1,16.13,12.82c3.22,3.31,5.88,7.46,10.23,9.36,3.71,1.62,7.82,1.28,11.75,1.56a27.83,27.83,0,0,1,19.39,9.38c1.42,1.56,3.73-.76,2.31-2.31-7.42-8.17-15.71-9.65-26.2-10.51-8.91-.73-12.54-7.56-18.53-13a91.54,91.54,0,0,0-13.42-10.08c-1.8-1.12-3.44,1.71-1.66,2.83Z"/><path class="cls-1" d="M81.2,156.49c30.29-24.65,61.59-46.78,92.93-71.15,16-12.45,34.25-22.05,50.33-34.46,3-2.3,5.8-4.5,9.92-7.52l.35-.1a67.18,67.18,0,0,1,6.77,10l.2,1c-2.84,2.53-6.69,5.11-9.71,7.37-15.81,11.82-33.44,22.07-49.88,33.33-32.66,22.36-64.82,45.86-95.53,70.84"/><path class="cls-2" d="M82.35,157.65c20.75-16.83,42.19-32.74,63.55-48.77,20.07-15.07,39.86-30,60.9-43.7,5.19-3.37,10.33-6.82,15.31-10.5,1.82-1.34,3.61-2.73,5.41-4.11,2.46-1.89,4.44-4.49,7.22-3.5,1,.36,5.77,5.49,5.28,7.07-.3,1-7,4.62-7.91,5.32-5.06,3.7-10.15,7.34-15.36,10.83-21.34,14.28-42.9,28.07-63.8,43q-34.51,24.65-67.52,51.3c-1.64,1.33.69,3.64,2.31,2.32,25.68-20.84,52.2-40.6,79.29-59.57C192,89.85,219.52,75,242.86,55.35a1.68,1.68,0,0,0,.42-1.59c-.84-4.23-4.75-8.32-7.39-11.65a1.61,1.61,0,0,0-1.6-.42c-4.36,1.14-9.14,6.67-12.77,9.38-6.73,5-13.77,9.62-20.83,14.17-14.12,9.09-27.46,18.85-40.81,29-26.67,20.29-53.81,40-79.84,61.08-1.64,1.33.69,3.63,2.31,2.32Z"/><path class="cls-1" d="M81.2,156.49A16.76,16.76,0,0,0,81,160a5.77,5.77,0,0,0,1.22,3.15,9.36,9.36,0,0,0,4.37,2.64"/><path class="cls-2" d="M79.56,156.49c-.23,2.47-.48,5,1,7.14a10.39,10.39,0,0,0,5.58,3.69c2,.62,2.88-2.54.87-3.16a6.55,6.55,0,0,1-3.86-2.59c-.9-1.57-.48-3.39-.33-5.08.19-2.1-3.08-2.09-3.27,0Z"/><g class="cls-6"><path class="cls-7" d="M29.09,134c3.21,7.87,10.59,12.83,18.35,15.65,4,1.45,5.68-4.88,1.74-6.31-5.31-1.94-11.54-5.59-13.77-11.08-1.57-3.86-7.91-2.17-6.32,1.74Z"/></g><g class="cls-6"><path class="cls-7" d="M94.47,176.5a17.81,17.81,0,0,1,3,2.38,17,17,0,0,1,2.9,2.58,3.38,3.38,0,0,0,4.48,1.18c1.39-.81,2.26-3.07,1.18-4.48a23.08,23.08,0,0,0-3.93-3.91,26,26,0,0,0-4.37-3.41A3.36,3.36,0,0,0,93.29,172a3.31,3.31,0,0,0,1.18,4.48Z"/></g></g></g></svg>