<svg xmlns="http://www.w3.org/2000/svg" viewBox="0 0 214.62 323.78"><defs><style>.cls-1{fill:#dee2d0;}.cls-2{fill:#4d4d4d;}.cls-3{fill:#626654;}.cls-4{fill:#bdc1ac;}</style></defs><title>Asset 3</title><g id="Layer_2" data-name="Layer 2"><g id="Layer_1-2" data-name="Layer 1"><path class="cls-1" d="M139.08,114.58a120.75,120.75,0,0,1,.79-15.68l-2.15,15.95A45.31,45.31,0,0,1,140.54,104l-6,14.34a31.12,31.12,0,0,1,3.76-6.59l-9.38,12.14a30.22,30.22,0,0,1,5.24-5.24L122,128a31.51,31.51,0,0,1,6.73-3.93l-14.33,6a30.55,30.55,0,0,1,7.51-2.07l-15.95,2.14a27.93,27.93,0,0,1,7.25,0l-16-2.15a13.12,13.12,0,0,1,2.55.67l-14.33-6A10.63,10.63,0,0,1,87.64,124L75.5,114.59c2.21,1.79,4.22,3.86,6.35,5.75a47.51,47.51,0,0,1,5.77,5.84L78.24,114a20.36,20.36,0,0,1,2.57,4.27l-6-14.33A19.38,19.38,0,0,1,76,108.65l-2.15-16c.47,3.85,0,7.7-.18,11.55a44.44,44.44,0,0,0,0,5.77,174.43,174.43,0,0,0,2.46,18.36,19.91,19.91,0,0,0,.74,2.75,45.31,45.31,0,0,0,10.74,20.4A45.3,45.3,0,0,0,104.43,167a44.55,44.55,0,0,0,22.3,7.12A45.43,45.43,0,0,0,150.66,173L165,167a60.33,60.33,0,0,0,21.53-21.52l6-14.33a60.62,60.62,0,0,0,0-31.91L191.08,92a45.1,45.1,0,0,0-10.74-20.41,45.34,45.34,0,0,0-16.83-15.45A44.68,44.68,0,0,0,141.2,49a45.5,45.5,0,0,0-23.92,1.07l-14.34,6A60.33,60.33,0,0,0,81.42,77.67L75.37,92a60.37,60.37,0,0,0,0,31.9l1.48,7.23L192.57,99.22a20.37,20.37,0,0,1-.94-3.94l2.15,16c-.49-4.06,0-8.12.21-12.18a39.39,39.39,0,0,0-.1-6c-.56-5.52-1.4-11.46-2.28-16.95q-.11-.69-.27-1.38c-.79-3.37-2.65-6.92-3.89-9.86s-2.43-6.52-4.17-9.39c-.23-.38-.48-.76-.73-1.12-3.14-4.47-6.66-8.82-10.07-13.07a40.4,40.4,0,0,0-4-4.25,184.31,184.31,0,0,0-20.59-17,11.66,11.66,0,0,0-1.27-.78c-2.42-1.24-6.24-2.66-7.75-3.3.9.38-5.15-2.4-7.58-3.18a12.58,12.58,0,0,0-1.49-.4c-2.8-.55-6.33-.87-8.62-1.18-2.73-.37-5.76-.84-8.64-1.15a26.41,26.41,0,0,0-5.48,0c-6.14.59-12.28,1.37-18.35,2.48-.91.17-1.82.38-2.71.63s-1.66.51-2.47.82c-2.77,1.05-5.56,2.32-8.21,3.44S69.67,19.71,67,21a29.71,29.71,0,0,0-4.65,2.74c-2.37,1.69-4.76,3.65-7,5.35s-4.7,3.52-6.94,5.39c-.76.64-1.49,1.31-2.18,2a24.59,24.59,0,0,0-1.73,1.95c-3.35,4.14-6.65,8.46-9.84,12.72-.34.45-.67.9-1,1.37a32.66,32.66,0,0,0-2.79,5.22c-2.21,5.11-4.54,10.27-6.5,15.49-.2.51-.38,1-.55,1.56-.37,1.12-.68,2.26-.94,3.4s-.47,2.19-.65,3.29c-1,6.33-1.86,12.72-2.57,19.09a133.43,133.43,0,0,0-.58,14,45.18,45.18,0,0,0,5.17,23.12A45.05,45.05,0,0,0,36.65,157,45,45,0,0,0,56,169.41a45.18,45.18,0,0,0,23.12,5.17l16-2.14A60.15,60.15,0,0,0,121.51,157l9.38-12.15a59.65,59.65,0,0,0,8.19-30.28Z"/><path class="cls-1" d="M107.59,240.11a45.18,45.18,0,0,0,23.12-5.17A45,45,0,0,0,150,222.54a45,45,0,0,0,12.4-19.31,45.18,45.18,0,0,0,5.17-23.12l-2.14-16A60.05,60.05,0,0,0,150,137.68l-12.15-9.38a59.63,59.63,0,0,0-30.28-8.19,45.18,45.18,0,0,0-23.12,5.17,45.05,45.05,0,0,0-19.31,12.4A45,45,0,0,0,52.76,157a45.18,45.18,0,0,0-5.17,23.12l2.14,15.95a60.05,60.05,0,0,0,15.43,26.48l12.15,9.38a59.65,59.65,0,0,0,30.28,8.19Z"/><path class="cls-1" d="M173,174.18c1.37,15.35.21,30.76-1.83,46l.54-4c-2.23,16.44-5.22,32.78-8,49.14l-.54,4a11.37,11.37,0,0,0,1.3,5.78,14.35,14.35,0,0,0,6.13,7.18,17.89,17.89,0,0,0,7.57,2,15.23,15.23,0,0,0,10.61-4.39,48.17,48.17,0,0,0,10.46-15.59,50,50,0,0,0,2.91-8.65,105.41,105.41,0,0,0,1.62-10.74c1.19-10.47,1.72-21,2.53-31.55l1.42-18.29-28,7.57c.38.81.75,1.61,1.1,2.43l-1.52-3.58a55.54,55.54,0,0,1,3.74,13.67l-.53-4a55.85,55.85,0,0,1,0,14.67l.53-4c-1,7.28-3.34,14.29-4.46,21.56h28.93l-.05-.36.53,4a10.53,10.53,0,0,1,0-2.51l-.54,4a11.51,11.51,0,0,1,.66-2.43l-1.52,3.59a11.22,11.22,0,0,1,1.44-2.49l-2.35,3a11.46,11.46,0,0,1,1.79-1.76l-3,2.35c.19-.15.39-.29.59-.42l-20.52-20.52c-3.12,6.41-5.06,13.32-4.65,20.53.3,5.36,2.67,10.16,7.43,13a15.24,15.24,0,0,0,15.14,0,16,16,0,0,0,5-4.47,9.69,9.69,0,0,0,2.1-3.59,14.74,14.74,0,0,0,.95-2.41A15.93,15.93,0,0,0,209,241.34a15.28,15.28,0,0,0-9-6.89c-3.84-.88-8.15-.69-11.56,1.51a15.83,15.83,0,0,0-6.89,9,96.1,96.1,0,0,1-3.73,10.53l1.52-3.58a21.6,21.6,0,0,1-1.62,3.44l2.35-3a2,2,0,0,1-.44.47l3-2.34-.26.16,3.58-1.51-.3.1,4-.54-.39,0,4,.53a2,2,0,0,1-.75-.24l3.58,1.51a11.77,11.77,0,0,1-1.29-.83l3,2.34a15.83,15.83,0,0,1-2.6-2.7l2.35,3c-2.85-3.81-5.16-7.88-8.41-11.42s-7.54-6.15-11.4-9.12l3,2.34a13.52,13.52,0,0,1-2-1.94l2.34,3a11.21,11.21,0,0,1-1.31-2.25l1.51,3.59a14.61,14.61,0,0,1-.88-3.25l.54,4a29.38,29.38,0,0,1,.19-7.78l-.54,4a44.85,44.85,0,0,0,.7-5.37,17.78,17.78,0,0,0-.3-2.61c-.33-2.43-.35-3.42-1.85-5.86a18.36,18.36,0,0,0-5.79-5.94,15.41,15.41,0,0,0-10.36-2,12.82,12.82,0,0,0-2.7.47,37.66,37.66,0,0,0-3.93,1.67l-2.07,1q-2.09,1-4.2,1.86l3.58-1.52A142.23,142.23,0,0,1,118.06,225l4-.54c-3.62.49-7.54,1.22-11.2.86l4,.54a8.31,8.31,0,0,1-2-.53l3.58,1.52a8.29,8.29,0,0,1-.91-.53l3,2.35a6.47,6.47,0,0,1-1-1l2.35,3a6.9,6.9,0,0,1-.52-.87l1.52,3.58a4.07,4.07,0,0,1-.25-1l.53,4v-.34l-11,14.46.4-.05-4,.53a7.88,7.88,0,0,1,1.19,0l-4-.54a9.85,9.85,0,0,1,2.31.67l-3.59-1.52c3.76,1.67,7.29,3.94,11.38,4.73a44,44,0,0,0,12.85.65c3.1-.32,6.18-.83,9.29-1a51.87,51.87,0,0,1,9.81.36l-4-.54a51.37,51.37,0,0,1,12.25,3.23l-3.59-1.52a14.52,14.52,0,0,1,3.15,1.76l-3-2.35a8.85,8.85,0,0,1,1.15,1.14l-2.34-3a24.74,24.74,0,0,1,1.76,2.91,30.75,30.75,0,0,0,2.63,3.78c1.5,1.94,3.13,3.76,4.64,5.7l-2.35-3a14.12,14.12,0,0,1,1.6,2.59l-1.52-3.58a6.94,6.94,0,0,1,.5,1.85l-.53-4a7.06,7.06,0,0,1,0,1.3l.54-4-.06.33a11.48,11.48,0,0,0-.27,6,11.21,11.21,0,0,0,1.78,5.58,15.27,15.27,0,0,0,9,6.89c3.84.88,8.15.69,11.56-1.51,3.08-2,6.26-5.18,6.89-9s.93-6.77-.11-10.56a27.91,27.91,0,0,0-1.9-4.64,12.15,12.15,0,0,0-.81-1.45c-1.94-2.93-4.38-5.44-6.52-8.21l2.34,3c-1.22-1.64-2-3.52-3.22-5.17a24.88,24.88,0,0,0-7.17-7,16.83,16.83,0,0,0-2.5-1.28,66.67,66.67,0,0,0-9.56-3.49,77.22,77.22,0,0,0-10.26-1.78,55.59,55.59,0,0,0-13.58,0c-4.35.51-8.73,1.25-13.12.74l4,.54a19.21,19.21,0,0,1-4.54-1.18l3.58,1.51c-2.13-.93-4.15-2.08-6.31-3a18.89,18.89,0,0,0-3.9-1.39c-4.37-.8-5.35-.6-9.76,0l-3.58,1.52A11.34,11.34,0,0,0,94.41,227a14.32,14.32,0,0,0-3.22,9.09A18.28,18.28,0,0,0,98.88,251a21.47,21.47,0,0,0,13.68,4.33,121,121,0,0,0,16.65-1.93A142.09,142.09,0,0,0,155,246.78c5.8-2.1,11.42-4.62,17-7.17l-3.58,1.51a2.9,2.9,0,0,1,.71-.21l-4,.54h.35l-4-.53.33.11-3.58-1.52.23.17-3-2.35.17.22-2.34-3,.11.26-1.51-3.58.07.28-.53-4a5.62,5.62,0,0,1,0,1.23l.53-4a67.41,67.41,0,0,0-1,9.83,28,28,0,0,0,1.4,9.41c1.5,4.07,3.42,7.9,6.75,10.82,2.52,2.22,5.33,3.92,8,5.94l-3-2.35a33.62,33.62,0,0,1,5.67,5.64l-2.35-3c.85,1.11,1.62,2.27,2.38,3.44,1.36,2.11,2.83,4.06,4.4,6.05a16.66,16.66,0,0,0,2.6,2.71,32,32,0,0,0,4.32,3.18,20.86,20.86,0,0,0,4.34,1.75,16.1,16.1,0,0,0,6.37.25,15.41,15.41,0,0,0,9.3-4.49,17.84,17.84,0,0,0,3.08-4.14c1.22-2.46,2.22-5,3.25-7.58q1.83-4.54,3.19-9.25l-28.93-8a1.88,1.88,0,0,1-.19.61l1.51-3.58-.17.28,2.34-3a1.79,1.79,0,0,1-.46.45l3-2.34-.28.15,22.57,13a27.52,27.52,0,0,1,.15-4.89l-.53,4a27.09,27.09,0,0,1,1.88-6.85L210,246.24c.18-.4.36-.81.56-1.21l1.51-3.58a11.27,11.27,0,0,0,.27-6,7.5,7.5,0,0,0-1-3.79,11.16,11.16,0,0,0-3.11-4.82,17.74,17.74,0,0,0-6.62-3.86,11.27,11.27,0,0,0-6-.27,11.11,11.11,0,0,0-5.57,1.78,25.47,25.47,0,0,0-5.19,4.24,24,24,0,0,0-3.94,5.64,38.74,38.74,0,0,0-1.94,4.77A56,56,0,0,0,178,246a41.13,41.13,0,0,0,.66,5.42l1.51,3.58A11.26,11.26,0,0,0,184,259.2a14.26,14.26,0,0,0,9.09,3.22,17.81,17.81,0,0,0,7.57-2,16.87,16.87,0,0,0,6.9-9c.71-4.64,1.92-9.17,3-13.74a91.18,91.18,0,0,0,2.51-17.38,70.72,70.72,0,0,0-7.36-32.76l-2.34-3a11.26,11.26,0,0,0-4.83-3.11,14.42,14.42,0,0,0-9.77-.75,17.9,17.9,0,0,0-6.62,3.86c-3,2.72-4.09,6.75-4.39,10.6l-2,26.2c-.66,8.47-1,17-2.15,25.45l.54-4a47,47,0,0,1-3,11.79L172.6,251a35.18,35.18,0,0,1-4.27,7.28l2.35-3a39.19,39.19,0,0,1-3.09,3.48l25.07,14.59c2.08-12.4,4.22-24.78,6.19-37.2,2.14-13.53,4.06-27.16,4.6-40.87a164.32,164.32,0,0,0-.47-21,11.29,11.29,0,0,0-1.29-5.78,11.23,11.23,0,0,0-3.1-4.82,15.24,15.24,0,0,0-10.61-4.4c-3.88.18-7.9,1.45-10.61,4.4-2.55,2.78-4.74,6.69-4.39,10.6Z"/><path class="cls-1" d="M117.94,271.34c.42,0,.84.08,1.26.14l-4-.54a26.4,26.4,0,0,1,6.08,1.74l-3.58-1.51a65,65,0,0,1,9.55,5.38l10.45,6.83,7.57-28c-5.88.56-10.89,1.5-16.18,4.24a15.51,15.51,0,0,0-2,1.24,38.14,38.14,0,0,0-4.18,3.33,31.86,31.86,0,0,0-3.58,4.45,12,12,0,0,0-1,1.76,26.05,26.05,0,0,0-2.85,10.93,27.38,27.38,0,0,0,1.05,8c.8,3.06,2.16,5.94,2.61,9.09l-.54-4c.32,2.69.45,5.4,1,8.05a23.71,23.71,0,0,0,2,5.2,23,23,0,0,0,3.27,4.55,10.8,10.8,0,0,0,1.26,1.27,32.52,32.52,0,0,0,4.22,3.17,24,24,0,0,0,6.63,2.71c8.65,2,17.52-.2,25.62-3.32,7.71-3,15.74-6.44,21.35-12.77,4.78-5.4,8.75-11.75,12.64-17.82a125.42,125.42,0,0,0,11.26-21.93,11.38,11.38,0,0,0,.26-6,11.11,11.11,0,0,0-1.78-5.58l-2.34-3a11.33,11.33,0,0,0-4.83-3.1,14.36,14.36,0,0,0-9.77-.75,15.32,15.32,0,0,0-9,6.89q-7.56,13.8-14.18,28.09l16.94-6.9a51.88,51.88,0,0,0-9-1.5,28,28,0,0,0-5.34,0,51.31,51.31,0,0,0-8.78,1.41,41.25,41.25,0,0,1-5.15,1.29l4-.54a9.92,9.92,0,0,1-2.11,0l4,.54a8.17,8.17,0,0,1-1.62-.48l3.58,1.51a7.48,7.48,0,0,1-.86-.51l3,2.35a7.49,7.49,0,0,1-1.16-1.16l2.35,3a7.36,7.36,0,0,1-.81-1.45l1.51,3.58a9.53,9.53,0,0,1-.52-2l.54,4a10,10,0,0,1,0-2.05l-.54,4a11.32,11.32,0,0,1,.75-2.63l-1.51,3.58a17.42,17.42,0,0,1,2.16-3.52l-2.35,3c4.63-5.78,10.71-10.26,16-15.44a66.29,66.29,0,0,0,14.43-20.65,147,147,0,0,0,7.9-24.18,217.72,217.72,0,0,0,5.3-27.87,63.58,63.58,0,0,0,.11-14.13c-.37-3.29-.59-6.95-1.8-10.11a24.81,24.81,0,0,0-2.86-5.85,17.91,17.91,0,0,1-1.86-2.88l1.51,3.58a9.81,9.81,0,0,1-.64-2.33l.54,4a10.49,10.49,0,0,1,0-2l-.53,4a10.58,10.58,0,0,1,.34-1.58H174.89q3.11,17.64,7.39,35a15,15,0,0,0,18.46,10.47c3.63-1.17,7.13-3.42,9-6.89a15.92,15.92,0,0,0,1.51-11.56q-4.28-17.39-7.39-35l-1.51-3.59a11.34,11.34,0,0,0-3.86-4.21,14.38,14.38,0,0,0-9.09-3.22,17.86,17.86,0,0,0-7.57,2.05c-3.32,1.76-5.84,5.46-6.9,9A23.17,23.17,0,0,0,178,181.87a16.12,16.12,0,0,1,1.87,3l-1.51-3.58a21.24,21.24,0,0,1,1.12,4.93l-.53-4a67.83,67.83,0,0,1-.26,17.72l.53-4a220.93,220.93,0,0,1-4.67,22.31,127.6,127.6,0,0,1-6,19.39l1.52-3.59a56.1,56.1,0,0,1-6.84,12l2.34-3c-5.19,6.69-12,11.76-18,17.73a62,62,0,0,0-6.26,7.45,16.47,16.47,0,0,0-1.49,2.48,26.1,26.1,0,0,0-2.38,6.25,25,25,0,0,0-.62,6,23.43,23.43,0,0,0,1,6.15,20.13,20.13,0,0,0,3.56,6.71,19.32,19.32,0,0,0,5.78,5.3c5.29,3.07,11.18,3.25,17,2,2.53-.54,4.93-1.44,7.5-1.81l-4,.54a30.12,30.12,0,0,1,7.41,0l-4-.53a29.71,29.71,0,0,1,4.09.86l4,.54a11.36,11.36,0,0,0,5.78-1.29c2.76-1.17,5.86-3.32,7.17-6.14q6.61-14.28,14.18-28.09L179,255.59l-.69,1.7,1.51-3.59a107.38,107.38,0,0,1-8.31,15.5c-3.09,4.89-6.26,9.85-9.79,14.43l2.35-3a26,26,0,0,1-4.28,4.37l3-2.35a43.58,43.58,0,0,1-9.36,5.11l3.59-1.51a60.05,60.05,0,0,1-14.62,4.43l4-.54a17.88,17.88,0,0,1-4.2,0l4,.54a13.27,13.27,0,0,1-2.91-.76l3.58,1.51a11.74,11.74,0,0,1-2.21-1.25l3,2.35a9.87,9.87,0,0,1-1.54-1.49l2.34,3a8.33,8.33,0,0,1-1.07-1.85l1.51,3.58a12.41,12.41,0,0,1-.54-2.18l.54,4c-.5-3.79-.68-7.6-1.87-11.25a41.82,41.82,0,0,1-2.05-7.19l.54,4a11.57,11.57,0,0,1,0-2.82l-.54,4a10.27,10.27,0,0,1,.63-2.18l-1.51,3.58a11.48,11.48,0,0,1,1.34-2.23l-2.34,3a12.94,12.94,0,0,1,2.15-2.1l-3,2.34a16.15,16.15,0,0,1,3.19-1.8l-3.59,1.51a24.27,24.27,0,0,1,5.62-1.42l-4,.53,1.78-.2,4-.53a11.34,11.34,0,0,0,5.1-2.69,14.32,14.32,0,0,0,5.38-7.79,17.87,17.87,0,0,0,0-8c-.86-3.76-3.79-6.94-6.9-9-4.68-3.06-9.31-6.24-14.1-9.13a66.51,66.51,0,0,0-9.88-4.75,38,38,0,0,0-10.94-2.25c-3.63-.32-8.12,1.9-10.61,4.39a15.23,15.23,0,0,0-4.39,10.61c.17,3.88,1.44,7.9,4.39,10.6l3,2.35a15,15,0,0,0,7.58,2Z"/><path class="cls-1" d="M16.25,116.49a172.82,172.82,0,0,1-1.09,34.33l.54-4a204.3,204.3,0,0,1-4.92,24c-2,7.78-4.15,15.56-5.26,23.54a96.74,96.74,0,0,0-1.13,9.9,23.47,23.47,0,0,0,.73,6.43c.83,3.33,2.63,5.79,4.75,8.39a11.23,11.23,0,0,0,4.83,3.1,11.26,11.26,0,0,0,5.78,1.29,15.28,15.28,0,0,0,10.61-4.39c2.62-2.86,4.57-6.61,4.39-10.61l-.54-4a15,15,0,0,0-3.85-6.62l-.24-.29,2.35,3a3.35,3.35,0,0,1-.37-.63l1.51,3.59a7.09,7.09,0,0,1-.41-1.41l.54,4a29.77,29.77,0,0,1,.45-7.35l-.54,4c1.44-10.66,4.71-20.92,7.17-31.36a192.31,192.31,0,0,0,5-36.3,170.46,170.46,0,0,0-.27-18.64,16,16,0,0,0-4.39-10.61,15.23,15.23,0,0,0-10.61-4.39c-3.88.17-7.9,1.45-10.6,4.39s-4.67,6.66-4.4,10.61Z"/><path class="cls-1" d="M63.15,58.21A29.18,29.18,0,0,1,64.23,55L62.72,58.6a28,28,0,0,1,3.6-6.18l-2.34,3a42.92,42.92,0,0,1,7.48-7l-3,2.34A90.42,90.42,0,0,1,88.29,39.18L84.71,40.7A90.06,90.06,0,0,1,101,35.63l3.59-1.51a11.34,11.34,0,0,0,4.21-3.86A14.38,14.38,0,0,0,112,21.17,17.82,17.82,0,0,0,110,13.6a15.22,15.22,0,0,0-9-6.9C95.13,5.16,89.21,6,83.61,8.05a11.32,11.32,0,0,0-5.1,2.68,11.34,11.34,0,0,0-3.86,4.21A15.32,15.32,0,0,0,73.14,26.5c1.17,3.63,3.42,7.13,6.89,9A15.78,15.78,0,0,0,91.59,37a170.26,170.26,0,0,1,20.63-4.09l-4,.54q5.46-.72,11-1.09A15.93,15.93,0,0,0,129.78,28a15.31,15.31,0,0,0,4.4-10.61c-.18-3.88-1.45-7.9-4.4-10.61s-6.65-4.66-10.6-4.39A190.15,190.15,0,0,0,83.61,8.05l8,28.93A28.58,28.58,0,0,1,97,35.43L93,36a12.27,12.27,0,0,1,2.71-.06l-4-.54a12.22,12.22,0,0,1,1.34.27V6.7A103.93,103.93,0,0,0,67,16.17a87.19,87.19,0,0,0-10.24,6.17A78.2,78.2,0,0,0,44.31,32.43a43,43,0,0,0-10.09,17.8,15.54,15.54,0,0,0,1.51,11.56,15.33,15.33,0,0,0,9,6.9c3.84.87,8.15.68,11.56-1.52a15.63,15.63,0,0,0,6.9-9Z"/><path class="cls-1" d="M182.37,49.9a26.26,26.26,0,0,1-2.23-2.49l2.34,3a25.12,25.12,0,0,1-3.14-5.4l1.51,3.58a6.5,6.5,0,0,1-.49-1.55v8l.06-.39-1.51,3.59.13-.2-5.38,5.38.2-.14-3.58,1.51.22-.06-4,.54.22,0-7.57-2,.18.13,15.14-25.9a5.5,5.5,0,0,1-.57-.36l3,2.35a7.07,7.07,0,0,1-1.16-1.16l2.34,3a56.33,56.33,0,0,1-2.68-5c-1.7-2.92-4.1-5.39-6.17-8.05l2.34,3a32.74,32.74,0,0,1-2.56-4.59c-1.92-3.62-5-6.16-8.45-8.26-3.22-2-6.44-3.94-9.75-5.76-7.55-4.17-15.73-7.91-24.28-9.39a11.47,11.47,0,0,0-6-.27A11.31,11.31,0,0,0,115,4.84a15.31,15.31,0,0,0-6.9,9c-.87,3.84-.68,8.15,1.51,11.56,2,3.1,5.18,6.24,9,6.89a56.19,56.19,0,0,1,12.17,3.67l-3.59-1.51a101.91,101.91,0,0,1,10.28,5.18,92.22,92.22,0,0,1,9.61,5.85l-3-2.35a6.8,6.8,0,0,1,.81.8l-2.35-3c1.08,1.47,1.57,3.27,2.61,4.78,1.69,2.46,3.67,4.68,5.51,7l-2.34-3a30.06,30.06,0,0,1,2.81,5,21.26,21.26,0,0,0,8.24,8.78,15.56,15.56,0,0,0,11.55,1.51,15.35,15.35,0,0,0,9-6.89c1.84-3.48,2.76-7.7,1.51-11.56l-1.51-3.58a15.07,15.07,0,0,0-5.38-5.38,4.34,4.34,0,0,0-2-.9,11.47,11.47,0,0,0-5.78-1.29,15.66,15.66,0,0,0-15.84,15.76,21.45,21.45,0,0,0,.66,4.57A38.56,38.56,0,0,0,153.77,61a23.4,23.4,0,0,0,2.31,4,47.11,47.11,0,0,0,5.08,6.19,15.5,15.5,0,0,0,10.6,4.4,15.27,15.27,0,0,0,10.61-4.4c2.62-2.86,4.57-6.61,4.39-10.6a15.56,15.56,0,0,0-4.39-10.61Z"/><path class="cls-1" d="M132.86,186.43a54.23,54.23,0,0,1,.31-10L131,192.35a26.5,26.5,0,0,1,1.56-6.82l-6,14.33a9.7,9.7,0,0,1,.86-1.5L118,210.5a7.74,7.74,0,0,1,.93-1l-12.14,9.39a5.25,5.25,0,0,1,1.24-.71l-14.34,6a8,8,0,0,1,1.6-.36l-16,2.14c7.73-.73,15.52-1.24,23.14-2.94A29.73,29.73,0,0,0,106.2,222c3-1.07,6-2.47,8.77-3.66s5.91-2.34,8.72-3.74c4.34-2.17,7.84-5.7,12.29-7.66l-14.33,6a13.56,13.56,0,0,1,2.81-.83l-16,2.15a9.74,9.74,0,0,1,2.53,0l-16-2.14a10.37,10.37,0,0,1,1.87.51l-14.34-6a13.1,13.1,0,0,1,2.79,1.66L73.26,198.9c2.8,2.22,5.36,4.77,8,7.17l8.36,7.6,12.14,9.38,14.34,6,16,2.14a45.14,45.14,0,0,0,23.11-5.16,30,30,0,0,0,13.24-7.72,30.07,30.07,0,0,0,10.76-10.76,30,30,0,0,0,7.72-13.24,45.18,45.18,0,0,0,5.17-23.12c.58-5.06,1.1-10.13,1.77-15.18L191.69,172a31.19,31.19,0,0,1,1.85-7.62l-6,14.33a14.49,14.49,0,0,1,1.74-3.09l-9.39,12.15a11,11,0,0,1,1.76-1.79l-12.15,9.38a10.42,10.42,0,0,1,1.93-1.14L81.11,142.42l0,.44,2.14-16a10.64,10.64,0,0,1-.7,2.54l6-14.33c-.19.41-.39.79-.61,1.17a44.58,44.58,0,0,0-7.12,22.31,45.39,45.39,0,0,0,1.07,23.92,45.1,45.1,0,0,0,10.74,20.41,45.34,45.34,0,0,0,16.83,15.45l14.33,6.05a60.37,60.37,0,0,0,31.9,0L170,198.38a60.3,60.3,0,0,0,21.52-21.52c7.26-12.25,8.2-20.58,9.55-34.44a59.65,59.65,0,0,0-8.19-30.28,60,60,0,0,0-82.09-21.53,11.19,11.19,0,0,0-1.55.87,3.37,3.37,0,0,0-.38.28l-12.15,9.38c-.24.2-.48.39-.71.61a14.27,14.27,0,0,0-1,1.17l-9.38,12.15c-.1.12-.19.25-.28.38s-.3.44-.44.67a15.76,15.76,0,0,0-.82,1.58c-2.15,4.62-4.36,10-6.25,14.79-.12.31-.25.62-.36.94a26.06,26.06,0,0,0-1,3.46c-1.64,7.8-2.31,15.8-3.23,23.72l-1.23,10.63,102.42-42.42-10.91-9.92c-10.5-9.54-21.67-19.25-36-22.35-12.47-2.69-24-3.47-36.39.24a103.27,103.27,0,0,0-16.75,7A26.68,26.68,0,0,0,72,105.2c-3.48,2.24-6.62,4.85-10.44,6.52l14.33-6a31.45,31.45,0,0,1-7.85,2.17l16-2.15c-1.28.16-2.54.21-3.82.28-14,.83-20.79,2.32-33.09,8.78-4.85,2.55-9.36,6.52-13.13,10-.16.16-.33.3-.48.47l-.32.39-9.38,12.14a12,12,0,0,0-.78,1.34c-1.68,3.43-4.78,11.11-6.19,14.66-.11.27-.22.55-.32.83a22.29,22.29,0,0,0-.76,3.23c-.13.71-.25,1.42-.35,2.13-.84,5.84-1.72,11.73-2.35,17.61a53.26,53.26,0,0,0-.17,8.84A45.18,45.18,0,0,0,18,209.55a45,45,0,0,0,12.4,19.31,45,45,0,0,0,19.31,12.4,45.18,45.18,0,0,0,23.12,5.17l16-2.14a60.05,60.05,0,0,0,26.48-15.43l9.38-12.15a59.63,59.63,0,0,0,8.19-30.28Z"/><path class="cls-1" d="M83.42,318.84,88,320V291.08l-1.72.43a15.2,15.2,0,0,0-9,6.89L75.81,302a11.47,11.47,0,0,0-.27,6,7.51,7.51,0,0,0,1,3.78,11.14,11.14,0,0,0,3.1,4.83A15.93,15.93,0,0,0,90.27,321c4.46.14,8.26-1.12,12.21-3a14.29,14.29,0,0,0,2.3-1.35,33.29,33.29,0,0,0,4.92-4A27.75,27.75,0,0,0,115,305a38.56,38.56,0,0,0,2.28-6,48.1,48.1,0,0,0,1-7.06,46.7,46.7,0,0,0-.74-10.75,65.73,65.73,0,0,0-1.34-6.82,47.68,47.68,0,0,0-2.1-6.49,45.75,45.75,0,0,0-4.58-9.18,75.33,75.33,0,0,0-11.22-12.84A31.47,31.47,0,0,0,87.1,239.1a22.86,22.86,0,0,0-12.65-.24,20.74,20.74,0,0,0-12.38,9.39,26.61,26.61,0,0,0-3.16,9.66,76.78,76.78,0,0,0-1.09,10.6,70.94,70.94,0,0,0,1,11.08c1,6.59,3.41,12.92,8,17.83a12,12,0,0,0,1.07,1,28.22,28.22,0,0,0,4,2.93,21.32,21.32,0,0,0,9.56,2.7A17.62,17.62,0,0,0,91,301.53a28.93,28.93,0,0,0,3.14-2.44,18.63,18.63,0,0,0,2.61-3.32A23.32,23.32,0,0,0,98.34,292a12.73,12.73,0,0,0,.58-4.51A15,15,0,0,0,93,275.67a11.32,11.32,0,0,0-5.1-2.68,15,15,0,0,0-8,0A35.81,35.81,0,0,0,67.2,280.6a33.15,33.15,0,0,0-8,12.51,12.47,12.47,0,0,0-.64,2,26.16,26.16,0,0,0-.72,5.63,19.86,19.86,0,0,0,3,10.57A19,19,0,0,0,77,320.37a21.67,21.67,0,0,0,4.6-.62A23.11,23.11,0,0,0,85.74,318l3-2.34,2.35-3L92.63,309a11.28,11.28,0,0,0,.27-6,14.68,14.68,0,0,0-3-7.1,7.62,7.62,0,0,0-2.69-2.69,11.3,11.3,0,0,0-5.11-2.68l-10.31-4.32,3.58,1.51a9.48,9.48,0,0,1-2.15-1.16l3,2.34a3.29,3.29,0,0,1-.55-.57l2.35,3a6.11,6.11,0,0,1-.58-1L79,294a59.8,59.8,0,0,1-2.62-9.49c-.75-3.24-1.4-6.49-2-9.76-1.25-6.38-2.43-12.8-4.2-19.07a92.7,92.7,0,0,0-7.84-19.59,64.22,64.22,0,0,0-13.3-16.59c-5.08-4.59-10.63-8.69-14.87-14.12l2.34,3a30.55,30.55,0,0,1-3.73-6.21l1.51,3.58a24.84,24.84,0,0,1-1.06-3,15.34,15.34,0,0,0-6.9-9l-3.58-1.51a11.27,11.27,0,0,0-6-.27A7.43,7.43,0,0,0,13,193a11.29,11.29,0,0,0-4.82,3.1l-2.35,3a14.91,14.91,0,0,0-2.05,7.57,218.83,218.83,0,0,0,2.28,54.64q1,6.21,2.39,12.35A73,73,0,0,0,12.92,287a33.83,33.83,0,0,0,8,11.31,55.13,55.13,0,0,0,12.58,8.26c10.2,5.21,20.81,9.44,32.4,9.71l4-.53A11.34,11.34,0,0,0,75,313a7.38,7.38,0,0,0,2.69-2.69,11.34,11.34,0,0,0,2.69-5.1,16.86,16.86,0,0,0,.88-5.48,22,22,0,0,0-.68-5.5,27.42,27.42,0,0,0-2-5.07,13.78,13.78,0,0,0-1-1.78,82.34,82.34,0,0,0-7.63-9c-4-4.26-7.94-8.53-11.5-13.13l2.34,3a61.52,61.52,0,0,1-8-13.31l1.51,3.58A43.49,43.49,0,0,1,51.21,248l.54,4a33.63,33.63,0,0,1-.06-8.68l-.53,4a28.3,28.3,0,0,1,1.66-6.4,11.38,11.38,0,0,0,.26-6,11.11,11.11,0,0,0-1.78-5.58,15.25,15.25,0,0,0-9-6.89c-3.84-.88-8.15-.69-11.56,1.51l-3,2.34a15,15,0,0,0-3.86,6.62,28.33,28.33,0,0,0-1.63,6.2,49,49,0,0,0-.79,10,52.76,52.76,0,0,0,3.29,16.25,69.67,69.67,0,0,0,7.66,14.89,139.45,139.45,0,0,0,10.65,13.33c3.4,3.8,7.18,7.35,10.33,11.36l-2.35-3a14.31,14.31,0,0,1,1.71,2.83l-1.51-3.58a9.78,9.78,0,0,1,.44,1.49l-.54-4a6.28,6.28,0,0,1,0,1.5l.54-4a7.26,7.26,0,0,1-.31,1.13l14.46-11a38.81,38.81,0,0,1-4-.3l4,.54a53.92,53.92,0,0,1-13.39-3.87L56,284.11c-2.8-1.19-5.53-2.52-8.22-3.91a48.41,48.41,0,0,1-7.59-4.52l3,2.35a21.8,21.8,0,0,1-3.39-3.4l2.35,3a28.06,28.06,0,0,1-3.48-6l1.51,3.58a69.28,69.28,0,0,1-3.52-12.34q-1.56-7.42-2.56-15l.53,4a204.9,204.9,0,0,1-.93-45.17l-29.46,4C6.76,219.46,12.36,226.94,19,233c5.36,4.91,11.26,9.2,15.74,15l-2.35-3a56.46,56.46,0,0,1,7,12.33l-1.51-3.58c3.25,7.82,5.08,16.09,6.71,24.38.89,4.5,1.72,9,2.73,13.49.5,2.24,1,4.46,1.66,6.67.28,1,.55,2,.89,3a23.17,23.17,0,0,0,4.72,8.34,20.5,20.5,0,0,0,3.9,3.17,11,11,0,0,0,1.64.84c2.22,1,4.46,1.88,6.69,2.81l7.4,3.09L70.6,292.1l-.3.13,3.59-1.51a2.61,2.61,0,0,1-.61.16l4-.54a4.22,4.22,0,0,1-.94,0l4,.54a5.76,5.76,0,0,1-.92-.28L83,292.1a5.63,5.63,0,0,1-.85-.51l3,2.35a5.87,5.87,0,0,1-.72-.69l2.35,3a5.65,5.65,0,0,1-.68-1.13l1.52,3.58a8.2,8.2,0,0,1-.31-1.18l.54,4a8.07,8.07,0,0,1,0-1.63l-.53,4a11.92,11.92,0,0,1,.78-2.82l-1.51,3.59A18,18,0,0,1,88.73,301l-2.35,3a19.82,19.82,0,0,1,3.49-3.48l-3,2.35a18.87,18.87,0,0,1,4-2.26l-3.58,1.51c.23-.1.47-.19.71-.27l-19-14.47v.28l.54-4-.06.25,1.52-3.59-.11.23,2.34-3a1.45,1.45,0,0,1-.36.38l3-2.35a2.19,2.19,0,0,1-.5.27l3.58-1.51a2.94,2.94,0,0,1-.58.16l4-.54a3.79,3.79,0,0,1-.89,0l4,.54a7.64,7.64,0,0,1-1.55-.45l3.58,1.52a9.32,9.32,0,0,1-1.36-.8l3,2.35a10,10,0,0,1-1.61-1.58l2.35,3A14.45,14.45,0,0,1,88,275.38L89.51,279a31.08,31.08,0,0,1-1.79-7.35l.54,4a49.26,49.26,0,0,1,0-12.78l-.54,4a25.85,25.85,0,0,1,1.44-6.33l-1.51,3.58a7.94,7.94,0,0,1,.78-1.31l-2.34,3a6.21,6.21,0,0,1,1-.94l-3,2.34a6.79,6.79,0,0,1,1.18-.65l-3.58,1.51a7.81,7.81,0,0,1,1.66-.44l-4,.54a9.31,9.31,0,0,1,2.11,0l-4-.54a9.9,9.9,0,0,1,2.43.69l-3.59-1.52a15.14,15.14,0,0,1,2.8,1.72l-3-2.34a58.32,58.32,0,0,1,9,9.46l-2.35-3a31.69,31.69,0,0,1,4,6.87l-1.51-3.58a54.55,54.55,0,0,1,3.44,13.31l-.54-4a31,31,0,0,1,.11,7.64l.53-4a19.86,19.86,0,0,1-1.18,4.59l1.51-3.59a16.6,16.6,0,0,1-2,3.47l2.34-3a15.5,15.5,0,0,1-2.54,2.58l3-2.34a13.53,13.53,0,0,1-2.74,1.64l3.58-1.51a11.39,11.39,0,0,1-2.7.75l4-.53a11.73,11.73,0,0,1-1.78.07l4,29.47L96,320l3.58-1.52a11.34,11.34,0,0,0,4.21-3.86,14.24,14.24,0,0,0,3.22-9.09,17.76,17.76,0,0,0-2-7.57,15.22,15.22,0,0,0-9-6.89l-4.59-1.17a15.69,15.69,0,0,0-11.56,1.51,15.27,15.27,0,0,0-6.89,9c-.88,3.84-.69,8.15,1.51,11.56a15.43,15.43,0,0,0,9,6.89Z"/><path class="cls-1" d="M189.18,141.75a54.68,54.68,0,0,0-6.14.71,18.82,18.82,0,0,0-2.35.48,21,21,0,0,0-2.2.73,57,57,0,0,0-5.61,2.48,16.71,16.71,0,0,0-6.89,9,11.38,11.38,0,0,0-.27,6,11.21,11.21,0,0,0,1.78,5.58l2.35,3a14.94,14.94,0,0,0,6.62,3.85l4,.54a14.91,14.91,0,0,0,7.57-2c.59-.32,1.2-.61,1.81-.87l-3.58,1.51a19.89,19.89,0,0,1,4.92-1.32l-4,.53c.66-.08,1.33-.13,2-.15a16.7,16.7,0,0,0,10.61-4.39,11.33,11.33,0,0,0,3.1-4.83,11.29,11.29,0,0,0,1.29-5.78l-.53-4a15.05,15.05,0,0,0-3.86-6.62l-3-2.34a14.91,14.91,0,0,0-7.57-2.05Z"/><path class="cls-2" d="M91.46,84.43a25.66,25.66,0,0,1,12.12-5c2.37-.29,4.76,0,7.11-.47a17.52,17.52,0,0,1,7-.31,32.63,32.63,0,0,1,3.36.9,16.91,16.91,0,0,1,3.2,1.14c.93.54-.48,1.21-1.07,1.41a16.76,16.76,0,0,1-2.9.59c-2.26.37-4.31,1.41-6.5,2s-4.54,1.18-6.83,1.65A26.69,26.69,0,0,1,99,87a14.18,14.18,0,0,1-3.9-1c-.67-.29-2.53-1.09-2.66-1.94l-.15,1.16c.37-.78,2-1.5,2.74-1.91a20.82,20.82,0,0,1,3.54-1.59,28.26,28.26,0,0,1,7.51-1.48,50.81,50.81,0,0,1,8.72.3c1.56.17,3.11.4,4.66.65.84.13,2.68.14,3.26.9l.54-2.05c-2.17,1-4.63,1.17-6.89,1.94s-4.07,1.84-6.21,2.5a24.22,24.22,0,0,1-6.79.78c-2.22,0-4.53.22-6.75,0-.43,0-.82-.2-1.24-.25-.2-.24-.38-.22-.54,0,.21-.15.42-.29.64-.42a29.91,29.91,0,0,1,2.67-1.45,24.3,24.3,0,0,1,6.17-2c4.8-.87,9.59.62,14.25,1.65V80c-6.37,2.32-13,4.75-20,4.21-.39,0-.78-.07-1.17-.13l-.72-.11.11,1.24a24.93,24.93,0,0,0,2.53-1,40.42,40.42,0,0,1,4.86-1.29,38.55,38.55,0,0,1,10.06-.61l-1.06-2.56c-1.41,1.76-3.54,2.31-5.69,2.61-2.81.38-5.67.54-8.5.8L99.81,86a12.1,12.1,0,0,1,5.39-1.85c1.91-.17,1.92-3.17,0-3a15.4,15.4,0,0,0-6.9,2.26c-1.17.73-.81,2.94.76,2.8,3.21-.3,6.46-.46,9.64-1a10.28,10.28,0,0,0,6.67-3.33,1.52,1.52,0,0,0-1.06-2.56,41.77,41.77,0,0,0-12.65,1.12,27.93,27.93,0,0,0-6,2c-1.48.76-2.47,2.67-.85,3.91a5,5,0,0,0,2.45.69,24.61,24.61,0,0,0,3.21.22,33,33,0,0,0,6.35-.62,78.85,78.85,0,0,0,12.56-3.76c1.28-.47,1.56-2.55,0-2.9-4.41-1-9-2.35-13.54-2A27.71,27.71,0,0,0,94,82.12c-1.69,1-2.83,2.76-1.32,4.56,1.15,1.38,3,1.65,4.68,1.67,2.31,0,4.64,0,7-.08a25.08,25.08,0,0,0,6.46-.8c2.37-.7,4.5-2,6.85-2.71s4.88-1,7.18-2.1a1.51,1.51,0,0,0,.54-2c-1.11-1.47-2.58-1.88-4.33-2.17-2.3-.37-4.6-.71-6.91-1a42.23,42.23,0,0,0-12.94.44,25,25,0,0,0-10.3,4.63c-.64.5-1.32,1-1.34,1.93a3.3,3.3,0,0,0,1.28,2.26,11.57,11.57,0,0,0,5,2.65c4.14,1.15,8.51.61,12.65-.27,2.06-.44,4.12-.93,6.15-1.51s3.9-1.54,5.94-1.94c1.75-.33,3.58-.42,5.11-1.44s2.59-2.86,1.69-4.6-3-2.13-4.59-2.68a29.69,29.69,0,0,0-6.22-1.5c-2.47-.27-4.63.35-7,.69s-4.76.1-7.13.46a28,28,0,0,0-12.4,5.23c-1.52,1.14,0,3.75,1.52,2.59Z"/><path class="cls-2" d="M132.16,65.45a5.33,5.33,0,0,0-.85,1.86,3,3,0,0,0,0,1.5,2.34,2.34,0,0,0,1,1.3,4.42,4.42,0,0,0,2,.58,5.44,5.44,0,0,0,2-.08,2.87,2.87,0,0,0,2.1-1.83,5.1,5.1,0,0,0,.14-1.1,4.17,4.17,0,0,0-.09-1.11,2.66,2.66,0,0,0-1.75-1.94,4.18,4.18,0,0,0-1.76-.2,2.19,2.19,0,0,0-1.77.94,2,2,0,0,0,0,2.07,2.33,2.33,0,0,0,1.28,1,2.23,2.23,0,0,0,1.7-.16,1.5,1.5,0,0,0-.36-2.75,1.71,1.71,0,0,0-1.15.16l-.05,0,.36-.15a.66.66,0,0,1-.15,0l.4,0a.38.38,0,0,1-.15,0l.4.06-.2,0,.36.15-.18-.1.3.23a1,1,0,0,1-.15-.14l.24.31a1.62,1.62,0,0,1-.1-.18l.15.36a.83.83,0,0,1,0-.15l.06.4a.24.24,0,0,1,0-.12l-.06.4a.74.74,0,0,1,0-.14l-.15.36,0-.06-.23.3a.6.6,0,0,1,.08-.08l-.31.24.1-.06-.35.16.17,0-.4.06a4.44,4.44,0,0,1,1,0l-.4,0a2.12,2.12,0,0,1,.45.12l-.35-.15a1.22,1.22,0,0,1,.29.17l-.3-.24a1.29,1.29,0,0,1,.16.17l-.23-.31a1.43,1.43,0,0,1,.15.27l-.15-.36a1.6,1.6,0,0,1,.11.43l0-.4a4.18,4.18,0,0,1,0,1.06l0-.39a1.64,1.64,0,0,1-.07.28l.15-.36a1.62,1.62,0,0,1-.1.18l.23-.31a1.14,1.14,0,0,1-.19.19l.3-.23a1.84,1.84,0,0,1-.41.24l.36-.15a2.83,2.83,0,0,1-.65.17l.4-.06a5.15,5.15,0,0,1-1.24,0l.4,0a4.44,4.44,0,0,1-1-.21l.36.15a2.69,2.69,0,0,1-.29-.16l.3.23a.54.54,0,0,1-.15-.15l.23.31a1.18,1.18,0,0,1-.11-.19l.15.36a1.3,1.3,0,0,1,0-.21l0,.4a1.31,1.31,0,0,1,0-.28l0,.4a4,4,0,0,1,.26-.9l-.15.36a4.21,4.21,0,0,1,.49-.88,1.5,1.5,0,0,0-.54-2,1.47,1.47,0,0,0-1.16-.15,1.67,1.67,0,0,0-.89.68Z"/><path class="cls-2" d="M75,67.09a20.17,20.17,0,0,0-.17,2.57,2.93,2.93,0,0,0,1.64,2.67,5.22,5.22,0,0,0,1.29.4,5,5,0,0,0,1.43.13A3,3,0,0,0,81,72.05a4,4,0,0,0,.87-1.47,4.72,4.72,0,0,0-1.4-5.13,3.84,3.84,0,0,0-3.18-1,2.44,2.44,0,0,0-1.51,1.06,2.6,2.6,0,0,0-.23,2C75.8,68.62,76,70,77,70.64a2.08,2.08,0,0,0,2.49-.31,2.92,2.92,0,0,0,.76-2,1.51,1.51,0,0,0-1.5-1.5,1.54,1.54,0,0,0-1.5,1.5c0,.09,0,.18,0,.27l0-.4a1.55,1.55,0,0,1,0,.21c0,.15-.13.19,0-.08,0,0,.24-.25.09-.12A.7.7,0,0,1,77.7,68c.13,0,.14-.06,0,0l.4,0h-.08l.4,0c-.15,0-.1,0,.14.09s.23.19.12.09l.13.18c-.07-.14-.06-.1,0,.12,0-.19-.11-.38-.15-.58-.1-.45-.22-.9-.29-1.35l0,.39a1.45,1.45,0,0,1,0-.36l-.06.4c.07-.26-.13.25-.05.11s0,0,0,.06a.55.55,0,0,1-.26.24l.13-.08c-.24.09-.3.12-.19.09l.11,0-.4.05a2.41,2.41,0,0,1,.38,0l-.4,0,.29.06c.06,0,.3.14.08,0s0,0,.05,0l.21.12.17.11c.23.16,0-.08-.09-.07s.28.25.32.3.14.13.13.15-.23-.32-.06-.08a2.77,2.77,0,0,1,.22.37c0,.06.13.28,0,0s0,0,0,.07a3.13,3.13,0,0,1,.12.53l-.05-.4a3.39,3.39,0,0,1,0,.9l.05-.4a3.12,3.12,0,0,1-.11.53l-.06.17.08-.19c-.06.07-.09.2-.14.27s-.2.31,0,.09-.23.18,0,0-.28.18,0,0c.13-.05.13-.06,0,0l-.17,0,.4,0a3.37,3.37,0,0,1-.71,0l.39,0c-.22,0-.45-.07-.67-.12L78,69.71l-.15,0c-.15,0-.1,0,.13.07-.06,0-.23-.08-.27-.15l.18.14-.11-.11c.15.2.18.23.09.1s-.06-.1.05.13a1.87,1.87,0,0,0-.08-.32l.05.4a7.15,7.15,0,0,1,0-1.31L78,67.09a1.5,1.5,0,0,0-3,0Z"/><path class="cls-3" d="M92.66,284.84a8.31,8.31,0,0,0-2.75,4.68,10.92,10.92,0,0,0,0,5.7,6.5,6.5,0,0,0,4.92,3.67,5.14,5.14,0,0,0,3.18-.46,4,4,0,0,0,1.18-.91,9,9,0,0,1,.84-.95l-2.2-1.7a6.25,6.25,0,0,1-.71,1.23,1.5,1.5,0,0,0,.53,2c1.92.88,3.72-.43,4.91-1.9a8.84,8.84,0,0,0,2-4.81,7.44,7.44,0,0,0-5.12-7.62,8,8,0,0,0-5.7.55c-1.75.93-2.09,3.09-2.4,4.87a8.4,8.4,0,0,0,.65,5.73,5.2,5.2,0,0,0,4.09,2.7,5.63,5.63,0,0,0,4.7-2.71c1-1.45,2.17-3.36,1.72-5.2-.81-3.27-6.57-6.46-8.52-2.43a6.85,6.85,0,0,0-.13,5.47,4.46,4.46,0,0,0,4.06,2.85,3.6,3.6,0,0,0,3.59-3.55c0-1.82-1.49-4.11-3.44-4.26a2.82,2.82,0,0,0-2.56,1.41,4.46,4.46,0,0,0-.57,2.92c.27,1.11,1.31,1.55,2.31,1.83a6.9,6.9,0,0,0,3.06.23,2.26,2.26,0,0,0,1.77-2.44,3.32,3.32,0,0,0-1.44-2.49c-1.6-1.14-4.57-.28-4.19,2A2.05,2.05,0,0,0,98.89,293a1.5,1.5,0,1,0-.8-2.9l-.13,0h.79c.67.66.75,1.18.24,1.58a.3.3,0,0,1-.18,0c-.12,0-.09,0,.09,0-.1,0-.07,0,.09.07-.19-.17.13.14,0,0,.23.2-.08.13,0-.05l.54-.54s.09,0,.08,0a1.21,1.21,0,0,0-.33,0,3.89,3.89,0,0,1-.59,0,5.08,5.08,0,0,1-.86-.19,1.35,1.35,0,0,0-.32-.11c-.1-.05-.13-.06-.1,0l.36.67s.13-.7.15-.76.15-.09.11-.1-.34,0-.37,0-.17-.19.06.07c.08.09.18.18.26.28a2,2,0,0,1,.41.82c0-.09,0,.35,0,.3s-.06.17,0,.15.1-.15,0,0a.73.73,0,0,1-.5.26,1,1,0,0,1-.72-.21,2.34,2.34,0,0,1-.85-1.64,3.58,3.58,0,0,1,.4-2.33c-.09.12.21-.09,0,0a.48.48,0,0,1,.32,0,3.5,3.5,0,0,1,1,.51,3.4,3.4,0,0,1,1.39,1.54.83.83,0,0,1,0,.39,2.15,2.15,0,0,1-.16.41,15.39,15.39,0,0,1-.75,1.38,4.23,4.23,0,0,1-1.74,1.86,1.43,1.43,0,0,1-1.66-.2,4.14,4.14,0,0,1-.53-.56,2.77,2.77,0,0,1-.51-1.05,6.56,6.56,0,0,1,0-2.89c.1-.57.23-1.14.37-1.7a2.26,2.26,0,0,1,.37-1,4.1,4.1,0,0,1,2.34-.54,3.89,3.89,0,0,1,2.25.62,4.57,4.57,0,0,1,2,4.25,5.67,5.67,0,0,1-1,2.56,6.06,6.06,0,0,1-.87,1,3.2,3.2,0,0,1-.51.4c-.3.18-.33.06,0,.21l.54,2.06a9.49,9.49,0,0,0,1-1.95,1.51,1.51,0,0,0-2.2-1.69,22.83,22.83,0,0,0-1.64,1.62,1.83,1.83,0,0,1-1.46.36c-1-.12-2.6-1-2.78-2.14a9.54,9.54,0,0,1,.3-3.85,5.33,5.33,0,0,1,1.89-3,1.5,1.5,0,0,0,0-2.12,1.54,1.54,0,0,0-2.12,0Z"/><path class="cls-3" d="M92.32,268.4a3.12,3.12,0,0,0,.42,2.54,3,3,0,0,0,2.49,1.35A3.07,3.07,0,0,0,97.78,271a3.14,3.14,0,0,0,.17-2.86,3.9,3.9,0,0,0-.8-1.32,3.48,3.48,0,0,0-1.31-.83,3,3,0,0,0-2.65.33,4.83,4.83,0,0,0-1.57,1.76,4.42,4.42,0,0,0-.62,2.65,2.89,2.89,0,0,0,.77,1.63,3.29,3.29,0,0,0,1.48.8,3.4,3.4,0,0,0,2.94-.19,1.64,1.64,0,0,0,.69-.9,1.5,1.5,0,0,0-1-1.84,1.45,1.45,0,0,0-1.15.15,1.34,1.34,0,0,1-.23.13l.36-.15a1.09,1.09,0,0,1-.31.08l.4-.05a1.85,1.85,0,0,1-.47,0l.4.06a5.07,5.07,0,0,1-1.16-.3l.36.15a1.87,1.87,0,0,1-.31-.17l.3.23a1.36,1.36,0,0,1-.24-.24l.24.3a1.16,1.16,0,0,1-.14-.24l.15.36a1.82,1.82,0,0,1-.11-.4l.06.4a2.09,2.09,0,0,1,0-.5l0,.4a3.3,3.3,0,0,1,.22-.74L94,270a5.81,5.81,0,0,1,.62-1.08l-.23.31a3,3,0,0,1,.5-.51l-.3.23a2.05,2.05,0,0,1,.43-.26l-.36.15a2,2,0,0,1,.42-.11l-.4.05a1.77,1.77,0,0,1,.4,0l-.39-.06a1.94,1.94,0,0,1,.39.12l-.36-.16a2.22,2.22,0,0,1,.42.25l-.31-.23a1.82,1.82,0,0,1,.34.34l-.23-.3a2.46,2.46,0,0,1,.28.5l-.15-.36a3.25,3.25,0,0,1,.17.63l-.06-.4a2.48,2.48,0,0,1,0,.61l0-.4a1,1,0,0,1-.06.22l.16-.36a2.07,2.07,0,0,1-.15.25l.23-.31a1.73,1.73,0,0,1-.23.24l.3-.24a1.72,1.72,0,0,1-.37.22l.35-.15a2,2,0,0,1-.42.11l.4-.06a2.16,2.16,0,0,1-.44,0l.4.05a1.48,1.48,0,0,1-.36-.1l.36.15a1.29,1.29,0,0,1-.32-.19l.3.24a1.6,1.6,0,0,1-.26-.26l.24.31a2,2,0,0,1-.22-.37l.15.36a1.49,1.49,0,0,1-.13-.47l0,.4a2.16,2.16,0,0,1,0-.36l0,.4a2,2,0,0,1,0-.24,1.5,1.5,0,0,0-2.9-.8Z"/><path class="cls-3" d="M80.49,276.59a2.27,2.27,0,0,0-1,0,2,2,0,0,0-.56.24,2.61,2.61,0,0,0-.84.91,4.53,4.53,0,0,0-.6,2,2.44,2.44,0,0,0,3.21,2.5,3.39,3.39,0,0,0,1.72-1.38,8.06,8.06,0,0,0,.76-1.63,6.16,6.16,0,0,0,.42-1.73,2.14,2.14,0,0,0-1.55-2.18,3,3,0,0,0-3.66,2.14,1.5,1.5,0,0,0,1,1.85,1.53,1.53,0,0,0,1.84-1,1.72,1.72,0,0,1,.07-.21l-.15.36a1.38,1.38,0,0,1,.2-.33l-.24.3a1.72,1.72,0,0,1,.27-.27l-.3.23a2.08,2.08,0,0,1,.38-.22l-.35.15a1.56,1.56,0,0,1,.37-.1l-.4.06h.33l-.4-.06.27.07-.36-.15.14.08-.31-.23a.58.58,0,0,1,.12.1l-.23-.3a1.09,1.09,0,0,1,.08.15l-.15-.36a.27.27,0,0,1,0,.12l-.05-.4a1.6,1.6,0,0,1,0,.31l.05-.4a6.89,6.89,0,0,1-.49,1.6l.15-.36a4.88,4.88,0,0,1-.6,1.1l.24-.3a1.82,1.82,0,0,1-.31.31l.31-.24a1.37,1.37,0,0,1-.3.19l.36-.16a1.39,1.39,0,0,1-.33.1l.4-.06a.92.92,0,0,1-.33,0l.4.06L80,279.3l.36.15-.19-.1.3.23-.16-.16.24.3a1.32,1.32,0,0,1-.12-.2l.15.36a1.43,1.43,0,0,1-.07-.28l0,.39a2.06,2.06,0,0,1,0-.43l0,.4a3.91,3.91,0,0,1,.26-.82l-.15.36a1.82,1.82,0,0,1,.24-.43l-.24.3.15-.15-.3.23.16-.1-.35.16.09,0-.4.06H80l-.4,0h0a1.67,1.67,0,0,0,1.16-.15,1.59,1.59,0,0,0,.69-.9,1.57,1.57,0,0,0-.16-1.16,1.47,1.47,0,0,0-.89-.69Z"/><path class="cls-3" d="M107.3,276a2.4,2.4,0,0,0-1.16,2,3.28,3.28,0,0,0,.42,1.7,3.64,3.64,0,0,0,.94,1.16,3.82,3.82,0,0,0,1.61.89,2.61,2.61,0,0,0,2.09-.33,2.27,2.27,0,0,0,.78-.85,2.81,2.81,0,0,0,.22-2.06,3.81,3.81,0,0,0-.4-.9,8.2,8.2,0,0,0-.93-1.2,2.63,2.63,0,0,0-2-.92,2.15,2.15,0,0,0-2.07,1.56,1.66,1.66,0,0,0,.15,1.16,1.55,1.55,0,0,0,.9.69,1.52,1.52,0,0,0,1.16-.15,1.55,1.55,0,0,0,.69-.9.23.23,0,0,1,0-.11l-.15.36a.33.33,0,0,1,.06-.1l-.24.3.11-.1-.3.23.14-.08-.36.15.19-.05-.4.05h.25l-.4-.05a.73.73,0,0,1,.21.06l-.35-.15.25.16-.3-.24a4,4,0,0,1,.7.79l-.23-.31a3.2,3.2,0,0,1,.43.71l-.15-.36a1.72,1.72,0,0,1,.1.39l0-.4a2.41,2.41,0,0,1,0,.38l0-.4a1.34,1.34,0,0,1-.07.27l.15-.36a.72.72,0,0,1-.14.24l.24-.3a.86.86,0,0,1-.14.13l.31-.23a1.13,1.13,0,0,1-.21.12l.36-.15a1.38,1.38,0,0,1-.29.08l.4-.05a1.93,1.93,0,0,1-.34,0l.4.05a2,2,0,0,1-.42-.12l.36.15a2.81,2.81,0,0,1-.55-.34l.3.23a3.38,3.38,0,0,1-.54-.53l.23.3a3,3,0,0,1-.31-.52l.15.36a2.52,2.52,0,0,1-.13-.47l.05.39a1.61,1.61,0,0,1,0-.38l-.06.4a1.11,1.11,0,0,1,.09-.31l-.15.35a.6.6,0,0,1,.09-.15l-.24.3.12-.13-.3.24.11-.07a1.51,1.51,0,0,0,.69-.9,1.49,1.49,0,0,0-.15-1.15,1.52,1.52,0,0,0-2-.54Z"/><path class="cls-3" d="M125.62,275.68a5.48,5.48,0,0,0,1.33,2.64,3.33,3.33,0,0,0,1.47.84,3.13,3.13,0,0,0,2-.25,5.62,5.62,0,0,0,2.19-1.8,3.55,3.55,0,0,0,.3-3.17,4.28,4.28,0,0,0-1.75-2.66,2.75,2.75,0,0,0-2-.32,3.82,3.82,0,0,0-1.59.84,3.33,3.33,0,0,0-1.3,2.7,2.93,2.93,0,0,0,2,2.51,2.71,2.71,0,0,0,3.25-1.25,2.5,2.5,0,0,0,.1-2.15,2.35,2.35,0,0,0-1.6-1.39,1.5,1.5,0,0,0-.8,2.9c.24.05-.3-.2-.1-.06-.19-.16-.24-.21-.16-.13l.08.08-.15-.19c.07.13.05.08-.06-.16a2.09,2.09,0,0,0,0,.21l0-.4a1.7,1.7,0,0,1,0,.22l.06-.4c0,.15-.17.39,0,0-.11.23.26-.29,0,0q-.16.15.12-.09l-.13.07c.25-.1.3-.12.16-.08l-.13,0,.4-.06a1.93,1.93,0,0,1-.34,0l.4.05-.2,0c-.22,0,.29.15.14.07l-.15-.08,0,0,.05,0-.12-.12c-.12-.12.2.31.1.11a.41.41,0,0,1-.05-.09c0-.11,0,0,.08.21a1.18,1.18,0,0,0,0-.2l0,.4a1.61,1.61,0,0,1,0-.38l0,.4c0-.09.07-.21.08-.3-.1.22-.13.28-.07.17a.47.47,0,0,1,.05-.1l.09-.14-.11.14.2-.21a1.46,1.46,0,0,0,.19-.16c-.2.15-.24.18-.1.08l.16-.1.08,0c.14-.07.11-.06-.11,0a2,2,0,0,0,.36-.08l-.4.05H130l-.4-.06.16,0c.21,0-.11-.06-.13-.06s.13.08.17.1-.21-.21-.11-.08l.12.11c.12.11-.17-.25-.09-.11s.15.23.21.35,0,0,0-.1a.85.85,0,0,0,.06.17c0,.12.08.24.11.35a6.66,6.66,0,0,1,.22.88l0-.4a2.79,2.79,0,0,1,0,.5l.05-.4a1.06,1.06,0,0,1,0,.19c0,.06-.09.24,0,0s0,0,0,0l-.09.14c-.14.23.18-.2.07-.09s-.09.1-.14.14l-.27.25c-.14.12.26-.19.11-.09l-.17.12-.31.21c-.07,0-.35.15-.36.2s.32-.1.1,0l-.27.06.4-.05h-.32l.4,0s-.31,0-.31-.08.36.19.1,0a1.1,1.1,0,0,1-.14-.09c-.14-.08.22.21.11.08l-.12-.11s-.16-.2,0,0,0,0,0-.06-.11-.21-.17-.32,0,0,.05.11-.05-.11-.06-.17a6.86,6.86,0,0,1-.24-.77,1.5,1.5,0,0,0-2.89.79Z"/><path class="cls-3" d="M137.11,265.23a2.82,2.82,0,0,0,1,1.5,3,3,0,0,0,.88.48,2.6,2.6,0,0,0,.83.16h.23a3.19,3.19,0,0,0,.61-.08,2.55,2.55,0,0,0,.77-.35,3.12,3.12,0,0,0,1.21-1.56,3.06,3.06,0,0,0,.17-.85v-.23a4.28,4.28,0,0,0-.09-.61,3.55,3.55,0,0,0-.21-.54l-.12-.22a3.05,3.05,0,0,0-.55-.64,4,4,0,0,0-.47-.34,5.45,5.45,0,0,0-.55-.25,3.39,3.39,0,0,0-.83-.16,2.64,2.64,0,0,0-.84.08,1.9,1.9,0,0,0-.4.14,3.49,3.49,0,0,0-.39.19,3.1,3.1,0,0,0-1.27,1.66,2.74,2.74,0,0,0,0,1.81,1.26,1.26,0,0,0,.27.51,1.18,1.18,0,0,0,.42.38,1.51,1.51,0,0,0,2.06-.54,1.49,1.49,0,0,0,.15-1.15,1.81,1.81,0,0,1-.09-.31l.06.4a1.28,1.28,0,0,1,0-.39l-.05.4a1.53,1.53,0,0,1,.11-.42l-.15.36a1.68,1.68,0,0,1,.2-.34l-.24.31a2.06,2.06,0,0,1,.25-.26l-.3.24a1.14,1.14,0,0,1,.3-.18l-.36.15a1.13,1.13,0,0,1,.35-.09l-.4.05a2,2,0,0,1,.35,0l-.39-.05a2.08,2.08,0,0,1,.41.11l-.36-.15a1.68,1.68,0,0,1,.34.2l-.3-.24a2.37,2.37,0,0,1,.27.28l-.23-.3a1.75,1.75,0,0,1,.16.27l-.15-.36a1.77,1.77,0,0,1,.08.31l0-.4a1.27,1.27,0,0,1,0,.39l0-.39a1.56,1.56,0,0,1-.1.37l.15-.35a2,2,0,0,1-.21.37l.23-.31a1.18,1.18,0,0,1-.25.25l.3-.23a1.49,1.49,0,0,1-.3.18l.36-.15a1.77,1.77,0,0,1-.31.08l.4-.05h-.36l.4.05a1.78,1.78,0,0,1-.38-.1l.36.15a2,2,0,0,1-.37-.21l.3.23a2,2,0,0,1-.25-.25l.24.3a.92.92,0,0,1-.18-.3l.15.36a1.15,1.15,0,0,1-.06-.17,1.55,1.55,0,0,0-.69-.9,1.61,1.61,0,0,0-1.16-.15,1.5,1.5,0,0,0-.89.69,1.56,1.56,0,0,0-.15,1.16Z"/><path class="cls-3" d="M152.5,272.91a4.54,4.54,0,0,0-.56,2.06,4,4,0,0,0,.31,2.13,2.7,2.7,0,0,0,1.64,1.3,2.62,2.62,0,0,0,2.12-.29,2.84,2.84,0,0,0,1.24-1.73,3.21,3.21,0,0,0,0-1.31,2.8,2.8,0,0,0-.22-.57,2.54,2.54,0,0,0-.16-.28,3.35,3.35,0,0,0-.92-.88,3.15,3.15,0,0,0-.59-.27,1.61,1.61,0,0,0-.29-.09,3.09,3.09,0,0,0-2.24.4,5.56,5.56,0,0,0-1.5,1.52,2.17,2.17,0,0,0,0,2.85,1.56,1.56,0,0,0,1.06.44,1.54,1.54,0,0,0,1.06-.44,1.47,1.47,0,0,0,.44-1.06,1.5,1.5,0,0,0-.44-1.06.18.18,0,0,1-.05-.07l.23.31,0-.08.15.36a.19.19,0,0,1,0-.08l.05.4v-.17l-.05.4a.81.81,0,0,1,.07-.22l-.16.35a3.5,3.5,0,0,1,.41-.62l-.24.31a3.94,3.94,0,0,1,.63-.66l-.3.24a2.35,2.35,0,0,1,.46-.28l-.36.16a1.58,1.58,0,0,1,.37-.11l-.4.06a1.61,1.61,0,0,1,.38,0l-.4-.05a1.36,1.36,0,0,1,.36.1l-.36-.15a1.35,1.35,0,0,1,.33.19l-.3-.24.26.26-.23-.3a2.54,2.54,0,0,1,.16.28l-.15-.36a1.57,1.57,0,0,1,.08.31l-.05-.4a1.45,1.45,0,0,1,0,.36l.06-.4a1.91,1.91,0,0,1-.1.34l.15-.36a1.92,1.92,0,0,1-.18.31l.23-.31-.22.22.3-.24a.88.88,0,0,1-.23.14l.36-.15-.28.08.4-.06h-.34l.4.05a1.78,1.78,0,0,1-.33-.09l.36.15a1.35,1.35,0,0,1-.26-.15l.31.23a1,1,0,0,1-.21-.2l.23.3a1.28,1.28,0,0,1-.15-.25l.15.36a1.47,1.47,0,0,1-.08-.35l.05.4a6.09,6.09,0,0,1,0-1.28l-.05.4a2.76,2.76,0,0,1,.19-.75l-.15.36c0-.08.08-.16.13-.24a1.61,1.61,0,0,0,.15-1.16,1.54,1.54,0,0,0-.69-.89,1.52,1.52,0,0,0-2.05.53Z"/><path class="cls-3" d="M142.75,281.61c-2.57.09-4.43,2.31-5.65,4.36a13.42,13.42,0,0,0-2,6.8c0,2.47,1.2,4.74,3.68,5.46a10.38,10.38,0,0,0,6.52-.64,7.36,7.36,0,0,0,3.29-2.51,11.1,11.1,0,0,0,1.52-3.79l-3-.39a9.3,9.3,0,0,0,.51,2.28,1.5,1.5,0,0,0,2.94-.39,13.32,13.32,0,0,0-.38-4.12,17.61,17.61,0,0,0-1.13-3.77c-1.1-2.39-3.74-3.82-6.22-2.56a11.84,11.84,0,0,0-2.78,2.31,12.08,12.08,0,0,0-2.22,2.91c-1.18,2.31-1.29,5.16.54,7.16a4.64,4.64,0,0,0,6.34.46c2.09-1.61,2.61-4.18,2.82-6.67a4.15,4.15,0,0,0-.78-3.46,3.36,3.36,0,0,0-3.53-.69,7.32,7.32,0,0,0-4.33,5.58,4.36,4.36,0,0,0,1.13,3.93,3.33,3.33,0,0,0,3.86.57c2.52-1.49,2-5.27,1.1-7.56a1.52,1.52,0,0,0-2.74-.35c-1.06,1.56-1.79,3.78-.17,5.28s4.19.9,5.69-.24a1.58,1.58,0,0,0,.69-1.7,1.51,1.51,0,0,0-1.44-1.1,17.66,17.66,0,0,0-4.5,1,1.53,1.53,0,0,0-1,1.84,1.51,1.51,0,0,0,1.85,1,14.68,14.68,0,0,1,3.7-.88l-.76-2.79a2.65,2.65,0,0,1-2.12.65s.08.38,0-.1c0,.06,0-.17,0-.21a4,4,0,0,1,.7-1.28l-2.74-.36a8.28,8.28,0,0,1,.58,2.44,2.83,2.83,0,0,1-.2,1.62c-.08.11.09,0-.13.15,0,0,0-.06.07-.06s-.22-.05-.27-.09c-.39-.28-.38-.88-.31-1.33a4.42,4.42,0,0,1,2.34-3.21c.15-.06.33-.13.43-.05s0-.09,0,0c.13.2,0,.85,0,1.06,0,.41-.06.82-.11,1.23a4.76,4.76,0,0,1-1.74,3.54,1.64,1.64,0,0,1-2.44-.65c-.7-1.2-.19-2.72.5-3.82A12.25,12.25,0,0,1,144,285.2c3-2.09,3.82,6,3.67,7.59l2.95-.4a6.44,6.44,0,0,1-.4-1.49,1.52,1.52,0,0,0-1.3-1.48,1.5,1.5,0,0,0-1.64,1.08,8.15,8.15,0,0,1-1.18,3,4.8,4.8,0,0,1-2.34,1.48c-1.39.44-4.05,1.09-5.11-.3a3.84,3.84,0,0,1-.47-2.54,11.13,11.13,0,0,1,.74-3.1,10.85,10.85,0,0,1,1.52-2.67c.54-.7,1.36-1.75,2.33-1.78,1.92-.07,1.93-3.07,0-3Z"/><path class="cls-4" d="M150.55,13A9,9,0,0,0,154,13a10.58,10.58,0,0,0,2.26-.84c.88-.4,1.69-1,2.58-1.34l-1.07.45a6.15,6.15,0,0,1,1.2-.36l-1.19.16a4.12,4.12,0,0,1,.86,0l-1.2-.16a3.67,3.67,0,0,1,.67.18L157,10.6a3.74,3.74,0,0,1,.69.42l-.91-.7a5.66,5.66,0,0,1,.79.83l-.7-.91a8.06,8.06,0,0,1,.83,1.26l-.46-1.08a4.5,4.5,0,0,1,.14.49l-.17-1.2c.1.83.06,1.67.14,2.5.11,1.21.28,2.42.5,3.62l8.22-3.47a13.39,13.39,0,0,0-1.75-2.08,17.54,17.54,0,0,0-2.17-1.66A26.06,26.06,0,0,0,159,7a4.84,4.84,0,0,0-3.46-.45A4.52,4.52,0,0,0,152.43,12a4.47,4.47,0,0,0,2.07,2.68,21.94,21.94,0,0,1,3.81,2.15l-.91-.7a8.74,8.74,0,0,1,1.53,1.51l-.71-.91.1.14A4.81,4.81,0,0,0,161,19a4.67,4.67,0,0,0,2.93-.22,4.31,4.31,0,0,0,2.15-1.84,5,5,0,0,0,.46-3.47c-.09-.47-.16-.94-.23-1.41l.16,1.19c-.09-.7-.15-1.41-.19-2.13a11.76,11.76,0,0,0-.29-2.9,7.73,7.73,0,0,0-1.24-2.36,10.88,10.88,0,0,0-2.57-2.63,7.29,7.29,0,0,0-6.31-.82,47.88,47.88,0,0,0-4.34,2.06L152.62,4a5,5,0,0,1-1.19.33l1.19-.16a3.18,3.18,0,0,1-.69,0l1.19.16-.17,0a3.44,3.44,0,0,0-1.8-.08,3.46,3.46,0,0,0-1.67.53,4.65,4.65,0,0,0-2.07,2.69,4.61,4.61,0,0,0,.45,3.47A4.32,4.32,0,0,0,150.55,13Z"/><path class="cls-4" d="M37.22,30.93l0,.68h9A22.59,22.59,0,0,1,46,26l-.16,1.2a9.61,9.61,0,0,1,.63-2.29L46,26a7.8,7.8,0,0,1,.87-1.51l-.7.91a6.55,6.55,0,0,1,1.08-1.09l-.91.7a6.62,6.62,0,0,1,1.09-.64l-1.07.46a8.16,8.16,0,0,1,1.94-.51l-1.19.17a17.52,17.52,0,0,1,4.22,0l-1.2-.16.64.11-1.07-8.22c-3.69,1.88-6.19,5.28-8.53,8.57a4.5,4.5,0,0,0-.46,3.46,4.52,4.52,0,0,0,5.54,3.15A5.16,5.16,0,0,0,49,29.28c.52-.73,1-1.46,1.59-2.17l-.7.91a20.58,20.58,0,0,1,3.41-3.57l-.91.7a11.85,11.85,0,0,1,1.91-1.21,4.43,4.43,0,0,0,2.15-4.48,4.45,4.45,0,0,0-3.22-3.75c-4.45-.86-10.15-.6-13.26,3.16a12.28,12.28,0,0,0-2.77,5.92,19.48,19.48,0,0,0-.26,3.89c0,1,.16,1.95.28,2.93a4.92,4.92,0,0,0,1.32,3.18,4.5,4.5,0,0,0,7.68-3.18l0-.68a4.53,4.53,0,0,0-4.5-4.5,4.59,4.59,0,0,0-4.5,4.5Z"/><path d="M83.39,319.53c-23.08-2.43-50.65-5.93-65.19-26.42-7.57-10.67-10.47-23.8-12.33-36.54-2.18-15-3.8-30.33-2.27-45.49,1.51-14.88,5.54-29.36,8.84-43.91,1.62-7.15,3.07-14.33,4-21.6,1-7.79,1.13-15.6,1.38-23.43a137.37,137.37,0,0,1,2.69-23.32C22.07,91.34,24,83.94,26,76.56a142.22,142.22,0,0,1,7.1-21.7,81.4,81.4,0,0,1,9.1-15.57A86.41,86.41,0,0,1,70,15.19,84.32,84.32,0,0,1,88.72,7.68c3.69-1,7.45-1.63,11.19-2.34s7.78-1.49,11.72-1.87a55.68,55.68,0,0,1,21.09,2,49.47,49.47,0,0,1,9.78,4c3,1.66,5.79,3.82,8.93,5.3A42.54,42.54,0,0,1,160.24,20a59.33,59.33,0,0,1,7.1,6.9A80.73,80.73,0,0,1,178,42.24c12.94,24,14.45,51.47,17.73,77.94a282.72,282.72,0,0,0,7.73,40.92c3.11,11.16,4.69,22.75,6.63,34.16,1.32,7.74,1.41,15.66,1.49,23.5s0,15.47-.7,23.17c-1.26,14.18-4.9,27.77-11.9,40.22a93.17,93.17,0,0,1-11.58,16.3c-4.37,4.9-9.4,9.88-15.17,13.11-3.36,1.88-7.17,2.91-10.84,4a77.7,77.7,0,0,1-11.55,2.59c-6.9.89-14.3.32-20.4-3.29-5.23-3.09-9.13-8.57-9.34-14.75-.06-1.93-3.06-1.93-3,0a21,21,0,0,0,8.54,15.79c5.57,4.26,12.82,5.8,19.73,5.6,7.77-.22,15.56-2.39,22.87-4.94,6.83-2.38,12.41-7,17.5-12a96.06,96.06,0,0,0,22-34.17c5.42-14.27,6.7-29.67,6.82-44.81.06-8,0-16.06-.7-24-.59-6.44-2-12.79-3-19.16-1-6-2-12.14-3.42-18.09-1.73-7-3.7-13.84-5.1-20.89-5.48-27.69-5.08-56.56-13.75-83.61-4-12.44-9.87-24.38-18.47-34.3-4.39-5.07-9.48-9.88-15.68-12.62a87.27,87.27,0,0,1-9.25-5.29,50.31,50.31,0,0,0-9.8-4.38A58,58,0,0,0,113.88.3a94.57,94.57,0,0,0-11.74,1.57c-3.78.7-7.58,1.35-11.33,2.2a88.73,88.73,0,0,0-36,17.75A86.27,86.27,0,0,0,31.28,51.56a128.54,128.54,0,0,0-7.45,21.32c-2.07,7.63-4.07,15.3-5.75,23a139.13,139.13,0,0,0-3.14,23.7c-.35,8.08-.31,16.16-1.26,24.2-1.82,15.36-6.15,30.28-9.42,45.36a196.9,196.9,0,0,0-3.72,22.5,139.62,139.62,0,0,0,0,24.45c.6,7.53,1.5,15.07,2.63,22.54a118.12,118.12,0,0,0,4.51,19.83c4.13,12.34,11.52,22.92,22.61,29.93C40.77,315,53.08,318.21,65.2,320.2c6,1,12.11,1.69,18.19,2.33,1.92.2,1.9-2.8,0-3Z"/><path d="M79.92,267.75c4-7,11.87-12.17,20.15-10a21.64,21.64,0,0,1,5.89,2.74,26.93,26.93,0,0,1,4.83,3.66c2.92,2.94,4,7,4.78,11,1.7,8.89,1.92,18.25-.37,27.06a26.72,26.72,0,0,1-2.17,6,15.75,15.75,0,0,1-4.11,4.72,40.78,40.78,0,0,1-10.79,6.58c-3.94,1.51-8.57,2-12.45,0-4.09-2.1-5.54-6.39-6.81-10.51-.57-1.84-3.47-1.06-2.9.79,1.3,4.21,2.81,8.51,6.47,11.23a16.23,16.23,0,0,0,11.87,2.61c4.74-.66,9-3.06,12.94-5.75s7.47-5.65,9.35-10.24c3.82-9.37,3.88-20.24,2.4-30.1-.69-4.62-1.6-9.58-4.38-13.45-2.63-3.68-7-6.51-11.1-8.27a19.15,19.15,0,0,0-15.43.3,24.14,24.14,0,0,0-10.76,10.16,1.5,1.5,0,0,0,2.59,1.51Z"/><path d="M68.78,263.06c4.36-6,11.06-9.13,18.34-9.72,7.12-.59,15.49-.46,21.29,4.32a13.28,13.28,0,0,1,5.12,9c.15,1.92,3.15,1.93,3,0-.62-7.88-7.21-13.46-14.48-15.41a42.65,42.65,0,0,0-13.28-1,32.65,32.65,0,0,0-12.51,2.82,26.63,26.63,0,0,0-10.07,8.49c-1.14,1.57,1.46,3.07,2.59,1.52Z"/><path d="M171.3,267.77c-1.49-4.93-3.1-10-6.05-14.3a21,21,0,0,0-13.48-8.7,31.23,31.23,0,0,0-9.37-1,20.38,20.38,0,0,0-8.23,3.1,39.24,39.24,0,0,0-11.75,10.69,30.42,30.42,0,0,0-5.87,16.37c-.09,1.93,2.91,1.93,3,0,.44-9.55,6.49-18,14.24-23.27a25.16,25.16,0,0,1,6.67-3.45c2.81-.86,5.72-.42,8.56.07,5.12.87,9.75,2.63,13,6.84s4.85,9.44,6.37,14.44c.55,1.84,3.45,1.05,2.89-.8Z"/><path d="M124.65,261.25a20.32,20.32,0,0,1,31.11,3.89c1.05,1.62,3.64.12,2.59-1.51a23.35,23.35,0,0,0-35.82-4.5c-1.42,1.32.7,3.44,2.12,2.12Z"/><path d="M161.22,302.56a19.31,19.31,0,0,1-10.67,14.72,1.5,1.5,0,1,0,1.52,2.59,22,22,0,0,0,12-16.51,1.57,1.57,0,0,0-1.05-1.85,1.51,1.51,0,0,0-1.84,1.05Z"/><path d="M147.6,9.08c2.58-4.75,8.79-7.56,14-5.41a6,6,0,0,1,3.08,2.62,9.54,9.54,0,0,1,.78,4.51c0,2.72-.07,5.9-2.2,7.88-1.42,1.31.7,3.43,2.12,2.12,2.13-2,2.82-4.84,3-7.64s.25-6.26-1.37-8.79c-3.18-5-10.33-5.25-15.24-3A14.49,14.49,0,0,0,145,7.57c-.93,1.7,1.66,3.21,2.59,1.51Z"/><path d="M41.26,36.36a20.79,20.79,0,0,1-2.77-9.43,11.54,11.54,0,0,1,3.12-7.7c4-4.25,11.74-4.79,14.51,1.09.83,1.75,3.41.23,2.59-1.51A10.56,10.56,0,0,0,50.53,13,13.05,13.05,0,0,0,40,16.62a14.73,14.73,0,0,0-4.44,9.46c-.31,4,1.28,8.27,3.14,11.79.9,1.71,3.49.19,2.59-1.51Z"/><path d="M74.59,73.82a6.43,6.43,0,0,0,4.6.9,9.09,9.09,0,0,0,2.15-.79,5.17,5.17,0,0,0,1.91-1.42,6.54,6.54,0,0,0,.86-4.41,5.52,5.52,0,0,0-1.81-4,7.52,7.52,0,0,0-4.65-1.19,5.28,5.28,0,0,0-3.16.69A6,6,0,0,0,72,68.4a5.88,5.88,0,0,0,2.6,5.42,1.52,1.52,0,0,0,2-.53,1.54,1.54,0,0,0-.54-2.06l-.2-.13c-.26-.13.24.25,0,0s-.2-.18-.29-.28a.9.9,0,0,1-.16-.18s.22.33.09.11-.17-.28-.25-.43-.12-.18-.11-.22l.08.2-.06-.16c0-.13-.09-.27-.12-.4s-.07-.28-.1-.43c-.07-.31.07,0,0,.06a1.23,1.23,0,0,0,0-.26,6.28,6.28,0,0,1,0-1c0-.43-.07.29,0-.12,0-.17.07-.34.11-.51s.11-.33.17-.49-.06.08-.06.13a1,1,0,0,1,.11-.23l.21-.36s.1-.18.14-.2-.22.25,0,.06c0,0,.31-.36.35-.34s-.33.22-.11.09l.2-.13.17-.09c.24-.15-.09,0-.1,0s.39-.12.48-.14.2.07,0,0a.86.86,0,0,0,.27,0h.86l.87,0,.51,0c.54,0-.25-.06.23,0l.45.1s.47.16.22,0a2,2,0,0,1,.25.13c.32.17-.14-.18.11.08.08.08.15.16.23.23s-.14-.27,0,.07l.2.34c.19.35-.07-.25.05.13.06.2.17.61.18.69,0-.18,0,.34,0,.29,0,.16,0,.33,0,.49s0,.55,0,.83l0,.44s-.07.48,0,.18c0,.14-.07.28-.09.41-.07.35,0-.14-.06.16l-.07.12c.1-.11.09-.1,0,0s-.15.14,0,0l-.26.16a7.07,7.07,0,0,1-1.51.7l-.38.1c-.06,0-.55.1-.3.07a3.54,3.54,0,0,1-.46,0c-.06,0-.48,0-.23,0a3.85,3.85,0,0,1-1.54-.62,1.5,1.5,0,0,0-1.51,2.59Z"/><path d="M128.63,67.47a5.09,5.09,0,0,0,0,2,3.48,3.48,0,0,0,1.48,1.91,10.52,10.52,0,0,0,3.54,1.77A6.05,6.05,0,0,0,140.15,70a5.68,5.68,0,0,0,.52-3.78,5,5,0,0,0-2.21-3.12,7.72,7.72,0,0,0-3.77-1.13,6.28,6.28,0,0,0-3.4.44c-1.88,1-2.38,3.19-2.66,5.1a1.54,1.54,0,0,0,1.05,1.85,1.51,1.51,0,0,0,1.84-1,16.14,16.14,0,0,1,.35-1.84l.15-.49a2,2,0,0,1,.07-.19s-.16.34,0,.09a3.84,3.84,0,0,1,.18-.35,1.37,1.37,0,0,0,.13-.2c0-.11-.23.24,0,0,0,0,.31-.27.31-.29s-.31.19-.08.07l.17-.1c.25-.15-.09,0-.08,0s.21-.07.24-.08l.21,0c.12,0,.08,0-.11,0h.18a11.81,11.81,0,0,1,1.33,0l.33,0c.51,0-.13,0,.16,0a7.1,7.1,0,0,1,.8.17l.35.11s.27.1,0,0a3,3,0,0,1,.5.26l.3.19c.2.13-.15-.14,0,0s.17.15.25.24.27.35.12.12q.15.24.27.48c-.11-.23,0,0,0,0s.07.22.09.33.06.33,0,.15,0,.22,0,.21v.28c0,.32.06-.18,0,.16,0,.18-.09.36-.15.53s0,.09,0,0a2.1,2.1,0,0,1-.15.3,3.84,3.84,0,0,1-.32.5s.17-.19,0,0l-.27.29a3.37,3.37,0,0,1-1.8,1c.2,0-.06,0-.09,0s-.47,0-.25,0a4.08,4.08,0,0,1-.8-.21,3.15,3.15,0,0,1-.56-.24c-.24-.12-.48-.24-.71-.38a8,8,0,0,1-.69-.43l-.33-.22c-.08-.06-.08-.06,0,0l-.15-.15c-.13-.08,0,0,0,.07s0,.06,0-.1c0,.12,0,.13,0,0s0-.2,0-.3.05-.39,0-.14a1.54,1.54,0,0,0-1.05-1.85A1.51,1.51,0,0,0,128.63,67.47Z"/><path d="M75.23,86.12c-5,6.52-9,14.33-9.11,22.71-.08,7.35,3,14.76,9.17,19,1.59,1.1,3.1-1.5,1.51-2.59-5.48-3.77-7.93-10.68-7.66-17.14.31-7.59,4.17-14.56,8.68-20.47,1.17-1.54-1.43-3-2.59-1.51Z"/><path d="M110.43,123.75a27.52,27.52,0,0,0,9-2.77c2.59-1.33,5.29-3.08,6.27-6,.61-1.83-2.28-2.62-2.9-.8-.7,2.1-3.26,3.36-5.1,4.28a23.08,23.08,0,0,1-7.31,2.25,1.56,1.56,0,0,0-1.5,1.5c0,.73.69,1.61,1.5,1.5Z"/><path d="M90.37,78.54c-2.53,2-3.87,4.81-2.27,7.84,1.48,2.8,4.59,3.91,7.54,4.38A51.26,51.26,0,0,0,117,89.65c1.79-.48,3.55-1,5.31-1.61a18.93,18.93,0,0,0,4.53-1.88c2.3-1.51,4-4.54,2.68-7.25s-5.13-3.52-7.83-4.11a55.32,55.32,0,0,0-10.35-1.06c-7.27-.16-14.55.05-20.62,4.57-1.53,1.13,0,3.74,1.51,2.59,4.22-3.14,9-4.11,14.19-4.18,5.56-.08,11.3,0,16.67,1.54,2,.59,5.16,1.66,3.32,4.29-1.43,2-4.87,2.6-7.1,3.3a52,52,0,0,1-17.41,2.52c-2.94-.11-6.53-.16-9.18-1.58a4.06,4.06,0,0,1-2.28-2.86c-.19-1.46,1.07-2.47,2.1-3.27C94,79.48,91.87,77.37,90.37,78.54Z"/><path d="M158.7,249.35c5.62-.67,10.46,2.51,14.27,6.31a1.5,1.5,0,0,0,2.12-2.12c-4.31-4.3-10-7.94-16.39-7.19a1.55,1.55,0,0,0-1.5,1.5,1.5,1.5,0,0,0,1.5,1.5Z"/><path d="M47.79,250.5c8.76-.56,18.34-1.09,25.75,4.48,1.54,1.16,3-1.44,1.51-2.59-7.82-5.88-18-5.48-27.26-4.89-1.92.12-1.93,3.12,0,3Z"/><path d="M15.3,169.47c-3,24.12,5.89,50,23.79,66.61a30.38,30.38,0,0,0,8,5.57,34.93,34.93,0,0,0,9.52,2.6,69.6,69.6,0,0,0,10.09.74,13.47,13.47,0,0,0,8.85-3.66,30.33,30.33,0,0,0,9.29-31.09,116.5,116.5,0,0,0-4.57-11.75l-4.91-11.9L65.56,162.8c-.73-1.76-3.63-1-2.9.8l16.52,40a56.41,56.41,0,0,1,3.32,9.51,26.27,26.27,0,0,1,.39,8,27.54,27.54,0,0,1-6.09,14.67,20.79,20.79,0,0,1-6.11,5.29c-2.9,1.5-6.63.83-9.76.6-6.44-.49-12.68-1.89-17.78-6.06C34.27,228.4,27.51,218,23.29,207.47a76.85,76.85,0,0,1-5-38c.24-1.91-2.76-1.89-3,0Z"/><path d="M56.8,232.5c-.19,1.55.7,3.13,1.49,4.41a13.61,13.61,0,0,0,9.49,6.3,1.54,1.54,0,0,0,1.85-1.05,1.51,1.51,0,0,0-1-1.84,13.07,13.07,0,0,1-1.65-.35c-.24-.07-.49-.15-.73-.24l-.35-.13h0l-.14-.06a16.29,16.29,0,0,1-1.49-.79c-.21-.14-.43-.28-.63-.43,0,0-.37-.28-.19-.13l-.3-.25A10.4,10.4,0,0,1,61,235.62,15.67,15.67,0,0,1,60.1,234a2.42,2.42,0,0,1-.3-1.48,1.5,1.5,0,0,0-1.5-1.5,1.54,1.54,0,0,0-1.5,1.5Z"/><path d="M70.37,222.49c-.63,5.3,3.12,9.77,7.38,12.37a1.5,1.5,0,1,0,1.51-2.59c-3.45-2.11-6.4-5.51-5.89-9.78a1.51,1.51,0,0,0-1.5-1.5,1.53,1.53,0,0,0-1.5,1.5Z"/><path d="M150.45,155.34c-.35,6.52-3.15,12.57-5.68,18.48q-4,9.21-8.05,18.38c-4.83,10.84-12.15,23.6-4.77,35.06,3.18,4.93,8.28,7.75,13.48,10.13,2.77,1.26,5.57,2.64,8.62,3a13.51,13.51,0,0,0,8.45-1.92,83.42,83.42,0,0,0,7.56-5.24c2.48-1.79,5-3.52,7.33-5.52,4.7-4.05,7.8-9.61,10.61-15.05a117.9,117.9,0,0,0,12.12-39.49c.24-1.91-2.76-1.89-3,0A113.43,113.43,0,0,1,187.47,207c-2.4,5.18-5.06,10.6-8.68,15-3.77,4.66-9.15,7.89-14,11.35-2.13,1.53-4.33,3.16-6.89,3.87-3,.84-6-.23-8.82-1.45-4.89-2.15-10.2-4.42-13.62-8.7-8.17-10.23-.88-22.84,3.61-32.92q4.38-9.82,8.63-19.73c2.63-6.13,5.35-12.33,5.71-19.09.1-1.93-2.9-1.92-3,0Z"/><path d="M141.22,219.5a23.18,23.18,0,0,1-1.9,4.54A24,24,0,0,1,138,226.2c-.23.35-.48.7-.73,1l-.25.32-.45.55a1.5,1.5,0,1,0,2.12,2.12,28.4,28.4,0,0,0,5.42-9.93,1.5,1.5,0,0,0-1-1.84,1.53,1.53,0,0,0-1.85,1Z"/><path d="M153.18,227a10.38,10.38,0,0,1,0,1.25c0,.21,0,.42,0,.63,0,0,0,.31,0,.14s0,.18,0,.22c-.08.41-.17.82-.29,1.22-.06.2-.13.4-.2.59s-.07.18-.1.26c-.09.24.15-.31,0,.1a10.4,10.4,0,0,1-.54,1c-.11.18-.22.36-.34.53s-.13.19-.2.29l-.09.12c.1-.13-.12.15-.15.18l-.18.21a6.14,6.14,0,0,1-.43.45l-.46.43-.21.18c-.35.3.23-.16-.14.11a1.55,1.55,0,0,0-.54,2.05,1.53,1.53,0,0,0,2.06.54,12,12,0,0,0,4.9-10.55,1.5,1.5,0,1,0-3,0Z"/><path d="M84.56,281.75a8.35,8.35,0,0,0,1.39-4,4.27,4.27,0,0,0-.61-2.9c-1.18-1.68-3.29-1.94-5.17-1.56a6.18,6.18,0,0,0-4.41,3.17,5.64,5.64,0,0,0,.83,6.29,4.79,4.79,0,0,0,4.07,1.4,5.86,5.86,0,0,0,3.9-2.42,1.51,1.51,0,0,0-.54-2.06,1.54,1.54,0,0,0-1.15-.15,1.76,1.76,0,0,0-.9.69c.27-.35,0,0-.07.07l-.23.23s-.26.2-.25.22.31-.22.08-.07a.91.91,0,0,1-.16.11A3.37,3.37,0,0,1,81,281s-.39.18-.16.08-.1,0-.17.05a2,2,0,0,1-.35.09,1,1,0,0,0-.18,0s.38,0,.12,0a1.71,1.71,0,0,1-.32,0,1.77,1.77,0,0,0-.32,0s.37.07.12,0l-.19,0a3.82,3.82,0,0,0-.36-.13s.31.16.09,0l-.11-.05-.23-.14-.13-.09c.08,0,.27.23.09.07l-.36-.38c-.13-.12.19.28.1.13l-.07-.09a2.61,2.61,0,0,1-.17-.28L78.3,280c-.11-.22.13.35,0,.06a4,4,0,0,1-.15-.57.43.43,0,0,1,0-.11c0-.23,0,.17,0,.18s0-.18,0-.26a4,4,0,0,1,0-.6s0-.1,0-.15,0,.24,0,.22a2.65,2.65,0,0,0,.06-.3,4.64,4.64,0,0,1,.16-.53c.1-.32-.13.26,0,0l.13-.26c0-.08.09-.15.13-.22s.24-.34.08-.13,0,0,.07-.07l.21-.21.19-.17c.11-.1-.21.18-.19.14a.41.41,0,0,1,.13-.08,5.27,5.27,0,0,1,.83-.48c.28-.14-.17.06-.09,0l.21-.08.5-.16.45-.1.22,0c.29-.06-.41,0,0,0a5.78,5.78,0,0,1,.93,0l.12,0s-.39-.07-.25,0l.2,0,.44.13c.22.07-.37-.18-.13-.05l.17.09.18.12s-.27-.23-.2-.15l.1.09c.06,0,.1.1.15.15s-.15-.16-.13-.17l.08.11.11.2c.12.22-.12-.38,0-.06a2.1,2.1,0,0,1,.06.24l0,.13c0,.23,0-.35,0-.17s0,.42,0,.63c0,0,0,.09,0,.13,0,.22,0,.15,0,0a3,3,0,0,1-.07.43,9.12,9.12,0,0,1-.23.9,1.6,1.6,0,0,0-.17.46s.12-.26,0-.11l-.11.24a6.89,6.89,0,0,1-.46.73,1.5,1.5,0,0,0,.54,2A1.54,1.54,0,0,0,84.56,281.75Z"/><path d="M97.3,274a8.1,8.1,0,0,0,1.44-1.17,3.5,3.5,0,0,0,1.08-1.74,6.59,6.59,0,0,0-.27-3.38,5.32,5.32,0,0,0-5-3.91c-2.46.05-4.11,2-4.76,4.2a7.48,7.48,0,0,0-.24,3.42,3.78,3.78,0,0,0,1.7,2.52,5.77,5.77,0,0,0,3.07.79,5.85,5.85,0,0,0,3-.73,1.5,1.5,0,0,0-1.52-2.59l-.18.1c-.13.08-.3.06.09,0-.12,0-.24.09-.37.12a4.15,4.15,0,0,1-.48.11c-.11,0-.23,0,.15,0l-.34,0c-.32,0-.65-.05-1,0,.31,0,.27,0,.14,0l-.26-.05-.49-.14c-.16-.06-.21-.18.06,0a.91.91,0,0,0-.22-.11l-.14-.08c-.14-.09-.18-.22,0,0a.83.83,0,0,0-.17-.15c0-.05-.17-.24,0,0s0,0,0,0l-.08-.13c-.07-.15,0-.11,0,.11,0-.09-.1-.34-.12-.44l0-.09c0-.16,0-.13,0,.11,0,0,0-.28,0-.3s0-.35,0-.52,0-.26,0-.31l0,.13,0-.16a6.36,6.36,0,0,1,.29-1.12c0-.09.07-.18.1-.28.11-.31-.12.23,0,.05s.17-.35.27-.52l.13-.21,0,0,0,0c0-.13.3-.33.4-.41s0-.07,0,0,.22-.14.25-.16a2.26,2.26,0,0,1,.26-.14s-.33.12,0,0l.29-.07c.32-.09-.35,0,0,0,.14,0,.39-.06.51,0l-.18,0,.21.05.21.06a.91.91,0,0,1,.29.1c-.2-.08-.23-.09-.08,0a.91.91,0,0,1,.17.09,1,1,0,0,1,.17.1l.08.05c.13.1.1.08-.07-.06l.37.36a1.45,1.45,0,0,0,.16.18l-.12-.16.11.16c.1.16.19.32.28.49l0,.09c.07.15.06.12,0-.09,0,0,.11.28.12.31.07.21.12.41.17.62l0,.19a1.29,1.29,0,0,1,0,.19c0-.23,0-.27,0-.1s0,.39,0,.59,0,.24,0,.35,0,.16,0-.05a2,2,0,0,1-.07.23s.17-.27,0-.06c.24-.31-.07.07-.13.13l-.54.51s-.36.3-.1.09a2.27,2.27,0,0,1-.32.22A1.5,1.5,0,1,0,97.3,274Z"/><path d="M108.05,283.68a4.06,4.06,0,0,0,5.37-2.65,9.38,9.38,0,0,0,.14-3.58,4.7,4.7,0,0,0-1.85-3.05,5.54,5.54,0,0,0-5.36-.48,5.47,5.47,0,0,0-2.42,1.77,3.48,3.48,0,0,0-.57,2.85,6.85,6.85,0,0,0,1.74,3.13,7.76,7.76,0,0,0,3,2,1.51,1.51,0,0,0,1.85-1.05,1.55,1.55,0,0,0-1.05-1.84c-.32-.12.3.16,0,0l-.18-.09a4.25,4.25,0,0,1-.46-.27l-.23-.16c-.19-.13.28.23,0,0l-.47-.42c-.12-.13-.24-.25-.35-.38a1.78,1.78,0,0,1-.22-.26c.17.27.06.08,0,0s-.21-.31-.3-.48l-.14-.24c0-.05-.05-.09-.07-.14s-.06-.13,0,.06a1.41,1.41,0,0,1-.16-.49l0-.2c-.07-.32,0,.27,0,.08a1.47,1.47,0,0,0,0-.21c0-.23,0,.13,0,.16a1.55,1.55,0,0,0,.05-.23c.06-.26-.17.31,0,.06s.15-.22.21-.34c-.15.3-.17.21-.08.12l.17-.18.13-.11c.22-.2-.24.15-.07.05s.27-.17.41-.25a2.38,2.38,0,0,0,.39-.2c-.23.19-.22.09-.07,0l.21-.08c.29-.09.58-.14.88-.21s-.41,0-.12,0H109c.17,0,.15,0-.07,0a.71.71,0,0,1,.21,0,2.29,2.29,0,0,1,.63.19s-.3-.15-.07,0l.24.14a.86.86,0,0,1,.22.15c-.23-.25-.08-.06,0,0l.18.19c.2.21,0,0,0-.05s.14.23.18.3c.17.26-.06-.24,0,.07s.11.37.16.56,0,0,0,0c0,.11,0,.24,0,.35a8.15,8.15,0,0,1,0,1.21c0,.12,0,.23,0,.35,0,.33.06-.25,0,.11,0,.08,0,.16,0,.25a2.17,2.17,0,0,1-.07.24c0,.14,0,.16,0,0s-.08.11-.09.13c-.13.25.22-.19,0,0s0,0,0,0a2.29,2.29,0,0,0-.24.15l-.16.08c.21-.09.24-.1.09-.05l-.14,0a1.44,1.44,0,0,0-.24.05l.16,0h-.44c-.15,0-.34-.11,0,0-.18-.07-.38-.09-.56-.15a1.51,1.51,0,0,0-1.85,1A1.54,1.54,0,0,0,108.05,283.68Z"/><path d="M87.7,292.75c-.14,4.27,2.44,8.09,6.78,8.81s8.33-1.69,10.64-5.15a9,9,0,0,0,1.47-6.38,11.12,11.12,0,0,0-2.65-5.92,9.17,9.17,0,0,0-5.66-2.4c-2.06-.26-4.36-.35-6.21.77-3.29,2-4.24,6.72-4.37,10.27-.07,1.93,2.93,1.93,3,0,.08-2.29.54-5,2-6.88a4,4,0,0,1,3.43-1.33,11.27,11.27,0,0,1,4.35.76,5.31,5.31,0,0,1,2.68,3.41,6.61,6.61,0,0,1,.1,4.85,8.5,8.5,0,0,1-6.89,5.13,5.58,5.58,0,0,1-4.17-1.44,5.9,5.9,0,0,1-1.51-4.5C90.76,290.82,87.76,290.82,87.7,292.75Z"/><path d="M129.23,280.37a4.67,4.67,0,0,0,2.12-.41,4.78,4.78,0,0,0,1.68-1.51,7.55,7.55,0,0,0,1.42-3.39,4.88,4.88,0,0,0-.08-2.31,3.91,3.91,0,0,0-1.23-1.74,6.89,6.89,0,0,0-3.85-1.8c-2.29-.17-4.3,1.72-5.46,3.5s-1.61,4-.08,5.68c1.34,1.45,3.59,1.93,5.48,2a1.5,1.5,0,1,0,0-3c-.29,0-.57,0-.86-.07s-.13-.08.13,0a1.08,1.08,0,0,0-.19,0l-.56-.11a7.44,7.44,0,0,1-.84-.25c-.11,0-.21-.16-.09,0s0,0-.08,0-.28-.14-.41-.22l-.23-.15c-.15-.1,0-.08.09.07a2.2,2.2,0,0,0-.31-.3c-.17-.14.13,0,.07.11l-.12-.18-.09-.18s.11.39,0,0,0,.3,0-.13a1.2,1.2,0,0,0,0-.19c0-.3,0,.11,0,.09s.1-.4.12-.48,0-.13.07-.2c.08-.27-.14.27,0-.08a9,9,0,0,1,.55-.95l.13-.19c.22-.33-.13.14,0,0l.44-.51c.14-.14.29-.29.44-.42l.18-.16c.3-.25-.17.11,0,0l.44-.29.25-.13.15-.07c-.18.07-.21.09-.11,0s.31-.1.46-.14c.33-.09-.33,0,0,0h.25c.15,0,.29.08.44.12s.26.1.06,0l.4.19c.22.12.43.25.64.38l.24.18c-.19-.14.05,0,.1.08a3.66,3.66,0,0,1,.44.44c-.21-.28.08.17,0,0s.1.47.06.15a3.31,3.31,0,0,1,0,.77c0-.28,0,0,0,.1a4.37,4.37,0,0,1-.12.49,5.44,5.44,0,0,1-.23.68c.1-.24,0,0-.06.1l-.21.38a3.21,3.21,0,0,1-.19.31s-.28.38-.1.16l-.23.26s-.32.29-.21.2-.2.12-.19.11c.22-.12-.16,0-.21,0,.22-.05,0,0-.06,0h-.46a1.5,1.5,0,0,0-1.5,1.5A1.54,1.54,0,0,0,129.23,280.37Z"/><path d="M136.14,268.6a5.93,5.93,0,0,0,3.45,1.29,4.19,4.19,0,0,0,3.39-1.18c1.66-1.78,2.56-4.32,1.43-6.62a4.13,4.13,0,0,0-2.74-2.11,6.85,6.85,0,0,0-3.42-.15,5.29,5.29,0,0,0-3.69,3.45,5,5,0,0,0,1.58,5.32,1.5,1.5,0,0,0,2.12-2.12l-.34-.31-.18-.19c-.09-.1-.06-.17.07.1-.06-.12-.16-.23-.23-.35l-.12-.22c-.13-.23.12.34,0,.07s-.09-.25-.12-.38l0-.15c0-.16,0-.31,0,.09,0-.12,0-.25,0-.38s0-.55,0-.25,0-.14.06-.21.08-.24.12-.37-.18.36,0,.12l.09-.18a3.48,3.48,0,0,1,.22-.36c.16-.24-.24.28-.05.06l.11-.12a2.4,2.4,0,0,1,.28-.27c.3-.27-.26.16.07-.06a2.67,2.67,0,0,1,.43-.25l.15-.08c-.28.21-.21.09,0,0a2.58,2.58,0,0,1,.42-.12l.17,0c.32-.07-.25.09-.12,0s.53,0,.71,0-.35-.07.06,0l.25,0,.6.13.36.09c.27.08,0,0,0,0a1.24,1.24,0,0,1,.3.16c.25.13-.18-.2,0,0l.18.19c.15.14-.17-.31,0,0l.13.22,0,.05c.07.15.07.12,0-.07.09.08.12.38.15.5.08.29,0-.09,0-.09a1.18,1.18,0,0,1,0,.42c0,.07,0,.14,0,.21,0,.39.09-.3,0,.08,0,.17-.09.34-.14.51s-.12.34,0,0c0,.1-.09.19-.13.28s-.21.38-.33.57l-.21.3c-.23.32.2-.22-.06.07l-.19.22-.13.13c-.12.11-.11.1,0,0,0,0-.17.12-.19.12.18-.07.19-.08,0,0l-.23.06c-.06,0-.3.09.06,0a2,2,0,0,1-.35,0c-.23,0-.46,0-.69,0-.38,0,.32.08-.06,0l-.33-.07-.28-.08c-.36-.13.15.1-.11-.05l-.2-.1c-.07,0-.48-.33-.17-.09a1.68,1.68,0,0,0-1.06-.44,1.54,1.54,0,0,0-1.06.44A1.51,1.51,0,0,0,136.14,268.6Z"/><path d="M152.57,280.8a5.52,5.52,0,0,0,2.32.18,4.48,4.48,0,0,0,1.81-.77,6.68,6.68,0,0,0,2.66-2.69c.93-2.22-.5-4.65-2.19-6.06s-4-2.24-5.86-.89a6.52,6.52,0,0,0-2.5,5.27,5.23,5.23,0,0,0,.9,3,5.18,5.18,0,0,0,2.86,2,1.5,1.5,0,1,0,.8-2.89l-.27-.09-.08,0c-.15-.05-.11,0,.11,0a3.21,3.21,0,0,0-.45-.24,2.43,2.43,0,0,0-.2-.14s.28.24.11.09l-.39-.4c-.19-.21.21.31.05.06l-.12-.19c-.07-.11-.11-.24-.18-.34.21.33.09.21,0,.07a1.87,1.87,0,0,1-.07-.22,4.31,4.31,0,0,1-.11-.49c-.05-.2,0,.41,0,.12a1.94,1.94,0,0,1,0-.24,3.85,3.85,0,0,1,0-.48c0-.08,0-.16,0-.24,0,.39,0,.25,0,.11a4.82,4.82,0,0,1,.11-.52c.05-.17.1-.32.16-.48s-.16.33,0,0l.07-.15c.08-.15.16-.3.25-.45l.14-.22.09-.14c.1-.12.07-.09-.07.1.1,0,.24-.27.32-.36l.07-.06-.09.07a1.5,1.5,0,0,0,.23-.15c.17-.09.24,0-.06,0a2,2,0,0,0,.23-.07l.16,0c.25-.06-.4,0,0,0h.25c.3,0-.38-.08-.08,0l.41.1a1.17,1.17,0,0,0,.24.09l-.19-.09.16.08a4.29,4.29,0,0,1,.55.31l.19.13c.14.09.1.18,0,0a3,3,0,0,0,.43.36c.27.25.48.58.75.82-.27-.24-.1-.14,0,0a1.64,1.64,0,0,1,.14.22,3.26,3.26,0,0,1,.24.4l.09.18c.1.21,0,.24-.06-.14,0,.11.1.24.13.35l.06.24c0,.17,0,.16,0,0a.77.77,0,0,1,0,.37c0-.17,0-.2,0-.09a1.21,1.21,0,0,1,0,.18c-.07.35.16-.2,0,.07l-.12.19c-.09.13-.08.12,0,0-.05.18-.43.42-.57.54s-.22.18,0,0c-.12.1-.24.18-.37.27a6.32,6.32,0,0,1-.68.47l-.31.17c-.26.15.25,0-.07,0a1.31,1.31,0,0,1-.34.09c.38,0-.17,0-.24,0-.39,0,.28.08-.11,0l-.5-.12a1.5,1.5,0,1,0-.8,2.89Z"/><path d="M134.31,286a11.2,11.2,0,0,0-1.36,6.32c.14,2.13.56,4.71,2.11,6.31s3.89,2.06,6,2.22a12.32,12.32,0,0,0,6.79-1.4,10.35,10.35,0,0,0,4.26-4.36,12.58,12.58,0,0,0,1-6.56,10.44,10.44,0,0,0-2.27-6.19,10.15,10.15,0,0,0-5.21-3c-2.27-.57-5-1-6.92.55a10.11,10.11,0,0,0-2,2.47c-.78,1.2-1.63,2.36-2.36,3.6a1.5,1.5,0,0,0,2.59,1.51,45.2,45.2,0,0,1,3-4.52,2.71,2.71,0,0,1,1.46-1.12,6.34,6.34,0,0,1,2.25.15,9.61,9.61,0,0,1,4.12,1.52,6,6,0,0,1,2.25,3.88c.61,3.15.14,6.54-2.45,8.65a9.49,9.49,0,0,1-9.27,1.15c-1.75-.78-2.11-2.85-2.27-4.59a8.65,8.65,0,0,1,.93-5.12A1.5,1.5,0,0,0,134.31,286Z"/></g></g></svg>