<svg xmlns="http://www.w3.org/2000/svg" viewBox="0 0 128.26 213.92"><defs><style>.cls-1{fill:#dee2d0;}.cls-2{fill:#4d4d4d;}.cls-3{fill:#626654;}.cls-4{fill:#bdc1ac;}.cls-5{fill:#353535;}</style></defs><title>Asset 15</title><g id="Layer_2" data-name="Layer 2"><g id="Layer_1-2" data-name="Layer 1"><g id="Layer_2-2" data-name="Layer 2"><g id="Layer_1-2-2" data-name="Layer 1-2"><path class="cls-1" d="M82,64.33a68.08,68.08,0,0,1,.45-8.8l-1.21,9a25.76,25.76,0,0,1,1.58-6.09l-3.37,8a17.46,17.46,0,0,1,2.12-3.7l-5.27,6.82a16.36,16.36,0,0,1,2.94-2.94l-6.83,5.25a18.15,18.15,0,0,1,3.78-2.21l-8,3.37a16.66,16.66,0,0,1,4.21-1.16l-9,1.2a15.41,15.41,0,0,1,4.07,0l-9-1.21a7,7,0,0,1,1.43.38l-8-3.37a6,6,0,0,1,1.24.75l-6.82-5.28c1.24,1,2.37,2.17,3.57,3.23a26.43,26.43,0,0,1,3.24,3.28L47.82,64a11.17,11.17,0,0,1,1.44,2.39l-3.37-8A10.56,10.56,0,0,1,46.56,61l-1.2-9a37.91,37.91,0,0,1-.11,6.48,25,25,0,0,0,0,3.24,96.69,96.69,0,0,0,1.39,10.31,11.79,11.79,0,0,0,.41,1.55,25.48,25.48,0,0,0,6,11.45,25.38,25.38,0,0,0,9.45,8.72,25,25,0,0,0,12.52,4,25.57,25.57,0,0,0,13.44-.62l8.05-3.37a33.92,33.92,0,0,0,12.09-12.09l3.37-8a34.05,34.05,0,0,0,0-17.92l-.82-4.07a25.32,25.32,0,0,0-6-11.46,25.4,25.4,0,0,0-9.45-8.67,25.06,25.06,0,0,0-12.53-4,25.53,25.53,0,0,0-13.43.6l-8,3.37A33.84,33.84,0,0,0,49.61,43.61l-3.4,8a33.85,33.85,0,0,0,0,17.92L47,73.63l65-17.92a11.22,11.22,0,0,1-.53-2.22l1.21,9a39.08,39.08,0,0,1,.12-6.84,23.7,23.7,0,0,0-.06-3.37c-.31-3.1-.79-6.43-1.28-9.52,0-.26-.09-.51-.15-.77a36.93,36.93,0,0,0-2.19-5.54,39.45,39.45,0,0,0-2.34-5.27c-.13-.21-.27-.43-.41-.63-1.76-2.51-3.74-4.95-5.65-7.34a22.1,22.1,0,0,0-2.25-2.39,104.57,104.57,0,0,0-11.56-9.54,7.56,7.56,0,0,0-.71-.44c-1.36-.7-3.51-1.49-4.35-1.85.5.21-2.9-1.35-4.26-1.79A7.38,7.38,0,0,0,76.77,7c-1.57-.31-3.55-.49-4.84-.66-1.53-.21-3.23-.48-4.85-.65a14.41,14.41,0,0,0-3.08,0c-3.44.33-6.89.77-10.3,1.39-.51.1-1,.22-1.52.36a14.15,14.15,0,0,0-1.39.46c-1.55.59-3.12,1.3-4.61,1.93s-3.17,1.26-4.67,2a16.21,16.21,0,0,0-2.61,1.53c-1.33.95-2.67,2-3.93,3s-2.64,2-3.9,3a16.47,16.47,0,0,0-1.22,1.13,12.4,12.4,0,0,0-1,1.09c-1.89,2.33-3.74,4.75-5.53,7.15-.19.25-.38.5-.56.76a18,18,0,0,0-1.57,2.94c-1.24,2.86-2.55,5.76-3.65,8.69-.11.29-.21.56-.31.88-.2.63-.38,1.27-.52,1.91s-.27,1.23-.37,1.85c-.56,3.55-1,7.14-1.44,10.72a73.57,73.57,0,0,0-.33,7.86,25.47,25.47,0,0,0,2.9,13,25.33,25.33,0,0,0,7,10.84,25.15,25.15,0,0,0,10.86,7,25.27,25.27,0,0,0,13,2.9l9-1.2a33.73,33.73,0,0,0,14.82-8.67l5.26-6.82a33.45,33.45,0,0,0,4.6-17Z"/><path class="cls-1" d="M64.3,134.82a25.45,25.45,0,0,0,13-2.9,25.24,25.24,0,0,0,10.83-7,25.27,25.27,0,0,0,7-10.84,25.35,25.35,0,0,0,2.9-13l-1.2-9A33.7,33.7,0,0,0,88.11,77.3L81.29,72a33.4,33.4,0,0,0-17-4.6,25.25,25.25,0,0,0-13,2.9,25.34,25.34,0,0,0-10.85,7,25.38,25.38,0,0,0-7,10.85,25.47,25.47,0,0,0-2.9,13l1.2,9A33.75,33.75,0,0,0,40.48,125l6.82,5.27a33.39,33.39,0,0,0,17,4.59Z"/><path class="cls-1" d="M101,97.8a116.32,116.32,0,0,1-1,25.83l.31-2.25c-1.26,9.23-2.94,18.41-4.5,27.59l-.3,2.25a6.33,6.33,0,0,0,.73,3.25,8.07,8.07,0,0,0,3.44,4,10,10,0,0,0,4.25,1.12,8.58,8.58,0,0,0,6-2.46,27,27,0,0,0,5.87-8.76,27.51,27.51,0,0,0,1.64-4.86,60.89,60.89,0,0,0,.91-6c.67-5.87,1-11.79,1.42-17.71l.8-10.27-15.73,4.25c.22.45.42.9.62,1.36l-.85-2a31.46,31.46,0,0,1,2.1,7.68l-.3-2.25a31.57,31.57,0,0,1,0,8.24l.3-2.25c-.56,4.09-1.88,8-2.51,12.11h16.25l0-.2.3,2.24a5.47,5.47,0,0,1,0-1.4l-.31,2.24a7,7,0,0,1,.37-1.36l-.85,2a6.3,6.3,0,0,1,.81-1.4l-1.32,1.69a6.3,6.3,0,0,1,1-1l-1.69,1.32.33-.24-11.52-11.52a23.32,23.32,0,0,0-2.61,11.53,8.73,8.73,0,0,0,4.17,7.3,8.54,8.54,0,0,0,8.5,0,9,9,0,0,0,2.81-2.51,5.49,5.49,0,0,0,1.18-2,7.89,7.89,0,0,0,.53-1.35,8.9,8.9,0,0,0-.85-6.49,8.45,8.45,0,0,0-11.54-3,8.89,8.89,0,0,0-3.87,5,54,54,0,0,1-2.09,5.92l.85-2a12.69,12.69,0,0,1-.91,1.94l1.32-1.69a1.27,1.27,0,0,1-.25.27l1.69-1.32-.15.09,2-.85-.17.06,2.25-.3h-.22l2.25.29a1.13,1.13,0,0,1-.43-.13l2,.85a6.07,6.07,0,0,1-.73-.47L115,141.5A8.74,8.74,0,0,1,113.5,140l1.32,1.68a79.55,79.55,0,0,0-4.73-6.41c-1.82-2-4.23-3.45-6.4-5.12l1.69,1.31a7.27,7.27,0,0,1-1.13-1.09l1.32,1.69a6.4,6.4,0,0,1-.74-1.26l.85,2a7.79,7.79,0,0,1-.49-1.82l.3,2.24a16.84,16.84,0,0,1,.1-4.37l-.3,2.25a25.55,25.55,0,0,0,.39-3,10.17,10.17,0,0,0-.16-1.47,6.54,6.54,0,0,0-1-3.29,10.37,10.37,0,0,0-3.25-3.34,8.72,8.72,0,0,0-5.82-1.12,7.22,7.22,0,0,0-1.52.26,23.84,23.84,0,0,0-2.2.94l-1.17.56c-.78.38-1.56.73-2.35,1l2-.86a79.41,79.41,0,0,1-20,5.52l2.25-.3a27.2,27.2,0,0,1-6.29.48l2.24.31a4.42,4.42,0,0,1-1.12-.3l2,.85a3.2,3.2,0,0,1-.51-.29l1.68,1.32a4.31,4.31,0,0,1-.56-.57l1.32,1.69a4.85,4.85,0,0,1-.29-.49l.85,2a2.7,2.7,0,0,1-.14-.56l.3,2.24v-.19l-6.18,8.12.23,0-2.25.29h.67l-2.25-.3a5.26,5.26,0,0,1,1.3.38l-2-.86c2.11.94,4.09,2.21,6.39,2.66a24.56,24.56,0,0,0,7.21.36c1.74-.18,3.47-.46,5.22-.56a29,29,0,0,1,5.51.2l-2.25-.3a29.21,29.21,0,0,1,6.88,1.81l-2-.85a8.28,8.28,0,0,1,1.77,1l-1.68-1.32a4.84,4.84,0,0,1,.64.64l-1.31-1.69a13.74,13.74,0,0,1,1,1.64,18.2,18.2,0,0,0,1.47,2.12c.85,1.09,1.76,2.11,2.61,3.2l-1.32-1.68a8.35,8.35,0,0,1,.9,1.45l-.85-2a4.1,4.1,0,0,1,.28,1l-.3-2.25a4.45,4.45,0,0,1,0,.73l.3-2.24,0,.18a6.43,6.43,0,0,0-.15,3.37,6.26,6.26,0,0,0,1,3.14,8.47,8.47,0,0,0,11.54,3c1.73-1.13,3.52-2.91,3.87-5.06a12.78,12.78,0,0,0-.06-5.93,16,16,0,0,0-1.07-2.6,6.53,6.53,0,0,0-.45-.82c-1.09-1.64-2.46-3-3.67-4.61l1.32,1.69c-.69-.92-1.12-2-1.81-2.9a14,14,0,0,0-4-3.94,9.67,9.67,0,0,0-1.4-.71,36.69,36.69,0,0,0-5.37-2,41.54,41.54,0,0,0-5.76-1,31.33,31.33,0,0,0-7.62,0,32,32,0,0,1-7.37.41l2.25.31a10.65,10.65,0,0,1-2.55-.67l2,.85c-1.2-.52-2.33-1.17-3.55-1.68a10.58,10.58,0,0,0-2.19-.78,12.82,12.82,0,0,0-5.48,0l-2,.85a6.37,6.37,0,0,0-2.39,2.22,8.09,8.09,0,0,0-1.81,5.1,10.25,10.25,0,0,0,4.32,8.37,12.08,12.08,0,0,0,7.68,2.44,68.31,68.31,0,0,0,9.35-1.09,79.55,79.55,0,0,0,14.48-3.72c3.26-1.17,6.42-2.59,9.55-4l-2,.85a1.42,1.42,0,0,1,.4-.12l-2.25.3h.2l-2.25-.3.19.07-2-.86.13.1-1.69-1.32.1.12L90,131.7l.06.14-.84-2,0,.16-.3-2.25a4,4,0,0,1,0,.69l.3-2.24a37.84,37.84,0,0,0-.57,5.52,15.77,15.77,0,0,0,.79,5.28,14.28,14.28,0,0,0,3.79,6.08c1.42,1.24,3,2.2,4.49,3.33L96,145.08a19.07,19.07,0,0,1,3.18,3.17l-1.32-1.68c.48.62.91,1.27,1.34,1.93.76,1.18,1.59,2.28,2.47,3.39a9.21,9.21,0,0,0,1.46,1.53,18.14,18.14,0,0,0,2.42,1.78,11.64,11.64,0,0,0,2.44,1,8.82,8.82,0,0,0,3.58.14,8.6,8.6,0,0,0,5.22-2.52,9.81,9.81,0,0,0,1.73-2.32c.69-1.38,1.25-2.81,1.83-4.26q1-2.55,1.79-5.19l-16.25-4.49a1,1,0,0,1-.1.34l.84-2-.09.16,1.31-1.69a.88.88,0,0,1-.26.25l1.69-1.31-.16.08,12.67,7.3a15.7,15.7,0,0,1,.09-2.74l-.3,2.24a15.11,15.11,0,0,1,1.06-3.84l-.87,1.94c.1-.22.2-.45.31-.68l.85-2a6.43,6.43,0,0,0,.15-3.37,4.32,4.32,0,0,0-.56-2.13,6.29,6.29,0,0,0-1.75-2.7,9.76,9.76,0,0,0-3.72-2.17,6.29,6.29,0,0,0-3.36-.15,6.2,6.2,0,0,0-3.13,1,14.49,14.49,0,0,0-2.92,2.38,13.45,13.45,0,0,0-2.21,3.17,23,23,0,0,0-1.09,2.67,31.44,31.44,0,0,0-.54,3.86,22.33,22.33,0,0,0,.37,3l.85,2a6.26,6.26,0,0,0,2.15,2.36,8,8,0,0,0,5.1,1.81,10,10,0,0,0,4.25-1.13,9.44,9.44,0,0,0,3.88-5.05c.39-2.61,1.07-5.15,1.68-7.72a51.75,51.75,0,0,0,1.41-9.75,39.75,39.75,0,0,0-4.13-18.4l-1.32-1.68a6.27,6.27,0,0,0-2.71-1.75,8,8,0,0,0-5.49-.42,9.87,9.87,0,0,0-3.71,2.17,8.7,8.7,0,0,0-2.47,5.95l-1.12,14.71c-.37,4.76-.56,9.55-1.21,14.29l.31-2.25a26.51,26.51,0,0,1-1.69,6.62l.82-2a19.94,19.94,0,0,1-2.4,4.09l1.32-1.68A22.87,22.87,0,0,1,98,145.29l14.08,8.19c1.17-7,2.37-13.91,3.47-20.88a196.76,196.76,0,0,0,2.59-22.95,93,93,0,0,0-.27-11.8,6.21,6.21,0,0,0-.72-3.24,6.4,6.4,0,0,0-1.74-2.71,8.43,8.43,0,0,0-11.92,0A8.24,8.24,0,0,0,101,97.85Z"/><path class="cls-1" d="M70.11,152.36a5.69,5.69,0,0,1,.71.07l-2.25-.3a15,15,0,0,1,3.42,1l-2-.85a35.75,35.75,0,0,1,5.36,3l5.87,3.84,4.25-15.73a23.7,23.7,0,0,0-9.09,2.38,10,10,0,0,0-1.12.7,22.15,22.15,0,0,0-2.35,1.87,18.65,18.65,0,0,0-2,2.5,6.83,6.83,0,0,0-.56,1,14.73,14.73,0,0,0-1.6,6.13,15.54,15.54,0,0,0,.59,4.5,47.18,47.18,0,0,1,1.47,5.1l-.31-2.25c.18,1.52.26,3,.56,4.53a13.2,13.2,0,0,0,1.13,2.91A12.56,12.56,0,0,0,74,175.31a6,6,0,0,0,.71.71,17.89,17.89,0,0,0,2.37,1.78,13.25,13.25,0,0,0,3.72,1.52c4.86,1.13,9.84-.11,14.39-1.86,4.33-1.68,8.84-3.62,12-7.17a81.15,81.15,0,0,0,7.1-10A70.81,70.81,0,0,0,120.6,148a6.32,6.32,0,0,0,.14-3.37,6.22,6.22,0,0,0-1-3.13l-1.32-1.69a6.4,6.4,0,0,0-2.71-1.74,8.05,8.05,0,0,0-5.49-.42,8.63,8.63,0,0,0-5,3.87q-4.25,7.75-8,15.77l9.51-3.87a28.94,28.94,0,0,0-5-.84,15,15,0,0,0-3,0,28.14,28.14,0,0,0-4.93.79,24.4,24.4,0,0,1-2.89.72l2.24-.3a5.82,5.82,0,0,1-1.18,0l2.24.3a5,5,0,0,1-.91-.27l2,.85a3.4,3.4,0,0,1-.48-.29l1.68,1.32a4.44,4.44,0,0,1-.65-.65l1.32,1.69a4.36,4.36,0,0,1-.45-.82l.85,2a5.45,5.45,0,0,1-.3-1.12l.31,2.25a5.62,5.62,0,0,1,0-1.16l-.31,2.25a6.43,6.43,0,0,1,.43-1.48l-.85,2a9.75,9.75,0,0,1,1.21-2l-1.32,1.68c2.6-3.24,6-5.76,9-8.67a37.33,37.33,0,0,0,8.11-11.59,81.93,81.93,0,0,0,4.43-13.58,122.33,122.33,0,0,0,3-15.65,35.64,35.64,0,0,0,.06-7.93,23.36,23.36,0,0,0-1-5.68A14,14,0,0,0,118.64,94a10.8,10.8,0,0,1-1-1.61l.85,2a5,5,0,0,1-.36-1.31l.3,2.25a7.11,7.11,0,0,1,0-1.13l-.3,2.25a6.74,6.74,0,0,1,.2-.89h-16.2q1.75,9.9,4.15,19.65a8.42,8.42,0,0,0,10.36,5.88h0a8.59,8.59,0,0,0,5-3.87,8.93,8.93,0,0,0,.85-6.49q-2.4-9.76-4.15-19.65l-.85-2a6.31,6.31,0,0,0-2.17-2.36,8.09,8.09,0,0,0-5.1-1.81A10.13,10.13,0,0,0,106,86a8.69,8.69,0,0,0-3.88,5.06,13,13,0,0,0,1.73,11,9.1,9.1,0,0,1,1,1.68l-.85-2a12,12,0,0,1,.63,2.77l-.3-2.25a37.67,37.67,0,0,1-.15,10l.3-2.24a124.23,124.23,0,0,1-2.62,12.52,71.1,71.1,0,0,1-3.37,10.89l.85-2a30.74,30.74,0,0,1-3.84,6.73l1.32-1.68c-2.92,3.76-6.74,6.6-10.11,10a34.22,34.22,0,0,0-3.51,4.18A9.34,9.34,0,0,0,82.4,152a14.79,14.79,0,0,0-1.34,3.51,14.19,14.19,0,0,0-.35,3.37,13.46,13.46,0,0,0,.57,3.45,11.48,11.48,0,0,0,2,3.77,11,11,0,0,0,3.25,3,13.1,13.1,0,0,0,9.55,1.12c1.42-.3,2.76-.81,4.21-1l-2.25.31a17,17,0,0,1,4.16,0l-2.24-.3a17.91,17.91,0,0,1,2.29.48l2.25.31a6.27,6.27,0,0,0,3.24-.73,7.84,7.84,0,0,0,4-3.45q3.7-8,8-15.77l-15.32-6.52-.39,1,.85-2a61.15,61.15,0,0,1-4.67,8.7c-1.73,2.75-3.51,5.53-5.49,8.11L96,157.57A15.16,15.16,0,0,1,93.61,160l1.69-1.32A25.08,25.08,0,0,1,90,161.58l2-.85a33.69,33.69,0,0,1-8.21,2.48l2.24-.3a10.26,10.26,0,0,1-2.35,0l2.24.3a7.51,7.51,0,0,1-1.63-.42l2,.85a6.33,6.33,0,0,1-1.24-.71l1.68,1.32a4.83,4.83,0,0,1-.86-.83l1.31,1.68a4.69,4.69,0,0,1-.6-1l.85,2a7.27,7.27,0,0,1-.31-1.22l.31,2.24a34.5,34.5,0,0,0-1-6.31,22.7,22.7,0,0,1-1.15-4l.3,2.25a6,6,0,0,1,0-1.59l-.3,2.25a5.68,5.68,0,0,1,.35-1.22l-.85,2a6.65,6.65,0,0,1,.75-1.26l-1.31,1.69a7.11,7.11,0,0,1,1.21-1.18L83.76,161a9.57,9.57,0,0,1,1.79-1l-2,.85a13.61,13.61,0,0,1,3.15-.8l-2.24.3,1-.11,2.24-.3a6.42,6.42,0,0,0,2.87-1.51,8.06,8.06,0,0,0,3-4.37,10.05,10.05,0,0,0,0-4.5,8.82,8.82,0,0,0-3.88-5.05c-2.62-1.72-5.22-3.5-7.91-5.13a37.19,37.19,0,0,0-5.55-2.66,21.26,21.26,0,0,0-6.14-1.27,8.46,8.46,0,0,0-6,2.47,8.41,8.41,0,0,0,0,11.91l1.68,1.32a8.5,8.5,0,0,0,4.26,1.12Z"/><path class="cls-1" d="M13,65.4a97.09,97.09,0,0,1-.61,19.28l.3-2.24A114.46,114.46,0,0,1,9.94,95.91,119.55,119.55,0,0,0,7,109.13a54.69,54.69,0,0,0-.64,5.56,13.3,13.3,0,0,0,.41,3.61A12,12,0,0,0,9.43,123a6.21,6.21,0,0,0,2.71,1.74,6.33,6.33,0,0,0,3.25.73,8.59,8.59,0,0,0,6-2.47,8.49,8.49,0,0,0,2.46-6l-.3-2.24a8.43,8.43,0,0,0-2.16-3.72l-.14-.16,1.32,1.68a2.5,2.5,0,0,1-.21-.35l.85,2a4.22,4.22,0,0,1-.23-.79l.3,2.25a16.82,16.82,0,0,1,.26-4.13l-.31,2.25c.81-6,2.65-11.75,4-17.61A108.66,108.66,0,0,0,30,75.85a93.62,93.62,0,0,0-.16-10.46,9,9,0,0,0-2.46-6,8.41,8.41,0,0,0-11.91,0,8.21,8.21,0,0,0-2.47,6Z"/><path class="cls-1" d="M39.35,32.68a16.51,16.51,0,0,1,.6-1.8l-.84,2a15.43,15.43,0,0,1,2-3.47l-1.32,1.68A24.44,24.44,0,0,1,44,27.18L42.33,28.5A50.69,50.69,0,0,1,53.46,22l-2,.86A50.77,50.77,0,0,1,60.6,20l2-.85A6.36,6.36,0,0,0,65,17a8.12,8.12,0,0,0,1.8-5.11,10,10,0,0,0-1.13-4.25A8.53,8.53,0,0,0,60.6,3.76a16.14,16.14,0,0,0-9.76.75A6.42,6.42,0,0,0,48,6,6.39,6.39,0,0,0,45.8,8.38a8.48,8.48,0,0,0,3,11.55,8.83,8.83,0,0,0,6.49.84,97.18,97.18,0,0,1,11.58-2.3l-2.25.31q3.07-.41,6.18-.62a8.91,8.91,0,0,0,5.93-2.44,8.59,8.59,0,0,0,2.47-6,8.51,8.51,0,0,0-2.47-6,8.15,8.15,0,0,0-6-2.46,106.24,106.24,0,0,0-20,3.17l4.49,16.25a16,16,0,0,1,3-.87l-2.24.32a7,7,0,0,1,1.52,0l-2.25-.3c.26,0,.51.09.76.15V3.76A58.67,58.67,0,0,0,41.51,9.07a49.31,49.31,0,0,0-5.75,3.47,43.72,43.72,0,0,0-7,5.66,24.17,24.17,0,0,0-5.67,10A8.75,8.75,0,0,0,24,34.69a8.45,8.45,0,0,0,11.55,3,8.78,8.78,0,0,0,3.87-5.05Z"/><path class="cls-1" d="M106.29,28A14.94,14.94,0,0,1,105,26.62l1.31,1.68a14.09,14.09,0,0,1-1.76-3l.85,2a3.84,3.84,0,0,1-.28-.87V30.9l0-.22-.85,2,.07-.12-3,3,.11-.07-2,.84.13,0-2.25.3h.12l-4.25-1.12.1.07,8.51-14.54a2.49,2.49,0,0,1-.32-.2l1.68,1.32a4,4,0,0,1-.65-.65l1.31,1.68a30.28,30.28,0,0,1-1.5-2.81,43,43,0,0,0-3.47-4.52l1.32,1.69A18.08,18.08,0,0,1,98.79,15,12.38,12.38,0,0,0,94,10.34c-1.8-1.12-3.61-2.21-5.47-3.23A44.51,44.51,0,0,0,74.94,1.84a6.43,6.43,0,0,0-3.37-.16,6.39,6.39,0,0,0-3.11,1,8.46,8.46,0,0,0-3,11.55c1.12,1.74,2.9,3.5,5,3.86a31.31,31.31,0,0,1,6.83,2.07l-2-.85a57.7,57.7,0,0,1,5.77,2.91,52.12,52.12,0,0,1,5.4,3.28l-1.69-1.32a4.89,4.89,0,0,1,.46.45L83.93,23c.6.82.88,1.83,1.46,2.68,1,1.38,2.06,2.63,3.1,3.93l-1.32-1.68a16.77,16.77,0,0,1,1.58,2.8,11.83,11.83,0,0,0,4.63,4.93,8.45,8.45,0,0,0,11.54-3,8.47,8.47,0,0,0,.84-6.49l-.84-2a8.51,8.51,0,0,0-3-3,2.43,2.43,0,0,0-1.12-.5,6.32,6.32,0,0,0-3.24-.73,8.81,8.81,0,0,0-8.9,8.69v.16A12.35,12.35,0,0,0,89,31.29a23.1,23.1,0,0,0,1.23,3,12.82,12.82,0,0,0,1.3,2.24A26.38,26.38,0,0,0,94.38,40a8.74,8.74,0,0,0,6,2.47A8.43,8.43,0,0,0,108.76,34a8.79,8.79,0,0,0-2.47-6Z"/><path class="cls-1" d="M78.49,104.68a31,31,0,0,1,.17-5.62L77.45,108a14.79,14.79,0,0,1,.87-3.83l-3.37,8a5,5,0,0,1,.49-.84l-5.29,6.81a3.92,3.92,0,0,1,.52-.56l-6.82,5.27a3.44,3.44,0,0,1,.7-.4l-8,3.37a5.45,5.45,0,0,1,.89-.2l-9,1.2a103.42,103.42,0,0,0,13-1.65,15.41,15.41,0,0,0,2.12-.57c1.69-.6,3.37-1.39,4.93-2.06s3.31-1.31,4.89-2.1c2.44-1.21,4.4-3.2,6.9-4.3l-8,3.37a7.08,7.08,0,0,1,1.57-.46l-9,1.2a5.62,5.62,0,0,1,1.42,0l-9-1.2a5.65,5.65,0,0,1,1.05.29L50.22,116a7.3,7.3,0,0,1,1.57.93L45,111.68c1.58,1.25,3,2.68,4.5,4L54.21,120,61,125.24l8,3.37,9,1.2a25.25,25.25,0,0,0,13-2.9,16.8,16.8,0,0,0,7.43-4.33,17,17,0,0,0,6-6,16.93,16.93,0,0,0,4.33-7.44,25.25,25.25,0,0,0,2.9-13c.33-2.84.62-5.69,1-8.52l-1.23,9a17.88,17.88,0,0,1,1-4.27l-3.37,8a8.67,8.67,0,0,1,1-1.73l-5.27,6.82a6.3,6.3,0,0,1,1-1l-6.83,5.27a6,6,0,0,1,1.09-.64L49.43,80v.25l1.2-9a5.75,5.75,0,0,1-.39,1.42l3.37-8c-.11.23-.22.44-.34.65a25,25,0,0,0-4,12.53,25.42,25.42,0,0,0,.6,13.43,25.26,25.26,0,0,0,6,11.46,25.51,25.51,0,0,0,9.45,8.68l8.05,3.4a34,34,0,0,0,17.91,0l8-3.37A33.89,33.89,0,0,0,111.43,99.3c4.08-6.88,4.6-11.55,5.36-19.34A33.68,33.68,0,0,0,66.11,50.87h0a6.71,6.71,0,0,0-.87.49l-.22.16-6.82,5.27c-.13.11-.27.21-.4.34s-.38.43-.56.65L52,64.61c-.05.06-.1.14-.15.21l-.25.38a9.17,9.17,0,0,0-.46.88c-1.21,2.6-2.45,5.62-3.51,8.31-.07.17-.14.35-.2.53a14.36,14.36,0,0,0-.56,1.94c-.92,4.38-1.3,8.87-1.82,13.32l-.69,6,57.51-23.82-6.12-5.57C89.81,61.4,83.54,56,75.49,54.21c-7-1.51-13.47-2-20.43.13a58.26,58.26,0,0,0-9.41,3.93,13.78,13.78,0,0,0-1.33.8,43.94,43.94,0,0,1-5.87,3.66l8-3.37a18.16,18.16,0,0,1-4.41,1.22l9-1.21c-.72.09-1.43.12-2.15.16-7.86.46-11.67,1.3-18.58,4.93A36.93,36.93,0,0,0,23,70.07c-.09.09-.19.17-.27.26l-.18.22-5.27,6.82a5.59,5.59,0,0,0-.43.75c-.95,1.93-2.69,6.24-3.48,8.23l-.18.47a12.53,12.53,0,0,0-.43,1.81c-.07.4-.14.8-.19,1.2-.48,3.28-1,6.59-1.32,9.89a30.44,30.44,0,0,0-.1,5,25.34,25.34,0,0,0,2.87,13,25.22,25.22,0,0,0,7,10.84,25.22,25.22,0,0,0,10.84,7,25.35,25.35,0,0,0,13,2.91l9-1.2a33.8,33.8,0,0,0,14.87-8.67l5.26-6.82a33.45,33.45,0,0,0,4.6-17Z"/><path class="cls-1" d="M50.73,179l2.57.65V163.44l-1,.24a8.53,8.53,0,0,0-5.06,3.87l-.82,2a6.43,6.43,0,0,0-.16,3.37,4.16,4.16,0,0,0,.57,2.12,6.16,6.16,0,0,0,1.74,2.71,8.92,8.92,0,0,0,6,2.47,14.46,14.46,0,0,0,6.85-1.68,8.74,8.74,0,0,0,1.29-.76,18.66,18.66,0,0,0,2.77-2.25,15.69,15.69,0,0,0,3-4.29,21.81,21.81,0,0,0,1.28-3.37,26.53,26.53,0,0,0,.56-4,25.94,25.94,0,0,0-.41-6,38.1,38.1,0,0,0-.75-3.83A27.72,27.72,0,0,0,68,150.41a25.32,25.32,0,0,0-2.58-5.15,41.62,41.62,0,0,0-6.3-7.21,17.68,17.68,0,0,0-6.28-3.8,12.83,12.83,0,0,0-7.11-.13,11.66,11.66,0,0,0-6.95,5.27A14.91,14.91,0,0,0,37,144.81a42.55,42.55,0,0,0-.62,6,40.64,40.64,0,0,0,.57,6.22,18.43,18.43,0,0,0,4.49,10,6.32,6.32,0,0,0,.6.56,16.67,16.67,0,0,0,2.25,1.65,11.87,11.87,0,0,0,5.36,1.51A9.94,9.94,0,0,0,55,169.31a19.31,19.31,0,0,0,1.76-1.37,10.13,10.13,0,0,0,1.46-1.87,13.52,13.52,0,0,0,.9-2.11,7,7,0,0,0,.32-2.54,8.42,8.42,0,0,0-3.32-6.63,6.42,6.42,0,0,0-2.87-1.51,8.35,8.35,0,0,0-4.49,0,20.19,20.19,0,0,0-7.13,4.27,18.73,18.73,0,0,0-4.49,7,7.31,7.31,0,0,0-.36,1.12,14.7,14.7,0,0,0-.4,3.16,11.12,11.12,0,0,0,1.68,5.94,10.69,10.69,0,0,0,9.07,5.09,12.52,12.52,0,0,0,2.59-.35,13.12,13.12,0,0,0,2.32-1l1.69-1.32L55,175.56l.86-2.06a6.33,6.33,0,0,0,.15-3.37,8.22,8.22,0,0,0-1.68-4,4.2,4.2,0,0,0-1.51-1.51A6.33,6.33,0,0,0,50,163.13L44.2,160.7l2,.85A5,5,0,0,1,45,160.9l1.69,1.32a2.33,2.33,0,0,1-.31-.32l1.32,1.68a3.16,3.16,0,0,1-.33-.56l.88,2.06a32.88,32.88,0,0,1-1.47-5.33c-.42-1.82-.79-3.64-1.13-5.48-.7-3.58-1.36-7.19-2.36-10.71a52,52,0,0,0-4.4-11,35.78,35.78,0,0,0-7.47-9.31c-2.85-2.58-6-4.88-8.35-7.93L24.39,117a16.87,16.87,0,0,1-2.1-3.48l.85,2a14.71,14.71,0,0,1-.59-1.69,8.59,8.59,0,0,0-3.88-5l-2-.85a6.23,6.23,0,0,0-3.37-.15,4.1,4.1,0,0,0-2.1.58,6.21,6.21,0,0,0-2.71,1.74l-1.32,1.68A8.47,8.47,0,0,0,6,116a122.67,122.67,0,0,0,1.28,30.68q.56,3.5,1.34,6.94a42,42,0,0,0,2.51,7.49,19.32,19.32,0,0,0,4.49,6.35,31.28,31.28,0,0,0,7.07,4.64c5.73,2.92,11.68,5.3,18.19,5.45l2.25-.3A6.39,6.39,0,0,0,46,175.75a4.2,4.2,0,0,0,1.51-1.51A6.42,6.42,0,0,0,49,171.37a9.45,9.45,0,0,0,.5-3.07,12.4,12.4,0,0,0-.39-3.09A14.55,14.55,0,0,0,48,162.36a7.52,7.52,0,0,0-.56-1,48,48,0,0,0-4.28-5.05c-2.25-2.39-4.46-4.79-6.46-7.37L38,150.62a35,35,0,0,1-4.49-7.47l.85,2a24.47,24.47,0,0,1-1.74-5.91L33,141.5a18.54,18.54,0,0,1,0-4.88l-.3,2.25a16,16,0,0,1,.94-3.6,6.32,6.32,0,0,0,.14-3.37,6.16,6.16,0,0,0-1-3.13,8.45,8.45,0,0,0-11.54-3l-1.69,1.31a8.48,8.48,0,0,0-2.16,3.72,15.54,15.54,0,0,0-.92,3.48,27.15,27.15,0,0,0-.44,5.62A29.33,29.33,0,0,0,17.79,149a38.66,38.66,0,0,0,4.3,8.36,77,77,0,0,0,6,7.49c1.91,2.13,4,4.13,5.8,6.38l-1.32-1.69a8.3,8.3,0,0,1,1,1.59l-.85-2a5.82,5.82,0,0,1,.25.84l-.31-2.25a3,3,0,0,1,0,.84l.31-2.24a3.48,3.48,0,0,1-.18.63l8.12-6.17c-.75,0-1.5-.08-2.24-.17l2.24.3a30.4,30.4,0,0,1-7.52-2.17l2,.8c-1.57-.67-3.1-1.42-4.61-2.2a26.19,26.19,0,0,1-4.26-2.54l1.68,1.32a11.84,11.84,0,0,1-1.9-1.91l1.32,1.69a15.77,15.77,0,0,1-2-3.37l.85,2a40,40,0,0,1-2-6.93q-.87-4.17-1.43-8.42l.29,2.24a115,115,0,0,1-.52-25.36L6.27,118.3a27.7,27.7,0,0,0,8.29,12.53c3,2.75,6.32,5.16,8.83,8.42l-1.31-1.69A32.25,32.25,0,0,1,26,144.49l-.85-2a71.72,71.72,0,0,1,3.77,13.69c.5,2.52,1,5.05,1.53,7.57.28,1.26.56,2.51.93,3.75.16.56.31,1.12.5,1.68a13.07,13.07,0,0,0,2.65,4.69,12.1,12.1,0,0,0,2.19,1.78,6.13,6.13,0,0,0,.92.47c1.25.56,2.51,1,3.76,1.58l4.15,1.73-2-15.41-.17.08,2-.85a2.14,2.14,0,0,1-.34.09l2.24-.31a2.35,2.35,0,0,1-.53,0l2.25.31a3.13,3.13,0,0,1-.52-.16l2,.84a3.24,3.24,0,0,1-.47-.28l1.68,1.32a3.68,3.68,0,0,1-.4-.39l1.32,1.68a3.15,3.15,0,0,1-.39-.63l.86,2a5.39,5.39,0,0,1-.18-.66l.31,2.24a4.61,4.61,0,0,1,0-.91l-.3,2.24a6.75,6.75,0,0,1,.44-1.58l-.85,2a10,10,0,0,1,1.2-2.05l-1.32,1.68a11.3,11.3,0,0,1,2-1.95l-1.68,1.32a10.77,10.77,0,0,1,2.24-1.27l-2,.85a3.25,3.25,0,0,1,.4-.15l-10.67-8.13v.16l.31-2.25,0,.14.86-2-.07.13L45,155.84a1,1,0,0,1-.2.22l1.68-1.32a1.51,1.51,0,0,1-.28.15l2-.85a1.78,1.78,0,0,1-.33.09l2.25-.3a2.09,2.09,0,0,1-.5,0l2.25.3a4.33,4.33,0,0,1-.87-.25l2,.85a5.35,5.35,0,0,1-.77-.45L54,155.6a5.47,5.47,0,0,1-.91-.89l1.32,1.69a8.21,8.21,0,0,1-1.06-1.78l.85,2a17.81,17.81,0,0,1-1-4.13l.31,2.25a27.83,27.83,0,0,1,0-7.18l-.31,2.25a14.48,14.48,0,0,1,.81-3.56l-.85,2a4.88,4.88,0,0,1,.44-.73l-1.31,1.68a3.52,3.52,0,0,1,.56-.53L51.11,150a3.29,3.29,0,0,1,.66-.37l-2,.85a4.26,4.26,0,0,1,.93-.25l-2.25.31a4.74,4.74,0,0,1,1.19,0l-2.25-.31a5.49,5.49,0,0,1,1.37.39l-2-.85a7.86,7.86,0,0,1,1.57,1l-1.68-1.31a32.55,32.55,0,0,1,5.05,5.31l-1.32-1.68a17.48,17.48,0,0,1,2.25,3.85l-.85-2a30.16,30.16,0,0,1,1.93,7.48l-.3-2.25a17.11,17.11,0,0,1,.06,4.29l.3-2.25a11.37,11.37,0,0,1-.66,2.58l.84-2a9.15,9.15,0,0,1-1.12,1.94L54.12,163a8.92,8.92,0,0,1-1.43,1.45l1.68-1.32a7.72,7.72,0,0,1-1.53.93l2-.85a6.73,6.73,0,0,1-1.52.42l2.25-.3a6.75,6.75,0,0,1-1,0L56.82,180l1-.27,2-.86a6.31,6.31,0,0,0,2.37-2.16A8.06,8.06,0,0,0,64,171.55a10,10,0,0,0-1.13-4.25,8.53,8.53,0,0,0-5.05-3.87l-2.58-.65a8.84,8.84,0,0,0-6.49.84,8.46,8.46,0,0,0-3,11.55,8.67,8.67,0,0,0,5,3.87Z"/><path class="cls-1" d="M110.12,79.59a30.62,30.62,0,0,0-3.45.4,9.65,9.65,0,0,0-1.32.27,11.24,11.24,0,0,0-1.24.41A31.4,31.4,0,0,0,101,82.06a9.42,9.42,0,0,0-3.87,5,6.43,6.43,0,0,0-.15,3.37,6.36,6.36,0,0,0,1,3.14l1.32,1.68A8.33,8.33,0,0,0,103,97.46l2.24.3a8.22,8.22,0,0,0,4.25-1.12c.34-.18.68-.34,1-.49l-2,.85a11.5,11.5,0,0,1,2.76-.74l-2.24.3a10.35,10.35,0,0,1,1.12-.09,9.35,9.35,0,0,0,6-2.46,6.46,6.46,0,0,0,1.74-2.71,6.23,6.23,0,0,0,.72-3.25l-.29-2.25a8.47,8.47,0,0,0-2.17-3.71l-1.69-1.32a8.42,8.42,0,0,0-4.25-1.15Z"/><path class="cls-2" d="M55.24,47.4a14.54,14.54,0,0,1,6.81-2.81c1.33-.16,2.67,0,4-.26A9.82,9.82,0,0,1,70,44.16a17.52,17.52,0,0,1,1.89.5,9.64,9.64,0,0,1,1.8.64c.52.31-.27.68-.6.79a10.27,10.27,0,0,1-1.63.34,35.75,35.75,0,0,0-3.65,1.12c-1.23.33-2.55.66-3.84.92a14.87,14.87,0,0,1-4.46.38,8.22,8.22,0,0,1-2.19-.57c-.38-.16-1.42-.61-1.5-1.09l-.08.66c.21-.44,1.12-.85,1.54-1.08a11.84,11.84,0,0,1,2-.89,15.57,15.57,0,0,1,4.21-.83,28.62,28.62,0,0,1,4.9.17c.88.09,1.75.22,2.62.36.47.08,1.5.08,1.83.51l.3-1.15c-1.22.56-2.6.65-3.87,1.09s-2.28,1-3.49,1.4a13.56,13.56,0,0,1-3.81.44c-1.25,0-2.54.12-3.79,0a5.27,5.27,0,0,1-.69-.14c-.12-.14-.22-.13-.31,0l.36-.24c.49-.29,1-.57,1.5-.81a13.75,13.75,0,0,1,3.46-1.13c2.7-.48,5.39.35,8,.93V44.91c-3.58,1.31-7.3,2.67-11.23,2.37a4.93,4.93,0,0,1-.66-.07l-.4-.07.06.7c.48-.16.95-.35,1.42-.56a22.85,22.85,0,0,1,2.73-.73A21.85,21.85,0,0,1,68,46.21l-.6-1.44a4.66,4.66,0,0,1-3.2,1.47c-1.57.21-3.18.3-4.77.45l.46,1.59a6.8,6.8,0,0,1,3-1c1.07-.1,1.08-1.78,0-1.69a8.65,8.65,0,0,0-3.88,1.27c-.65.41-.45,1.65.43,1.57,1.8-.17,3.63-.26,5.41-.56A5.77,5.77,0,0,0,68.67,46a.85.85,0,0,0,0-1.21.88.88,0,0,0-.56-.23,23.58,23.58,0,0,0-7.1.63,16.07,16.07,0,0,0-3.37,1.12c-.83.43-1.38,1.5-.48,2.2a2.82,2.82,0,0,0,1.38.39,13.61,13.61,0,0,0,1.8.12,18.62,18.62,0,0,0,3.57-.35,43.6,43.6,0,0,0,7.05-2.11c.72-.26.88-1.43,0-1.63-2.47-.56-5-1.32-7.6-1.12a15.5,15.5,0,0,0-6.65,2.33c-1,.56-1.59,1.55-.74,2.56a3.32,3.32,0,0,0,2.63.93c1.29,0,2.6,0,3.93,0a13.81,13.81,0,0,0,3.62-.45c1.34-.39,2.53-1.12,3.85-1.52a26.81,26.81,0,0,0,4-1.18.84.84,0,0,0,.31-1.12,3.41,3.41,0,0,0-2.44-1.22c-1.29-.21-2.58-.4-3.88-.56a23.57,23.57,0,0,0-7.26.24,14.16,14.16,0,0,0-5.78,2.6c-.36.28-.75.56-.76,1.09a1.9,1.9,0,0,0,.72,1.27,6.42,6.42,0,0,0,2.81,1.48,14.84,14.84,0,0,0,7.1-.15c1.16-.25,2.32-.52,3.46-.85s2.19-.86,3.33-1.09a7.33,7.33,0,0,0,2.87-.8,2.06,2.06,0,0,0,1-2.59c-.51-1-1.69-1.19-2.58-1.5a16.15,16.15,0,0,0-3.49-.84,14.74,14.74,0,0,0-3.93.38c-1.33.19-2.67.06-4,.26a15.78,15.78,0,0,0-7,2.94c-.85.64,0,2.1.86,1.45Z"/><path class="cls-2" d="M78.1,36.74a3,3,0,0,0-.48,1,1.71,1.71,0,0,0,0,.84,1.31,1.31,0,0,0,.56.73,2.47,2.47,0,0,0,1.12.33,3.07,3.07,0,0,0,1.13,0,1.6,1.6,0,0,0,1.18-1,3.09,3.09,0,0,0,.08-.61,2.68,2.68,0,0,0,0-.63,1.51,1.51,0,0,0-1-1.09,2.54,2.54,0,0,0-1-.11,1.24,1.24,0,0,0-1,.53,1.1,1.1,0,0,0,0,1.16,1.26,1.26,0,0,0,.72.56,1.21,1.21,0,0,0,1-.09.83.83,0,0,0,.31-1.15.84.84,0,0,0-.51-.39.94.94,0,0,0-.64.09h0l.2-.08h.06l.22,0h-.11l.2.08-.1,0,.17.13L80,36.91l.14.17L80.1,37l.09.2a.11.11,0,0,1,0-.08l0,.22a.06.06,0,0,1,0-.06l0,.22a.11.11,0,0,1,0-.08l-.09.2v0l-.13.17,0-.05-.18.14.06,0-.2.09h.1l-.23,0a2.71,2.71,0,0,1,.57,0h-.23a.72.72,0,0,1,.25.07L80,37.9l.16.1L80,37.86l.09.1-.13-.18a.83.83,0,0,1,.09.16l-.09-.21A1.05,1.05,0,0,1,80,38v-.22a2,2,0,0,1,0,.6v-.22a.42.42,0,0,1,0,.15l.09-.2-.06.1L80.1,38a.47.47,0,0,1-.1.1l.16-.12a.86.86,0,0,1-.23.13l.21-.08a2.22,2.22,0,0,1-.37.09l.23,0a2.73,2.73,0,0,1-.7,0h.22A2.66,2.66,0,0,1,79,38l.2.08A.65.65,0,0,1,79,38l.17.13L79.09,38l.12.17-.06-.1.09.2a.24.24,0,0,1,0-.12v.23a.43.43,0,0,1,0-.16v.22a2.85,2.85,0,0,1,.14-.5l-.08.2a2.12,2.12,0,0,1,.27-.49.84.84,0,0,0-.3-1.13.86.86,0,0,0-.65-.08.9.9,0,0,0-.5.38Z"/><path class="cls-2" d="M46,37.67a11.48,11.48,0,0,0-.09,1.44,1.65,1.65,0,0,0,.92,1.5,3,3,0,0,0,.72.22,2.69,2.69,0,0,0,.8.08,1.77,1.77,0,0,0,1-.46,2.3,2.3,0,0,0,.49-.82,2.67,2.67,0,0,0-.79-2.89,2.19,2.19,0,0,0-1.78-.56,1.38,1.38,0,0,0-.85.6,1.46,1.46,0,0,0-.13,1.12c.14.62.25,1.4.81,1.76a1.16,1.16,0,0,0,1.4-.18A1.63,1.63,0,0,0,49,38.36a.85.85,0,0,0-.84-.84.87.87,0,0,0-.85.84v-.07a.24.24,0,0,1,0,.12c0,.08-.07.1,0,0s.14-.14.06-.07a.36.36,0,0,1,.2-.11c.07,0,.08,0,0,0h.4c-.08,0-.05,0,.08,0s.13.1.07.05l.07.1c0-.08,0-.06,0,.07a2,2,0,0,0-.08-.33c-.06-.25-.13-.5-.17-.76v0l0,.22c0-.14-.07.14,0,.07s0,0,0,0a.25.25,0,0,1-.14.13l.07,0c-.14.05-.17.07-.11.05h.06l-.22,0h0l.16,0s.17.08,0,0,0,0,0,0l.12.07.1.06c.13.09,0,0,0,0s.15.14.18.17.08.07.07.08-.13-.18,0,0l.12.21s.07.15,0,0,0,0,0,0a2.46,2.46,0,0,1,.07.29l0-.22a2.09,2.09,0,0,1,0,.5l0-.22c0,.1,0,.2-.07.3l0,.09.05-.1s-.05.11-.08.15-.11.17,0,0-.13.1,0,0-.16.1,0,0h0a1.59,1.59,0,0,1-.38-.07l0-.08H47.6c-.08,0-.05,0,.07,0a.3.3,0,0,1-.15-.09l.1.08-.06-.06c.09.11.1.13,0,0s0,0,0,.08a1.16,1.16,0,0,0,0-.18l0,.22a4.45,4.45,0,0,1,0-.73l.07-.88a.85.85,0,1,0-1.69,0Z"/><path class="cls-3" d="M55.92,159.94a4.63,4.63,0,0,0-1.55,2.62,6.2,6.2,0,0,0,0,3.2,3.65,3.65,0,0,0,2.77,2.06,2.88,2.88,0,0,0,1.78-.25,2.21,2.21,0,0,0,.66-.51,6.17,6.17,0,0,1,.48-.54l-1.24-1a4,4,0,0,1-.4.69.85.85,0,0,0,.3,1.12c1.08.5,2.09-.24,2.76-1.07a4.93,4.93,0,0,0,1.12-2.7,4.19,4.19,0,0,0-2.88-4.28,4.55,4.55,0,0,0-3.2.31c-1,.53-1.17,1.74-1.34,2.74a4.67,4.67,0,0,0,.36,3.22,2.94,2.94,0,0,0,2.3,1.51,3.15,3.15,0,0,0,2.64-1.52,3.87,3.87,0,0,0,1-2.92c-.45-1.84-3.69-3.63-4.78-1.36a3.81,3.81,0,0,0-.07,3.07,2.51,2.51,0,0,0,2.28,1.6,2,2,0,0,0,2-2A2.46,2.46,0,0,0,59,161.59a1.6,1.6,0,0,0-1.44.79,2.55,2.55,0,0,0-.32,1.64c.15.63.74.87,1.3,1a3.85,3.85,0,0,0,1.72.13,1.27,1.27,0,0,0,1-1.37,1.86,1.86,0,0,0-.81-1.4c-.9-.64-2.56-.16-2.35,1.12a1.15,1.15,0,0,0,1.29,1h.09a.85.85,0,1,0-.45-1.63h.37c.37.37.42.66.13.89h0c-.05,0,0,0,0,0-.1-.1.08.07,0,0,.13.11,0,.07,0,0l.31-.31h-.15a1.82,1.82,0,0,1-.33,0,2.73,2.73,0,0,1-.48-.1l-.18-.06c-.06,0-.07,0-.06,0l.21.37s.07-.39.08-.42.09-.06.06-.06a1.33,1.33,0,0,0-.2,0s-.1-.11,0,0,.1.1.14.16a1,1,0,0,1,.24.46V164s0,.1,0,.09,0-.09,0,0a.42.42,0,0,1-.29.14.52.52,0,0,1-.4-.11,1.33,1.33,0,0,1-.48-.92,2.06,2.06,0,0,1,.23-1.31c-.05.07.12,0,0,0a.28.28,0,0,1,.18,0,2,2,0,0,1,.56.28,1.93,1.93,0,0,1,.78.87.41.41,0,0,1,0,.22,1.09,1.09,0,0,1-.09.23c-.13.26-.27.52-.42.77a2.37,2.37,0,0,1-1,1.05.82.82,0,0,1-.93-.11,3,3,0,0,1-.3-.32,1.53,1.53,0,0,1-.28-.59,3.41,3.41,0,0,1,0-1.62c.05-.32.12-.64.2-1a1.41,1.41,0,0,1,.21-.56,2.32,2.32,0,0,1,1.31-.3,2.13,2.13,0,0,1,1.27.35,2.55,2.55,0,0,1,1.12,2.38,3.22,3.22,0,0,1-.56,1.44,3.28,3.28,0,0,1-.49.56,1.63,1.63,0,0,1-.29.23c-.16.1-.18,0,0,.11l.31,1.16a5.11,5.11,0,0,0,.56-1.09.85.85,0,0,0-.61-1,.82.82,0,0,0-.63.08c-.32.29-.63.59-.92.91a1,1,0,0,1-.82.2c-.56-.07-1.46-.56-1.56-1.2a5.42,5.42,0,0,1,.17-2.16,3,3,0,0,1,1.06-1.69.84.84,0,0,0,0-1.19.86.86,0,0,0-1.19,0Z"/><path class="cls-3" d="M55.73,150.7a1.76,1.76,0,0,0,.23,1.43,1.72,1.72,0,0,0,2.83,0,1.74,1.74,0,0,0,.1-1.6,2.08,2.08,0,0,0-.45-.74,2,2,0,0,0-.74-.47,1.66,1.66,0,0,0-1.48.19,2.7,2.7,0,0,0-.89,1A2.44,2.44,0,0,0,55,152a1.58,1.58,0,0,0,.43.92,1.87,1.87,0,0,0,.83.45,2,2,0,0,0,1.65-.11,1,1,0,0,0,.39-.51.85.85,0,0,0-.56-1,.82.82,0,0,0-.65.09l-.13.07.2-.09a.48.48,0,0,1-.17,0l.22,0a1.13,1.13,0,0,1-.26,0l.22,0a3,3,0,0,1-.65-.17l.21.08-.18-.09.17.12a.57.57,0,0,1-.14-.13l.14.17a.64.64,0,0,1-.08-.14l.09.21a2,2,0,0,1-.07-.23l0,.23a1.31,1.31,0,0,1,0-.28v.22a1.66,1.66,0,0,1,.12-.42l-.14.17A3,3,0,0,1,57,151l-.13.17a1.92,1.92,0,0,1,.28-.29L57,151a1.49,1.49,0,0,1,.24-.14L57,151l.24-.06-.23,0h.23l-.22,0,.22.07-.21-.09a1.38,1.38,0,0,1,.24.14l-.17-.13.19.19-.13-.16a1.87,1.87,0,0,1,.16.28l-.09-.21a2.42,2.42,0,0,1,.1.36l0-.23a1,1,0,0,1,0,.35v-.23a.53.53,0,0,1,0,.12l.09-.2a.67.67,0,0,1-.09.14l.13-.17a.53.53,0,0,1-.13.13l.17-.13a.82.82,0,0,1-.2.12l.19-.08a.86.86,0,0,1-.23.06l.22,0H57.2l.23,0a.65.65,0,0,1-.2,0l.2.08a.52.52,0,0,1-.18-.1l.17.13a.54.54,0,0,1-.15-.15l.14.18a2.39,2.39,0,0,1-.13-.21l.09.2a.79.79,0,0,1-.08-.26v.11a.84.84,0,1,0-1.62-.45h0Z"/><path class="cls-3" d="M49.08,155.3a1.32,1.32,0,0,0-.56,0,1.23,1.23,0,0,0-.31.14,1.35,1.35,0,0,0-.47.51,2.48,2.48,0,0,0-.34,1.12,1.37,1.37,0,0,0,1.26,1.47,1.41,1.41,0,0,0,.54-.06,2,2,0,0,0,1-.78,4.41,4.41,0,0,0,.42-.91,3.35,3.35,0,0,0,.24-1,1.2,1.2,0,0,0-.87-1.22,1.69,1.69,0,0,0-2.06,1.2.84.84,0,0,0,1.6.48.56.56,0,0,1,0-.12l-.09.2a.71.71,0,0,1,.12-.18l-.14.17.15-.16-.16.13a1.05,1.05,0,0,1,.21-.12l-.2.08.21-.05-.22,0h.18l-.22,0,.15,0-.2-.09.07.05-.17-.13a.19.19,0,0,1,.07.06l-.13-.17a.2.2,0,0,1,0,.08l-.08-.2v.07l0-.23a.54.54,0,0,1,0,.18l0-.23a4.08,4.08,0,0,1-.28.9l.09-.2a3.13,3.13,0,0,1-.34.62l.14-.17a1,1,0,0,1-.18.17l.18-.13-.17.1.2-.09a.6.6,0,0,1-.19.06l.23,0h-.19l.23,0,0-.09.2.09-.11-.06.17.13-.09-.09.14.17a.41.41,0,0,1-.07-.11l.08.2a.76.76,0,0,1,0-.16v.22a1,1,0,0,1,0-.24v.23a2.54,2.54,0,0,1,.14-.47l-.08.21a.92.92,0,0,1,.13-.24l-.13.16.08-.08-.17.13.09-.06-.19.09H49l-.23,0h-.21a1,1,0,0,0,.66-.09.87.87,0,0,0,.38-.5.82.82,0,0,0-.09-.65.85.85,0,0,0-.5-.39Z"/><path class="cls-3" d="M64.14,155a1.33,1.33,0,0,0-.65,1.12,1.87,1.87,0,0,0,.23,1,2.08,2.08,0,0,0,.53.65,2.17,2.17,0,0,0,.9.5,1.49,1.49,0,0,0,1.18-.18,1.45,1.45,0,0,0,.44-.48,1.61,1.61,0,0,0,.12-1.16,2.05,2.05,0,0,0-.22-.5,5,5,0,0,0-.53-.68,1.46,1.46,0,0,0-1.12-.51,1.19,1.19,0,0,0-1.16.87,1,1,0,0,0,.08.65.9.9,0,0,0,.51.39.87.87,0,0,0,.65-.08.9.9,0,0,0,.39-.51.06.06,0,0,1,0-.06l-.09.2,0-.06-.14.17.06,0-.17.13.08-.05-.2.09.11,0-.23,0h.14l-.22,0,.12,0-.2-.08.14.09-.17-.14a2.11,2.11,0,0,1,.39.45l-.12-.18a2.65,2.65,0,0,1,.24.4l-.09-.2a.79.79,0,0,1,.06.22v-.24a.83.83,0,0,1,0,.15l.08-.2a.37.37,0,0,1-.07.14l.13-.17-.08.07.18-.13-.12.07.2-.09-.16.05.22,0h-.19l.23,0a1,1,0,0,1-.24-.07l.2.09a2,2,0,0,1-.31-.2l.17.13a1.64,1.64,0,0,1-.3-.29l.13.16a1.41,1.41,0,0,1-.18-.29l.09.21a1.38,1.38,0,0,1-.08-.27l0,.22a.74.74,0,0,1,0-.21l0,.22a.48.48,0,0,1,.05-.17l-.09.19.06-.08-.14.17.07-.07-.17.13.06,0a.85.85,0,0,0,.39-.5.82.82,0,0,0-.09-.65.85.85,0,0,0-1.12-.3Z"/><path class="cls-3" d="M74.43,154.79a2.93,2.93,0,0,0,.74,1.48,1.93,1.93,0,0,0,.83.48,1.8,1.8,0,0,0,1.12-.14,3.27,3.27,0,0,0,1.23-1,2,2,0,0,0,.17-1.78,2.41,2.41,0,0,0-1-1.5,1.59,1.59,0,0,0-1.13-.18,2.31,2.31,0,0,0-.89.47,1.88,1.88,0,0,0-.73,1.52,1.65,1.65,0,0,0,1.12,1.41,1.53,1.53,0,0,0,1.83-.7,1.39,1.39,0,0,0,.05-1.21,1.29,1.29,0,0,0-.89-.78.85.85,0,1,0-.45,1.63c.13,0-.17-.11-.06,0l-.09-.07,0,0-.09-.11q.06.1,0-.09v0l0-.23c0,.09-.09.22,0,0-.06.13.15-.16,0,0s0,0,.07,0l-.07,0,.09,0h-.08l.23,0a.6.6,0,0,1-.19,0l.22,0h-.11c-.12,0,.16.08.08,0l-.09-.05h0l-.07-.06c-.06-.07.12.17.06.06l0-.05c0-.06,0,0,0,.12v.11a.81.81,0,0,1,0-.22v.23s0-.12,0-.17c0,.12-.07.16,0,.1l0-.06,0-.08-.06.08.11-.12a.31.31,0,0,0,.11-.09c-.11.09-.14.1-.06.05l.09-.06h0c.08,0,.06,0-.07,0l.21,0-.23,0h.2l-.22,0h.09c.12,0-.06,0-.07,0l.09.05s-.12-.11-.06,0l.07.06c.07.06-.1-.14,0-.06a1.57,1.57,0,0,0,.12.19c0,.07,0,0,0-.05a.16.16,0,0,0,0,.09.66.66,0,0,0,.06.2,4.37,4.37,0,0,1,.12.49v-.22a1.31,1.31,0,0,1,0,.28l0-.22a.17.17,0,0,1,0,.1s0,.14,0,0h0l0,.08c-.08.13.1-.11,0-.05l-.08.08-.15.14c-.08.07.15-.11.06,0l-.09.07-.18.11a.45.45,0,0,0-.2.12s.18-.06.06,0l-.15,0,.22,0h.05s-.18,0-.18,0,.2.1.06,0l-.08-.05c-.08,0,.12.12.06,0l-.07-.06h0c.09.11,0,0,0,0a.75.75,0,0,0-.09-.18c0-.06,0,0,0,.06s0-.06,0-.1a3.06,3.06,0,0,1-.13-.43.85.85,0,0,0-1.63.44Z"/><path class="cls-3" d="M80.88,148.92a1.58,1.58,0,0,0,.56.85,2.12,2.12,0,0,0,.49.27,1.86,1.86,0,0,0,.47.09h.13a2,2,0,0,0,.34,0,1.4,1.4,0,0,0,.43-.2A1.67,1.67,0,0,0,84,149a1.65,1.65,0,0,0,.1-.48v-.13c0-.11,0-.23,0-.34a1.57,1.57,0,0,0-.12-.3l-.07-.13a1.74,1.74,0,0,0-.31-.36,2.48,2.48,0,0,0-.26-.19l-.31-.14a1.86,1.86,0,0,0-.47-.09,1.54,1.54,0,0,0-.47.05.58.58,0,0,0-.22.08l-.22.1a1.73,1.73,0,0,0-.71.93,1.49,1.49,0,0,0,0,1,.67.67,0,0,0,.15.29.66.66,0,0,0,.23.21.86.86,0,0,0,1.16-.3.87.87,0,0,0,.08-.65c0-.05,0-.11,0-.17l0,.22a.81.81,0,0,1,0-.22l0,.23a1.05,1.05,0,0,1,.06-.24l-.08.2a.93.93,0,0,1,.11-.19l-.14.18.14-.15-.16.14a.57.57,0,0,1,.16-.11l-.2.09a.46.46,0,0,1,.2-.05l-.23,0h.2l-.22,0a.86.86,0,0,1,.23.06l-.2-.08a.72.72,0,0,1,.19.11l-.17-.14a.75.75,0,0,1,.15.16l-.12-.17a1.09,1.09,0,0,1,.08.15l-.08-.2a1.21,1.21,0,0,1,0,.18v-.23a.81.81,0,0,1,0,.22v-.22a.83.83,0,0,1-.06.21l.08-.2a1,1,0,0,1-.11.21l.12-.17a.47.47,0,0,1-.14.14l.17-.13a1,1,0,0,1-.17.1l.21-.09-.18.05.23,0h-.2l.22,0a.83.83,0,0,1-.21-.06l.2.09a1.13,1.13,0,0,1-.21-.12l.17.13a.93.93,0,0,1-.14-.14l.13.17a1,1,0,0,1-.1-.17l.09.2a.3.3,0,0,1,0-.1.87.87,0,0,0-.38-.5.89.89,0,0,0-.66-.08.8.8,0,0,0-.5.38.87.87,0,0,0-.08.65Z"/><path class="cls-3" d="M89.52,153.24a2.58,2.58,0,0,0-.32,1.15,2.25,2.25,0,0,0,.18,1.2,1.5,1.5,0,0,0,.92.73,1.47,1.47,0,0,0,1.19-.16,1.61,1.61,0,0,0,.7-1,1.84,1.84,0,0,0,0-.74,1.27,1.27,0,0,0-.13-.32A.65.65,0,0,0,92,154a2,2,0,0,0-.51-.49,2.07,2.07,0,0,0-.34-.15.43.43,0,0,0-.16-.05,1.74,1.74,0,0,0-1.26.22,3.23,3.23,0,0,0-.84.85,1.22,1.22,0,0,0,0,1.6.83.83,0,0,0,1.19,0,.82.82,0,0,0,.25-.59.86.86,0,0,0-.25-.6l0,0,.13.18v-.05l.09.21a0,0,0,0,1,0-.05l0,.23v-.1l0,.22a.28.28,0,0,1,0-.12l-.09.2a1.63,1.63,0,0,1,.23-.35l-.14.17a2.51,2.51,0,0,1,.36-.37l-.17.14a1.13,1.13,0,0,1,.26-.16l-.21.09a.83.83,0,0,1,.21-.06l-.22,0a.74.74,0,0,1,.21,0l-.22,0a.76.76,0,0,1,.2.06l-.2-.08a.81.81,0,0,1,.18.1l-.17-.13.15.14-.13-.16.09.15-.08-.2a1.36,1.36,0,0,1,0,.17l0-.22a.67.67,0,0,1,0,.2l0-.22-.06.19.08-.2a.59.59,0,0,1-.1.17l.13-.17-.12.12.17-.13-.13.07.2-.08-.16,0,.23,0h-.19l.22,0-.18-.05.2.08-.15-.08.18.13a.43.43,0,0,1-.12-.11l.13.16a.67.67,0,0,1-.09-.14l.09.21a.73.73,0,0,1,0-.2l0,.22a2.89,2.89,0,0,1,0-.72l0,.23A1.44,1.44,0,0,1,91,154l-.09.2s0-.09.08-.13a.89.89,0,0,0,.08-.66.88.88,0,0,0-.39-.5.86.86,0,0,0-1.15.3Z"/><path class="cls-3" d="M84,158.12c-1.44,0-2.48,1.3-3.17,2.45a7.49,7.49,0,0,0-1.12,3.82,3,3,0,0,0,2.06,3.06,5.79,5.79,0,0,0,3.67-.36,4.17,4.17,0,0,0,1.84-1.4,6.24,6.24,0,0,0,.86-2.13l-1.69-.22a5.06,5.06,0,0,0,.29,1.28.84.84,0,0,0,1.65-.22,7.46,7.46,0,0,0-.21-2.31,10.37,10.37,0,0,0-.64-2.12,2.58,2.58,0,0,0-3.49-1.44,6.71,6.71,0,0,0-1.56,1.3,6.8,6.8,0,0,0-1.25,1.63,3.52,3.52,0,0,0,.3,4,2.6,2.6,0,0,0,3.56.26A4.94,4.94,0,0,0,86.73,162a2.35,2.35,0,0,0-.44-1.95,1.87,1.87,0,0,0-2-.38,4.08,4.08,0,0,0-2.43,3.13,2.47,2.47,0,0,0,.63,2.21,1.88,1.88,0,0,0,2.17.32c1.41-.84,1.12-3,.62-4.25a.86.86,0,0,0-1.54-.2c-.6.88-1,2.13-.1,3a2.59,2.59,0,0,0,3.2-.14.87.87,0,0,0,.38-1,.86.86,0,0,0-.8-.62,10.31,10.31,0,0,0-2.53.56.84.84,0,0,0,.48,1.6,8.13,8.13,0,0,1,2.07-.5L86,162.24a1.48,1.48,0,0,1-1.19.36s0,.22,0,0v-.12a2.19,2.19,0,0,1,.39-.72l-1.54-.2a4.65,4.65,0,0,1,.33,1.37,1.58,1.58,0,0,1-.12.91c0,.06.06,0-.07.08s0,0,0,0-.12,0-.15-.05c-.22-.16-.21-.5-.17-.75a2.46,2.46,0,0,1,1.31-1.8c.08,0,.18-.07.24,0s0-.05,0,0,0,.48,0,.6a5.36,5.36,0,0,1-.06.69,2.65,2.65,0,0,1-1,2,.91.91,0,0,1-1.28-.21,1.19,1.19,0,0,1-.09-.15A2.18,2.18,0,0,1,83,162a6.85,6.85,0,0,1,1.77-1.83c1.68-1.18,2.14,3.37,2.06,4.26l1.65-.23a3.28,3.28,0,0,1-.22-.83.86.86,0,0,0-.73-.83.83.83,0,0,0-.92.6,4.66,4.66,0,0,1-.66,1.69,2.71,2.71,0,0,1-1.32.83c-.78.25-2.27.61-2.87-.17a2.15,2.15,0,0,1-.26-1.43,6.21,6.21,0,0,1,.41-1.74,6.41,6.41,0,0,1,.86-1.5c.3-.39.76-1,1.31-1,1.07,0,1.08-1.73,0-1.69Z"/><path class="cls-4" d="M88.42,7.29a4.87,4.87,0,0,0,1.94,0,5.7,5.7,0,0,0,1.27-.47c.49-.22,1-.56,1.45-.75l-.6.25a3.22,3.22,0,0,1,.67-.2l-.67.09a2,2,0,0,1,.49,0l-.68-.09a2.36,2.36,0,0,1,.38.1L92.05,6a2.14,2.14,0,0,1,.38.23l-.51-.39a3.26,3.26,0,0,1,.45.46L92,5.74a4.16,4.16,0,0,1,.47.71l-.26-.61c0,.09.06.19.08.28l-.1-.67c.06.46,0,.93.08,1.4.06.68.16,1.36.28,2l4.62-2a7.81,7.81,0,0,0-1-1.16,9.91,9.91,0,0,0-1.22-.94,16.41,16.41,0,0,0-1.77-.91,2.73,2.73,0,0,0-1.94-.25,2.54,2.54,0,0,0-1.75,3.06,2.48,2.48,0,0,0,1.16,1.51,12.47,12.47,0,0,1,2.14,1.2l-.51-.39a4.94,4.94,0,0,1,.86.85l-.4-.51.06.08a2.65,2.65,0,0,0,1.5,1.19,2.59,2.59,0,0,0,1.65-.12,2.42,2.42,0,0,0,1.2-1,2.81,2.81,0,0,0,.26-1.95c-.05-.27-.09-.53-.13-.79l.09.66c0-.39-.08-.79-.1-1.19a6.36,6.36,0,0,0-.17-1.63,4.43,4.43,0,0,0-.69-1.33A6,6,0,0,0,95,1.81a4.07,4.07,0,0,0-3.54-.46c-.83.34-1.64.73-2.44,1.15l.62-.26a3.19,3.19,0,0,1-.67.19l.67-.09a2.54,2.54,0,0,1-.39,0l.67.09h-.1a1.83,1.83,0,0,0-1-.05,2,2,0,0,0-.94.3,2.62,2.62,0,0,0-1.16,1.51,2.65,2.65,0,0,0,.25,1.95A2.43,2.43,0,0,0,88.42,7.29Z"/><path class="cls-4" d="M24.79,17.36v.38h5.05a12.78,12.78,0,0,1-.12-3.15l-.09.68A5.24,5.24,0,0,1,30,14l-.26.61a3.93,3.93,0,0,1,.49-.84l-.4.51a3.58,3.58,0,0,1,.61-.62l-.51.4a3.76,3.76,0,0,1,.61-.36l-.6.26A4.62,4.62,0,0,1,31,13.65l-.67.1a9.4,9.4,0,0,1,2.37,0L32,13.66l.36.06L31.8,9.1c-2.08,1.06-3.48,3-4.79,4.81a2.51,2.51,0,0,0-.26,1.95,2.54,2.54,0,0,0,3.11,1.77,2.91,2.91,0,0,0,1.54-1.2c.29-.41.56-.82.89-1.21l-.39.51a11.43,11.43,0,0,1,1.92-2l-.51.4a6.25,6.25,0,0,1,1.07-.68,2.54,2.54,0,0,0-.6-4.62c-2.5-.49-5.7-.34-7.45,1.77a6.83,6.83,0,0,0-1.55,3.32,10.71,10.71,0,0,0-.15,2.19,12.83,12.83,0,0,0,.16,1.64,2.72,2.72,0,0,0,.74,1.79,2.53,2.53,0,0,0,3.57,0,2.56,2.56,0,0,0,.74-1.79v-.38a2.55,2.55,0,0,0-2.53-2.53A2.58,2.58,0,0,0,24.79,17.36Z"/><path d="M50.71,179.41c-13-1.36-28.44-3.33-36.6-14.83-4.25-6-5.88-13.36-6.93-20.52C6,135.64,5.05,127,5.91,118.52c.85-8.36,3.11-16.49,5-24.66.91-4,1.73-8,2.25-12.13.56-4.37.63-8.76.77-13.15a78,78,0,0,1,1.51-13.1c.88-4.2,2-8.35,3.09-12.5a80.25,80.25,0,0,1,4-12.18,45.74,45.74,0,0,1,5.11-8.74A48.69,48.69,0,0,1,43.19,8.52,47.59,47.59,0,0,1,53.71,4.31C55.78,3.74,57.89,3.39,60,3s4.37-.83,6.58-1.05A31.38,31.38,0,0,1,78.41,3.07,27.63,27.63,0,0,1,83.9,5.31c1.69.93,3.25,2.15,5,3a23.66,23.66,0,0,1,4.94,2.93,33.25,33.25,0,0,1,4,3.88,45.73,45.73,0,0,1,6,8.61c7.26,13.48,8.11,28.9,10,43.77a158.7,158.7,0,0,0,4.34,23c1.75,6.27,2.64,12.78,3.73,19.19a83,83,0,0,1,.83,13.19,127.79,127.79,0,0,1-.39,13,55.68,55.68,0,0,1-6.68,22.59,52.35,52.35,0,0,1-6.5,9.15,34.83,34.83,0,0,1-8.52,7.36,30.48,30.48,0,0,1-6.09,2.25A44.93,44.93,0,0,1,88,178.64c-3.88.5-8,.18-11.46-1.85a10.26,10.26,0,0,1-5.24-8.28c0-1.08-1.72-1.08-1.69,0a11.79,11.79,0,0,0,4.8,8.87,17.41,17.41,0,0,0,11.08,3.14,43.39,43.39,0,0,0,12.84-2.77c3.83-1.34,7-3.93,9.82-6.74a54,54,0,0,0,12.36-19.19c3-8,3.76-16.66,3.83-25.16,0-4.49,0-9-.4-13.48-.33-3.61-1.12-7.18-1.68-10.75-.56-3.37-1.12-6.82-1.92-10.16-1-3.93-2.08-7.77-2.87-11.73-3.07-15.55-2.85-31.76-7.72-46.95A54.55,54.55,0,0,0,99.41,14.33a26,26,0,0,0-8.8-7.09,47.76,47.76,0,0,1-5.2-3,28.25,28.25,0,0,0-5.5-2.46A32.79,32.79,0,0,0,67.83.16,54.3,54.3,0,0,0,61.24,1c-2.12.4-4.26.76-6.36,1.24a49.72,49.72,0,0,0-20.22,10A48.43,48.43,0,0,0,21.45,29a72.23,72.23,0,0,0-4.18,12C16.11,45.2,15,49.51,14,53.83a77.53,77.53,0,0,0-1.76,13.31c-.2,4.54-.18,9.07-.71,13.59-1,8.62-3.45,17-5.29,25.47a110.12,110.12,0,0,0-2.09,12.63,78.7,78.7,0,0,0,0,13.73c.34,4.23.84,8.46,1.48,12.66A66.19,66.19,0,0,0,8.2,156.35a31,31,0,0,0,12.7,16.81c5.88,3.71,12.79,5.51,19.6,6.63,3.37.56,6.8,1,10.21,1.31C51.79,181.21,51.78,179.53,50.71,179.41Z"/><path d="M48.76,150.34c2.25-3.93,6.67-6.83,11.32-5.62a12.64,12.64,0,0,1,3.31,1.54,15.38,15.38,0,0,1,2.71,2.06c1.64,1.65,2.24,3.93,2.68,6.17a34.65,34.65,0,0,1-.21,15.2,14.9,14.9,0,0,1-1.21,3.37,8.9,8.9,0,0,1-2.31,2.65A23,23,0,0,1,59,179.4a8.6,8.6,0,0,1-7,0c-2.3-1.18-3.11-3.58-3.83-5.9-.32-1-1.94-.59-1.62.45.73,2.36,1.57,4.77,3.63,6.3a9.14,9.14,0,0,0,6.66,1.47,17.4,17.4,0,0,0,7.27-3.23c2.21-1.51,4.19-3.17,5.25-5.75,2.15-5.26,2.18-11.37,1.35-16.9-.39-2.6-.9-5.38-2.46-7.56A15.17,15.17,0,0,0,62,143.64a10.77,10.77,0,0,0-8.67.17,13.59,13.59,0,0,0-6,5.7.84.84,0,0,0,1.45.85Z"/><path d="M42.51,147.71a13.76,13.76,0,0,1,10.3-5.46c4-.33,8.69-.26,12,2.42a7.5,7.5,0,0,1,2.88,5.06c.08,1.08,1.77,1.08,1.68,0-.35-4.43-4-7.56-8.13-8.66a24.3,24.3,0,0,0-7.46-.56,18.29,18.29,0,0,0-7,1.59,15,15,0,0,0-5.66,4.76c-.64.89.82,1.73,1.46.86Z"/><path d="M100.08,150.35a28.89,28.89,0,0,0-3.4-8,11.77,11.77,0,0,0-7.57-4.88,17.31,17.31,0,0,0-5.26-.57,11.59,11.59,0,0,0-4.62,1.74,22,22,0,0,0-6.6,6,17.08,17.08,0,0,0-3.3,9.19c0,1.08,1.64,1.08,1.69,0,.24-5.36,3.64-10.11,8-13.07a14,14,0,0,1,3.75-1.93,10.12,10.12,0,0,1,4.8,0c2.88.48,5.48,1.47,7.3,3.84s2.73,5.3,3.58,8.1a.84.84,0,0,0,1.62-.45Z"/><path d="M73.88,146.69a11.41,11.41,0,0,1,16.13.46,11.68,11.68,0,0,1,1.34,1.72c.59.91,2,.07,1.45-.84a13.1,13.1,0,0,0-20.11-2.53C71.89,146.24,73.08,147.43,73.88,146.69Z"/><path d="M94.42,169.89a10.85,10.85,0,0,1-6,8.26.85.85,0,0,0,.86,1.46h0A12.37,12.37,0,0,0,96,170.33a.89.89,0,0,0-.59-1,.85.85,0,0,0-1,.59Z"/><path d="M86.77,5.09a6.5,6.5,0,0,1,7.86-3,3.39,3.39,0,0,1,1.73,1.48,5.34,5.34,0,0,1,.44,2.53c0,1.53,0,3.31-1.24,4.42-.8.74.39,1.93,1.19,1.19a6.21,6.21,0,0,0,1.69-4.29c.1-1.57.14-3.51-.77-4.93C95.88-.36,91.87-.5,89.11.76a8.13,8.13,0,0,0-3.8,3.48c-.52,1,.93,1.81,1.45.85Z"/><path d="M27.06,20.41a11.65,11.65,0,0,1-1.56-5.29,6.52,6.52,0,0,1,1.75-4.33c2.25-2.38,6.59-2.69,8.15.61.47,1,1.91.13,1.45-.84a5.93,5.93,0,0,0-4.59-3.27,7.32,7.32,0,0,0-5.91,2,8.23,8.23,0,0,0-2.49,5.31,12.69,12.69,0,0,0,1.76,6.62c.5,1,2,.1,1.45-.85Z"/><path d="M45.77,41.44a3.61,3.61,0,0,0,2.58.51,5.64,5.64,0,0,0,1.21-.44,2.93,2.93,0,0,0,1.07-.8,3.71,3.71,0,0,0,.49-2.48,3.1,3.1,0,0,0-1-2.24,4.15,4.15,0,0,0-2.61-.67,2.92,2.92,0,0,0-1.78.39,3.36,3.36,0,0,0-1.39,2.69,3.28,3.28,0,0,0,1.46,3,.85.85,0,0,0,1.12-.29A.87.87,0,0,0,46.6,40l-.12-.07c-.14-.08.14.14,0,0s-.11-.1-.16-.16l-.09-.1s.13.18.05.06l-.14-.24c0-.08-.07-.1-.06-.12l0,.11,0-.09a1.19,1.19,0,0,0-.07-.23c0-.07,0-.15-.05-.24s0,0,0,0V38.8a2.62,2.62,0,0,1,0-.56c0-.24,0,.16,0-.07a1.67,1.67,0,0,1,.06-.29c0-.09.06-.18.09-.27s0,0,0,.07l.06-.13.12-.2a.59.59,0,0,1,.08-.11s-.12.14,0,0,.17-.2.2-.19-.19.13-.07.05l.12-.07.09-.05c.14-.09,0,0,0,0l.27-.08c.05,0,.11,0,0,0h1.4c.31,0-.14,0,.13,0l.26.06s.26.09.12,0a.61.61,0,0,1,.14.07c.18.09-.08-.1.06,0l.13.13c.05,0-.08-.15,0,0l.11.19c.11.2,0-.14,0,.08a2.42,2.42,0,0,1,.1.38v1.16s0,.26,0,.1c0,.07,0,.15,0,.23s0-.08,0,.09l0,.06h0l-.15.09a3.81,3.81,0,0,1-.84.4l-.22.05s-.31.06-.17,0h-.38a2.13,2.13,0,0,1-.87-.35.85.85,0,0,0-.85,1.46Z"/><path d="M76.12,37.88a2.64,2.64,0,0,0,0,1.12A1.89,1.89,0,0,0,77,40.07a5.7,5.7,0,0,0,2,1,3.39,3.39,0,0,0,3.65-1.77,3.18,3.18,0,0,0,.3-2.12,2.83,2.83,0,0,0-1.24-1.75,4.31,4.31,0,0,0-2.12-.64,3.47,3.47,0,0,0-1.91.25,3.52,3.52,0,0,0-1.49,2.86.84.84,0,0,0,1.62.48,8.89,8.89,0,0,1,.19-1l.09-.28a.49.49,0,0,1,0-.11s-.09.19,0,0a1.74,1.74,0,0,1,.1-.19l.07-.11c0-.07-.13.13,0,0l.18-.17s-.18.11,0,0l.1,0c.14-.09,0,0,0,0l.14-.05h1.18a3.63,3.63,0,0,1,.45.1l.19.06h0l.28.14.17.11c.11.07-.08-.08,0,0A.88.88,0,0,1,81,37c.05,0,.15.19.07.06,0,.09.11.18.15.27h0s0,.13,0,.19,0,.18,0,.08,0,.13,0,.12v.16c0,.18,0-.1,0,.09a1,1,0,0,1-.08.29c0,.1,0,.06,0,0l-.09.17a1.67,1.67,0,0,1-.18.28h0l-.15.17a2,2,0,0,1-1,.56h-.19l-.45-.12a1.69,1.69,0,0,1-.31-.13l-.4-.22a2.55,2.55,0,0,1-.39-.24l-.19-.12h0l-.08-.09c-.07,0,0,0,0,0v-.05h0v-.17c0-.06,0-.22,0-.08a.87.87,0,0,0-.59-1A.84.84,0,0,0,76.12,37.88Z"/><path d="M46.13,48.35C43.32,52,41.08,56.4,41,61.1a12.66,12.66,0,0,0,5.14,10.67c.9.62,1.74-.84.85-1.45-3.08-2.12-4.45-6-4.3-9.63.17-4.26,2.34-8.17,4.87-11.49C48.24,48.33,46.78,47.51,46.13,48.35Z"/><path d="M65.9,69.48a15.43,15.43,0,0,0,5-1.55c1.45-.75,3-1.73,3.52-3.37.34-1-1.28-1.47-1.63-.45C72.45,65.29,71,66,70,66.51a12.9,12.9,0,0,1-4.11,1.26.89.89,0,0,0-.84.85c0,.41.39.9.84.84Z"/><path d="M54.63,44.1c-1.42,1.12-2.17,2.7-1.27,4.4s2.57,2.19,4.23,2.46a28.87,28.87,0,0,0,12-.63c1-.27,2-.56,3-.9a10.67,10.67,0,0,0,2.54-1.06c1.29-.84,2.25-2.55,1.51-4.07s-2.89-2-4.4-2.31a31.54,31.54,0,0,0-5.81-.59c-4.09-.09-8.17,0-11.58,2.57-.86.63,0,2.1.85,1.45a13.08,13.08,0,0,1,8-2.35,32.29,32.29,0,0,1,9.36.87c1.13.33,2.9.93,1.87,2.41-.8,1.12-2.74,1.46-4,1.85a29.17,29.17,0,0,1-9.77,1.41A12.37,12.37,0,0,1,56,48.73a2.28,2.28,0,0,1-1.28-1.61c-.11-.82.6-1.39,1.18-1.83C56.67,44.62,55.47,43.44,54.63,44.1Z"/><path d="M93,140c3.16-.38,5.87,1.41,8,3.54a.84.84,0,0,0,1.19-1.19c-2.42-2.41-5.61-4.46-9.2-4a.87.87,0,0,0-.84.85A.84.84,0,0,0,93,140Z"/><path d="M30.72,140.65c4.92-.31,10.3-.61,14.46,2.52.87.65,1.69-.81.85-1.46-4.39-3.3-10.11-3.07-15.31-2.74C29.64,139,29.64,140.72,30.72,140.65Z"/><path d="M12.48,95.15c-1.69,13.55,3.31,28.08,13.36,37.41a17.05,17.05,0,0,0,4.49,3.12,19.39,19.39,0,0,0,5.35,1.46,38.2,38.2,0,0,0,5.66.42,7.56,7.56,0,0,0,5-2.06,17,17,0,0,0,5.22-17.45,66.77,66.77,0,0,0-2.57-6.6l-2.76-6.68L40.7,91.41c-.41-1-2-.56-1.63.45l9.28,22.46a31.56,31.56,0,0,1,1.86,5.34,14.72,14.72,0,0,1,.22,4.49A15.39,15.39,0,0,1,47,132.39a11.78,11.78,0,0,1-3.43,3c-1.63.84-3.72.46-5.48.33-3.62-.27-7.12-1.06-10-3.4A39.4,39.4,0,0,1,17,116.49a43.09,43.09,0,0,1-2.81-21.34c.13-1.07-1.55-1.06-1.69,0Z"/><path d="M35.78,130.55a4.09,4.09,0,0,0,.84,2.47A7.63,7.63,0,0,0,42,136.56a.87.87,0,0,0,1-.59.84.84,0,0,0-.57-1,7.18,7.18,0,0,1-.92-.2l-.41-.13-.2-.08h0l-.08,0c-.28-.13-.56-.28-.83-.44-.12-.08-.25-.16-.36-.25l-.1-.07-.17-.14a5.74,5.74,0,0,1-1.21-1.3c-.19-.3-.35-.6-.51-.91a1.34,1.34,0,0,1-.16-.83.85.85,0,0,0-.85-.85.87.87,0,0,0-.84.85Z"/><path d="M43.4,124.93c-.35,3,1.75,5.48,4.15,6.94a.84.84,0,0,0,.9-1.42l-.06,0c-1.93-1.19-3.59-3.1-3.3-5.49a.85.85,0,1,0-1.69,0Z"/><path d="M88.37,87.22c-.2,3.66-1.77,7.06-3.19,10.38s-3,6.88-4.52,10.32C78,114,73.84,121.17,78,127.6c1.79,2.77,4.65,4.36,7.57,5.69A16.79,16.79,0,0,0,90.39,135a7.58,7.58,0,0,0,4.74-1.08A47.91,47.91,0,0,0,99.38,131c1.39-1,2.81-2,4.11-3.1,2.64-2.28,4.38-5.4,6-8.45a66.25,66.25,0,0,0,6.81-22.18c.13-1.07-1.55-1.06-1.69,0a63.25,63.25,0,0,1-5.42,19,38.73,38.73,0,0,1-4.87,8.42c-2.12,2.62-5.14,4.43-7.86,6.37a12.78,12.78,0,0,1-3.87,2.18,7.45,7.45,0,0,1-5-.82c-2.75-1.21-5.73-2.48-7.65-4.88-4.59-5.75-.49-12.83,2-18.49q2.46-5.51,4.84-11.08c1.48-3.44,3-6.92,3.21-10.72.06-1.08-1.63-1.07-1.68,0Z"/><path d="M83.18,123.25a13.2,13.2,0,0,1-1.06,2.55c-.23.41-.47.82-.74,1.21-.13.19-.27.39-.41.56l-.14.18-.26.31a.84.84,0,1,0,1.15,1.23l0,0a15.93,15.93,0,0,0,3-5.58.84.84,0,0,0-.56-1,.86.86,0,0,0-1,.56Z"/><path d="M89.9,127.46c0,.23,0,.47,0,.7v.56a5.17,5.17,0,0,1-.16.68c0,.11-.08.22-.11.33s0,.1-.06.15.08-.18,0,.05a6.19,6.19,0,0,1-.3.57l-.19.29L89,131l0,.06-.08.1-.1.12-.24.25-.26.25-.12.1c-.2.17.13-.09-.08.06a.86.86,0,0,0-.3,1.15.85.85,0,0,0,1.15.3,6.74,6.74,0,0,0,2.76-5.92.85.85,0,0,0-1.69,0Z"/><path d="M51.37,158.2a4.64,4.64,0,0,0,.78-2.25,2.42,2.42,0,0,0-.34-1.62,2.75,2.75,0,0,0-2.91-.88,3.47,3.47,0,0,0-2.47,1.78,3.16,3.16,0,0,0,.46,3.53,2.72,2.72,0,0,0,2.29.79,3.33,3.33,0,0,0,2.19-1.36.86.86,0,0,0-.3-1.16.87.87,0,0,0-.65-.08.92.92,0,0,0-.5.39c.15-.2,0,0,0,0l-.13.12s-.15.12-.14.13.17-.13,0,0l-.09.06-.19.13-.09,0c.13,0-.06,0-.09,0a.73.73,0,0,1-.2.05H48.6s.2,0,.06,0h-.1l-.21-.07s.18.09,0,0l-.06,0-.13-.08-.07-.05s.15.13,0,0l-.2-.21c-.07-.07.11.16.06.07l0,0a.86.86,0,0,1-.1-.16l-.06-.14c-.06-.13.08.19,0,0a3,3,0,0,1-.08-.32v-.11a1.82,1.82,0,0,1,0-.33v0a1,1,0,0,0,0-.17l.09-.3c.06-.18-.07.15,0,0l.08-.14s.05-.09.07-.13.13-.19,0-.07,0,0,0,0l.12-.12.11-.09c.06-.06-.12.1-.11.07l.07,0a4.39,4.39,0,0,1,.47-.27c.16-.08-.09,0-.05,0l.12,0,.28-.09.25-.06h.13c.16,0-.24,0,0,0h.58s-.21,0-.14,0h.12l.24.07c.13,0-.2-.1-.07,0l.1,0,.1.07s-.15-.13-.11-.08l.05,0s.06.05.09.08-.09-.09-.08-.09l0,.06.06.11c.07.12-.07-.21,0,0l0,.13v.41h0a1,1,0,0,1,0,.24,2.83,2.83,0,0,1-.13.5,1.14,1.14,0,0,0-.09.26s.07-.14,0-.06l-.06.13a4.1,4.1,0,0,1-.26.41.85.85,0,0,0,.3,1.13A.87.87,0,0,0,51.37,158.2Z"/><path d="M58.52,153.85a4.33,4.33,0,0,0,.81-.66,2,2,0,0,0,.61-1,3.8,3.8,0,0,0-.15-1.89,2.79,2.79,0,0,0-5.48.16,4.17,4.17,0,0,0-.14,1.92,2.14,2.14,0,0,0,1,1.42,3.34,3.34,0,0,0,1.72.44,3.27,3.27,0,0,0,1.68-.41.84.84,0,0,0-.85-1.46l-.1.06c-.07.05-.17,0,.05,0-.07,0-.13.05-.21.07l-.27.06h-.1a3.61,3.61,0,0,0-.57,0h.08l-.14,0-.28-.08c-.09,0-.12-.1,0,0l-.13-.06-.08,0c-.07-.05-.1-.13,0,0,0,0-.06-.06-.09-.09s-.1-.13,0,0h0l-.05-.07c0-.09,0-.06,0,.06,0-.05,0-.19-.06-.25v-.64a3.64,3.64,0,0,1,.16-.63.47.47,0,0,1,.06-.15c.06-.18-.07.13,0,0s.09-.2.15-.3l.07-.11h0c0-.08.17-.19.22-.23s0,0,0,0,.13-.08.14-.09l.15-.08h0l.16,0c.18-.05-.19,0,0,0s.22,0,.29,0h-.1l.12,0,.11,0a.49.49,0,0,1,.17.06c-.11-.05-.13-.05,0,0l.1,0,.09.05,0,0c.07.06.05.05,0,0l.21.2a.41.41,0,0,0,.09.1l-.07-.09.06.09a2.54,2.54,0,0,1,.16.28v0c0,.08,0,.06,0,0l.07.17c0,.12.06.23.09.35v.65a.5.5,0,0,1,0,.13s.1-.15,0,0c.14-.17,0,0-.07.07l-.3.29-.06,0a.94.94,0,0,1-.18.12.88.88,0,0,0-.26,1.21A.87.87,0,0,0,58.52,153.85Z"/><path d="M64.56,159.28a2.28,2.28,0,0,0,3-1.29c0-.07,0-.13.06-.19a5.05,5.05,0,0,0,.08-2,2.62,2.62,0,0,0-1-1.72,3.33,3.33,0,0,0-4.36.73,1.9,1.9,0,0,0-.32,1.6,3.87,3.87,0,0,0,1,1.76,4.47,4.47,0,0,0,1.69,1.12.85.85,0,0,0,1-.59.87.87,0,0,0-.59-1c-.18-.07.17.09,0,0l-.1,0a2.26,2.26,0,0,1-.26-.16l-.13-.09c-.11-.07.16.13,0,0l-.27-.23c-.06-.08-.13-.14-.19-.22a.86.86,0,0,1-.13-.14c.1.15,0,0,0,0l-.16-.27-.08-.14s0-.05,0-.07,0-.08,0,0a.71.71,0,0,1-.09-.28v-.11c0-.18,0,.15,0,0v0l0-.13c0-.15-.1.17,0,0a.87.87,0,0,0,.11-.19c-.08.17-.09.12,0,.07l.09-.1.08-.06c.12-.12-.14.08,0,0l.23-.15a1.13,1.13,0,0,0,.22-.11c-.13.11-.13,0,0,0l.12,0c.16-.05.32-.08.49-.12s-.23,0-.07,0h.28a.24.24,0,0,1,.12,0,1.24,1.24,0,0,1,.36.11s-.17-.09,0,0l.13.07a.38.38,0,0,1,.12.09c-.12-.14,0,0,0,0l.11.11c.11.11,0,0,0,0s.07.13.1.17,0-.14,0,0a2,2,0,0,0,.09.31h0v.2c0,.22,0,.45,0,.68v.19c0,.19,0-.14,0,.06v.14c0,.05,0,.1,0,.14h0c0-.09,0,.06,0,.07s.12-.1,0,0h0l-.14.09-.09,0c.12,0,.14,0,0,0h-.08l-.13,0H65.4c-.08,0-.19-.06,0,0-.1,0-.21,0-.31-.08a.84.84,0,0,0-1,.56.87.87,0,0,0,.47,1.13Z"/><path d="M53.13,164.38a4.64,4.64,0,0,0,3.81,4.94,6.08,6.08,0,0,0,6-2.89,5,5,0,0,0,.83-3.58,6.22,6.22,0,0,0-1.49-3.32,5.09,5.09,0,0,0-3.18-1.35,5.35,5.35,0,0,0-3.48.43c-1.85,1.12-2.38,3.77-2.46,5.77,0,1.08,1.65,1.08,1.69,0a6.81,6.81,0,0,1,1.12-3.87,2.26,2.26,0,0,1,1.93-.74,6.37,6.37,0,0,1,2.44.42,3,3,0,0,1,1.5,1.92,3.66,3.66,0,0,1,.06,2.72A4.76,4.76,0,0,1,58,167.71a3.11,3.11,0,0,1-2.34-.81,3.32,3.32,0,0,1-.85-2.52C54.85,163.29,53.17,163.29,53.13,164.38Z"/><path d="M76.45,157.43a2.84,2.84,0,0,0,1.19-.23,2.87,2.87,0,0,0,1-.85,4.3,4.3,0,0,0,.79-1.91,2.68,2.68,0,0,0,0-1.29,2.28,2.28,0,0,0-.69-1,3.84,3.84,0,0,0-2.16-1,3.72,3.72,0,0,0-3.07,2,2.53,2.53,0,0,0,0,3.19,4.41,4.41,0,0,0,3.07,1.13.85.85,0,0,0,0-1.69,2,2,0,0,1-.48,0c-.16,0-.07,0,.07,0h-.1l-.32-.06a3.64,3.64,0,0,1-.47-.14c-.06,0-.12-.09-.05,0s0,0,0,0a1.29,1.29,0,0,1-.23-.12l-.13-.09c-.08-.05,0,0,.06,0l-.18-.17c-.09-.07.07,0,0,.07l-.07-.11-.05-.1h0c-.06-.22,0,.17,0-.07a.2.2,0,0,0,0-.11v.05s.06-.22.07-.27,0-.07,0-.11-.08.15,0,0a4.17,4.17,0,0,1,.31-.54l.07-.1c.12-.19-.07.08,0,0l.25-.29a2.73,2.73,0,0,1,.25-.23l.1-.09c.16-.14-.1.06,0,0l.24-.17L76,153l.09,0c-.1,0-.12.05-.06,0s.17-.06.25-.08-.18,0,0,0h.14a1,1,0,0,1,.25.07c.09,0,.15.06,0,0l.22.11.36.21.13.1c-.1-.08,0,0,.06,0a1.88,1.88,0,0,1,.25.24c-.12-.16,0,.1,0,0s0,.27,0,.09a1.55,1.55,0,0,1,0,.43v.05a2.29,2.29,0,0,1-.07.28,1.71,1.71,0,0,1-.13.38l0,.06-.12.21a1.62,1.62,0,0,1-.1.18s-.16.21-.06.09l-.13.14-.12.11-.1.07c.12-.07-.09,0-.12,0,.12,0,0,0,0,0h-.25a.84.84,0,0,0-.85.84A.88.88,0,0,0,76.45,157.43Z"/><path d="M80.33,150.82a3.33,3.33,0,0,0,1.94.72,2.35,2.35,0,0,0,1.9-.66,3.33,3.33,0,0,0,.81-3.72A2.33,2.33,0,0,0,83.44,146a3.91,3.91,0,0,0-1.92-.09,3,3,0,0,0-2.07,1.94,2.81,2.81,0,0,0,.88,3,.85.85,0,0,0,1.19,0,.83.83,0,0,0,0-1.14l-.19-.18-.1-.1c0-.06,0-.1,0,.05a1.27,1.27,0,0,0-.13-.19l-.07-.13c-.07-.13.07.19,0,0a.56.56,0,0,1-.06-.21v-.39c0,.17,0-.08,0-.12a1.27,1.27,0,0,0,.07-.21c0-.07-.1.21,0,.07l0-.1a1.32,1.32,0,0,1,.12-.2c.09-.14-.13.16,0,0l.07-.07.15-.15c.17-.15-.14.09,0,0l.24-.14.09,0c-.16.12-.12,0,0,0a1.55,1.55,0,0,1,.23-.06h.1c.18,0-.14,0-.07,0s.3,0,.4,0-.2,0,0,0h.14l.34.07.2.05h0a.56.56,0,0,1,.17.09c.14.07-.1-.11,0,0l.1.11c.09.08-.09-.18,0,0l.08.12v0c0,.08,0,.07,0,0,0,0,.06.21.08.28s0,0,0,0a1,1,0,0,1,0,.24v.11c0,.22,0-.17,0,.05a1,1,0,0,1-.08.28c0,.1-.07.2,0,0,0,.06,0,.11-.07.16a2.6,2.6,0,0,1-.19.32l-.12.17c-.12.18.12-.12,0,0l-.11.12-.07.08h0a.54.54,0,0,1-.11.06h0l-.12,0s-.17.05,0,0h-.58c-.22,0,.18,0,0,0l-.18,0-.16-.05c-.2-.07.08.06-.06,0l-.11,0s-.27-.19-.1-.05a.93.93,0,0,0-.6-.25.83.83,0,0,0-.59.25.85.85,0,0,0,0,1.2Z"/><path d="M89.56,157.67a3.16,3.16,0,0,0,1.3.1,2.71,2.71,0,0,0,1-.43,3.8,3.8,0,0,0,1.49-1.51c.52-1.25-.28-2.62-1.23-3.41s-2.25-1.26-3.29-.5a3.64,3.64,0,0,0-1.4,3,3,3,0,0,0,.5,1.69,2.92,2.92,0,0,0,1.61,1.12.84.84,0,0,0,.5-1.61h0l-.15,0h0c-.08,0-.06,0,.06,0a1.23,1.23,0,0,0-.25-.14l-.11-.08s.15.14.06,0l-.22-.22c-.11-.12.12.17,0,0l-.07-.1c0-.07-.06-.14-.1-.2.12.19.05.12,0,0a.56.56,0,0,1,0-.12,1.31,1.31,0,0,1-.06-.27c0-.12,0,.23,0,.06v-.13a1.22,1.22,0,0,1,0-.27v-.07a1.59,1.59,0,0,1,.06-.3l.09-.27c0-.09-.09.19,0,0l0-.08.14-.25.08-.13,0-.08c.06-.06,0-.05,0,.06s.13-.15.18-.2l0,0,0,0,.13-.08c.09-.05.13,0,0,0l.13,0H90c.14,0-.22,0,0,0h.14c.17,0-.21,0,0,0l.23.06.13.05-.1-.05.09,0a2.48,2.48,0,0,1,.31.18l.1.07c.08,0,.06.1,0,0l.24.2c.16.14.27.33.42.46-.15-.13,0-.08,0,0a.57.57,0,0,1,.08.13,1.64,1.64,0,0,1,.14.22l0,.1c0,.12,0,.14,0-.08,0,.06.06.14.08.2l0,.13h0a.37.37,0,0,1,0,.21v0c0,.2.09-.11,0,0l-.07.11c0,.07,0,.07,0,0,0,.1-.24.23-.32.3s-.12.1,0,0a1.49,1.49,0,0,1-.2.15,3.39,3.39,0,0,1-.39.27l-.17.09c-.15.09.14,0,0,0a.59.59,0,0,1-.19.05h-.13c-.22,0,.15,0-.07,0l-.28-.06a.84.84,0,0,0-1.05.55.83.83,0,0,0,.56,1.05l0,0Z"/><path d="M79.3,160.59a6.34,6.34,0,0,0-.76,3.55,5.68,5.68,0,0,0,1.19,3.54,5.11,5.11,0,0,0,3.37,1.25,7,7,0,0,0,3.81-.79,5.82,5.82,0,0,0,2.39-2.45,7,7,0,0,0,.56-3.68,5.86,5.86,0,0,0-1.27-3.48,5.75,5.75,0,0,0-2.93-1.68c-1.27-.32-2.81-.56-3.88.31a5.56,5.56,0,0,0-1.13,1.38c-.44.68-.91,1.33-1.32,2a.84.84,0,0,0,1.45.85,24.88,24.88,0,0,1,1.69-2.54,1.5,1.5,0,0,1,.82-.62,3.56,3.56,0,0,1,1.26.08,5.3,5.3,0,0,1,2.31.85,3.41,3.41,0,0,1,1.27,2.18,4.88,4.88,0,0,1-1.38,4.86,5.31,5.31,0,0,1-5.2.64c-1-.43-1.19-1.6-1.28-2.57a5,5,0,0,1,.52-2.88.84.84,0,0,0-.33-1.15.85.85,0,0,0-1.16.33Z"/></g></g><path class="cls-5" d="M127.2,195.24a7.59,7.59,0,0,0-6,.35,3.48,3.48,0,0,0-2,3.95c.47,1.71,2.11,2.92,3.58,3.74,1.09.61,2.78,1.55.74,2.09a4.61,4.61,0,0,1-3.85-.82c-1.56-1.14-3.06,1.46-1.51,2.59,2.45,1.79,9,2.3,9.54-1.85.27-2-1.33-3.43-2.91-4.35-.63-.37-2.79-1.29-2.7-2.2.15-1.54,3.48-.81,4.21-.6a1.51,1.51,0,0,0,.8-2.9Z"/><path class="cls-5" d="M12.52,190.86c-11.93-3.9-6.36,16.32-5.08,22,.43,1.88,3.32,1.08,2.89-.8A88.78,88.78,0,0,1,8.6,201.8c-.22-2.24-1.62-9.6,3.12-8.05,1.84.6,2.63-2.29.8-2.89Z"/><path class="cls-5" d="M1.87,204.52q5.28-1.31,10.67-2.09c1.91-.28,1.1-3.17-.8-2.89q-5.38.78-10.67,2.09c-1.87.46-1.08,3.36.8,2.89Z"/><path class="cls-5" d="M37.4,209.35a63,63,0,0,1-.49-13.66l-2.8.76,6.2,9.05c1.53,2.24,2.9,4.57,5.31,6,.88.51,2.41-.12,2.25-1.3a88.87,88.87,0,0,1-.63-15.47c.09-1.93-2.91-1.93-3,0a88.87,88.87,0,0,0,.63,15.47l2.26-1.29c-2.49-1.44-4-4.57-5.61-6.9l-4.82-7a1.51,1.51,0,0,0-2.79.75,67.25,67.25,0,0,0,.59,14.46c.28,1.9,3.17,1.1,2.9-.8Z"/><path class="cls-5" d="M63,201.59,73.23,200c1.9-.3,1.09-3.19-.8-2.89l-10.25,1.61c-1.9.3-1.09,3.19.8,2.9Z"/><path class="cls-5" d="M65.73,193c.13,3.68-1.47,22.8,7.15,17,1.59-1.08.09-3.68-1.51-2.59-2.81,1.9-2.33-5.72-2.36-6.58L68.73,193c-.07-1.92-3.07-1.93-3,0Z"/><path class="cls-5" d="M77.19,199.32a47,47,0,0,1,.77,8.77,1.5,1.5,0,0,0,3,0,51.06,51.06,0,0,0-.88-9.56c-.35-1.9-3.24-1.1-2.89.79Z"/><path class="cls-5" d="M78.7,194.91a1.5,1.5,0,0,0,0-3,1.5,1.5,0,0,0,0,3Z"/><path class="cls-5" d="M87.37,209.18l1.75-13.63-2.8.75c1.86,2.5,2.9,6.81,5.89,8.19a1.59,1.59,0,0,0,1.82-.23c1.11-.9,1.72-2.56,2.43-3.77q1.83-3.12,3.64-6.25l-2.8-.76A155.67,155.67,0,0,1,98,209.92a1.5,1.5,0,0,0,3,0,155.55,155.55,0,0,0-.74-16.44,1.51,1.51,0,0,0-2.79-.76l-3,5.22c-.75,1.27-1.42,3.26-2.57,4.2l1.81-.24c-1.37-.63-1.7-2.06-2.34-3.28a27.48,27.48,0,0,0-2.47-3.83,1.51,1.51,0,0,0-2.79.76l-1.75,13.63c-.24,1.91,2.76,1.89,3,0Z"/><path class="cls-5" d="M105.67,202a51.5,51.5,0,0,0,7.79-1.4,1.49,1.49,0,0,0,1.05-1,4.8,4.8,0,0,0-3.68-5.82c-2.91-.62-5.68,1.44-6.69,4.06s-.76,6.15,1.35,8.2c2.3,2.23,5.78,1.58,8.3.13a1.5,1.5,0,0,0-1.51-2.59c-1.16.67-2.67,1.28-4,.73s-1.78-2.29-1.7-3.69a4.18,4.18,0,0,1,2-3.63c1.35-.67,3.46,0,3,1.82l1-1a47.63,47.63,0,0,1-7,1.29c-1.91.2-1.93,3.21,0,3Z"/><path class="cls-5" d="M16.73,200.91c.22,3.18,1.32,10.54,5.71,10.52,1.72,0,2.71-1.31,3.25-2.81a91,91,0,0,0,2.2-9.08H25L28,212c.45,1.88,3.34,1.08,2.89-.8l-3-12.48a1.51,1.51,0,0,0-2.89,0L24,203c-.28,1.16-.44,3.55-1.11,4.54-1.1,1.63-1.91-1.13-2.27-2.17a17.72,17.72,0,0,1-.87-4.45c-.14-1.91-3.14-1.93-3,0Z"/><path class="cls-5" d="M17.79,197.59a1.5,1.5,0,0,0,0-3,1.5,1.5,0,0,0,0,3Z"/><path class="cls-5" d="M25.45,196.63a1.5,1.5,0,0,0,0-3,1.5,1.5,0,0,0,0,3Z"/></g></g></svg>