<?xml version="1.0" encoding="utf-8"?>
<!-- Generator: Adobe Illustrator 23.0.6, SVG Export Plug-In . SVG Version: 6.00 Build 0)  -->
<svg version="1.1" id="Layer_1" xmlns="http://www.w3.org/2000/svg" xmlns:xlink="http://www.w3.org/1999/xlink" x="0px" y="0px"
	 viewBox="0 0 208.2 213.9" style="enable-background:new 0 0 208.2 213.9;" xml:space="preserve">
<style type="text/css">
	.st0{fill:#DEE1D1;}
	.st1{fill:#4D4D4D;}
	.st2{fill:#636656;}
	.st3{fill:#BDC0AD;}
	.st4{fill:#353535;}
</style>
<title>Asset 16</title>
<g>
	<g id="Layer_1-2">
		<path class="st0" d="M122,64.4c0-2.9,0.1-5.7,0.4-8.6l-1.2,9c0.3-2.2,0.8-4.3,1.6-6.3l-3.4,8c0.6-1.4,1.3-2.6,2.2-3.8l-5.3,6.8
			c0.8-1,1.8-2,2.8-2.8l-6.8,5.3c1.1-0.8,2.2-1.5,3.5-2.1l-8,3.4c1.5-0.6,3-1.1,4.6-1.3l-9,1.2c1.3-0.2,2.7-0.2,4,0l-9-1.2
			c0.5,0.1,1.1,0.2,1.6,0.5l-8-3.4l0.7,0.4L86,64.2c2.7,2.1,5.2,4.4,7.4,7.1l-5.3-6.8c0.5,0.7,0.9,1.5,1.3,2.3l-3.4-8
			c0.3,0.8,0.5,1.7,0.6,2.6l-1.2-9c0.1,2.2,0,4.5-0.2,6.7c-0.2,5,0.4,9.9,1.8,14.7c2.5,8.4,8,15.6,15.5,20.1c7.2,4.2,17.9,6,26,3.4
			s16-7.7,20.1-15.5l3.4-8c1.6-5.9,1.6-12,0-17.9l-0.8-4.1c-1.6-8-8.6-16.1-15.5-20.1c-7.2-4.2-17.9-6-26-3.4s-16,7.7-20.1,15.5
			l-3.4,8c-1.6,5.9-1.6,12,0,17.9l0.8,4.1l65-17.9c-0.3-0.8-0.4-1.7-0.6-2.6l1.2,9c-0.2-3.3,0.4-6.6,0.1-9.9
			c-0.4-6.8-2.2-13.5-5.2-19.6c-1.8-3.7-4.7-7-7.4-10.1c-2-2.2-4.2-4.2-6.6-6.1c-5.6-4.7-8.5-6.9-15.5-9c-2-0.5-4-0.9-6-1.1
			c-2.8-0.5-5.7-0.7-8.5-0.6C95,6.7,87.7,8.2,80.2,12.8c-6.9,4.1-12.8,9.8-17.2,16.6c-6.8,10.2-8.3,23.1-8.3,35.1
			c0.1,8.9,3.6,17.4,9.8,23.8c5.8,5.8,15.4,10.2,23.8,9.9c8.7-0.4,17.8-3.3,23.8-9.9S122,73.5,122,64.4z"/>
		<path class="st0" d="M104.3,134.9c8.9-0.1,17.4-3.6,23.8-9.9c5.9-5.8,10.2-15.4,9.9-23.8c-0.4-8.7-3.2-17.8-9.9-23.8
			s-14.7-9.9-23.8-9.9c-8.9,0.1-17.4,3.6-23.8,9.9c-5.8,5.8-10.2,15.4-9.9,23.8c0.4,8.7,3.2,17.8,9.9,23.8
			C87.1,131.1,95.2,134.9,104.3,134.9z"/>
		<path class="st0" d="M141,97.8c1.5,17.4-2.3,34.1-5.2,51.2c-0.6,3.7,0.4,7.5,3.9,9.5c3.3,1.9,7.5,1.3,10.2-1.3
			c6.3-6.4,8-14.3,8.7-23c0.7-8.2,1.3-16.4,1.9-24.7l-15.7,4.2c0.7,1.7,1.2,3.4,1.6,5.2c0.2,1.1,0.2,1.3,0.1,0.6
			c0,0.5,0.1,1,0.1,1.4c0.1,1.1,0,2.2,0,3.3c0.1,0.5,0,1.1-0.2,1.6c-0.2,1.3-0.5,2.6-0.8,3.9c-0.5,2.2-1.1,4.5-1.4,6.8l16.6,2.3
			c0-1-0.1-1.1-0.1-0.2c-0.2,0.8-0.8,1.5-1.5,1.8l-11.5-11.5c-1.8,3.6-2.7,7.5-2.6,11.5c0,3.4,2.1,6.4,5.2,7.7
			c3.4,1.4,6.4,0.5,9.2-1.7c1.5-1.2,2.1-2.8,2.8-4.6l-16.2-4.5c-0.5,2-1.2,4-2.2,5.9l3-3l-0.5,0.3l4.2-1.1H150l4.2,1.1
			c-0.9-0.4,1,1.5,0,0.1c-0.8-1.2-1.6-2.4-2.5-3.5c-0.8-1.1-1.7-2.2-2.7-3.1c-1-1-2.4-2.5-3.8-3c-0.9-0.3,0-0.3,0,0.2
			c0,0,0.5,1.4,0.3,1.3s0.1-3.1,0.1-3.4c0.5-4.8-2.4-9.6-7.5-10.3c-3.4-0.5-6.3,1.2-9,2.4c-2.5,1-5,1.9-7.5,2.6
			c-2.6,0.8-5.2,1.4-7.8,1.8c-1.2,0.2-2.7,0.4-3.2,0.5l-2,0.2c-4,0.3,2.2-0.8,3.1,3.9l-8.1,10.6c-0.4,0-2.2-0.9-0.5,0
			c0.9,0.5,1.8,0.9,2.8,1.2c2.1,0.7,4.3,1.1,6.4,1.1c3.5,0.1,6.9-0.8,10.4-0.8c1.2,0,2.4,0.1,3.6,0.4c0.8,0.2,1.6,0.4,2.4,0.7
			c0.5,0.1,0.9,0.3,1.4,0.5l-0.6-0.2c-2.2-3.4-0.7-0.2-0.3,0.4c0.6,0.9,1.3,1.8,2,2.6c0.4,0.5,0.8,1.1,1.3,1.5c-0.4,0-0.9-1.9-0.9-2
			c-0.3,4.4,4.1,8.6,8.4,8.4c4.9-0.2,8.1-3.7,8.4-8.4c0.1-2.7-0.7-5.4-2.2-7.6c-0.7-1-1.5-2-2.3-2.9c-0.6-0.8-0.7-0.8-0.1-0.1
			c-0.3-0.6-0.6-1.1-1-1.7c-2.9-4.5-7.9-6.6-13-7.6c-4.6-0.8-9.3-0.9-14-0.3c-1.1,0.2-2.3,0.2-3.4,0.2c0,0-1.4-0.4-0.7-0.1
			c-2.7-1.2-4.9-2.4-8-2.3c-5.8,0.3-9.2,5.2-8.1,10.7c2.1,11,15.6,8.6,23.4,7.1c3.5-0.6,6.9-1.5,10.2-2.6c1.6-0.5,3.2-1.1,4.7-1.7
			c1.3-0.5,2.6-1.1,3.9-1.6l0.9-0.4c1.7-0.7,1.2-0.6-1.5,0.2l-7.3-4.2l0.3,0.5l-1.1-4.2c-0.1,4.7-0.5,8.8,2.3,13
			c1.2,1.7,2.7,3.1,4.4,4.2c0.2,0.1,2.1,1.6,1.2,0.8c1.1,0.9,2,1.9,2.7,3.2c3.1,4.7,8.1,9.3,14.2,6.8c5.3-2.2,6.9-8.7,8.4-13.7
			c1.3-4.2-1.5-9.4-5.9-10.4c-4.9-1.1-8.6,1.5-10.4,5.9l-0.2,0.5l2.2-3.7l-0.4,0.3l14.4,6c0,0,0.1-2.6-0.1-1.5
			c0-0.2,0.8-2.4,0.4-1.5c1.6-3.4,1.5-7.4-1.3-10.2c-2.4-2.4-7.3-3.5-10.2-1.3c-4.1,3.1-7.1,7.4-6.7,12.9c0.4,4.2,2.9,7.7,7.3,8.3
			c3.8,0.5,8.6-1.9,9.2-6c1-5.9,2.9-11.6,3.1-17.7c0-6.3-1.4-12.5-4.1-18.1c-1.5-3.3-6.2-4.8-9.5-3.9c-3.8,1-5.9,4.4-6.2,8.1
			l-1.7,21.3c-0.1,2.9-0.4,5.8-1,8.6c-0.5,2.1-1.5,4.1-3.1,5.7l14.1,8.2c3.1-18.3,7.4-37,5.8-55.7c-0.4-4.4-3.6-8.6-8.4-8.4
			C145.2,89.6,140.6,93.2,141,97.8L141,97.8z"/>
		<path class="st0" d="M110.1,152.4c-1.8-0.2,2.3,1,0.9,0.4c1.1,0.5,2.1,1.1,3.2,1.8c2.4,1.5,4.7,3.1,7.1,4.6l4.2-15.7
			c-4.8,0.5-9.3,1.6-12.8,5.2c-3.4,3.6-4.7,8.7-3.4,13.4c0.2,0.9,0.5,1.8,0.8,2.6c0,0,0.9,2.7,0.5,1.2c0.6,2.6,0.5,4.9,1.9,7.3
			c2.5,4.4,7.7,6.7,12.6,6.6c4.6-0.1,9-1.8,13.2-3.6c3.6-1.4,6.9-3.6,9.5-6.5c5.4-6.5,9.7-13.9,12.9-21.7c1.6-3.8-1.4-8.5-4.9-9.9
			c-3.9-1.6-8.4-0.2-10.5,3.4c-2.8,5.2-5.5,10.4-8,15.8l9.5-3.9c-4.4-1.2-9-1.1-13.4,0.1l-1.3,0.4c1.2-0.2,2.2,0.4,2.9,1.8
			c2.9,2.2,2.6,1.7,2,4.5c0.5-0.8,0.6-1,0.2-0.4l0.6-0.6c0.7-0.7,1.3-1.4,2-2c5.7-5.4,11.1-10.3,14.2-17.6c3-7.4,5.1-15,6.4-22.9
			c0.9-4.3,1.2-8.6,0.9-13c-0.1-2.8-0.7-5.5-1.8-8c-0.3-0.8-0.7-1.5-1.3-2.1c-1.4-1.5,0.3,0.9,0,2.1h-16.1
			c1.2,6.6,2.5,13.2,4.1,19.7c1.2,4.5,5.9,7.1,10.4,5.9c4.5-1.2,7.1-5.9,5.9-10.4c-1.6-6.5-3-13.1-4.1-19.7
			c-1.5-8.3-14.4-7.8-16.2,0c-0.9,3.2-0.5,6.6,0.9,9.5c0.4,0.7,0.8,1.4,1.3,2c0.5,0.8,0.6,0.9,0.3,0.5s-0.3-0.3,0,0.6
			c0,3.9-0.3,7.8-1,11.6c-0.9,4.2-1.9,8.4-3.1,12.4c-1.1,3.7-1.9,6.2-4.4,9.6c-1.6,2.1-5.6,5.4-8.1,7.8c-3.7,3.5-7.2,7.7-7.2,13.1
			c-0.1,6.3,4.6,12.1,11.1,12.3c2.2,0,4.4-0.3,6.4-1c1.3-0.3,2.7-0.3,4,0.1c3.3,0.9,7.9-0.5,9.5-3.9c2.5-5.3,5.1-10.6,8-15.8
			l-15.4-6.5c-1.4,3.6-4.5,8.2-7,11.9c-0.7,1-1.4,2.1-2.1,3.1c0.8-1-0.8,0.8-0.9,0.9c0.5-0.4,0.4-0.3-0.5,0.3
			c-0.5,0.3-1.1,0.6-1.6,0.9c-0.6,0.3-1.1,0.5-1.7,0.8c0.4-0.2,0.4-0.2-0.2,0c-0.8,0.3-5.9,1.6-5.9,1.6c0.3-1.1,3.4,3.5,2.5,1.8
			c0.2,0.3,0.4,0.7,0.4,1.2c-0.1-1-0.2-2.1-0.4-3.1c-0.3-1.2-0.6-2.4-1-3.5l-0.3-0.9c-0.3-1-0.3-1.2-0.1-0.4c0.1,0.9-0.3,1.8-1,2.5
			c0.7-0.7,0.7-0.7,0.1-0.1c-1.7,0.5,2.7-0.4,0.8-0.2c3.6-0.4,7.2-2.3,8.1-6.2c0.9-3.7-0.7-7.5-3.9-9.5c-6.3-4.1-12-8.2-19.6-9.1
			c-4.4-0.5-8.6,4.2-8.4,8.4C101.9,148.9,105.4,151.8,110.1,152.4L110.1,152.4z"/>
		<path class="st0" d="M53,65.5c0.7,9-0.1,18.1-2.2,26.8c-1,4.4-2.3,8.7-3.2,13.1c-1,5.1-2.5,11.2,0.5,15.9
			c2.5,3.9,7.7,5.1,11.6,2.6c3.8-2.4,5-7.2,2.9-11.1c0.4,2.5,0.6,3,0.6,1.5l0.1-1c0-0.6,0.1-1.2,0.3-1.9c0.4-2,0.8-4.1,1.3-6.1
			c1-4.2,2.3-8.4,3.1-12.7c1.8-9,2.4-18.1,1.8-27.2c-0.3-4.4-3.7-8.6-8.4-8.4C57.1,57.3,52.7,60.8,53,65.5L53,65.5z"/>
		<path class="st0" d="M79.4,32.7c0.4-1.4,1.2-2.6,2.3-3.6c1.7-1.5,3.5-2.8,5.5-4c4.1-2.5,8.7-4.3,13.4-5.2c7.9-1.7,8.2-14.7,0-16.2
			c-3.3-0.7-6.6-0.4-9.8,0.8c-4.3,1.5-7.2,5.7-5.9,10.4c1.3,4.4,5.9,7,10.4,5.9c5.1-1.4,10.3-2.2,15.5-2.6c4.4-0.3,8.6-3.6,8.4-8.4
			c-0.2-4.3-3.7-8.8-8.4-8.4c-6.7,0.5-13.4,1.5-20,3.2l4.5,16.2c0.6-0.2,1.2-0.4,1.7-0.6c1.5-0.3,1.2-0.4-0.9-0.2V3.8
			c-13,2.8-28.9,10.8-33,24.4c-1.3,4.2,1.5,9.4,5.9,10.4C73.5,39.8,78.1,37.2,79.4,32.7z"/>
		<path class="st0" d="M146.3,28.1l-0.6-0.6c0.3,0.5,0.4,0.5,0,0c-0.8-1.2-0.6-2.1-0.2,1l-2.5,5.9l0.2-0.2l-8.2,2.2l0.3,0.1
			c4.1,1.1,8.3-1,9.9-4.9c1.7-4.1,0.1-8-3.4-10.5c1,0.7,1.8,2.4,1.1,0.5c-0.3-0.6-0.6-1.2-1-1.7c-0.6-0.8-1.2-1.6-1.9-2.4l-0.6-0.7
			c0.3,0.5,0.3,0.4,0,0c-1.6-3-4-5.5-7-7.1c-5.3-3.4-11.2-6.5-17.5-7.7c-4.3-0.8-9.3,1.2-10.4,5.9c-0.9,4.1,1.2,9.5,5.9,10.4
			c2.4,0.4,4.8,1.1,7,2.2c2.6,1.3,5,3,7.5,4.2c2.3,1.2-1.1-0.9-0.8-1.2c0,0,0.6,1.3,0.7,1.4c0.5,0.8,1,1.6,1.6,2.3
			c-0.1-0.1,1.4,1.9,1.1,1.4s0.6,1,0.7,1.2c0.2,0.4,0.4,0.9,0.6,1.4c1.1,1.8,2.6,3.4,4.4,4.6l6.5-15.4c-4.7-1.3-9.5,1.4-10.8,6.1
			c-0.3,0.9-0.4,1.9-0.3,2.8c0.3,4.1,2.8,7.9,5.7,10.8c3.3,3.3,8.6,3.3,11.9,0C149.6,36.7,149.6,31.4,146.3,28.1L146.3,28.1z"/>
		<path class="st0" d="M118.5,104.7c-0.1-1.9,0-3.9,0.2-5.8l-1.2,8.9c0.2-1.1,0.4-2.2,0.7-3.3l-3.4,8c0.1-0.4,0.4-0.8,0.6-1.2
			l-5.3,6.8l0.4-0.5l-6.8,5.3l0.6-0.4l-8,3.4l0.7-0.2l-9,1.2c4.1-0.5,8.2-0.8,12.3-1.5c2.9-0.7,5.6-1.7,8.3-3c2.6-1,5.1-2.2,7.4-3.7
			c1.3-0.9,2.6-1.8,4-2.5l-8.1,3.5c0.7-0.3,1.5-0.5,2.3-0.6l-9,1.2h0.8l-9-1.2c0.5,0.1,1,0.2,1.5,0.4l-8-3.4
			c0.5,0.2,0.9,0.5,1.3,0.8l-6.8-5.3c3.2,2.6,6.1,5.5,9.2,8.3c4.2,4,9.3,7,14.9,8.7l9,1.2c4.5,0.2,9-0.8,13-2.9
			c2.8-0.8,5.4-2.3,7.4-4.3c2.5-1.5,4.5-3.5,6-6c2.1-2.1,3.6-4.6,4.3-7.4c2.1-4,3.1-8.5,2.9-13c0.3-2.8,0.6-5.7,1-8.5l-1.2,9
			c0.2-1.4,0.5-2.9,1-4.2l-3.4,8c0.3-0.6,0.6-1.2,1-1.8l-5.3,6.8c0.3-0.4,0.6-0.7,0.9-1l-6.8,5.3c0.4-0.3,0.7-0.5,1.2-0.7l-49.5-38
			c0,0.5-0.2,1.1-0.4,1.6l3.4-8l-0.4,0.7c-4.1,8-5.8,17.1-3.4,26c2.2,7.8,8.2,16.3,15.5,20.1c7.8,4.1,17.3,6.2,26,3.4
			c8.1-2.6,16.1-7.7,20.1-15.5c1.7-3.3,3.6-6.7,4.2-10.4c0.9-6,1.6-11.9,0-17.9c-2-7-6.3-13.1-12.1-17.5c-2.1-2.1-4.6-3.6-7.4-4.3
			c-2.6-1.5-5.5-2.3-8.5-2.3c-2.9-0.8-6.1-0.8-9,0c-4.5,0.2-8.8,1.6-12.5,4c-2.9,1.6-5.6,3.6-8,6c-2.3,2.3-4.4,4.9-6.1,7.6
			c-2.3,3.6-3.9,7.5-5,11.6c-1.7,6.4-1.9,13.3-2.7,20l57.5-23.8c-8-7.3-15.7-15.1-26.4-18.1c-6.4-1.8-13.1-1.4-19.5,0
			c-0.6,0.1-1.3,0.3-1.9,0.6c-3,1-6,2.3-8.8,3.8c-2.3,1.3-4.2,3-6.6,4.2l8-3.4c-1.4,0.6-2.8,1-4.3,1.3l9-1.2
			c-4.3,0.5-8.7,0.5-13,1.7c-9.1,2.7-16.9,8.9-21.6,17.2c-3.5,6.1-4,9.8-4.8,16.1c-0.6,3.4-0.9,6.9-0.8,10.3
			c0.4,8.9,3.5,17.4,9.9,23.8c5.8,5.8,15.4,10.2,23.8,9.9c8.7-0.4,17.8-3.2,23.8-9.9C114.5,122.1,119,113.7,118.5,104.7L118.5,104.7
			z"/>
		<path class="st0" d="M90.8,179.1l2.6,0.7v-16.3l-1,0.2c-9.2,2.3-7.3,16.7,2.2,16.5c5.3-0.1,10.2-2.8,13-7.3
			c3.1-4.7,3.1-10.2,2.3-15.5c-0.6-4.6-2.3-9-5-12.9c-2.8-3.8-6.4-8-10.9-9.8c-5.5-2.2-12.1-0.6-15.2,4.6
			c-2.5,4.2-2.7,10.1-2.2,14.9c0.6,5.2,1.8,10.3,6.1,13.7c5.8,4.6,14.1,2.9,16.5-4.4c1.9-5.7-4.4-12.8-10.4-10.4
			c-5.7,2.3-10.3,6.2-12,12.3c-2.2,8.1,4.8,16.1,13.2,13.8c3.6-1,6.1-4.3,6.2-8.1c-0.2-4.1-2.6-6.6-6.2-8.1
			c-1.8-0.7-3.5-1.5-5.2-2.4l3,3c0.2,0.8,0.1,0.6-0.2-0.5c-0.2-0.7-0.4-1.3-0.5-2c-0.3-1.3-0.6-2.6-0.9-4c-0.6-2.7-1-5.4-1.6-8
			c-1-5-2.5-9.9-4.6-14.6c-2.2-4.6-5.3-8.7-9.2-12c-1.9-1.7-3.9-3.3-5.7-5.1c-0.4-0.4-0.8-0.9-1.2-1.3c0.4,0.6,0.3,0.4-0.3-0.4
			c-0.3-0.5-0.6-1-0.9-1.5c0.2,0.7,0.2,0.5-0.1-0.5c-1.2-4-5.1-6.5-9.2-6c-4.4,0.6-6.9,4-7.3,8.3c-1.1,13.1-0.4,27,3.1,39.7
			c1.8,6.6,5.5,11.9,11.5,15.3c6.3,3.5,12.9,6.2,20.2,6.5c3.8,0,7.1-2.6,8.1-6.2c2.2-9.5-6.7-15.2-11.5-21.4
			c-0.9-1.2-1.8-2.5-2.6-3.9c-0.7-1.1-1.2-2.2-1.5-3.4c-0.2-0.7-0.4-1.5-0.6-2.2c0.2,1.2-0.1-1.2-0.1-1.3s0.3-2.6,0-1.3
			c0.2-0.9,0.4-1.7,0.8-2.6c1.5-4.1-1.7-9.4-5.9-10.4c-4.8-1.1-8.8,1.4-10.4,5.9c-2.8,7.7-1,16.4,2.8,23.4c2,3.4,4.3,6.5,6.9,9.4
			c1.2,1.3,2.3,2.6,3.5,3.9c0.7,0.7,1.3,1.4,2,2.1c1.4,1.5-0.3-0.1,0.3-2.7l8.1-6.2c-2.2-0.2-4.4-0.7-6.5-1.6
			c-1.5-0.6-4.2-2-6.1-3.1c-0.2-0.1-1.8-1.5-1-0.6c-0.5-0.7-1-1.4-1.4-2.2c0.6,1.2-0.5-1.7-0.6-2c-0.3-1.2-0.6-2.4-0.8-3.5
			c-2.1-10.4-2.7-21.1-1.7-31.7l-16.5,2.2c2,6.5,6.4,11,11.4,15.3c1.2,1.1,2.5,2.1,3.6,3.3c0.7,0.7,1.4,1.4,1.9,2.3
			c1.4,2.1,2.5,4.4,3.2,6.8c1.9,5.8,2.7,11.9,4,17.9c0.8,3.5,1.6,7.6,4.2,10.2c2.8,2.8,7.3,3.9,10.9,5.4v-16.3l0.9-0.2l4.2,1.1
			c2.3,1.9,3.1,3.9,2.2,6c0.5-0.8,0.6-0.9,0.1-0.2c0.7-0.7,0.8-0.7,0.1-0.2c0.9-0.5,0.9-0.5,0.1-0.2l-10.3-10.3l-0.2,0.5l3.9-5
			l-0.6,0.3l4.2-1.1c1.6,0.1,3,0.9,3.8,2.3l-0.4-0.6c0.3,0.9,0.3,0.8,0-0.1c-0.1-0.4-0.2-0.8-0.3-1.2c-0.2-1.7-0.3-3.3-0.1-5
			c0-0.2,0.6-1.9,0.4-2.1l-3.5,3.4c-1,0.4-2.1,0.3-3-0.3l0.7,0.4c-0.7-0.4-0.6-0.4,0.1,0.3c0.6,0.7,1.2,1.2,1.8,1.9
			c1.1,1,1.9,2.2,2.4,3.6c0.1,0.6,0.3,1.1,0.5,1.7c0.3,1,0.5,1.9,0.7,2.9c0.1,0.7,0.3,2.7-0.2,3.5c0.3-0.8,0.3-0.8-0.2,0
			c0.1-0.3,0.3-0.6,0.6-0.7c0.5-0.3,0.3-0.2-0.4,0.2c0.4-0.3,0.9-0.5,1.4-0.5l2.3,16.5l1-0.2c8-2,8-14.2,0-16.2l-2.6-0.6
			c-4.3-1.1-9.3,1.4-10.4,5.9S86.2,177.9,90.8,179.1L90.8,179.1z"/>
		<path class="st0" d="M150.1,79.6c-3.2,0.1-6.3,1-9.1,2.5c-4,2.4-5.3,7.5-3,11.5c2.4,3.9,7.5,5.2,11.5,3c0.3-0.2,0.6-0.3,0.9-0.4
			l-2,0.8c1-0.4,2-0.7,3-0.8l-2.2,0.3c0.3,0,0.7-0.1,1-0.1c2.2,0,4.4-0.9,6-2.5c3.3-3.3,3.3-8.6,0-11.9
			C154.6,80.5,152.4,79.6,150.1,79.6L150.1,79.6z"/>
		<path class="st1" d="M95.3,47.5c1.9-1.4,4.1-2.4,6.5-2.7c2.1-0.3,4.3-0.6,6.4-0.7c1.2,0,2.3,0.2,3.4,0.6c0.7,0,1.1,0.3,1.1,0.9
			c0.4,0.6,0.2,0.9-0.5,0.8c-0.5,0.2-1.1,0.3-1.6,0.3c-1.2,0.3-2.3,0.9-3.5,1.2c-2,0.5-4,0.9-6,1c-0.9,0-3.6,0.1-4.1-0.8
			c-0.7-1.3,1.6-1.9,2.2-2.2c2-0.7,4.1-1,6.2-0.9c2,0,6-0.2,7.6,1.2l0.4-1.4c-1.8,0.7-3.8,1-5.6,1.8c-2.7,1.1-5.6,1.5-8.5,1.3
			c-0.7,0-1.4,0-2-0.2c0.5-0.3,1.1-0.6,1.6-0.9c1.3-0.6,2.6-1,4-1.2c2.6-0.3,5,0.4,7.5,1V45c-1.8,0.6-3.5,1.3-5.3,1.7S99.8,48,98,47
			l0.4,1c0.2-0.7,3.8-1.3,4.3-1.4c1.8-0.3,3.6-0.4,5.4-0.3l-0.6-1.4c-1.9,2-5.4,1.7-8,1.9l0.4,1.6c1.3-0.6,2.7-0.9,4.1-1
			c1.1-0.1,1.1-1.8,0-1.7c-1.7,0.1-3.4,0.5-4.9,1.2c-0.4,0.2-0.5,0.8-0.3,1.2c0.1,0.2,0.4,0.4,0.7,0.4c3-0.3,6.9,0,9.2-2.4
			c0.3-0.3,0.3-0.9,0-1.2c-0.2-0.1-0.4-0.2-0.6-0.2c-2.6-0.2-5.3,0.1-7.8,0.8c-1.2,0.3-3.2,0.6-3.5,2.1c-0.1,0.4,0.1,0.8,0.4,1
			c3.9,2.1,10.1-0.5,13.8-1.9c0.7-0.3,0.9-1.4,0-1.6c-3.4-0.8-6.7-1.6-10.1-0.6c-1.5,0.4-5.4,1.5-5.3,3.5c0.2,2.8,5.8,1.9,7.4,1.8
			c1.6-0.1,3.2-0.4,4.7-1c2-0.8,4.2-1.2,6.2-2.1c0.5-0.1,0.7-0.6,0.6-1.1c0-0.1-0.1-0.3-0.2-0.4c-2.1-2-7.1-1.8-9.8-1.7
			c-3.1,0-6.2,0.9-8.9,2.6c-1.8,1.3-1.3,2.5,0.6,3.6c2.8,1.6,6.3,1,9.3,0.3c1.6-0.2,3.2-0.5,4.8-1c1.2-0.5,2.8-0.8,3.9-1.4
			c1.7-0.9,1.9-2.7,0.2-3.7c-3.2-2-6.5-1.2-9.9-1c-3.8,0.3-6.9,0.9-10,3.1C93.5,46.6,94.4,48.1,95.3,47.5L95.3,47.5z"/>
		<path class="st1" d="M118.1,36.8c-0.4,0.5-0.6,1.2-0.5,1.8c0.2,0.5,0.6,0.9,1.2,1c1.2,0.2,2.7,0,2.8-1.4c0.1-0.6-0.1-1.2-0.5-1.6
			c-0.5-0.4-1-0.5-1.6-0.4c-0.6,0-1.1,0.6-1,1.2c0,0.1,0,0.2,0,0.2c0.2,0.7,0.9,1,1.6,0.8c1-0.3,0.6-2-0.4-1.6l0.5,0.2v0.5v-0.2
			l-0.2,0.4l0.1-0.1l-0.4,0.2c0.1,0,0.2,0,0.3,0h0.1c-0.1-0.2-0.2-0.2-0.1-0.1s0,0.3,0,0.3c-0.1-0.2,0.3-0.2-0.1-0.1
			c-0.2,0-0.3,0-0.5,0c-0.1,0-0.2-0.1-0.3-0.1s-0.1,0.1,0.2,0.3v-0.2c0.1-0.2,0.2-0.4,0.3-0.5C120.1,36.8,118.7,35.9,118.1,36.8
			L118.1,36.8z"/>
		<path class="st1" d="M86,37.7c-0.2,0.8-0.1,1.7,0.2,2.5c0.5,0.5,1.3,0.8,2,0.8c1.8-0.1,2.1-2.6,1.2-3.7c-0.5-0.6-1.2-1-2-1
			c-0.7,0-1.3,0.7-1.2,1.4c0,0.1,0,0.1,0,0.2c0.1,0.7,0.3,1.8,1.1,2s1.5-0.6,1.6-1.4c-0.1-0.5-0.5-0.8-0.9-0.8
			c-0.4,0-0.7,0.4-0.8,0.8c0.7,0.1,0.9,0,0.8-0.4l-0.1-0.5c-0.4,0.2-0.4,0.3-0.2,0.4c0.1,0,0.2,0.1,0.2,0.2c0.3,0.3,0.4,0.6,0.3,1
			c0,0.1,0,0.1-0.1,0.2c0.1,0,0.1,0-0.1,0c-0.2,0-0.4,0-0.5-0.1c0-0.5,0-1,0.1-1.4C87.7,36.6,86,36.6,86,37.7L86,37.7z"/>
		<path class="st2" d="M95.9,160c-1.5,1.3-2.5,4.4-1.3,6.3c0.6,0.9,1.6,1.5,2.7,1.6c1.4,0.2,2-0.6,3-1.4l-1.3-1
			c-0.1,0.3-0.3,0.6-0.5,0.9c-0.2,0.4-0.1,0.9,0.3,1.1c0.1,0,0.1,0.1,0.2,0.1c2.4,0.5,3.9-2.8,3.6-4.7c-0.3-2.3-2.4-3.8-4.6-3.5
			c-0.2,0-0.4,0.1-0.6,0.1c-2.3,0.6-2.8,4.2-1.8,6c1.2,2.4,3.9,1.9,5.2-0.1c0.7-0.8,1-2,0.6-3.1c-0.6-1.1-1.7-1.9-3-2
			c-2.5,0.1-2.5,4-0.9,5.2c0.8,0.8,2.2,0.7,2.9-0.1c0.5-0.6,0.7-1.4,0.4-2.1c-0.3-0.9-1.1-1.6-2.1-1.6c-1.1,0.3-1.7,1.4-1.4,2.5
			c0.7,1.9,5.2,1.3,3.7-1.1c-0.4-0.8-1.4-1.1-2.2-0.6c-0.2,0.1-0.3,0.2-0.4,0.3c-0.4,0.5-0.3,1.2,0.2,1.6c0.2,0.2,0.5,0.2,0.8,0.2
			c1.1,0.1,1.1-1.6,0-1.7c0.8,0.6,0.9,0.8,0.2,0.7c-0.4,0-0.7-0.1-1-0.4l0.4,0.7c0-0.8,0.2-0.3-0.3-0.2c-0.2,0.4-0.4,0.4-0.4,0
			c-0.1-0.2-0.1-0.4-0.1-0.5c-0.1-0.7,0.2-1.2,1-0.9c0.5,0.2,0.7,1,0.6,1.5c-0.2,0.9-1.4,2.1-2.3,1.4c-0.8-0.6-0.6-1.9-0.4-2.7
			c0.2-1,0.4-1.6,1.6-1.6c0.8,0,1.6,0.3,2,1c0.5,0.6,0.6,1.4,0.4,2.1c-0.1,0.5-0.8,2-1.5,1.9l0.5,1.2c0.2-0.3,0.3-0.6,0.5-0.9
			c0.2-0.4,0-0.9-0.4-1.1c-0.3-0.1-0.6-0.1-0.9,0.1c-0.6,0.5-1,1.1-1.8,0.9c-0.8-0.2-1.3-0.9-1.3-1.7c-0.1-1.2,0.3-2.4,1.2-3.3
			C98,160.5,96.8,159.3,95.9,160L95.9,160z"/>
		<path class="st2" d="M95.8,150.8c-0.2,0.9,0.4,1.9,1.3,2.1c0.4,0.1,0.8,0.1,1.1-0.1c1.4-0.7,1-2.7-0.2-3.3s-2.6,0.7-2.9,2
			c-0.2,0.7,0.2,1.4,0.8,1.8c0.6,0.4,1.4,0.4,2.1,0.1c0.4-0.3,0.5-0.8,0.2-1.2c-0.2-0.3-0.7-0.4-1-0.3c-0.1,0-0.3,0-0.4-0.1
			c-0.1-0.1-0.1-0.1,0,0c0-0.1,0-0.1,0-0.2c0.1-0.2,0.3-0.6,0.4-0.7c0,0,0.1,0,0.1,0.1c0,0.1,0.1,0.1,0.1,0.2c0,0.1,0,0.1,0.1,0
			s-0.1,0.1,0,0c0,0.1,0,0,0-0.1C97.7,150.1,96,149.7,95.8,150.8L95.8,150.8z"/>
		<path class="st2" d="M88.9,155.3c-1.1,0-1.7,1.5-1.3,2.4c0.4,0.7,1.3,1,2,0.6c0.3-0.1,0.5-0.3,0.6-0.6c0.5-0.7,1.1-2.1,0.3-2.9
			s-2.2-0.1-2.6,0.9s1.3,1.5,1.6,0.4l0,0c0,0-0.2,0-0.2-0.1l-0.2-0.4c0.1,0.2-0.3,0.8-0.4,1c0,0,0,0.1-0.1,0.1s-0.1,0.1,0,0
			s0.6,0.2,0.3,0.2c0,0.1,0,0.1,0-0.1v-0.1c0,0,0-0.1,0.1-0.1l-0.4,0.2l0,0c0.5-0.1,0.8-0.5,0.8-0.9c0-0.4-0.4-0.7-0.8-0.8H88.9z"/>
		<path class="st2" d="M104.2,155c-1.9,1.3,0.8,4.4,2.4,2.9c0.8-0.8,0.3-1.8-0.3-2.6c-0.3-0.4-0.7-0.6-1.2-0.6c-0.5,0-1,0.4-1.2,0.9
			c-0.1,0.5,0.2,0.9,0.6,1c0.4,0.1,0.9-0.1,1-0.6V156l-0.2,0.4c-0.1,0-0.3,0-0.4,0c0,0,0,0,0.1,0.1s0.1,0.1,0.2,0.2
			c0,0.1,0.1,0.2,0.2,0.2c0,0,0.2-0.2,0.2-0.2c0-0.2,0.2,0.2,0-0.1c0,0-0.1-0.1-0.2-0.1l-0.1-0.1c-0.1-0.2,0.2-0.1-0.2,0.2
			c0.4-0.2,0.5-0.7,0.3-1.1C105.1,154.9,104.6,154.7,104.2,155C104.2,155,104.2,155,104.2,155L104.2,155z"/>
		<path class="st2" d="M114.4,154.8c0.1,0.9,0.7,1.6,1.5,1.9c0.8,0.1,1.7-0.2,2.2-0.8c1.1-1.1,0.3-3.9-1.5-3.8s-2.6,2.8-0.8,3.4
			s2.9-2,1-2.7c-1-0.4-1.5,1.3-0.4,1.6c-0.3-0.4-0.3-0.5,0-0.5l0,0c-0.1,0.1,0.2-0.1,0.2-0.1c0.4,0,0-0.1,0.1-0.1s0.2,0.5,0.2,0.6
			s0.1,0.2-0.1,0.4c-0.1,0.1-0.2,0.2-0.4,0.3c-0.2,0-0.1,0.1-0.2-0.1c-0.1-0.2-0.2-0.4-0.2-0.6c-0.1-0.4-0.6-0.7-1-0.6
			C114.5,153.9,114.3,154.4,114.4,154.8L114.4,154.8z"/>
		<path class="st2" d="M120.9,149c0-1.2,1-2.1,2.2-2.1s2.1,1,2.1,2.2c0,1.2-1,2.1-2.2,2.1c-1.2,0-2.1-1-2.1-2.1
			c0.1,0.4,0.6,0.7,1,0.6c0.4-0.1,0.7-0.6,0.6-1c-0.1-0.2,0,0.1,0,0s0-0.1,0,0v-0.1c-0.1,0.1,0.1-0.1,0,0s-0.1,0,0,0l0,0
			c-0.1,0-0.1,0,0,0l0,0c-0.1,0,0,0,0,0l0,0l0,0c0,0-0.1-0.2,0,0c0,0,0-0.1,0-0.1c0-0.1,0-0.1,0,0s0,0.1,0,0s0,0.1,0,0
			c-0.1,0.1-0.1,0.1,0,0l0,0l0,0h0.1c0.2,0.1,0-0.1,0,0s-0.1-0.1,0,0s0-0.1,0,0c-0.1-0.4-0.6-0.7-1-0.6c-0.4,0.1-0.7,0.6-0.6,1
			L120.9,149z"/>
		<path class="st2" d="M129.5,153.3c-0.5,0.9-0.6,2.4,0.4,2.9c0.7,0.4,1.7,0.1,2.1-0.6c0.1-0.2,0.2-0.4,0.2-0.7
			c0-0.9-0.7-1.6-1.6-1.6c-0.2,0-0.3,0-0.5,0.1c-0.8,0.3-2,1.6-1.4,2.5c0.2,0.4,0.8,0.5,1.2,0.3c0.4-0.2,0.5-0.7,0.3-1.1v0.4v-0.1
			c0,0,0-0.1,0.1-0.1c0.1-0.1,0.2-0.2,0.3-0.3c0.1-0.1,0,0.1,0,0s-0.1-0.1,0-0.2s0.1,0,0.1-0.1s0.2,0.1,0.2,0.1s0.1-0.6,0.1-0.7
			C131.5,153.1,130,152.3,129.5,153.3L129.5,153.3z"/>
		<path class="st2" d="M123.8,158.2c-3,0.5-5.4,6-3.3,8.4c1.1,1.3,3.1,1.1,4.6,0.6c1.6-0.6,2.8-2,3.1-3.7h-1.6
			c0,0.4,0.1,0.7,0.3,1.1c0.1,0.4,0.6,0.7,1,0.6c0.4-0.1,0.6-0.4,0.6-0.8c0.1-1.9-0.3-5-2.3-5.9c-1.8-0.8-3.5,1-4.5,2.4
			c-1,1.5-1.3,3.7,0.3,5c1.3,0.9,3.1,0.5,3.9-0.8c0.1-0.1,0.2-0.3,0.2-0.4c0.7-1.3,1.3-4.1-0.3-4.9s-3.4,1.1-3.8,2.6s0.3,3.4,2,3.2
			c2.1-0.2,1.8-3,1.3-4.4c-0.1-0.4-0.6-0.7-1.1-0.6c-0.2,0.1-0.4,0.2-0.5,0.4c-1.6,2.5,0.7,4.4,3.1,2.8c0.6-0.4,0.5-1.7-0.4-1.6
			c-0.9,0.1-1.7,0.3-2.5,0.6c-1,0.4-0.6,2,0.4,1.6c0.7-0.2,1.4-0.4,2.1-0.5l-0.4-1.6c-0.5,0.4-1.2,0.1-0.8-0.5l-1.5-0.2
			c0.1,0.3,0.7,1.9,0.3,2.1c-0.8,0.4-0.2-1.2-0.1-1.4c0.1-0.4,0.6-0.7,1-0.6c0.1,0,0.1,0,0.2,0.1c0,0.4-0.1,0.9-0.2,1.3
			c-0.2,1-1.5,2.4-2.2,0.9c-0.6-1.2,0.8-3.1,1.8-3.6c2-1,2.3,3.1,2.2,4.1l1.6-0.2c-0.1-0.3-0.2-0.7-0.2-1.1c-0.1-0.9-1.4-0.8-1.6,0
			c-0.1,1-0.6,1.8-1.5,2.3c-0.9,0.5-2.9,0.9-3.5-0.2c-0.8-1.7,0.8-5.2,2.6-5.5C125.3,159.7,124.9,158.1,123.8,158.2L123.8,158.2z"/>
		<path class="st3" d="M129.1,7.4c0.9,0,1.7-0.2,2.5-0.6c0.3-0.1,0.6-0.3,0.8-0.4c0.4-0.4,0.7-0.1-0.2-0.3c-0.1,0,0.1,0.2,0.1,0.2
			c0.1,0.2,0.1,0.1-0.1-0.4v0.4c0,0.9,0.1,1.8,0.3,2.7l4.2-2.5c-1-1.1-2.2-2-3.6-2.5c-1.2-0.7-2.7-0.3-3.4,0.9
			c-0.7,1.2-0.3,2.7,0.9,3.5c1,0.4,1.8,1,2.5,1.7c0.8,0.8,2.1,1,3.1,0.4c1-0.6,1.4-1.8,1.2-2.9c0-1-0.2-2-0.3-2.9
			c-0.4-1.1-1.1-2-2-2.7c-1-0.7-2.4-0.9-3.6-0.6c-0.7,0.2-1.8,1-2.4,1c-1.4,0-2.5,1.1-2.5,2.5C126.6,6.3,127.8,7.4,129.1,7.4
			L129.1,7.4z"/>
		<path class="st3" d="M64.8,17.4v0.4h5.1c-0.1-1-0.5-2.6,0.1-3.6c0.5-0.7,1.7-0.6,2.5-0.5l-0.6-4.6c-2,1.2-3.6,2.9-4.8,4.9
			c-0.7,1.2-0.2,2.7,0.9,3.4c1.2,0.7,2.7,0.3,3.5-0.9c0.8-1.2,1.8-2.2,3-3c1.8-1,1.6-4.3-0.6-4.6c-2.6-0.4-5.4-0.3-7.4,1.7
			s-1.9,4.7-1.6,7.2c0,1.4,1.2,2.5,2.5,2.5c1.4,0,2.5-1.1,2.5-2.5v-0.4C70,14.2,64.9,14.2,64.8,17.4L64.8,17.4z"/>
		<path d="M90.7,179.5c-13.4-1.4-29.4-3.5-37.3-15.9c-3.9-6.1-5.4-13.4-6.3-20.5c-1.2-8.5-2-17.1-1-25.7c1-8.2,3.2-16.2,5-24.2
			c1.7-7.8,2.7-15.8,2.8-23.8c0.3-8.8,2.2-17.2,4.4-25.7c1.9-7.4,4.3-14.6,8.8-20.8C76.3,9.9,91.1,3.4,106.6,2c3.9-0.4,7.8,0,11.5,1
			c4,1.1,7,3.4,10.6,5.2c6.9,3.5,11.7,9,15.3,15.8c7.1,13.3,7.9,28.5,9.8,43.1c0.8,7.5,2.2,14.9,4.1,22.2c1.6,6.1,2.6,12.3,3.7,18.6
			c1.6,9,1.6,18.6,0.8,27.7c-0.6,8.7-3.3,17.1-7.8,24.6c-4.6,7.5-10.8,14.2-19.4,16.8c-4.6,1.4-9.5,2.5-14.3,1.4
			c-4.9-1.1-9.2-4.7-9.6-9.9c-0.1-1.1-1.8-1.1-1.7,0c1.1,16.8,25.7,12.9,34.7,5.9c12.6-9.9,18.8-25.2,19.8-40.8
			c0.7-8.8,0.4-17.7-1-26.4c-0.6-3.5-1.2-7.1-1.8-10.6c-0.7-3.9-1.9-7.7-2.8-11.6c-3.8-16.3-3.4-33.4-8.1-49.5
			c-2-7-5.2-13.6-9.7-19.5c-2.2-3-5-5.6-8.1-7.6c-1.5-0.9-3.2-1.5-4.7-2.4c-1.8-1.2-3.6-2.2-5.6-3.1C114.7-0.5,107,0,99,1.5
			s-15.4,4.2-22,9c-5.7,4.2-10.5,9.5-14,15.7c-4.2,7.4-6,16-8,24.2c-1.1,4.4-1.9,8.9-2.4,13.5c-0.4,4.7-0.3,9.5-0.6,14.2
			c-0.8,9.3-3.4,18.3-5.4,27.4c-2.1,8.7-2.9,17.7-2.3,26.7c0.6,8.1,1.5,16.6,4.1,24.4c2.1,6.6,6.3,12.3,12,16.3
			c6,4,13.2,5.9,20.2,7.1c3.4,0.6,6.9,1,10.4,1.3c1.1,0.1,1.1-1.6,0-1.7L90.7,179.5z"/>
		<path d="M88.8,150.4c3.6-5.9,10-7.4,15.7-3.4c4.9,3.5,5.2,10.7,5,16.2c0,2.9-0.6,5.7-1.5,8.4c-1.1,3-3.5,4.8-6.2,6.4
			c-2.5,1.5-5.3,2.6-8.3,2c-3.3-0.8-4.5-3.5-5.4-6.5c-0.3-1-2-0.6-1.6,0.4c0.9,2.9,2,5.7,4.9,7c2.8,1.2,6,1.1,8.7-0.2
			c3.1-1.2,5.8-3.2,8-5.8c2.2-2.9,2.8-7.2,3-10.7c0.5-7.2-0.3-15.4-6.9-19.4c-6.2-3.8-13.2-1.4-16.9,4.7c-0.2,0.4,0,0.9,0.4,1.1
			C88.1,150.8,88.6,150.7,88.8,150.4z"/>
		<path d="M82.5,147.8c3.3-4.4,8.2-5.6,13.5-5.6c4.9,0.1,11,1.9,11.7,7.6c0.1,1.1,1.8,1.1,1.7,0c-0.7-5.9-6-8.8-11.5-9.2
			c-6.5-0.5-12.7,1-16.8,6.3C80.4,147.8,81.9,148.6,82.5,147.8z"/>
		<path d="M140.1,150.4c-1.1-3.7-2.4-7.7-5.4-10.3c-3.2-2.5-7.2-3.6-11.2-3.1c-7.6,1.1-13.7,9.7-14.1,16.9c-0.1,1.1,1.6,1.1,1.7,0
			c0.4-6.4,5.9-14.2,12.7-15.2c3.7-0.5,7.5,0.7,10.4,3.1c2.4,2.4,3.4,5.9,4.4,9C138.8,151.8,140.4,151.4,140.1,150.4L140.1,150.4z"
			/>
		<path d="M113.9,146.7c4.8-4.3,12.1-3.9,16.4,0.8c0.4,0.4,0.7,0.9,1.1,1.4c0.6,0.9,2.1,0.1,1.5-0.9c-4.1-6.2-12.3-7.9-18.5-3.8
			c-0.6,0.4-1.1,0.8-1.6,1.3C111.9,146.3,113.1,147.4,113.9,146.7L113.9,146.7z"/>
		<path d="M134.4,169.9c-0.5,3.6-2.8,6.7-6,8.3c-1,0.5-0.1,1.9,0.9,1.4c3.6-1.8,6.1-5.3,6.8-9.3
			C136.2,169.3,134.6,168.9,134.4,169.9L134.4,169.9z"/>
		<path d="M126.8,5.2c1.4-2.6,4.4-3.9,7.3-3.2c3.3,1,3.6,6.3,1.5,8.6c-0.7,0.8,0.4,2,1.2,1.2c2.5-2.7,2.7-8.7-0.8-10.8
			c-3.8-2.3-8.6-0.1-10.7,3.4c-0.2,0.4,0,0.9,0.4,1.1C126.1,5.6,126.5,5.5,126.8,5.2L126.8,5.2z"/>
		<path d="M67.1,20.5c-1.4-2.7-2.3-5.9-0.5-8.7c2-3.2,6.9-4,8.9-0.3c0.5,0.9,2,0.1,1.4-0.9c-2-3.8-7-4.2-10.2-1.6
			c-3.8,3.3-3.1,8.2-1.1,12.3C66.1,22.3,67.6,21.4,67.1,20.5z"/>
		<path d="M85.8,41.5c1.6,0.9,4.7,0.6,5.2-1.5c0.3-1.1,0.2-2.3-0.3-3.3c-0.6-0.9-1.7-1.4-2.8-1.3c-1.7-0.1-3,0.5-3.5,2.2
			C84,39.1,84.6,40.6,85.8,41.5c0.9,0.6,1.8-0.9,0.8-1.5s-0.9-2.6,0.2-3c0.5-0.1,1-0.1,1.5,0c0.9,0.1,1.1,0.6,1.2,1.5
			c0.2,0.7-0.3,1.5-1,1.7c-0.6,0.2-1.2,0.2-1.8-0.2c-0.4-0.2-1-0.1-1.2,0.3C85.2,40.7,85.4,41.3,85.8,41.5z"/>
		<path d="M116.1,37.9c-0.2,0.8,0.1,1.6,0.7,2.1c0.8,0.7,1.7,1.1,2.7,1.2c1.9,0,3.4-1.6,3.4-3.5c0-0.1,0-0.2,0-0.3
			c-0.3-2-2.4-2.8-4.2-2.6S116.4,36.4,116.1,37.9c-0.2,1.1,1.5,1.5,1.6,0.5c0-0.6,0.2-1.2,0.5-1.7c0.5-0.5,1.9-0.2,2.4,0.1
			c0.6,0.4,0.8,1.3,0.4,1.9c-0.1,0.2-0.3,0.3-0.5,0.5c-0.5,0.3-1.1,0.4-1.6,0.1c-0.3-0.1-1.2-0.5-1.1-0.9
			C117.9,37.3,116.3,36.9,116.1,37.9z"/>
		<path d="M86.2,48.4c-5.1,6.8-8.1,17.5,0,23.4c0.9,0.6,1.7-0.8,0.8-1.5c-7.3-5.4-3.9-15.1,0.6-21.1C88.2,48.4,86.8,47.6,86.2,48.4
			L86.2,48.4z"/>
		<path d="M106.1,69.5c3-0.4,7.1-1.8,8.4-4.9c0.4-1-1.2-1.5-1.6-0.4c-1,2.4-5,3.4-7.2,3.7C104.6,68,105.1,69.7,106.1,69.5z"/>
		<path d="M94.7,44.2c-3.3,3.4-0.7,6.3,3.3,6.9c2.9,0.4,5.8,0.4,8.7-0.1c2.6-0.4,6.1-1,8.4-2.5c1.3-0.9,2.3-2.5,1.6-4.1
			c-0.8-1.7-3.5-2.2-5.1-2.5c-5.4-1-12-1.2-16.6,2.1c-0.9,0.6,0,2.1,0.8,1.5c2.9-2,6-2.4,9.4-2.3c1.7,0,3.3,0.1,5,0.3
			c1.6,0.2,7.2,1.3,3.7,3.7c-2.5,1.7-7,2.3-9.9,2.5c-2.3,0.2-12.3,0-8.1-4.3C96.6,44.6,95.4,43.4,94.7,44.2z"/>
		<path d="M133,140.1c3.2-0.3,5.8,1.4,8,3.5c0.8,0.8,2-0.4,1.2-1.2c-2.5-2.5-5.6-4.4-9.2-4C131.9,138.5,131.9,140.2,133,140.1
			L133,140.1z"/>
		<path d="M70.8,140.7c5-0.3,10.2-0.5,14.4,2.5c0.9,0.6,1.7-0.8,0.8-1.5c-4.5-3.2-10-3.1-15.3-2.7C69.7,139.1,69.7,140.8,70.8,140.7
			L70.8,140.7z"/>
		<path class="st0" d="M54.5,57c-1.3,5.1-6.3,10.2-11.5,11.6c-8.6,2.3-13,1.3-20.2-1.5c-3.2-1.2-7.5-0.2-10.7,0.8
			c-3.4,1.1-6.1,3.5-8.8,6c-0.7,0.6-1.2,1.3-1.7,2c-0.4,0.9-0.7,1.8-0.8,2.8c-0.5,6.1,2.5,12,7.8,15.1c5.3,3.1,11.3,4.3,16.6,7.8
			c4.7,3.1,8.8,6.9,12.2,11.3c3,3.8,7.7,8.4,7.3,13.7"/>
		<path d="M53.7,56.7c-2.9,10-14.2,13.8-23.7,11.8c-3.9-0.8-7.5-3.1-11.6-2.8c-4.1,0.2-8,1.6-11.4,3.9c-3,2.2-6.4,4.8-6.9,8.7
			c-0.3,3.5,0.4,7,2.2,10c4.6,8,14.4,8.9,21.7,13.3c4.7,3,8.9,6.7,12.3,11c3.2,4,7.8,8.3,7.6,13.8c0,1.1,1.7,1.1,1.7,0
			c0.1-3.7-1.7-6.8-3.9-9.7c-2.5-3.4-5.3-6.7-8.3-9.7c-3.2-3.2-6.8-5.8-10.7-7.9c-4.1-2.1-8.7-3.4-12.7-5.6
			c-4.3-2.2-7.3-6.3-8.1-11.1c-0.5-3-0.2-5.8,2.1-8c1.8-1.9,3.9-3.5,6.2-4.8c4.5-2.4,9.8-2.8,14.5-1c3.4,1.3,7.1,2,10.8,2
			c8.8-0.3,17.2-4.6,19.9-13.5c0.1-0.4-0.1-0.9-0.6-1S53.8,56.2,53.7,56.7L53.7,56.7L53.7,56.7z"/>
		<path class="st0" d="M10.2,76c-0.3-0.3-0.7-0.6-1.1-0.7c-0.5-0.2-1-0.3-1.6-0.3c-1.8-0.2-3.5,0.3-4.9,1.4"/>
		<path d="M10.9,75.4c-2.3-2.2-6.3-1.4-8.6,0.3c-0.9,0.6,0,2.1,0.8,1.4c1.7-1.2,4.8-2.2,6.6-0.5C10.4,77.3,11.7,76.1,10.9,75.4z"/>
		<path class="st0" d="M9,85.4c-0.8-1-2-1.6-3.3-1.9c-1.3-0.2-2.6-0.1-3.8,0.2"/>
		<path d="M9.6,84.8c-2-2.3-5.1-2.5-7.9-1.8c-1,0.3-0.6,1.9,0.5,1.6C4.4,84,6.8,84.1,8.4,86C9.1,86.8,10.3,85.6,9.6,84.8L9.6,84.8z"
			/>
		<path class="st0" d="M163.5,116.2c0-5.4,7.1-15.2,10.4-16c5.4-1.2,14.4-3.2,19.8-4.3c3.6-0.8,7.4-1.6,10.2-4.1
			c1.8-1.6,2.9-3.7,3.4-6.1c0.3-2.6,0.1-5.3-0.7-7.9c-0.2-1.7-0.9-3.3-1.9-4.8c-1.2-1.5-3.2-2.2-5-2.7l-3.9-1.3
			c-1.6-0.5-3.2-1-4.8-1.2c-8.4-1.2-19.6,2-27.7-1.7c-3.1-1.4-10-10.7-10.4-14"/>
		<path d="M164.3,116.2c0.2-3.9,2.6-7.7,4.9-10.7c1-1.5,2.3-2.8,3.8-3.9c1.6-1,3.7-1.2,5.5-1.6c4.6-1,9.1-2,13.7-3
			c4.1-0.9,8.6-1.6,12-4.4s4.4-6.9,3.9-11.1c-0.5-4.4-1.3-9-5.6-11.1c-4.3-2.1-9-3.3-13.8-3.7c-5.1-0.3-10.1,0.4-15.2,0.4
			s-9.6-0.8-13.1-4.7c-2.5-2.8-5.9-6.7-6.6-10.5c-0.2-1.1-1.8-0.6-1.6,0.5c0.6,3,2.7,5.8,4.5,8.2s3.6,4.9,6.1,6.2
			c8.2,4.4,18.7,0.8,27.5,1.8c2.8,0.5,5.6,1.2,8.2,2.2c3.4,1.1,6,2.2,7,6c1.6,6.2,1.7,12.9-4.8,16.1c-4.1,2-9.2,2.5-13.7,3.5
			s-9.1,1.5-13.3,2.9c-2.9,1-5,3.9-6.7,6.3c-2.1,3-4.1,6.7-4.3,10.5C162.6,117.3,164.3,117.3,164.3,116.2L164.3,116.2z"/>
		<path d="M200.8,86.5c1.8-0.6,3.7-0.9,5.6-0.8c1.1,0.1,1.1-1.6,0-1.7c-2.1-0.1-4.1,0.2-6.1,0.8C199.3,85.2,199.7,86.9,200.8,86.5z"
			/>
		<path d="M200.3,78.5c1.3-1.1,3.1-1.5,4.8-1c0.4,0.1,0.9-0.1,1-0.6c0.1-0.4-0.1-0.9-0.6-1c-2.2-0.6-4.6-0.1-6.4,1.4
			C198.3,78,199.5,79.2,200.3,78.5L200.3,78.5z"/>
		<path d="M91.4,158.2c0.9-1.2,1.3-3.5-0.1-4.4c-1.3-0.6-2.8-0.5-3.9,0.4c-1.3,1-1.6,2.8-0.8,4.2c0.9,1.3,2.8,1.6,4,0.6
			c0.2-0.2,0.4-0.4,0.6-0.6c0.7-0.8-0.5-2-1.2-1.2s-1.8,1.1-2.2,0.1c-0.3-0.7,0-1.5,0.7-1.9c0.4-0.2,1.3-0.5,1.7-0.2
			c0.6,0.4,0,1.8-0.4,2.2C89.3,158.3,90.8,159.1,91.4,158.2z"/>
		<path d="M98.5,153.9c0.7-0.4,1.2-1,1.4-1.8c0.1-0.8,0-1.7-0.4-2.4c-0.7-1.4-2.3-1.9-3.7-1.3c-0.2,0.1-0.3,0.2-0.4,0.3
			c-1.3,1.1-1.6,3-0.9,4.5C95.3,154.5,97.3,154.5,98.5,153.9c1-0.5,0.1-2-0.9-1.5c-0.4,0.2-1.4,0.3-1.8-0.1s0-1.7,0.3-2.1
			c0.4-0.4,1-0.5,1.5-0.1c0.1,0.1,0.3,0.3,0.3,0.5c0.4,0.6,0.3,1.4-0.3,1.8c0,0-0.1,0.1-0.1,0.1c-0.4,0.2-0.5,0.8-0.3,1.2
			S98.1,154.2,98.5,153.9L98.5,153.9z"/>
		<path d="M104.6,159.3c0.7,0.2,1.5,0.2,2.1-0.2c0.7-0.5,1-1.3,1-2.2c0.1-1.8-0.9-3.4-2.8-3.4c-1.3,0-2.5,0.7-2.9,1.9
			c-0.4,1.6,1.1,3.2,2.4,3.8c1,0.4,1.8-1,0.8-1.5c-0.7-0.3-1.3-0.8-1.6-1.5c-0.2-0.6,0.4-0.9,1-1c0.6-0.2,1.2,0.2,1.4,0.7
			c0,0,0,0.1,0,0.1c0.2,0.8,0,1.9-1,1.6S103.6,159,104.6,159.3z"/>
		<path d="M93.2,164.4c-0.2,2.6,1.7,4.8,4.3,5c0.3,0,0.6,0,0.9,0c3-0.4,5.8-3.3,5.4-6.4c-0.4-3.5-3.4-5.4-6.8-4.8
			C94.1,158.7,93.3,162,93.2,164.4c-0.1,1.1,1.6,1.1,1.7,0c0.1-1.3,0.3-3.2,1.3-4.1c0.9-0.7,2.4-0.6,3.4-0.3
			c1.2,0.3,2.1,1.3,2.3,2.6c1.3,5-7.3,7.5-7.1,1.9c0-0.5-0.4-0.8-0.8-0.8C93.5,163.6,93.2,164,93.2,164.4L93.2,164.4z"/>
		<path d="M116.5,157.5c1.9,0,3.3-2.2,3-4c-0.5-1.7-2.2-2.6-3.9-2.1c-0.1,0-0.1,0-0.2,0.1c-1.3,0.6-2.8,2.4-2.4,4
			S115.2,157.4,116.5,157.5c1.1-0.1,1.1-1.7,0-1.7c-0.6,0-1.2-0.1-1.8-0.5c-0.5-0.5,0.2-1.4,0.6-1.8c0.5-0.6,1.3-0.7,1.9-0.3
			c0.1,0.1,0.2,0.1,0.2,0.2c0.5,0.7,0.3,1.7-0.5,2.2c-0.2,0.1-0.3,0.2-0.5,0.2c-0.5,0-0.9,0.4-0.9,0.8
			C115.6,157.1,116,157.5,116.5,157.5L116.5,157.5z"/>
		<path d="M120.5,151c0.8,0.5,1.7,0.7,2.6,0.5c0.8-0.2,1.4-0.8,1.8-1.5c0.8-1.2,0.5-2.9-0.7-3.7c-0.2-0.1-0.5-0.3-0.7-0.3
			c-1.4-0.5-2.9,0-3.7,1.2c-0.7,1.2-0.5,2.7,0.6,3.6c0.8,0.7,2-0.5,1.2-1.2c-0.5-0.4-0.6-1.1-0.3-1.7c0.2-0.3,0.6-0.5,0.9-0.5
			c0.9,0,1.6,0.4,1.3,1.3c-0.1,0.7-0.8,1.2-1.5,1c-0.2,0-0.5-0.2-0.6-0.3C120.5,148.9,119.6,150.4,120.5,151z"/>
		<path d="M129.6,157.7c0.9,0.3,1.9,0.1,2.6-0.5c0.8-0.4,1.3-1.3,1.4-2.2c-0.2-1.6-1.3-2.9-2.8-3.3c-1.6-0.4-2.9,0.9-3.2,2.4
			C127.2,155.7,128,157.2,129.6,157.7c1,0.3,1.4-1.3,0.4-1.6c-0.6-0.2-1-0.8-0.9-1.5c0.1-0.6,0.4-1.5,1.1-1.3
			c0.7,0.2,1.2,0.7,1.5,1.4c0.3,0.8-0.9,1.6-1.8,1.4C129,155.8,128.5,157.4,129.6,157.7z"/>
		<path d="M119.3,160.6c-1.4,2.4-1.1,6.7,1.7,7.9c3.1,1.2,7.1,0,8.4-3.2c1.2-2.9,0.2-6.8-2.8-8.1c-1.2-0.5-3.1-1-4.4-0.4
			S120.1,159.4,119.3,160.6c-0.6,0.9,0.9,1.8,1.5,0.8c1.1-1.7,1.8-3.5,4.1-3s3.4,2.2,3.3,4.6c0,2.4-2,4.3-4.4,4.3
			c-0.1,0-0.2,0-0.4,0c-3-0.1-4-3.4-2.6-5.8c0.2-0.4,0-0.9-0.4-1.1C120,160.2,119.6,160.3,119.3,160.6z"/>
		<path class="st0" d="M46.8,121.5c0.6-2.4,1.3-4.8,0.8-7.3c-0.2-1.1-1.8-0.6-1.6,0.4l-0.5,2.2l1.6,0.4c-0.1-2.3,0.7-4.4,1-6.7
			c0.3-2.5,0.1-5,0.8-7.5l-1.7-0.2l-0.1,2.1c-0.1,0.9,1.5,1.2,1.7,0.2c0.4-2.2,0.8-4.5,1.3-6.7l-1.7-0.2c0,0.9-0.2,1.8-0.5,2.6
			l1.6,0.4c0.5-3.5,1-7,1.6-10.5l-1.5,0.2c0.5,0.8-0.2,2.7-0.5,3.6c-0.1,0.5-0.4,0.9-0.5,1.3c-0.2,0.8-0.2,1.6,0.1,2.3
			c0.1,0.5,0.6,0.7,1.1,0.6c0.3-0.1,0.5-0.3,0.6-0.6c0.5-1.2,0.9-2.5,1.3-3.8c0.1-0.5-0.2-0.9-0.7-1c-0.4-0.1-0.8,0.2-0.9,0.5
			c-0.4,1.3-0.8,2.5-1.3,3.7h1.6c-0.8-2.8,2.4-4.8,0.7-7.6c-0.2-0.4-0.8-0.5-1.2-0.3c-0.2,0.1-0.3,0.3-0.4,0.5
			c-0.6,3.5-1.2,7-1.6,10.5c-0.1,0.4,0.1,0.9,0.6,1c0.4,0.1,0.9-0.1,1-0.6c0.3-1,0.5-2,0.6-3c0.1-0.9-1.4-1.1-1.7-0.2
			c-0.5,2.2-1,4.4-1.3,6.7l1.7,0.2l0.2-2.1c0.1-1-1.4-1.1-1.7-0.2c-0.7,2.3-0.6,4.6-0.8,7c-0.2,2.6-1.2,5-1.1,7.6
			c0,0.5,0.4,0.8,0.9,0.8c0.3,0,0.5-0.2,0.7-0.4c0.7-1,1-2.3,0.7-3.5l-1.6,0.4c0.5,2.1-0.3,4.3-0.8,6.4
			C44.9,122.1,46.5,122.6,46.8,121.5L46.8,121.5z"/>
		<path class="st0" d="M49,90.2c0.4,0.4,0.9,0.8,1.5,1v-2.9c-1.7,1-2.4,3.9,0.1,4.4c3.2,0.6,2.6-4.2,2-5.9c-0.2-0.7-0.9-1.2-1.6-1.2
			c-0.7,0-1.4,0.4-1.8,1c-0.9,1.2,0.6,2.8,1.9,2.5c4.3-1.2,2.2-8.5-1.8-5.4c-1.2,1-0.1,2.8,1.2,2.9c2,0.1,4.4-1.7,4-4
			s-2.9-1.8-4.2-0.8l2.4,2.4c1.1-1,2.1-2.7,1.2-4.1c-1-1.6-2.8-0.9-3.9,0.1l2.4,2.4c1.1-1.3,1.9-2.9,2.3-4.5
			c0.3-1.3-1.2-2.8-2.5-1.9c-0.8,0.5-1.5,1.2-2,2.1C49,80,51.8,81.7,53,79.9c1.6-2.6,2.3-5.7,2-8.8c-0.2-2.1-3.6-2.2-3.4,0
			c0.3,2.5-0.3,5-1.6,7.1l3,1.7l0.8-0.9l-2.5-1.9c-0.2,1.1-0.7,2.2-1.4,3.1c-0.7,0.7-0.7,1.7,0,2.4c0.7,0.7,1.7,0.7,2.4,0
			c-0.7-1.6-1.4-1.8-2-0.8c-1.6,1.5,0.7,3.7,2.4,2.4l-1-0.2l-0.4-1.6l-0.8,0.9l1.2,2.9l0.5-0.4l-1.6,0.4l-0.3-0.3l1.8,2.5l0.1-0.2
			l-1.5,0.8h0.2l-1.6-1.2c0.4,0.8,0.5,1.6,0.3,2.5l1.5-0.8l1,1.9c1-0.6,1.2-2.4,0-2.9l-0.8-0.4c-1.7-1.4-4,1-2.4,2.4L49,90.2z"/>
		<path class="st0" d="M54,70.3l0.3-0.8c0.2-0.6-0.2-1.6-1-1.2l-0.5,0.2l1.1,0.8c0-0.6,0.4-1.2,0.5-1.8c0.2-1.3,0.2-2.6,0.5-4
			c0.6-2.4,1.5-4.6,2.5-6.8c0.5-1-1-1.8-1.5-0.8c-1.1,2.2-2,4.5-2.6,6.9c-0.5,2.1-0.9,4.3-1.2,6.5c0,0.5,0.4,0.8,0.9,0.8
			c0.1,0,0.1,0,0.2,0l0.5-0.2l-1-1.2l-0.3,0.8C52,70.4,53.5,71.2,54,70.3L54,70.3z"/>
		<path class="st0" d="M54.8,60.1c-0.4,0-0.7,0.2-0.9,0.5c-0.2,0.4-0.1,0.9,0.3,1.2c0.4,0.2,0.9,0.1,1.2-0.3
			c0.2-0.2,0.4-0.5,0.5-0.7c0.2-0.4,0.1-0.9-0.3-1.2c-0.4-0.2-0.9-0.1-1.2,0.3c-0.2,0.2-0.3,0.5-0.5,0.7l1.5,0.8v-0.1l-0.3,0.3l0,0
			l-0.4,0.1h0.1c0.5,0,0.8-0.4,0.8-0.8S55.2,60.1,54.8,60.1L54.8,60.1z"/>
		<path class="st0" d="M46.4,121.1c-1.3-0.2-1.2,1.1-1,2l1-1c-0.3-0.1-0.6,0-0.8,0.1c-0.4,0.2-0.5,0.8-0.3,1.2
			c0.5,1,0.3,2.2,0.8,3.3s1.9,0.1,1.5-0.8c-0.2-0.6-0.3-1.2-0.3-1.8c-0.1-0.5-0.2-1-0.5-1.5l-0.3,1.2h0.1l-0.7,0.1h0.1
			c0.5,0.1,0.9-0.2,1-0.7c0-0.1,0-0.2,0-0.3c-0.1-0.2-0.1-0.4-0.1-0.7l-0.2,0.6l0,0l-0.8,0.2l0,0c1.1,0.2,1.5-1.4,0.5-1.6
			L46.4,121.1z"/>
		<path class="st0" d="M151.1,63.5c1.5,8,3.1,16,4.5,24c0.7,3.9,1.3,7.8,1.9,11.8c0.4,2.1,0.7,4.2,0.8,6.2c0,2-0.5,3.5,0,5.5
			c0.8,3.2,5.7,1.8,4.9-1.3c-0.5-1.9,0.2-4.2,0-6.2c-0.2-1.7-0.5-3.3-0.7-5c-0.6-4.1-1.3-8.2-2-12.3c-1.4-8-3-16-4.5-24
			C155.4,59,150.5,60.3,151.1,63.5L151.1,63.5z"/>
		<path class="st0" d="M158.9,113c-0.4-0.1-0.7-0.3-0.9-0.6l0.1,0.2c-0.3-0.7,0,0.4,0,0s-0.1,0.5,0,0.1c0-0.2,0-0.2,0,0
			c0.1-0.3,0.1-0.3,0-0.1l4.7,1.3c0-0.4-0.1-0.2-0.2,0.4c-0.3,0.6-0.4,0.7-0.1,0.5c1-1,1-2.6,0-3.6c-1-0.9-2.6-0.9-3.6,0
			c-0.8,0.7-1.2,1.7-1.1,2.7c0,1.4,1.1,2.5,2.5,2.5c0.9,0,1.7-0.5,2.2-1.2c0.7-1.2,0.8-2.6,0.5-3.9c-0.3-1.4-1.3-2.6-2.7-3.1
			c-1.4-0.3-2.7,0.6-3,2C157,111.3,157.7,112.6,158.9,113L158.9,113z"/>
		<path class="st0" d="M161.1,113.8c-0.1,1.1-0.3,2.2-0.6,3.3c-0.1,0.5,0.1,0.9,0.6,1s0.9-0.1,1-0.6c0.4-1.2,0.6-2.5,0.7-3.7
			C162.9,112.7,161.2,112.8,161.1,113.8L161.1,113.8z"/>
		<path class="st0" d="M154.6,60.8c-0.3-0.7-0.1,0.3-0.2-0.3c0-0.2,0-0.5,0-0.7c-0.1-0.8-0.5-1.5-0.6-2.2c-0.2-1.4-1.5-2.6-2.4-3.7
			c-0.7-0.8-1.9,0.4-1.2,1.2c0.5,0.6,1.1,1.2,1.5,1.8c0.3,0.7,0.5,1.4,0.7,2.2c0.2,0.9,0.4,1.7,0.7,2.6
			C153.7,62.7,155.1,61.8,154.6,60.8L154.6,60.8z"/>
		<path class="st0" d="M150.5,53.7c0.5,1.5,1.3,3,2.1,4.4c0.5,1,2,0.1,1.4-0.8l-1-1.9c-0.4-0.7-0.7-1.4-1-2.2
			c-0.1-0.4-0.6-0.7-1.1-0.5C150.6,52.9,150.4,53.3,150.5,53.7L150.5,53.7z"/>
		<path class="st4" d="M167.1,195.2c-1.9-0.7-4.1-0.6-5.9,0.4c-1.5,0.7-2.4,2.3-2,3.9c0.5,1.7,2.1,2.9,3.6,3.7
			c1.1,0.6,2.8,1.6,0.8,2.1c-1.3,0.3-2.8,0-3.9-0.8c-1.6-1.1-3.1,1.5-1.5,2.6c2.5,1.8,9,2.3,9.6-1.9c0.3-2-1.3-3.4-2.9-4.4
			c-0.6-0.4-2.8-1.3-2.7-2.2c0.1-1.5,3.5-0.8,4.2-0.6c0.8,0.2,1.6-0.4,1.8-1.2C168.2,196.2,167.8,195.5,167.1,195.2L167.1,195.2z"/>
		<path class="st4" d="M52.5,190.9c-11.9-3.9-6.4,16.3-5.1,22c0.4,1.9,3.3,1.1,2.9-0.8c-0.8-3.4-1.4-6.8-1.7-10.2
			c-0.2-2.2-1.6-9.6,3.1-8.1C53.5,194.4,54.3,191.5,52.5,190.9L52.5,190.9z"/>
		<path class="st4" d="M41.8,204.5c3.5-0.9,7.1-1.6,10.7-2.1c1.9-0.3,1.1-3.2-0.8-2.9c-3.6,0.5-7.1,1.2-10.7,2.1
			C39.1,202.1,39.9,205,41.8,204.5z"/>
		<path class="st4" d="M77.3,209.4c-0.7-4.5-0.8-9.1-0.5-13.7l-2.8,0.8l6.2,9.1c1.5,2.2,2.9,4.6,5.3,6c0.9,0.5,2.4-0.1,2.3-1.3
			c-0.7-5.1-0.9-10.3-0.6-15.5c0.1-1.9-2.9-1.9-3,0c-0.3,5.2,0,10.3,0.6,15.5l2.3-1.3c-2.5-1.4-4-4.6-5.6-6.9l-4.8-7
			c-0.5-0.7-1.4-0.9-2.1-0.5c-0.4,0.3-0.7,0.7-0.7,1.2c-0.3,4.8-0.1,9.7,0.6,14.5C74.7,212.1,77.6,211.3,77.3,209.4L77.3,209.4z"/>
		<path class="st4" d="M102.9,201.6l10.2-1.6c1.9-0.3,1.1-3.2-0.8-2.9l-10.2,1.6C100.2,199,101,201.9,102.9,201.6L102.9,201.6z"/>
		<path class="st4" d="M105.7,193c0.1,3.7-1.5,22.8,7.2,17c1.6-1.1,0.1-3.7-1.5-2.6c-2.8,1.9-2.3-5.7-2.4-6.6l-0.3-7.8
			C108.6,191.1,105.6,191.1,105.7,193L105.7,193z"/>
		<path class="st4" d="M117.1,199.3c0.5,2.9,0.8,5.8,0.8,8.8c0,0.8,0.7,1.5,1.5,1.5s1.5-0.7,1.5-1.5c0-3.2-0.3-6.4-0.9-9.6
			C119.7,196.6,116.8,197.4,117.1,199.3z"/>
		<path class="st4" d="M118.7,194.9c0.8,0,1.5-0.7,1.5-1.5s-0.7-1.5-1.5-1.5s-1.5,0.7-1.5,1.5S117.8,194.9,118.7,194.9z"/>
		<path class="st4" d="M127.3,209.2l1.8-13.6l-2.8,0.8c1.9,2.5,2.9,6.8,5.9,8.2c0.6,0.3,1.3,0.2,1.8-0.2c1.1-0.9,1.7-2.6,2.4-3.8
			c1.2-2.1,2.4-4.2,3.6-6.2l-2.8-0.8c0.5,5.5,0.8,11,0.7,16.4c0,0.8,0.7,1.5,1.5,1.5s1.5-0.7,1.5-1.5c0-5.5-0.2-11-0.7-16.4
			c0-0.8-0.7-1.5-1.6-1.5c-0.5,0-1,0.3-1.2,0.7c-1,1.7-2,3.5-3,5.2c-0.7,1.3-1.4,3.3-2.6,4.2l1.8-0.2c-1.4-0.6-1.7-2.1-2.3-3.3
			c-0.7-1.3-1.5-2.6-2.5-3.8c-0.5-0.7-1.4-0.9-2.1-0.5c-0.4,0.3-0.7,0.7-0.7,1.2l-1.8,13.6C124.1,211.1,127.1,211.1,127.3,209.2
			L127.3,209.2z"/>
		<path class="st4" d="M145.6,202c2.6-0.3,5.2-0.7,7.8-1.4c0.5-0.1,0.9-0.5,1.1-1c0.6-2.6-1-5.2-3.5-5.8c0,0-0.1,0-0.1,0
			c-2.9-0.6-5.7,1.4-6.7,4.1s-0.8,6.1,1.3,8.2c2.3,2.2,5.8,1.6,8.3,0.1c0.7-0.4,1-1.3,0.5-2.1c-0.4-0.7-1.3-1-2.1-0.5
			c-1.2,0.7-2.7,1.3-4,0.7s-1.8-2.3-1.7-3.7c0-1.5,0.7-2.9,2-3.6c1.4-0.7,3.5,0,3,1.8l1.1-1c-2.3,0.6-4.6,1-7,1.3
			C143.7,199.3,143.7,202.3,145.6,202L145.6,202z"/>
		<path class="st4" d="M56.7,200.9c0.2,3.2,1.3,10.5,5.7,10.5c1.7,0,2.7-1.3,3.2-2.8c1-2.9,1.5-6.1,2.2-9.1h-2.9L68,212
			c0.4,1.9,3.3,1.1,2.9-0.8l-3-12.5c-0.3-0.8-1.1-1.2-1.9-1c-0.5,0.1-0.8,0.5-1,1l-1,4.2c-0.3,1.2-0.4,3.6-1.1,4.5
			c-1.1,1.6-1.9-1.1-2.3-2.2c-0.5-1.4-0.8-2.9-0.9-4.4C59.6,199,56.6,199,56.7,200.9L56.7,200.9z"/>
		<path class="st4" d="M57.7,197.6c0.8,0,1.5-0.7,1.5-1.5s-0.7-1.5-1.5-1.5s-1.5,0.7-1.5,1.5S56.9,197.6,57.7,197.6z"/>
		<path class="st4" d="M65.4,196.6c0.8,0,1.5-0.7,1.5-1.5s-0.7-1.5-1.5-1.5s-1.5,0.7-1.5,1.5S64.6,196.6,65.4,196.6z"/>
	</g>
</g>
</svg>
