<svg xmlns="http://www.w3.org/2000/svg" viewBox="0 0 208.16 213.92"><defs><style>.cls-1{fill:#dee1d1;}.cls-2{fill:#4d4d4d;}.cls-3{fill:#636656;}.cls-4{fill:#bdc0ad;}.cls-5{fill:#353535;}</style></defs><title>Asset 16</title><g id="Layer_2" data-name="Layer 2"><g id="Layer_1-2" data-name="Layer 1"><path class="cls-1" d="M122,64.39a76.61,76.61,0,0,1,.42-8.57l-1.21,9a28.78,28.78,0,0,1,1.61-6.34l-3.39,8a19.84,19.84,0,0,1,2.2-3.82l-5.26,6.82a18.6,18.6,0,0,1,2.85-2.83l-6.82,5.26a21.2,21.2,0,0,1,3.46-2.06l-8,3.39a19.66,19.66,0,0,1,4.64-1.31l-9,1.21a17.7,17.7,0,0,1,4,0l-9-1.2a5.35,5.35,0,0,1,1.57.46l-8-3.4.67.39L86,64.15a42.53,42.53,0,0,1,7.4,7.1l-5.26-6.82a14.66,14.66,0,0,1,1.26,2.26l-3.4-8a14.18,14.18,0,0,1,.63,2.57l-1.2-9A52.42,52.42,0,0,1,85.26,59a43.61,43.61,0,0,0,1.81,14.68,35.29,35.29,0,0,0,15.48,20.13c7.22,4.23,17.86,6,26,3.4s16-7.69,20.13-15.48l3.39-8a33.81,33.81,0,0,0,0-17.91l-.83-4.06c-1.63-8-8.65-16.13-15.48-20.13-7.22-4.23-17.86-6-26-3.4s-16,7.69-20.13,15.48l-3.4,8.05a34,34,0,0,0,0,17.91l.84,4.06,65-17.91a15.33,15.33,0,0,1-.56-2.59l1.2,9c-.23-3.31.37-6.59.1-9.89a50.84,50.84,0,0,0-5.22-19.57c-1.77-3.7-4.68-7-7.36-10.08a60.33,60.33,0,0,0-6.58-6.1c-5.55-4.67-8.47-6.94-15.54-9a34.34,34.34,0,0,0-6-1.06,36.68,36.68,0,0,0-8.52-.62c-8.58.81-15.87,2.33-23.43,6.85A51.93,51.93,0,0,0,63,29.31c-6.81,10.25-8.29,23.1-8.35,35.08A34.66,34.66,0,0,0,64.5,88.21c5.84,5.84,15.43,10.24,23.82,9.87,8.71-.39,17.75-3.26,23.82-9.87S122,73.53,122,64.39Z"/><path class="cls-1" d="M104.32,134.87A34.73,34.73,0,0,0,128.14,125c5.85-5.84,10.25-15.43,9.87-23.82-.39-8.71-3.25-17.75-9.87-23.82s-14.69-9.87-23.82-9.87A34.77,34.77,0,0,0,80.5,77.36c-5.84,5.84-10.24,15.43-9.86,23.82.39,8.71,3.25,17.75,9.86,23.82s14.7,9.87,23.82,9.87Z"/><path class="cls-1" d="M141,97.85c1.46,17.36-2.34,34.12-5.2,51.18-.62,3.74.42,7.49,3.87,9.51a8.59,8.59,0,0,0,10.21-1.32c6.26-6.42,8-14.29,8.72-23,.66-8.22,1.28-16.44,1.91-24.66l-15.69,4.25a29.6,29.6,0,0,1,1.56,5.22c.18,1.06.22,1.26.13.6,0,.48.09,1,.11,1.43.06,1.12,0,2.23,0,3.34a4,4,0,0,1-.16,1.63c-.23,1.3-.53,2.59-.83,3.88-.53,2.25-1.07,4.5-1.45,6.79L160.76,139c0-1-.08-1.07-.14-.16a2.74,2.74,0,0,1-1.53,1.84l-11.53-11.52a25,25,0,0,0-2.6,11.52,8.43,8.43,0,0,0,5.17,7.7c3.38,1.36,6.45.48,9.2-1.74,1.52-1.23,2.09-2.81,2.79-4.56l-16.24-4.48a27.29,27.29,0,0,1-2.2,5.91l3-3-.51.34,4.25-1.15-.44,0,4.25,1.15c-.85-.41,1,1.49,0,.05-.8-1.2-1.59-2.38-2.47-3.52a23.19,23.19,0,0,0-2.74-3.11c-1-1-2.45-2.51-3.79-3-.92-.31,0-.26,0,.18,0,0,.47,1.36.3,1.33s.09-3.12.12-3.42c.46-4.83-2.4-9.63-7.51-10.32-3.4-.46-6.26,1.21-9,2.36a77.36,77.36,0,0,1-7.51,2.59c-2.57.75-5.18,1.36-7.81,1.85-1.24.22-2.69.44-3.23.5l-2,.2c-4,.32,2.2-.78,3.08,3.89L103.54,141c-.39,0-2.21-.92-.49,0a23.17,23.17,0,0,0,2.75,1.21,19.44,19.44,0,0,0,6.45,1.15c3.47.08,6.88-.82,10.36-.75a12.67,12.67,0,0,1,3.63.43c.8.19,1.6.41,2.38.67.47.14.94.31,1.4.49l-.57-.2c-2.15-3.36-.67-.24-.28.37a28.59,28.59,0,0,0,2,2.64,10.53,10.53,0,0,0,1.29,1.53c-.41,0-.92-1.85-.91-2-.34,4.4,4.12,8.61,8.42,8.42,4.86-.22,8.06-3.71,8.43-8.42a12.2,12.2,0,0,0-2.23-7.59,35.78,35.78,0,0,0-2.32-2.92c-.64-.76-.69-.81-.14-.15-.32-.55-.64-1.11-1-1.67-2.92-4.53-7.88-6.61-13-7.61a45.37,45.37,0,0,0-14-.27,23.41,23.41,0,0,1-3.45.2s-1.43-.37-.69-.06c-2.73-1.15-4.93-2.43-8-2.3-5.8.26-9.16,5.16-8.12,10.66,2.07,11,15.55,8.57,23.36,7.08A77.82,77.82,0,0,0,129,139.28q2.39-.78,4.72-1.73c1.29-.52,2.58-1.07,3.86-1.62l.92-.41c1.67-.7,1.19-.64-1.46.16l-7.27-4.17.33.52-1.15-4.25c-.08,4.69-.47,8.84,2.34,13a16.51,16.51,0,0,0,4.36,4.22c.2.14,2.12,1.6,1.18.8a10,10,0,0,1,2.69,3.19c3.12,4.7,8.09,9.34,14.19,6.79,5.29-2.21,6.94-8.68,8.44-13.72,1.26-4.22-1.51-9.36-5.88-10.36-4.88-1.11-8.59,1.5-10.36,5.88l-.2.5,2.16-3.71-.42.34,14.38,6s.12-2.59-.05-1.49c0-.25.77-2.42.36-1.53,1.57-3.45,1.51-7.37-1.32-10.2-2.43-2.43-7.27-3.54-10.2-1.32-4.14,3.12-7.14,7.43-6.67,12.86.36,4.22,2.93,7.69,7.3,8.28,3.77.5,8.56-1.9,9.24-6,1-5.93,2.94-11.65,3.08-17.72a40.72,40.72,0,0,0-4.14-18.14c-1.54-3.34-6.17-4.79-9.51-3.87-3.75,1-5.89,4.39-6.18,8.12L142.05,131a57,57,0,0,1-1,8.63,11.48,11.48,0,0,1-3.06,5.68l14.08,8.19c3.06-18.27,7.36-37,5.79-55.65-.37-4.38-3.61-8.63-8.42-8.42-4.25.19-8.82,3.72-8.42,8.42Z"/><path class="cls-1" d="M110.13,152.4c-1.77-.21,2.27,1,.86.35a27.3,27.3,0,0,1,3.16,1.79c2.39,1.5,4.73,3.08,7.09,4.62l4.25-15.69c-4.81.52-9.26,1.65-12.79,5.2a14.25,14.25,0,0,0-3.45,13.44c.2.89.52,1.75.8,2.61,0,0,.87,2.73.52,1.24.61,2.62.52,4.91,1.92,7.34,2.51,4.35,7.71,6.66,12.59,6.55,4.59-.1,9-1.78,13.21-3.58a24.77,24.77,0,0,0,9.46-6.52A82.87,82.87,0,0,0,160.66,148c1.55-3.83-1.38-8.53-4.88-9.94a8.42,8.42,0,0,0-10.52,3.45q-4.23,7.75-8,15.77l9.51-3.87a25.56,25.56,0,0,0-13.39.06l-1.27.36c1.23-.17,2.21.43,2.94,1.82,2.91,2.25,2.56,1.67,2,4.54.54-.83.6-1,.17-.39l.58-.64c.68-.68,1.34-1.37,2-2,5.66-5.37,11.05-10.26,14.2-17.59a101.87,101.87,0,0,0,6.36-22.88,51.08,51.08,0,0,0,.92-13,22.16,22.16,0,0,0-1.81-8,8.12,8.12,0,0,0-1.27-2.11c-1.36-1.53.31.88,0,2.07H142.11q1.75,9.9,4.15,19.66a8.42,8.42,0,1,0,16.24-4.48q-2.38-9.76-4.15-19.66c-1.47-8.29-14.41-7.77-16.24,0a13.57,13.57,0,0,0,.9,9.52,17.35,17.35,0,0,0,1.26,2c.49.75.59.91.3.47s-.26-.26,0,.62a61.07,61.07,0,0,1-1,11.64c-.88,4.17-1.86,8.36-3.07,12.45-1.11,3.71-1.86,6.17-4.42,9.57-1.57,2.06-5.57,5.38-8.11,7.8-3.66,3.49-7.19,7.71-7.25,13.05-.07,6.32,4.63,12.06,11.12,12.33a19.26,19.26,0,0,0,6.43-1,9,9,0,0,1,4,.06c3.32.86,7.94-.5,9.51-3.87q3.72-8,8-15.77l-15.39-6.49c-1.45,3.56-4.51,8.2-7,11.88-.69,1-1.35,2.1-2.11,3.07.8-1-.84.83-.92.9.53-.36.37-.27-.48.29q-.78.47-1.59.87c-.55.28-1.11.54-1.67.78.42-.18.37-.17-.16,0-.83.31-5.92,1.59-5.94,1.63.33-1.07,3.36,3.48,2.48,1.78a2,2,0,0,1,.39,1.16c-.12-1-.25-2.05-.4-3.07a33.63,33.63,0,0,0-1-3.52l-.28-.87c-.26-1-.3-1.16-.12-.38a3,3,0,0,1-1,2.46c.7-.68.73-.7.08-.08-1.69.47,2.73-.4.8-.19,3.6-.39,7.24-2.33,8.12-6.18a8.76,8.76,0,0,0-3.87-9.51c-6.28-4.11-12-8.16-19.61-9.06-4.39-.52-8.61,4.24-8.42,8.42.22,5,3.72,7.87,8.42,8.42Z"/><path class="cls-1" d="M53,65.46a88.62,88.62,0,0,1-2.15,26.85c-1,4.38-2.34,8.7-3.23,13.11-1,5.09-2.47,11.22.48,15.93a8.43,8.43,0,0,0,14.55-8.5q.57,3.7.56,1.46l.09-1a9.92,9.92,0,0,1,.27-1.86c.4-2,.83-4.06,1.33-6.07,1-4.23,2.26-8.41,3.1-12.69a106.55,106.55,0,0,0,1.85-27.2c-.29-4.39-3.68-8.63-8.43-8.42-4.32.19-8.72,3.71-8.42,8.42Z"/><path class="cls-1" d="M79.37,32.74a7.45,7.45,0,0,1,2.35-3.56,31.12,31.12,0,0,1,5.5-3.95,40.28,40.28,0,0,1,13.4-5.17c7.91-1.71,8.16-14.7,0-16.24a17.83,17.83,0,0,0-9.76.76C86.59,6.12,83.71,10.31,85,14.94a8.56,8.56,0,0,0,10.36,5.88,83.56,83.56,0,0,1,15.49-2.6c4.38-.32,8.63-3.65,8.42-8.43-.19-4.29-3.71-8.76-8.42-8.42a112.47,112.47,0,0,0-20,3.21l4.48,16.24c.57-.22,1.15-.42,1.74-.59,1.48-.3,1.17-.35-.94-.17V3.82c-13,2.83-28.89,10.77-33,24.44-1.27,4.22,1.52,9.37,5.88,10.36a8.59,8.59,0,0,0,10.36-5.88Z"/><path class="cls-1" d="M146.31,28.07l-.58-.6c.34.52.36.53,0,.05-.8-1.2-.58-2.15-.25,1l-2.47,5.95.25-.21-8.2,2.16.29.08a8.41,8.41,0,0,0,9.93-4.87c1.66-4.12.07-8-3.44-10.52,1,.69,1.82,2.4,1.1.45a8.7,8.7,0,0,0-1-1.74c-.55-.83-1.22-1.62-1.85-2.4l-.56-.68c.33.45.34.43,0,0a17.29,17.29,0,0,0-7-7.12C127.19,6.24,121.35,3.12,115,1.93c-4.32-.81-9.29,1.19-10.36,5.88-.94,4.14,1.25,9.5,5.88,10.36a27.18,27.18,0,0,1,7,2.19c2.59,1.27,5,2.95,7.52,4.25,2.32,1.17-1.1-.93-.77-1.17,0,0,.59,1.27.65,1.37a16.74,16.74,0,0,0,1.61,2.31c-.08-.11,1.42,1.85,1.1,1.37s.6,1.05.7,1.23c.23.44.4.91.65,1.35a14.11,14.11,0,0,0,4.45,4.58l6.49-15.39a8.77,8.77,0,0,0-11.13,8.91c.3,4.14,2.83,7.9,5.66,10.81a8.42,8.42,0,1,0,11.91-11.91Z"/><path class="cls-1" d="M118.51,104.73a33.42,33.42,0,0,1,.21-5.83l-1.21,8.95a22.51,22.51,0,0,1,.7-3.26l-3.39,8a4.77,4.77,0,0,1,.62-1.21l-5.26,6.82.44-.49L103.81,123l.55-.37-8,3.4.73-.24-9,1.21c4.09-.48,8.22-.75,12.28-1.51a39.43,39.43,0,0,0,8.29-3,38,38,0,0,0,7.42-3.69,32.28,32.28,0,0,1,4-2.52L112,119.75a9,9,0,0,1,2.27-.61l-9,1.2.77,0-9-1.2a4.43,4.43,0,0,1,1.51.43l-8-3.4a6.64,6.64,0,0,1,1.31.84l-6.81-5.27c3.15,2.62,6.11,5.51,9.15,8.26a37.67,37.67,0,0,0,14.87,8.67l9,1.2a25.3,25.3,0,0,0,13-2.9,16.89,16.89,0,0,0,7.43-4.33,16.84,16.84,0,0,0,6-6,16.76,16.76,0,0,0,4.34-7.43,25.4,25.4,0,0,0,2.9-13c.33-2.82.64-5.66,1-8.48l-1.21,9a21.38,21.38,0,0,1,1-4.23l-3.4,8a11.3,11.3,0,0,1,1-1.8l-5.27,6.82a5.59,5.59,0,0,1,.92-1L139,109.81a5,5,0,0,1,1.17-.7l-49.49-38a5.26,5.26,0,0,1-.38,1.6l3.39-8-.38.73c-4.14,8-5.83,17.09-3.39,26,2.15,7.81,8.19,16.28,15.48,20.13,7.82,4.13,17.29,6.2,26,3.4,8.11-2.63,16.09-7.68,20.13-15.48,1.7-3.3,3.59-6.7,4.16-10.38.93-6,1.65-11.93,0-17.91a33.44,33.44,0,0,0-12.07-17.5,16.83,16.83,0,0,0-7.44-4.33,16.69,16.69,0,0,0-8.5-2.3,16.79,16.79,0,0,0-9,0,25.05,25.05,0,0,0-12.53,4,36.84,36.84,0,0,0-8,6A47.25,47.25,0,0,0,92,64.68,40.58,40.58,0,0,0,87,76.25c-1.66,6.41-1.89,13.35-2.66,20l57.51-23.82c-8-7.28-15.67-15.09-26.45-18.11-6.39-1.8-13.05-1.4-19.46-.05a12.81,12.81,0,0,0-1.89.57,63,63,0,0,0-8.78,3.76c-2.28,1.29-4.24,3-6.62,4.15l8-3.4a20.71,20.71,0,0,1-4.27,1.26l9-1.21c-4.35.55-8.73.51-13,1.74A37.1,37.1,0,0,0,56.78,78.32c-3.45,6.06-4,9.76-4.84,16.1a55.06,55.06,0,0,0-.8,10.31c.44,8.9,3.45,17.41,9.86,23.82,5.85,5.84,15.43,10.24,23.82,9.87,8.72-.39,17.75-3.25,23.82-9.87,5.88-6.4,10.32-14.87,9.87-23.82Z"/><path class="cls-1" d="M90.76,179.07l2.57.66V163.48l-1,.25c-9.17,2.3-7.3,16.73,2.24,16.54a15.7,15.7,0,0,0,13-7.3c3.05-4.7,3.11-10.19,2.29-15.52a29.39,29.39,0,0,0-5-12.87c-2.81-3.84-6.4-8-10.88-9.79-5.46-2.24-12.09-.65-15.2,4.63-2.49,4.23-2.74,10.14-2.24,14.91.55,5.19,1.83,10.31,6.08,13.72,5.75,4.63,14.1,2.95,16.5-4.36,1.86-5.66-4.4-12.78-10.36-10.36-5.67,2.3-10.29,6.21-12,12.33-2.23,8.12,4.85,16.1,13.21,13.79a8.55,8.55,0,0,0,6.19-8.12c-.19-4.05-2.59-6.62-6.19-8.12a33.94,33.94,0,0,1-5.15-2.39l3,3c.18.8.11.63-.19-.51-.19-.66-.36-1.31-.53-2-.33-1.32-.62-2.65-.9-4-.56-2.66-1-5.35-1.59-8A65.81,65.81,0,0,0,80,134.74a37.32,37.32,0,0,0-9.2-12c-1.91-1.69-3.92-3.26-5.7-5.08-.42-.43-.83-.87-1.22-1.32.37.55.27.4-.3-.43a14.81,14.81,0,0,1-.89-1.53c.25.66.22.51-.11-.47a8.47,8.47,0,0,0-9.24-6c-4.36.59-6.93,4-7.3,8.27-1.14,13.09-.4,27,3.13,39.68,1.84,6.61,5.46,11.93,11.54,15.29,6.29,3.48,12.94,6.2,20.19,6.51A8.49,8.49,0,0,0,89,171.43c2.17-9.49-6.72-15.18-11.53-21.41a40.44,40.44,0,0,1-2.55-3.86,13,13,0,0,1-1.5-3.42c-.22-.73-.41-1.47-.56-2.21.24,1.23-.09-1.25-.09-1.34s.26-2.61,0-1.31a17.39,17.39,0,0,1,.76-2.58c1.51-4.15-1.69-9.4-5.88-10.36-4.75-1.08-8.75,1.44-10.36,5.88-2.81,7.74-1,16.41,2.85,23.45A56.21,56.21,0,0,0,67,163.65c1.15,1.32,2.34,2.61,3.53,3.89.65.7,1.28,1.42,2,2.11,1.44,1.47-.32-.11.27-2.7l8.12-6.19a21.86,21.86,0,0,1-6.46-1.6c-1.46-.6-4.21-2-6.1-3.09-.19-.1-1.81-1.46-1-.56A9.86,9.86,0,0,1,66,153.34c.55,1.17-.52-1.69-.61-2-.32-1.17-.58-2.35-.84-3.54a107.54,107.54,0,0,1-1.69-31.66l-16.54,2.24c2,6.48,6.43,11,11.44,15.3,1.23,1.06,2.46,2.12,3.59,3.28a10.92,10.92,0,0,1,1.88,2.28A26.59,26.59,0,0,1,66.43,146c1.9,5.83,2.7,11.93,4,17.9.8,3.5,1.57,7.56,4.2,10.2,2.81,2.8,7.3,3.9,10.89,5.4V163.21l.93-.21,4.25,1.15q3.52,2.92,2.25,6c.53-.83.55-.9.08-.2.72-.67.75-.74.09-.22.88-.46.91-.53.1-.21L82.91,159.21l-.17.53,3.87-5-.56.3,4.25-1.15a4.73,4.73,0,0,1,3.79,2.26l-.38-.64c.32.86.32.83,0-.1-.11-.41-.21-.82-.28-1.23a21.28,21.28,0,0,1-.13-5c0-.18.6-1.92.41-2.14l-3.48,3.41a3.52,3.52,0,0,1-3-.29l.68.43c-.66-.45-.61-.35.14.3.55.67,1.23,1.25,1.82,1.89a8.75,8.75,0,0,1,2.42,3.56,15.94,15.94,0,0,0,.47,1.71,26.28,26.28,0,0,1,.67,2.92c.11.71.34,2.68-.22,3.52.34-.84.27-.84-.21,0a1.19,1.19,0,0,1,.59-.72c.47-.32.34-.25-.38.19a2.58,2.58,0,0,1,1.37-.51L96.84,180l1-.24c8-2,8-14.21,0-16.25l-2.58-.65c-4.26-1.09-9.33,1.39-10.36,5.88s1.32,9.2,5.89,10.36Z"/><path class="cls-1" d="M150.13,79.64A20.78,20.78,0,0,0,141,82.11a8.5,8.5,0,0,0-3,11.53,8.62,8.62,0,0,0,11.52,3c.31-.16.61-.31.92-.45l-2,.85a11.8,11.8,0,0,1,3-.8l-2.24.3c.34,0,.68-.06,1-.07a8.83,8.83,0,0,0,6-2.47,8.43,8.43,0,0,0-6-14.38Z"/><path class="cls-2" d="M95.27,47.46a14.84,14.84,0,0,1,6.49-2.73,58.15,58.15,0,0,1,6.43-.67,9,9,0,0,1,3.4.58c.73,0,1.08.28,1.06.94.39.62.22.89-.52.8a8.89,8.89,0,0,1-1.6.33c-1.17.33-2.28.94-3.52,1.22a30.47,30.47,0,0,1-6,1c-.92,0-3.62.1-4.06-.77-.65-1.3,1.55-1.92,2.25-2.17a17.79,17.79,0,0,1,6.23-.9c2,0,6-.18,7.57,1.25l.37-1.41c-1.83.73-3.78,1-5.62,1.8A19.06,19.06,0,0,1,99.3,48a6.29,6.29,0,0,1-2-.23,16.94,16.94,0,0,1,1.61-.9,12.72,12.72,0,0,1,4-1.23c2.56-.33,5,.42,7.53,1V45c-1.75.63-3.5,1.26-5.3,1.72S99.85,48,98,47l.39,1c.17-.72,3.84-1.3,4.34-1.39a24.39,24.39,0,0,1,5.4-.3l-.6-1.44c-1.88,2-5.43,1.69-8,1.92l.43,1.57a11,11,0,0,1,4.07-1c1.07-.09,1.08-1.78,0-1.68a13,13,0,0,0-4.92,1.19.85.85,0,0,0,.42,1.57c3-.27,6.9,0,9.16-2.4a.85.85,0,0,0-.59-1.44,24.18,24.18,0,0,0-7.85.83c-1.25.35-3.17.63-3.51,2.1a.86.86,0,0,0,.38.95c3.86,2.11,10.11-.55,13.83-1.89.72-.26.87-1.43,0-1.62-3.4-.75-6.65-1.6-10.1-.64-1.5.41-5.42,1.46-5.28,3.5.2,2.8,5.82,1.87,7.36,1.78a14,14,0,0,0,4.65-1c2-.81,4.17-1.25,6.2-2.06a.85.85,0,0,0,.37-1.41c-2.11-2-7.14-1.81-9.85-1.73A15.83,15.83,0,0,0,95.43,46c-1.83,1.34-1.26,2.49.63,3.58,2.82,1.63,6.35,1,9.34.35a23.34,23.34,0,0,0,4.81-1c1.18-.5,2.76-.76,3.91-1.38,1.7-.93,1.88-2.67.22-3.7-3.15-2-6.52-1.21-9.91-1-3.77.26-6.86.89-10,3.14-.88.62,0,2.08.85,1.45Z"/><path class="cls-2" d="M118.12,36.81a2.45,2.45,0,0,0-.5,1.85,1.44,1.44,0,0,0,1.2,1c1.17.24,2.67,0,2.82-1.38a1.86,1.86,0,0,0-.47-1.63,2.11,2.11,0,0,0-1.61-.42,1.11,1.11,0,0,0-1,1.42,1.27,1.27,0,0,0,1.59.82c1-.33.58-2-.45-1.62l.47.25v.45l0-.15-.22.37.08-.07-.37.22c.06,0,.23,0,.31,0l.13,0c-.12-.16-.17-.18-.14-.07s0,.29,0,.32c-.07-.18.27-.15-.12-.1a1.42,1.42,0,0,1-.46,0c-.07,0-.24-.08-.29-.06s-.08.1.16.33l0-.16c.1-.16.16-.36.27-.52.61-.9-.85-1.74-1.45-.85Z"/><path class="cls-2" d="M86,37.73a3.47,3.47,0,0,0,.25,2.48,2.52,2.52,0,0,0,2,.76c1.84-.08,2.08-2.56,1.18-3.74a2.37,2.37,0,0,0-2-1,1.33,1.33,0,0,0-1.22,1.59c.09.74.27,1.77,1.1,2s1.48-.61,1.57-1.41a.85.85,0,0,0-1.69,0q1,.22.78-.39l-.1-.47c-.37.2-.43.33-.19.38a.91.91,0,0,1,.23.15,1,1,0,0,1,.28,1,.4.4,0,0,1-.09.2c.1,0,.08,0-.07,0a1.22,1.22,0,0,1-.54-.12,5.25,5.25,0,0,1,.11-1.44c.09-1.08-1.6-1.08-1.68,0Z"/><path class="cls-3" d="M95.94,160c-1.52,1.32-2.46,4.45-1.34,6.28a3.83,3.83,0,0,0,2.65,1.62c1.41.18,2-.61,3-1.44l-1.32-1a6,6,0,0,1-.48.9.84.84,0,0,0,.5,1.23c2.36.51,3.9-2.75,3.64-4.71a4.13,4.13,0,0,0-5.29-3.4c-2.27.62-2.78,4.18-1.83,6,1.23,2.43,3.92,1.93,5.22-.11a3.12,3.12,0,0,0,.6-3.08,3.66,3.66,0,0,0-3-2c-2.48.08-2.46,4-.94,5.2a2.08,2.08,0,0,0,3.36-2.25,2.15,2.15,0,0,0-2.1-1.56,2.05,2.05,0,0,0-1.41,2.5c.7,1.9,5.24,1.33,3.72-1.15a1.64,1.64,0,0,0-2.66-.28,1.15,1.15,0,0,0,1,1.83c1.08.1,1.07-1.58,0-1.68.84.57.92.8.25.69a1.72,1.72,0,0,1-1-.36l.42.72c0-.75.21-.26-.31-.24q-.35.56-.42,0a.83.83,0,0,1-.12-.54c-.08-.67.19-1.23,1-.93.54.2.7,1,.6,1.52-.16.89-1.38,2.11-2.31,1.42-.77-.57-.58-1.9-.44-2.67.18-1,.42-1.56,1.56-1.61a2.27,2.27,0,0,1,2,1,2.51,2.51,0,0,1,.42,2.12c-.11.46-.81,2-1.47,1.9l.5,1.24a6.38,6.38,0,0,0,.48-.89.85.85,0,0,0-1.32-1c-.57.5-1,1.15-1.83.92a1.65,1.65,0,0,1-1.31-1.69,4.07,4.07,0,0,1,1.24-3.3c.83-.71-.37-1.89-1.19-1.19Z"/><path class="cls-3" d="M95.75,150.75a1.74,1.74,0,0,0,2.39,2c1.41-.67,1-2.72-.24-3.31s-2.63.7-2.87,2a1.66,1.66,0,0,0,.79,1.81,2.21,2.21,0,0,0,2.1.07.85.85,0,0,0-.85-1.46.77.77,0,0,1-.37-.07c-.12-.05-.13-.05,0,0a.19.19,0,0,0,0-.17c.11-.16.27-.65.45-.66a.33.33,0,0,1,.12.08.49.49,0,0,1,.08.21c0,.11,0,.1.08,0s-.06.09,0,0c0,.08,0,0,0-.06.22-1.06-1.41-1.51-1.63-.45Z"/><path class="cls-3" d="M88.88,155.32c-1.1,0-1.71,1.51-1.31,2.43a1.49,1.49,0,0,0,2.62,0c.49-.71,1.07-2.15.32-2.85s-2.24-.09-2.56.91,1.29,1.47,1.62.44c0,0,0,0,0,0s-.21,0-.22-.06l-.22-.37c.08.19-.26.79-.38,1,0,0,0,.05-.05.06s-.06.06,0,0,.55.2.35.25c0,.09,0,.06,0-.09l0-.14s0-.07.09-.11l-.37.22h0a.85.85,0,0,0,0-1.69Z"/><path class="cls-3" d="M104.16,155c-1.9,1.27.81,4.42,2.38,2.9.81-.78.32-1.84-.27-2.55a1.59,1.59,0,0,0-1.18-.63,1.23,1.23,0,0,0-1.18.88.84.84,0,0,0,1.62.44l0-.08-.21.37a1,1,0,0,1-.45,0s0,0,.07.07.11.12.16.19a1.5,1.5,0,0,0,.15.23s.2-.21.21-.22c0-.17.17.2,0-.09,0,0-.14-.12-.16-.15l-.07-.09c-.13-.16.15-.08-.21.16a.86.86,0,0,0,.3-1.15.84.84,0,0,0-1.15-.3Z"/><path class="cls-3" d="M114.45,154.84a2.47,2.47,0,0,0,1.49,1.93,2.33,2.33,0,0,0,2.22-.84c1.1-1.15.3-3.91-1.49-3.77s-2.64,2.77-.75,3.41,2.88-2,1-2.67c-1-.36-1.47,1.27-.45,1.62-.28-.35-.27-.52,0-.52h0c-.06.06.19-.08.16-.08.43,0,0-.12.1-.06s.19.47.2.58.06.18-.06.35a.93.93,0,0,1-.37.28c-.17,0-.1.1-.24-.06a1.54,1.54,0,0,1-.23-.63.84.84,0,0,0-1.62.45Z"/><path class="cls-3" d="M120.9,149a2.17,2.17,0,1,1,0,.11.84.84,0,0,0,1.62-.45c-.08-.24,0,.09,0,0s0-.05,0,0l0-.07c-.1.09.07-.06,0,0s-.08,0,0,0l0,0c-.08,0-.09,0,0,0h0c-.06,0,0,0,0,0l0,0,0,0s-.1-.24,0,0a.56.56,0,0,0,0-.12c0-.08,0-.09,0,0s0,.05,0,0,0,.14,0,0c-.06.06-.07.08,0,0a.05.05,0,0,1,0,0s0,0,0,0l.06,0c.16.07,0-.06,0,0s-.09-.09,0,0,0-.1,0,0a.87.87,0,0,0-1-.59.86.86,0,0,0-.58,1Z"/><path class="cls-3" d="M129.54,153.29c-.48.88-.56,2.35.43,2.93a1.54,1.54,0,0,0,2.28-1.29,1.63,1.63,0,0,0-2.13-1.56c-.83.27-2,1.57-1.35,2.46a.88.88,0,0,0,1.16.3.85.85,0,0,0,.3-1.15v.43l0-.09a.28.28,0,0,0,.06-.09,3.58,3.58,0,0,0,.28-.26c.1-.14,0,.05,0,0s-.1-.1,0-.18.06,0,.09-.05.19.09.21.09.07-.62.11-.7c.51-1-.94-1.81-1.45-.85Z"/><path class="cls-3" d="M123.84,158.2c-3,.46-5.42,6-3.32,8.44,1.13,1.3,3.13,1.14,4.62.64a4.65,4.65,0,0,0,3.08-3.67h-1.63a3.92,3.92,0,0,0,.26,1.06.84.84,0,0,0,1.65-.23c.09-1.89-.33-5-2.3-5.92-1.8-.81-3.52,1-4.46,2.36-1,1.51-1.34,3.74.29,5a2.83,2.83,0,0,0,4.14-1.18c.69-1.26,1.34-4.13-.32-4.91s-3.37,1.14-3.8,2.6.26,3.39,2,3.19c2.13-.24,1.77-3,1.29-4.43a.85.85,0,0,0-1.54-.2c-1.62,2.46.74,4.37,3.1,2.83.63-.41.47-1.67-.43-1.57a11.46,11.46,0,0,0-2.52.55c-1,.36-.58,2,.45,1.63a9.77,9.77,0,0,1,2.07-.5l-.42-1.57c-.54.36-1.22.13-.8-.52l-1.53-.2c.11.32.66,1.87.29,2.08-.76.43-.21-1.24-.1-1.42a.84.84,0,0,1,1.2-.52,8.49,8.49,0,0,1-.17,1.33c-.25,1-1.46,2.38-2.24.92-.63-1.19.79-3.07,1.85-3.64,2-1,2.28,3.14,2.24,4.11l1.65-.22a3.9,3.9,0,0,1-.25-1.06c-.14-.85-1.43-.76-1.63,0a3.18,3.18,0,0,1-1.46,2.32c-.91.47-2.89.91-3.46-.2-.84-1.66.77-5.17,2.62-5.46,1.06-.16.61-1.79-.45-1.62Z"/><path class="cls-4" d="M129.12,7.44a5.1,5.1,0,0,0,2.51-.56,4.35,4.35,0,0,0,.83-.43c.43-.36.7-.07-.17-.33-.09,0,.14.23.05.17.15.25.11.12-.12-.4v.4A14.11,14.11,0,0,0,132.55,9l4.23-2.46A9.62,9.62,0,0,0,133.21,4a2.59,2.59,0,0,0-3.45.91,2.54,2.54,0,0,0,.9,3.46,6.43,6.43,0,0,1,2.54,1.73,2.55,2.55,0,0,0,3.06.4,2.65,2.65,0,0,0,1.17-2.86,25.91,25.91,0,0,0-.31-2.94,5.42,5.42,0,0,0-2-2.71,4.18,4.18,0,0,0-3.57-.58c-.72.19-1.75,1-2.41,1a2.54,2.54,0,0,0-2.53,2.52,2.57,2.57,0,0,0,2.53,2.53Z"/><path class="cls-4" d="M64.82,17.42l0,.38h5.06c-.12-1-.49-2.6.1-3.56.46-.74,1.72-.61,2.49-.49l-.61-4.61A15,15,0,0,0,67.05,14,2.54,2.54,0,0,0,68,17.4a2.58,2.58,0,0,0,3.46-.9,9.35,9.35,0,0,1,3-3c1.78-1,1.59-4.27-.6-4.62-2.57-.41-5.45-.34-7.36,1.68s-1.92,4.72-1.63,7.24a2.61,2.61,0,0,0,2.53,2.53,2.57,2.57,0,0,0,2.53-2.53v-.38c.1-3.25-5-3.25-5.05,0Z"/><path d="M90.74,179.46c-13.41-1.42-29.37-3.54-37.33-15.91-3.92-6.1-5.37-13.42-6.34-20.49-1.18-8.52-2-17.12-1-25.7,1-8.21,3.22-16.19,5-24.24a125.5,125.5,0,0,0,2.84-23.81c.26-8.83,2.2-17.19,4.42-25.71C60.27,36.23,62.62,29,67.1,22.78,76.35,9.87,91.07,3.43,106.59,2a31.62,31.62,0,0,1,11.49,1c4,1.13,7,3.38,10.61,5.2,6.91,3.5,11.7,9,15.33,15.82,7.07,13.3,7.94,28.48,9.75,43.12a161.29,161.29,0,0,0,4.09,22.25c1.65,6.13,2.56,12.35,3.7,18.58,1.65,9,1.56,18.61.77,27.7a55.51,55.51,0,0,1-7.76,24.56c-4.59,7.47-10.84,14.2-19.41,16.75-4.59,1.37-9.48,2.48-14.26,1.45-4.93-1.08-9.21-4.66-9.55-9.94-.07-1.07-1.75-1.08-1.69,0,1.08,16.83,25.69,12.93,34.69,5.91,12.63-9.87,18.81-25.16,19.82-40.81a109.08,109.08,0,0,0-1-26.41c-.65-3.53-1.17-7.08-1.83-10.61-.74-3.93-1.91-7.73-2.82-11.62-3.82-16.31-3.39-33.39-8.1-49.49A57.39,57.39,0,0,0,140.75,16a31.66,31.66,0,0,0-8.08-7.62c-1.51-.91-3.16-1.51-4.66-2.42a46.77,46.77,0,0,0-5.57-3.11C114.73-.51,107,0,99,1.55s-15.37,4.19-22,9a49.36,49.36,0,0,0-14,15.66c-4.16,7.43-6.05,16-8,24.19a90.17,90.17,0,0,0-2.37,13.45c-.4,4.71-.26,9.45-.64,14.16-.75,9.29-3.36,18.29-5.36,27.36a90.65,90.65,0,0,0-2.33,26.72c.61,8.11,1.46,16.64,4.07,24.39a31,31,0,0,0,12,16.26c6,4,13.15,5.9,20.17,7.06,3.44.57,6.9,1,10.36,1.33,1.07.12,1.07-1.57,0-1.68Z"/><path d="M88.79,150.39c3.58-5.94,10-7.45,15.7-3.38,4.87,3.47,5.21,10.74,5,16.24a27,27,0,0,1-1.49,8.39c-1.13,3-3.53,4.75-6.17,6.36-2.46,1.49-5.33,2.65-8.26,2-3.31-.77-4.47-3.52-5.39-6.46-.33-1-2-.59-1.63.45.9,2.86,2,5.66,4.87,7a10.62,10.62,0,0,0,8.69-.22,20.35,20.35,0,0,0,8-5.76c2.2-2.94,2.78-7.18,3-10.74.48-7.16-.31-15.37-6.89-19.44C98,141,91,143.4,87.33,149.54a.85.85,0,0,0,1.46.85Z"/><path d="M82.53,147.75c3.34-4.37,8.19-5.64,13.48-5.57,4.92.06,11,1.88,11.65,7.6.13,1.06,1.81,1.07,1.68,0-.7-5.85-6-8.75-11.47-9.21-6.52-.54-12.7,1-16.79,6.33-.66.86.8,1.7,1.45.85Z"/><path d="M140.09,150.4c-1.12-3.68-2.4-7.7-5.4-10.32A15.29,15.29,0,0,0,123.5,137c-7.6,1.1-13.66,9.67-14.14,16.88-.08,1.08,1.61,1.08,1.68,0,.43-6.41,5.93-14.16,12.66-15.17a13.27,13.27,0,0,1,10.37,3.12c2.42,2.37,3.44,5.89,4.4,9,.32,1,1.94.59,1.62-.45Z"/><path d="M113.9,146.74a11.61,11.61,0,0,1,17.47,2.18c.61.89,2.07.05,1.46-.85a13.34,13.34,0,0,0-20.12-2.52c-.81.72.38,1.9,1.19,1.19Z"/><path d="M134.43,169.93a11,11,0,0,1-6,8.27c-1,.49-.12,1.94.85,1.45a12.58,12.58,0,0,0,6.76-9.27c.16-1.06-1.46-1.52-1.63-.45Z"/><path d="M126.79,5.16a6.58,6.58,0,0,1,7.28-3.23c3.29,1,3.64,6.34,1.49,8.61-.74.79.45,2,1.19,1.2C139.29,9.05,139.43,3,136,.93c-3.77-2.26-8.61-.12-10.68,3.38a.85.85,0,0,0,1.46.85Z"/><path d="M67.08,20.47c-1.38-2.73-2.27-5.86-.54-8.66,2-3.21,6.92-4,8.89-.34.52.95,2,.1,1.45-.85-2-3.79-7-4.25-10.17-1.55-3.85,3.26-3.12,8.21-1.08,12.25.49,1,1.94.12,1.45-.85Z"/><path d="M85.8,41.51c1.63.93,4.68.64,5.23-1.52a4.64,4.64,0,0,0-.34-3.3,3.1,3.1,0,0,0-2.76-1.31c-1.68-.11-3,.52-3.48,2.25a3.54,3.54,0,0,0,1.35,3.88c.91.59,1.75-.87.85-1.46s-.9-2.57.18-3a3.52,3.52,0,0,1,1.48,0c.86.11,1.12.64,1.16,1.47a1.44,1.44,0,0,1-1,1.67,1.92,1.92,0,0,1-1.77-.19A.85.85,0,0,0,85.8,41.51Z"/><path d="M116.14,37.94a2,2,0,0,0,.71,2.13,4.94,4.94,0,0,0,2.7,1.16,3.45,3.45,0,0,0,3.38-3.78c-.29-2-2.45-2.76-4.25-2.64s-2.31,1.62-2.54,3.13c-.17,1.06,1.46,1.52,1.62.45a3.33,3.33,0,0,1,.47-1.67c.49-.52,1.89-.21,2.42.1a1.4,1.4,0,0,1-.15,2.4,1.51,1.51,0,0,1-1.61.11c-.31-.13-1.19-.53-1.13-.94C117.92,37.33,116.3,36.87,116.14,37.94Z"/><path d="M86.16,48.41c-5.13,6.85-8.08,17.46,0,23.42.87.64,1.71-.82.85-1.46-7.34-5.39-3.9-15.13.57-21.11.65-.87-.81-1.71-1.45-.85Z"/><path d="M106.14,69.51c3-.44,7.13-1.78,8.37-4.87.41-1-1.22-1.45-1.62-.45-1,2.39-5,3.37-7.2,3.7-1.06.15-.61,1.78.45,1.62Z"/><path d="M94.65,44.16C91.3,47.57,94,50.44,98,51.07a28.27,28.27,0,0,0,8.71-.06c2.62-.42,6.14-1,8.39-2.55,1.31-.88,2.28-2.5,1.55-4.07-.8-1.74-3.51-2.19-5.14-2.48-5.4-1-12-1.16-16.64,2.11-.88.62,0,2.08.85,1.46,2.9-2,6-2.37,9.45-2.35a39.54,39.54,0,0,1,5,.28c1.57.22,7.23,1.27,3.73,3.71-2.49,1.73-7,2.31-9.86,2.51-2.28.15-12.29-.05-8.14-4.28C96.6,44.57,95.41,43.38,94.65,44.16Z"/><path d="M133,140.06c3.23-.28,5.79,1.37,8,3.54.78.76,2-.43,1.19-1.19-2.51-2.46-5.56-4.35-9.2-4-1.07.09-1.08,1.78,0,1.69Z"/><path d="M70.75,140.7c5-.31,10.16-.53,14.45,2.52.89.63,1.73-.83.85-1.46-4.53-3.21-10-3.08-15.3-2.74-1.08.06-1.09,1.75,0,1.68Z"/><path class="cls-1" d="M54.47,57C53.13,62.11,48.18,67.23,43,68.61,34.38,70.92,30,69.91,22.8,67.14c-3.19-1.24-7.46-.24-10.67.78C8.72,69,6,71.46,3.35,73.92a8.52,8.52,0,0,0-1.69,2,6.81,6.81,0,0,0-.75,2.76A16.2,16.2,0,0,0,8.69,93.81C14,96.89,20,98.12,25.28,101.59a52.58,52.58,0,0,1,12.25,11.28c3,3.78,7.72,8.44,7.3,13.65"/><path d="M53.66,56.74C50.73,66.69,39.47,70.56,30,68.56c-3.94-.83-7.51-3.06-11.62-2.81A21.85,21.85,0,0,0,7,69.68C4,71.88.56,74.48.1,78.42a16.52,16.52,0,0,0,2.21,10c4.61,8,14.42,8.87,21.71,13.31a50,50,0,0,1,12.34,11c3.23,4,7.79,8.3,7.63,13.78,0,1.08,1.65,1.08,1.68,0,.11-3.72-1.69-6.85-3.88-9.73a87.39,87.39,0,0,0-8.33-9.69,44.94,44.94,0,0,0-10.73-7.95C18.58,97,14.05,95.78,10,93.55A15.63,15.63,0,0,1,1.89,82.48c-.51-3-.16-5.75,2.06-8a26.9,26.9,0,0,1,6.16-4.82,17.45,17.45,0,0,1,14.53-1,29,29,0,0,0,10.77,2c8.83-.32,17.23-4.58,19.87-13.53a.84.84,0,0,0-1.62-.45Z"/><path class="cls-1" d="M10.25,76a2.15,2.15,0,0,0-1.1-.67A8.48,8.48,0,0,0,7.58,75a6.85,6.85,0,0,0-4.92,1.41"/><path d="M10.85,75.38c-2.26-2.17-6.32-1.41-8.62.26-.87.63,0,2.09.85,1.45,1.65-1.19,4.85-2.17,6.58-.52.78.75,2-.43,1.19-1.19Z"/><path class="cls-1" d="M9,85.37a5.43,5.43,0,0,0-3.27-1.86,8.59,8.59,0,0,0-3.8.23"/><path d="M9.62,84.77c-2-2.29-5.08-2.53-7.89-1.85-1,.26-.61,1.88.45,1.63C4.44,84,6.8,84.11,8.43,86c.71.82,1.9-.38,1.19-1.19Z"/><path class="cls-1" d="M163.46,116.22c0-5.41,7.13-15.24,10.37-16,5.36-1.24,14.43-3.17,19.81-4.3,3.62-.77,7.44-1.6,10.2-4.08a10.63,10.63,0,0,0,3.35-6.07,21.22,21.22,0,0,0-.66-7.87,10.66,10.66,0,0,0-1.87-4.76c-1.25-1.48-3.2-2.15-5-2.74l-3.87-1.26A29,29,0,0,0,191,67.91c-8.37-1.16-19.6,2-27.72-1.7-3.08-1.4-10-10.66-10.41-14"/><path d="M164.31,116.22c.16-3.88,2.59-7.73,4.87-10.74a16.41,16.41,0,0,1,3.75-3.87c1.56-1,3.73-1.16,5.52-1.56,4.56-1,9.12-2,13.69-3,4.13-.87,8.63-1.58,12-4.38s4.43-6.91,3.93-11.1c-.52-4.39-1.29-9-5.64-11.08a39.27,39.27,0,0,0-13.84-3.69c-5.06-.27-10.11.44-15.17.37s-9.63-.84-13.14-4.71c-2.53-2.78-5.89-6.71-6.59-10.54-.2-1.06-1.82-.61-1.63.45.55,3,2.73,5.85,4.52,8.22s3.62,4.85,6.13,6.22c8.18,4.45,18.74.8,27.51,1.8a42.84,42.84,0,0,1,8.23,2.24c3.38,1.1,6,2.19,7,6,1.6,6.19,1.74,12.88-4.82,16.12-4.14,2-9.19,2.54-13.66,3.5s-9.08,1.52-13.33,2.93c-2.9,1-5,3.94-6.7,6.34-2.1,3-4.13,6.68-4.29,10.46,0,1.08,1.64,1.08,1.69,0Z"/><path d="M200.76,86.49a15.19,15.19,0,0,1,5.64-.76c1.09.06,1.08-1.63,0-1.68a16.36,16.36,0,0,0-6.09.82c-1,.34-.59,2,.45,1.62Z"/><path d="M200.34,78.5a5.13,5.13,0,0,1,4.75-1,.84.84,0,0,0,.45-1.62,6.92,6.92,0,0,0-6.39,1.4c-.84.7.36,1.89,1.19,1.2Z"/><path d="M91.39,158.25c.88-1.19,1.32-3.49-.13-4.43a3.64,3.64,0,0,0-3.91.39,3.19,3.19,0,0,0-.75,4.21,2.89,2.89,0,0,0,4.66,0c.68-.84-.51-2-1.19-1.2s-1.75,1.14-2.18.05a1.5,1.5,0,0,1,.68-1.85c.42-.24,1.28-.53,1.73-.21.6.42,0,1.76-.36,2.18C89.29,158.27,90.76,159.11,91.39,158.25Z"/><path d="M98.54,153.92a2.91,2.91,0,0,0,1.44-1.75,3.88,3.88,0,0,0-.43-2.41,2.77,2.77,0,0,0-4.14-1,3.81,3.81,0,0,0-.9,4.5c.82,1.26,2.83,1.28,4,.64,1-.51.11-2-.85-1.45-.42.22-1.4.34-1.75-.09s0-1.67.35-2.1a1.06,1.06,0,0,1,1.81.33,1.27,1.27,0,0,1-.41,1.86A.84.84,0,0,0,98.54,153.92Z"/><path d="M104.58,159.33a2.53,2.53,0,0,0,2.13-.23,2.58,2.58,0,0,0,1-2.16c.13-1.77-.9-3.39-2.82-3.36a3.05,3.05,0,0,0-2.94,1.91c-.4,1.55,1.1,3.2,2.42,3.76,1,.41,1.85-1,.85-1.46a2.77,2.77,0,0,1-1.58-1.53c-.19-.59.45-.86,1-1a1.11,1.11,0,0,1,1.41.83c.18.79,0,1.89-1,1.58S103.55,159,104.58,159.33Z"/><path d="M93.16,164.42a4.67,4.67,0,0,0,5.23,5c3-.35,5.76-3.27,5.39-6.39-.42-3.52-3.44-5.37-6.84-4.8-2.87.47-3.65,3.73-3.78,6.21-.06,1.09,1.62,1.08,1.68,0,.07-1.27.29-3.2,1.35-4.09.87-.73,2.42-.58,3.43-.32a3.21,3.21,0,0,1,2.34,2.55c1.33,5-7.3,7.48-7.12,1.86A.84.84,0,0,0,93.16,164.42Z"/><path d="M116.47,157.47c1.92,0,3.27-2.19,3-4a3.14,3.14,0,0,0-4.09-2.05c-1.34.6-2.84,2.41-2.45,4s2.22,2,3.58,2c1.09,0,1.09-1.64,0-1.68a2.83,2.83,0,0,1-1.75-.5c-.51-.53.19-1.38.6-1.79a1.39,1.39,0,0,1,2.16-.09,1.57,1.57,0,0,1-1,2.38A.84.84,0,0,0,116.47,157.47Z"/><path d="M120.52,151a3.37,3.37,0,0,0,2.58.53,2.74,2.74,0,0,0,1.77-1.54,2.65,2.65,0,0,0-1.45-4,3.18,3.18,0,0,0-3.66,1.23,2.84,2.84,0,0,0,.59,3.63c.81.71,2-.48,1.19-1.19a1.19,1.19,0,0,1,.66-2.15c.86,0,1.63.37,1.33,1.33a1.29,1.29,0,0,1-2.16.68C120.48,148.92,119.64,150.38,120.52,151Z"/><path d="M129.58,157.71a2.89,2.89,0,0,0,2.62-.54,2.64,2.64,0,0,0,1.35-2.2,3.92,3.92,0,0,0-2.82-3.29c-1.63-.43-2.88.95-3.18,2.44a3,3,0,0,0,2,3.59c1,.34,1.48-1.29.45-1.62a1.26,1.26,0,0,1-.87-1.46c.07-.56.44-1.46,1.12-1.33a2.46,2.46,0,0,1,1.5,1.36c.34.78-.91,1.64-1.75,1.43C129,155.83,128.53,157.45,129.58,157.71Z"/><path d="M119.32,160.61c-1.39,2.39-1.13,6.74,1.73,7.9,3.06,1.24,7.12,0,8.42-3.16,1.2-2.92.25-6.82-2.78-8.11-1.25-.53-3.09-1-4.38-.36s-2.24,2.52-3,3.73c-.57.92.89,1.77,1.46.85,1.06-1.72,1.81-3.51,4.11-3s3.42,2.19,3.32,4.59a4.36,4.36,0,0,1-4.8,4.25c-3-.1-4-3.45-2.63-5.82A.85.85,0,0,0,119.32,160.61Z"/><path class="cls-1" d="M46.75,121.49c.56-2.42,1.35-4.79.76-7.26-.25-1.07-1.81-.61-1.62.44l-.49,2.24,1.57.43c-.06-2.3.71-4.41,1-6.66.32-2.51.06-5,.83-7.46L47.14,103,47,105.14c-.07.93,1.5,1.17,1.65.22Q49.19,102,50,98.69l-1.65-.23a6.68,6.68,0,0,1-.55,2.62l1.62.45q.72-5.25,1.64-10.47l-1.54.2c.49.82-.2,2.71-.46,3.57-.14.46-.37.87-.48,1.34a4.26,4.26,0,0,0,.06,2.32.85.85,0,0,0,1.63,0,33.76,33.76,0,0,0,1.27-3.75.85.85,0,0,0-1.63-.45A30.63,30.63,0,0,1,48.62,98h1.63c-.77-2.83,2.39-4.77.71-7.63a.85.85,0,0,0-1.54.2q-.91,5.22-1.64,10.47a.84.84,0,0,0,1.62.45A12,12,0,0,0,50,98.46c.09-.95-1.44-1.13-1.65-.22-.54,2.21-1,4.43-1.33,6.68l1.65.22.15-2.14c.06-1-1.38-1.1-1.66-.23-.72,2.3-.57,4.57-.79,7-.24,2.58-1.16,5-1.1,7.62a.85.85,0,0,0,1.57.42,4.38,4.38,0,0,0,.66-3.53l-1.62.44c.5,2.12-.29,4.31-.77,6.37-.24,1,1.38,1.5,1.63.45Z"/><path class="cls-1" d="M49,90.24a4.91,4.91,0,0,0,1.49,1V88.3c-1.68,1-2.42,3.89.14,4.36,3.17.57,2.6-4.25,2-5.9a1.74,1.74,0,0,0-1.63-1.23,2.2,2.2,0,0,0-1.81,1c-.91,1.22.58,2.84,1.9,2.47,4.28-1.18,2.22-8.5-1.79-5.36-1.23,1-.11,2.81,1.19,2.87,2,.09,4.43-1.72,4-4s-2.88-1.84-4.22-.75l2.38,2.38c1.06-1,2.09-2.67,1.18-4.07-1.05-1.62-2.75-.87-3.9.09l2.38,2.38A9.66,9.66,0,0,0,54.57,78c.27-1.3-1.17-2.81-2.47-1.9a6.45,6.45,0,0,0-2,2.08C49,80,51.83,81.66,53,79.87a14.21,14.21,0,0,0,2-8.81c-.23-2.13-3.6-2.16-3.37,0a11.54,11.54,0,0,1-1.58,7.11L53,79.87,53.8,79l-2.48-1.9a6.35,6.35,0,0,1-1.41,3.08,1.68,1.68,0,0,0,2.38,2.38q-1.12-2.34-2-.78c-1.62,1.51.73,3.72,2.38,2.38l-1-.21-.44-1.64-.77.87,1.2,2.88.45-.36-1.64.44-.31-.35L52,88.27l.13-.18-1.45.83.22,0-1.62-1.24a3.81,3.81,0,0,1,.34,2.47l1.45-.84,1,1.92c1-.58,1.21-2.4,0-2.91l-.81-.44c-1.65-1.39-4,1-2.38,2.38Z"/><path class="cls-1" d="M54,70.26l.34-.77c.25-.58-.19-1.55-1-1.24l-.53.21,1.07.81c.05-.58.44-1.21.55-1.78.25-1.31.18-2.64.47-4a34.09,34.09,0,0,1,2.55-6.81c.45-1-1-1.83-1.46-.85a34,34,0,0,0-2.63,6.92,56.15,56.15,0,0,0-1.17,6.48.85.85,0,0,0,1.07.82l.53-.22-1-1.23-.33.77c-.43,1,1,1.84,1.45.85Z"/><path class="cls-1" d="M54.8,60.09a1,1,0,0,0-.89.51.85.85,0,0,0,.3,1.15.86.86,0,0,0,1.15-.3q.27-.36.51-.72a.85.85,0,0,0-.3-1.15.86.86,0,0,0-1.15.3c-.17.24-.33.48-.51.72l1.45.85,0-.06-.3.3,0,0-.42.12h.07a.84.84,0,0,0,0-1.68Z"/><path class="cls-1" d="M46.36,121.07c-1.33-.22-1.16,1.08-1,2l1-1a.91.91,0,0,0-.79.11.88.88,0,0,0-.31,1.16c.53,1,.28,2.22.77,3.28s1.9.12,1.45-.85a5.63,5.63,0,0,1-.29-1.78,4,4,0,0,0-.47-1.5l-.3,1.15.06,0-.65.08.08,0a.86.86,0,0,0,1-1,3.63,3.63,0,0,1-.1-.66l-.24.6,0,0-.82.21h0c1.06.18,1.52-1.45.45-1.62Z"/><path class="cls-1" d="M151.07,63.55c1.52,8,3.08,16,4.49,24q1,5.86,1.93,11.77a45.46,45.46,0,0,1,.8,6.25c0,2-.52,3.54,0,5.5.8,3.15,5.67,1.81,4.87-1.35-.48-1.89.24-4.25,0-6.24-.2-1.66-.46-3.32-.7-5-.61-4.11-1.29-8.21-2-12.3-1.41-8-3-16-4.49-24-.61-3.19-5.48-1.84-4.87,1.34Z"/><path class="cls-1" d="M158.85,113a1.64,1.64,0,0,1-.92-.63l.1.16c-.33-.74,0,.44,0,0s-.15.54,0,.09c0-.21,0-.2,0,0,.14-.31.15-.33,0-.08l4.71,1.27c0-.37-.08-.23-.25.42-.34.58-.38.74-.1.49a2.54,2.54,0,0,0,0-3.58,2.6,2.6,0,0,0-3.57,0,3.28,3.28,0,0,0-1.13,2.67,2.53,2.53,0,0,0,4.71,1.28,5.43,5.43,0,0,0,.52-3.89,4,4,0,0,0-2.69-3.08,2.53,2.53,0,0,0-1.34,4.87Z"/><path class="cls-1" d="M161.07,113.82a16.79,16.79,0,0,1-.64,3.29.84.84,0,0,0,1.63.44,18.86,18.86,0,0,0,.69-3.73c.1-1.08-1.59-1.07-1.68,0Z"/><path class="cls-1" d="M154.65,60.83c-.34-.7-.08.27-.16-.31,0-.23,0-.49,0-.74-.12-.77-.5-1.46-.6-2.25-.2-1.44-1.47-2.56-2.35-3.65-.68-.84-1.87.36-1.19,1.19.49.61,1.06,1.2,1.49,1.85a8.51,8.51,0,0,1,.67,2.2,16.12,16.12,0,0,0,.69,2.56c.48,1,1.93.11,1.45-.85Z"/><path class="cls-1" d="M150.53,53.74a22.83,22.83,0,0,0,2.13,4.43c.49,1,2,.11,1.45-.85l-1-1.87a10.81,10.81,0,0,1-1-2.15.84.84,0,0,0-1.62.44Z"/><path class="cls-5" d="M167.14,195.24a7.57,7.57,0,0,0-5.94.35,3.49,3.49,0,0,0-2,3.95c.47,1.71,2.12,2.92,3.58,3.74,1.1.61,2.78,1.55.75,2.09a4.62,4.62,0,0,1-3.86-.82c-1.56-1.14-3.06,1.46-1.51,2.59,2.46,1.79,9,2.3,9.55-1.85.26-2-1.33-3.43-2.92-4.35-.63-.37-2.78-1.29-2.69-2.2.15-1.54,3.47-.81,4.2-.6a1.51,1.51,0,0,0,.8-2.9Z"/><path class="cls-5" d="M52.46,190.86c-11.92-3.9-6.36,16.32-5.07,22,.42,1.88,3.32,1.08,2.89-.8a84.67,84.67,0,0,1-1.73-10.25c-.23-2.24-1.63-9.6,3.11-8.05,1.84.6,2.63-2.29.8-2.89Z"/><path class="cls-5" d="M41.81,204.52c3.53-.87,7.08-1.57,10.68-2.09,1.9-.28,1.09-3.17-.8-2.89q-5.38.78-10.68,2.09c-1.87.46-1.08,3.36.8,2.89Z"/><path class="cls-5" d="M77.34,209.35a63.68,63.68,0,0,1-.49-13.66l-2.8.76,6.2,9.05c1.54,2.24,2.9,4.57,5.31,6,.89.51,2.41-.12,2.26-1.3a87,87,0,0,1-.63-15.47c.09-1.93-2.91-1.93-3,0a87,87,0,0,0,.63,15.47l2.26-1.29c-2.49-1.44-4-4.57-5.62-6.9l-4.81-7a1.52,1.52,0,0,0-2.8.75,67.25,67.25,0,0,0,.6,14.46c.28,1.9,3.17,1.1,2.89-.8Z"/><path class="cls-5" d="M102.92,201.59,113.17,200c1.91-.3,1.1-3.19-.79-2.89l-10.25,1.61c-1.91.3-1.1,3.19.79,2.9Z"/><path class="cls-5" d="M105.68,193c.13,3.68-1.47,22.8,7.15,17,1.59-1.08.09-3.68-1.51-2.59-2.82,1.9-2.34-5.72-2.37-6.58l-.27-7.79c-.07-1.92-3.07-1.93-3,0Z"/><path class="cls-5" d="M117.13,199.32a46.13,46.13,0,0,1,.77,8.77,1.5,1.5,0,0,0,3,0,51.06,51.06,0,0,0-.87-9.56c-.36-1.9-3.25-1.1-2.9.79Z"/><path class="cls-5" d="M118.65,194.91a1.5,1.5,0,0,0,0-3,1.5,1.5,0,0,0,0,3Z"/><path class="cls-5" d="M127.31,209.18l1.75-13.63-2.79.75c1.86,2.5,2.9,6.81,5.88,8.19a1.59,1.59,0,0,0,1.82-.23c1.11-.9,1.72-2.56,2.43-3.77q1.83-3.12,3.64-6.25l-2.79-.76a155.54,155.54,0,0,1,.73,16.44,1.5,1.5,0,0,0,3,0,155.54,155.54,0,0,0-.73-16.44,1.52,1.52,0,0,0-2.8-.76q-1.5,2.61-3,5.22c-.74,1.27-1.42,3.26-2.57,4.2l1.82-.24c-1.37-.63-1.71-2.06-2.34-3.28a28.42,28.42,0,0,0-2.47-3.83,1.52,1.52,0,0,0-2.8.76l-1.75,13.63c-.24,1.91,2.76,1.89,3,0Z"/><path class="cls-5" d="M145.61,202a51.63,51.63,0,0,0,7.8-1.4,1.52,1.52,0,0,0,1.05-1,4.8,4.8,0,0,0-3.69-5.82c-2.9-.62-5.67,1.44-6.68,4.06s-.77,6.15,1.34,8.2c2.3,2.23,5.79,1.58,8.31.13a1.5,1.5,0,0,0-1.52-2.59c-1.16.67-2.66,1.28-4,.73s-1.77-2.29-1.7-3.69a4.2,4.2,0,0,1,2-3.63c1.35-.67,3.46,0,3,1.82l1.05-1a47.63,47.63,0,0,1-7,1.29c-1.9.2-1.92,3.21,0,3Z"/><path class="cls-5" d="M56.67,200.91c.23,3.18,1.32,10.54,5.71,10.52,1.73,0,2.72-1.31,3.25-2.81,1-2.89,1.49-6.11,2.21-9.08h-2.9L68,212c.45,1.88,3.35,1.08,2.89-.8l-3-12.48a1.52,1.52,0,0,0-2.9,0l-1,4.25c-.28,1.16-.44,3.55-1.1,4.54-1.1,1.63-1.92-1.13-2.28-2.17a17.72,17.72,0,0,1-.87-4.45c-.13-1.91-3.13-1.93-3,0Z"/><path class="cls-5" d="M57.74,197.59a1.5,1.5,0,0,0,0-3,1.5,1.5,0,0,0,0,3Z"/><path class="cls-5" d="M65.39,196.63a1.5,1.5,0,0,0,0-3,1.5,1.5,0,0,0,0,3Z"/></g></g></svg>