<?xml version="1.0" encoding="utf-8"?>
<!-- Generator: Adobe Illustrator 23.0.6, SVG Export Plug-In . SVG Version: 6.00 Build 0)  -->
<svg version="1.1" id="Layer_1" xmlns="http://www.w3.org/2000/svg" xmlns:xlink="http://www.w3.org/1999/xlink" x="0px" y="0px"
	 viewBox="0 0 208.2 213.9" style="enable-background:new 0 0 208.2 213.9;" xml:space="preserve">
<style type="text/css">
	.st0{fill:#DEE2D0;}
	.st1{fill:#4D4D4D;}
	.st2{fill:#626654;}
	.st3{fill:#BDC1AC;}
	.st4{opacity:0.3;}
	.st5{fill:#353535;}
</style>
<title>Asset 24</title>
<g id="Layer_1-2">
	<g id="Layer_2-2">
		<g id="Layer_1-2-2">
			<path class="st0" d="M122,64.3c0-2.9,0.1-5.9,0.4-8.8l-1.2,9c0.3-2.1,0.8-4.1,1.6-6.1l-3.4,8c0.6-1.3,1.3-2.6,2.1-3.7l-5.3,6.8
				c0.9-1.1,1.8-2.1,2.9-2.9l-6.8,5.2c1.2-0.9,2.4-1.6,3.8-2.2l-8,3.4c1.3-0.6,2.8-1,4.2-1.2l-9,1.2c1.4-0.2,2.7-0.2,4.1,0l-9-1.2
				c0.5,0.1,1,0.2,1.4,0.4l-8-3.4c0.4,0.2,0.9,0.5,1.2,0.8l-6.8-5.3c1.2,1,2.4,2.2,3.6,3.2c1.2,1,2.3,2.1,3.2,3.3L87.8,64
				c0.6,0.7,1.1,1.5,1.4,2.4l-3.4-8c0.3,0.8,0.6,1.7,0.7,2.6l-1.2-9c0.1,2.2,0.1,4.3-0.1,6.5c-0.1,1.1-0.1,2.2,0,3.2
				c0.3,3.5,0.7,6.9,1.4,10.3c0.1,0.5,0.2,1,0.4,1.6c1,4.3,3,8.2,6,11.4c2.3,3.7,5.6,6.7,9.4,8.7c3.7,2.4,8.1,3.8,12.5,4
				c4.5,1,9.1,0.8,13.4-0.6l8.1-3.4c5-2.9,9.2-7.1,12.1-12.1l3.4-8c1.6-5.9,1.6-12.1,0-17.9l-0.8-4.1c-1-4.3-3-8.2-6-11.5
				c-2.4-3.7-5.6-6.6-9.4-8.7c-3.7-2.4-8.1-3.8-12.5-4c-4.4-1-9.1-0.8-13.4,0.6l-8,3.4c-5,2.9-9.2,7.1-12.1,12.1l-3.4,8
				c-1.6,5.9-1.6,12.1,0,17.9l0.8,4.1l65-17.9c-0.3-0.7-0.4-1.5-0.5-2.2l1.2,9c-0.2-2.3-0.1-4.6,0.1-6.8c0.1-1.1,0-2.2-0.1-3.4
				c-0.3-3.1-0.8-6.4-1.3-9.5c0-0.3-0.1-0.5-0.2-0.8c-0.6-1.9-1.3-3.8-2.2-5.5c-0.7-1.8-1.4-3.6-2.3-5.3c-0.1-0.2-0.3-0.4-0.4-0.6
				c-1.8-2.5-3.7-4.9-5.6-7.3c-0.7-0.9-1.4-1.7-2.2-2.4c-3.6-3.5-7.5-6.6-11.6-9.5c-0.2-0.2-0.5-0.3-0.7-0.4
				c-1.4-0.7-3.5-1.5-4.3-1.9c0.5,0.2-2.9-1.3-4.3-1.8c-0.3-0.1-0.5-0.1-0.8-0.2c-1.6-0.3-3.6-0.5-4.8-0.7c-1.5-0.2-3.2-0.5-4.8-0.7
				c-1-0.1-2.1-0.1-3.1,0c-3.4,0.3-6.9,0.8-10.3,1.4c-0.5,0.1-1,0.2-1.5,0.4c-0.5,0.1-0.9,0.3-1.4,0.5c-1.5,0.6-3.1,1.3-4.6,1.9
				c-1.5,0.6-3.2,1.3-4.7,2c-0.9,0.4-1.8,0.9-2.6,1.5c-1.3,0.9-2.7,2-3.9,3s-2.6,2-3.9,3c-0.4,0.4-0.8,0.7-1.2,1.1
				c-0.4,0.3-0.7,0.7-1,1.1c-1.9,2.3-3.7,4.8-5.5,7.1c-0.2,0.2-0.4,0.5-0.6,0.8c-0.6,0.9-1.1,1.9-1.6,2.9c-1.2,2.9-2.5,5.8-3.7,8.7
				c-0.1,0.3-0.2,0.6-0.3,0.9c-0.2,0.6-0.4,1.3-0.5,1.9c-0.1,0.6-0.3,1.2-0.4,1.8c-0.6,3.5-1,7.1-1.4,10.7c-0.3,2.6-0.4,5.2-0.3,7.9
				c-0.2,4.5,0.8,9,2.9,13c1.4,4.2,3.8,7.9,7,10.8c2.9,3.2,6.7,5.7,10.9,7c4,2.1,8.5,3.1,13,2.9l9-1.2c5.6-1.6,10.7-4.6,14.8-8.7
				l5.3-6.8C120.4,76.2,122,70.4,122,64.3L122,64.3z"/>
			<path class="st0" d="M104.3,134.8c4.5,0.2,9-0.8,13-2.9c4.2-1.4,7.9-3.8,10.8-7c3.2-2.9,5.6-6.7,7-10.8c2.1-4,3.1-8.5,2.9-13
				l-1.2-9c-1.6-5.6-4.6-10.7-8.7-14.8l-6.8-5.3c-5.2-3-11-4.6-17-4.6c-4.5-0.2-9,0.8-13,2.9c-4.2,1.4-7.9,3.8-10.8,7
				c-3.2,3-5.6,6.7-7,10.8c-2.1,4-3.1,8.5-2.9,13l1.2,9c1.6,5.6,4.6,10.7,8.7,14.8l6.8,5.3C92.4,133.3,98.3,134.9,104.3,134.8
				L104.3,134.8z"/>
			<path class="st0" d="M141,97.8c0.6,8.6,0.3,17.3-1,25.8l0.3-2.2c-1.3,9.2-2.9,18.4-4.5,27.6l-0.3,2.2c-0.1,1.1,0.2,2.3,0.7,3.2
				c0.7,1.7,1.9,3.1,3.4,4c1.3,0.7,2.8,1.1,4.2,1.1c2.2,0,4.4-0.9,6-2.5c2.5-2.5,4.5-5.5,5.9-8.8c0.7-1.6,1.2-3.2,1.6-4.9
				c0.4-2,0.7-4,0.9-6c0.7-5.9,1-11.8,1.4-17.7l0.8-10.3l-15.7,4.2c0.2,0.4,0.4,0.9,0.6,1.4l-0.8-2c1,2.5,1.7,5,2.1,7.7l-0.3-2.2
				c0.4,2.7,0.4,5.5,0,8.2l0.3-2.2c-0.6,4.1-1.9,8-2.5,12.1h16.2v-0.2l0.3,2.2c-0.1-0.5-0.1-0.9,0-1.4l-0.3,2.2
				c0.1-0.5,0.2-0.9,0.4-1.4l-0.8,2c0.2-0.5,0.5-1,0.8-1.4l-1.3,1.7c0.3-0.4,0.6-0.7,1-1l-1.7,1.3l0.3-0.2L147.5,129
				c-1.8,3.6-2.7,7.5-2.6,11.5c0,3,1.6,5.7,4.2,7.3c2.6,1.5,5.9,1.5,8.5,0c1.1-0.6,2.1-1.5,2.8-2.5c0.5-0.6,0.9-1.3,1.2-2
				c0.2-0.4,0.4-0.9,0.5-1.4c0.6-2.2,0.2-4.5-0.8-6.5c-2.4-4-7.5-5.3-11.5-3c-1.9,1.1-3.2,2.9-3.9,5c-0.6,2-1.3,4-2.1,5.9l0.8-2
				c-0.2,0.7-0.6,1.3-0.9,1.9l1.3-1.7c-0.1,0.1-0.2,0.2-0.2,0.3l1.7-1.3l-0.2,0.1l2-0.9l-0.2,0.1l2.2-0.3h-0.2l2.2,0.3
				c-0.2,0-0.3-0.1-0.4-0.1l2,0.9c-0.3-0.1-0.5-0.3-0.7-0.5l1.7,1.3c-0.6-0.4-1.1-0.9-1.5-1.5l1.3,1.7c-1.5-2.2-3-4.4-4.7-6.4
				c-1.8-2-4.2-3.4-6.4-5.1l1.7,1.3c-0.4-0.3-0.8-0.7-1.1-1.1l1.3,1.7c-0.3-0.4-0.5-0.8-0.7-1.3l0.8,2c-0.2-0.6-0.4-1.2-0.5-1.8
				l0.3,2.2c-0.2-1.5-0.1-2.9,0.1-4.4l-0.3,2.2c0.2-1,0.3-2,0.4-3c0-0.5-0.1-1-0.2-1.5c0-1.2-0.4-2.3-1-3.3
				c-0.8-1.3-1.9-2.5-3.2-3.3c-1.7-1-3.8-1.4-5.8-1.1c-0.5,0-1,0.1-1.5,0.3c-0.7,0.3-1.5,0.6-2.2,0.9l-1.2,0.6
				c-0.8,0.4-1.6,0.7-2.3,1l2-0.9c-6.4,2.7-13.1,4.6-20,5.5l2.2-0.3c-2.1,0.4-4.2,0.6-6.3,0.5l2.2,0.3c-0.4-0.1-0.8-0.2-1.1-0.3
				l2,0.8c-0.2-0.1-0.3-0.2-0.5-0.3l1.7,1.3c-0.2-0.2-0.4-0.4-0.6-0.6l1.3,1.7c-0.1-0.2-0.2-0.3-0.3-0.5l0.8,2
				c-0.1-0.2-0.1-0.4-0.1-0.6l0.3,2.2v-0.2l-6.2,8.1h0.2l-2.2,0.3h0.7l-2.2-0.3c0.4,0.1,0.9,0.2,1.3,0.4l-2-0.9
				c2.1,0.9,4.1,2.2,6.4,2.7c2.4,0.5,4.8,0.6,7.2,0.4c1.7-0.2,3.5-0.5,5.2-0.6c1.8-0.1,3.7,0,5.5,0.2l-2.2-0.3
				c2.4,0.3,4.7,0.9,6.9,1.8l-2-0.9c0.6,0.3,1.2,0.6,1.8,1l-1.7-1.3c0.2,0.2,0.4,0.4,0.6,0.6l-1.3-1.7c0.4,0.5,0.7,1.1,1,1.6
				c0.4,0.7,0.9,1.4,1.5,2.1c0.9,1.1,1.8,2.1,2.6,3.2l-1.3-1.7c0.3,0.5,0.7,0.9,0.9,1.4l-0.8-2c0.1,0.3,0.2,0.7,0.3,1l-0.3-2.2
				c0,0.2,0,0.5,0,0.7l0.3-2.2v0.2c-0.3,1.1-0.4,2.3-0.2,3.4c0,1.1,0.4,2.2,1,3.1c2.4,4,7.5,5.3,11.5,3c1.7-1.1,3.5-2.9,3.9-5.1
				c0.4-2,0.4-4-0.1-5.9c-0.3-0.9-0.6-1.8-1.1-2.6c-0.1-0.3-0.3-0.6-0.4-0.8c-1.1-1.6-2.5-3-3.7-4.6l1.3,1.7c-0.7-0.9-1.1-2-1.8-2.9
				c-1.1-1.6-2.4-2.9-4-3.9c-0.4-0.3-0.9-0.5-1.4-0.7c-1.7-0.8-3.5-1.5-5.4-2c-1.9-0.5-3.8-0.8-5.8-1c-2.5-0.3-5.1-0.3-7.6,0
				c-2.4,0.4-4.9,0.6-7.4,0.4l2.2,0.3c-0.9-0.1-1.7-0.3-2.6-0.7l2,0.8c-1.2-0.5-2.3-1.2-3.6-1.7c-0.7-0.3-1.4-0.6-2.2-0.8
				c-1.8-0.4-3.7-0.4-5.5,0l-2,0.8c-1,0.5-1.8,1.3-2.4,2.2c-1.2,1.4-1.8,3.2-1.8,5.1c0,3.3,1.6,6.4,4.3,8.4c2.2,1.7,4.9,2.5,7.7,2.4
				c3.1-0.1,6.3-0.5,9.3-1.1c4.9-0.8,9.8-2,14.5-3.7c3.3-1.2,6.4-2.6,9.6-4l-2,0.9c0.1-0.1,0.3-0.1,0.4-0.1l-2.2,0.3h0.2l-2.2-0.3
				l0.2,0.1l-2-0.9l0.1,0.1l-1.7-1.3l0.1,0.1l-1.4-1.6l0.1,0.1l-0.8-2v0.2l-0.3-2.2c0,0.2,0,0.5,0,0.7l0.3-2.2
				c-0.3,1.8-0.5,3.7-0.6,5.5c0,1.8,0.2,3.6,0.8,5.3c0.7,2.3,2,4.4,3.8,6.1c1.4,1.2,3,2.2,4.5,3.3l-1.7-1.3c1.2,0.9,2.2,2,3.2,3.2
				l-1.3-1.7c0.5,0.6,0.9,1.3,1.3,1.9c0.8,1.2,1.6,2.3,2.5,3.4c0.4,0.6,0.9,1.1,1.5,1.5c0.8,0.7,1.6,1.3,2.4,1.8
				c0.8,0.4,1.6,0.8,2.4,1c1.2,0.3,2.4,0.3,3.6,0.1c2-0.2,3.8-1.1,5.2-2.5c0.7-0.7,1.3-1.5,1.7-2.3c0.7-1.4,1.2-2.8,1.8-4.3
				c0.7-1.7,1.3-3.4,1.8-5.2l-16.2-4.5c0,0.1,0,0.2-0.1,0.3l0.8-2l-0.1,0.2l1.3-1.7c-0.1,0.1-0.2,0.2-0.3,0.2l1.7-1.3l-0.2,0.1
				l12.7,7.3c0-0.9,0-1.8,0.1-2.7l-0.3,2.2c0.2-1.3,0.5-2.6,1.1-3.8l-0.9,1.9c0.1-0.2,0.2-0.4,0.3-0.7l0.8-2
				c0.3-1.1,0.4-2.3,0.2-3.4c0-0.7-0.2-1.5-0.6-2.1c-0.3-1-0.9-2-1.8-2.7c-1.1-1-2.3-1.7-3.7-2.2c-1.1-0.4-2.2-0.4-3.4-0.2
				c-1.1,0-2.2,0.4-3.1,1c-1.1,0.7-2.1,1.5-2.9,2.4c-0.9,0.9-1.6,2-2.2,3.2c-0.4,0.9-0.8,1.8-1.1,2.7c-0.3,1.3-0.4,2.6-0.5,3.9
				c0.1,1,0.2,2,0.4,3l0.8,2c0.5,1,1.2,1.8,2.2,2.4c1.4,1.2,3.2,1.8,5.1,1.8c1.5-0.1,2.9-0.4,4.2-1.1c1.8-1.2,3.2-3,3.9-5.1
				c0.4-2.6,1.1-5.1,1.7-7.7c0.8-3.2,1.3-6.5,1.4-9.8c0.1-6.4-1.3-12.7-4.1-18.4l-1.3-1.7c-0.7-0.8-1.7-1.4-2.7-1.8
				c-1.7-0.8-3.7-0.9-5.5-0.4c-1.4,0.4-2.6,1.2-3.7,2.2c-1.6,1.6-2.4,3.7-2.5,5.9l-1.1,14.7c-0.4,4.8-0.6,9.5-1.2,14.3l0.3-2.2
				c-0.3,2.3-0.8,4.5-1.7,6.6l0.8-2c-0.6,1.5-1.4,2.8-2.4,4.1l1.3-1.7c-0.5,0.7-1.1,1.3-1.7,2l14.1,8.2c1.2-7,2.4-13.9,3.5-20.9
				c1.3-7.6,2.2-15.3,2.6-22.9c0.2-3.9,0.1-7.9-0.3-11.8c0.1-1.1-0.2-2.2-0.7-3.2c-0.3-1-0.9-2-1.7-2.7c-3.3-3.3-8.6-3.3-11.9,0
				C141.9,93.5,141,95.6,141,97.8L141,97.8z"/>
			<path class="st0" d="M110.1,152.4c0.2,0,0.5,0,0.7,0.1l-2.2-0.3c1.2,0.2,2.3,0.5,3.4,1l-2-0.9c1.9,0.8,3.7,1.8,5.4,3l5.9,3.8
				l4.2-15.7c-3.2,0.2-6.2,1-9.1,2.4c-0.4,0.2-0.8,0.4-1.1,0.7c-0.8,0.6-1.6,1.2-2.3,1.9c-0.7,0.8-1.4,1.6-2,2.5
				c-0.2,0.3-0.4,0.7-0.6,1c-1,1.9-1.5,4-1.6,6.1c0,1.5,0.2,3,0.6,4.5c0.6,1.7,1.1,3.4,1.5,5.1l-0.3-2.2c0.2,1.5,0.3,3,0.6,4.5
				c0.3,1,0.6,2,1.1,2.9c0.5,0.9,1.1,1.8,1.8,2.5c0.2,0.3,0.5,0.5,0.7,0.7c0.7,0.7,1.5,1.3,2.4,1.8c1.2,0.7,2.4,1.2,3.7,1.5
				c4.9,1.1,9.8-0.1,14.4-1.9c4.3-1.7,8.8-3.6,12-7.2c2.6-3.1,5-6.5,7.1-10c2.5-3.9,4.6-8,6.3-12.3c0.4-1.1,0.4-2.3,0.1-3.4
				c0-1.1-0.4-2.2-1-3.1l-1.3-1.7c-0.7-0.8-1.7-1.4-2.7-1.7c-1.7-0.8-3.7-0.9-5.5-0.4c-2.1,0.6-3.9,2-5,3.9
				c-2.8,5.2-5.5,10.4-8,15.8l9.5-3.9c-1.6-0.4-3.3-0.7-5-0.8c-1-0.1-2-0.1-3,0c-1.7,0.1-3.3,0.4-4.9,0.8c-0.9,0.3-1.9,0.5-2.9,0.7
				l2.2-0.3c-0.4,0-0.8,0-1.2,0l2.2,0.3c-0.3-0.1-0.6-0.2-0.9-0.3l2,0.9c-0.2-0.1-0.3-0.2-0.5-0.3l1.7,1.3c-0.2-0.2-0.5-0.4-0.6-0.6
				l1.3,1.7c-0.2-0.3-0.3-0.5-0.4-0.8l0.9,2c-0.1-0.4-0.2-0.7-0.3-1.1l0.3,2.2c0-0.4,0-0.8,0-1.2l-0.3,2.2c0.1-0.5,0.2-1,0.4-1.5
				l-0.8,2c0.3-0.7,0.7-1.4,1.2-2l-1.3,1.7c2.6-3.2,6-5.8,9-8.7c3.4-3.3,6.2-7.2,8.1-11.6c1.9-4.4,3.4-8.9,4.4-13.6
				c1.3-5.1,2.3-10.4,3-15.7c0.3-2.6,0.3-5.3,0.1-7.9c-0.1-1.9-0.4-3.8-1-5.7c-0.4-1.1-1-2.2-1.7-3.2c-0.4-0.5-0.7-1-1-1.6l0.8,2
				c-0.2-0.4-0.3-0.9-0.4-1.3l0.3,2.2c0-0.4,0-0.8,0-1.1l-0.3,2.2c0-0.3,0.1-0.6,0.2-0.9h-16.2c1.2,6.6,2.6,13.1,4.1,19.7
				c1.2,4.5,5.9,7.1,10.4,5.9c0,0,0,0,0,0l0,0c2.1-0.6,3.9-2,5-3.9c1.1-2,1.4-4.3,0.9-6.5c-1.6-6.5-3-13.1-4.2-19.7l-0.8-2
				c-0.5-1-1.3-1.8-2.2-2.4c-1.4-1.2-3.2-1.8-5.1-1.8c-1.5,0.1-2.9,0.4-4.2,1.1c-1.9,1.1-3.3,2.9-3.9,5.1c-1.1,3.7-0.5,7.8,1.7,11
				c0.4,0.5,0.7,1.1,1,1.7l-0.9-2c0.3,0.9,0.5,1.8,0.6,2.8l-0.3-2.2c0.4,3.3,0.3,6.7-0.2,10l0.3-2.2c-0.7,4.2-1.5,8.4-2.6,12.5
				c-0.8,3.7-2,7.4-3.4,10.9l0.9-2c-1,2.4-2.3,4.7-3.8,6.7l1.3-1.7c-2.9,3.8-6.7,6.6-10.1,10c-1.3,1.3-2.5,2.7-3.5,4.2
				c-0.3,0.4-0.6,0.9-0.8,1.3c-0.6,1.1-1,2.3-1.3,3.5c-0.3,1.1-0.4,2.2-0.3,3.4c0,1.2,0.2,2.3,0.6,3.4c0.4,1.4,1.1,2.6,2,3.8
				c0.9,1.2,2,2.2,3.2,3c2.9,1.6,6.3,2,9.6,1.1c1.4-0.3,2.8-0.8,4.2-1l-2.2,0.3c1.4-0.2,2.8-0.2,4.2,0l-2.2-0.3
				c0.8,0.1,1.5,0.3,2.3,0.5l2.2,0.3c1.1,0.1,2.2-0.2,3.2-0.7c1.7-0.7,3.1-1.9,4-3.4c2.5-5.3,5.1-10.6,8-15.8l-15.3-6.5l-0.4,1
				l0.8-2c-1.3,3-2.9,5.9-4.7,8.7c-1.7,2.8-3.5,5.5-5.5,8.1l1.3-1.8c-0.7,0.9-1.5,1.7-2.4,2.4l1.7-1.3c-1.6,1.2-3.4,2.2-5.3,2.9
				l2-0.9c-2.6,1.2-5.4,2-8.2,2.5l2.2-0.3c-0.8,0.1-1.6,0.1-2.3,0l2.2,0.3c-0.6-0.1-1.1-0.2-1.6-0.4l2,0.9c-0.4-0.2-0.9-0.4-1.2-0.7
				l1.7,1.3c-0.3-0.2-0.6-0.5-0.9-0.8l1.3,1.7c-0.2-0.3-0.4-0.6-0.6-1l0.8,2c-0.1-0.4-0.2-0.8-0.3-1.2l0.3,2.2
				c-0.1-2.1-0.5-4.2-1-6.3c-0.5-1.3-0.9-2.6-1.2-4l0.3,2.2c-0.1-0.5-0.1-1.1,0-1.6l-0.3,2.2c0.1-0.4,0.2-0.8,0.3-1.2l-0.8,2
				c0.2-0.4,0.5-0.9,0.8-1.3l-1.3,1.7c0.4-0.4,0.8-0.8,1.2-1.2l-1.7,1.2c0.6-0.4,1.2-0.7,1.8-1l-2,0.9c1-0.4,2.1-0.7,3.2-0.8
				l-2.2,0.3l1-0.1l2.2-0.3c1.1-0.2,2.1-0.8,2.9-1.5c1.5-1.1,2.5-2.6,3-4.4c0.3-1.5,0.3-3,0-4.5c-0.6-2.1-2-3.9-3.9-5.1
				c-2.6-1.7-5.2-3.5-7.9-5.1c-1.8-1-3.6-1.9-5.6-2.7c-2-0.7-4-1.2-6.1-1.3c-2.2,0-4.4,0.9-6,2.5c-3.3,3.3-3.3,8.6,0,11.9
				c0,0,0,0,0,0l1.7,1.3C107,151.9,108.5,152.3,110.1,152.4L110.1,152.4z"/>
			<path class="st0" d="M53,65.4c0.4,6.4,0.2,12.9-0.6,19.3l0.3-2.2c-0.6,4.5-1.6,9-2.8,13.5c-1.2,4.3-2.2,8.8-2.9,13.2
				c-0.3,1.8-0.5,3.7-0.6,5.6c0,1.2,0.1,2.4,0.4,3.6c0.5,1.7,1.4,3.4,2.7,4.7c0.7,0.8,1.7,1.4,2.7,1.7c1,0.5,2.1,0.8,3.2,0.7
				c2.2,0,4.4-0.9,6-2.5c1.6-1.6,2.5-3.8,2.5-6l-0.3-2.2c-0.4-1.4-1.1-2.7-2.2-3.7l-0.1-0.2l1.3,1.7c-0.1-0.1-0.1-0.2-0.2-0.3l0.8,2
				c-0.1-0.3-0.2-0.5-0.2-0.8l0.3,2.2c-0.1-1.4,0-2.8,0.3-4.1l-0.3,2.2c0.8-6,2.7-11.8,4-17.6c1.6-6.7,2.5-13.5,2.8-20.3
				c0.1-3.5,0.1-7-0.2-10.5c0-2.2-0.9-4.4-2.5-6c-3.3-3.3-8.6-3.3-11.9,0c0,0,0,0,0,0C53.8,61,52.9,63.1,53,65.4L53,65.4z"/>
			<path class="st0" d="M79.3,32.7c0.2-0.6,0.4-1.2,0.6-1.8l-0.8,2c0.5-1.2,1.2-2.4,2-3.5l-1.3,1.7c1.2-1.5,2.7-2.8,4.2-3.9
				l-1.7,1.3c3.4-2.6,7.2-4.8,11.1-6.5l-2,0.9c2.9-1.2,6-2.2,9.1-2.9l2-0.9c1-0.5,1.8-1.2,2.4-2.1c1.2-1.4,1.8-3.3,1.8-5.1
				c-0.1-1.5-0.4-2.9-1.1-4.2c-1.1-1.9-2.9-3.3-5.1-3.9c-3.3-0.8-6.7-0.5-9.8,0.8c-1.1,0.2-2,0.8-2.8,1.5c-0.9,0.6-1.7,1.4-2.2,2.4
				c-2.3,4-1,9.2,3,11.6c2,1.1,4.3,1.4,6.5,0.8c3.8-1,7.7-1.8,11.6-2.3l-2.2,0.3c2-0.3,4.1-0.5,6.2-0.6c2.2,0,4.3-0.9,5.9-2.4
				c1.6-1.6,2.5-3.8,2.5-6c0-2.2-0.9-4.4-2.5-6c-1.6-1.6-3.7-2.5-6-2.5c-6.8,0.4-13.4,1.5-20,3.2l4.5,16.2c1-0.4,2-0.7,3-0.9
				l-2.2,0.3c0.5-0.1,1-0.1,1.5,0l-2.2-0.3c0.3,0,0.5,0.1,0.8,0.1V3.8c-5,1.1-9.9,2.9-14.5,5.3c-2,1-3.9,2.2-5.8,3.5
				c-2.5,1.6-4.9,3.5-7,5.7c-2.7,2.8-4.6,6.3-5.7,10c-0.5,2.2-0.2,4.5,0.9,6.5c2.4,4,7.5,5.4,11.5,3C77.4,36.5,78.8,34.7,79.3,32.7
				L79.3,32.7z"/>
			<path class="st0" d="M146.3,28c-0.5-0.4-0.9-0.9-1.3-1.4l1.3,1.7c-0.7-0.9-1.3-1.9-1.8-3l0.9,2c-0.1-0.3-0.2-0.6-0.3-0.9v4.5
				v-0.2l-0.9,2l0.1-0.1l-3,3l0.1-0.1l-2,0.8h0.1l-2.2,0.3h0.1l-4.2-1.1l0.1,0.1l8.5-14.5c-0.1-0.1-0.2-0.1-0.3-0.2l1.7,1.3
				c-0.2-0.2-0.5-0.4-0.7-0.6l1.3,1.7c-0.5-0.9-1-1.8-1.5-2.8c-1.1-1.6-2.2-3.1-3.5-4.5l1.3,1.7c-0.5-0.8-1-1.7-1.4-2.6
				c-1.1-2-2.8-3.6-4.8-4.7c-1.8-1.1-3.6-2.2-5.5-3.2c-4.2-2.5-8.8-4.3-13.6-5.3c-1.1-0.4-2.3-0.4-3.4-0.2c-1.1,0.1-2.2,0.4-3.1,1
				c-4,2.4-5.3,7.5-3,11.6c1.1,1.7,2.9,3.5,5,3.9c2.3,0.4,4.6,1.1,6.8,2.1l-2-0.9c2,0.9,3.9,1.8,5.8,2.9c1.9,1,3.7,2.1,5.4,3.3
				l-1.7-1.3c0.2,0.1,0.3,0.3,0.5,0.5l-1.3-1.6c0.6,0.8,0.9,1.8,1.5,2.7c1,1.4,2.1,2.6,3.1,3.9l-1.3-1.7c0.6,0.9,1.1,1.8,1.6,2.8
				c1,2.1,2.6,3.8,4.6,4.9c4,2.3,9.2,1,11.5-3c1.1-2,1.4-4.3,0.8-6.5l-0.8-2c-0.7-1.2-1.8-2.3-3-3c-0.3-0.3-0.7-0.4-1.1-0.5
				c-1-0.5-2.1-0.8-3.2-0.7c-4.9-0.1-8.8,3.8-8.9,8.7v0.2c0,0.8,0.1,1.7,0.3,2.5c0.3,1,0.8,2,1.2,3c0.4,0.8,0.8,1.5,1.3,2.2
				c0.8,1.2,1.8,2.4,2.8,3.5c1.6,1.6,3.8,2.4,6,2.5c4.7,0,8.4-3.8,8.4-8.5C148.7,31.8,147.8,29.6,146.3,28z"/>
			<path class="st0" d="M118.5,104.7c-0.1-1.9-0.1-3.8,0.2-5.6l-1.2,8.9c0.1-1.3,0.4-2.6,0.9-3.8l-3.4,8c0.1-0.3,0.3-0.6,0.5-0.8
				l-5.3,6.8c0.2-0.2,0.3-0.4,0.5-0.6l-6.8,5.3c0.2-0.2,0.5-0.3,0.7-0.4l-8,3.4c0.3-0.1,0.6-0.2,0.9-0.2l-9,1.2
				c4.4-0.3,8.7-0.8,13-1.7c0.7-0.1,1.4-0.3,2.1-0.6c1.7-0.6,3.4-1.4,4.9-2.1s3.3-1.3,4.9-2.1c2.4-1.2,4.4-3.2,6.9-4.3l-8,3.4
				c0.5-0.2,1-0.4,1.6-0.5l-9,1.2c0.5-0.1,0.9-0.1,1.4,0l-9-1.2c0.4,0.1,0.7,0.2,1.1,0.3l-8.1-3.3c0.6,0.2,1.1,0.6,1.6,0.9l-6.8-5.2
				c1.6,1.2,3,2.7,4.5,4l4.7,4.3l6.8,5.2l8,3.4l9,1.2c4.5,0.2,9-0.8,13-2.9c2.8-0.8,5.4-2.3,7.4-4.3c2.5-1.5,4.5-3.5,6-6
				c2.1-2.1,3.6-4.6,4.3-7.4c2.1-4,3.1-8.5,2.9-13c0.3-2.8,0.6-5.7,1-8.5l-1.2,9c0.2-1.5,0.5-2.9,1-4.3l-3.4,8
				c0.3-0.6,0.6-1.2,1-1.7l-5.3,6.8c0.3-0.4,0.6-0.7,1-1l-6.8,5.3c0.3-0.3,0.7-0.5,1.1-0.6L89.4,80v0.2l1.2-9
				c-0.1,0.5-0.2,1-0.4,1.4l3.4-8c-0.1,0.2-0.2,0.4-0.3,0.7c-2.4,3.7-3.8,8.1-4,12.5c-1,4.4-0.8,9.1,0.6,13.4c1,4.3,3,8.2,6,11.5
				c2.4,3.7,5.6,6.6,9.4,8.7l8.1,3.4c5.9,1.6,12,1.6,17.9,0l8-3.4c5-2.9,9.2-7.1,12.1-12.1c4.1-6.9,4.6-11.6,5.4-19.3
				c0-18.6-15.1-33.7-33.7-33.7c-6,0-11.9,1.6-17,4.6l0,0c-0.3,0.1-0.6,0.3-0.9,0.5l-0.2,0.2l-6.8,5.3c-0.1,0.1-0.3,0.2-0.4,0.3
				c-0.1,0.1-0.4,0.4-0.6,0.7L92,64.6c0,0.1-0.1,0.1-0.2,0.2l-0.2,0.4c-0.2,0.3-0.3,0.6-0.5,0.9c-1.2,2.6-2.4,5.6-3.5,8.3
				c-0.1,0.2-0.1,0.3-0.2,0.5c-0.2,0.6-0.4,1.3-0.6,1.9c-0.9,4.4-1.3,8.9-1.8,13.3l-0.7,6l57.5-23.8l-6.1-5.6
				c-5.9-5.4-12.2-10.8-20.3-12.6c-7-1.5-13.5-2-20.4,0.1c-3.2,1-6.4,2.3-9.4,3.9c-0.5,0.2-0.9,0.5-1.3,0.8
				c-1.9,1.4-3.8,2.6-5.9,3.7l8-3.4c-1.4,0.6-2.9,1-4.4,1.2l9-1.2c-0.7,0.1-1.4,0.1-2.2,0.2C81,60,77.2,60.8,70.3,64.5
				c-2.7,1.6-5.1,3.4-7.3,5.6c-0.1,0.1-0.2,0.2-0.3,0.3l-0.2,0.2l-5.3,6.8c-0.2,0.2-0.3,0.5-0.4,0.8c-1,1.9-2.7,6.2-3.5,8.2
				l-0.2,0.5c-0.2,0.6-0.3,1.2-0.4,1.8c-0.1,0.4-0.1,0.8-0.2,1.2c-0.5,3.3-1,6.6-1.3,9.9c-0.2,1.7-0.2,3.3-0.1,5
				c-0.2,4.5,0.8,9,2.9,13c1.4,4.2,3.8,7.9,7,10.8c2.9,3.2,6.7,5.6,10.8,7c4,2.1,8.5,3.1,13,2.9l9-1.2c5.6-1.6,10.7-4.5,14.9-8.7
				l5.3-6.8c3-5.2,4.6-11,4.6-17L118.5,104.7z"/>
			<path class="st0" d="M90.7,179l2.6,0.6v-16.2l-1,0.2c-2.1,0.6-3.9,2-5.1,3.9l-0.8,2c-0.4,1.1-0.4,2.3-0.2,3.4
				c0,0.7,0.2,1.5,0.6,2.1c0.3,1,0.9,2,1.7,2.7c1.6,1.5,3.8,2.4,6,2.5c2.4,0,4.7-0.6,6.8-1.7c0.5-0.2,0.9-0.5,1.3-0.8
				c1-0.7,1.9-1.4,2.8-2.2c1.2-1.3,2.2-2.7,3-4.3c0.5-1.1,0.9-2.2,1.3-3.4c0.3-1.3,0.5-2.7,0.6-4c0.1-2,0-4-0.4-6
				c-0.2-1.3-0.4-2.6-0.8-3.8c-0.3-1.2-0.7-2.4-1.2-3.6c-0.7-1.8-1.5-3.5-2.6-5.1c-1.8-2.6-3.9-5.1-6.3-7.2c-1.8-1.7-3.9-3-6.3-3.8
				c-2.3-0.7-4.8-0.8-7.1-0.1c-2.9,0.8-5.4,2.7-7,5.3c-0.9,1.7-1.5,3.5-1.8,5.4c-0.3,2-0.6,4-0.6,6c0,2.1,0.2,4.2,0.6,6.2
				c0.4,3.7,2,7.2,4.5,10c0.2,0.2,0.4,0.4,0.6,0.6c0.7,0.6,1.5,1.2,2.2,1.6c1.6,0.9,3.5,1.4,5.4,1.5c1.9,0,3.7-0.5,5.3-1.4
				c0.6-0.4,1.2-0.9,1.8-1.4c0.6-0.6,1-1.2,1.5-1.9c0.4-0.7,0.7-1.4,0.9-2.1c0.3-0.8,0.4-1.7,0.3-2.5c0-2.6-1.2-5.1-3.3-6.6
				c-0.8-0.7-1.8-1.3-2.9-1.5c-1.5-0.4-3-0.4-4.5,0c-2.6,0.9-5.1,2.4-7.1,4.3c-2,2-3.5,4.4-4.5,7c-0.1,0.4-0.3,0.7-0.4,1.1
				c-0.2,1-0.4,2.1-0.4,3.2c0,2.1,0.6,4.2,1.7,5.9c1.9,3.2,5.4,5.1,9.1,5.1c0.9,0,1.7-0.1,2.6-0.4c0.8-0.3,1.6-0.6,2.3-1l1.7-1.3
				l1.3-1.6l0.9-2.1c0.4-1.1,0.4-2.3,0.2-3.4c-0.2-1.5-0.8-2.8-1.7-4c-0.4-0.6-0.9-1.1-1.5-1.5c-0.8-0.7-1.8-1.2-2.8-1.5l-5.8-2.4
				l2,0.9c-0.4-0.2-0.8-0.4-1.2-0.7l1.7,1.3c-0.1-0.1-0.2-0.2-0.3-0.3l1.3,1.7c-0.1-0.2-0.2-0.4-0.3-0.6l0.9,2.1
				c-0.6-1.7-1.1-3.5-1.5-5.3c-0.4-1.8-0.8-3.6-1.1-5.5c-0.7-3.6-1.4-7.2-2.4-10.7c-1-3.8-2.5-7.5-4.4-11c-2-3.5-4.5-6.6-7.5-9.3
				c-2.9-2.6-6-4.9-8.4-7.9l1.3,1.7c-0.8-1.1-1.5-2.2-2.1-3.5l0.9,2c-0.2-0.6-0.4-1.1-0.6-1.7c-0.6-2.1-2-3.9-3.9-5l-2-0.8
				c-1.1-0.4-2.3-0.4-3.4-0.2c-0.7,0-1.5,0.2-2.1,0.6c-1,0.3-2,0.9-2.7,1.7l-1.3,1.7c-0.7,1.3-1.1,2.7-1.2,4.2
				c-0.9,10.2-0.4,20.5,1.3,30.7c0.4,2.3,0.8,4.6,1.3,6.9c0.6,2.6,1.4,5.1,2.5,7.5c1.1,2.4,2.6,4.6,4.5,6.4c2.1,1.9,4.5,3.4,7.1,4.6
				c5.7,2.9,11.7,5.3,18.2,5.4l2.2-0.3c1.1-0.2,2.1-0.8,2.9-1.5c0.6-0.4,1.1-0.9,1.5-1.5c0.7-0.8,1.2-1.8,1.5-2.9
				c0.3-1,0.5-2,0.5-3.1c0-1-0.1-2.1-0.4-3.1c-0.3-1-0.6-1.9-1.1-2.8c-0.2-0.3-0.3-0.7-0.6-1c-1.3-1.8-2.7-3.5-4.3-5.1
				c-2.2-2.4-4.5-4.8-6.5-7.4l1.3,1.7c-1.8-2.3-3.3-4.8-4.5-7.5l0.8,2c-0.8-1.9-1.4-3.9-1.7-5.9l0.4,2.3c-0.2-1.6-0.2-3.3,0-4.9
				l-0.3,2.2c0.2-1.2,0.5-2.4,0.9-3.6c0.4-1.1,0.4-2.3,0.1-3.4c0-1.1-0.4-2.2-1-3.1c-2.4-4-7.5-5.3-11.5-3l-1.7,1.3
				c-1,1-1.8,2.3-2.2,3.7c-0.4,1.1-0.7,2.3-0.9,3.5c-0.3,1.9-0.5,3.7-0.4,5.6c0.1,3.1,0.7,6.2,1.8,9.1c1.1,3,2.5,5.8,4.3,8.4
				c1.8,2.6,3.8,5.1,6,7.5c1.9,2.1,4,4.1,5.8,6.4l-1.3-1.7c0.4,0.5,0.7,1,1,1.6l-0.8-2c0.1,0.3,0.2,0.6,0.2,0.8l-0.3-2.2
				c0,0.3,0,0.6,0,0.8l0.3-2.2c0,0.2-0.1,0.4-0.2,0.6l8.1-6.2c-0.8,0-1.5-0.1-2.2-0.2l2.2,0.3c-2.6-0.4-5.1-1.1-7.5-2.2l2,0.8
				c-1.6-0.7-3.1-1.4-4.6-2.2c-1.5-0.7-2.9-1.6-4.3-2.5l1.7,1.3c-0.7-0.6-1.3-1.2-1.9-1.9l1.3,1.7c-0.8-1-1.5-2.2-2-3.4l0.8,2
				c-0.9-2.2-1.5-4.6-2-6.9c-0.6-2.8-1.1-5.6-1.4-8.4l0.3,2.2c-1.1-8.4-1.3-16.9-0.5-25.4l-16.5,2.2c1.6,4.9,4.4,9.2,8.3,12.5
				c3,2.8,6.3,5.2,8.8,8.4l-1.3-1.7c1.6,2.1,2.9,4.5,3.9,6.9l-0.8-2c1.7,4.4,3,9,3.8,13.7c0.5,2.5,1,5.1,1.5,7.6
				c0.3,1.3,0.6,2.5,0.9,3.8c0.2,0.6,0.3,1.1,0.5,1.7c0.5,1.7,1.5,3.3,2.7,4.7c0.7,0.7,1.4,1.3,2.2,1.8c0.3,0.2,0.6,0.3,0.9,0.5
				c1.2,0.6,2.5,1,3.8,1.6l4.2,1.7l-2-15.4l-0.2,0.1l2-0.9c-0.1,0-0.2,0.1-0.3,0.1l2.2-0.3c-0.2,0-0.4,0-0.5,0l2.2,0.3
				c-0.2,0-0.4-0.1-0.5-0.2l2,0.8c-0.2-0.1-0.3-0.2-0.5-0.3l1.7,1.3c-0.1-0.1-0.3-0.3-0.4-0.4l1.3,1.7c-0.2-0.2-0.3-0.4-0.4-0.6
				l0.9,2c-0.1-0.2-0.1-0.4-0.2-0.7l0.3,2.2c0-0.3,0-0.6,0-0.9l-0.3,2.2c0.1-0.5,0.2-1.1,0.4-1.6l-0.8,2c0.3-0.7,0.7-1.4,1.2-2.1
				l-1.3,1.7c0.6-0.7,1.3-1.4,2-1.9l-1.7,1.3c0.7-0.5,1.4-0.9,2.2-1.3l-2,0.9c0.1-0.1,0.3-0.1,0.4-0.1l-10.7-8.1v0.2l0.3-2.2v0.1
				l0.9-2l-0.1,0.1l1.2-1.7c-0.1,0.1-0.1,0.2-0.2,0.2l1.7-1.3c-0.1,0.1-0.2,0.1-0.3,0.1l2-0.9c-0.1,0-0.2,0.1-0.3,0.1l2.2-0.3
				c-0.2,0-0.3,0-0.5,0l2.2,0.3c-0.3-0.1-0.6-0.1-0.9-0.2l2,0.9c-0.3-0.1-0.5-0.3-0.8-0.4l1.8,1.3c-0.3-0.3-0.6-0.6-0.9-0.9l1.3,1.7
				c-0.4-0.5-0.8-1.1-1.1-1.8l0.8,2c-0.5-1.3-0.8-2.7-1-4.1l0.3,2.2c-0.3-2.4-0.3-4.8,0-7.2l-0.3,2.2c0.1-1.2,0.4-2.4,0.8-3.6
				l-0.8,2c0.1-0.3,0.3-0.5,0.4-0.7l-1.3,1.7c0.2-0.2,0.4-0.4,0.6-0.5l-1.7,1.3c0.2-0.1,0.4-0.3,0.7-0.4l-2,0.9
				c0.3-0.1,0.6-0.2,0.9-0.2l-2.2,0.3c0.4,0,0.8,0,1.2,0l-2.2-0.3c0.5,0.1,0.9,0.2,1.4,0.4l-2-0.9c0.6,0.3,1.1,0.6,1.6,1l-1.7-1.3
				c1.9,1.6,3.6,3.4,5,5.3l-1.3-1.7c0.9,1.2,1.7,2.5,2.2,3.9l-0.8-2c1,2.4,1.6,4.9,1.9,7.5l-0.3-2.2c0.2,1.4,0.2,2.9,0.1,4.3
				l0.3-2.2c-0.1,0.9-0.3,1.7-0.7,2.6l0.8-2c-0.3,0.7-0.7,1.3-1.1,1.9l1.3-1.7c-0.4,0.5-0.9,1-1.4,1.4l1.7-1.3
				c-0.5,0.4-1,0.7-1.5,0.9l2-0.9c-0.5,0.2-1,0.3-1.5,0.4l2.2-0.3c-0.3,0-0.7,0-1,0l2.2,16.7l1-0.3l2-0.9c1-0.5,1.8-1.2,2.4-2.2
				c1.2-1.5,1.8-3.3,1.8-5.2c-0.1-1.5-0.4-2.9-1.1-4.2c-1.1-1.9-2.9-3.3-5.1-3.9l-2.6-0.6c-2.2-0.6-4.5-0.3-6.5,0.8
				c-4,2.4-5.3,7.5-3,11.6C86.8,177,88.6,178.4,90.7,179L90.7,179z"/>
			<path class="st0" d="M150.1,79.6c-1.2,0.1-2.3,0.2-3.4,0.4c-0.4,0.1-0.9,0.1-1.3,0.3c-0.4,0.1-0.8,0.2-1.2,0.4
				c-1.1,0.4-2.1,0.9-3.1,1.4c-1.8,1.2-3.2,2.9-3.9,5c-0.3,1.1-0.4,2.3-0.1,3.4c0.1,1.1,0.4,2.2,1,3.1l1.3,1.7c1,1,2.3,1.8,3.7,2.2
				l2.2,0.3c1.5,0,3-0.4,4.2-1.1c0.3-0.2,0.7-0.3,1-0.5l-2,0.8c0.9-0.4,1.8-0.6,2.8-0.7l-2.2,0.3c0.4-0.1,0.7-0.1,1.1-0.1
				c2.2-0.1,4.4-1,6-2.5c0.8-0.7,1.4-1.7,1.7-2.7c0.5-1,0.8-2.1,0.7-3.2l-0.3-2.2c-0.4-1.4-1.1-2.7-2.2-3.7l-1.7-1.3
				C153.1,80,151.6,79.6,150.1,79.6L150.1,79.6z"/>
			<path class="st1" d="M95.2,47.4c2-1.5,4.3-2.5,6.8-2.8c1.3-0.2,2.7,0,4-0.3c1.3-0.3,2.6-0.4,3.9-0.2c0.6,0.1,1.3,0.3,1.9,0.5
				c0.6,0.2,1.2,0.4,1.8,0.6c0.5,0.3-0.3,0.7-0.6,0.8c-0.5,0.2-1.1,0.3-1.6,0.3c-1.2,0.3-2.5,0.7-3.7,1.1c-1.2,0.3-2.6,0.7-3.8,0.9
				c-1.5,0.4-3,0.5-4.5,0.4c-0.8-0.1-1.5-0.3-2.2-0.6c-0.4-0.2-1.4-0.6-1.5-1.1l-0.1,0.7c0.2-0.4,1.1-0.8,1.5-1.1
				c0.6-0.4,1.3-0.7,2-0.9c1.4-0.5,2.8-0.7,4.2-0.8c1.6-0.1,3.3,0,4.9,0.2c0.9,0.1,1.8,0.2,2.6,0.4c0.5,0.1,1.5,0.1,1.8,0.5l0.3-1.2
				c-1.2,0.6-2.6,0.7-3.9,1.1s-2.3,1-3.5,1.4c-1.2,0.3-2.5,0.5-3.8,0.4c-1.2,0-2.5,0.1-3.8,0c-0.2,0-0.5-0.1-0.7-0.1
				c-0.1-0.1-0.2-0.1-0.3,0l0.4-0.2c0.5-0.3,1-0.6,1.5-0.8c1.1-0.5,2.3-0.9,3.5-1.1c2.7-0.5,5.4,0.3,8,0.9v-1.6
				c-3.6,1.3-7.3,2.7-11.2,2.4c-0.2,0-0.4,0-0.7-0.1l-0.4-0.1l0.1,0.7c0.5-0.2,0.9-0.3,1.4-0.6c0.9-0.3,1.8-0.5,2.7-0.7
				c1.8-0.4,3.7-0.5,5.6-0.3l-0.6-1.4c-0.8,0.9-2,1.4-3.2,1.5c-1.6,0.2-3.2,0.3-4.8,0.5l0.5,1.6c0.9-0.6,1.9-0.9,3-1
				c1.1-0.1,1.1-1.8,0-1.7c-1.4,0.1-2.7,0.5-3.9,1.3c-0.7,0.4-0.4,1.7,0.4,1.6c1.8-0.2,3.6-0.3,5.4-0.6c1.5-0.1,2.8-0.8,3.8-1.9
				c0.3-0.3,0.3-0.9,0-1.2c0,0,0,0,0,0c-0.2-0.1-0.4-0.2-0.6-0.2c-2.4-0.2-4.8,0.1-7.1,0.6c-1.2,0.2-2.3,0.6-3.4,1.1
				c-0.8,0.4-1.4,1.5-0.5,2.2c0.4,0.2,0.9,0.4,1.4,0.4c0.6,0.1,1.2,0.1,1.8,0.1c1.2,0,2.4-0.1,3.6-0.3c2.4-0.5,4.8-1.2,7.1-2.1
				c0.7-0.3,0.9-1.4,0-1.6c-2.5-0.6-5-1.3-7.6-1.1c-2.4,0.3-4.6,1.1-6.7,2.3c-1,0.6-1.6,1.5-0.7,2.6c0.7,0.7,1.7,1,2.6,0.9
				c1.3,0,2.6,0,3.9,0c1.2,0,2.4-0.1,3.6-0.5c1.3-0.4,2.5-1.1,3.8-1.5c1.4-0.3,2.7-0.7,4-1.2c0.4-0.2,0.5-0.7,0.3-1.1
				c-0.6-0.7-1.5-1.2-2.4-1.2c-1.3-0.2-2.6-0.4-3.9-0.6c-2.4-0.3-4.9-0.2-7.3,0.2c-2.1,0.4-4.1,1.3-5.8,2.6
				c-0.4,0.3-0.8,0.6-0.8,1.1c0.1,0.5,0.3,1,0.7,1.3c0.8,0.7,1.8,1.2,2.8,1.5c2.3,0.5,4.8,0.5,7.1-0.2c1.2-0.2,2.3-0.5,3.5-0.8
				s2.2-0.9,3.3-1.1c1-0.1,2-0.3,2.9-0.8c1-0.5,1.4-1.6,1-2.6c-0.5-1-1.7-1.2-2.6-1.5c-1.1-0.4-2.3-0.7-3.5-0.8
				c-1.3-0.1-2.6,0.1-3.9,0.4c-1.3,0.2-2.7,0.1-4,0.3c-2.5,0.4-4.9,1.4-7,2.9c-0.8,0.6,0,2.1,0.9,1.5L95.2,47.4z"/>
			<path class="st1" d="M118.1,36.7c-0.2,0.3-0.4,0.6-0.5,1c-0.1,0.3-0.1,0.6,0,0.8c0.1,0.3,0.3,0.6,0.6,0.7
				c0.3,0.2,0.7,0.3,1.1,0.3c0.4,0.1,0.8,0.1,1.1,0c0.5-0.1,1-0.5,1.2-1c0-0.2,0.1-0.4,0.1-0.6c0-0.2,0-0.4,0-0.6
				c-0.1-0.5-0.5-0.9-1-1.1c-0.3-0.1-0.7-0.1-1-0.1c-0.4,0-0.8,0.2-1,0.5c-0.2,0.4-0.2,0.8,0,1.2c0.2,0.3,0.4,0.5,0.7,0.6
				c0.3,0.1,0.7,0.1,1-0.1c0.4-0.2,0.5-0.7,0.3-1.1c0,0,0,0,0,0c-0.1-0.2-0.3-0.3-0.5-0.4c-0.2,0-0.4,0-0.6,0.1l0,0l0.2-0.1h0.1h0.2
				h-0.1l0.2,0.1H120l0.2,0.1l-0.2-0.1l0.1,0.2l0-0.1l0.1,0.2c0,0,0-0.1,0-0.1v0.2c0,0,0,0,0-0.1v0.2c0,0,0-0.1,0-0.1l-0.1,0.2l0,0
				l-0.1,0.2v0l-0.2,0.1h0.1l-0.2,0.1h0.1h-0.2c0.2,0,0.4,0,0.6,0h-0.2c0.1,0,0.2,0,0.2,0.1l-0.1-0.1l0.2,0.1l-0.2-0.1l0.1,0.1
				l-0.1-0.2c0,0,0.1,0.1,0.1,0.2l-0.1-0.2c0,0.1,0,0.2,0,0.3v-0.2c0,0.2,0,0.4,0,0.6v-0.2c0,0,0,0.1,0,0.2l0.1-0.2l-0.1,0.1
				l0.1-0.2c0,0-0.1,0.1-0.1,0.1l0.2-0.1c-0.1,0.1-0.1,0.1-0.2,0.1l0.2-0.1c-0.1,0-0.2,0.1-0.4,0.1h0.2c-0.2,0-0.5,0-0.7,0h0.2
				c-0.2,0-0.4-0.1-0.5-0.1l0.2,0.1c-0.1,0-0.1,0-0.2-0.1l0.2,0.1l-0.1-0.1l0.1,0.2l-0.1-0.1l0.1,0.2c0,0,0-0.1,0-0.1v0.2
				c0-0.1,0-0.1,0-0.2v0.2c0-0.2,0.1-0.3,0.1-0.5l-0.1,0.2c0.1-0.2,0.2-0.3,0.3-0.5c0.2-0.4,0.1-0.9-0.3-1.1
				c-0.2-0.1-0.4-0.1-0.7-0.1C118.4,36.5,118.2,36.6,118.1,36.7L118.1,36.7z"/>
			<path class="st1" d="M86,37.7c-0.1,0.5-0.1,1-0.1,1.4c0,0.6,0.4,1.2,0.9,1.5c0.2,0.1,0.5,0.2,0.7,0.2c0.3,0.1,0.5,0.1,0.8,0.1
				c0.4,0,0.7-0.2,1-0.5c0.2-0.2,0.4-0.5,0.5-0.8c0.4-1,0-2.2-0.8-2.9c-0.5-0.4-1.1-0.6-1.8-0.6c-0.4,0.1-0.7,0.3-0.8,0.6
				c-0.2,0.3-0.2,0.7-0.1,1.1c0.1,0.6,0.2,1.4,0.8,1.8c0.5,0.3,1,0.2,1.4-0.2c0.3-0.3,0.5-0.7,0.5-1.1c0-0.5-0.4-0.8-0.8-0.8
				c-0.5,0-0.8,0.4-0.8,0.8v-0.1c0,0,0,0.1,0,0.1c0,0.1-0.1,0.1,0,0s0.1-0.1,0.1-0.1c0.1-0.1,0.1-0.1,0.2-0.1c0.1,0,0.1,0,0,0h0.4
				c-0.1,0-0.1,0,0.1,0c0.1,0,0.1,0.1,0.1,0l0.1,0.1c0-0.1,0-0.1,0,0.1c0-0.1,0-0.2-0.1-0.3c-0.1-0.2-0.1-0.5-0.2-0.8l0,0v0.2
				c0-0.1-0.1,0.1,0,0.1s0,0,0,0c0,0.1-0.1,0.1-0.1,0.1h0.1c-0.1,0-0.2,0.1-0.1,0h0.1h-0.2l0,0h0.2c0,0,0.2,0.1,0,0s0,0,0,0l0.1,0.1
				l0.1,0.1c0.1,0.1,0,0,0,0s0.2,0.1,0.2,0.2s0.1,0.1,0.1,0.1s-0.1-0.2,0,0l0.1,0.2c0,0,0.1,0.2,0,0s0,0,0,0c0,0.1,0.1,0.2,0.1,0.3
				v-0.2c0,0.2,0,0.3,0,0.5v-0.2c0,0.1,0,0.2-0.1,0.3v0.1l0-0.1c0,0,0,0.1-0.1,0.2c0,0-0.1,0.2,0,0s-0.1,0.1,0,0
				c0.1-0.1-0.2,0.1,0,0l0,0c-0.1,0-0.3,0-0.4-0.1v-0.1h-0.3c-0.1,0,0,0,0.1,0c-0.1,0-0.1,0-0.2-0.1l0.1,0.1L87.5,39
				c0.1,0.1,0.1,0.1,0,0s0,0,0,0.1c0-0.1,0-0.1,0-0.2v0.2c0-0.2,0-0.5,0-0.7l0.1-0.9c0.1-0.5-0.3-0.9-0.8-0.9
				c-0.5-0.1-0.9,0.3-0.9,0.8c0,0.1,0,0.1,0,0.2L86,37.7z"/>
			<path class="st2" d="M95.9,159.9c-0.8,0.7-1.3,1.6-1.5,2.6c-0.3,1-0.3,2.2,0,3.2c0.5,1.1,1.6,1.9,2.8,2.1c0.6,0.1,1.2,0,1.8-0.2
				c0.3-0.1,0.5-0.3,0.7-0.5c0.1-0.2,0.3-0.4,0.5-0.5l-1.2-1c-0.1,0.2-0.2,0.5-0.4,0.7c-0.2,0.4-0.1,0.9,0.3,1.1
				c1.1,0.5,2.1-0.2,2.8-1.1c0.6-0.8,1-1.7,1.1-2.7c0.1-1.9-1.1-3.7-2.9-4.3c-1.1-0.3-2.2-0.2-3.2,0.3c-1,0.5-1.2,1.7-1.3,2.7
				c-0.3,1.1-0.1,2.2,0.4,3.2c0.5,0.9,1.3,1.4,2.3,1.5c1.1,0,2.1-0.6,2.6-1.5c0.7-0.8,1.1-1.9,1-2.9c-0.4-1.8-3.7-3.6-4.8-1.4
				c-0.5,1-0.5,2.1-0.1,3.1c0.4,0.9,1.3,1.6,2.3,1.6c1.1,0,2-0.9,2-2c0-1.1-0.8-2.1-1.9-2.3c-0.6,0-1.1,0.3-1.4,0.8
				c-0.3,0.5-0.4,1.1-0.3,1.6c0.2,0.6,0.7,0.9,1.3,1c0.6,0.2,1.1,0.2,1.7,0.1c0.6-0.1,1.1-0.7,1-1.4c0-0.6-0.3-1.1-0.8-1.4
				c-0.9-0.6-2.6-0.2-2.3,1.1c0.1,0.6,0.7,1.1,1.3,1c0,0,0,0,0,0h0.1c0.5-0.1,0.8-0.5,0.7-1s-0.5-0.8-1-0.7c-0.1,0-0.1,0-0.2,0h0.4
				c0.4,0.4,0.4,0.7,0.1,0.9l0,0c-0.1,0,0,0,0,0c-0.1-0.1,0.1,0.1,0,0c0.1,0.1,0,0.1,0,0l0.3-0.3h-0.2c-0.1,0-0.2,0-0.3,0
				c-0.2,0-0.3-0.1-0.5-0.1l-0.2-0.1c-0.1,0-0.1,0-0.1,0l0.2,0.4c0,0,0.1-0.4,0.1-0.4s0.1-0.1,0.1-0.1c-0.1,0-0.1,0-0.2,0
				c0,0-0.1-0.1,0,0s0.1,0.1,0.1,0.2c0.1,0.1,0.2,0.3,0.2,0.5v0.2c0,0,0,0.1,0,0.1s0-0.1,0,0c-0.1,0.1-0.2,0.1-0.3,0.1
				c-0.1,0-0.3,0-0.4-0.1c-0.3-0.2-0.5-0.6-0.5-0.9c-0.1-0.5,0-0.9,0.2-1.3c-0.1,0.1,0.1,0,0,0c0.1,0,0.1,0,0.2,0
				c0.2,0.1,0.4,0.2,0.6,0.3c0.3,0.2,0.6,0.5,0.8,0.9c0,0.1,0,0.1,0,0.2c0,0.1-0.1,0.2-0.1,0.2c-0.1,0.3-0.3,0.5-0.4,0.8
				c-0.2,0.4-0.6,0.8-1,1.1c-0.3,0.2-0.7,0.1-0.9-0.1c-0.1-0.1-0.2-0.2-0.3-0.3c-0.1-0.2-0.2-0.4-0.3-0.6c-0.1-0.5-0.1-1.1,0-1.6
				c0.1-0.3,0.1-0.6,0.2-1c0-0.2,0.1-0.4,0.2-0.6c0.4-0.2,0.9-0.3,1.3-0.3c0.4,0,0.9,0.1,1.3,0.4c0.8,0.5,1.2,1.4,1.1,2.4
				c-0.1,0.5-0.3,1-0.6,1.4c-0.1,0.2-0.3,0.4-0.5,0.6c-0.1,0.1-0.2,0.2-0.3,0.2c-0.2,0.1-0.2,0,0,0.1l0.3,1.2
				c0.2-0.3,0.4-0.7,0.6-1.1c0.1-0.4-0.2-0.9-0.6-1c-0.2-0.1-0.4,0-0.6,0.1c-0.3,0.3-0.6,0.6-0.9,0.9c-0.2,0.2-0.5,0.3-0.8,0.2
				c-0.6-0.1-1.5-0.6-1.6-1.2c-0.1-0.7,0-1.5,0.2-2.2c0.2-0.7,0.5-1.3,1.1-1.7c0.3-0.3,0.3-0.9,0-1.2c0,0,0,0,0,0
				C96.7,159.6,96.2,159.6,95.9,159.9L95.9,159.9z"/>
			<path class="st2" d="M95.7,150.7c-0.1,0.5,0,1,0.2,1.4c0.5,0.8,1.6,1,2.4,0.4c0.2-0.1,0.3-0.3,0.4-0.4c0.3-0.5,0.3-1.1,0.1-1.6
				c-0.1-0.3-0.2-0.5-0.4-0.7c-0.2-0.2-0.5-0.4-0.7-0.5c-0.5-0.2-1-0.1-1.5,0.2c-0.4,0.3-0.7,0.6-0.9,1c-0.3,0.4-0.4,1-0.3,1.5
				c0,0.3,0.2,0.7,0.4,0.9c0.2,0.2,0.5,0.4,0.8,0.4c0.5,0.2,1.1,0.2,1.7-0.1c0.2-0.1,0.3-0.3,0.4-0.5c0.1-0.4-0.1-0.9-0.6-1
				c-0.2-0.1-0.5,0-0.7,0.1l-0.1,0.1l0.2-0.1c-0.1,0-0.1,0-0.2,0h0.2c-0.1,0-0.2,0-0.3,0h0.2c-0.2,0-0.4-0.1-0.7-0.2l0.2,0.1
				l-0.2-0.1l0.2,0.1c-0.1,0-0.1-0.1-0.1-0.1l0.1,0.2c0,0-0.1-0.1-0.1-0.1l0.1,0.2c0-0.1-0.1-0.2-0.1-0.2v0.2c0-0.1,0-0.2,0-0.3v0.2
				c0-0.1,0.1-0.3,0.1-0.4l-0.1,0.2c0.1-0.2,0.2-0.4,0.4-0.6l-0.1,0.2c0.1-0.1,0.2-0.2,0.3-0.3L97,151c0.1-0.1,0.2-0.1,0.2-0.1
				L97,151l0.2-0.1H97h0.2H97l0.2,0.1l-0.2-0.1c0.1,0,0.2,0.1,0.2,0.1l-0.2-0.1l0.2,0.2l-0.1-0.2c0.1,0.1,0.1,0.2,0.2,0.3l-0.1-0.2
				c0,0.1,0.1,0.2,0.1,0.4v-0.2c0,0.1,0,0.2,0,0.4v-0.2c0,0,0,0.1,0,0.1l0.1-0.2c0,0.1-0.1,0.1-0.1,0.1l0.1-0.2
				c0,0.1-0.1,0.1-0.1,0.1l0.2-0.1c-0.1,0-0.1,0.1-0.2,0.1l0.2-0.1c-0.1,0-0.2,0.1-0.2,0.1h0.2h-0.3h0.2c-0.1,0-0.1,0-0.2,0l0.2,0.1
				c-0.1,0-0.1-0.1-0.2-0.1l0.2,0.1c-0.1,0-0.1-0.1-0.2-0.1l0.1,0.2c0-0.1-0.1-0.1-0.1-0.2l0.1,0.2c0-0.1-0.1-0.2-0.1-0.3v0.1
				c0.1-0.4-0.1-0.9-0.6-1c-0.4-0.1-0.9,0.1-1,0.6l0,0L95.7,150.7z"/>
			<path class="st2" d="M89,155.3c-0.2,0-0.4,0-0.6,0c-0.1,0-0.2,0.1-0.3,0.1c-0.2,0.1-0.4,0.3-0.5,0.5c-0.2,0.3-0.3,0.7-0.3,1.1
				c-0.1,0.8,0.5,1.4,1.3,1.5c0.2,0,0.4,0,0.5-0.1c0.4-0.1,0.8-0.4,1-0.8c0.2-0.3,0.3-0.6,0.4-0.9c0.1-0.3,0.2-0.7,0.2-1
				c0-0.6-0.3-1.1-0.9-1.2c-0.9-0.2-1.8,0.3-2.1,1.2c-0.1,0.5,0.2,0.9,0.7,1c0.4,0.1,0.8-0.1,0.9-0.5c0,0,0-0.1,0-0.1l-0.1,0.2
				c0-0.1,0.1-0.1,0.1-0.2l-0.1,0.2l0.2-0.2l-0.2,0.1c0.1,0,0.1-0.1,0.2-0.1l-0.2,0.1l0.2-0.1h-0.2h0.2h-0.2h0.2l-0.2-0.1l0.1,0.1
				l-0.2-0.1c0,0,0.1,0,0.1,0.1l-0.1-0.2c0,0,0,0.1,0,0.1l-0.1-0.2v0.1v-0.2c0,0.1,0,0.1,0,0.2v-0.2c-0.1,0.3-0.2,0.6-0.3,0.9
				l0.1-0.2c-0.1,0.2-0.2,0.4-0.3,0.6l0.1-0.2c-0.1,0.1-0.1,0.1-0.2,0.2l0.2-0.1l-0.2,0.1l0.2-0.1c-0.1,0-0.1,0.1-0.2,0.1h0.2h-0.2
				h0.2v-0.1l0.2,0.1l-0.1-0.1l0.2,0.1l-0.1-0.1l0.1,0.2c0,0-0.1-0.1-0.1-0.1l0.1,0.2c0-0.1,0-0.1,0-0.2v0.2c0-0.1,0-0.2,0-0.2v0.2
				c0-0.2,0.1-0.3,0.1-0.5l-0.1,0.2c0-0.1,0.1-0.2,0.1-0.2l-0.1,0.2l0.1-0.1l-0.2,0.1l0.1-0.1l-0.2,0.1h0h-0.2h-0.2
				c0.2,0,0.5,0,0.7-0.1c0.2-0.1,0.3-0.3,0.4-0.5c0.1-0.2,0-0.5-0.1-0.6C89.4,155.5,89.2,155.3,89,155.3L89,155.3z"/>
			<path class="st2" d="M104.1,155c-0.4,0.2-0.6,0.7-0.7,1.1c0,0.3,0.1,0.7,0.2,1c0.1,0.3,0.3,0.5,0.5,0.6c0.3,0.2,0.6,0.4,0.9,0.5
				c0.4,0.1,0.8,0,1.2-0.2c0.2-0.1,0.3-0.3,0.4-0.5c0.2-0.4,0.2-0.8,0.1-1.2c-0.1-0.2-0.1-0.3-0.2-0.5c-0.2-0.2-0.3-0.5-0.5-0.7
				c-0.3-0.3-0.7-0.5-1.1-0.5c-0.5,0-1,0.4-1.2,0.9c0,0.2,0,0.4,0.1,0.6c0.1,0.2,0.3,0.3,0.5,0.4c0.2,0.1,0.5,0,0.7-0.1
				c0.2-0.1,0.3-0.3,0.4-0.5c0,0,0,0,0-0.1l-0.1,0.2v-0.1l-0.1,0.2h0.1l-0.2,0.1l0.1-0.1l-0.2,0.1h0.1h-0.2h0.1h-0.2h0.1l-0.2-0.1
				l0.1,0.1l-0.2-0.1c0.2,0.1,0.3,0.3,0.4,0.4l-0.1-0.2c0.1,0.1,0.2,0.3,0.2,0.4l-0.1-0.2c0,0.1,0.1,0.1,0.1,0.2v-0.2
				c0,0,0,0.1,0,0.1l0.1-0.2c0,0.1,0,0.1-0.1,0.1l0.1-0.2l-0.1,0.1l0.2-0.1l-0.1,0.1l0.2-0.1l-0.2,0.1h0.2h-0.2h0.2
				c-0.1,0-0.2,0-0.2-0.1l0.2,0.1c-0.1-0.1-0.2-0.1-0.3-0.2l0.2,0.1c-0.1-0.1-0.2-0.2-0.3-0.3l0.1,0.2c-0.1-0.1-0.1-0.2-0.2-0.3
				l0.1,0.2c0-0.1-0.1-0.2-0.1-0.3v0.2c0-0.1,0-0.1,0-0.2v0.2c0-0.1,0-0.1,0.1-0.2l-0.1,0.2l0.1-0.1l-0.1,0.2l0.1-0.1l-0.2,0.1h0.1
				c0.2-0.1,0.3-0.3,0.4-0.5c0.1-0.2,0-0.5-0.1-0.6c-0.2-0.4-0.7-0.5-1.1-0.3L104.1,155z"/>
			<path class="st2" d="M114.4,154.8c0.1,0.6,0.4,1.1,0.7,1.5c0.2,0.2,0.5,0.4,0.8,0.5c0.4,0.1,0.8,0,1.1-0.1c0.5-0.2,0.9-0.6,1.2-1
				c0.3-0.5,0.4-1.2,0.2-1.8c-0.1-0.6-0.5-1.1-1-1.5c-0.3-0.2-0.7-0.3-1.1-0.2c-0.3,0.1-0.6,0.2-0.9,0.5c-0.5,0.4-0.7,0.9-0.7,1.5
				c0.1,0.7,0.5,1.2,1.1,1.4c0.7,0.2,1.5-0.1,1.8-0.7c0.2-0.4,0.2-0.8,0.1-1.2c-0.2-0.4-0.5-0.7-0.9-0.8c-0.4-0.2-0.9,0-1.1,0.5
				c-0.2,0.4,0,0.9,0.5,1.1c0.1,0,0.1,0,0.2,0c0.1,0-0.2-0.1-0.1,0l-0.1-0.1l0,0l-0.1-0.1c0,0.1,0,0,0-0.1l0,0V154
				c0,0.1-0.1,0.2,0,0c-0.1,0.1,0.2-0.2,0,0s0,0,0.1,0h-0.1h0.1h-0.1h0.2c-0.1,0-0.1,0-0.2,0h0.2h-0.1c-0.1,0,0.2,0.1,0.1,0
				l-0.1-0.1l0,0l-0.1-0.1c-0.1-0.1,0.1,0.2,0.1,0.1v-0.1c0-0.1,0,0,0,0.1v0.1c0-0.1,0-0.1,0-0.2v0.2c0,0,0-0.1,0-0.2
				c0,0.1-0.1,0.2,0,0.1V154v-0.1l-0.1,0.1l0.1-0.1c0,0,0.1-0.1,0.1-0.1c-0.1,0.1-0.1,0.1-0.1,0.1l0.1-0.1l0,0c0.1,0,0.1,0-0.1,0
				h0.2h-0.2h0.2h-0.2h0.1c0.1,0-0.1,0-0.1,0l0.1,0.1c0,0-0.1-0.1-0.1,0l0.1,0.1c0.1,0.1-0.1-0.1,0-0.1c0,0.1,0.1,0.1,0.1,0.2
				c0,0.1,0,0,0-0.1c0,0,0,0.1,0,0.1c0,0.1,0,0.1,0.1,0.2c0,0.2,0.1,0.3,0.1,0.5v-0.2c0,0.1,0,0.2,0,0.3v-0.2c0,0,0,0.1,0,0.1
				c0,0,0,0.1,0,0l0,0v0.1c-0.1,0.1,0.1-0.1,0-0.1l-0.1,0.1l-0.2,0.1c-0.1,0.1,0.2-0.1,0.1,0l-0.1,0.1l-0.2,0.1
				c-0.1,0-0.1,0.1-0.2,0.1c0,0,0.2-0.1,0.1,0h-0.2h0.2h0.1h-0.2c0,0,0.2,0.1,0.1,0l-0.1-0.1c-0.1,0,0.1,0.1,0.1,0l-0.1-0.1l0,0
				c0.1,0.1,0,0,0,0c0-0.1-0.1-0.1-0.1-0.2c0-0.1,0,0,0,0.1s0-0.1,0-0.1c-0.1-0.1-0.1-0.3-0.1-0.4c-0.2-0.4-0.7-0.6-1.1-0.5
				c-0.4,0.1-0.6,0.5-0.5,0.9L114.4,154.8z"/>
			<path class="st2" d="M120.8,148.9c0.1,0.3,0.3,0.6,0.6,0.9c0.2,0.1,0.3,0.2,0.5,0.3c0.2,0.1,0.3,0.1,0.5,0.1h0.1
				c0.1,0,0.2,0,0.3,0c0.2,0,0.3-0.1,0.4-0.2c0.3-0.2,0.6-0.5,0.7-0.9c0.1-0.2,0.1-0.3,0.1-0.5v-0.1c0-0.1,0-0.2,0-0.3
				c0-0.1-0.1-0.2-0.1-0.3l-0.1-0.1c-0.1-0.1-0.2-0.3-0.3-0.4c-0.1-0.1-0.2-0.1-0.3-0.2l-0.3-0.1c-0.2-0.1-0.3-0.1-0.5-0.1
				c-0.2,0-0.3,0-0.5,0.1c-0.1,0-0.2,0-0.2,0.1l-0.2,0.1c-0.3,0.2-0.6,0.5-0.7,0.9C120.8,148.3,120.8,148.7,120.8,148.9
				c0.1,0.2,0.1,0.3,0.2,0.4c0.1,0.1,0.1,0.2,0.2,0.2c0.4,0.2,0.9,0.1,1.2-0.3c0.1-0.2,0.1-0.4,0.1-0.6c0-0.1,0-0.1,0-0.2v0.2
				c0-0.1,0-0.1,0-0.2v0.2c0-0.1,0-0.2,0.1-0.2l-0.1,0.2c0-0.1,0.1-0.1,0.1-0.2l-0.1,0.2l0.1-0.1l-0.2,0.1c0,0,0.1-0.1,0.2-0.1
				l-0.2,0.1c0.1,0,0.1,0,0.2-0.1h-0.2h0.2h-0.2c0.1,0,0.2,0,0.2,0.1l-0.2-0.1c0.1,0,0.1,0.1,0.2,0.1l-0.2-0.1
				c0.1,0,0.1,0.1,0.2,0.2l-0.1-0.2c0,0,0.1,0.1,0.1,0.1l-0.1-0.2c0,0.1,0,0.1,0,0.2v-0.2c0,0.1,0,0.1,0,0.2v-0.2
				c0,0.1,0,0.1-0.1,0.2l0.1-0.2c0,0.1-0.1,0.1-0.1,0.2l0.1-0.2c0,0.1-0.1,0.1-0.1,0.1l0.2-0.1c-0.1,0-0.1,0.1-0.2,0.1l0.2-0.1
				l-0.2,0.1h0.2h-0.2h0.2c-0.1,0-0.1,0-0.2-0.1l0.2,0.1c-0.1,0-0.1-0.1-0.2-0.1l0.2,0.1c-0.1,0-0.1-0.1-0.1-0.1l0.1,0.2
				c0-0.1-0.1-0.1-0.1-0.2l0.1,0.2c0,0,0-0.1,0-0.1c-0.1-0.2-0.2-0.4-0.4-0.5c-0.2-0.1-0.4-0.1-0.7-0.1c-0.2,0.1-0.4,0.2-0.5,0.4
				C120.9,148.4,120.9,148.7,120.8,148.9L120.8,148.9z"/>
			<path class="st2" d="M129.5,153.2c-0.2,0.4-0.3,0.7-0.3,1.1c-0.1,0.4,0,0.8,0.2,1.2c0.2,0.4,0.5,0.6,0.9,0.7
				c0.4,0.1,0.8,0.1,1.2-0.2c0.4-0.2,0.6-0.6,0.7-1c0.1-0.2,0.1-0.5,0-0.7c0-0.1-0.1-0.2-0.1-0.3c0,0,0-0.1-0.1-0.1
				c-0.1-0.2-0.3-0.4-0.5-0.5c-0.1-0.1-0.2-0.1-0.3-0.1c0,0-0.1,0-0.2-0.1c-0.4-0.1-0.9,0-1.3,0.2c-0.3,0.2-0.6,0.5-0.8,0.9
				c-0.4,0.5-0.4,1.1,0,1.6c0.3,0.3,0.8,0.3,1.2,0c0,0,0,0,0,0c0.2-0.2,0.3-0.4,0.2-0.6c0-0.2-0.1-0.4-0.2-0.6l0,0l0.1,0.2v-0.1
				l0.1,0.2 M130.3,155.1v0.2v-0.1v0.2c0,0,0-0.1,0-0.1l-0.1,0.2c0.1-0.1,0.1-0.2,0.2-0.4l-0.1,0.2c0.1-0.1,0.2-0.3,0.4-0.4
				l-0.2,0.1c0.1-0.1,0.2-0.1,0.3-0.2l-0.2,0.1c0.1,0,0.1,0,0.2-0.1h-0.2c0.1,0,0.1,0,0.2,0h-0.2c0.1,0,0.1,0,0.2,0.1l-0.2-0.1
				c0.1,0,0.1,0.1,0.2,0.1l-0.2-0.1l0.2,0.1l-0.1-0.2l0.1,0.1l-0.1-0.2c0,0.1,0,0.1,0,0.2v-0.2c0,0.1,0,0.1,0,0.2v-0.2l-0.1,0.2
				l0.1-0.2c0,0.1-0.1,0.1-0.1,0.2l0.1-0.2l-0.1,0.1l0.2-0.1l-0.1,0.1l0.2-0.1h-0.2h0.2h-0.2h0.2l-0.2-0.1l0.2,0.1l-0.1-0.1l0.2,0.1
				c0,0-0.1-0.1-0.1-0.1l0.1,0.2c0,0-0.1-0.1-0.1-0.1l0.1,0.2c0-0.1,0-0.1,0-0.2v0.2c0-0.2,0-0.5,0-0.7v0.2c0-0.2,0-0.3,0.1-0.5
				l-0.1,0.2c0,0,0-0.1,0.1-0.1c0.1-0.2,0.1-0.4,0.1-0.7c-0.1-0.2-0.2-0.4-0.4-0.5c-0.4-0.2-0.9-0.1-1.2,0.3L130.3,155.1z"/>
			<path class="st2" d="M124,158.1c-1.4,0-2.5,1.3-3.2,2.4c-0.7,1.1-1.1,2.5-1.1,3.8c-0.1,1.4,0.8,2.6,2.1,3.1
				c1.2,0.3,2.5,0.2,3.7-0.4c0.7-0.3,1.4-0.8,1.8-1.4c0.4-0.7,0.7-1.4,0.9-2.1l-1.7-0.2c0,0.4,0.1,0.9,0.3,1.3
				c0.1,0.4,0.6,0.7,1,0.6c0.4-0.1,0.6-0.4,0.6-0.8c0.1-0.8,0-1.6-0.2-2.3c-0.1-0.7-0.4-1.4-0.6-2.1c-0.5-1.3-2-2-3.3-1.5
				c-0.1,0-0.1,0-0.2,0.1c-0.6,0.4-1.1,0.8-1.6,1.3c-0.5,0.5-0.9,1-1.2,1.6c-0.7,1.3-0.6,2.9,0.3,4c0.9,1,2.5,1.1,3.6,0.3
				c1.1-0.9,1.6-2.3,1.6-3.7c0.2-0.7,0-1.4-0.4-1.9c-0.5-0.5-1.3-0.7-2-0.4c-1.3,0.6-2.2,1.7-2.4,3.1c-0.2,0.8,0.1,1.6,0.6,2.2
				c0.6,0.6,1.5,0.7,2.2,0.3c1.4-0.8,1.1-3,0.6-4.2c-0.1-0.5-0.6-0.7-1.1-0.6c-0.2,0.1-0.3,0.2-0.5,0.4c-0.6,0.9-1,2.1-0.1,3
				c1,0.7,2.3,0.6,3.2-0.1c0.3-0.2,0.5-0.6,0.4-1c-0.1-0.4-0.4-0.6-0.8-0.6c-0.9,0.1-1.7,0.3-2.5,0.6c-0.4,0.2-0.6,0.7-0.4,1.1
				c0.2,0.4,0.5,0.6,0.9,0.5c0.7-0.3,1.4-0.4,2.1-0.5l-0.4-1.5c-0.3,0.3-0.8,0.4-1.2,0.4c0,0,0,0.2,0,0v-0.1
				c0.1-0.3,0.2-0.5,0.4-0.7l-1.5-0.2c0.2,0.4,0.3,0.9,0.3,1.4c0.1,0.3,0,0.6-0.1,0.9c0,0.1,0.1,0-0.1,0.1s0,0,0,0s-0.1,0-0.2-0.1
				c-0.2-0.2-0.2-0.5-0.2-0.8c0.1-0.8,0.6-1.4,1.3-1.8c0.1,0,0.2-0.1,0.2,0s0-0.1,0,0s0,0.5,0,0.6c0,0.2,0,0.5-0.1,0.7
				c0,0.8-0.4,1.5-1,2c-0.4,0.3-1,0.2-1.3-0.2c0,0,0,0,0,0c0,0-0.1-0.1-0.1-0.1c-0.3-0.8-0.1-1.6,0.4-2.3c0.5-0.7,1.1-1.3,1.8-1.8
				c1.7-1.2,2.1,3.4,2.1,4.3l1.7-0.2c-0.1-0.3-0.2-0.5-0.2-0.8c0-0.4-0.3-0.8-0.7-0.8c-0.4-0.1-0.8,0.2-0.9,0.6
				c-0.1,0.6-0.3,1.2-0.7,1.7c-0.3,0.4-0.8,0.7-1.3,0.8c-0.8,0.2-2.3,0.6-2.9-0.2c-0.3-0.4-0.3-0.9-0.3-1.4c0.1-0.6,0.2-1.2,0.4-1.7
				c0.2-0.5,0.5-1,0.9-1.5c0.3-0.4,0.8-1,1.3-1C125.1,159.8,125.1,158.1,124,158.1L124,158.1z"/>
			<path class="st3" d="M128.4,7.3c0.6,0.1,1.3,0.1,1.9,0c0.4-0.1,0.9-0.3,1.3-0.5c0.5-0.2,1-0.6,1.4-0.8l-0.6,0.2
				c0.2-0.1,0.4-0.2,0.7-0.2l-0.7,0.1c0.2,0,0.3,0,0.5,0l-0.7-0.1c0.1,0,0.3,0.1,0.4,0.1L132,6c0.1,0.1,0.3,0.1,0.4,0.2l-0.5-0.4
				c0.2,0.1,0.3,0.3,0.4,0.5L132,5.7c0.2,0.2,0.3,0.5,0.5,0.7l-0.3-0.6c0,0.1,0.1,0.2,0.1,0.3l-0.1-0.7c0.1,0.5,0,0.9,0.1,1.4
				c0.1,0.7,0.2,1.4,0.3,2l4.6-2c-0.3-0.4-0.6-0.8-1-1.2c-0.4-0.3-0.8-0.7-1.2-0.9c-0.6-0.3-1.2-0.6-1.8-0.9
				c-0.6-0.3-1.3-0.4-1.9-0.2c-1.3,0.4-2.1,1.7-1.8,3.1c0.2,0.6,0.6,1.2,1.2,1.5c0.8,0.3,1.5,0.7,2.1,1.2L132.2,9
				c0.3,0.2,0.6,0.5,0.9,0.9l-0.4-0.5l0.1,0.1c0.3,0.6,0.9,1,1.5,1.2c0.5,0.1,1.1,0.1,1.6-0.1c0.5-0.2,0.9-0.5,1.2-1
				c0.3-0.6,0.4-1.3,0.3-1.9c-0.1-0.3-0.1-0.5-0.1-0.8l0.1,0.7c0-0.4-0.1-0.8-0.1-1.2c0-0.5,0-1.1-0.2-1.6c-0.2-0.5-0.4-0.9-0.7-1.3
				c-0.4-0.5-0.9-1-1.4-1.4c-1-0.7-2.4-0.9-3.5-0.5c-0.8,0.3-1.6,0.7-2.4,1.2l0.6-0.3c-0.2,0.1-0.4,0.2-0.7,0.2l0.7-0.1
				c-0.1,0-0.3,0-0.4,0l0.7,0.1h-0.1c-0.3-0.1-0.7-0.1-1,0c-0.3,0-0.7,0.1-0.9,0.3c-0.6,0.3-1,0.9-1.2,1.5c-0.2,0.7-0.1,1.4,0.2,2
				C127.2,6.7,127.8,7.1,128.4,7.3z"/>
			<path class="st3" d="M64.8,17.4v0.4h5.1c-0.2-1-0.2-2.1-0.1-3.1l-0.1,0.7c0.1-0.4,0.2-0.9,0.4-1.3l-0.3,0.6
				c0.1-0.3,0.3-0.6,0.5-0.8l-0.4,0.5c0.2-0.2,0.4-0.4,0.6-0.6l-0.5,0.4c0.2-0.1,0.4-0.3,0.6-0.4L69.9,14c0.3-0.1,0.7-0.2,1.1-0.3
				l-0.7,0.1c0.8-0.1,1.6-0.1,2.4,0L72,13.7l0.4,0.1l-0.6-4.6c-2.1,1.1-3.5,3-4.8,4.8c-0.3,0.6-0.4,1.3-0.3,1.9
				c0.4,1.3,1.8,2.1,3.1,1.8c0.6-0.2,1.2-0.6,1.5-1.2c0.3-0.4,0.6-0.8,0.9-1.2l-0.4,0.5c0.6-0.7,1.2-1.4,1.9-2l-0.5,0.4
				c0.3-0.3,0.7-0.5,1.1-0.7c1.2-0.7,1.6-2.3,0.9-3.5c-0.3-0.6-0.9-1-1.5-1.1c-2.5-0.5-5.7-0.3-7.4,1.8c-0.8,0.9-1.3,2.1-1.6,3.3
				c-0.1,0.7-0.2,1.5-0.1,2.2c0,0.5,0.1,1.1,0.2,1.6c0,0.7,0.3,1.3,0.7,1.8c1,1,2.6,1,3.6,0c0.5-0.5,0.7-1.1,0.7-1.8v-0.4
				c0-1.4-1.1-2.5-2.5-2.5C65.9,14.9,64.8,16,64.8,17.4z"/>
			<path d="M90.7,179.4c-13-1.4-28.4-3.3-36.6-14.8c-4.2-6-5.9-13.4-6.9-20.5c-1.2-8.4-2.1-17.1-1.3-25.5c0.8-8.4,3.1-16.5,5-24.7
				c0.9-4,1.7-8,2.2-12.1c0.6-4.4,0.6-8.8,0.8-13.2c0.1-4.4,0.6-8.8,1.5-13.1c0.9-4.2,2-8.3,3.1-12.5c1-4.2,2.3-8.2,4-12.2
				c1.4-3.1,3.1-6,5.1-8.7c4.2-5.6,9.5-10.2,15.5-13.5c3.3-1.8,6.9-3.2,10.5-4.2c2.1-0.6,4.2-0.9,6.3-1.3s4.4-0.8,6.6-1
				c4-0.4,8,0,11.8,1.1c1.9,0.5,3.7,1.3,5.5,2.2c1.7,0.9,3.2,2.2,5,3c1.8,0.8,3.4,1.8,4.9,2.9c1.4,1.2,2.8,2.5,4,3.9
				c2.3,2.6,4.3,5.5,6,8.6c7.3,13.5,8.1,28.9,10,43.8c0.9,7.8,2.3,15.5,4.3,23c1.8,6.3,2.6,12.8,3.7,19.2c0.6,4.4,0.9,8.8,0.8,13.2
				c0.1,4.3,0,8.7-0.4,13c-0.6,7.9-2.9,15.6-6.7,22.6c-1.8,3.3-4,6.3-6.5,9.1c-2.4,2.9-5.3,5.4-8.5,7.4c-1.9,1-4,1.7-6.1,2.2
				c-2.1,0.6-4.3,1.1-6.6,1.4c-3.9,0.5-8,0.2-11.5-1.9c-3-1.7-5-4.8-5.2-8.3c0-1.1-1.7-1.1-1.7,0c0.2,3.5,2,6.8,4.8,8.9
				c3.2,2.3,7.1,3.4,11.1,3.1c4.4-0.3,8.7-1.2,12.8-2.8c3.8-1.3,7-3.9,9.8-6.7c5.4-5.4,9.7-12,12.4-19.2c3-8,3.8-16.7,3.8-25.2
				c0-4.5,0-9-0.4-13.5c-0.3-3.6-1.1-7.2-1.7-10.8c-0.6-3.4-1.1-6.8-1.9-10.2c-1-3.9-2.1-7.8-2.9-11.7c-3.1-15.6-2.9-31.8-7.7-47
				c-2.1-7.1-5.6-13.6-10.3-19.3c-2.4-3-5.4-5.4-8.8-7.1c-1.8-0.9-3.5-1.9-5.2-3c-1.7-1-3.6-1.8-5.5-2.5c-3.9-1.3-8-1.8-12.1-1.6
				c-2.2,0.1-4.4,0.4-6.6,0.8c-2.1,0.4-4.3,0.8-6.4,1.2c-7.4,1.7-14.3,5.2-20.2,10C69,16.8,64.5,22.5,61.4,29
				c-1.7,3.9-3.1,7.9-4.2,12c-1.2,4.2-2.3,8.5-3.3,12.8c-1,4.4-1.6,8.8-1.8,13.3c-0.2,4.5-0.2,9.1-0.7,13.6c-1,8.6-3.5,17-5.3,25.5
				c-0.9,4.2-1.6,8.4-2.1,12.6c-0.4,4.6-0.4,9.2,0,13.7c0.3,4.2,0.8,8.5,1.5,12.7c0.5,3.8,1.4,7.5,2.6,11.1
				c2.1,6.9,6.6,12.9,12.7,16.8c5.9,3.7,12.8,5.5,19.6,6.6c3.4,0.6,6.8,1,10.2,1.3C91.8,181.2,91.7,179.5,90.7,179.4z"/>
			<path d="M88.7,150.3c2.2-3.9,6.7-6.8,11.3-5.6c1.2,0.4,2.3,0.9,3.3,1.5c1,0.6,1.9,1.3,2.7,2.1c1.6,1.6,2.2,3.9,2.7,6.2
				c1.1,5,1,10.2-0.2,15.2c-0.3,1.2-0.7,2.3-1.2,3.4c-0.6,1-1.4,1.9-2.3,2.6c-1.8,1.5-3.9,2.8-6.1,3.7c-2.2,1-4.8,1-7,0
				c-2.3-1.2-3.1-3.6-3.8-5.9c-0.3-1-1.9-0.6-1.6,0.4c0.7,2.4,1.6,4.8,3.6,6.3c1.9,1.3,4.3,1.9,6.7,1.5c2.6-0.5,5.1-1.6,7.3-3.2
				c2.2-1.5,4.2-3.2,5.2-5.8c2.2-5.3,2.2-11.4,1.3-16.9c-0.4-2.6-0.9-5.4-2.5-7.6c-1.6-2.1-3.8-3.7-6.2-4.6
				c-2.8-1.2-5.9-1.1-8.7,0.2c-2.5,1.2-4.6,3.2-6,5.7c-0.2,0.4-0.1,0.9,0.3,1.2C88,150.9,88.5,150.8,88.7,150.3L88.7,150.3z"/>
			<path d="M82.5,147.7c2.5-3.3,6.2-5.3,10.3-5.5c4-0.3,8.7-0.3,12,2.4c1.6,1.2,2.6,3.1,2.9,5.1c0.1,1.1,1.8,1.1,1.7,0
				c-0.3-4.4-4-7.6-8.1-8.7c-2.4-0.6-5-0.8-7.5-0.6c-2.4,0.1-4.8,0.6-7,1.6c-2.3,1.1-4.2,2.7-5.7,4.8
				C80.4,147.7,81.9,148.6,82.5,147.7L82.5,147.7z"/>
			<path d="M140,150.4c-0.7-2.8-1.9-5.5-3.4-8c-1.8-2.6-4.5-4.3-7.6-4.9c-1.7-0.5-3.5-0.7-5.3-0.6c-1.6,0.2-3.2,0.8-4.6,1.7
				c-2.6,1.5-4.8,3.6-6.6,6c-2,2.7-3.1,5.9-3.3,9.2c0,1.1,1.6,1.1,1.7,0c0.2-5.4,3.6-10.1,8-13.1c1.1-0.8,2.4-1.5,3.8-1.9
				c1.6-0.4,3.2-0.4,4.8,0c2.9,0.5,5.5,1.5,7.3,3.8c1.8,2.4,2.7,5.3,3.6,8.1c0.1,0.4,0.6,0.7,1,0.6
				C139.9,151.2,140.2,150.8,140,150.4L140,150.4L140,150.4z"/>
			<path d="M113.8,146.7c4.6-4.3,11.8-4.1,16.1,0.5c0,0,0,0,0,0c0.5,0.5,0.9,1.1,1.3,1.7c0.6,0.9,2,0.1,1.4-0.8
				c-3.9-6.1-11.9-8-18.1-4.1c-0.7,0.5-1.4,1-2,1.6C111.9,146.2,113,147.4,113.8,146.7z"/>
			<path d="M134.4,169.9c-0.5,3.6-2.7,6.7-6,8.3c-0.4,0.3-0.5,0.8-0.2,1.2c0.2,0.3,0.7,0.5,1.1,0.3l0,0c3.6-1.8,6.1-5.3,6.7-9.3
				c0.1-0.4-0.2-0.9-0.6-1C134.9,169.2,134.5,169.5,134.4,169.9L134.4,169.9z"/>
			<path d="M126.7,5.1c1.5-2.8,4.9-4.1,7.9-3c0.7,0.3,1.3,0.8,1.7,1.5c0.4,0.8,0.5,1.7,0.4,2.5c0,1.5,0,3.3-1.2,4.4
				c-0.8,0.7,0.4,1.9,1.2,1.2c1.1-1.2,1.7-2.7,1.7-4.3c0.1-1.6,0.1-3.5-0.8-4.9c-1.8-2.9-5.8-3-8.6-1.7c-1.6,0.7-2.9,1.9-3.8,3.5
				C124.8,5.2,126.2,6,126.7,5.1L126.7,5.1z"/>
			<path d="M67,20.4c-0.9-1.6-1.5-3.4-1.6-5.3c0-1.6,0.7-3.2,1.8-4.3c2.2-2.4,6.6-2.7,8.2,0.6c0.5,1,1.9,0.1,1.5-0.8
				c-0.9-1.8-2.6-3-4.6-3.3c-2.2-0.2-4.3,0.5-5.9,2c-1.5,1.4-2.3,3.3-2.5,5.3c0,2.3,0.6,4.6,1.8,6.6C66.1,22.2,67.6,21.3,67,20.4
				L67,20.4z"/>
			<path d="M85.7,41.4c0.8,0.5,1.7,0.7,2.6,0.5c0.4-0.1,0.8-0.2,1.2-0.4c0.4-0.2,0.8-0.5,1.1-0.8c0.4-0.7,0.6-1.6,0.5-2.5
				c0-0.9-0.4-1.7-1-2.2c-0.8-0.5-1.7-0.7-2.6-0.7c-0.6-0.1-1.2,0.1-1.8,0.4c-0.9,0.6-1.4,1.6-1.4,2.7
				C84.2,39.6,84.8,40.7,85.7,41.4c0.4,0.2,0.9,0,1.1-0.3c0.2-0.4,0.1-0.9-0.3-1.1l-0.1-0.1c-0.1-0.1,0.1,0.1,0,0s-0.1-0.1-0.2-0.2
				l-0.1-0.1c0,0,0.1,0.2,0,0.1l-0.1-0.2c0-0.1-0.1-0.1-0.1-0.1v0.1v-0.1c0-0.1,0-0.2-0.1-0.2c0-0.1,0-0.2-0.1-0.2c0-0.1,0,0,0,0
				v-0.1c0-0.2,0-0.4,0-0.6c0-0.2,0,0.2,0-0.1c0-0.1,0-0.2,0.1-0.3c0-0.1,0.1-0.2,0.1-0.3s0,0,0,0.1l0.1-0.1l0.1-0.2
				c0,0,0-0.1,0.1-0.1c0,0-0.1,0.1,0,0c0.1-0.1,0.2-0.2,0.2-0.2c0,0-0.2,0.1-0.1,0l0.1-0.1l0.1,0c0.1-0.1,0,0,0,0l0.3-0.1
				c0.1,0,0.1,0,0,0h1.4c0.3,0-0.1,0,0.1,0l0.3,0.1c0,0,0.3,0.1,0.1,0c0,0,0.1,0,0.1,0.1c0.2,0.1-0.1-0.1,0.1,0l0.1,0.1
				c0,0-0.1-0.2,0,0l0.1,0.2c0.1,0.2,0-0.1,0,0.1c0,0.1,0.1,0.3,0.1,0.4V39c0,0,0,0.3,0,0.1c0,0.1,0,0.2,0,0.2s0-0.1,0,0.1v0.1l0,0
				l-0.2,0.1c-0.3,0.2-0.5,0.3-0.8,0.4l-0.2,0c0,0-0.3,0.1-0.2,0h-0.4c-0.3-0.1-0.6-0.2-0.9-0.3c-0.4-0.2-0.9,0-1.1,0.4
				c-0.2,0.4,0,0.8,0.3,1L85.7,41.4z"/>
			<path d="M116.1,37.9c-0.1,0.4-0.1,0.8,0,1.1c0.1,0.5,0.5,0.8,0.9,1.1c0.6,0.5,1.3,0.8,2,1c1.5,0.3,3-0.4,3.7-1.8
				c0.3-0.7,0.4-1.4,0.3-2.1c-0.2-0.7-0.6-1.4-1.2-1.8c-0.6-0.4-1.4-0.6-2.1-0.6c-0.6-0.1-1.3,0-1.9,0.2
				C116.7,35.7,116.2,36.8,116.1,37.9c-0.1,0.5,0.2,0.9,0.6,1.1c0.4,0.1,0.9-0.1,1.1-0.6l0,0c0-0.3,0.1-0.7,0.2-1l0.1-0.3
				c0,0,0-0.1,0-0.1c0,0-0.1,0.2,0,0c0-0.1,0.1-0.1,0.1-0.2l0.1-0.1c0-0.1-0.1,0.1,0,0l0.2-0.2c0,0-0.2,0.1,0,0h0.1c0.1-0.1,0,0,0,0
				l0.1,0h1.2c0.2,0,0.3,0.1,0.4,0.1l0.2,0.1l0,0l0.3,0.1l0.2,0.1c0.1,0.1-0.1-0.1,0,0c0,0,0,0.1,0.1,0.1c0.1,0,0.2,0.2,0.1,0.1
				c0,0.1,0.1,0.2,0.2,0.3l0,0c0,0,0,0.1,0,0.2s0,0.2,0,0.1s0,0.1,0,0.1v0.2c0,0.2,0-0.1,0,0.1c0,0.1,0,0.2-0.1,0.3c0,0.1,0,0.1,0,0
				l-0.1,0.2c-0.1,0.1-0.1,0.2-0.2,0.3l0,0l-0.2,0.2c-0.3,0.3-0.6,0.5-1,0.6h-0.2l-0.4-0.1c-0.1,0-0.2-0.1-0.3-0.1l-0.4-0.2
				c-0.1-0.1-0.3-0.1-0.4-0.2l-0.2-0.1l0,0l-0.1-0.1c-0.1,0,0,0,0,0v0l0,0v-0.2c0-0.1,0-0.2,0-0.1c0.1-0.4-0.2-0.9-0.6-1
				C116.6,37.1,116.2,37.4,116.1,37.9C116.1,37.9,116.1,37.9,116.1,37.9z"/>
			<path d="M86.1,48.3C83.3,52,81,56.4,81,61.1c-0.2,4.2,1.8,8.2,5.1,10.7c0.9,0.6,1.7-0.8,0.8-1.4c-3.1-2.1-4.4-6-4.3-9.6
				c0.2-4.3,2.3-8.2,4.9-11.5C88.2,48.3,86.7,47.5,86.1,48.3z"/>
			<path d="M105.9,69.5c1.7-0.2,3.4-0.8,5-1.6c1.4-0.8,3-1.7,3.5-3.4c0.3-1-1.3-1.5-1.6-0.4c-0.3,1.2-1.8,1.9-2.8,2.4
				c-1.3,0.6-2.7,1.1-4.1,1.3c-0.5,0-0.8,0.4-0.8,0.8C105,69,105.4,69.5,105.9,69.5L105.9,69.5z"/>
			<path d="M94.6,44.1c-1.4,1.1-2.2,2.7-1.3,4.4s2.6,2.2,4.2,2.5c4,0.6,8.1,0.4,12-0.6c1-0.3,2-0.6,3-0.9c0.9-0.2,1.7-0.6,2.5-1.1
				c1.3-0.8,2.2-2.5,1.5-4.1s-2.9-2-4.4-2.3c-1.9-0.4-3.9-0.6-5.8-0.6c-4.1-0.1-8.2,0-11.6,2.6c-0.9,0.6,0,2.1,0.8,1.5
				c2.3-1.6,5.1-2.5,8-2.3c3.1-0.2,6.3,0.1,9.4,0.9c1.1,0.3,2.9,0.9,1.9,2.4c-0.8,1.1-2.7,1.5-4,1.8c-3.2,1-6.5,1.5-9.8,1.4
				c-1.8,0.1-3.5-0.2-5.2-0.9c-0.7-0.3-1.1-0.9-1.3-1.6c-0.1-0.8,0.6-1.4,1.2-1.8C96.6,44.6,95.4,43.4,94.6,44.1z"/>
			<path d="M133,140c3.2-0.4,5.9,1.4,8,3.5c0.3,0.3,0.9,0.3,1.2,0s0.3-0.9,0-1.2l0,0c-2.4-2.4-5.6-4.5-9.2-4c-0.5,0-0.8,0.4-0.8,0.9
				C132.1,139.7,132.5,140,133,140z"/>
			<path d="M70.7,140.6c4.9-0.3,10.3-0.6,14.5,2.5c0.9,0.6,1.7-0.8,0.8-1.5c-4.4-3.3-10.1-3.1-15.3-2.7
				C69.6,139,69.6,140.7,70.7,140.6z"/>
			<path d="M52.4,95.2c-1.7,13.6,3.3,28.1,13.4,37.4c1.3,1.3,2.8,2.3,4.5,3.1c1.7,0.7,3.5,1.2,5.3,1.5c1.9,0.3,3.8,0.4,5.7,0.4
				c1.9,0,3.6-0.8,5-2.1c5-4.3,7-11.1,5.2-17.4c-0.7-2.2-1.6-4.4-2.6-6.6l-2.8-6.7l-5.5-13.4c-0.4-1-2-0.6-1.6,0.4l9.3,22.5
				c0.8,1.7,1.4,3.5,1.9,5.3c0.3,1.5,0.4,3,0.2,4.5c-0.3,3-1.5,5.9-3.4,8.2c-0.9,1.2-2.1,2.2-3.4,3c-1.6,0.8-3.7,0.5-5.5,0.3
				c-3.6-0.3-7.1-1.1-10-3.4c-5-4.3-8.8-9.7-11.1-15.8c-2.7-6.8-3.7-14.1-2.8-21.3C54.3,94.1,52.6,94.1,52.4,95.2L52.4,95.2z"/>
			<path d="M75.7,130.6c0,0.9,0.3,1.8,0.8,2.5c1.2,1.9,3.2,3.2,5.4,3.5c0.4,0.1,0.9-0.2,1-0.6c0.1-0.4-0.1-0.9-0.6-1
				c-0.3,0-0.6-0.1-0.9-0.2l-0.4-0.1l-0.2-0.1l0,0h-0.1c-0.3-0.1-0.6-0.3-0.8-0.4c-0.1-0.1-0.2-0.2-0.4-0.2l-0.1-0.1l-0.2-0.1
				c-0.5-0.4-0.9-0.8-1.2-1.3c-0.2-0.3-0.3-0.6-0.5-0.9c-0.1-0.3-0.2-0.5-0.2-0.8c0-0.5-0.4-0.9-0.8-0.9h0
				C76.1,129.8,75.8,130.2,75.7,130.6L75.7,130.6z"/>
			<path d="M83.4,124.9c-0.3,3,1.8,5.5,4.2,6.9c0.4,0.2,0.9,0.1,1.2-0.3s0.1-0.9-0.3-1.2l0,0h-0.1c-1.9-1.2-3.6-3.1-3.3-5.5
				c0.1-0.5-0.3-0.9-0.8-0.9s-0.9,0.3-0.9,0.8C83.4,124.8,83.4,124.9,83.4,124.9L83.4,124.9z"/>
			<path d="M128.3,87.2c-0.2,3.7-1.8,7.1-3.2,10.4s-3,6.9-4.5,10.3c-2.7,6.1-6.8,13.2-2.7,19.7c1.8,2.8,4.7,4.4,7.6,5.7
				c1.5,0.8,3.1,1.4,4.8,1.7c1.7,0.2,3.3-0.2,4.7-1.1c1.5-0.9,2.9-1.9,4.2-2.9c1.4-1,2.8-2,4.1-3.1c2.6-2.3,4.4-5.4,6-8.4
				c3.6-6.9,5.9-14.4,6.8-22.2c0.1-1.1-1.6-1.1-1.7,0c-0.8,6.6-2.6,13-5.4,19c-1.3,3-2.9,5.8-4.9,8.4c-2.1,2.6-5.1,4.4-7.9,6.4
				c-1.2,0.9-2.5,1.7-3.9,2.2c-1.7,0.3-3.5,0-5-0.8c-2.8-1.2-5.7-2.5-7.7-4.9c-4.6-5.8-0.5-12.8,2-18.5c1.6-3.7,3.3-7.4,4.8-11.1
				c1.5-3.4,3-6.9,3.2-10.7C130,86.2,128.3,86.2,128.3,87.2L128.3,87.2z"/>
			<path d="M123.1,123.2c-0.3,0.9-0.6,1.7-1.1,2.6c-0.2,0.4-0.5,0.8-0.7,1.2c-0.1,0.2-0.3,0.4-0.4,0.6l-0.1,0.2l-0.3,0.3
				c-0.3,0.3-0.4,0.9,0,1.2c0.3,0.3,0.9,0.4,1.2,0l0,0c1.4-1.6,2.4-3.5,3-5.6c0.1-0.4-0.1-0.9-0.6-1
				C123.7,122.6,123.3,122.9,123.1,123.2L123.1,123.2z"/>
			<path d="M129.9,127.5c0,0.2,0,0.5,0,0.7v0.6c0,0.2-0.1,0.5-0.2,0.7c0,0.1-0.1,0.2-0.1,0.3s0,0.1-0.1,0.1s0.1-0.2,0,0.1
				c-0.1,0.2-0.2,0.4-0.3,0.6l-0.2,0.3L129,131v0.1l-0.1,0.1l-0.1,0.1l-0.2,0.2l-0.3,0.2l-0.1,0.1c-0.2,0.2,0.1-0.1-0.1,0.1
				c-0.4,0.2-0.5,0.7-0.3,1.1c0.2,0.4,0.7,0.5,1.2,0.3c1.9-1.4,2.9-3.6,2.8-5.9c-0.1-0.5-0.5-0.8-0.9-0.8c-0.4,0-0.7,0.4-0.8,0.8
				L129.9,127.5z"/>
			<path d="M91.3,158.2c0.5-0.7,0.7-1.4,0.8-2.2c0.1-0.6,0-1.1-0.3-1.6c-0.7-0.9-1.9-1.2-2.9-0.9c-1.1,0.2-2,0.8-2.5,1.8
				c-0.6,1.2-0.4,2.6,0.5,3.5c0.6,0.6,1.4,0.9,2.3,0.8C90,159.4,90.8,158.9,91.3,158.2c0.2-0.4,0.1-0.9-0.3-1.2
				c-0.2-0.1-0.4-0.1-0.7-0.1c-0.2,0.1-0.4,0.2-0.5,0.4c0.2-0.2,0,0,0,0l-0.1,0.1c0,0-0.2,0.1-0.1,0.1s0.2-0.1,0,0l-0.1,0.1
				l-0.2,0.1h-0.1c0.1,0-0.1,0-0.1,0c-0.1,0-0.1,0-0.2,0.1h-0.4c0,0,0.2,0,0.1,0h-0.1l-0.2-0.1c0,0,0.2,0.1,0,0h-0.1l-0.1-0.1
				l-0.1-0.1c0,0,0.2,0.1,0,0l-0.2-0.2c-0.1-0.1,0.1,0.2,0.1,0.1l0,0c0,0-0.1-0.1-0.1-0.2l-0.1-0.1c-0.1-0.1,0.1,0.2,0,0
				c0-0.1-0.1-0.2-0.1-0.3v-0.1c0-0.1,0-0.2,0-0.3l0,0c0-0.1,0-0.1,0-0.2l0.1-0.3c0.1-0.2-0.1,0.1,0,0l0.1-0.1c0,0,0-0.1,0.1-0.1
				c0,0,0.1-0.2,0-0.1c-0.1,0.1,0,0,0,0l0.1-0.1l0.1-0.1c0.1-0.1-0.1,0.1-0.1,0.1h0.1c0.2-0.1,0.3-0.2,0.5-0.3c0.2-0.1-0.1,0,0,0
				h0.1l0.3-0.1l0.2-0.1h0.1c0.2,0-0.2,0,0,0h0.6c0,0-0.2,0-0.1,0h0.1l0.2,0.1c0.1,0-0.2-0.1-0.1,0h0.1l0.1,0.1c0,0-0.2-0.1-0.1-0.1
				h0c0,0,0.1,0.1,0.1,0.1s-0.1-0.1-0.1-0.1v0.1l0.1,0.1c0.1,0.1-0.1-0.2,0,0v0.1v0.4l0,0c0,0.1,0,0.2,0,0.2c0,0.2-0.1,0.3-0.1,0.5
				c0,0.1-0.1,0.2-0.1,0.3c0,0,0.1-0.1,0-0.1l-0.1,0.1c-0.1,0.1-0.2,0.3-0.3,0.4c-0.2,0.4-0.1,0.9,0.3,1.1c0.4,0.3,0.9,0.3,1.2-0.1
				C91.3,158.3,91.3,158.3,91.3,158.2z"/>
			<path d="M98.5,153.9c0.3-0.2,0.6-0.4,0.8-0.7c0.3-0.3,0.5-0.6,0.6-1c0.1-0.6,0.1-1.3-0.2-1.9c-0.3-1.5-1.8-2.5-3.3-2.1
				c-1.1,0.2-2,1.2-2.2,2.3c-0.2,0.6-0.2,1.3-0.1,1.9c0.1,0.6,0.5,1.1,1,1.4c0.5,0.3,1.1,0.5,1.7,0.4
				C97.4,154.3,98,154.1,98.5,153.9c0.5-0.3,0.6-0.8,0.4-1.2c-0.2-0.4-0.8-0.5-1.2-0.3l-0.1,0.1c-0.1,0.1-0.2,0,0,0
				c-0.1,0-0.1,0.1-0.2,0.1l-0.3,0.1h-0.1c-0.2,0-0.4,0-0.6,0h0.1h-0.1l-0.3-0.1c-0.1,0-0.1-0.1,0,0l-0.1-0.1h-0.1
				c-0.1-0.1-0.1-0.1,0,0c0,0-0.1-0.1-0.1-0.1s-0.1-0.1,0,0l0,0l-0.1-0.1c0-0.1,0-0.1,0,0.1c0-0.1,0-0.2-0.1-0.2v-0.6
				c0-0.2,0.1-0.4,0.2-0.6c0-0.1,0-0.1,0.1-0.1c0.1-0.2-0.1,0.1,0,0s0.1-0.2,0.2-0.3l0.1-0.1l0,0c0-0.1,0.2-0.2,0.2-0.2s0,0,0,0
				s0.1-0.1,0.1-0.1l0.2-0.1l0,0h0.2c0.2-0.1-0.2,0,0,0c0.2,0,0.2,0,0.3,0H97h0.1h0.1c0.1,0,0.1,0,0.2,0.1c-0.1-0.1-0.1-0.1,0,0h0.1
				l0.1,0.1l0,0c0.1,0.1,0.1,0.1,0,0l0.2,0.2c0,0,0.1,0.1,0.1,0.1l-0.1-0.1l0.1,0.1c0.1,0.1,0.1,0.2,0.2,0.3l0,0c0,0.1,0,0.1,0,0
				l0.1,0.2c0,0.1,0.1,0.2,0.1,0.4v0.6c0,0,0,0.1,0,0.1c0,0,0.1-0.1,0,0c0.1-0.2,0,0-0.1,0.1l-0.3,0.3h-0.1c-0.1,0-0.1,0.1-0.2,0.1
				c-0.4,0.3-0.5,0.8-0.3,1.2C97.6,153.9,98.1,154,98.5,153.9z"/>
			<path d="M104.5,159.3c1.2,0.5,2.5-0.1,3-1.2c0,0,0,0,0-0.1c0-0.1,0-0.1,0.1-0.2c0.2-0.7,0.2-1.3,0.1-2c-0.1-0.7-0.5-1.3-1-1.7
				c-1.4-0.9-3.3-0.6-4.4,0.7c-0.3,0.5-0.5,1-0.3,1.6c0.2,0.7,0.5,1.3,1,1.8c0.5,0.5,1,0.9,1.7,1.1c0.4,0.1,0.9-0.2,1-0.6
				c0.1-0.4-0.2-0.9-0.6-1c-0.2-0.1,0.2,0.1,0,0H105c-0.1,0-0.2-0.1-0.3-0.2l-0.1-0.1c-0.1-0.1,0.2,0.1,0,0l-0.3-0.2
				c-0.1-0.1-0.1-0.1-0.2-0.2c0,0-0.1-0.1-0.1-0.1c0.1,0.1,0,0,0,0l-0.2-0.3l-0.1-0.1c0,0,0-0.1,0-0.1s0-0.1,0,0
				c0-0.1-0.1-0.2-0.1-0.3V156c0-0.2,0,0.1,0,0l0,0v-0.1c0-0.1-0.1,0.2,0,0c0-0.1,0.1-0.1,0.1-0.2c-0.1,0.2-0.1,0.1,0,0.1l0.1-0.1
				l0.1-0.1c0.1-0.1-0.1,0.1,0,0l0.2-0.1c0.1,0,0.2-0.1,0.2-0.1c-0.1,0.1-0.1,0,0,0h0.1c0.2-0.1,0.3-0.1,0.5-0.1s-0.2,0-0.1,0h0.3
				c0,0,0.1,0,0.1,0c0.1,0,0.2,0.1,0.4,0.1c0,0-0.2-0.1,0,0l0.1,0.1c0,0,0.1,0.1,0.1,0.1c-0.1-0.1,0,0,0,0l0.1,0.1c0.1,0.1,0,0,0,0
				s0.1,0.1,0.1,0.2s0-0.1,0,0c0,0.1,0.1,0.2,0.1,0.3l0,0v0.2c0,0.2,0,0.4,0,0.7v0.2c0,0.2,0-0.1,0,0.1v0.1c0,0.1,0,0.1,0,0.1l0,0
				c0-0.1,0,0.1,0,0.1s0.1-0.1,0,0l0,0l-0.1,0.1H106c0.1,0,0.1,0,0,0h-0.1h-0.1h-0.5c-0.1,0-0.2-0.1,0,0c-0.1,0-0.2,0-0.3-0.1
				c-0.4-0.1-0.9,0.1-1,0.6C103.9,158.6,104.1,159.1,104.5,159.3L104.5,159.3z"/>
			<path d="M93.1,164.4c-0.2,2.4,1.5,4.5,3.8,4.9c2.4,0.3,4.8-0.8,6-2.9c0.7-1,1-2.3,0.8-3.6c-0.2-1.2-0.7-2.4-1.5-3.3
				c-0.9-0.8-2-1.3-3.2-1.4c-1.2-0.3-2.4-0.1-3.5,0.4C93.7,159.7,93.2,162.4,93.1,164.4c0,1.1,1.7,1.1,1.7,0c0-1.4,0.4-2.7,1.1-3.9
				c0.5-0.5,1.2-0.8,1.9-0.7c0.8,0,1.7,0.1,2.4,0.4c0.7,0.4,1.3,1.1,1.5,1.9c0.4,0.9,0.4,1.8,0.1,2.7c-0.7,1.6-2.2,2.7-3.9,2.9
				c-0.9,0.1-1.7-0.2-2.3-0.8c-0.6-0.7-0.9-1.6-0.8-2.5C94.8,163.3,93.1,163.3,93.1,164.4z"/>
			<path d="M116.4,157.4c0.4,0,0.8-0.1,1.2-0.2c0.4-0.2,0.7-0.5,1-0.9c0.4-0.6,0.7-1.2,0.8-1.9c0.1-0.4,0.1-0.9,0-1.3
				c-0.1-0.4-0.4-0.7-0.7-1c-0.6-0.6-1.4-0.9-2.2-1c-1.3,0.1-2.5,0.8-3.1,2c-0.8,0.9-0.8,2.3,0,3.2c0.8,0.8,1.9,1.2,3.1,1.1
				c0.5-0.1,0.8-0.5,0.8-0.9c0-0.4-0.4-0.7-0.8-0.8c-0.2,0-0.3,0-0.5,0c-0.2,0-0.1,0,0.1,0H116l-0.3-0.1c-0.2,0-0.3-0.1-0.5-0.1
				c-0.1,0-0.1-0.1-0.1,0s0,0,0,0c-0.1,0-0.2-0.1-0.2-0.1l-0.1-0.1c-0.1-0.1,0,0,0.1,0l-0.2-0.2c-0.1-0.1,0.1,0,0,0.1l-0.1-0.1
				l-0.1-0.1l0,0c-0.1-0.2,0,0.2,0-0.1c0,0,0-0.1,0-0.1v0.1c0,0,0.1-0.2,0.1-0.3s0-0.1,0-0.1s-0.1,0.1,0,0c0.1-0.2,0.2-0.4,0.3-0.5
				l0.1-0.1c0.1-0.2-0.1,0.1,0,0l0.2-0.3c0.1-0.1,0.2-0.2,0.2-0.2l0.1-0.1c0.2-0.1-0.1,0.1,0,0l0.2-0.2l0.1-0.1h0.1
				c-0.1,0-0.1,0.1-0.1,0s0.2-0.1,0.2-0.1s-0.2,0,0,0h0.1c0.1,0,0.2,0,0.2,0.1c0.1,0,0.2,0.1,0,0l0.2,0.1l0.4,0.2l0.1,0.1
				c-0.1-0.1,0,0,0.1,0c0.1,0.1,0.2,0.2,0.2,0.2c-0.1-0.2,0,0.1,0,0s0,0.3,0,0.1c0,0.1,0,0.3,0,0.4v0.1c0,0.1,0,0.2-0.1,0.3
				c0,0.1-0.1,0.3-0.1,0.4v0.1l-0.1,0.2c0,0.1-0.1,0.1-0.1,0.2c0,0-0.2,0.2-0.1,0.1l-0.1,0.1l-0.1,0.1l-0.1,0.1c0.1-0.1-0.1,0-0.1,0
				c0.1,0,0,0,0,0h-0.2c-0.5,0-0.8,0.4-0.8,0.8c0,0,0,0,0,0C115.6,157,116,157.4,116.4,157.4z"/>
			<path d="M120.3,150.8c0.6,0.4,1.2,0.7,1.9,0.7c0.7,0.1,1.4-0.2,1.9-0.7c1-0.9,1.3-2.4,0.8-3.7c-0.3-0.6-0.9-1-1.5-1.2
				c-0.6-0.2-1.3-0.2-1.9-0.1c-1,0.3-1.7,1-2.1,1.9C119.1,148.9,119.4,150.1,120.3,150.8c0.3,0.4,0.9,0.4,1.2,0
				c0.3-0.3,0.3-0.8,0-1.1l-0.2-0.2l-0.1-0.1c0-0.1,0-0.1,0,0.1c0-0.1-0.1-0.1-0.1-0.2l-0.1-0.1c-0.1-0.1,0.1,0.2,0,0
				c0-0.1-0.1-0.1-0.1-0.2v-0.4c0,0.2,0-0.1,0-0.1c0-0.1,0.1-0.1,0.1-0.2c0-0.1-0.1,0.2,0,0.1v-0.1c0-0.1,0.1-0.1,0.1-0.2
				c0.1-0.1-0.1,0.2,0,0l0.1-0.1l0.2-0.1c0.2-0.1-0.1,0.1,0,0l0.2-0.1h0.1c-0.2,0.1-0.1,0,0,0c0.1,0,0.2,0,0.2-0.1h0.1
				c0.2,0-0.1,0-0.1,0s0.3,0,0.4,0s-0.2,0,0,0h0.1l0.3,0.1l0.2,0.1l0,0c0.1,0,0.1,0.1,0.2,0.1c0.1,0.1-0.1-0.1,0,0l0.1,0.1
				c0.1,0.1-0.1-0.2,0,0l0.1,0.1l0,0c0,0.1,0,0.1,0,0c0,0,0.1,0.2,0.1,0.3s0,0,0,0c0,0.1,0,0.2,0,0.2v0.1c0,0.2,0-0.2,0,0.1
				c0,0.1,0,0.2-0.1,0.3c0,0.1-0.1,0.2,0,0c0,0.1,0,0.1-0.1,0.2c-0.1,0.1-0.1,0.2-0.2,0.3l-0.1,0.2c-0.1,0.2,0.1-0.1,0,0l-0.1,0.1
				l-0.1,0.1l0,0c0,0-0.1,0-0.1,0.1l0,0h-0.1c0,0-0.2,0.1,0,0H122c-0.2,0,0.2,0,0,0h-0.2l-0.2-0.1c-0.2-0.1,0.1,0.1-0.1,0h-0.1
				c0,0-0.3-0.2-0.1-0.1c-0.2-0.2-0.4-0.2-0.6-0.2c-0.2,0-0.4,0.1-0.6,0.2c-0.3,0.3-0.3,0.9,0,1.2L120.3,150.8z"/>
			<path d="M129.5,157.7c0.4,0.1,0.9,0.2,1.3,0.1c0.4-0.1,0.7-0.2,1-0.4c0.6-0.4,1.1-0.9,1.5-1.5c0.5-1.2-0.3-2.6-1.2-3.4
				c-1-0.8-2.2-1.3-3.3-0.5c-0.9,0.7-1.4,1.8-1.4,3c0,0.6,0.2,1.2,0.5,1.7C128.3,157.2,128.9,157.6,129.5,157.7
				c0.4,0.2,0.9-0.1,1-0.5c0.1-0.4-0.1-0.9-0.6-1.1l0,0l0,0h-0.2l0,0c-0.1,0-0.1,0,0.1,0c-0.1-0.1-0.2-0.1-0.2-0.1l-0.1-0.1
				c0,0,0.2,0.1,0.1,0l-0.2-0.2c-0.1-0.1,0.1,0.2,0,0l-0.1-0.1c0-0.1-0.1-0.1-0.1-0.2c0.1,0.2,0.1,0.1,0,0c0,0,0-0.1,0-0.1
				c0-0.1,0-0.2-0.1-0.3c0-0.1,0,0.2,0,0.1v-0.1c0-0.1,0-0.2,0-0.3v-0.1c0-0.1,0-0.2,0.1-0.3l0.1-0.3c0-0.1-0.1,0.2,0,0v-0.1
				l0.1-0.2l0.1-0.1v-0.1c0.1-0.1,0-0.1,0,0.1s0.1-0.1,0.2-0.2l0,0l0,0l0.1-0.1c0.1-0.1,0.1,0,0,0h0.1h0c0.1,0-0.2,0,0,0h0.1
				c0.2,0-0.2,0,0,0l0.2,0.1l0.1,0.1l-0.1-0.1h0.1c0.1,0.1,0.2,0.1,0.3,0.2l0.1,0.1c0.1,0,0.1,0.1,0,0l0.2,0.2
				c0.2,0.1,0.3,0.3,0.4,0.5c-0.1-0.1,0-0.1,0,0c0,0,0.1,0.1,0.1,0.1c0.1,0.1,0.1,0.1,0.1,0.2v0.1c0,0.1,0,0.1,0-0.1
				c0,0.1,0.1,0.1,0.1,0.2v0.1l0,0c0,0.1,0,0.1,0,0.2l0,0c0,0.2,0.1-0.1,0,0l-0.1,0.1c0,0.1,0,0.1,0,0c0,0.1-0.2,0.2-0.3,0.3
				s-0.1,0.1,0,0c-0.1,0.1-0.1,0.1-0.2,0.1c-0.1,0.1-0.3,0.2-0.4,0.3l-0.2,0.1c-0.1,0.1,0.1,0,0,0c-0.1,0-0.1,0-0.2,0.1h-0.1
				c-0.2,0,0.1,0-0.1,0L130,156c-0.4-0.1-0.9,0.1-1.1,0.6C128.8,157,129.1,157.5,129.5,157.7C129.5,157.6,129.5,157.6,129.5,157.7
				L129.5,157.7L129.5,157.7z"/>
			<path d="M119.3,160.6c-0.6,1.1-0.9,2.3-0.8,3.6c0,1.3,0.4,2.5,1.2,3.5c0.9,0.8,2.1,1.3,3.4,1.2c1.3,0.1,2.6-0.2,3.8-0.8
				c1-0.6,1.9-1.4,2.4-2.4c0.5-1.2,0.7-2.4,0.6-3.7c0-1.3-0.5-2.5-1.3-3.5c-0.8-0.8-1.8-1.4-2.9-1.7c-1.3-0.3-2.8-0.6-3.9,0.3
				c-0.4,0.4-0.8,0.9-1.1,1.4C120.2,159.2,119.7,159.9,119.3,160.6c-0.2,0.4-0.1,0.9,0.3,1.1c0.4,0.2,0.9,0.1,1.2-0.3
				c0.5-0.9,1.1-1.7,1.7-2.5c0.2-0.3,0.5-0.5,0.8-0.6c0.4,0,0.8,0,1.3,0.1c0.8,0.1,1.6,0.4,2.3,0.9c0.7,0.5,1.1,1.3,1.3,2.2
				c0.5,1.8-0.1,3.6-1.4,4.9c-1.5,1.1-3.5,1.4-5.2,0.6c-1-0.4-1.2-1.6-1.3-2.6c-0.1-1,0.1-2,0.5-2.9c0.2-0.4,0.1-0.9-0.3-1.1
				c0,0,0,0,0,0C120,160,119.5,160.2,119.3,160.6C119.3,160.6,119.3,160.6,119.3,160.6L119.3,160.6z"/>
		</g>
	</g>
	<g class="st4">
		<path class="st5" d="M167.2,195.2c-2-0.7-4.1-0.6-6,0.4c-1.5,0.7-2.4,2.3-2,3.9c0.5,1.7,2.1,2.9,3.6,3.7c1.1,0.6,2.8,1.6,0.7,2.1
			c-1.3,0.3-2.8,0-3.8-0.8c-1.6-1.1-3.1,1.5-1.5,2.6c2.4,1.8,9,2.3,9.5-1.9c0.3-2-1.3-3.4-2.9-4.4c-0.6-0.4-2.8-1.3-2.7-2.2
			c0.1-1.5,3.5-0.8,4.2-0.6c0.8,0.2,1.6-0.4,1.8-1.2c0.1-0.7-0.3-1.4-1-1.7L167.2,195.2z"/>
		<path class="st5" d="M52.5,190.9c-11.9-3.9-6.4,16.3-5.1,22c0.4,1.9,3.3,1.1,2.9-0.8c-0.8-3.4-1.4-6.8-1.7-10.3
			c-0.2-2.2-1.6-9.6,3.1-8.1C53.5,194.4,54.3,191.5,52.5,190.9z"/>
		<path class="st5" d="M41.8,204.5c3.5-0.9,7.1-1.6,10.7-2.1c1.9-0.3,1.1-3.2-0.8-2.9c-3.6,0.5-7.1,1.2-10.7,2.1
			C39.2,202.1,40,205,41.8,204.5z"/>
		<path class="st5" d="M77.4,209.4c-0.7-4.5-0.8-9.1-0.5-13.7l-2.8,0.8l6.2,9.1c1.5,2.2,2.9,4.6,5.3,6c0.9,0.5,2.4-0.1,2.2-1.3
			c-0.7-5.1-0.9-10.3-0.6-15.5c0.1-1.9-2.9-1.9-3,0c-0.2,5.2,0,10.3,0.6,15.5l2.3-1.3c-2.5-1.4-4-4.6-5.6-6.9l-4.8-7
			c-0.4-0.7-1.4-0.9-2.1-0.5c-0.4,0.3-0.7,0.7-0.7,1.2c-0.3,4.8-0.1,9.7,0.6,14.5C74.7,212.1,77.6,211.3,77.4,209.4L77.4,209.4z"/>
		<path class="st5" d="M103,201.6l10.2-1.6c1.9-0.3,1.1-3.2-0.8-2.9l-10.2,1.6C100.2,199,101.1,201.9,103,201.6L103,201.6z"/>
		<path class="st5" d="M105.7,193c0.1,3.7-1.5,22.8,7.2,17c1.6-1.1,0.1-3.7-1.5-2.6c-2.8,1.9-2.3-5.7-2.4-6.6l-0.3-7.8
			C108.6,191.1,105.6,191.1,105.7,193z"/>
		<path class="st5" d="M117.2,199.3c0.5,2.9,0.8,5.8,0.8,8.8c0,0.8,0.7,1.5,1.5,1.5s1.5-0.7,1.5-1.5c0-3.2-0.3-6.4-0.9-9.6
			C119.7,196.6,116.8,197.4,117.2,199.3z"/>
		<path class="st5" d="M118.7,194.9c0.8,0,1.5-0.7,1.5-1.5s-0.7-1.5-1.5-1.5s-1.5,0.7-1.5,1.5S117.8,194.9,118.7,194.9z"/>
		<path class="st5" d="M127.3,209.2l1.8-13.6l-2.8,0.8c1.9,2.5,2.9,6.8,5.9,8.2c0.6,0.3,1.3,0.2,1.8-0.2c1.1-0.9,1.7-2.6,2.4-3.8
			c1.2-2.1,2.4-4.2,3.6-6.2l-2.8-0.8c0.5,5.5,0.8,11,0.7,16.4c0,0.8,0.7,1.5,1.5,1.5s1.5-0.7,1.5-1.5c0-5.5-0.2-11-0.7-16.4
			c0-0.8-0.7-1.5-1.5-1.5c-0.5,0-1,0.3-1.2,0.7l-3,5.2c-0.8,1.3-1.4,3.3-2.6,4.2l1.8-0.2c-1.4-0.6-1.7-2.1-2.3-3.3
			c-0.7-1.3-1.5-2.6-2.5-3.8c-0.4-0.7-1.4-0.9-2.1-0.5c-0.4,0.3-0.7,0.7-0.7,1.2l-1.8,13.6C124.1,211.1,127.1,211.1,127.3,209.2
			L127.3,209.2z"/>
		<path class="st5" d="M145.6,202c2.6-0.3,5.2-0.7,7.8-1.4c0.5-0.1,0.9-0.5,1.1-1c0.6-2.6-1-5.2-3.5-5.8c0,0-0.1,0-0.1,0
			c-2.9-0.6-5.7,1.4-6.7,4.1c-1,2.6-0.8,6.1,1.3,8.2c2.3,2.2,5.8,1.6,8.3,0.1c0.7-0.4,0.9-1.4,0.5-2.1c-0.4-0.7-1.3-0.9-2-0.5
			c-1.2,0.7-2.7,1.3-4,0.7s-1.8-2.3-1.7-3.7c0-1.5,0.7-2.9,2-3.6c1.3-0.7,3.5,0,3,1.8l1-1c-2.3,0.6-4.6,1-7,1.3
			C143.6,199.3,143.6,202.3,145.6,202L145.6,202z"/>
		<path class="st5" d="M56.7,200.9c0.2,3.2,1.3,10.5,5.7,10.5c1.7,0,2.7-1.3,3.2-2.8c0.9-3,1.6-6,2.2-9.1H65l3,12.5
			c0.5,1.9,3.3,1.1,2.9-0.8l-3-12.5c-0.2-0.8-1.1-1.2-1.9-1c-0.5,0.1-0.9,0.5-1,1l-1,4.3c-0.3,1.2-0.4,3.6-1.1,4.5
			c-1.1,1.6-1.9-1.1-2.3-2.2c-0.5-1.4-0.8-2.9-0.9-4.4C59.6,199,56.6,199,56.7,200.9L56.7,200.9z"/>
		<path class="st5" d="M57.8,197.6c0.8,0,1.5-0.7,1.5-1.5s-0.7-1.5-1.5-1.5s-1.5,0.7-1.5,1.5S56.9,197.6,57.8,197.6z"/>
		<path class="st5" d="M65.4,196.6c0.8,0,1.5-0.7,1.5-1.5s-0.7-1.5-1.5-1.5c-0.8,0-1.5,0.7-1.5,1.5S64.6,196.6,65.4,196.6z"/>
	</g>
</g>
</svg>
