<svg xmlns="http://www.w3.org/2000/svg" viewBox="0 0 815.19 232.73"><defs><style>.cls-1{fill:#6e8d7c;}.cls-2{fill:#6a97a9;}.cls-3{fill:#3a3a3a;}</style></defs><title>Asset 11</title><g id="Layer_2" data-name="Layer 2"><g id="Layer_1-2" data-name="Layer 1"><path class="cls-1" d="M119.86,70.23c-12.84-6.93-30.41-13.3-42.2-.65-4.64,5-6.3,12-7.37,18.47s-1.66,13.43.2,19.86c4,13.94,18.54,19.24,31.14,12.76,14.63-7.52,16.56-24.22,21.68-38.1l-14.73-2a380.46,380.46,0,0,1,2.34,54.31c-.49,16.6-1.25,34-6.11,50-4.07,13.42-12.94,26.64-27.23,30.39C63,219.06,50.51,208.08,41.52,198A133.46,133.46,0,0,1,14.9,152.2c-3.09-9.09-17.59-5.19-14.46,4a153,153,0,0,0,26.64,48C38,217.49,52.52,230.51,70.69,231c17,.47,32.55-10.89,41.1-25,9.9-16.3,11.89-36.07,13.27-54.68a378.09,378.09,0,0,0-1.48-70.8c-1-8.37-11.69-10.23-14.73-2s-4,19.82-10.73,26.27c-4.81,4.62-11.9,5.6-13.47-2.15-1.24-6.11-.33-16.86,3.34-22,5.63-8,18.17-.78,24.3,2.53,8.5,4.58,16.08-8.37,7.57-13Z"/><path class="cls-2" d="M730.8,51.25c4.64,56.52,9,113.07,12.34,169.69.46,7.89,13.34,10.82,14.73,2,1.74-11,5-21.8,8.56-32.34,3.49-10.25,7.06-21.21,12.6-30.57.9-1.53,2.39-4.23,4.4-4.5s2.14,1.2,2.88,2.91a156.37,156.37,0,0,1,6.92,21.35A216.11,216.11,0,0,1,800.17,222c.62,9.58,15.63,9.65,15,0a235.45,235.45,0,0,0-9.54-53.44c-2.22-7.24-4.27-16.83-9.39-22.69s-13.4-7-20.24-3.47c-6.58,3.36-10.14,9.91-13.09,16.37-2.84,6.2-5.4,12.54-7.78,18.92-5,13.33-9.5,27.12-11.72,41.21l14.73,2c-3.32-56.62-7.7-113.17-12.34-169.69-.78-9.55-15.79-9.64-15,0Z"/><path class="cls-3" d="M260.62,33.05c-22.23-26.29-66.22-49-94-17.34a67.37,67.37,0,0,0-16.48,50.95c2,19.08,10.86,36.1,21.61,51.69,11.93,17.32,26.37,32.64,41.66,47,7,6.61,17.66-4,10.61-10.61-11.56-10.86-22.74-22.2-32.53-34.7C182,108,172.75,94.26,168.05,79.52c-4.86-15.2-4.4-31.31,3.66-45.34,7.7-13.38,20.25-21.65,36-18.49C224.45,19,239.26,31,250,43.66c6.24,7.38,16.8-3.28,10.6-10.61Z"/><path class="cls-3" d="M212.22,160.66v64.82c0,9.65,15,9.67,15,0V160.66c0-9.65-15-9.66-15,0Z"/><path class="cls-3" d="M601.24,43.52c17.72-21,53.92-43.64,75.1-14.47,20.7,28.52,5.15,61.36-13.17,86.37-10.49,14.32-23,27.07-35.93,39.19-7,6.63,3.57,17.22,10.61,10.61,13.48-12.66,26.22-26,37.27-40.88s21.54-31.93,25-50.53-.09-37.72-11.29-53S661.2-2.38,642.07.64c-20,3.16-38.62,17.11-51.44,32.27-6.2,7.33,4.36,18,10.61,10.61Z"/><path class="cls-3" d="M624,160.66v64.82c0,9.65,15,9.67,15,0V160.66c0-9.65-15-9.66-15,0Z"/><path class="cls-3" d="M315.16,102.9l0,0c1.95-1.42,6.05-8.38,3.5-12.71-1.47-2.5-4.58-1.43-6.24-.38a9.47,9.47,0,0,0-3.57,3.89c-1,2-2,6.21-.77,8.53C309.58,104.94,313.45,104.12,315.16,102.9Z"/><path class="cls-3" d="M319,109.37A20.52,20.52,0,0,0,327,93.14c-.06-4.15-2-8.43-5.63-10.57s-8.33-1.63-12,.35c-6.74,3.62-10.38,12-9,19.41,1.61,8.65,11.63,11.5,18.6,7a7.67,7.67,0,0,0,2.69-10.26c-2-3.39-6.84-4.88-10.27-2.69-1.19.76,1.37-.23-.09.12-1.28.3.66,0,1.11.15,1.26.37,1.65,1.59,2.53,2.32l.12.62c.06-.9,0-1-.09-.2a18.72,18.72,0,0,1,.51-2.09l.21-.62c-.4.86-.43,1-.1.35,0,0,.72-.9.32-.58-.61.49.91-.52,1-.62.4-.34-.79.26-1.28.27-1.66,0-3-1.47-3.68-2.85.17.72.21.8.1.22s-.1-.5-.07.26c.15-.81.17-.93.06-.38-.06.33-.14.65-.23,1s-.89,2.06-.18.66c-.28.55-.56,1.09-.89,1.61-.15.25-1.15,1.42-.33.54.38-.48.38-.5,0-.07-.66.61-.34.38.95-.68-3.28,2.37-4.87,6.53-2.69,10.26C310.58,109.92,315.64,111.75,319,109.37Z"/><path class="cls-3" d="M526.43,102.9l0,0c1.95-1.42,6-8.38,3.5-12.71-1.47-2.5-4.58-1.43-6.24-.38a9.41,9.41,0,0,0-3.57,3.89c-1,2-2,6.21-.77,8.53C520.85,104.94,524.72,104.12,526.43,102.9Z"/><path class="cls-3" d="M530.21,109.37a20.5,20.5,0,0,0,8.06-16.23c-.06-4.15-2-8.43-5.63-10.57s-8.33-1.63-12,.35c-6.74,3.62-10.38,12-9,19.41,1.61,8.65,11.63,11.5,18.59,7a7.65,7.65,0,0,0,2.69-10.26c-2-3.39-6.83-4.88-10.26-2.69-1.19.76,1.37-.23-.09.12-1.28.3.66,0,1.11.15,1.26.37,1.65,1.59,2.53,2.32l.12.62c.06-.9,0-1-.09-.2a21.18,21.18,0,0,1,.5-2.09l.21-.62c-.39.86-.42,1-.09.35,0,0,.72-.9.32-.58-.61.49.91-.52,1-.62.4-.34-.79.26-1.28.27-1.66,0-3-1.47-3.68-2.85.17.72.21.8.1.22s-.1-.5-.07.26c.15-.81.17-.93.06-.38-.06.33-.14.65-.23,1s-.89,2.06-.19.66a16.75,16.75,0,0,1-.88,1.61c-.15.25-1.15,1.42-.33.54.38-.48.38-.5,0-.07-.66.61-.34.38.95-.68-3.28,2.37-4.87,6.53-2.69,10.26C521.85,109.92,526.91,111.75,530.21,109.37Z"/><path class="cls-3" d="M481.08,213.76c-8.57,5.16-19.29,3-28.29.14-11.53-3.67-22.35-9.8-32.16-16.84-6.72-4.83-12.72-10.78-18.63-16.54-1.23-1.2-2.45-2.41-3.64-3.64-.47-.48-3.41-3.8-2-2a47.78,47.78,0,0,1-8.28-17.16c-2.95-11.08-3.48-25.74,5.09-34.57s23.58-8,34.24-3.94c28.14,10.65,7.2,50-3.94,65.85-8,11.36-17.44,22.93-30.61,28.34a46.58,46.58,0,0,1-19.05,3.43c-5.06-.15-13.7-.14-17.62-3.8-7.05-6.58-17.68,4-10.61,10.61,5.72,5.33,12.5,6.38,20,7.35a65.77,65.77,0,0,0,23.28-.68C404.6,226.78,416.88,217,427,204.81c18.45-22.08,44.07-64.17,19.52-90.7-10.53-11.38-29.64-14.48-44.29-11.84a37.5,37.5,0,0,0-30.14,31.36c-2.48,16.26.92,33.85,10.34,47.47,5.8,8.4,14.26,15.35,21.88,22a131.45,131.45,0,0,0,39.49,23.49c14.09,5.38,31.2,8.29,44.82.09,8.26-5,.73-17.94-7.57-13Z"/><path class="cls-3" d="M421.65,184.83a88,88,0,0,1-11.78-14.26c-3.46-5.08-7.37-10.3-9.85-16-2.55-5.82-2.22-12.17-.93-18.26,1.36-6.43,5-8.82,11.23-10.67,5-1.5,10.57-1.89,15.2.9,5,3,5.84,8.3,5.28,13.76-.64,6.32-2.71,12.7-4.84,18.65-1,2.81-2.13,5.55-3.4,8.25-.77,1.63-1.56,3.27-2.43,4.85l-.86,1.59q-1.65,2.06.9-.06l3.78,1c-2-1.44-3.88-7.52-4.78-9.76-1.36-3.35-2.6-6.75-3.9-10.12-1.46-3.81-8.43-16.08-4.55-19.41,1.14-1,5.48-1.62,6.65-.87,1.57,1,1.19,5.08,1.19,6.58a58.57,58.57,0,0,1-4.81,22.11h14.46a232.91,232.91,0,0,1-7.94-26.1c-2.26-9.38-16.73-5.41-14.46,4a232.91,232.91,0,0,0,7.94,26.1c2.7,7.3,11.62,6.87,14.46,0,4.32-10.43,7.44-24.12,4.39-35.32C429.38,120,416.69,117.09,406.2,121a17.08,17.08,0,0,0-11,12.39c-1.47,6.45.67,12.51,2.94,18.46s4.48,11.91,6.86,17.81c2.15,5.32,4.51,11.86,8.73,16,4.85,4.72,11.59,3.6,16-1,4.13-4.34,6.51-11.16,8.74-16.61,4.52-11.08,9-24.35,7-36.44-1.93-11.83-11.8-20.13-23.42-21.73-11.15-1.53-25.95,2.52-33,11.85-4.05,5.4-5.11,12.48-5.76,19a39.94,39.94,0,0,0,3.73,21.42,118,118,0,0,0,24,33.26c7,6.68,17.59-3.92,10.61-10.61Z"/></g></g></svg>