<svg xmlns="http://www.w3.org/2000/svg" viewBox="0 0 141.83 239.62"><defs><style>.cls-1{fill:#51ac4f;}.cls-2{fill:#4a8e46;}.cls-3{fill:#070707;}.cls-4{fill:#1d4575;}.cls-5{fill:#fdb23f;}.cls-6{fill:#f9e3c7;}.cls-7{fill:#7f331c;}.cls-8{fill:#cc0001;}</style></defs><title>Asset 9</title><g id="Layer_2" data-name="Layer 2"><g id="Layer_1-2" data-name="Layer 1"><path class="cls-1" d="M97,226.73l-.43,1.54c-2,7.1,8.15,14.16,13.23,7.7q3.36-4.29,7.07-8.27l-13.22-3.49.21.87.8-6.1-.53.73c-5.52,7.47,6.13,15.48,12.43,9.59,7.16-6.7,10.82-16.54,19.21-21.83,8.6-5.43.66-19.13-8-13.67A44.87,44.87,0,0,0,115,205.75c-3.14,4.38-5.66,8.63-9.66,12.36l12.44,9.59c1.74-2.37,1.79-5,1.11-7.7-1.41-5.67-9.2-7.81-13.23-3.49-2.48,2.66-4.83,5.4-7.08,8.26l13.23,7.71.44-1.54c2.77-9.82-12.5-14-15.27-4.21Z"/><path class="cls-1" d="M119.55,200c-.42-1.86.72-3.95,1.39-5.65a58.37,58.37,0,0,0,2.74-7.92,84.35,84.35,0,0,0,1.7-16.85,8,8,0,0,0-7.91-7.92c-4.7,0-7.4,3.65-7.91,7.92a3.4,3.4,0,0,1-.42.71l14.75,4-.25-39.48q-.06-9.65-.12-19.3a42.38,42.38,0,0,0-.77-9.41c-.39-1.7-3-5.88-2.79-6.8l-5.53,5.53c-2.43.37-1.1.43.17,1.16a24,24,0,0,0,3.57,1.74,17.35,17.35,0,0,0,6.73,1.14,18,18,0,0,0,12.76-6l-13.51-5.6c-.61,12.45-.49,24.92-.46,37.38,0,6.14-.08,12.3.29,18.44.19,3.24,2.12,10.35-.16,13.14l13.51,5.6q-2.18-17.14-4.34-34.27c-1.27-10-15-10.38-15.83,0-1.26,15.7,2.12,31.23-2.45,46.63-2,6.82-5.31,12.61-8.95,18.67a29.5,29.5,0,0,0-3.86,9.57c-.61,3.12-.59,6.66-2.1,9.5-4.12,7.73,6,16.26,12.43,9.59,7.86-8.13,16.19-16,23.65-24.49,4.31-4.92,3.16-9.72,2.85-15.7a58.5,58.5,0,0,1,1.38-16c2.24-9.92-13-14.16-15.27-4.21a80.1,80.1,0,0,0-2,14.69,65.91,65.91,0,0,0,.21,8c.1,1,.32,2.11.37,3.16l.86-.6L122.54,198,101,220.23l12.43,9.59c3.36-6.31,2.62-13.6,6.31-19.67A92.34,92.34,0,0,0,130,188.3a83.72,83.72,0,0,0,3.28-24.12c0-8.93-1-17.8-.26-26.72H117.16q2.16,17.13,4.34,34.27c.4,3.2,1.65,5.94,4.86,7.23,2.71,1.09,6.64.82,8.65-1.64,4.32-5.25,5.65-11.06,5.29-17.8s-.75-13.35-.77-20.08c0-14.09-.24-28.19.45-42.27.32-6.63-9-10.73-13.51-5.59-1.59,1.83-2.46,1.53-4.44.35a16.28,16.28,0,0,0-11.81-2.43A7.69,7.69,0,0,0,104.69,95a17,17,0,0,0,.66,9.62c1.11,2.95,2.19,5.09,2.32,8.31.27,6.66.09,13.37.13,20l.26,41.23c0,7.65,10.94,11,14.75,4a22.69,22.69,0,0,0,2.57-8.7H109.56c-.18,5.86-.42,11.51-2.49,17.07-2.23,6-4.23,11-2.79,17.56,2.2,9.94,17.47,5.74,15.27-4.21Z"/><path class="cls-1" d="M24.72,73.55a38.2,38.2,0,0,0-16.81.85l4.21,15.26c5.76-2.17,11.5-2,17.57-1.79a129.43,129.43,0,0,0,19.09-.39c12.88-1.36,25.62-4.14,38.63-2.7L83.41,70c-4.78,3.41-11.29,2.58-16.85,3.45-3.64.58-7.79,1.7-9.79,5.11a9.75,9.75,0,0,0,1.47,11.73c5.08,5.24,16.38,3.86,23.08,3.93,8.2.09,16.39-.22,24.57-.84,7.77-.59,10.84-10.35,4-14.75a95.49,95.49,0,0,1-9.62-7L96.77,84.9c5.78-.87,12.77-1.1,18.41.7l-3.49-2,.49.51-2.32-5.6c.51-2.06.37-2.26-.4-.59-.45.74-.91,1.46-1.4,2.17-4,6,2.61,13.08,8.94,11.62,7-1.61,14.4-6.49,13.44-14.71l-10,7.63a49,49,0,0,0,13.22,1c10.1-.69,10.18-16.52,0-15.83a33.18,33.18,0,0,1-9-.46c-4.48-.91-10.67,2.16-10,7.63.33-.44.68-.87,1-1.29a27.9,27.9,0,0,1-2.86.74L121.73,88c1.9-2.84,4.07-6,4-9.56-.13-4.18-3.15-7.24-7-8.38-8.27-2.41-17.72-1.72-26.09-.46-5.72.86-7.8,9.64-3.49,13.22a128.81,128.81,0,0,0,12.82,9.47l4-14.75c-6.77.52-13.55.82-20.33.85q-5.1,0-10.18-.14c-2.86-.09-6.54.24-9.12-.83l3.49,2-.63-.74,2,3.49-.22-.92v4.21l.31-.85L67.6,89.42c3-1.62,8.05-1,11.38-1.41,4.45-.57,8.71-1.67,12.42-4.31,6.65-4.73,3.91-13.87-4-14.75-13.56-1.5-26.81,1.6-40.25,2.86C34.2,73,20.36,69.7,7.91,74.4c-9.34,3.53-5.76,18.16,4.21,15.26a19.26,19.26,0,0,1,8.39-.84c4.23.63,8.51-1.06,9.74-5.53,1-3.74-1.28-9.1-5.53-9.74Z"/><path class="cls-2" d="M120.24,94.91l.52-2.06A4,4,0,0,0,115.89,88a11.6,11.6,0,0,0-3.63,1.34l4.8.62-.93-1-1.74,6.62c9-2.84,16.93-9.38,24.76-14.47l-5.41-5.41c-2.76,5.65-1,11.12-1.71,17.08L137,89A2.73,2.73,0,0,1,135,86.46a4,4,0,0,0-5.81-2.36,54.53,54.53,0,0,0-6.61,4.34c-1.78,1.38-3.56,3.55-5.73,4.27a4,4,0,0,0-1.74,6.61c2.74,3.12,5.44,5.77,9.58,3.28,1.74-1,3.39-3.18,5.37-3.65s3.69.63,5.82-.07l-4.47-5.81c-.74,1.5-1.59,4.67-2.82,5.77a27.83,27.83,0,0,1-3.45,1.11c-2.53,1-4.64,2.83-4.74,5.71a5.27,5.27,0,0,0,4.79,5.4c3.28.21,6.31-3,8.77-4.69L128.52,101c-2.47,4.81-3.67,10.25-6.4,14.88l7.38,2c-.3-2.25-1.94-7.43-.62-9.54,2.7-4.34-4.14-8.32-6.84-4-2.55,4.1-1.06,9.07-.46,13.54.49,3.63,5.19,5.71,7.38,2,2.75-4.67,3.91-10,6.39-14.87,1.66-3.23-1.94-7.86-5.41-5.42l-3.17,2.24c-.26.18-2.29,1.45-1.61,1.37l2.8,1.16c-.83,2.74-.33,3.62,1.52,2.62l1.36-.38a8.2,8.2,0,0,0,3.25-1.84c1.95-1.93,2.95-5.24,4.12-7.64,1.41-2.89-1-7-4.47-5.81-.94.31-2.28-.44-3.27-.49a7.36,7.36,0,0,0-3.61.72c-2.21,1-4.45,4.12-6.81,4.46l3,.4q-1.27-1.25-2.43-2.61l-1.74,6.61c5.34-1.76,9.32-6.65,14.22-9.41l-5.81-2.36a11.14,11.14,0,0,0,7.6,8c2.67,1,4.73-1.48,5-3.82.48-4.16-1.27-9.21.62-13.09,1.62-3.31-1.84-7.73-5.41-5.41C128,78.94,120.51,85.36,112.28,88a4,4,0,0,0-1.74,6.62l.92,1a4.05,4.05,0,0,0,4.8.61l1.73-.54-4.86-4.86-.52,2c-1.24,5,6.4,7,7.63,2.11Z"/><path class="cls-2" d="M138.33,75.78a8.87,8.87,0,0,1,1.74-1.3L138.13,73l-1.38,4.24c-.52,1.62,2,2.31,2.55.7l1.37-4.24a1.33,1.33,0,0,0-1.93-1.49,12.35,12.35,0,0,0-2.28,1.71c-1.23,1.17.63,3,1.87,1.87Z"/><path class="cls-1" d="M107.4,238.66C82.66,234.77,17.62,220,5.61,215.77,6.18,202-1.17,89.06,1.78,75.82,29.29,84.34,80.23,86.6,107.89,91.55,111.94,124,107.52,222.34,107.4,238.66Z"/><path class="cls-3" d="M107.66,237.7c-19.79-3.14-39.42-7.61-58.94-12-9.59-2.19-19.16-4.43-28.68-6.86-3.38-.86-6.76-1.74-10.11-2.71-1.07-.31-2.13-.64-3.19-1s0,.53-.13.2a4.44,4.44,0,0,1,0-1.26c.36-4.89-.22-10-.42-14.92-.31-8-.69-16-1.06-24-.88-18.9-1.79-37.81-2.45-56.72-.32-8.94-.59-17.89-.63-26.83,0-5-.38-10.5.66-15.47l-1.21.69c19.11,5.81,39.43,7.71,59.21,9.9,10.47,1.17,21,2.23,31.41,3.54,4.42.56,9.28.77,13.59,2,1.65.45.71-.43,1.31.56a6.1,6.1,0,0,1,.2,1.88c.16,1.61.29,3.22.4,4.84,2.39,33.52.82,67.47-.15,101-.37,12.72-1,25.45-1.08,38.18a1,1,0,0,0,2,0c.35-39.24,2.76-78.41,2.08-117.66a283.8,283.8,0,0,0-1.58-29.45,1,1,0,0,0-.73-1C73.07,84.42,36.31,85.29,2,74.87a1,1,0,0,0-1.21.69C-.35,81.14.06,87.25.1,92.9c.08,10.5.44,21,.84,31.49C1.81,147.66,3,170.9,4,194.16c.3,7.17.86,14.43.59,21.61a1,1,0,0,0,.72.95c14.89,5.17,30.79,8.12,46.13,11.58,18.45,4.16,37,8.34,55.66,11.31C108.38,239.81,108.91,237.9,107.66,237.7Z"/><path class="cls-1" d="M140.84,70.77c-27.66-5-75.74-10.71-104.59-16.48-12.72,4.79-22,16.12-34.47,21.53"/><path class="cls-3" d="M141.1,69.82c-24.69-4.39-49.59-7.46-74.37-11.29-6-.92-11.89-1.87-17.83-2.9-4.06-.7-10.5-3.27-14.41-1.69C22.22,58.87,13.31,69.52,1.28,75c-1.16.52-.15,2.23,1,1.71,5.83-2.64,11-6.36,16-10.18,4.91-3.68,10.1-8.12,15.92-10.31,3.15-1.19,6.23-.06,9.42.51,2.79.51,5.58,1,8.37,1.46Q60.79,59.63,69.55,61c23.67,3.61,47.45,6.58,71,10.77,1.25.23,1.78-1.68.53-1.9Z"/><path class="cls-3" d="M121.19,70.6h-9.1a1,1,0,0,0,0,2h9.1a1,1,0,0,0,0-2Z"/><path class="cls-4" d="M112.34,71.58c-.44-7.49,1-14.9-4.61-20.49-3.87-3.89-11.21-8.89-16-11.51-5.9-3.23-10.87-4.94-16.9-7.94-12-6-24.08-10.6-36.5-15.68-4.74-1.94-9.43-4-14.31-5.58-2.77-.89-3.92-.81-2.58-3.88a11.19,11.19,0,0,1,4.09-4.84c2.55-1.66,5.48.09,8,1C37,4,40.3,5.39,43.59,6.9c6.59,3,13,6.4,19.57,9.52,9.48,4.52,19.11,8.73,28.57,13.29,8.69,4.2,17.5,8.61,23.82,16.16s5.92,16,6.08,25.27"/><path class="cls-3" d="M113.33,71.58C113,65.09,114,57.8,110,52.21c-3.46-4.78-9.34-8.38-14.27-11.45-6.89-4.3-14.54-7.17-21.83-10.71-7.51-3.65-15.2-6.9-22.92-10-8.12-3.3-16.18-6.92-24.44-9.83-.77-.27-3.32-.61-3.95-1.3-1.62-1.76,1.92-5.58,3.51-6.35C29.92.65,37.51,5.26,41,6.79c16.39,7.3,32.58,15.32,48.76,23.06,8.21,3.92,16.72,7.95,23.15,14.55,7.4,7.58,7.61,16.79,7.76,26.74a1,1,0,0,0,2,0c-.1-7.35.1-15-3.46-21.71-3.81-7.12-11-12.12-17.86-16-8.26-4.61-17-8.37-25.6-12.31-9.35-4.29-18.54-8.88-27.81-13.33-3.67-1.76-7.37-3.45-11.14-5-3.05-1.22-7-3.63-10.38-2.62-2.79.84-8.67,6.89-5.64,9.87,1.89,1.85,6.44,2.37,8.85,3.31C34,15.14,38.34,17,42.74,18.8c9.87,4,19.78,8,29.37,12.59C81,35.72,90.27,39.29,98.48,45c3.83,2.63,8.63,5.73,10.86,10,2.63,5,1.77,11.23,2,16.67.06,1.27,2,1.28,2,0Z"/><path class="cls-3" d="M108.64,93.65c1.21.43,2.12,2,2.89,2.94s1.71,2.09,2.54,3.15q2.73,3.49,5.26,7.13c.73,1,2.45,0,1.71-1-1.89-2.7-3.84-5.34-5.88-7.92-1.64-2.08-3.41-5.29-6-6.2-1.21-.43-1.72,1.48-.53,1.9Z"/><path class="cls-3" d="M117.37,84.9q.9,13.75,2.63,27.44c.26,2.13.07,7.72,1.4,9.48,1.18,1.55,4.93,1.12,6.55,1.19,1.27,0,1.27-1.93,0-2-.72,0-4.28.09-4.88-.41s-.75-5.55-.88-6.57q-.6-4.69-1.11-9.41Q120,94.79,119.35,84.9c-.08-1.26-2.06-1.27-2,0Z"/><path class="cls-3" d="M139.41,92.63,127.1,121.52c-.5,1.16,1.21,2.16,1.71,1l12.31-28.89c.49-1.16-1.21-2.17-1.71-1Z"/><path class="cls-3" d="M14.34,69.32C26.56,70,38.91,72.73,51,74.61c17.52,2.73,35,5.52,52.49,8.52,4.86.83,9.86,1.47,14.63,2.73a1,1,0,0,0,.53-1.91c-11.78-3.1-24.28-4.38-36.28-6.34-17.65-2.87-35.3-5.68-53-8.28-5-.73-10-1.7-15-2-1.27-.07-1.26,1.91,0,2Z"/><path class="cls-5" d="M33.71,106.2c.13,0,.26,0,.39,0,2.73.29,2.71,3.71,4.41,5.29a13.11,13.11,0,0,0,7.93,3.29c4.82.31,9.49-1.49,14-3.26,7.09-2.79,13.45-6.78,21.36-5.51a28.24,28.24,0,0,1,18.46,11.09c9.2,12.66,5.15,30-3.82,41.6-6,7.69-13.46,11.27-22.71,13.76a3.23,3.23,0,0,1-1.34.15,2.41,2.41,0,0,1-1.66-2.08c-.43-2.39-.12-3.87-2.37-5.31-8.49-5.43-21.11,2.07-29.66,4.18-6.21,1.53-13,2.24-19.19.17-5.23-1.75-7.32-8.51-9.18-13.18a49.92,49.92,0,0,1-3.65-15.69c-.45-8.47,2-17.32,7.82-23.49,4.29-4.55,10.06-7.36,15.73-10A8.34,8.34,0,0,1,33.71,106.2Z"/><path class="cls-3" d="M33.71,107.19c2.09.12,2.53,3,3.54,4.36a10.62,10.62,0,0,0,3.87,2.89,16.92,16.92,0,0,0,10.35,1c9.39-1.71,17.7-8.75,27.41-8.67,10.64.1,20.67,7.76,24.08,17.69,3.08,9,1.14,18.94-3.15,27.14a37.16,37.16,0,0,1-20.66,18.14c-1.7.62-6,2.56-7.48.55-.69-.91-.29-2.92-1-4.06-1.42-2.4-4.82-3.43-7.41-3.77-7.31-.95-14.49,2.64-21.23,4.9-8.8,3-22.57,5.5-27.86-4.27s-8.32-21.94-5.59-32.78a27.76,27.76,0,0,1,8.1-13.88c4.05-3.66,11.45-8.56,17-9.25,1.24-.15,1.26-2.13,0-2-4.54.57-9.18,3.46-13,5.83A31.11,31.11,0,0,0,10.39,121c-5.46,8.82-5.76,19.79-3.09,29.58,2,7.45,5,18.12,13.36,20.43,10.16,2.81,20-1.19,29.49-4.38,5.12-1.72,11.53-3.72,16.69-1.06,3.42,1.76,1.66,7.25,5.53,8.09,1.91.42,5-1.14,6.7-1.75a48.41,48.41,0,0,0,6.08-2.58,35.84,35.84,0,0,0,11.11-8.8c11.81-14.06,15.22-37.53-1-49.79a29.52,29.52,0,0,0-13.51-5.66c-5.92-.84-11.28,1.13-16.64,3.43-6.53,2.8-14.88,7.24-22.09,4.62-3.73-1.35-4-3.55-6.1-6.18a4.17,4.17,0,0,0-3.24-1.71C32.43,105.14,32.44,107.12,33.71,107.19Z"/><path class="cls-6" d="M33.16,110c1.16.6,1.64,2.19,2.56,3.11a41.69,41.69,0,0,1,3,3.3c1.85,2.67,5,3.71,8.13,3.89,4.33.25,8.54-1.19,12.58-2.6,6.39-2.23,12.11-5.41,19.23-4.4a26.22,26.22,0,0,1,16.62,8.85c6.41,7.82,6.78,19.14,2.79,28.16-2.5,5.63-8.1,10.26-13.31,13.5-2.31,1.44-9.79,7.52-11.9,3.89-.4-.71,0-1.92-.29-2.67a8.51,8.51,0,0,0-2.15-2.59c-7.58-5.34-15.59-2.86-23.84-.43-7,2-13.69,3.71-21.06,2.59a13.07,13.07,0,0,1-5.46-1.84c-4.4-3-6.85-11.12-8.1-16.07-1.75-6.95-1.85-14.74,1.24-21.34s10-10.62,15.94-14.45a5.63,5.63,0,0,1,3-1.14A2.14,2.14,0,0,1,33.16,110Z"/><path class="cls-3" d="M32.55,110.64c4.25,3.41,5.88,8.91,11.76,10.22,7.78,1.73,15.6-2.56,22.71-5,9.36-3.27,19.85-1.47,26.79,6,6.26,6.72,7.31,16.83,4.59,25.32-2.67,8.32-9.51,13-16.41,17.6A32.7,32.7,0,0,1,78.32,167c-2.57,1.28-3.26,1.64-4.77-1.24-1.38-2.62-2.43-4.14-5.37-5.54-6.8-3.25-14.26-1.15-21.08.84-8.33,2.42-23.1,7-29.23-1.71-5.23-7.46-7.5-19.39-5.64-28.18a22.47,22.47,0,0,1,7.51-12.58c2.5-2.17,9.68-8.53,13.19-7.68,1.07.26,1.53-1.39.46-1.65-3.31-.8-6.37,2-9,3.75-3.62,2.4-7.22,5-9.84,8.54-5.39,7.23-5.49,17-3.43,25.45,1.53,6.3,3.92,15.06,10.63,17.64,9.49,3.65,20.19-.53,29.38-3,5.61-1.49,13.68-3,18.47,1.45,2.06,1.92,1.55,6,4.8,6.61,2.34.45,5-1.31,6.85-2.47a93,93,0,0,0,9.12-6.31,28.54,28.54,0,0,0,11.12-21.86c.28-8.2-3-16.31-9.67-21.29-8.9-6.69-18.72-6.13-28.6-2.36C57.33,117.66,50,121,43.64,118.91c-4.67-1.55-6.31-6.62-9.87-9.48C32.91,108.75,31.69,110,32.55,110.64Z"/><path class="cls-7" d="M86.05,133.52c-3.19-1.34-8.71-2.17-11.84-.36-2.94,1.69-3.6,5.32-3.64,8.42a29.64,29.64,0,0,0,1.07,8.69A7.44,7.44,0,0,0,76,155.45c4.92,2.17,12.22,1.66,15.43-3.27a17.64,17.64,0,0,0,2.23-8.12,8.76,8.76,0,0,0-1.27-4.32,30.64,30.64,0,0,0-4.21-4.83A6,6,0,0,0,86.05,133.52Z"/><path d="M86.23,132.89c-6-2.24-14-2.49-15.9,4.93-1.54,6-.59,15.84,6,18.46,5.53,2.21,13,1.1,16.06-4.43,3.93-7.08,1.18-15.2-6-18.9-.75-.39-1.42.75-.66,1.14,6.4,3.32,9.28,11.54,5.13,17.76-2.81,4.2-8.75,4.92-13.24,3.5-6.06-1.92-6.8-9.46-6.33-14.95.7-8.3,8.29-8.61,14.6-6.24C86.67,134.46,87,133.18,86.23,132.89Z"/><path class="cls-6" d="M82.4,138.69a6.8,6.8,0,0,0-1,0,3.78,3.78,0,0,0-2.6,1.14,4.78,4.78,0,0,0-1.06,2.38,12,12,0,0,0-.11,4,6.1,6.1,0,0,0,.79,2.44c.46.73,1.16,2.06,2,2.15a4.1,4.1,0,0,0,3.5-2,13.32,13.32,0,0,0,1-4.58,9.16,9.16,0,0,0-.43-4.31A2.41,2.41,0,0,0,82.4,138.69Z"/><path d="M82.4,138c-3.51-.14-5.19,2-5.5,5.37-.22,2.37.39,7.45,3.44,8,3.26.61,4.75-3.26,5.09-5.69.4-2.89.85-7.07-2.86-7.67-.83-.14-1.18,1.13-.35,1.27,3.93.64,2.31,11.43-1.54,10.52-2-.47-2.5-3.46-2.51-5.26,0-2.79.88-5.37,4.23-5.24C83.25,139.39,83.25,138.07,82.4,138Z"/><path class="cls-7" d="M63.69,134.27a4.59,4.59,0,0,0-.68-2.6l-1.14,2,2.94.15-1.28-1.67c.22,1.7-.09,1.91-.91.64a1.34,1.34,0,0,0-2.21.58c-1,2.42-.93,5.22-1.58,7.77-.88,3.48-1.78,7-2.67,10.43a1.33,1.33,0,0,0,1.62,1.62c3.81-1.05,7.5-.26,11.31-1.43l-1.67-1.27c0-1.29,1.12-1-1-1.32s-4.18-.32-6.25-.7l.92,1.62,1.53-7.27.76-3.64c.08-.4,1.14-3.57-.7-2.63-.78.4-.82,4-.89,4.72-.23,2.59-.8,5.15-.86,7.75a1.32,1.32,0,0,0,2.64,0c.09-4.16,1.17-8.31,1.78-12.38.19-1.24.23-2.61-1.33-2.86s-2.33,1.29-2.73,2.52c-1.35,4.16-1.85,8.81-2.74,13.09a1.32,1.32,0,0,0,.92,1.62c2.34.44,4.73.57,7.05,1,1.27.24,1.75.63,2.91,0A1.3,1.3,0,0,0,70,150.9l0-.42a1.33,1.33,0,0,0-1.67-1.27c-3.76,1.15-7.5.37-11.31,1.43l1.62,1.62Q60,147,61.38,141.83c.63-2.48.6-5.45,1.58-7.77l-2.21.59c2.45,2.55,4.42,1.6,5.33-1.81a1.34,1.34,0,0,0-1.27-1.67L61.87,131a1.34,1.34,0,0,0-1.14,2l.32,1.26c.05,1.69,2.69,1.7,2.64,0Z"/><path d="M60.86,131.54a37,37,0,0,1,5.47.18c.85.09.84-1.23,0-1.32a37,37,0,0,0-5.47-.18c-.84,0-.85,1.35,0,1.32Z"/><path d="M60,130.7c-1.21,7.45-3.2,14.84-4.86,22.21-.18.82,1.09,1.18,1.27.35,1.66-7.37,3.65-14.75,4.86-22.21.13-.83-1.14-1.19-1.27-.35Z"/><path d="M55.84,153.89q6.9-.13,13.78-.64c.84-.06.85-1.38,0-1.32q-6.89.51-13.78.64a.66.66,0,0,0,0,1.32Z"/><path d="M65.78,131.27Q64.17,140.1,63.23,149c-.09.85,1.23.84,1.32,0q.93-8.75,2.5-17.4c.15-.83-1.12-1.19-1.27-.35Z"/><path d="M64.06,149.86a54,54,0,0,0,6.1-.22c.84-.08.85-1.4,0-1.32a54,54,0,0,1-6.1.22.66.66,0,0,0,0,1.32Z"/><path d="M69.68,148.85,69.25,152c-.12.83,1.15,1.19,1.27.35L71,149.2c.11-.83-1.16-1.19-1.28-.35Z"/><path class="cls-7" d="M48.78,133.24l2.93-.16-.05-1.45a5.36,5.36,0,0,0-2.36,0,2.29,2.29,0,0,0-1.95,1.75c-.45,1.14-.28,2.65-.53,3.88s-.61,2.61-.85,3.93c-.49,2.78-.83,5.6-1.22,8.39A1.35,1.35,0,0,0,46,151.25c4.2.34,5,.91,5.95-3.23,1-4.75,1.56-9.49,2.42-14.26a1.33,1.33,0,0,0-1.62-1.62c-2.31.7-3.34,1.69-3.85,4.09-.87,4.11-1,8.23-2.19,12.32a1.32,1.32,0,0,0,2.55.7A56.1,56.1,0,0,0,51,140.93c.27-2.13-.1-5.47,2.47-6.25l-1.62-1.62c-.57,3.18-.75,6.41-1.4,9.58a29.58,29.58,0,0,1-1,4.68c-.78,2-1.22,1.47-3.4,1.29l1.28,1.67c.39-2.79.72-5.61,1.21-8.39.28-1.54.71-3,1-4.58.07-.38.26-2.88.38-3,.76-.74,3,.23,4.06-.64a2.2,2.2,0,0,0,.84-2.26,1.28,1.28,0,0,0-.92-.93c-1.56-.39-3.52,0-5.1.11s-1.7,2.73,0,2.64Z"/><path d="M48,131.19l7.21-.11a.66.66,0,0,0,0-1.32l-7.21.11a.66.66,0,0,0,0,1.32Z"/><path d="M47.38,130.35q-2.15,10.4-3.44,20.94c-.1.84,1.22.83,1.32,0q1.27-10.36,3.39-20.59c.17-.83-1.1-1.18-1.27-.35Z"/><path d="M51.56,150.73H45a.66.66,0,0,0,0,1.32h6.57a.66.66,0,0,0,0-1.32Z"/><path d="M54.59,130.22q-2.18,10.41-3.79,20.92c-.12.83,1.15,1.18,1.27.35q1.62-10.52,3.8-20.92c.17-.83-1.1-1.18-1.28-.35Z"/><path class="cls-7" d="M22,124.63l-1.26-.16c-1.9-.24-2.75,1.87-2.54,3.34.86,6.12-2.08,12.74-2,18.94l1.94-2.54-.67.24c-3.17,1.14-1.8,6.24,1.41,5.09l.66-.24a2.73,2.73,0,0,0,1.94-2.55c-.09-6.77,2.75-13.59,1.81-20.34l-2.55,3.34,1.26.15c3.36.43,3.33-4.85,0-5.27Z"/><path class="cls-7" d="M40.38,128.49l0-.24-2.64,2.63a32.91,32.91,0,0,0,5-.29l-3.24-3.25c-1.53,3.79-1.62,7.77-2,11.79-.05.56-1.13,7.63-1.08,7.65s2.72-1.39.35-.94a4.89,4.89,0,0,0-1.6.68l3.88,3c1-4.11-.41-7.56.16-11.72.42-3.09,1.59-6.12,0-9a2.67,2.67,0,0,0-4.56,0,31.92,31.92,0,0,1-3.79,5l-1,1c-1.4.82-1.38,1.17,0,1-1.29-2.09-3.07-6.36-3.21-8.71-.2-3.38-5.48-3.4-5.28,0,.18,3,1.56,5.88,2.63,8.66.71,1.84,1.77,4.43,3.75,5.25,4.47,1.86,9.48-6.51,11.4-9.53H34.66c.91,1.68-.76,5.56-.92,7.57-.25,3,.94,6.13.21,9.1a2.67,2.67,0,0,0,3.88,3c1-.58,2-.25,2.85-1.26,1.27-1.47,1.23-4,1.49-5.81.72-5.06.5-10.47,2.44-15.26.81-2-1.5-3.61-3.25-3.25a20.6,20.6,0,0,1-3.65.11c-1.29.08-2.82,1.15-2.64,2.64l0,.24c.41,3.32,5.69,3.36,5.28,0Z"/><path class="cls-7" d="M17.26,130.39a21.55,21.55,0,0,1-.41,4.54c-.87,3.29,4.21,4.69,5.09,1.4a28.78,28.78,0,0,0,.6-5.94,2.64,2.64,0,0,0-5.28,0Z"/><path class="cls-7" d="M21.83,132c-.44.55-.75,1.11-1.13,1.69s-.85.86-1.18,1.42c-.75,1.25-1,2.81-1.59,4.14a2.72,2.72,0,0,0,.95,3.61,2.66,2.66,0,0,0,3.61-.95c.31-.66.62-1.33.89-2s.36-1.4.64-2-.24.27.14-.08a4.17,4.17,0,0,0,.59-.67c.32-.42.49-1,.81-1.39a2.71,2.71,0,0,0,0-3.73,2.66,2.66,0,0,0-3.73,0Z"/><path class="cls-7" d="M23.42,138.92a6.94,6.94,0,0,1,1.88,2.8,3.92,3.92,0,0,0,3.28,2.07A4.68,4.68,0,0,0,32,142.4c.38-.38.63-.86,1-1.25s1-.88,1.48-1.38c2.27-2.52-1.45-6.26-3.73-3.74-.5.55-1.11,1-1.59,1.53a3.27,3.27,0,0,0-.63.82c-.3.81-.57-.75.62.13l.95.94c-.58-.9-.9-1.89-1.57-2.77a11,11,0,0,0-2.46-2.31,2.67,2.67,0,0,0-3.61.94,2.69,2.69,0,0,0,1,3.61Z"/><path class="cls-7" d="M26.85,142.48v.12l.09-.7,0,.11.27-.63c-.14.24,0,.16.29-.24s.49-.44.25-.29l.63-.27a.64.64,0,0,1-.23,0l.7-.09h-.12l.7.09a3.89,3.89,0,0,0-1.63,0,2.84,2.84,0,0,0-1.69,1.27,4.54,4.54,0,0,0-.38,2.3,2.64,2.64,0,1,0,5.27,0c0-.3,0-.6,0-.9l-.09.7,0-.07-.67,1.17.06-.05-1.16.67h.08l-.7.09h.09l-.7-.1a3.38,3.38,0,0,0,4.24-3.22,2.65,2.65,0,0,0-2.64-2.64,2.72,2.72,0,0,0-1.87.77,3,3,0,0,0-.77,1.87Z"/><path class="cls-7" d="M28,144.45l-1.1,2.5a1,1,0,0,0,.36,1.35,1,1,0,0,0,1.35-.35l1.1-2.5a1,1,0,0,0-.35-1.35,1,1,0,0,0-1.36.35Z"/><path d="M19.33,125.22h6.75a.66.66,0,0,0,0-1.32H19.33a.66.66,0,0,0,0,1.32Z"/><path d="M18.11,124.35q-2,12.18-3.16,24.43c-.08.84,1.24.84,1.32,0q1.2-12.09,3.12-24.07c.13-.84-1.14-1.19-1.28-.36Z"/><path d="M15.79,149.85a42.64,42.64,0,0,1,5.3.23c.84.09.84-1.23,0-1.32a42.64,42.64,0,0,0-5.3-.23.66.66,0,0,0,0,1.32Z"/><path d="M21.68,149.5a27.92,27.92,0,0,1,2.86-10.39c.38-.75-.76-1.42-1.14-.66a29.82,29.82,0,0,0-3,11.05c-.07.85,1.25.84,1.32,0Z"/><path d="M23.34,139c1.42,3.68,2.58,7.45,3.73,11.22a.66.66,0,0,0,1.28-.35c-1.16-3.78-2.32-7.54-3.74-11.22-.3-.79-1.58-.45-1.27.35Z"/><path d="M28.45,150.2c.38-1.79,2-3.51,3-5l3.2-4.87c.47-.71-.68-1.37-1.14-.67l-3.62,5.52c-1,1.45-2.31,3-2.67,4.68-.17.83,1.1,1.18,1.27.35Z"/><path d="M33.35,139.84a84.67,84.67,0,0,1-.07,10.92c-.06.84,1.26.84,1.32,0a84.67,84.67,0,0,0,.07-10.92c-.05-.84-1.37-.85-1.32,0Z"/><path d="M33.88,151.52h6.44a.66.66,0,0,0,0-1.32H33.88a.66.66,0,0,0,0,1.32Z"/><path d="M25.5,124.84c1,3.5,2.65,6.69,3.45,10.29.18.83,1.45.48,1.27-.35-.8-3.6-2.44-6.79-3.45-10.29a.66.66,0,0,0-1.27.35Z"/><path d="M30,135.46q3.53-4.54,7.21-8.93c.54-.65-.38-1.59-.93-.94q-3.69,4.4-7.21,8.94c-.51.66.41,1.6.93.93Z"/><path d="M36.58,126.57a78.38,78.38,0,0,1,8.11.26c.84.07.84-1.25,0-1.32a78.38,78.38,0,0,0-8.11-.26.66.66,0,0,0,0,1.32Z"/><path d="M44.28,126c-2.25,8-2.36,16.44-4.48,24.49a.66.66,0,0,0,1.27.36c2.13-8.06,2.24-16.47,4.48-24.5a.66.66,0,0,0-1.27-.35Z"/><path class="cls-8" d="M57.35,127.59A13.85,13.85,0,0,1,58,122l-1.21.16a15.55,15.55,0,0,1,2.36,5.59c.17.79,1.21.5,1.29-.18l.79-6.29c.1-.84-1.22-.83-1.32,0l-.78,6.29,1.29-.17a16.6,16.6,0,0,0-2.49-5.91.66.66,0,0,0-1.2.16,14.85,14.85,0,0,0-.7,6c.07.84,1.39.85,1.32,0Z"/><path class="cls-8" d="M62.16,126c1.28.17,3-.36,2.93-1.94a1.62,1.62,0,0,0-2.75-1.15,4,4,0,0,0-.42,4.17c.83,1.38,2.54,1.13,3.52.09.58-.62-.35-1.56-.93-.94-.35.37-.92.73-1.36.3s-.3-1.29-.21-1.8c0-.28.34-1.43.76-.8s-.83.84-1.19.79c-.83-.11-1.19,1.16-.35,1.28Z"/><path class="cls-8" d="M70.31,123.24a3.91,3.91,0,0,0-2.66-.72,1.32,1.32,0,0,0-1.14,1.54c.19.88,1.09,1.41,1.85,1.75a6.08,6.08,0,0,0,.64.25c.26.08.3,0-.07.21a2.37,2.37,0,0,1-1.43.31c-.84-.09-.83,1.23,0,1.32,1.11.12,3.74-.82,3-2.39-.32-.69-1.34-.74-1.94-1.07-.2-.11-.53-.24-.62-.45s-.2-.13.08-.19a2.86,2.86,0,0,1,1.63.58c.72.45,1.38-.69.66-1.14Z"/><path class="cls-8" d="M72,125.51c1.53,0,3.07,0,4.61,0a.66.66,0,0,0,0-1.32c-1.54,0-3.08,0-4.61,0a.66.66,0,0,0,0,1.32Z"/><path class="cls-8" d="M73.35,122a42.62,42.62,0,0,0,0,6,1.91,1.91,0,0,0,2.17,1.72c.83-.1.84-1.42,0-1.32-1.24.13-.87-2.78-.87-3.37v-3a.66.66,0,0,0-1.32,0Z"/><path class="cls-8" d="M78.46,122.45l-.28,6c0,.85,1.28.85,1.32,0l.28-6c0-.85-1.28-.85-1.32,0Z"/><path class="cls-8" d="M81.39,127.5c1.27.17,3-.56,2.73-2.1a1.63,1.63,0,0,0-2.75-.88,3.74,3.74,0,0,0-.44,3.88c.8,1.41,2.55,1.2,3.57.18a.66.66,0,0,0-.93-.94c-.42.42-1.14.72-1.51.1a2.65,2.65,0,0,1,0-1.76,1.13,1.13,0,0,1,.25-.53c.22-.16.51-.11.53.21,0,.62-1.07.57-1.44.52-.83-.11-.83,1.21,0,1.32Z"/><path class="cls-8" d="M86.26,129.33a.66.66,0,0,0,0-1.32.66.66,0,0,0,0,1.32Z"/><path class="cls-8" d="M81.37,123.43c.85,0,1.69,0,2.53,0s.85-1.37,0-1.32-1.68.06-2.53,0-.85,1.29,0,1.32Z"/><path class="cls-8" d="M62.69,121.66c2.26,0,4.51-.07,6.77-.21.84-.06.85-1.38,0-1.32-2.26.14-4.51.21-6.77.21a.66.66,0,0,0,0,1.32Z"/><path class="cls-1" d="M108,91.66c10.84-7.28,21.49-14.55,32.88-20.89"/><path class="cls-3" d="M108.46,92.52C119.24,85.27,130,78,141.34,71.62c1.11-.62.11-2.33-1-1.7-11.34,6.36-22.1,13.64-32.88,20.89-1,.7-.06,2.42,1,1.71Z"/><path class="cls-3" d="M139.85,70.77c-1.16,42.76-1.13,85.6-1.28,128.38a18.73,18.73,0,0,1,0,4.1c-.36,1.38-2.15,2.57-3.2,3.69-1.88,2-3.71,4.05-5.53,6.11-7.48,8.5-14.63,17.39-23.14,24.91-1,.84.44,2.24,1.4,1.4,7.74-6.84,14.35-14.84,21.13-22.6,3-3.39,5.92-6.76,9-10,1.84-1.91,2.27-2.12,2.29-4.44q.06-12.56.13-25.12.27-38.83.7-77.66c.11-9.59.18-19.18.45-28.77a1,1,0,0,0-2,0Z"/></g></g></svg>