<?xml version="1.0" encoding="utf-8"?>
<!-- Generator: Adobe Illustrator 23.0.6, SVG Export Plug-In . SVG Version: 6.00 Build 0)  -->
<svg version="1.1" id="Layer_1" xmlns="http://www.w3.org/2000/svg" xmlns:xlink="http://www.w3.org/1999/xlink" x="0px" y="0px"
	 viewBox="0 0 216.7 202.2" style="enable-background:new 0 0 216.7 202.2;" xml:space="preserve">
<style type="text/css">
	.st0{opacity:0.3;}
	.st1{fill:#353535;}
	.st2{fill:#444444;}
	.st3{fill:#EACA60;}
	.st4{fill:#BCBBAF;}
	.st5{fill:#00B572;}
	.st6{opacity:0.5;}
	.st7{fill:#E8E2A7;}
	.st8{fill:#BCA15E;}
</style>
<title>Asset 26</title>
<g class="st0">
	<path class="st1" d="M0,174c0.3,4.2,1.2,8.3,2.5,12.2c0.2,0.8,1.1,1.3,1.9,1c0.1,0,0.2-0.1,0.3-0.1c1.3-0.9,2.5-2.1,3.4-3.5
		c0.6-0.8,1.1-1.7,1.7-2.5c0.2-0.4,1.4-1.6,0.5-1.2l-1.5-0.4c1.5,1.3,3.4,8.5,6.8,6.5c1.2-0.7,1.9-2.9,2.4-4.1
		c0.9-2.6,1.5-5.3,1.8-8.1c0.3-1.9-2.6-2.7-2.9-0.8c-0.5,3-0.7,6.9-2.5,9.5c-0.4,0.6,0.6,0.6,0,0.3s-1.2-1.6-1.6-2.2
		c-0.5-1.2-1.1-2.3-1.9-3.2c-0.4-0.4-1-0.5-1.5-0.3c-2.9,1.2-3.6,5.8-6.3,7.5l2.2,0.9c-1.3-3.7-2.1-7.5-2.5-11.4
		C2.8,172.1-0.2,172.1,0,174z"/>
	<path class="st1" d="M24,180.5c2.4-0.2,8.5,0.5,7.7-3.6c-0.6-2.9-3.7-6.1-6.7-3.8c-2.5,1.9-4,6.6-2.7,9.6c1.5,3,5,4.5,8.2,3.4
		c1.8-0.6,1-3.5-0.8-2.9c-1.4,0.6-3.1,0.2-4.2-0.9c-1.2-1.5-0.6-3.5,0.2-5c0.3-0.6,0.8-2,1.6-1.9c0.5,0.1,1.7,1.8,1.5,2.2
		c0.5-0.7-1.2-0.3-1.5-0.3l-3.2,0.2C22.1,177.6,22.1,180.6,24,180.5L24,180.5z"/>
	<path class="st1" d="M38.9,179c2.8,0.5,7.9,0.1,7.2-4.1c-0.6-3.6-5.1-4.1-7.4-1.9c-2.5,2.6-3.1,6.5-1.3,9.7
		c1.6,2.7,5.1,3.7,7.9,2.1c0.3-0.1,0.5-0.3,0.7-0.5c1.5-1.2-0.6-3.3-2.1-2.1c-1.2,0.7-2.7,0.5-3.5-0.6c-0.9-1.2-1.1-2.8-0.7-4.3
		c0.3-1.1,1.2-2.9,2.7-2.6c1.1,0.2,1,1,0.1,1.5c-0.9,0.3-1.8,0.3-2.6,0C37.9,175.8,37.1,178.7,38.9,179L38.9,179z"/>
	<path class="st1" d="M50.7,171.1c0.6,5,0.8,10.1,0.7,15.2c0,1.9,3,1.9,3,0c0.1-5.1-0.1-10.2-0.7-15.2
		C53.5,169.2,50.5,169.2,50.7,171.1z"/>
	<path class="st1" d="M59.3,173.5c-1.7,1.2-3.4,2.3-5.1,3.5c-1,0.7-2.2,1.5-1.9,3c0.3,1.3,2.1,2.1,3,2.8l5,3.7
		c1.6,1.1,3.1-1.5,1.5-2.6l-3.5-2.5c-0.9-0.6-2.9-1.6-3.4-2.6l0.2,1.2c0.2-0.6,2.3-1.6,2.8-1.9l2.9-2
		C62.4,175,60.9,172.4,59.3,173.5L59.3,173.5z"/>
	<path class="st1" d="M66,170.9c0.1,4.8-1,10.5,0.6,15.1c1.5,4.5,7.2,1.4,9.9-0.2c0.7-0.5,0.8-1.4,0.4-2.1c-0.4-0.6-1.2-0.8-1.9-0.5
		c-1.1,0.6-4.4,2.8-5.6,1.7c-0.6-0.5-0.4-3.1-0.4-3.9c0-3.4,0.1-6.7,0-10.1C69,169,66,169,66,170.9L66,170.9z"/>
	<path class="st1" d="M78.6,173.4c0.5,2.8,0.7,8.1,4.5,8.6c3.4,0.4,5.9-4.3,7.2-6.7l-2.8-0.8c0.3,3.3,1.3,7,1.1,10.3
		c-0.1,1.7-1.7,8.8-4.2,4.7c-1-1.6-3.6-0.1-2.6,1.5c2,3.3,6.5,3.8,8.2,0.1c2.5-5.5,1.1-10.8,0.6-16.6c-0.1-1.4-2.1-2.2-2.8-0.8
		c-0.6,1.2-2.8,6-4.9,4.6c-0.9-0.6-1.1-4.7-1.2-5.7C81.2,170.7,78.3,171.6,78.6,173.4L78.6,173.4z"/>
	<path class="st1" d="M109.1,172.5c0.3,6.1,0.4,12.2,0.2,18.4c-0.1,1.9,2.9,1.9,3,0c0.2-6.1,0.1-12.2-0.2-18.4
		C112,170.6,109,170.6,109.1,172.5z"/>
	<path class="st1" d="M111.8,174.9c1.1-0.9,3.3-0.5,3.6,1.1s-1.9,2.8-3.2,2.1c-1.7-0.9-3.2,1.7-1.5,2.6c3.3,1.8,8-0.9,7.7-4.8
		c-0.3-3.7-5.2-5.9-8.1-3.6C108.8,173.5,110.3,176.1,111.8,174.9L111.8,174.9z"/>
	<path class="st1" d="M121.9,173.9l0.3,10.6l2.9-0.4c-0.6-2.9-0.3-7.4,3.6-7.4c0.8,0,1.5-0.7,1.5-1.5s-0.7-1.5-1.5-1.5
		c-6.1,0-7.5,6.4-6.5,11.2c0.3,1.7,3,1.3,3-0.4l-0.3-10.6C124.9,172,121.9,171.9,121.9,173.9L121.9,173.9z"/>
	<path class="st1" d="M138,185.6c4.2-1.1,4.7-6.1,3.1-9.5c-0.8-1.7-2.5-2.9-4.4-2.3c-3.2,1.1-5.4,6-4.5,9.2
		C133,185.5,135.7,186,138,185.6c1.9-0.3,1.1-3.2-0.8-2.9c-0.6,0.2-1.3,0.1-1.8-0.1c-0.2-0.2-0.3-0.4-0.4-0.7
		c-0.1-1.4,0.4-2.8,1.2-3.9c0.3-0.4,0.7-0.8,1.1-1.1c0.1-0.1,0.3-0.2,0.4-0.2c0,0,0.1,0,0.1,0c0.1,0.1,0.2,0.2,0.4,0.4
		c0.2,0.3,0.4,0.7,0.5,1.1c0.5,1.6,0.6,4.1-1.5,4.6c-0.8,0.3-1.2,1.1-1,1.9C136.5,185.3,137.2,185.7,138,185.6z"/>
	<path class="st1" d="M154.9,170.2c-2.4-1.5-5.6-1.2-7.6,0.8c-2,2.1-2.2,5.3-0.4,7.6c1.6,2.4,4.8,3.1,7.2,1.5
		c0.1-0.1,0.2-0.1,0.3-0.2c2.5-2,3.4-5.4,2.2-8.4c-0.7-1.8-3.6-1-2.9,0.8c0.6,1.5,0.5,3.2-0.5,4.5c-0.7,1.1-2.1,1.5-3.2,0.8
		c-0.3-0.2-0.6-0.5-0.8-0.8c-1.9-2.8,1.5-5.7,4.2-4C155,173.9,156.5,171.3,154.9,170.2L154.9,170.2z"/>
	<path class="st1" d="M154.1,172.8c1.6,5.7,2.8,11.7,1.6,17.6c-0.4,2.2-1.2,5-2.6,6.8c-3.5,4.3-8.3,0.4-10.1-3.3
		c-0.8-1.8-3.4-0.2-2.6,1.5c2.6,5.5,10.5,10.1,14.8,4c5.6-7.9,4.2-18.6,1.8-27.4c-0.3-0.8-1.2-1.2-1.9-0.9
		C154.3,171.4,153.9,172.1,154.1,172.8L154.1,172.8z"/>
	<path class="st1" d="M163.2,172.8c0.6,4.2,1,8.4,1.2,12.6h3c-0.4-3.2-0.9-9.3,3.8-9.6c1.9-0.1,1.9-3.1,0-3
		c-6.6,0.4-7.3,7.4-6.8,12.6c0.2,1.9,3.1,2,3,0c-0.2-4.5-0.7-8.9-1.3-13.4C165.8,170.1,162.9,170.9,163.2,172.8z"/>
	<path class="st1" d="M178.3,173.7l7.4-1.4c1.9-0.4,1.1-3.2-0.8-2.9l-7.4,1.4C175.6,171.1,176.4,174,178.3,173.7z"/>
	<path class="st1" d="M178.8,180.4l7.2-1.2c1.9-0.3,1.1-3.2-0.8-2.9l-7.2,1.2C176.1,177.8,176.9,180.7,178.8,180.4L178.8,180.4z"/>
	<path class="st1" d="M176.4,172.2c0,2.4,0.1,4.8,0.3,7.1c0.2,2.2,0.2,4.9,1,6.9c1.2,3.5,6.8,1.3,9.3,0.5c1.8-0.6,1-3.5-0.8-2.9
		c-1.5,0.6-3,1-4.6,1.1c-1.3,0-0.7,0.4-1.2-0.5c-0.4-0.7-0.3-2.4-0.4-3.2c-0.4-3-0.5-6.1-0.5-9.1c0-0.8-0.7-1.5-1.5-1.5
		S176.4,171.4,176.4,172.2L176.4,172.2z"/>
	<path class="st1" d="M201.6,172.6c-2-0.7-4.1-0.6-6,0.3c-1.5,0.7-2.3,2.3-1.9,3.9c0.5,1.7,2.1,2.9,3.6,3.7c1.1,0.6,2.8,1.6,0.7,2.1
		c-1.3,0.3-2.8,0-3.9-0.8c-1.6-1.1-3.1,1.5-1.5,2.6c2.4,1.8,9,2.3,9.5-1.9c0.3-2-1.3-3.4-2.9-4.4c-0.6-0.4-2.8-1.3-2.7-2.2
		c0.2-1.6,3.5-0.8,4.2-0.6c0.8,0.2,1.6-0.3,1.8-1.1C202.7,173.6,202.3,172.8,201.6,172.6L201.6,172.6z"/>
	<path class="st1" d="M215.7,172.3c-1.9-0.7-4.1-0.6-5.9,0.3c-1.5,0.7-2.4,2.4-2,4c0.5,1.7,2.1,2.9,3.6,3.7c1.1,0.6,2.8,1.6,0.7,2.1
		c-1.3,0.3-2.8,0-3.9-0.8c-1.6-1.1-3.1,1.5-1.5,2.6c2.5,1.8,9,2.3,9.5-1.9c0.3-2-1.3-3.4-2.9-4.3c-0.6-0.4-2.8-1.3-2.7-2.2
		c0.2-1.6,3.5-0.8,4.2-0.6c0.8,0.2,1.6-0.4,1.8-1.2C216.7,173.3,216.3,172.6,215.7,172.3L215.7,172.3z"/>
</g>
<path class="st2" d="M204,95.7L61.7,148.2c-3.4,1.3-7.2-0.2-8.9-3.5L8,56.8c-1.8-3.5-0.4-7.8,3.1-9.6c0.3-0.2,0.7-0.3,1-0.4
	L143.5,3.2c3-1,6.3,0.1,8.1,2.7l55.8,79c2.3,3.3,1.5,7.7-1.8,10C205.1,95.2,204.6,95.5,204,95.7z"/>
<path d="M203.8,95.1L103.8,132c-13.8,5.1-27.5,10.8-41.5,15.3c-7.3,2.3-9.4-4-12-9.1l-12.9-25.4L9.9,59.2c-1.6-3.1-3.3-6.2-0.6-9.6
	c1.5-1.8,3.4-2.3,5.5-3l18.8-6.2l64.8-21.5c14.8-4.9,29.5-10.4,44.5-14.8c6.7-1.9,9.3,3.7,12.5,8.2l16.8,23.7l33.6,47.6
	c2.8,4,3.3,9-2.1,11.5c-0.8,0.3-0.1,1.4,0.6,1.1c4.1-1.7,6-6.3,4.3-10.4c-0.2-0.5-0.5-1-0.8-1.5c-1-1.7-2.3-3.2-3.4-4.8l-17.5-24.8
	c-11.4-16.1-22.5-32.4-34.2-48.3c-3.4-4.7-7.6-4.4-12.4-2.8l-21.4,7.1L50.4,33.4l-28,9.3c-3.9,1.3-9.1,2.1-12.5,4.5
	c-6.3,4.4-1.9,11.1,0.7,16.1l14.1,27.6c9.1,17.8,17.8,35.7,27.2,53.3c2.8,5.2,7.3,5.6,12.3,3.8l19-7l118.2-43.6l2.8-1
	C204.9,96.1,204.6,94.8,203.8,95.1z"/>
<path class="st3" d="M52.5,129.9h-0.3c-1.2,0-2.2,0.8-2.5,1.9l-0.1,0.2c-0.4,1.4,0.4,2.8,1.8,3.2l0.5,0.1l-1.9-2.5
	c0.2,2.1,1,4.6,3.7,4.4l-2.5-3.3c-0.3,1.4-0.6,2.6,0.4,3.8c0.1,0.1,0.9,1,0.7,0.6c0.2,0.7,0.5,1.3,0.8,1.9c0.8,1.2,2.9,1.9,4,0.5
	l0.4-0.5l-4.4-1.8c-0.1,1.1,0.2,2.2,0.8,3.1c0.3,0.4,0.8,0.7,1,1.1c-0.5-0.9,0.1,0.5,0.2,0.7c1.5,1.8,3.8,2.2,6,2.3
	c3.3,0.2,3.3-4.9,0-5.1c-1-0.1-1.6-0.1-2.2-0.8c-0.2-0.3-0.4-0.7-0.6-1c-1-1.1-0.1,0.9-0.1-0.4c0.1-2.1-3-3.6-4.4-1.8l-0.4,0.6
	l4,0.5c-0.4-0.6-0.4-1.4-0.7-2s-1-1-1.5-1.5l0.8,1.8c0-0.2,0.1-0.4,0.1-0.6c0.3-1.5-0.7-3.4-2.5-3.3c1.3,1.8,1.8,2,1.5,0.8
	c0-1.1-0.8-2.2-1.9-2.5l-0.5-0.1l1.8,3.2l0.1-0.2l-2.4,1.8h0.3C55.8,134.9,55.8,129.8,52.5,129.9L52.5,129.9z"/>
<path class="st3" d="M87.2,118.7c-5.5,0.4-10.5,3.6-15.8,4.9c-1.4,0.4-2.2,1.8-1.8,3.2c1.1,4,3.3,7.4,4.1,11.6
	c0.4,1.4,1.8,2.2,3.2,1.8c5.2-1.5,11.3-3,16-5.7c3.5-2,1.2-5.1,0.1-8c-1.2-3.1-2.6-5.5-6.5-4.7c-2.8,0.7-5.5,1.6-8.1,2.7
	c-1.4,0.5-2.8,0.8-3.5,2.2c-1.3,2.6,0.6,7.2,3.1,8.4c1.8,0.9,3.3,0.3,5.1-0.3c2.3-0.8,5.6-1.4,7.6-2.8s2-4.2,0.3-5.9
	c-2.9-2.8-8.7,0.1-11.7,1.3c-3,1.2-1.7,6.2,1.4,5c1.3-0.5,2.7-1,4-1.4l1.4-0.4c1.4,0.1,1.7-0.2,1-0.9l1.3-2.2c-1.7,1-4.1,1.5-6,2.2
	c-0.4,0.1-3.5,1-2.5-0.3c-0.6,0.8,1.8-0.4,2-0.5c0.9-0.3,5.2-2.3,5.9-1.9c0.8,1.6,1.5,3.3,2,5l1.3-2.2c-2,1.5-5.1,2.1-7.3,3
	c-2.7,1-5.4,1.9-8.1,2.7l3.2,1.8c-0.8-4.2-3-7.6-4.1-11.6l-1.8,3.2c4.8-1.2,9.5-4.3,14.4-4.7c3.3-0.3,3.3-5.4,0-5.2L87.2,118.7z"/>
<path class="st3" d="M102.6,117.7c4.6-0.2,7.7-2.3,12.1-3.7c2-0.6,5.5-2.5,7.6-2c2.3,0.5,3.6,4.7,4.3,6.8l1.2-2.9
	c-2.9,1.6-6.1,1.6-9.1,3.2c-3.3,1.8-7.3,2.3-10.3,4.5l3.1,0.4l-6-7.1l-1.1,4.3c3-1.1,5.9-2.1,8.9-3c1.1-0.3,10.6-2.3,8.6-4.6
	c-0.1-0.1-7.7,2.3-8.5,2.5c-2.2,0.3-4.3,1.1-6.2,2.2c-1.7,1.1-1.7,4.3,0.6,4.7c2.1,0.3,4.2,0.3,6.2-0.2c3.2-0.8,1.8-5.7-1.4-5
	c-1.1,0.4-2.3,0.4-3.5,0.2l0.6,4.7c3.2-2,20.2-2.6,16.6-9.4c-1.6-3-4.9-2.6-7.6-1.9c-5.3,1.3-10.6,3-15.8,4.9
	c-1.4,0.4-2.2,1.9-1.7,3.3c0.1,0.4,0.3,0.7,0.6,1l6,7.1c0.8,0.8,2.1,1,3.1,0.4c3.1-2.3,7.7-3.3,11.3-4.9c2.6-1.1,5.5-1.3,8.1-2.8
	c1-0.6,1.5-1.8,1.2-2.9c-1.4-4.3-3.8-11.2-9.5-10.9c-6.8,0.3-12.8,5.8-19.4,6C99.3,112.7,99.3,117.8,102.6,117.7L102.6,117.7z"/>
<path class="st3" d="M159.8,98.4l-0.3-1.2c-0.3-1.1-1.4-1.9-2.5-1.9l0.9,0.4c-0.8-0.8-2.1-1-3.1-0.4c-2.2,1.5-4.8,1.7-7.3,2.4
	c-2.8,0.8-5.6,1.8-8.3,2.8c-1.4,0.4-2.2,1.9-1.8,3.2c0.1,0.4,0.3,0.8,0.6,1.1c1.1,1.2,3.2,2.8,3.7,4.5c0.1,0.9,0.3,1.3,0.9,1
	c-1.1,0.7-2.3,1.2-3.6,1.5l1.4,5c4.5-1.5,8.7-3.6,13.1-5.3c2-0.7,4.1-1.2,6.2-1.8c1.8-0.6,3.4-1.7,5.2-2s2.2-2.4,1.5-3.8
	c-2.3-4.8-5.2-5.2-9.9-3.8c-3.7,1.1-10.7-0.1-13.5,3.1c-2.2,2.5,0,5.6,2.8,6.1c5.1,1,11.9-2.3,16.6-3.8c1.4-0.4,2.2-1.9,1.8-3.3
	c-0.1-0.2-0.1-0.4-0.2-0.5l-0.5-2.2c0-1.4-1.2-2.6-2.6-2.6c-0.4,0-0.9,0.1-1.2,0.3c-3.5,2.2-7.1,4.3-10.8,6.3
	c-3.1,1.6-6.5,2.9-9.3,5.1c-2.1,1.7-8.5,8.7-1.9,9.2l-0.7-5c-2,0.8-4.1,1.4-6.3,1.9c-3.2,0.7-1.9,5.7,1.4,5c2.1-0.5,4.2-1.1,6.3-1.9
	c1.3-0.5,2-2,1.6-3.3c-0.3-1-1.2-1.6-2.2-1.7h-0.3l2.2,1.3l-0.2-0.3v2.6c2-4,6.9-5.7,10.6-7.6c4.2-2.2,8.2-4.5,12.2-7l-3.9-2.2
	c0.1,1.7,0.5,3.3,1.2,4.8l1.5-3.8c-2.6,0.8-5.3,1.7-7.9,2.4c-1.1,0.3-2.9,0.4-3.9,1c-0.8,0-1.2,0.5-1.2,1.4
	c-0.9,1.4-0.7,1.7,0.8,0.9c3.3,0.2,11.5-3.2,13.1,0.1l1.5-3.8c-1.5,0.4-2.9,1-4.3,1.7c-2.3,0.9-4.8,1.3-7.1,2.2
	c-4.4,1.6-8.6,3.8-13.1,5.3c-3.1,1-1.9,5.8,1.4,5c2.6-0.7,7.5-2.1,7.6-5.3c0.1-3.8-3.9-7.8-6.3-10.3l-1.1,4.3
	c3.2-1.1,6.3-2.3,9.6-3.1c2.6-0.7,5-1,7.3-2.6l-3.1-0.4c0.7,0.8,1.7,1.3,2.8,1.1l-2.5-1.9l0.3,1.2c0.7,3.2,5.7,1.9,5-1.4L159.8,98.4
	z"/>
<path class="st3" d="M175.9,90.9L175.9,90.9l-1.8,3.2c4.5-1,9-3,13.3-4.5l-2.5-0.7c2.6,2.2,5.1,4.5,7.3,7.1l1.1-4.3
	c-3.8,1.5-7.6,3.2-11.4,4.6c-0.9,0.3-1.8,0.6-2.8,0.8c0-0.3,1.8-1,2.1-1.1c1.2-0.6,5.1-3,6.5-2.7l-1.8-1.8c0.1,0.4-6.2,3.3-6.7,3.6
	c-2.9,1.5-0.4,5.9,2.6,4.4s12.5-4.9,8.8-10c-1.4-1.9-3.6-1.7-5.6-0.9c-2.7,1.1-6.1,2.2-8.5,4c-3.7,2.6-1.5,7.4,2.2,8.9
	c2.2,0.9,3.8,0,5.9-0.9l10.1-4c1.4-0.4,2.2-1.9,1.7-3.3c-0.1-0.4-0.3-0.7-0.6-1c-2.7-3.1-6.4-8.5-10.9-7.4c-4.2,1-8.1,3.3-12.3,4.2
	c-1.4,0.4-2.2,1.8-1.8,3.2c0.4,1.3,1.2,2.4,2.4,3.1C176,97.3,178.6,92.9,175.9,90.9L175.9,90.9z"/>
<path class="st3" d="M205.2,83.5l0.7-0.7l-4-0.5c0.7,1.1,1.3,2.3,1.8,3.6c0.5,1.9-0.4,2.2-1.9,2.8c-2.1,0.8-4,2.3-6.4,2.5
	c-3.3,0.2-3.3,5.3,0,5.1c2.2-0.2,4.4-0.8,6.3-1.9c1.7-0.9,3.7-1.2,5.1-2.5c3.9-3.6,1.8-8.4-0.4-12.2c-0.7-1.2-2.3-1.6-3.5-0.9
	c-0.2,0.1-0.3,0.2-0.5,0.4l-0.7,0.7C199.2,82.1,202.8,85.8,205.2,83.5L205.2,83.5z"/>
<path class="st2" d="M204.9,93.2L62.6,145.6c-3.4,1.2-7.2-0.2-8.9-3.5L8.9,54.3c-1.8-3.5-0.4-7.8,3.1-9.6c0.3-0.2,0.7-0.3,1-0.4
	L144.4,0.7c3-1,6.3,0.1,8.1,2.7l55.8,79c2.3,3.2,1.5,7.7-1.7,10C206,92.7,205.4,92.9,204.9,93.2z"/>
<path d="M204.7,92.5l-100,36.9c-13.8,5.1-27.5,10.8-41.5,15.3c-7.3,2.3-9.4-4-12-9.1l-13-25.4L10.8,56.6c-1.6-3.1-3.3-6.2-0.6-9.6
	c1.5-1.8,3.4-2.3,5.5-3l18.8-6.2l64.8-21.5c14.8-4.9,29.5-10.4,44.5-14.8c6.7-1.9,9.3,3.7,12.5,8.2L173,33.5l33.6,47.6
	c2.8,4,3.3,9.1-2.1,11.5c-0.8,0.3-0.1,1.4,0.6,1.1c4.8-2.2,6.3-7.4,3.5-11.9c-1-1.7-2.3-3.2-3.4-4.8l-17.5-24.8
	C176.3,36,165.2,19.7,153.6,3.8c-3.4-4.7-7.6-4.3-12.4-2.8l-21.4,7.1L51.3,30.9l-28,9.3c-3.8,1.3-9.1,2.1-12.5,4.5
	C4.5,49.1,9,55.8,11.5,60.8l14,27.6c9.1,17.8,17.8,35.7,27.2,53.3c2.8,5.2,7.3,5.6,12.3,3.8l19-7l118.2-43.6l2.8-1
	C205.8,93.5,205.5,92.2,204.7,92.5z"/>
<path d="M83.6,36.2c0.2,0,0.3-0.1,0.3-0.3c0-0.2-0.1-0.3-0.3-0.3c-0.2,0-0.3,0.1-0.3,0.3C83.3,36.1,83.4,36.2,83.6,36.2z"/>
<path class="st4" d="M56.8,87l-11.7,4.6c-1.6,0.6-4.5,0-5.1-1.6l-4.8-9.4c-0.6-1.6,0-4.4,1.7-5l12.7-4.3c1.6-0.6,3.5,0.2,4.1,1.8
	l4.9,9.8C59.2,84.5,58.4,86.4,56.8,87z"/>
<path d="M56.7,86.7c-3.7,1.5-7.7,3.6-11.6,4.6c-4.1,1-5.2-2.2-6.6-5c-1.3-2.5-4.8-7.3-2-9.8c1.6-1.4,4.5-1.9,6.5-2.6
	s4.6-2.2,6.6-2.3c3.7,0,4.5,2.8,5.8,5.4C56.5,79.4,60.4,84.6,56.7,86.7c-0.2,0.2-0.3,0.4-0.1,0.5c0.1,0.1,0.2,0.1,0.4,0.1
	c4.8-2.8-0.4-9.2-2.1-12.6c-0.8-1.6-1.4-3.4-3.3-3.9s-5,1.1-6.8,1.8c-3.7,1.2-11.2,2.1-9.9,7.7c0.5,2.2,2.1,4.3,3.1,6.3
	c0.8,1.7,1.6,4,3.3,5c2.4,1.4,5,0,7.3-0.9l8.5-3.3C57.3,87.2,57.1,86.6,56.7,86.7z"/>
<path class="st2" d="M42.6,80.2L42.6,80.2c0,0.5,0,0.9,0.2,1.3c0.4,1,1.2,1.8,2.2,2.1c1,0.3,2.1,0.3,3.1,0c1.1-0.3,2-0.9,2.7-1.7
	c1.7-2.4-0.2-5.7-2.8-6.4S42.7,77.7,42.6,80.2z"/>
<path d="M42,80.2c-0.2,6.4,11,5.2,10.1-0.9c-0.4-2.5-2.5-4.3-4.9-4.4C44.3,74.9,42.2,77.6,42,80.2c-0.1,0.8,1.2,0.8,1.3,0
	c0.2-2,1.6-3.6,3.5-4c1.8-0.1,3.5,1.1,3.9,2.9c1.3,4.6-7.6,6-7.4,1.1C43.3,79.4,42,79.4,42,80.2z"/>
<polygon class="st5" points="52.6,97.1 57.6,105.5 45.7,108.9 "/>
<path d="M52.3,97.2l2.9,4.8c0.5,1,1.1,2,1.7,2.9c0.2,0.2,0.3,0.4,0.4,0.7c-0.2-0.6,0.5-0.3-0.2-0.3c-0.9,0.1-1.8,0.4-2.7,0.7
	l-3.8,1.1l-5.1,1.4L46,109l6.9-11.8c0.1-0.2,0-0.4-0.2-0.4c-0.1-0.1-0.3,0-0.4,0.1l-7,11.8c-0.1,0.2,0,0.3,0.1,0.4
	c0.1,0,0.2,0.1,0.2,0l12-3.3c0.2-0.1,0.3-0.2,0.2-0.4c0,0,0,0,0-0.1l-5-8.4C52.7,96.6,52.1,96.9,52.3,97.2z"/>
<polygon class="st5" points="159,39.7 153,31.3 165.3,27.6 "/>
<path d="M159.3,39.6l-3.5-4.8c-0.7-1-1.4-2-2.1-3c-0.2-0.2-0.3-0.4-0.5-0.6c0.2,0.6-0.5,0.3,0.2,0.3c0.9-0.2,1.8-0.4,2.6-0.8l4-1.2
	l5.2-1.5l-0.4-0.5l-6.3,12.2c-0.2,0.4,0.4,0.7,0.6,0.3l6.3-12.1c0.1-0.2,0-0.3-0.1-0.4c-0.1,0-0.2-0.1-0.2,0L152.9,31
	c-0.2,0.1-0.3,0.2-0.2,0.4c0,0,0,0,0,0.1l6.1,8.5C159,40.2,159.6,39.9,159.3,39.6z"/>
<path class="st4" d="M45.1,96.2L45.1,96.2c0.3,0,0.6-0.2,0.9-0.4c0.4-0.3,0.6-0.8,0.6-1.3c0-0.5-0.3-0.9-0.8-1.1
	C43.7,92.7,43.5,96.1,45.1,96.2z"/>
<path d="M45.1,96.5c1.2,0.1,2-1.6,1.7-2.6c-0.4-0.8-1.3-1.2-2.1-0.8c-0.1,0-0.1,0.1-0.2,0.1C43.2,94,43.5,96.3,45.1,96.5
	c0.4,0,0.4-0.6,0-0.7c-0.8-0.1-0.9-1.3-0.5-1.9c0.3-0.3,0.7-0.5,1.1-0.3c1,0.4,0.3,2.3-0.6,2.2C44.7,95.8,44.7,96.5,45.1,96.5z"/>
<path class="st4" d="M58.4,91.2L58.4,91.2c0.1-0.1,0.2-0.1,0.2-0.2c0-0.1,0.1-0.2,0.1-0.3c0-1.1-1-2.2-1.9-1.1
	c-0.4,0.5-0.3,1.2,0.2,1.6C57.4,91.5,58,91.5,58.4,91.2z"/>
<path d="M58.5,91.5c1.3-0.8-0.4-3.6-1.7-2.3c-0.6,0.5-0.7,1.4-0.3,2C57,91.7,57.9,91.9,58.5,91.5c0.1-0.1,0.2-0.3,0.1-0.5
	c-0.1-0.1-0.3-0.2-0.4-0.1c-0.8,0.4-1.8-0.3-1.2-1.1c0.8-1.1,1.7,0.8,1.2,1.1C57.9,91.1,58.2,91.7,58.5,91.5z"/>
<path class="st4" d="M165.6,56.4c0.1,0,0.3,0,0.4-0.1c0.2-0.1,0.3-0.3,0.3-0.5c0.1-0.2,0.1-0.5,0.1-0.7c0-0.2-0.1-0.5-0.3-0.6l0,0
	C164.4,53.3,163.1,56.7,165.6,56.4z"/>
<path d="M165.6,56.7c0.7-0.1,0.9-0.5,1-1.1c0.2-0.5,0-1.1-0.4-1.4c-0.5-0.4-1.3-0.4-1.8,0.1c-0.5,0.4-0.7,1-0.5,1.6
	C164.1,56.5,164.9,56.9,165.6,56.7c0.4,0,0.4-0.7,0-0.6s-0.9,0.1-1-0.3c-0.2-0.5,0.1-1,0.6-1.2c0.1,0,0.2,0,0.3,0
	c0.2,0,0.4,0.1,0.5,0.2c0.3,0.3,0.1,1.3-0.3,1.3S165.2,56.8,165.6,56.7z"/>
<path class="st4" d="M176.6,52L176.6,52c0.4,0.2,1,0,1.2-0.4c0.1-0.2,0.2-0.5,0.2-0.8c0-0.2,0-0.5-0.1-0.7c-0.1-0.2-0.4-0.3-0.6-0.3
	C176.1,49.9,175.4,51.5,176.6,52z"/>
<path d="M176.5,52.3c0.6,0.3,1.4,0,1.7-0.6c0,0,0-0.1,0.1-0.2c0.3-0.8,0.2-1.9-0.9-2c-0.8-0.1-1.5,0.5-1.6,1.3
	C175.7,51.4,176,52,176.5,52.3c0.4,0.1,0.7-0.4,0.3-0.6c-0.4-0.2-0.5-0.7-0.4-1c0.1-0.2,0.3-0.4,0.5-0.4c0.2-0.1,0.4-0.1,0.6,0
	c0.3,0.1,0.2,0.5,0.2,0.7c-0.1,0.4-0.4,1-0.9,0.8C176.4,51.6,176.1,52.1,176.5,52.3z"/>
<g class="st6">
	<path class="st7" d="M72.5,57.9c0.9,0.9,1.5,2,1.9,3.2c0.5,1.6,3,0.9,2.5-0.7c-0.5-1.6-1.4-3.1-2.6-4.4
		C73.2,54.8,71.3,56.6,72.5,57.9L72.5,57.9z"/>
	<path class="st7" d="M84.9,54c0.9,0.9,1.5,2,1.9,3.2c0.5,1.6,3,0.9,2.5-0.7c-0.5-1.6-1.4-3.1-2.6-4.3C85.5,51,83.7,52.8,84.9,54z"
		/>
	<path class="st7" d="M78.1,67.1c0.9,0.9,1.5,2,1.9,3.2c0.5,1.6,3,0.9,2.5-0.7c-0.5-1.6-1.4-3.1-2.6-4.3
		C78.8,64.1,76.9,65.9,78.1,67.1L78.1,67.1z"/>
	<path class="st7" d="M89.6,63.1c0.9,0.9,1.5,2,1.9,3.2c0.5,1.6,3,0.9,2.5-0.7c-0.5-1.6-1.4-3.1-2.6-4.3
		C90.3,60.1,88.4,61.9,89.6,63.1z"/>
	<path class="st7" d="M95.7,72.4c0.9,0.9,1.5,2,1.9,3.2c0.5,1.6,3,0.9,2.5-0.7c-0.5-1.6-1.4-3.1-2.6-4.3
		C96.3,69.4,94.5,71.2,95.7,72.4z"/>
	<path class="st7" d="M83.3,76c0.9,0.9,1.5,2,1.9,3.2c0.5,1.6,3,0.9,2.5-0.7c-0.5-1.6-1.4-3.1-2.6-4.4C84,73,82.2,74.8,83.3,76z"/>
	<path class="st7" d="M88.7,85.4c0.9,0.9,1.5,2,1.9,3.2c0.5,1.6,3,0.9,2.5-0.7c-0.5-1.6-1.4-3.1-2.6-4.4
		C89.4,82.4,87.6,84.2,88.7,85.4z"/>
	<path class="st7" d="M100.7,81.6c0.9,0.9,1.5,2,1.9,3.2c0.5,1.6,3,0.9,2.5-0.7c-0.5-1.6-1.4-3.1-2.6-4.3
		C101.3,78.6,99.5,80.4,100.7,81.6z"/>
	<path class="st7" d="M94.2,94.9c0.9,0.9,1.5,2,1.9,3.2c0.5,1.6,3,0.9,2.5-0.7c-0.5-1.6-1.4-3.1-2.6-4.4
		C94.8,91.9,93,93.8,94.2,94.9L94.2,94.9z"/>
	<path class="st7" d="M106.2,90.9c0.9,0.9,1.5,2,1.9,3.2c0.5,1.6,3,0.9,2.5-0.7c-0.5-1.6-1.4-3.1-2.6-4.4
		C106.9,87.9,105.1,89.7,106.2,90.9z"/>
	<path class="st7" d="M118.7,86.8c0.9,0.9,1.5,2,1.9,3.2c0.5,1.6,3,0.9,2.5-0.7c-0.5-1.6-1.4-3.1-2.6-4.3
		C119.3,83.8,117.5,85.6,118.7,86.8L118.7,86.8z"/>
	<path class="st7" d="M130.4,82.6c0.9,0.9,1.5,2,1.9,3.2c0.5,1.6,3,0.9,2.5-0.7c-0.5-1.6-1.4-3.1-2.6-4.3
		C131.1,79.6,129.2,81.4,130.4,82.6L130.4,82.6z"/>
	<path class="st7" d="M124.5,73.2c0.9,0.9,1.5,2,1.9,3.2c0.5,1.6,3,0.9,2.5-0.7c-0.5-1.6-1.4-3.1-2.6-4.3
		C125.2,70.2,123.3,72,124.5,73.2z"/>
	<path class="st7" d="M113,77.4c0.9,0.9,1.5,2,1.9,3.2c0.5,1.6,3,0.9,2.5-0.7c-0.5-1.6-1.4-3.1-2.6-4.3
		C113.7,74.4,111.8,76.2,113,77.4z"/>
	<path class="st7" d="M137,69.5c0.9,0.9,1.5,2,1.9,3.2c0.5,1.6,3,0.9,2.5-0.7c-0.5-1.6-1.4-3.1-2.6-4.3
		C137.7,66.5,135.8,68.3,137,69.5z"/>
	<path class="st7" d="M142.4,78.8c0.9,0.9,1.5,2,1.9,3.2c0.5,1.6,3,0.9,2.5-0.7c-0.5-1.6-1.4-3.1-2.6-4.3
		C143.1,75.8,141.2,77.6,142.4,78.8L142.4,78.8z"/>
	<path class="st7" d="M131.2,60.5c0.9,0.9,1.5,2,1.9,3.2c0.5,1.6,3,0.9,2.5-0.7c-0.5-1.6-1.4-3.1-2.5-4.4
		C131.9,57.5,130,59.3,131.2,60.5L131.2,60.5z"/>
	<path class="st7" d="M125.4,51.5c0.9,0.9,1.5,2,1.9,3.2c0.5,1.6,3,0.9,2.5-0.7c-0.5-1.6-1.4-3.1-2.6-4.4
		C126.1,48.5,124.2,50.3,125.4,51.5z"/>
	<path class="st7" d="M120.1,42.9c0.9,0.9,1.5,2,1.9,3.2c0.5,1.6,3,0.9,2.5-0.7c-0.5-1.6-1.4-3.1-2.6-4.3
		C120.8,39.9,118.9,41.8,120.1,42.9L120.1,42.9z"/>
	<path class="st7" d="M108.4,46.6c0.9,0.9,1.5,2,1.9,3.2c0.5,1.6,3,0.9,2.5-0.7c-0.5-1.6-1.4-3.1-2.6-4.3
		C109.1,43.6,107.3,45.4,108.4,46.6z"/>
	<path class="st7" d="M96.6,50.4c0.9,0.9,1.5,2,1.9,3.2c0.5,1.6,3,0.9,2.5-0.7c-0.5-1.6-1.4-3.1-2.6-4.3
		C97.2,47.4,95.4,49.2,96.6,50.4z"/>
	<path class="st7" d="M102.1,59c0.9,0.9,1.5,2,1.9,3.2c0.5,1.6,3,0.9,2.5-0.7c-0.5-1.6-1.4-3.1-2.6-4.3
		C102.7,56,100.9,57.9,102.1,59z"/>
	<path class="st7" d="M113.5,55.6c0.9,0.9,1.5,2,1.9,3.2c0.5,1.6,3,0.9,2.5-0.7c-0.5-1.6-1.4-3.1-2.6-4.3
		C114.2,52.6,112.3,54.4,113.5,55.6z"/>
	<path class="st7" d="M118.9,64.2c0.9,0.9,1.5,2,1.9,3.2c0.5,1.6,3,0.9,2.5-0.7c-0.5-1.6-1.4-3.1-2.6-4.3
		C119.6,61.1,117.7,63,118.9,64.2z"/>
	<path class="st7" d="M107.4,68.3c0.9,0.9,1.5,2,1.9,3.2c0.5,1.6,3,0.9,2.5-0.7c-0.5-1.6-1.4-3.1-2.6-4.3
		C108.1,65.3,106.3,67.1,107.4,68.3z"/>
</g>
<path class="st3" d="M52.5,129.9h-0.3c-1.2,0-2.2,0.8-2.5,1.9l-0.1,0.2c-0.4,1.4,0.4,2.8,1.8,3.2l0.5,0.1l-1.9-2.5
	c0.2,2.1,1,4.6,3.7,4.4l-2.5-3.3c-0.3,1.4-0.6,2.6,0.4,3.8c0.1,0.1,0.9,1,0.7,0.6c0.2,0.7,0.5,1.3,0.8,1.9c0.8,1.2,2.9,1.9,4,0.5
	l0.4-0.5l-4.4-1.8c-0.1,1.1,0.2,2.2,0.8,3.1c0.3,0.4,0.8,0.7,1,1.1c-0.5-0.9,0.1,0.5,0.2,0.7c1.5,1.8,3.8,2.2,6,2.3
	c3.3,0.2,3.3-4.9,0-5.1c-1-0.1-1.6-0.1-2.2-0.8c-0.2-0.3-0.4-0.7-0.6-1c-1-1.1-0.1,0.9-0.1-0.4c0.1-2.1-3-3.6-4.4-1.8l-0.4,0.6
	l4,0.5c-0.4-0.6-0.4-1.4-0.7-2s-1-1-1.5-1.5l0.8,1.8c0-0.2,0.1-0.4,0.1-0.6c0.3-1.5-0.7-3.4-2.5-3.3c1.3,1.8,1.8,2,1.5,0.8
	c0-1.1-0.8-2.2-1.9-2.5l-0.5-0.1l1.8,3.2l0.1-0.2l-2.4,1.8h0.3C55.8,134.9,55.8,129.8,52.5,129.9L52.5,129.9z"/>
<path class="st3" d="M87.2,118.7c-5.5,0.4-10.5,3.6-15.8,4.9c-1.4,0.4-2.2,1.8-1.8,3.2c1.1,4,3.3,7.4,4.1,11.6
	c0.4,1.4,1.8,2.2,3.2,1.8c5.2-1.5,11.3-3,16-5.7c3.5-2,1.2-5.1,0.1-8c-1.2-3.1-2.6-5.5-6.5-4.7c-2.8,0.7-5.5,1.6-8.1,2.7
	c-1.4,0.5-2.8,0.8-3.5,2.2c-1.3,2.6,0.6,7.2,3.1,8.4c1.8,0.9,3.3,0.3,5.1-0.3c2.3-0.8,5.6-1.4,7.6-2.8s2-4.2,0.3-5.9
	c-2.9-2.8-8.7,0.1-11.7,1.3c-3,1.2-1.7,6.2,1.4,5c1.3-0.5,2.7-1,4-1.4l1.4-0.4c1.4,0.1,1.7-0.2,1-0.9l1.3-2.2c-1.7,1-4.1,1.5-6,2.2
	c-0.4,0.1-3.5,1-2.5-0.3c-0.6,0.8,1.8-0.4,2-0.5c0.9-0.3,5.2-2.3,5.9-1.9c0.8,1.6,1.5,3.3,2,5l1.3-2.2c-2,1.5-5.1,2.1-7.3,3
	c-2.7,1-5.4,1.9-8.1,2.7l3.2,1.8c-0.8-4.2-3-7.6-4.1-11.6l-1.8,3.2c4.8-1.2,9.5-4.3,14.4-4.7c3.3-0.3,3.3-5.4,0-5.2L87.2,118.7z"/>
<path class="st3" d="M103.2,117.9c1.7-0.1,3.5-0.4,5.2-0.8c1.2-0.4,2.3-1.3,3.6-1.7c1.1-0.3,2.2-0.5,3.3-0.9
	c1.7-0.6,4.6-2.4,6.4-2.4c2.8,0,4,4.4,4.8,6.8l1.2-2.9c-2.9,1.6-6.1,1.6-9.1,3.2c-3.3,1.8-7.3,2.3-10.3,4.5l3.1,0.4l-6-7.1l-1.1,4.3
	c3-1.1,5.9-2.1,8.9-3c1.1-0.3,10.6-2.3,8.6-4.6c-0.1-0.1-7.7,2.3-8.5,2.5c-2.2,0.3-4.3,1.1-6.2,2.2c-1.7,1.1-1.7,4.3,0.6,4.7
	c2.1,0.3,4.2,0.3,6.2-0.2c3.2-0.8,1.8-5.7-1.4-5c-1.1,0.4-2.3,0.4-3.5,0.2l0.6,4.7c3.2-2,20.2-2.6,16.6-9.4c-1.6-3-4.9-2.6-7.6-1.9
	c-5.3,1.3-10.6,3-15.8,4.9c-1.4,0.4-2.2,1.9-1.7,3.3c0.1,0.4,0.3,0.7,0.6,1l6,7.1c0.8,0.8,2.1,1,3.1,0.4c3.1-2.3,7.7-3.3,11.3-4.9
	c2.6-1.1,5.5-1.3,8.1-2.8c1-0.6,1.5-1.8,1.2-2.9c-1.7-5.2-4.7-12.6-11.4-10.3c-6.1,2-11.9,4.9-18.2,5.8
	C98.6,113.4,100,118.4,103.2,117.9L103.2,117.9z"/>
<path class="st3" d="M159.8,98.4l-0.3-1.2c-0.3-1.1-1.4-1.9-2.5-1.9l0.9,0.4c-0.8-0.8-2.1-1-3.1-0.4c-2.2,1.5-4.9,1.7-7.3,2.6
	c-2.8,1.1-5.5,1.7-8.4,2.6c-1.4,0.4-2.2,1.9-1.8,3.2c0.1,0.4,0.3,0.8,0.6,1.1c1.1,1.2,3.2,2.8,3.7,4.5c0.1,0.9,0.3,1.3,0.9,1
	c-1.1,0.7-2.3,1.2-3.6,1.5l1.4,5c4.5-1.5,8.7-3.6,13.1-5.3c2-0.7,4.1-1.2,6.2-1.8c1.8-0.6,3.4-1.7,5.2-2s2.2-2.4,1.5-3.8
	c-2.3-4.8-5.2-5.2-9.9-3.8c-3.7,1.1-10.7-0.1-13.5,3.1c-2.2,2.5,0,5.6,2.8,6.1c5.1,1,11.9-2.3,16.6-3.8c1.4-0.4,2.2-1.9,1.8-3.3
	c-0.1-0.2-0.1-0.4-0.2-0.5l-0.5-2.2c0-1.4-1.2-2.6-2.6-2.6c-0.4,0-0.9,0.1-1.2,0.3c-3.5,2.2-7.1,4.3-10.8,6.3
	c-3.1,1.6-6.5,2.9-9.3,5.1c-2.1,1.7-8.5,8.7-1.9,9.2l-0.7-5c-2,0.8-4.1,1.4-6.3,1.9c-3.2,0.7-1.9,5.7,1.4,5c2.1-0.5,4.2-1.1,6.3-1.9
	c1.3-0.5,2-2,1.6-3.3c-0.3-1-1.2-1.6-2.2-1.7h-0.3l2.2,1.3l-0.2-0.3v2.6c2-4,6.9-5.7,10.6-7.6c4.2-2.2,8.2-4.5,12.2-7l-3.9-2.2
	c0.1,1.7,0.5,3.3,1.2,4.8l1.5-3.8c-2.6,0.8-5.3,1.7-7.9,2.4c-1.1,0.3-2.9,0.4-3.9,1c-0.8,0-1.2,0.5-1.2,1.4
	c-0.9,1.4-0.7,1.7,0.8,0.9c3.3,0.2,11.5-3.2,13.1,0.1l1.5-3.8c-1.5,0.4-2.9,1-4.3,1.7c-2.3,0.9-4.8,1.3-7.1,2.2
	c-4.4,1.6-8.6,3.8-13.1,5.3c-3.1,1-1.9,5.8,1.4,5c2.6-0.7,7.5-2.1,7.6-5.3c0.1-3.8-3.9-7.8-6.3-10.3l-1.1,4.3
	c2.8-0.7,5.7-1.5,8.4-2.5c2.8-1.2,5.9-1.4,8.5-3.2l-3.1-0.4c0.7,0.8,1.7,1.3,2.8,1.1l-2.5-1.9l0.3,1.2c0.7,3.2,5.7,1.9,5-1.4
	L159.8,98.4z"/>
<path class="st3" d="M175.9,90.9L175.9,90.9l-1.8,3.2c2.5-0.7,4.9-1.5,7.3-2.4c2.3-0.8,4.8-1.1,6.6-3h-3.6c2.8,2.2,5.5,4.6,7.9,7.2
	l1.1-4.3c-3.8,1.5-7.6,3.2-11.4,4.6c-0.9,0.3-1.8,0.6-2.8,0.8c0-0.3,1.8-1,2.1-1.1c1.2-0.6,5.1-3,6.5-2.7l-1.8-1.8
	c0.1,0.4-6.2,3.3-6.7,3.6c-2.9,1.5-0.4,5.9,2.6,4.4s12.5-4.9,8.8-10c-1.4-1.9-3.6-1.7-5.6-0.9c-2.7,1.1-6.1,2.2-8.5,4
	c-3.7,2.6-1.5,7.4,2.2,8.9c2.2,0.9,3.8,0,5.9-0.9l10.1-4c1.4-0.4,2.2-1.9,1.7-3.3c-0.1-0.4-0.3-0.7-0.6-1c-2.4-2.6-5.1-5.1-7.9-7.3
	c-1-1-2.6-1-3.6,0c-1.2,1.3-5,1.8-6.6,2.3s-3.2,1.3-5,1.7c-1.4,0.4-2.2,1.8-1.8,3.2c0.4,1.3,1.2,2.4,2.4,3.1
	C176,97.3,178.6,92.8,175.9,90.9L175.9,90.9z"/>
<path class="st3" d="M205.2,83.5l0.7-0.7l-4-0.5c0.7,1.1,1.3,2.3,1.8,3.6c0.5,1.9-0.4,2.2-1.9,2.8c-2.1,0.8-4,2.3-6.4,2.5
	c-3.3,0.2-3.3,5.3,0,5.1c2.2-0.2,4.4-0.8,6.3-1.9c1.7-0.9,3.7-1.2,5.1-2.5c3.9-3.6,1.8-8.4-0.4-12.2c-0.7-1.2-2.3-1.6-3.5-0.9
	c-0.2,0.1-0.3,0.2-0.5,0.4l-0.7,0.7C199.2,82.1,202.8,85.8,205.2,83.5L205.2,83.5z"/>
<path class="st3" d="M54.2,133.5v0.5c-0.3,2.9,4.3,3.4,5,0.7c0.5-1.9,0.5-3.9-0.2-5.7c-0.9-2.3-4.1-5.6-0.9-7.5
	c1.3-0.6,2.7-0.7,4.1-0.3c1,0.5,0.5,0.5,1.3,1.3c0.1,0.1,1.6,1.5,1.6,1.2c-0.2,0.9-5.5,2.5-6,2.5c-1.4,0-2.6,1.2-2.6,2.6
	c0.1,2.4-0.1,4.9-0.5,7.3c-0.5,2.4,2.4,4.4,4.3,2.5s3.9-3.9,6-5.7c1.8-1.6,3.8-2.8,4.8-5l-4.7-0.6c1.7,4.4,3.6,8.8,5.8,13l1.5-3.8
	c-1.8,0.4-3.6,1-5.3,1.6c-0.9,0.4-3.9,2.1-4.8,1.7c-0.4,0.7-0.1,0.5,0.8-0.5c0.7-0.6,1.3-1.1,1.9-1.7c0.8-0.8,1.9-2.8,2.9-3.3h-2.6
	c1.5,0.8-3.9,3.4-4.5,3.8c-2.6,2-0.1,6.4,2.6,4.4c3.1-2.3,9.8-4.5,7.6-9.7c-0.7-1.6-2.5-3.4-4.3-3.4c-2.3,0-3.5,2.5-4.8,4
	c-2.8,3-7.9,6-3,10c4.5,3.7,10.3-1,15-2.1c1.4-0.4,2.2-1.8,1.8-3.2c-0.1-0.2-0.1-0.4-0.2-0.6c-2-3.8-3.8-7.7-5.3-11.7
	c-0.7-1.9-3.6-2.8-4.7-0.6s-3.5,3.5-5.1,5s-3.3,3.1-4.9,4.7l4.3,2.5c0.6-2.9,0.8-5.8,0.8-8.7l-2.6,2.6c4.1-0.1,10.1-3,10.4-7.7
	c0.1-2.1-0.7-3-1.9-4.4c-0.9-1.1,0.7,0.7-0.4-0.6c-0.4-0.7-1-1.3-1.6-1.7c-3.6-2.1-10.4-1.1-12.9,2.3c-1.3,1.7-1.7,3.9-1.3,5.9
	C52.1,128,55.1,130.3,54.2,133.5l5.1,0.6v-0.5C59.6,130.3,54.5,130.3,54.2,133.5L54.2,133.5z"/>
<path class="st3" d="M92,115.3c-2-0.6-3.8-2.9-1.6-4.6c2-1.5,4.7,0.2,5.7,2c0.3,1,0.6,2,0.8,2.9c0.6,1.2,1.1,2.5,1.4,3.8l4.3-2.5
	c-1.8-2.1-3.2-4.5-6.2-3.6s-4.4,3.9-7,5.3c-1.2,0.7-1.6,2.3-0.9,3.5c2.5,5.7,9.5-0.1,13-1l-2.9-3.8c-1.9,2.7-7.1,3.6-7.2,7.4
	c0,1.4,1.2,2.6,2.6,2.6c0.4,0,0.8-0.1,1.2-0.3c2.9-1.6,5.5-3.9,8.8-4.6l-2.9-1.2l0.2,0.5l0.4-3.1c-2.6,2.5-14.5,8.6-10.5,14
	c1.7,2.3,4.5,0.9,6.6,0.1c3.3-1.4,6.1-3,9.5-3.8c0.9-0.2,1.6-0.9,1.8-1.8c0.5-2.3-0.9-4.7-3.3-5.2c-0.5-0.1-1.1-0.1-1.7-0.1
	c-3.2,0.4-3.3,5.5,0,5.1v-1.3l1.8-1.8c-3.8,0.9-7.4,2.4-10.8,4.4l-1.2,0.5l2.8,0.3c1.1-0.7,2.2-1.4,3.2-2.3c1.9-1.3,3.7-2.8,5.4-4.4
	c0.8-0.8,1-2.1,0.4-3.1l-0.2-0.5c-0.6-1-1.8-1.5-2.9-1.2c-3.8,0.8-6.7,3.3-10.1,5.1l3.8,2.3c0,1.2,3.5-1.8,4-2.2
	c1-0.7,1.8-1.6,2.5-2.6c1.3-2-0.9-4.2-2.9-3.8c-0.9,0.2-7.5,2.7-7.2,3.3l-0.9,3.5c1.1-0.6,2-1.4,2.9-2.3c2-1.9,2.2-2.6,4.1-0.3
	c1.8,2.2,4.8-0.2,4.3-2.5c-0.5-2.5-1.7-4.6-2.2-7.1c-0.2-1.7-1-3.2-2.2-4.3c-2.8-2.5-6.8-2.2-10-0.9c-7.3,3.1-5.4,12.5,1.8,14.4
	C93.8,121.2,95.2,116.2,92,115.3L92,115.3z"/>
<path class="st3" d="M134.1,109.9c-0.7,1-1.9,1.5-3.1,1.4l2.6,2.6c-0.3,0.7-0.3,0.7,0.2,0c0.3-0.5,0.7-0.9,1.1-1.3
	c0.9-0.7,1.8-1.2,2.9-1.6c1.6-0.5,3.2-1.3,4.5-2.3c2.2-1.9-0.7-5.6-3.1-4c0.8-0.5-2.5-6.4-2.9-7.1c-1.7-3-4.9-4.8-8.3-4.7
	c-3.1,0-6.9,1-8.3,4c-1.5,3.3,0.4,7.1,2.6,9.6c2,2.3,5.6,5,8.9,4.3c2.5-0.6,4.5-3.6,4.2-6.1c-0.3-2.7-2.9-3.5-5.1-2.4
	c-3.4,1.7-4.3,5.4-4.1,8.8c0,1.4,1.2,2.6,2.7,2.6c0.2,0,0.4,0,0.6-0.1c1.5-0.3,3-0.7,4.5-1.3c3.1-1.1,1.8-6.1-1.4-5
	c-1.5,0.5-2.9,0.9-4.5,1.3l3.3,2.5c0-0.9-0.3-4.3,1.3-4.3l-2.2-1.3c-0.4-0.6-1-0.2-1.6-0.4c-0.8-0.4-1.5-0.9-2.1-1.6
	c-1.2-1.2-3.4-4.1-1.2-5.3c2.1-0.9,4.5-0.4,6,1.2c0.9,1.1,0.9,2.4,1.5,3.6c0.3,0.6,0.6,1.2,0.8,1.8c0.3,1.2,0.8,2.3,1.6,3.2
	c1.6,1.8,4.3,2.2,6.3,0.8l-3.1-4c-2.1,1.8-5.3,1.8-7.4,3.9c-1.3,1.2-3,3.1-2.8,5c0,1.4,1.2,2.5,2.6,2.6c2.6,0,5-1.1,6.7-3
	C140.1,111.2,136.4,107.5,134.1,109.9L134.1,109.9z"/>
<path class="st3" d="M164.7,96.8c0.2-1.2-0.3-2.4-1.3-3.1c-0.5-0.3-1-0.5-1.5-0.7c-0.9-0.5-0.6-0.2-0.3,0.2c-1-1.3-1.8-2.7-2.3-4.2
	c-0.5-2.1,2-3.1,3.8-2.4c1.3,0.5,1.5,0.8,1.9,2.1c0.3,1.2,0.3,2.2,1.1,3.2c1.1,1.4,2.4,2.3,3.4,3.9c1.7,2.7,4.9,4.9,7.6,6.6v-4.4
	c-3.9,1.7-8.1,2.4-11.8,4.6l3.5,3.5c1.2-2.8,3.4-4.3,6.1-5.6l-2.6-4.4c-1.1,0.6-2.4,1.7-3.6,1.8c0.2,0-4.1,1.5-2.4-1.3l4-0.5
	c-1.9-2.1-2.4-3.7-5.5-4.3l0.6,4.7c0.6-0.5,1.3-0.9,2-1.1c3.1-1.1,1.8-6-1.4-5c-1.2,0.4-2.2,0.9-3.2,1.7c-1.6,1.2-1.8,4.2,0.6,4.7
	c1,0.2,2.4,2.1,3.2,3c1,1,2.7,0.9,3.7-0.1c0.1-0.1,0.2-0.3,0.3-0.4c3.5-5.5-5.3-9.2-7.9-3.5c-1.1,2.3-0.5,6.2,1.9,7.6
	c3,1.7,7.7-1.3,10.3-2.8c2.9-1.7,0.3-5.9-2.6-4.4c-3.4,1.7-6.4,3.9-8,7.5c-0.9,2.2,1.1,5,3.5,3.5c3.6-2.2,7.9-2.9,11.8-4.6
	c1.9-0.8,1.4-3.5,0-4.4c-2.4-1.5-4.6-3.5-6.3-5.8c-1.2-1.8-2.8-3-3.2-5c-1.1-4.3-4.9-6.3-9.3-6s-8,4-6.8,8.4
	c0.8,2.3,1.9,4.5,3.4,6.5c0.4,0.6,1,1.2,1.7,1.6c0.4,0.2,0.8,0.4,1.3,0.3c1.2,0.1,0.9-0.3-0.8-1.3C159.2,100.1,164.4,100,164.7,96.8
	L164.7,96.8z"/>
<path class="st3" d="M189.2,78.7c-2.1-2.6,4.2-2.3,4.2-2.2c1.2,0.6,1.7,2.1,2.3,3.2c0.5,1.2,1.4,2.3,2.6,3l-1.2-1.5
	c0.3,1.2,0.8,2.3,1.5,3.4c0.4,0.5,1.1,1,1,1.7c-0.1,1.5-2.8,1.9-3.6,1.3c-0.5-0.3-0.8-1.6-1.3-2.1s-1.3-1-1.9-1.7
	c-1.1-1.3-2.1-2.5-3.2-3.7l-1.1,4.3c4.2-1.7,6.1,2.6,8.6,5.2c1.7,1.7,5.3,0,4.3-2.5s-2-4.6-3.1-6.8c-1.5-2.9-5.9-0.3-4.4,2.6
	c0.9,1.8,1.8,3.7,2.6,5.6l4.3-2.5c-3.9-4-7.2-9.1-13.6-6.5c-1.4,0.4-2.2,1.9-1.7,3.3c0.1,0.4,0.3,0.7,0.6,1c2,2,3.9,4.2,5.6,6.5
	c1.6,2.5,3.9,3.6,6.9,2.8c2.9-0.7,5.2-2.8,6.2-5.5c1-3.2-1.2-4.2-2.4-6.7c-1.9-3.9-4.5-9.7-10.1-9.7c-6.2,0-10.8,6.1-6.5,11.3
	C187.7,84.9,191.3,81.2,189.2,78.7L189.2,78.7z"/>
<path class="st8" d="M54.4,124.3c0.1,0.4,0.3,0.8,0.5,1.2c0.5,0.6,1.2,1.1,2,1.3c2.9,1,6.5,0.4,8.3-2.3c1.3-2-1.3-4.1-2.8-4.7
	c-2.3-1-5.1-0.6-7,1.1C54.6,121.8,54.2,123.1,54.4,124.3z"/>
<path d="M54.1,124.4c0.9,2.8,4.2,3.5,6.9,3.1c2.1-0.4,5.5-2.2,4.8-4.8C64.4,117.1,53.4,118,54.1,124.4c0,0.3,0.7,0.3,0.6-0.1
	c-0.6-5.3,7.4-6,9.9-2.4c2.9,4.2-8.2,7.8-9.9,2.3C54.6,123.8,54,124,54.1,124.4z"/>
<path class="st8" d="M87,113.2c0.1,0.5,0.3,1,0.5,1.4c0.5,0.7,1.2,1.3,2,1.6c3,1.4,6.7,0.2,8.3-2.7c1.3-2.4-1.3-4.9-2.8-5.6
	c-2.4-1.3-5.3-0.7-7,1.3C87.2,110.3,86.8,111.8,87,113.2z"/>
<path d="M86.7,113.3c0.8,3.1,4.2,4.3,7.2,3.6c2.5-0.6,5.3-3.1,4.4-5.9C96.1,104.6,85.9,106.2,86.7,113.3c0,0.3,0.7,0.3,0.6-0.1
	c-0.6-5.7,6.7-7.5,9.7-3.2c3.6,5.2-8,9.7-9.7,3.1c-0.1-0.2-0.3-0.2-0.4-0.1C86.7,113,86.6,113.1,86.7,113.3z"/>
<path class="st8" d="M121,101.5c0.1,0.5,0.3,1,0.6,1.5c0.6,0.8,1.4,1.4,2.3,1.7c2.9,1.2,6.2,0.6,8.6-1.5c0.6-0.5,1.1-1.2,1.4-2
	c0.7-2.3-1.6-4.4-3.5-5.2c-2.8-1.3-6.1-0.8-8.2,1.4C121.2,98.4,120.7,100,121,101.5z"/>
<path d="M120.6,101.6c2,6.7,15.8,3.9,13.4-2.6S119.8,94,120.6,101.6c0,0.3,0.7,0.3,0.6-0.1c-0.7-6,6.8-7.5,10.6-4.3
	c3.4,2.9,0.6,6.5-2.8,7.4c-2.9,0.8-6.8,0-7.8-3.2c0-0.2-0.2-0.3-0.4-0.2S120.6,101.4,120.6,101.6z"/>
<path class="st8" d="M155.4,89.8c0.1,0.5,0.3,1.1,0.6,1.5c0.6,0.8,1.4,1.4,2.3,1.7c2.9,1.2,6.2,0.6,8.5-1.5c0.6-0.6,1.1-1.3,1.4-2.1
	c0.7-2.3-1.6-4.5-3.5-5.4c-2.7-1.4-6-0.8-8.2,1.4C155.6,86.7,155.1,88.3,155.4,89.8z"/>
<path d="M155.1,89.9c2,6.8,15.7,4,13.3-2.6S154.3,82.3,155.1,89.9c0,0.3,0.7,0.3,0.6-0.1c-0.6-6,6.7-7.8,10.5-4.4
	c6.3,5.5-8.2,12.2-10.5,4.3c0-0.2-0.2-0.3-0.4-0.2C155.1,89.6,155,89.8,155.1,89.9z"/>
<path class="st8" d="M185.4,79.8c0.1,0.5,0.3,1,0.6,1.5c0.6,0.8,1.4,1.4,2.3,1.7c2.9,1.2,6.2,0.6,8.5-1.5c0.6-0.6,1.1-1.3,1.4-2.1
	c0.7-2.3-1.6-4.5-3.4-5.3c-2.7-1.4-6-0.8-8.1,1.4C185.6,76.6,185.1,78.2,185.4,79.8z"/>
<path d="M185.1,79.8c2,6.9,15.6,4,13.3-2.6S184.3,72.2,185.1,79.8c0,0.3,0.7,0.3,0.6-0.1c-0.6-6.1,6.9-7.8,10.7-4.2
	c5.7,5.5-8.4,11.9-10.7,4.1c0-0.2-0.2-0.3-0.4-0.2C185.1,79.5,185,79.7,185.1,79.8z"/>
<path d="M54.8,123.4c1.2-1.3,2.9-2,4.7-1.9c1.3,0,6.3,1,4.5,3.7c-0.2,0.3,0.3,0.7,0.6,0.3c1.5-2.3-1.2-4-3.1-4.4
	c-2.4-0.6-5.6-0.1-7.2,1.9C53.9,123.4,54.5,123.8,54.8,123.4z"/>
<path d="M87.4,112.2c0.5-2.1,4.4-3.1,5.9-2.7c2.1,0.7,3.5,2.5,3.6,4.7c0,0.4,0.7,0.4,0.7,0c-0.1-2.4-1.9-5-4.3-5.5
	c-2.1-0.4-5.9,1.1-6.4,3.3c0,0.2,0.1,0.3,0.2,0.4C87.1,112.5,87.3,112.4,87.4,112.2z"/>
<path d="M121.3,101.7c2.3-4.7,12.2-4.4,10.1,2.2c0,0.2,0,0.4,0.2,0.4c0.2,0,0.4,0,0.4-0.2l0,0c2.3-7.2-8.6-8.2-11.3-2.7
	C120.5,101.7,121.1,102.1,121.3,101.7z"/>
<path d="M155.8,89c1.3-2.3,3.8-2.7,6.2-2.5c1.7,0.1,2.7,0.6,3.1,2.3c0.4,1.2,0.3,2.4-0.3,3.5c-0.2,0.3,0.3,0.7,0.6,0.3
	c1.2-1.8,0.7-5.7-1.6-6.5c-2.9-1.1-7-0.2-8.6,2.6c-0.1,0.2,0,0.4,0.2,0.4C155.6,89.2,155.7,89.1,155.8,89L155.8,89z"/>
<path d="M185.7,78.9c1.4-1.7,4-3.1,6.2-2.7s4.4,4.4,2.1,6.3c-0.3,0.3,0.1,0.7,0.4,0.5c1.9-1.6,1.2-5.4-0.7-6.7
	c-2.7-2-6.7-0.2-8.6,2.1C185,78.7,185.4,79.2,185.7,78.9L185.7,78.9z"/>
<path d="M67.8,136.6c1-0.8,1.3-2.3,0.7-3.4c-0.4-0.8-1.4-1.1-2.2-0.7c-0.2,0.1-0.5,0.3-0.6,0.5c-0.7,0.8-0.9,2-0.3,3
	c0.4,0.8,1.4,1.2,2.2,0.8C67.6,136.7,67.7,136.6,67.8,136.6c0.3-0.2,0-0.8-0.3-0.6c-1.4,1-2.3-1.1-1.7-2.2c0.5-0.9,1.5-1.4,2.1-0.3
	c0.5,0.8,0.3,1.9-0.4,2.5C67.2,136.2,67.5,136.8,67.8,136.6z"/>
<path d="M97.4,123c0.1-0.3,0.3-0.5,0.5-0.8h-0.4c0.7,0.8,1.3,1.7,1.9,2.6c0.2,0.3,0.8,0,0.6-0.3c-0.6-0.9-1.3-1.8-2-2.7
	c-0.1-0.1-0.3-0.1-0.4,0c-0.3,0.3-0.5,0.6-0.7,0.9C96.7,123,97.2,123.4,97.4,123L97.4,123z"/>
<path d="M133.2,110.3c0.3-0.3,1-0.9,1.4-0.3c0.1,0.3,0.1,0.7,0,1c0,0.8-0.1,1.6-0.2,2.4c-0.1,0.2,0.2,0.5,0.5,0.4
	c0.6-0.4,1.2-0.7,1.9-1c0.4-0.2,0.2-0.8-0.2-0.6c-0.7,0.3-1.4,0.7-2.1,1.1l0.5,0.4c0.1-0.8,0.2-1.5,0.2-2.3c0.1-0.6,0-1.2-0.1-1.8
	c-0.5-1-1.8-0.1-2.3,0.4C132.4,110.2,132.8,110.6,133.2,110.3L133.2,110.3z"/>
<path d="M165.2,99.1c0.1-0.2,0.4-1.1,0.8-1.1c0.2,0,0.3,0.5,0.3,0.7c0,0.3-0.1,0.6-0.3,0.9c-0.2,0.3,0.2,0.6,0.4,0.4l0.4-0.2
	l0.2-0.1c0.2-0.2,0.3-0.2,0.3,0.1c0.5,0.6-0.3,1.2-0.8,1.2c-0.4,0-0.4,0.6,0,0.6c0.8,0.1,1.5-0.5,1.6-1.4c0-0.1,0-0.3,0-0.4
	c-0.1-0.4-0.3-0.9-0.7-1s-1,0.4-1.4,0.6l0.4,0.4c0.4-0.6,0.8-2-0.1-2.5s-1.6,0.9-1.8,1.6C164.5,99.3,165.1,99.4,165.2,99.1
	L165.2,99.1z"/>
<path d="M168.6,98c0.8,0.5,1.6,1,2.4,1.6c0.1,0.1,0.3,0.1,0.5,0c0,0,0.1-0.1,0.1-0.1c0.1-0.5,0.1-1,0-1.5V96c0-0.2-0.1-0.3-0.3-0.3
	c-0.2,0-0.3,0.1-0.3,0.3v1.7c0.1,0.5,0.1,1.1,0,1.6l0.5-0.1c-0.7-0.7-1.6-1.2-2.4-1.7C168.6,97.3,168.3,97.8,168.6,98L168.6,98z"/>
<path d="M195.4,88.2c-1-0.1-2.4,0.1-2.5,1.4c-0.2,1.1,0.6,2.2,1.7,2.4c1.1,0.1,1.7-0.8,1.8-1.8c0.2-1.4-1.6-0.4-2.1,0
	c-0.3,0.3,0.1,0.7,0.4,0.5s0.9-0.7,1.2-0.6l-0.2-0.3c0,0.5-0.1,1-0.4,1.3c-0.5,0.3-1.1,0.2-1.5-0.2c0,0-0.1-0.1-0.1-0.2
	c-0.3-0.5-0.3-1.1,0-1.6c0.4-0.4,1.1-0.3,1.6-0.3S195.8,88.3,195.4,88.2L195.4,88.2z"/>
<path d="M198.6,90.2c-0.4-0.7-0.7-1.4-1.1-2.1l-0.4,0.5c1.1,0.3,2.2,0.8,3.1,1.4c0.2,0.2,0.5-0.1,0.5-0.4c-0.1-0.5-0.4-0.9-0.7-1.2
	c-0.3-0.5-0.6-1-0.9-1.5c-0.2-0.4-0.7,0-0.6,0.3c0.2,0.5,0.5,0.9,0.8,1.4c0.3,0.4,0.6,0.8,0.8,1.2l0.5-0.4c-1-0.7-2.1-1.2-3.2-1.5
	c-0.2,0-0.3,0.1-0.4,0.2c0,0.1,0,0.2,0,0.2c0.4,0.7,0.7,1.4,1.1,2.1C198.2,90.9,198.8,90.6,198.6,90.2z"/>
<path d="M200.5,86.9c0.5,0.5,0.9,1,1.2,1.6c0.2,0.3,0.4,1,0.9,1c0.9,0.2,1.6-1,1.8-1.7c0.1-0.9-0.3-1.7-1.1-2.2
	c-0.9-0.5-2-0.3-2.7,0.4c-0.3,0.3,0.1,0.7,0.4,0.5c0.6-0.6,1.5-0.6,2.1-0.1c0.6,0.5,0.7,1.3,0.4,1.9c-0.2,0.3-0.6,0.7-0.9,0.4
	c-0.2-0.3-0.4-0.5-0.5-0.8c-0.3-0.5-0.7-0.9-1.1-1.4C200.7,86.1,200.2,86.6,200.5,86.9L200.5,86.9z"/>
<path d="M62.8,145.1c-2.9-3.8-4.6-8.1-6.8-12.4c-1-2-2.2-3.9-3.4-5.8c-2.7-4.4-0.5-8.8,4.5-10.3c3.9-1.2,8.7-0.6,10.9,3.1
	c1.2,2.1,1.1,4.3,1.8,6.6c1.4,4.8,4.3,9.4,6.2,14c0.2,0.4,0.8,0.2,0.6-0.2c-1.4-3.4-2.8-6.8-4.4-10.1c-1.5-3.1-1.7-6.4-3.1-9.6
	c-2.3-5.1-8-6-12.9-4.2c-3.9,1.4-7.4,5.5-5.2,9.7c1.5,3.1,3.8,5.8,5.3,9c1.6,3.7,3.6,7.2,5.9,10.6C62.4,145.8,63,145.5,62.8,145.1
	L62.8,145.1z"/>
<path d="M94.8,133.3c-2.2-4.4-4.2-9.1-6.5-13.4c-1.3-2.3-4.4-5.1-4.1-7.9c0.6-4.5,4.4-6.2,8.4-6.7c4.8-0.6,7.5,1.9,8.3,6.6
	c0.1,0.8,0.3,1.6,0.6,2.3c1.9,4.7,5,9.2,7.4,13.7c0.2,0.4,0.8,0,0.6-0.3c-2.1-3.9-4.5-7.8-6.4-11.9c-1.1-2.4-1.1-4.9-2.2-7.2
	c-2.2-4.7-7.3-4.4-11.6-3.2c-3.8,1.1-6.5,4.2-5.6,8.3c0.6,3,3.3,5.2,4.7,7.9c2,4,3.9,8,5.8,12C94.4,133.9,94.9,133.6,94.8,133.3
	L94.8,133.3z"/>
<path d="M130.7,119.8c-1.7-3.9-3.8-7.5-6.2-11c-1.2-1.9-3.2-3.8-4.2-5.8c-2.6-5.2,0.8-9.7,6.3-9.7c2.6,0,7,0.5,8.5,2.9
	c1.1,1.6,1.6,3.7,2.6,5.4c2.4,4.3,5.4,8.2,7.6,12.6c0.2,0.4,0.7,0,0.6-0.3c-1.7-3.3-3.8-6.4-5.8-9.6c-1.7-2.7-2.7-5.8-4.4-8.4
	c-2.3-3.4-8.9-3.9-12.6-2.8c-3.5,1.1-5.4,4.8-4.3,8.2c0,0,0,0.1,0,0.1c0.8,2.8,3.5,5.2,5,7.7c2.4,3.4,4.5,7,6.2,10.8
	C130.2,120.4,130.8,120.2,130.7,119.8L130.7,119.8z"/>
<path d="M165.9,107.3c-3.3-3.6-5.4-7.9-8.1-11.9c-1-1.4-2.4-2.8-3.1-4.3c-2-4.3,0.6-8.7,5.4-9.4c3.3-0.5,8.2,0.5,9.6,4
	c0.4,1.4,0.9,2.7,1.6,4c2.8,4.2,5.8,8.3,8.8,12.4c0.2,0.3,0.8,0,0.6-0.3c-2.4-3.3-4.7-6.7-7.1-10c-1.2-1.7-2.6-3.2-3.2-5.3
	c-0.3-1.2-0.2-1.8-1-2.9c-2.7-3.2-9.2-3.5-12.6-1.5c-4,2.5-4.7,6.1-2.4,9.8c3.3,5.3,6.8,11.3,11.1,15.9
	C165.7,108.1,166.1,107.6,165.9,107.3L165.9,107.3z"/>
<path d="M208.9,88.9c-2.3-3.1-4.5-6.3-6.6-9.5c-1.5-2.3-3-5.7-5.4-7.3c-3-2.1-7.9-1.7-10.7,0.5c-2.6,2-3.7,5.4-2.4,8.5
	c1.2,2.7,4.1,4.7,5.8,7c1.9,2.7,3.6,5.4,5.2,8.3c0.1,0.2,0.3,0.2,0.4,0.1c0.2-0.1,0.2-0.3,0.1-0.4c-1.8-3.3-3.8-6.4-6-9.4
	c-2.9-3.7-8.1-7.8-3.6-12.7c2.4-2.3,5.8-3.2,9-2.2c3.2,1,4.5,4,6.2,6.6c2.4,3.7,4.9,7.3,7.5,10.9C208.7,89.6,209.2,89.2,208.9,88.9
	L208.9,88.9z"/>
<path class="st3" d="M70.3,124c0.2-0.2,0.5-0.4,0.8-0.5c0.6-0.4,1.3-0.6,2-0.6c0.3,0,0.5,0.1,0.8,0.2c0.2,0.1,0.4,0.3,0.5,0.6
	c0,0.2,0,0.4,0.1,0.6"/>
<path d="M70.6,124.2c0.6-0.4,1.2-0.8,1.9-0.9c0.4-0.2,0.9-0.2,1.3,0c0.4,0.3,0.3,0.7,0.4,1s0.8,0.2,0.6-0.2s-0.1-0.9-0.5-1.2
	c-0.3-0.3-0.7-0.4-1.1-0.4c-1.1,0.1-2.2,0.5-3,1.2C69.8,124,70.3,124.5,70.6,124.2L70.6,124.2z"/>
<path class="st3" d="M73.9,123c0-0.1,0.1-0.1,0.1-0.2c0.6-0.5,1.3-0.9,2.1-1.1c0.8-0.2,1.7,0.1,2.1,0.8"/>
<path d="M74.2,123.2c0.8-1,3-1.9,3.9-0.5c0.2,0.3,0.8,0,0.6-0.3c-1.1-1.8-3.8-1-4.9,0.4C73.4,123.1,73.9,123.5,74.2,123.2z"/>
<path class="st3" d="M77.5,121.6c0.5-0.5,1-0.9,1.5-1.3c0.5-0.4,1.2-0.6,1.9-0.7c0.9,0,1.7,0.4,2.2,1.1"/>
<path d="M77.7,121.8c1.4-1.4,3.5-2.8,5.1-0.9c0.3,0.3,0.7-0.1,0.5-0.5c-1.9-2.3-4.4-0.8-6,0.9C77,121.7,77.4,122.1,77.7,121.8
	L77.7,121.8z"/>
<path class="st3" d="M171.5,89.7c0.5-0.5,1.1-0.8,1.7-0.9c0.5-0.2,1-0.3,1.5-0.3c0.5,0,1,0.1,1.4,0.5"/>
<path d="M171.7,89.9c0.8-0.9,3.1-1.6,4.1-0.8c0.3,0.2,0.8-0.2,0.5-0.5c-0.7-0.5-1.6-0.7-2.4-0.4c-1,0.1-1.9,0.5-2.6,1.2
	C171,89.8,171.5,90.2,171.7,89.9L171.7,89.9z"/>
<path class="st3" d="M175.7,88.4c0.7-0.6,1.6-1.1,2.5-1.3c0.5-0.1,1.1-0.1,1.6,0"/>
<path d="M175.9,88.7c1-1,2.4-1.4,3.8-1.2c0.4,0.1,0.6-0.5,0.2-0.6c-1.6-0.2-3.2,0.3-4.4,1.4C175.1,88.5,175.6,88.9,175.9,88.7z"/>
<path class="st3" d="M179.6,87c0.7-0.4,1.4-0.7,2-1c0.3-0.2,0.6-0.3,0.9-0.3c0.3,0,0.7,0,0.9,0.2"/>
<path d="M179.8,87.2c0.9-0.5,2.6-1.8,3.6-1.1c0.4,0.2,0.7-0.3,0.3-0.6c-1.3-0.8-3.1,0.5-4.2,1.1c-0.2,0.1-0.2,0.3-0.1,0.4
	S179.6,87.3,179.8,87.2L179.8,87.2L179.8,87.2z"/>
<path class="st3" d="M183.5,85.9c0.2-0.5,0.5-0.9,1-1.1c0.6-0.3,1.3-0.4,1.9-0.3"/>
<path d="M183.8,85.9c0.5-1.1,1.6-1.2,2.6-1.2c0.4,0,0.4-0.6,0-0.7c-1.4-0.1-2.6,0.3-3.2,1.7C183,86.1,183.6,86.3,183.8,85.9z"/>
<path class="st3" d="M202.1,79.4c0.1-0.4,0.4-0.6,0.8-0.8c0.6-0.3,1.2-0.3,1.9-0.2"/>
<path d="M202.4,79.5c0.3-0.8,1.7-0.8,2.4-0.8c0.4,0,0.4-0.6,0-0.7c-1-0.1-2.6,0.1-3,1.2C201.6,79.7,202.2,79.9,202.4,79.5z"/>
<path d="M175.8,89.1c2.4,3.9,5.2,7.6,7.8,11.3c0.2,0.3,0.8,0,0.6-0.3c-2.6-3.8-5.3-7.5-7.8-11.3C176.1,88.5,175.6,88.8,175.8,89.1z"
	/>
<path d="M179.6,87.5c2.7,3.8,5.2,7.6,7.6,11.6c0.1,0.2,0.3,0.2,0.4,0.1c0.2-0.1,0.2-0.3,0.1-0.4c-2.4-4-4.9-7.9-7.6-11.6
	C179.9,86.9,179.3,87.2,179.6,87.5z"/>
<path d="M183.4,86.2c2.5,3.9,4.8,7.9,7,12c0.2,0.4,0.8,0,0.6-0.3c-2.2-4.1-4.5-8.1-7-12C183.7,85.5,183.2,85.9,183.4,86.2
	L183.4,86.2z"/>
<path class="st3" d="M137.9,101c0.5-0.1,1-0.4,1.3-0.7c0.4-0.4,0.9-0.6,1.4-0.6c0.4,0,0.7,0.2,1,0.5c0.3,0.3,0.5,0.6,0.7,1"/>
<path d="M138,101.3c0.6-0.2,1.1-0.5,1.6-0.9c1.2-0.8,1.9-0.1,2.5,0.9c0.2,0.3,0.8,0,0.6-0.3c-0.5-0.8-1-1.6-2-1.6
	c-1.1,0-1.8,1.1-2.8,1.3c-0.2,0-0.3,0.2-0.2,0.4C137.7,101.3,137.8,101.4,138,101.3L138,101.3z"/>
<path class="st3" d="M141.4,99.8c0.2-0.1,0.3-0.1,0.5-0.2c0.7-0.4,1.5-0.7,2.3-0.8c0.7,0,1.4,0.4,1.8,1"/>
<path d="M141.5,100.1c1.4-0.5,3.1-1.8,4.3-0.2c0.2,0.3,0.8,0,0.6-0.3c-0.4-0.7-1.1-1.1-1.9-1.2c-1.1,0-2.1,0.7-3.1,1
	C141,99.6,141.1,100.2,141.5,100.1L141.5,100.1z"/>
<path class="st3" d="M145.4,98.6c0.3-0.1,0.6-0.2,0.9-0.4c0.4-0.3,0.8-0.5,1.3-0.7c0.3-0.1,0.7-0.2,1-0.1c0.2,0,0.5,0,0.7,0.1
	c0.4,0.2,0.7,0.6,0.8,1.1"/>
<path d="M145.5,99c1.3-0.5,3.4-2.3,4.2-0.3c0.1,0.4,0.8,0.2,0.6-0.2c-0.3-0.8-0.7-1.4-1.6-1.4c-1.4-0.1-2.2,0.8-3.4,1.3
	C144.9,98.5,145.1,99.1,145.5,99z"/>
<path class="st3" d="M149.2,97.5c0-0.1,0.1-0.2,0.2-0.2c0.9-0.5,1.8-0.9,2.8-1c0.4-0.1,0.8,0,1.2,0.1c0.4,0.1,0.7,0.5,0.7,0.9"/>
<path d="M149.5,97.5c0.2-0.4,1.4-0.7,1.8-0.8c0.7-0.2,2.3-0.6,2.4,0.5c0.1,0.4,0.7,0.2,0.6-0.2c-0.2-1.1-1.3-1.3-2.2-1.2
	s-2.8,0.5-3.2,1.4C148.7,97.8,149.3,97.9,149.5,97.5L149.5,97.5z"/>
<path class="st3" d="M153.4,96.2c0.2-0.3,0.4-0.5,0.7-0.7c0.7-0.4,1.6-0.6,2.4-0.7"/>
<path d="M153.7,96.4c0.6-0.9,1.8-1.1,2.8-1.2c0.4,0,0.4-0.7,0-0.6c-1.2,0.2-2.7,0.4-3.4,1.5c-0.1,0.2,0,0.4,0.1,0.4
	C153.4,96.6,153.6,96.5,153.7,96.4L153.7,96.4z"/>
<path d="M142.1,101.3c2.3,4,5.4,7.4,7.1,11.8c0.1,0.4,0.8,0.2,0.6-0.2c-1.8-4.4-4.8-7.9-7.2-12c-0.1-0.1-0.3-0.2-0.4-0.1
	C142,101,142,101.2,142.1,101.3L142.1,101.3z"/>
<path d="M145.9,100c3.5,3.1,5.2,7.8,7.2,11.9c0.2,0.4,0.7,0,0.6-0.3c-2-4.2-3.7-8.9-7.3-12C146,99.3,145.6,99.8,145.9,100L145.9,100
	z"/>
<path d="M149.7,98.7c2.5,3.8,5.6,7.1,7.1,11.4c0.1,0.4,0.8,0.2,0.6-0.2c-1.6-4.4-4.7-7.7-7.2-11.6C150,98.1,149.5,98.4,149.7,98.7z"
	/>
<path d="M153.8,97.4c2.4,4,5.8,7.1,7.2,11.7c0,0.2,0.2,0.3,0.4,0.2c0.2,0,0.3-0.2,0.2-0.4c-1.4-4.6-4.8-7.8-7.2-11.8
	c-0.1-0.2-0.3-0.2-0.4-0.1S153.7,97.2,153.8,97.4L153.8,97.4z"/>
<path class="st3" d="M101.9,113.1l1.9-0.7c0.2-0.1,0.4-0.1,0.6-0.2c0.5,0,1,0.1,1.3,0.5c0.3,0.3,0.7,0.7,0.9,1.1"/>
<path d="M102,113.4c0.7-0.3,1.4-0.6,2.1-0.8c1.2-0.3,1.7,0.4,2.3,1.3c0.2,0.3,0.8,0,0.6-0.3c-0.4-0.8-1.1-1.4-2-1.7
	c-1-0.2-2.2,0.6-3.2,0.9C101.4,112.9,101.6,113.5,102,113.4L102,113.4z"/>
<path class="st3" d="M105.8,112.4c0.8-1,1.9-1.7,3.2-1.8c0.3,0,0.5,0,0.8,0c0.6,0.3,1.1,0.8,1.4,1.4"/>
<path d="M106.1,112.6c0.5-0.7,1.3-1.2,2.2-1.5c0.5-0.2,1-0.2,1.5-0.2c0.5,0.3,1,0.7,1.2,1.2c0.1,0.1,0.3,0.2,0.4,0.1
	c0.1-0.1,0.2-0.3,0.1-0.4c-0.7-1.1-1.4-1.8-2.7-1.6c-1.2,0.2-2.4,0.9-3.1,1.9C105.3,112.4,105.8,112.9,106.1,112.6z"/>
<path class="st3" d="M110.3,110.6c0.3-0.4,0.8-0.7,1.2-1c0.6-0.2,1.2-0.3,1.8-0.3c0.2,0,0.4,0,0.6,0.1c0.2,0.1,0.4,0.2,0.6,0.4
	c0.3,0.3,0.5,0.5,0.8,0.8"/>
<path d="M110.5,110.8c0.6-0.8,1.5-1.2,2.5-1.2c0.9,0,1.7,0.5,2.1,1.2c0.3,0.3,0.7-0.1,0.4-0.4c-0.5-0.9-1.5-1.4-2.6-1.4
	c-1.1,0-2.2,0.5-2.9,1.4C109.8,110.7,110.2,111.1,110.5,110.8z"/>
<path class="st3" d="M114.1,109.3c0.9-0.8,2-1.3,3.1-1.4c0.6-0.1,1.1,0.1,1.5,0.5c0.4,0.4,0.7,0.8,1,1.3"/>
<path d="M114.3,109.5c0.7-0.6,1.7-1.1,2.6-1.3c1.2-0.2,1.9,0.7,2.4,1.6c0.1,0.2,0.3,0.2,0.4,0.1c0.2-0.1,0.2-0.3,0.1-0.4
	c-0.6-0.9-1.3-2-2.4-2c-1.3,0.1-2.6,0.6-3.6,1.5C113.6,109.3,114,109.8,114.3,109.5z"/>
<path class="st3" d="M118.4,107.9c0.2-0.3,0.5-0.5,0.8-0.7c0.9-0.5,1.9-0.7,2.8-0.7"/>
<path d="M118.7,108.1c0.6-0.9,2.4-1.2,3.4-1.2c0.2,0,0.3-0.1,0.3-0.3c0-0.2-0.1-0.3-0.3-0.3c-1.3,0-3.2,0.4-4,1.5
	C117.8,108.1,118.4,108.4,118.7,108.1L118.7,108.1z"/>
<path d="M106.4,113.9c1.2,1.9,2.7,3.6,3.8,5.6c1.2,2.1,2.2,4.3,3,6.6c0.2,0.4,0.8,0.2,0.6-0.2c-0.8-2.1-1.7-4.1-2.7-6
	c-1.2-2.2-2.9-4.1-4.2-6.3c-0.1-0.1-0.3-0.2-0.5,0C106.4,113.6,106.4,113.8,106.4,113.9L106.4,113.9z"/>
<path d="M110.9,112.2c2.3,4.1,4,8.6,6.2,12.7c0.2,0.4,0.8,0,0.6-0.3c-2.3-4.1-3.9-8.6-6.2-12.7c-0.1-0.1-0.3-0.2-0.4-0.1
	C110.9,111.9,110.9,112,110.9,112.2z"/>
<path d="M115,110.7c2.4,4.2,4.5,8.5,6.4,12.8c0.2,0.4,0.7,0,0.6-0.3c-1.9-4.4-4.1-8.7-6.4-12.8C115.4,110,114.8,110.4,115,110.7z"/>
<path d="M119.4,109.9c2,4,4.4,7.9,5.7,12.2c0,0.2,0.2,0.3,0.4,0.2c0.2,0,0.3-0.2,0.2-0.4c-1.3-4.3-3.8-8.3-5.8-12.3
	C119.8,109.2,119.2,109.5,119.4,109.9z"/>
<path class="st3" d="M82.2,120c0-0.2,0.2-0.2,0.3-0.3c0.6-0.3,1.3-0.6,2-0.8c0.7-0.2,1.4-0.2,2.1-0.1"/>
<path d="M82.5,120.2c0.3-0.5,1.3-0.7,1.8-0.8c0.7-0.2,1.5-0.3,2.2-0.2c0.4,0.1,0.6-0.6,0.2-0.6c-0.9-0.1-1.8-0.1-2.7,0.2
	c-0.8,0.2-1.5,0.5-2,1.1C81.8,120.2,82.3,120.5,82.5,120.2L82.5,120.2z"/>
<path d="M74.2,124.3c0.8,2,1.7,4,2.7,5.9c1.3,2.8,2.3,5.8,3.5,8.7c0.2,0.4,0.7,0.1,0.6-0.3c-1.1-2.6-2-5.2-3.1-7.8
	c-1-2.3-2.2-4.4-3.1-6.7C74.7,123.7,74,123.9,74.2,124.3z"/>
<path d="M78,122.6c1,2.5,1.9,5.1,3,7.6s2.5,4.5,3.4,7c0.1,0.4,0.8,0.2,0.6-0.2c-0.9-2.4-2.2-4.4-3.2-6.7c-1.2-2.6-2.1-5.3-3.2-7.9
	C78.5,122,77.9,122.2,78,122.6L78,122.6z"/>
<path d="M82.8,120.9c1.3,2.5,2.4,5.1,3.5,7.7c0.9,2.3,2.3,4.4,3.2,6.7c0.2,0.4,0.8,0.2,0.6-0.2c-1-2.6-2.5-5-3.6-7.5
	c-1-2.4-2-4.7-3.2-7C83.1,120.2,82.6,120.6,82.8,120.9L82.8,120.9z"/>
<path class="st3" d="M53.3,129.8c-1.8-0.4-3.6,0.7-4,2.5c-0.1,0.3-0.1,0.6-0.1,0.9"/>
<path d="M53.4,129.5c-2-0.4-4,0.8-4.4,2.9c-0.1,0.3-0.1,0.6-0.1,0.8c0,0.2,0.1,0.3,0.3,0.3c0.2,0,0.3-0.1,0.3-0.3
	c0-1.7,1.3-3.1,3-3.1c0.2,0,0.5,0,0.7,0.1C53.7,130.2,53.8,129.6,53.4,129.5z"/>
<path class="st5" d="M40.2,37.5c-2.2,3.9-4.6,7.7-7.2,11.4c-0.5,0.7-0.9,1.3-1.3,2s-0.8,1.7-1.2,2.5c-0.6,1.1-1.2,2.2-1.9,3.2
	L27,59.1c-2.4,3.9-3.4,6.3-6,10l-2,3.2L14,63c-0.7-1.3-1.4-2.7-2-4.1c-0.5-1.2-0.9-2.5-1.5-3.7c-0.5-0.9-0.9-1.8-1.3-2.8
	c-0.5-2,0-4.1,1.4-5.7c1.3-1.5,3.1-2.7,5-3.3c1.9-0.7,3.9-1.1,5.9-1.6s4-1.2,5.9-1.9c4.6-1.6,9.3-2.5,13.8-4.1
	c0.2-0.3,0.3-0.6,0.3-0.9c0-0.1-0.5-0.1-0.4,0L40.2,37.5z"/>
<path class="st5" d="M39.6,37.2c-4,6.8-8.2,13.6-12.4,20.3c-3,4.8-5.8,9.7-8.8,14.5h1.1c-2.6-4.8-5.5-9.4-7.5-14.5
	c-1.3-3.1-3.1-6-1.6-9.4c1.4-3.2,6-4.3,9-5.1c5.1-1.3,10-3.1,15.1-4.5c2.3-0.6,6.9-0.7,7.7-3.3c0.1-0.3-0.1-0.7-0.5-0.8
	c-1.5-0.4-1.8,1.9-2.2,2.9c-0.3,0.8,1,1.1,1.2,0.3c0.2-0.4,0.8-1.5,0.7-1.9c-0.2-0.8-4.1,0.6-5.1,0.9c-3.1,0.9-6.2,1.7-9.2,2.7
	c-5,1.6-11.6,2.3-15.8,5.7c-3.4,2.8-3.5,6-1.9,9.8c2.7,6.1,5.7,11.9,8.9,17.7c0.2,0.3,0.6,0.4,0.9,0.2c0.1-0.1,0.2-0.1,0.2-0.2
	c3-4.8,5.8-9.7,8.8-14.5c4.2-6.7,8.4-13.5,12.4-20.3c0.2-0.3,0.1-0.7-0.2-0.9C40.2,36.8,39.8,36.9,39.6,37.2L39.6,37.2z"/>
<path class="st5" d="M92.1,19.3c-4.6,1.4-9.2,2.8-13.6,4.6c-1.5,0.6-3.2,1-4.8,1.6c-3.4,1.2-6.8,2.1-10.2,3.2c-2,0.6-4,1.5-6,2.2
	c-4.6,1.7-9.4,3-14.2,4l0.7,0.3c0.7,2,1.7,4,3,5.7c4.1,6.3,8,12.8,11.8,19.3c0.2-0.4,0.4-0.9,0.7-1.3c2-3.5,4.1-6.9,6.1-10.3
	c3.8-6.6,7.5-13.3,11.3-19.9l3.4-4.6c0.7,0.4,1.3,0.9,1.8,1.5c0.4,0.6,0.7,1.2,1,1.8c0.5,0.9,1.1,1.7,1.8,2.4l7.7,9
	c0.3,0.3,0.5,0.6,0.6,0.9c0.2,0.5-0.1,1.1,0,1.7s0.7,1,1,1.5l2.2,3.8l0.1,0.3c0.8-1.7,1.8-3.4,3.1-4.8c0.2-0.2,0.4-0.5,0.5-0.7
	s0.3-0.5,0.4-0.7c1.1-2.2,2.2-4.3,3.4-6.4c0.4-0.7,0.7-1.4,1.1-2.1l0.4-0.5c1.2-2.2,2.5-4.5,3.9-6.6c0.7-1.1,1.4-2.2,2.1-3.3
	s1.2-2.2,1.8-3.3s1.1-2,1.6-3.1c0.4-0.9,0.8-2.1,1.5-2.6l0.7,0.6c0.8,0.6,1.5,1.3,2,2.2c0.8,1.1,1.7,2.1,2.5,3.2l2.2,2.9
	c0.4,0.5,0.7,1,1,1.5l0.5,0.5c1.8-2.9,3.4-6,5.1-9.1l0.9-1.7c1-1.4,1.8-2.9,2.4-4.4l1.3-0.7c2.5,3.1,5,6.3,7.4,9.5l0.9,1.4
	c2.6-4.3,5-8.7,7.3-13.2l0.8-1.2c-0.2-0.5-0.6-0.8-1-1.1c-0.8-0.5-1.6-1-2.4-1.4c-0.3-0.2-0.6-0.3-1-0.3l-0.6-0.2L138,3.7
	c-1.2,0.3-2.5,0.6-3.7,1c-1.6,0.5-3.2,1.1-4.7,1.6c-2.5,0.9-5,1.8-7.5,2.6l-10.8,3.7l-5.3,1.8l-12.2,4.2L92.1,19.3z"/>
<path class="st5" d="M92,18.6C84,21,76.3,24,68.4,26.4C59.9,29,51.7,32.3,43,34.2c-0.3,0.1-0.5,0.5-0.4,0.8c0,0.2,0.1,0.3,0.3,0.4
	c0.9,0.4,1.6,2.7,2,3.6c1.4,2.4,3,4.6,4.4,7c3,4.8,5.9,9.7,8.8,14.5c0.2,0.3,0.6,0.4,0.9,0.2c0.1-0.1,0.2-0.1,0.2-0.2
	c2.8-6,6.8-11.5,10.1-17.3c2.9-5.1,5.5-10.6,8.9-15.3c0.3-0.4,2-3.4,2.5-3.4c-0.1,0,5.4,7.7,5.9,8.2c1.1,1.3,2.3,2.5,3.3,3.9
	c1.1,1.1,2,2.4,2.7,3.9c0,0.3,0,0.7,0,1c1,1.9,2.5,3.6,3.3,5.6c0.2,0.5,0.9,0.7,1.2,0.2c1.1-2.2,2.7-4.1,4-6.2s2.3-4.3,3.4-6.4
	c2.3-4,4.7-8,7.2-11.9c1.2-1.9,2.3-3.9,3.3-5.9c1.1-2.3,0.8-4.2,3-1.6c2.4,2.8,4.2,6.4,7,8.9c0.3,0.2,0.7,0.2,0.9,0
	c0,0,0-0.1,0.1-0.1c2.8-4.5,4.9-9.6,7.9-14c1-1.4,0.5-1.6,1.8-0.6c1.1,1.1,2,2.3,2.8,3.6c1.6,1.9,3.1,3.9,4.4,6
	c0.2,0.3,0.6,0.4,0.9,0.2c0.1-0.1,0.2-0.1,0.2-0.2c2.8-4.8,5.1-9.8,8.1-14.5c0.1-0.2,0.1-0.4,0-0.6c-1.6-2.3-4.4-3.5-7.2-2.9
	c-6.6,1.6-13,3.6-19.4,5.9c-11.2,3.9-22.9,7-33.8,11.7c-0.8,0.3-0.1,1.4,0.7,1.1c12.3-5.2,25.5-8.7,38-13.1c3-1.1,6-2,9.1-2.8
	c3.3-0.9,6.4-2.6,9.6-0.8c1.4,0.8,1.6,0.7,1.4,1.9s-1.7,3.2-2.3,4.3c-1.7,3.1-3.4,6.2-5.2,9.2h1.1c-2.6-3.8-5.4-7.5-8.4-11
	c-0.2-0.2-0.5-0.2-0.8-0.1c-1.9,0.9-2.2,2.3-3.3,4.1c-1.9,3-3.6,6.2-5.2,9.4c-1,2.2-0.6,2.4-2,0.5c-0.8-1-1.5-2-2.3-3
	c-1.5-2.2-3.3-4.2-5.2-6c-0.3-0.2-0.7-0.2-0.9,0c-1.7,1.9-2.6,4.7-3.8,7c-1.9,3.4-4.2,6.6-6.1,10.1c-1.5,2.6-3,5.1-4.4,7.7
	c-1.7,3.2-4,6.2-5.7,9.4l1.2,0.2c-0.7-1.8-2.3-3.3-3-5s-0.5-2.5-1.8-4.1c-2.3-2.9-4.9-5.5-7.2-8.4c-1.8-2.2-2.4-4.1-4.7-5.7
	c-0.3-0.2-0.7-0.1-0.9,0.2c-3.2,4.4-6.1,9-8.6,13.8c-4.2,7.4-9.2,14.6-12.9,22.2h1.1c-3.2-5.3-6.3-10.6-9.6-15.9
	c-1.4-2.2-3-4.4-4.2-6.7c-0.7-1.3-0.6-2.3-1.9-2.9l-0.2,1.2c8.7-1.8,16.9-5.2,25.4-7.8c7.9-2.4,15.6-5.4,23.5-7.8
	C93.1,19.6,92.7,18.4,92,18.6z"/>
<path d="M204.7,92.5l-100,36.9c-13.8,5.1-27.5,10.8-41.5,15.3c-7.3,2.3-9.4-4-12-9.1l-13-25.4L10.8,56.6c-1.6-3.1-3.3-6.2-0.6-9.6
	c1.5-1.8,3.4-2.3,5.5-3l18.8-6.2l64.8-21.5c14.8-4.9,29.5-10.4,44.5-14.8c6.7-1.9,9.3,3.7,12.5,8.2L173,33.5l33.6,47.6
	c2.8,4,3.3,9.1-2.1,11.5c-0.8,0.3-0.1,1.4,0.6,1.1c4.8-2.2,6.3-7.4,3.5-11.9c-1-1.7-2.3-3.2-3.4-4.8l-17.5-24.8
	C176.3,36,165.2,19.7,153.6,3.8c-3.4-4.7-7.6-4.3-12.4-2.8l-21.4,7.1L51.3,30.9l-28,9.3c-3.8,1.3-9.1,2.1-12.5,4.5
	C4.5,49.1,9,55.8,11.5,60.8l14,27.6c9.1,17.8,17.8,35.7,27.2,53.3c2.8,5.2,7.3,5.6,12.3,3.8l19-7l118.2-43.6l2.8-1
	C205.8,93.5,205.5,92.2,204.7,92.5z"/>
<path d="M19.4,73.9L36.3,46l4.3-7.1c0.5-0.8,1.4-3.2,2.2-3.7c-0.2,0.1-0.6-0.3-0.1,0.5l1.5,2.4l5,8.3l9.1,15
	c0.1,0.2,0.3,0.2,0.5,0.1c0,0,0.1-0.1,0.1-0.1L79,27.4c0.4-0.8,0.8-1.5,1.3-2.3c0.6-0.7-0.6-0.6,0-0.1c2,2,3.5,5,5.1,7.3l11.1,15.8
	c0.1,0.2,0.3,0.2,0.5,0.1c0,0,0.1-0.1,0.1-0.1L112,22.6l3.6-6.2c0.3-0.6,0.7-1.2,1.1-1.8c0.6-0.6,0-0.3-0.1-0.3
	c1.5,0.5,3.6,4.5,4.6,5.7l4.2,5.2c0.1,0.1,0.3,0.1,0.5,0c0,0,0,0,0-0.1c2.9-5.1,5.6-10.5,8.8-15.5c0.7-1.1-0.2-0.8,0.4-0.2
	c1.1,1.1,2,2.3,2.9,3.6l5.5,6.9c0.1,0.1,0.3,0.1,0.5,0c0,0,0,0,0-0.1c3-5.2,6-10.4,9-15.7c0.2-0.4-0.4-0.7-0.6-0.3
	c-2.6,4.6-6.1,9.4-8.1,14.2c-0.2,0.5-0.4,0.9-0.8,1.3c0.6-0.1,0.3-0.3-0.2-0.7c-1.1-1.2-2.1-2.5-3-3.8l-5.2-6.6
	c-0.1-0.1-0.3-0.1-0.5,0c0,0,0,0,0,0.1c-2.9,5.2-5.6,10.5-8.8,15.5c-0.7,1.1,0.2,0.8-0.4,0.2c-1.1-1.1-2-2.3-2.9-3.6l-5.5-6.8
	c-0.1-0.1-0.3-0.1-0.5,0c0,0,0,0,0,0.1L97.5,46c-0.2,0.4-0.6,1.4-1,1.7c0.5-0.3,0.4,0.2-0.1-0.8c-1.7-2.7-3.5-5.3-5.4-7.8L80.6,24.3
	c-0.1-0.2-0.3-0.2-0.5-0.1c0,0-0.1,0.1-0.1,0.1L59.6,58.9c-0.3,0.5-0.7,1.7-1.2,2c0.3-0.2,0.4,0.4-0.1-0.7c-1.3-3-3.5-5.8-5.3-8.6
	L42.9,34.8c-0.1-0.2-0.3-0.2-0.5-0.1c0,0-0.1,0.1-0.1,0.1L18.8,73.5c-0.1,0.2,0,0.4,0.1,0.4C19.1,74.1,19.3,74,19.4,73.9z"/>
<path class="st3" d="M77.7,32.4l17.5-5.1c2.6-0.8,5.4,0.7,6.2,3.4l0.8,2.6c0.8,2.6-0.7,5.4-3.4,6.2l-17.5,5.1
	c-2.6,0.8-5.4-0.7-6.2-3.4l-0.8-2.6C73.6,35.9,75.1,33.2,77.7,32.4z"/>
<path d="M98.6,38.8l-12,3.5c-1.6,0.5-3.6,1.4-5.2,1.5c-2.4,0-4.7-1.3-5.8-3.4c-1.1-2.4-0.7-5.7,1.9-7.2c3.4-2,8.6-2.6,12.4-3.7
	c1.7-0.7,3.5-1.2,5.3-1.6c5.9-0.8,9.2,8.4,3.3,10.9c-0.8,0.3-0.1,1.4,0.7,1.1c7.1-3,3.4-14.7-4.1-13.3c-3.2,0.8-6.4,1.7-9.5,2.8
	c-2.6,0.8-5.5,1.3-8,2.4c-7.2,2.9-3.5,14.7,4,13.3c5.9-1.1,11.8-3.4,17.5-5.1c0.3-0.1,0.5-0.5,0.3-0.8
	C99.2,38.9,98.9,38.7,98.6,38.8z"/>
<path class="st2" d="M95.1,36.9l-4.8,1.6L84.4,40c-0.8,0.2-3.2,0.2-3.8-0.3c-0.4-0.3-0.7-0.8-0.8-1.3l0,0c-0.2-0.6-0.2-1.2-0.1-1.8
	c0.2-0.8,2.4-1.7,3.3-2l9.6-2.6c0.8-0.2,3.2-0.7,3.8-0.2c0.4,0.3,1.5,1.1,1.6,1.6l0,0c0,0.7-0.2,1.4-0.5,2
	C97.2,36.1,95.8,36.7,95.1,36.9z"/>
<path d="M95,36.6c-1.9,0.6-3.7,1.3-5.6,1.8c-1.4,0.4-2.8,0.8-4.2,1.1c-2.8,0.6-7.8-1.5-3.4-4c2.2-1.3,5.4-1.6,7.8-2.3
	c1-0.3,2-0.6,3-0.8c0.8-0.2,1.6-0.4,2.5-0.4C98.6,32.2,97.6,35.7,95,36.6c-0.4,0.1-0.2,0.8,0.2,0.6c4.4-1.5,3.7-6.4-1.1-5.8
	c-4,0.6-8,1.7-11.8,3.2c-4.6,1.8-3.1,6.4,1.6,5.8c3.8-0.5,7.7-2,11.3-3.2C95.5,37.1,95.4,36.5,95,36.6z"/>
<path class="st3" d="M82.6,35.9c-0.3,0-0.6,0.2-0.9,0.3c-0.6,0.5-0.7,1.4-0.3,2.1c0.3,0.6,1,1,1.7,1c0.7,0,1.4-0.3,1.7-0.9
	c0.3-0.6,0.3-1.4-0.2-2c-0.5-0.5-1.2-0.7-1.9-0.5L82.6,35.9z"/>
<path d="M82.5,35.6c-1,0.1-1.8,1.1-1.6,2.1c0,0.1,0,0.2,0,0.3c0.3,1.2,1.5,1.9,2.7,1.7c1.2-0.2,1.9-1.4,1.7-2.5
	C85.1,35.8,83.8,35.4,82.5,35.6c-0.3,0-0.3,0.7,0.1,0.6c0.7-0.1,1.6-0.1,1.9,0.7c0.4,0.8,0.1,1.7-0.7,2c-0.1,0-0.2,0.1-0.2,0.1
	c-1.9,0.5-3.1-2.4-0.9-2.8C83.1,36.1,82.9,35.5,82.5,35.6z"/>
<path class="st3" d="M94.3,32.5c-0.3,0-0.6,0.2-0.9,0.4c-0.6,0.5-0.7,1.4-0.3,2.1c0.3,0.6,1,1,1.7,1c0.7,0,1.4-0.3,1.7-0.9
	c0.3-0.6,0.3-1.4-0.2-2c-0.5-0.5-1.2-0.7-1.9-0.5L94.3,32.5z"/>
<path d="M94.2,32.2c-1,0.1-1.8,1.1-1.6,2.1c0,0.1,0,0.2,0,0.2c0.3,1.2,1.5,1.9,2.7,1.7c1.2-0.2,2-1.3,1.8-2.5c0,0,0,0,0,0
	c-0.2-1.3-1.5-1.7-2.7-1.5c-0.4,0-0.4,0.7,0,0.7c0.7-0.1,1.6-0.1,1.9,0.7c0.4,0.8,0,1.7-0.7,2c-0.1,0-0.1,0.1-0.2,0.1
	c-1.9,0.5-3.1-2.4-0.9-2.8C94.8,32.8,94.6,32.2,94.2,32.2z"/>
<path class="st4" d="M176.3,48.6l-11.6,4.8c-1.6,0.7-4.5,0.1-5.1-1.6l-4.9-9.3c-0.7-1.6,0-4.4,1.6-5l12.6-4.5
	c1.6-0.7,3.4,0.1,4.1,1.7l5.1,9.8C178.7,46.1,178,47.9,176.3,48.6C176.3,48.6,176.3,48.6,176.3,48.6z"/>
<path d="M176.3,48.3c-3.8,1.5-7.7,3.8-11.6,4.7c-4.1,1-5.2-2.1-6.7-4.9c-1.4-2.6-4.5-6.5-2.3-9.3c1.4-1.8,4.4-2.3,6.6-3.1
	c1.8-0.7,4.6-2.3,6.6-2.4c3.7-0.1,4.6,2.7,5.9,5.3C175.9,41,179.9,46,176.3,48.3c-0.4,0.2-0.1,0.8,0.2,0.6c4.8-2.9-0.5-9.2-2.3-12.5
	c-0.8-1.6-1.5-3.4-3.4-3.9s-5,1.2-6.8,1.9c-3.6,1.3-11.2,2.2-9.8,7.8c0.5,2.2,2.1,4.3,3.2,6.3c0.9,1.7,1.6,4,3.3,5
	c2.4,1.4,5-0.1,7.3-1l8.4-3.4C176.8,48.8,176.6,48.2,176.3,48.3z"/>
<path class="st2" d="M170.6,40.7c0.2,0.6,0.2,1.2,0,1.7c-0.3,0.6-0.7,1-1.3,1.2l0,0c-1.8,0.7-5.3,0.7-5.4-1.8c0-1.9,1.5-3.4,3.3-3.4
	c0,0,0.1,0,0.1,0C169,38.4,170.2,39,170.6,40.7z"/>
<path d="M170,40.9c0.4,1.8-1.1,2.4-2.5,2.5c-1,0.1-2.4,0-2.9-1C163.2,39.4,169,37.5,170,40.9c0.1,0.3,0.5,0.5,0.8,0.4
	c0.3-0.1,0.5-0.5,0.4-0.8c-1.4-4.8-9.5-2.7-7.9,2.1c0.6,1.8,2.9,2.1,4.6,1.9c2.3-0.3,3.8-1.6,3.4-4.1
	C171.1,39.7,169.9,40.1,170,40.9z"/>
</svg>
