<?xml version="1.0" encoding="utf-8"?>
<!-- Generator: Adobe Illustrator 23.0.6, SVG Export Plug-In . SVG Version: 6.00 Build 0)  -->
<svg version="1.1" id="Layer_1" xmlns="http://www.w3.org/2000/svg" xmlns:xlink="http://www.w3.org/1999/xlink" x="0px" y="0px"
	 viewBox="0 0 216.7 202.4" style="enable-background:new 0 0 216.7 202.4;" xml:space="preserve">
<style type="text/css">
	.st0{fill:#444444;}
	.st1{fill:#EACA60;}
	.st2{fill:#BCBBAF;}
	.st3{fill:#00B572;}
	.st4{opacity:0.6;}
	.st5{opacity:0.5;}
	.st6{fill:#E8E2A7;}
	.st7{fill:#F9A5A5;}
	.st8{fill:#F41C1C;}
	.st9{fill:#BCA15E;}
	.st10{fill:#353535;}
</style>
<title>Asset 20</title>
<g>
	<path class="st0" d="M203.9,95.7L61.8,148.1c-3.4,1.3-7.2-0.2-8.8-3.5L8.1,56.8c-1.8-3.5-0.3-7.8,3.2-9.6c0.3-0.2,0.6-0.3,0.9-0.4
		L143.5,3.2c3-1,6.3,0.1,8.1,2.7l55.7,78.9c2.3,3.2,1.5,7.7-1.7,10C205.1,95.1,204.5,95.4,203.9,95.7z"/>
	<path d="M203.7,95l-100,36.9C90,137,76.3,142.7,62.3,147.2c-7.3,2.3-9.4-4-12-9.1l-12.9-25.3L10,59.1c-1.6-3.1-3.3-6.2-0.6-9.6
		c1.5-1.8,3.4-2.3,5.5-3l18.7-6.2l64.8-21.4c14.8-4.9,29.5-10.4,44.4-14.8c6.7-1.9,9.3,3.7,12.5,8.2L172,36l33.6,47.6
		c2.8,4,3.3,9-2.1,11.5c-0.8,0.3-0.1,1.4,0.6,1.1c4.1-1.7,6-6.3,4.3-10.3c-0.2-0.5-0.5-1-0.8-1.5c-1-1.7-2.3-3.2-3.4-4.8l-17.5-24.8
		c-11.4-16.1-22.5-32.4-34.1-48.3c-3.4-4.6-7.6-4.3-12.4-2.7l-21.4,7.1L50.5,33.4l-28,9.3c-3.9,1.3-9.1,2.1-12.5,4.5
		c-6.3,4.4-1.9,11.1,0.7,16.1l14.1,27.6c9.1,17.7,17.8,35.7,27.2,53.2c2.8,5.2,7.3,5.6,12.3,3.8l19-7l118.1-43.5l2.8-1
		C204.9,96,204.5,94.8,203.7,95z"/>
	<path class="st1" d="M52.5,129.8h-0.3c-1.1,0-2.1,0.8-2.5,1.9l-0.1,0.2c-0.4,1.4,0.4,2.8,1.8,3.2l0.5,0.1l-1.9-2.5
		c0.2,2.1,1,4.6,3.7,4.4l-2.4-3.2c-0.3,1.4-0.6,2.6,0.5,3.8c0.1,0.1,0.9,1,0.6,0.6c0.3,0.6,0.4,1.3,0.8,2c0.8,1.2,2.9,1.9,4,0.5
		l0.4-0.6l-4.4-1.8c-0.1,1.1,0.2,2.2,0.8,3.1c0.3,0.4,0.8,0.7,1,1c-0.5-0.9,0,0.5,0.2,0.7c1.5,1.8,3.8,2.2,6,2.3
		c3.3,0.2,3.3-4.9,0-5.1c-1-0.1-1.6,0-2.2-0.8c-0.2-0.3-0.4-0.7-0.6-1c-1-1.1-0.1,1-0.1-0.4c0.1-2.1-3-3.6-4.4-1.8l-0.4,0.5l4,0.5
		c-0.4-0.6-0.4-1.4-0.7-2s-1-1-1.5-1.5l0.8,1.8c0-0.2,0.1-0.4,0.1-0.6c0.3-1.5-0.7-3.4-2.5-3.3c1.3,1.8,1.8,2,1.5,0.8
		c0-1.1-0.8-2.1-1.9-2.5l-0.5-0.1l1.8,3.2l0.1-0.2l-2.5,1.9h0.3C55.8,134.9,55.8,129.7,52.5,129.8L52.5,129.8z"/>
	<path class="st1" d="M87.2,118.6c-5.5,0.4-10.5,3.6-15.8,4.9c-1.4,0.4-2.2,1.8-1.8,3.2c1.1,4,3.3,7.4,4.1,11.6
		c0.4,1.4,1.8,2.2,3.2,1.8c5.2-1.5,11.3-3,16-5.7c3.5-2,1.2-5.1,0-8c-1.2-3.1-2.6-5.5-6.5-4.7c-2.8,0.7-5.5,1.6-8.1,2.7
		c-1.4,0.5-2.8,0.8-3.5,2.2c-1.3,2.6,0.6,7.2,3.1,8.4c1.8,0.9,3.3,0.3,5.1-0.3c2.3-0.8,5.6-1.4,7.6-2.8c1.7-1.2,2.1-3.6,0.9-5.3
		c-0.2-0.2-0.4-0.5-0.6-0.7c-2.9-2.8-8.7,0.1-11.7,1.2c-3,1.2-1.7,6.2,1.4,5c1.3-0.5,2.7-1,4-1.4l1.4-0.4c1.4,0.1,1.7-0.2,1-0.9
		l1.3-2.2c-1.7,1-4.1,1.5-6,2.2c-0.4,0.1-3.5,1-2.5-0.3c-0.6,0.8,1.7-0.4,2-0.5c1-0.3,5.2-2.3,5.9-1.9c0.8,1.6,1.5,3.3,2,5l1.3-2.2
		c-2,1.5-5.1,2.1-7.3,3c-2.7,1-5.4,1.9-8.1,2.7l3.2,1.8c-0.8-4.2-3-7.6-4.1-11.6l-1.8,3.2c4.8-1.2,9.5-4.3,14.4-4.7
		c3.3-0.3,3.3-5.4,0-5.1L87.2,118.6z"/>
	<path class="st1" d="M102.6,117.6c4.7-0.2,7.7-2.3,12.1-3.7c2-0.6,5.5-2.5,7.6-2c2.3,0.5,3.6,4.7,4.3,6.8l1.2-2.9
		c-2.9,1.6-6.1,1.6-9.1,3.2c-3.3,1.8-7.2,2.3-10.3,4.5l3.1,0.4l-6-7.1l-1.1,4.3c3-1.1,5.9-2.1,9-3c1.1-0.3,10.6-2.3,8.6-4.6
		c-0.1-0.1-7.7,2.3-8.5,2.5c-2.2,0.3-4.3,1.1-6.2,2.2c-1.7,1.1-1.7,4.3,0.6,4.7c2.1,0.3,4.2,0.3,6.2-0.2c3.2-0.8,1.8-5.7-1.4-5
		c-1.1,0.4-2.3,0.4-3.5,0.2l0.6,4.7c3.1-2,20.2-2.6,16.6-9.4c-1.6-3-4.9-2.6-7.6-1.9c-5.3,1.4-10.6,3-15.8,4.9
		c-1.4,0.4-2.2,1.9-1.7,3.3c0.1,0.4,0.3,0.7,0.6,1l6,7.1c0.8,0.8,2.1,1,3.1,0.4c3.1-2.3,7.7-3.3,11.3-4.9c2.6-1.1,5.5-1.3,8.1-2.8
		c1-0.6,1.5-1.8,1.2-2.9c-1.4-4.3-3.8-11.2-9.5-10.9c-6.8,0.3-12.8,5.8-19.4,6C99.3,112.6,99.3,117.8,102.6,117.6L102.6,117.6z"/>
	<path class="st1" d="M159.7,98.3l-0.3-1.2c-0.3-1.1-1.3-1.9-2.5-1.9l0.9,0.4c-0.8-0.8-2.1-1-3.1-0.4c-2.2,1.5-4.8,1.7-7.3,2.4
		c-2.8,0.8-5.5,1.8-8.3,2.7c-1.4,0.4-2.2,1.9-1.8,3.2c0.1,0.4,0.3,0.8,0.6,1.1c1.1,1.2,3.2,2.8,3.7,4.5c0,0.9,0.3,1.3,0.9,1
		c-1.1,0.7-2.3,1.2-3.6,1.5l1.4,5c4.5-1.5,8.7-3.6,13.1-5.2c2-0.8,4.1-1.2,6.2-1.8c1.8-0.6,3.4-1.7,5.2-2s2.2-2.4,1.5-3.8
		c-2.3-4.8-5.2-5.2-9.9-3.8c-3.7,1.1-10.7-0.1-13.5,3.1c-2.2,2.5,0,5.6,2.8,6.1c5.1,1,11.9-2.3,16.6-3.8c1.4-0.4,2.2-1.9,1.8-3.3
		c-0.1-0.2-0.1-0.4-0.2-0.5l-0.5-2.2c0-1.4-1.2-2.6-2.6-2.6c-0.4,0-0.8,0.1-1.2,0.3c-3.5,2.2-7.1,4.3-10.8,6.3
		c-3.1,1.6-6.5,2.9-9.3,5.1c-2.1,1.7-8.5,8.7-1.9,9.2l-0.7-5c-2,0.8-4.1,1.4-6.2,1.9c-3.2,0.8-1.9,5.7,1.4,5
		c2.1-0.5,4.2-1.1,6.2-1.9c1.3-0.5,2-2,1.5-3.3c-0.4-0.9-1.2-1.6-2.2-1.7h-0.3l2.2,1.3l-0.2-0.3v2.6c2-4,6.9-5.7,10.6-7.6
		c4.2-2.2,8.2-4.5,12.2-7l-3.9-2.2c0.1,1.7,0.5,3.3,1.2,4.8l1.5-3.8c-2.6,0.9-5.3,1.7-7.9,2.4c-1.2,0.3-2.9,0.4-3.9,1
		c-0.8,0-1.2,0.5-1.2,1.4c-0.9,1.4-0.7,1.7,0.8,0.9c3.3,0.2,11.5-3.2,13.1,0.1l1.5-3.8c-1.5,0.4-2.9,1-4.2,1.7
		c-2.3,0.9-4.8,1.3-7.1,2.2c-4.4,1.6-8.6,3.8-13.1,5.2c-3.1,1-1.9,5.8,1.4,5c2.6-0.7,7.5-2.1,7.6-5.3c0.1-3.8-3.9-7.8-6.3-10.3
		l-1.1,4.3c3.2-1.1,6.3-2.3,9.6-3.1c2.6-0.7,5-1,7.3-2.6l-3.1-0.4c0.7,0.8,1.7,1.2,2.8,1.1l-2.5-1.9l0.3,1.2c0.7,3.2,5.7,1.9,5-1.4
		L159.7,98.3z"/>
	<path class="st1" d="M175.8,90.8L175.8,90.8l-1.8,3.2c4.5-1,9-3,13.3-4.5l-2.5-0.7c2.6,2.2,5.1,4.5,7.3,7.1l1.1-4.3
		c-3.8,1.5-7.6,3.2-11.4,4.6c-0.9,0.3-1.8,0.6-2.8,0.8c0-0.3,1.8-0.9,2.1-1.1c1.2-0.6,5.1-3,6.5-2.7l-1.8-1.8
		c0.1,0.4-6.2,3.3-6.7,3.6c-2.9,1.5-0.4,5.9,2.6,4.4s12.4-4.9,8.8-10c-1.4-1.9-3.6-1.7-5.6-0.9c-2.7,1.1-6.1,2.2-8.5,3.9
		c-3.7,2.6-1.5,7.4,2.2,8.9c2.2,0.9,3.8,0,5.9-0.9l10-4c1.4-0.4,2.2-1.9,1.7-3.3c-0.1-0.4-0.3-0.7-0.6-1c-2.7-3-6.4-8.5-10.9-7.4
		c-4.2,1-8.1,3.3-12.3,4.3c-1.4,0.4-2.2,1.8-1.8,3.2c0.4,1.3,1.2,2.4,2.3,3.1C175.9,97.2,178.5,92.8,175.8,90.8L175.8,90.8z"/>
	<path class="st1" d="M205.1,83.4l0.7-0.7l-4-0.5c0.7,1.1,1.3,2.3,1.8,3.6c0.5,1.8-0.4,2.2-1.9,2.7c-2.1,0.8-4,2.3-6.4,2.5
		c-3.3,0.2-3.3,5.3,0,5.1c2.2-0.2,4.3-0.8,6.3-1.9c1.7-0.9,3.7-1.2,5.1-2.5c3.9-3.6,1.8-8.4-0.4-12.2c-0.7-1.2-2.3-1.6-3.6-0.9
		c-0.2,0.1-0.3,0.2-0.4,0.3l-0.7,0.7C199.1,82.1,202.8,85.7,205.1,83.4L205.1,83.4z"/>
	<path class="st0" d="M204.8,93.1L62.6,145.5c-3.4,1.2-7.2-0.3-8.9-3.5L8.9,54.2c-1.8-3.5-0.4-7.8,3.1-9.6c0.3-0.2,0.7-0.3,1-0.4
		L144.3,0.7c3-1,6.3,0.1,8.1,2.7l55.7,78.9c2.3,3.2,1.5,7.7-1.7,10C205.9,92.6,205.4,92.9,204.8,93.1z"/>
	<path d="M204.6,92.5l-100,36.9c-13.8,5.1-27.5,10.8-41.5,15.3c-7.3,2.3-9.4-4-12-9.1l-12.9-25.3L10.9,56.6
		c-1.6-3.1-3.3-6.2-0.6-9.6c1.5-1.8,3.4-2.3,5.5-3l18.8-6.2l64.7-21.5c14.8-4.9,29.5-10.4,44.5-14.7c6.7-1.9,9.3,3.7,12.5,8.2
		l16.7,23.7L206.5,81c2.8,4,3.3,9-2.1,11.5c-0.8,0.3-0.1,1.4,0.6,1.1c4.1-1.7,6-6.3,4.3-10.4c-0.2-0.5-0.5-1-0.8-1.5
		c-1-1.7-2.3-3.2-3.4-4.8l-17.5-24.8C176.3,36,165.2,19.7,153.5,3.8c-3.4-4.6-7.6-4.3-12.4-2.7l-21.4,7.1L51.3,30.8l-28,9.3
		c-3.8,1.3-9.1,2.1-12.4,4.5C4.5,49,9,55.7,11.5,60.7l14.1,27.6c9,17.7,17.8,35.7,27.2,53.2c2.8,5.2,7.3,5.6,12.3,3.8l19-7
		l118.1-43.5l2.8-1C205.7,93.4,205.4,92.2,204.6,92.5z"/>
	<path d="M83.6,36.2c0.2,0,0.3-0.2,0.3-0.4c0-0.1-0.1-0.2-0.3-0.3c-0.2,0-0.3,0.2-0.3,0.4C83.4,36.1,83.5,36.2,83.6,36.2z"/>
	<path class="st2" d="M56.8,87l-11.7,4.5c-1.6,0.6-4.5,0-5.1-1.6l-4.8-9.3c-0.6-1.6,0-4.4,1.7-5l12.7-4.3c1.6-0.6,3.5,0.2,4.1,1.8
		c0,0,0,0,0,0l4.9,9.8C59.3,84.5,58.5,86.3,56.8,87C56.9,87,56.9,87,56.8,87z"/>
	<path d="M56.8,86.6c-3.8,1.5-7.7,3.6-11.6,4.6c-4.1,1-5.2-2.2-6.6-5c-1.3-2.5-4.8-7.2-2-9.8c1.6-1.4,4.5-1.9,6.5-2.6
		s4.6-2.2,6.6-2.2c3.7,0,4.5,2.8,5.8,5.4c1.2,2.4,5.1,7.5,1.3,9.7c-0.1,0.1-0.2,0.3-0.1,0.4c0.1,0.1,0.3,0.2,0.4,0.1
		c4.8-2.8-0.4-9.2-2.1-12.6c-0.8-1.6-1.4-3.4-3.3-3.9s-5,1.1-6.8,1.8c-3.7,1.3-11.2,2.1-9.9,7.7c0.5,2.2,2.1,4.3,3.1,6.3
		c0.8,1.7,1.5,4,3.3,5c2.4,1.4,5,0,7.3-0.9l8.4-3.3C57.3,87.1,57.1,86.5,56.8,86.6z"/>
	<path class="st0" d="M42.6,80.2L42.6,80.2c0,0.5,0,0.9,0.2,1.3c0.4,1,1.2,1.8,2.2,2.1c1,0.3,2.1,0.3,3.1,0c1.1-0.3,2-0.9,2.7-1.8
		c1.7-2.4-0.2-5.7-2.8-6.4S42.7,77.7,42.6,80.2z"/>
	<path d="M42,80.2c-0.2,6.4,11,5.2,10.1-0.9c-0.4-2.4-2.5-4.3-4.9-4.4C44.3,74.8,42.2,77.6,42,80.2c-0.1,0.8,1.2,0.8,1.3,0
		c0.1-2,1.6-3.6,3.5-4c1.8-0.1,3.4,1.1,3.9,2.8c1.3,4.6-7.6,6-7.4,1.1C43.3,79.4,42,79.4,42,80.2z"/>
	<polygon class="st3" points="52.6,97 57.7,105.4 45.7,108.8 	"/>
	<path d="M52.3,97.2l2.9,4.8c0.5,1,1.1,2,1.7,2.9c0.2,0.2,0.3,0.4,0.4,0.7c-0.2-0.6,0.5-0.3-0.2-0.3c-0.9,0.1-1.8,0.4-2.7,0.8
		l-3.8,1.1l-5.1,1.4l0.4,0.5l6.9-11.8c0.1-0.2,0-0.4-0.2-0.4c-0.1,0-0.3,0-0.4,0.1l-6.9,11.8c-0.1,0.2,0,0.3,0.1,0.4
		c0.1,0,0.2,0.1,0.2,0l11.9-3.3c0.2-0.1,0.3-0.2,0.2-0.4c0,0,0,0,0-0.1l-5-8.4c-0.1-0.1-0.3-0.2-0.5,0
		C52.3,96.9,52.3,97.1,52.3,97.2z"/>
	<polygon class="st3" points="159,39.7 152.9,31.2 165.2,27.6 	"/>
	<path d="M159.3,39.5l-3.5-4.8c-0.7-1-1.4-2-2.1-3c-0.2-0.2-0.3-0.4-0.5-0.6c0.2,0.6-0.5,0.3,0.2,0.3c0.9-0.1,1.8-0.4,2.6-0.8l4-1.2
		l5.2-1.5l-0.4-0.5l-6.3,12.1c-0.2,0.4,0.4,0.7,0.6,0.3l6.2-12.1c0.1-0.2,0-0.3-0.1-0.4c-0.1,0-0.2-0.1-0.2,0l-12.3,3.6
		c-0.2,0.1-0.3,0.2-0.2,0.4c0,0,0,0,0,0.1l6.1,8.5C158.9,40.2,159.5,39.9,159.3,39.5z"/>
	<path class="st2" d="M45.2,96.1L45.2,96.1c0.3,0,0.6-0.2,0.9-0.4c0.4-0.3,0.6-0.8,0.6-1.3c0-0.5-0.3-0.9-0.8-1.1
		C43.8,92.7,43.5,96,45.2,96.1z"/>
	<path d="M45.2,96.4c1.2,0.1,2-1.6,1.7-2.6c-0.4-0.8-1.3-1.2-2.1-0.8c-0.1,0-0.1,0.1-0.2,0.1C43.3,93.9,43.6,96.3,45.2,96.4
		c0.4,0,0.4-0.6,0-0.6c-0.8-0.1-0.9-1.3-0.5-1.9c0.3-0.3,0.7-0.4,1.1-0.3c1,0.4,0.3,2.2-0.6,2.2C44.7,95.8,44.7,96.4,45.2,96.4z"/>
	<path class="st2" d="M58.4,91.1L58.4,91.1c0.1-0.1,0.2-0.1,0.2-0.2c0-0.1,0.1-0.2,0.1-0.3c0-1.1-1-2.2-1.9-1.1
		c-0.4,0.5-0.3,1.2,0.2,1.6C57.5,91.4,58,91.4,58.4,91.1z"/>
	<path d="M58.6,91.4c1.3-0.8-0.4-3.6-1.7-2.3c-0.6,0.5-0.7,1.4-0.3,2C57.1,91.7,57.9,91.8,58.6,91.4c0.1-0.1,0.2-0.3,0.1-0.5
		c-0.1-0.1-0.3-0.2-0.4-0.1c-0.8,0.4-1.7-0.3-1.2-1.1c0.8-1.1,1.7,0.8,1.2,1.1C57.9,91.1,58.2,91.6,58.6,91.4z"/>
	<path class="st2" d="M165.5,56.3c0.1,0,0.2,0,0.4-0.1c0.2-0.1,0.3-0.3,0.3-0.5c0.1-0.2,0.1-0.5,0.1-0.7c0-0.2-0.1-0.5-0.3-0.6l0,0
		C164.3,53.2,163,56.6,165.5,56.3z"/>
	<path d="M165.5,56.7c0.7-0.1,0.9-0.5,1-1.1c0.2-0.5,0-1.1-0.4-1.4c-0.5-0.4-1.3-0.4-1.8,0.1c-0.5,0.4-0.7,1-0.5,1.6
		C164.1,56.5,164.8,56.8,165.5,56.7c0.4,0,0.4-0.7,0-0.6s-0.9,0-1-0.3c-0.1-0.3-0.1-0.6,0.1-0.8c0.1-0.3,0.4-0.4,0.8-0.4
		c0.2,0,0.4,0.1,0.5,0.2c0.3,0.3,0.1,1.3-0.3,1.3S165.1,56.7,165.5,56.7z"/>
	<path class="st2" d="M176.6,52L176.6,52c0.4,0.2,1,0,1.2-0.4c0.1-0.2,0.2-0.5,0.2-0.8c0-0.2,0-0.5-0.1-0.7
		c-0.1-0.2-0.4-0.3-0.6-0.3C176.1,49.8,175.3,51.4,176.6,52z"/>
	<path d="M176.4,52.3c0.6,0.3,1.4,0,1.7-0.6c0,0,0-0.1,0.1-0.2c0.3-0.8,0.2-1.9-0.9-1.9c-0.8-0.1-1.5,0.5-1.6,1.3
		C175.6,51.4,175.9,52,176.4,52.3c0.4,0.2,0.7-0.4,0.3-0.5c-0.4-0.2-0.5-0.7-0.4-1c0.1-0.2,0.3-0.4,0.5-0.4c0.2-0.1,0.4-0.1,0.6,0
		c0.3,0.1,0.2,0.5,0.2,0.7s-0.4,1-0.9,0.7C176.4,51.5,176,52.1,176.4,52.3z"/>
	<g class="st4">
		<g class="st5">
			<path class="st6" d="M72.5,57.8c0.9,0.9,1.5,2,1.9,3.2c0.5,1.6,3,0.9,2.5-0.7c-0.5-1.6-1.3-3.1-2.5-4.3
				C73.2,54.8,71.4,56.6,72.5,57.8L72.5,57.8z"/>
		</g>
		<g class="st5">
			<path class="st6" d="M88.7,85.4c0.9,0.9,1.5,2,1.9,3.2c0.5,1.6,3,0.9,2.5-0.7c-0.5-1.6-1.4-3.1-2.6-4.3
				C89.4,82.3,87.6,84.2,88.7,85.4z"/>
		</g>
		<g class="st5">
			<path class="st6" d="M94.2,94.9c0.9,0.9,1.5,2,1.9,3.2c0.5,1.6,3,0.9,2.5-0.7c-0.5-1.6-1.4-3.1-2.6-4.3
				C94.9,91.9,93,93.7,94.2,94.9z"/>
		</g>
		<g class="st5">
			<path class="st6" d="M106.2,90.8c0.9,0.9,1.5,2,1.9,3.2c0.5,1.6,3,0.9,2.5-0.7c-0.5-1.6-1.4-3.1-2.6-4.3
				C106.9,87.8,105,89.6,106.2,90.8L106.2,90.8z"/>
		</g>
		<g class="st5">
			<path class="st6" d="M130.4,82.5c0.9,0.9,1.5,2,1.9,3.2c0.5,1.6,3,0.9,2.5-0.7c-0.5-1.6-1.4-3.1-2.6-4.3
				C131.1,79.5,129.2,81.3,130.4,82.5z"/>
		</g>
		<g class="st5">
			<path class="st6" d="M137,69.4c0.9,0.9,1.5,2,1.9,3.2c0.5,1.6,3,0.9,2.5-0.7c-0.5-1.6-1.4-3.1-2.6-4.3
				C137.6,66.4,135.8,68.2,137,69.4z"/>
		</g>
		<g class="st5">
			<path class="st6" d="M142.4,78.7c0.9,0.9,1.5,2,1.9,3.2c0.5,1.6,3,0.9,2.5-0.7c-0.5-1.6-1.4-3.1-2.6-4.3
				C143.1,75.7,141.2,77.5,142.4,78.7L142.4,78.7z"/>
		</g>
		<g class="st5">
			<path class="st6" d="M120,42.9c0.9,0.9,1.5,2,1.9,3.2c0.5,1.6,3,0.9,2.5-0.7c-0.5-1.6-1.4-3.1-2.6-4.3
				C120.7,39.9,118.9,41.7,120,42.9z"/>
		</g>
		<g class="st5">
			<path class="st6" d="M96.6,50.3c0.9,0.9,1.5,2,1.9,3.2c0.5,1.6,3,0.9,2.5-0.7c-0.5-1.6-1.4-3.1-2.5-4.3
				C97.2,47.3,95.4,49.2,96.6,50.3L96.6,50.3z"/>
		</g>
	</g>
	<path class="st7" d="M84.9,53.9c0.9,0.9,1.5,2,1.9,3.2c0.5,1.6,3,0.9,2.5-0.7c-0.5-1.6-1.4-3.1-2.6-4.3
		C85.5,50.9,83.7,52.7,84.9,53.9z"/>
	<path class="st7" d="M78.1,67c0.9,0.9,1.5,2,1.9,3.2c0.5,1.6,3,0.9,2.5-0.7c-0.5-1.6-1.4-3.1-2.6-4.3C78.7,64,76.9,65.8,78.1,67z"
		/>
	<path class="st7" d="M89.6,63c0.9,0.9,1.5,2,1.9,3.2c0.5,1.6,3,0.9,2.5-0.7c-0.5-1.6-1.4-3.1-2.6-4.3C90.2,60,88.4,61.8,89.6,63
		L89.6,63z"/>
	<path class="st7" d="M95.7,72.3c0.9,0.9,1.5,2,1.9,3.2c0.5,1.6,3,0.9,2.5-0.7c-0.5-1.6-1.4-3.1-2.6-4.3
		C96.3,69.3,94.5,71.1,95.7,72.3z"/>
	<path class="st7" d="M83.4,75.9c0.9,0.9,1.5,2,1.9,3.2c0.5,1.6,3,0.9,2.5-0.7c-0.5-1.6-1.4-3.1-2.6-4.3
		C84.1,72.9,82.2,74.7,83.4,75.9z"/>
	<path class="st7" d="M100.7,81.5c0.9,0.9,1.5,2,1.9,3.2c0.5,1.6,3,0.9,2.5-0.7c-0.5-1.6-1.4-3.1-2.6-4.3
		C101.3,78.5,99.5,80.3,100.7,81.5z"/>
	<path class="st7" d="M118.6,86.7c0.9,0.9,1.5,2,1.9,3.2c0.5,1.6,3,0.9,2.5-0.7c-0.5-1.6-1.4-3.1-2.6-4.3
		C119.3,83.7,117.5,85.5,118.6,86.7z"/>
	<path class="st7" d="M124.5,73.2c0.9,0.9,1.5,2,1.9,3.2c0.5,1.6,3,0.9,2.5-0.7c-0.5-1.6-1.4-3.1-2.6-4.3
		C125.1,70.1,123.3,72,124.5,73.2z"/>
	<path class="st7" d="M113,77.3c0.9,0.9,1.5,2,1.9,3.2c0.5,1.6,3,0.9,2.5-0.7c-0.5-1.6-1.4-3.1-2.6-4.3
		C113.7,74.3,111.8,76.1,113,77.3z"/>
	<path class="st7" d="M131.1,60.5c0.9,0.9,1.5,2,1.9,3.2c0.5,1.6,3,0.9,2.5-0.7c-0.5-1.6-1.4-3.1-2.6-4.3
		C131.8,57.5,129.9,59.3,131.1,60.5L131.1,60.5z"/>
	<path class="st7" d="M125.4,51.5c0.9,0.9,1.5,2,1.9,3.2c0.5,1.6,3,0.9,2.5-0.7c-0.5-1.6-1.4-3.1-2.6-4.3
		C126.1,48.5,124.2,50.3,125.4,51.5z"/>
	<path class="st7" d="M108.4,46.6c0.9,0.9,1.5,2,1.9,3.2c0.5,1.6,3,0.9,2.5-0.7c-0.5-1.6-1.4-3.1-2.6-4.3
		C109.1,43.6,107.2,45.4,108.4,46.6z"/>
	<path class="st7" d="M102.1,59c0.9,0.9,1.5,2,1.9,3.2c0.5,1.5,3,0.9,2.5-0.7c-0.5-1.6-1.4-3.1-2.6-4.3
		C102.7,56,100.9,57.8,102.1,59z"/>
	<path class="st7" d="M113.5,55.5c0.9,0.9,1.5,2,1.9,3.2c0.5,1.6,3,0.9,2.5-0.7c-0.5-1.6-1.4-3.1-2.6-4.3
		C114.1,52.6,112.3,54.4,113.5,55.5z"/>
	<path class="st7" d="M118.9,64.1c0.9,0.9,1.5,2,1.9,3.2c0.5,1.6,3,0.9,2.5-0.7c-0.5-1.6-1.4-3.1-2.6-4.3
		C119.5,61.1,117.7,62.9,118.9,64.1z"/>
	<path class="st7" d="M107.4,68.3c0.9,0.9,1.5,2,1.9,3.2c0.5,1.6,3,0.9,2.5-0.7c-0.5-1.6-1.4-3.1-2.6-4.3
		C108.1,65.3,106.2,67.1,107.4,68.3z"/>
	<path class="st8" d="M85.7,53.1c0.9,0.9,1.5,2,1.9,3.2c0.5,1.6,3,0.9,2.5-0.7c-0.5-1.6-1.4-3.1-2.6-4.3
		C86.4,50.1,84.5,51.9,85.7,53.1z"/>
	<path class="st8" d="M78.9,66.2c0.9,0.9,1.5,2,1.9,3.2c0.5,1.6,3,0.9,2.5-0.7c-0.5-1.6-1.4-3.1-2.6-4.3
		C79.6,63.2,77.8,65,78.9,66.2z"/>
	<path class="st8" d="M90.4,62.2c0.9,0.9,1.6,2,1.9,3.2c0.5,1.6,3,0.9,2.5-0.7c-0.5-1.6-1.4-3.1-2.6-4.3
		C91.2,59.2,89.3,61,90.4,62.2L90.4,62.2z"/>
	<path class="st8" d="M96.5,71.5c0.9,0.9,1.5,2,1.9,3.2c0.5,1.6,3,0.9,2.5-0.7c-0.5-1.6-1.3-3.1-2.5-4.3
		C97.2,68.5,95.4,70.3,96.5,71.5L96.5,71.5z"/>
	<path class="st8" d="M84.2,75.1c0.9,0.9,1.5,2,1.9,3.2c0.5,1.6,3,0.9,2.5-0.7c-0.5-1.6-1.4-3.1-2.6-4.3
		C84.9,72.1,83,73.9,84.2,75.1z"/>
	<path class="st8" d="M101.5,80.7c0.9,0.9,1.5,2,1.9,3.2c0.5,1.6,3,0.9,2.5-0.7c-0.5-1.6-1.4-3.1-2.6-4.3
		C102.2,77.6,100.3,79.5,101.5,80.7L101.5,80.7z"/>
	<path class="st8" d="M119.5,85.9c0.9,0.9,1.5,2,1.9,3.2c0.5,1.6,3,0.9,2.5-0.7c-0.5-1.6-1.4-3.1-2.6-4.3
		C120.2,82.9,118.3,84.7,119.5,85.9L119.5,85.9z"/>
	<path class="st8" d="M125.3,72.3c0.9,0.9,1.5,2,1.9,3.2c0.5,1.6,3,0.9,2.5-0.7c-0.5-1.6-1.4-3.1-2.6-4.3
		C126,69.3,124.1,71.1,125.3,72.3z"/>
	<path class="st8" d="M113.8,76.4c0.9,0.9,1.5,2,1.9,3.2c0.5,1.6,3,0.9,2.5-0.7c-0.5-1.6-1.4-3.1-2.6-4.3
		C114.5,73.4,112.7,75.3,113.8,76.4z"/>
	<path class="st8" d="M132,59.6c0.9,0.9,1.5,2,1.9,3.2c0.5,1.6,3,0.9,2.5-0.7c-0.5-1.6-1.4-3.1-2.6-4.3
		C132.7,56.6,130.8,58.4,132,59.6L132,59.6z"/>
	<path class="st8" d="M126.2,50.6c0.9,0.9,1.5,2,1.9,3.2c0.5,1.6,3,0.9,2.5-0.7c-0.5-1.6-1.4-3.1-2.6-4.3
		C126.9,47.6,125.1,49.4,126.2,50.6z"/>
	<path class="st8" d="M109.3,45.7c0.9,0.9,1.5,2,1.9,3.2c0.5,1.6,3,0.9,2.5-0.7c-0.5-1.6-1.4-3.1-2.6-4.3
		C110,42.7,108.1,44.5,109.3,45.7z"/>
	<path class="st8" d="M102.9,58.2c0.9,0.9,1.5,2,1.9,3.2c0.5,1.6,3,0.9,2.5-0.7c-0.5-1.6-1.4-3.1-2.6-4.3
		C103.6,55.1,101.7,57,102.9,58.2z"/>
	<path class="st8" d="M114.3,54.7c0.9,0.9,1.5,2,1.9,3.2c0.5,1.6,3,0.9,2.5-0.7c-0.5-1.6-1.4-3.1-2.6-4.3
		C115,51.7,113.1,53.5,114.3,54.7z"/>
	<path class="st8" d="M119.7,63.3c0.9,0.9,1.5,2,1.9,3.2c0.5,1.6,3,0.9,2.5-0.7c-0.5-1.6-1.4-3.1-2.6-4.3
		C120.4,60.2,118.6,62.1,119.7,63.3z"/>
	<path class="st8" d="M108.3,67.4c0.9,0.9,1.5,2,1.9,3.2c0.5,1.6,3,0.9,2.5-0.7c-0.5-1.6-1.4-3.1-2.6-4.3
		C108.9,64.4,107.1,66.2,108.3,67.4z"/>
	<path class="st1" d="M52.5,129.8h-0.3c-1.1,0-2.1,0.8-2.5,1.9l-0.1,0.2c-0.4,1.4,0.4,2.8,1.8,3.2l0.5,0.1l-1.9-2.5
		c0.2,2.1,1,4.6,3.7,4.4l-2.4-3.2c-0.3,1.4-0.6,2.6,0.5,3.8c0.1,0.1,0.9,1,0.6,0.6c0.3,0.6,0.4,1.3,0.8,2c0.8,1.2,2.9,1.9,4,0.5
		l0.4-0.6l-4.4-1.8c-0.1,1.1,0.2,2.2,0.8,3.1c0.3,0.4,0.8,0.7,1,1c-0.5-0.9,0,0.5,0.2,0.7c1.5,1.8,3.8,2.2,6,2.3
		c3.3,0.2,3.3-4.9,0-5.1c-1-0.1-1.6,0-2.2-0.8c-0.2-0.3-0.4-0.7-0.6-1c-1-1.1-0.1,1-0.1-0.4c0.1-2.1-3-3.6-4.4-1.8l-0.4,0.5l4,0.5
		c-0.4-0.6-0.4-1.4-0.7-2s-1-1-1.5-1.5l0.8,1.8c0-0.2,0.1-0.4,0.1-0.6c0.3-1.5-0.7-3.4-2.5-3.3c1.3,1.8,1.8,2,1.5,0.8
		c0-1.1-0.8-2.1-1.9-2.5l-0.5-0.1l1.8,3.2l0.1-0.2l-2.5,1.9h0.3C55.8,134.9,55.8,129.7,52.5,129.8L52.5,129.8z"/>
	<path class="st1" d="M87.2,118.6c-5.5,0.4-10.5,3.6-15.8,4.9c-1.4,0.4-2.2,1.8-1.8,3.2c1.1,4,3.3,7.4,4.1,11.6
		c0.4,1.4,1.8,2.2,3.2,1.8c5.2-1.5,11.3-3,16-5.7c3.5-2,1.2-5.1,0-8c-1.2-3.1-2.6-5.5-6.5-4.7c-2.8,0.7-5.5,1.6-8.1,2.7
		c-1.4,0.5-2.8,0.8-3.5,2.2c-1.3,2.6,0.6,7.2,3.1,8.4c1.8,0.9,3.3,0.3,5.1-0.3c2.3-0.8,5.6-1.4,7.6-2.8c1.7-1.2,2.1-3.6,0.9-5.3
		c-0.2-0.2-0.4-0.5-0.6-0.7c-2.9-2.8-8.7,0.1-11.7,1.2c-3,1.2-1.7,6.2,1.4,5c1.3-0.5,2.7-1,4-1.4l1.4-0.4c1.4,0.1,1.7-0.2,1-0.9
		l1.3-2.2c-1.7,1-4.1,1.5-6,2.2c-0.4,0.1-3.5,1-2.5-0.3c-0.6,0.8,1.7-0.4,2-0.5c1-0.3,5.2-2.3,5.9-1.9c0.8,1.6,1.5,3.3,2,5l1.3-2.2
		c-2,1.5-5.1,2.1-7.3,3c-2.7,1-5.4,1.9-8.1,2.7l3.2,1.8c-0.8-4.2-3-7.6-4.1-11.6l-1.8,3.2c4.8-1.2,9.5-4.3,14.4-4.7
		c3.3-0.3,3.3-5.4,0-5.1L87.2,118.6z"/>
	<path class="st1" d="M103.2,117.8c1.7-0.1,3.5-0.4,5.2-0.8c1.2-0.4,2.3-1.3,3.6-1.7c1.1-0.3,2.2-0.5,3.3-0.9
		c1.7-0.6,4.6-2.4,6.4-2.4c2.8,0,4,4.4,4.8,6.8l1.2-2.9c-2.9,1.6-6.1,1.6-9.1,3.2c-3.3,1.8-7.2,2.3-10.3,4.5l3.1,0.4l-6-7.1
		l-1.1,4.3c3-1.1,5.9-2.1,9-3c1.1-0.3,10.6-2.3,8.6-4.6c-0.1-0.1-7.7,2.3-8.5,2.5c-2.2,0.3-4.3,1.1-6.2,2.2
		c-1.7,1.1-1.7,4.3,0.6,4.7c2.1,0.3,4.2,0.3,6.2-0.2c3.2-0.8,1.8-5.7-1.4-5c-1.1,0.4-2.3,0.4-3.5,0.2l0.6,4.7
		c3.1-2,20.2-2.6,16.6-9.4c-1.6-3-4.9-2.6-7.6-1.9c-5.3,1.4-10.6,3-15.8,4.9c-1.4,0.4-2.2,1.9-1.7,3.3c0.1,0.4,0.3,0.7,0.6,1l6,7.1
		c0.8,0.8,2.1,1,3.1,0.4c3.1-2.3,7.7-3.3,11.3-4.9c2.6-1.1,5.5-1.3,8.1-2.8c1-0.6,1.5-1.8,1.2-2.9c-1.7-5.2-4.7-12.5-11.4-10.3
		c-6.1,2-11.9,4.9-18.2,5.8C98.7,113.3,100,118.3,103.2,117.8L103.2,117.8z"/>
	<path class="st1" d="M159.7,98.3l-0.3-1.2c-0.3-1.1-1.3-1.9-2.5-1.9l0.9,0.4c-0.8-0.8-2.1-1-3.1-0.4c-2.2,1.5-4.9,1.7-7.3,2.6
		c-2.8,1.1-5.5,1.7-8.4,2.6c-1.4,0.4-2.2,1.9-1.8,3.2c0.1,0.4,0.3,0.8,0.6,1.1c1.1,1.2,3.2,2.8,3.7,4.5c0,0.9,0.3,1.3,0.9,1
		c-1.1,0.7-2.3,1.2-3.6,1.5l1.4,5c4.5-1.5,8.7-3.6,13.1-5.2c2-0.8,4.1-1.2,6.2-1.8c1.8-0.6,3.4-1.7,5.2-2s2.2-2.4,1.5-3.8
		c-2.3-4.8-5.2-5.2-9.9-3.8c-3.7,1.1-10.7-0.1-13.5,3.1c-2.2,2.5,0,5.6,2.8,6.1c5.1,1,11.9-2.3,16.6-3.8c1.4-0.4,2.2-1.9,1.8-3.3
		c-0.1-0.2-0.1-0.4-0.2-0.5l-0.5-2.2c0-1.4-1.2-2.6-2.6-2.6c-0.4,0-0.8,0.1-1.2,0.3c-3.5,2.2-7.1,4.3-10.8,6.3
		c-3.1,1.6-6.5,2.9-9.3,5.1c-2.1,1.7-8.5,8.7-1.9,9.2l-0.7-5c-2,0.8-4.1,1.4-6.2,1.9c-3.2,0.8-1.9,5.7,1.4,5
		c2.1-0.5,4.2-1.1,6.2-1.9c1.3-0.5,2-2,1.5-3.3c-0.4-0.9-1.2-1.6-2.2-1.7h-0.3l2.2,1.3l-0.2-0.3v2.6c2-4,6.9-5.7,10.6-7.6
		c4.2-2.2,8.2-4.5,12.2-7l-3.9-2.2c0.1,1.7,0.5,3.3,1.2,4.8l1.5-3.8c-2.6,0.9-5.3,1.7-7.9,2.4c-1.2,0.3-2.9,0.4-3.9,1
		c-0.8,0-1.2,0.5-1.2,1.4c-0.9,1.4-0.7,1.7,0.8,0.9c3.3,0.2,11.5-3.2,13.1,0.1l1.5-3.8c-1.5,0.4-2.9,1-4.2,1.7
		c-2.3,0.9-4.8,1.3-7.1,2.2c-4.4,1.6-8.6,3.8-13.1,5.2c-3.1,1-1.9,5.8,1.4,5c2.6-0.7,7.5-2.1,7.6-5.3c0.1-3.8-3.9-7.8-6.3-10.3
		l-1.1,4.3c2.8-0.7,5.6-1.5,8.4-2.5c2.8-1.2,5.9-1.4,8.4-3.2l-3.1-0.4c0.7,0.8,1.7,1.2,2.8,1.1l-2.5-1.9l0.3,1.2
		c0.7,3.2,5.7,1.9,5-1.4L159.7,98.3z"/>
	<path class="st1" d="M175.8,90.8L175.8,90.8l-1.8,3.2c2.5-0.7,4.9-1.5,7.3-2.4c2.3-0.8,4.9-1.1,6.6-3h-3.6c2.8,2.2,5.5,4.6,7.9,7.2
		l1.1-4.3c-3.8,1.5-7.6,3.2-11.4,4.6c-0.9,0.3-1.8,0.6-2.8,0.8c0-0.3,1.8-0.9,2.1-1.1c1.2-0.6,5.1-3,6.5-2.7l-1.8-1.8
		c0.1,0.4-6.2,3.3-6.7,3.6c-2.9,1.5-0.4,5.9,2.6,4.4s12.4-4.9,8.8-10c-1.4-1.9-3.6-1.7-5.6-0.9c-2.7,1.1-6.1,2.2-8.5,3.9
		c-3.7,2.6-1.5,7.4,2.2,8.9c2.2,0.9,3.8,0,5.9-0.9l10-4c1.4-0.4,2.2-1.9,1.7-3.3c-0.1-0.4-0.3-0.7-0.6-1c-2.4-2.6-5-5-7.9-7.2
		c-1-1-2.6-1-3.6,0c-1.2,1.3-5,1.8-6.6,2.3s-3.2,1.3-5,1.7c-1.4,0.4-2.2,1.8-1.8,3.2c0.4,1.3,1.2,2.4,2.3,3.1
		C175.9,97.2,178.5,92.7,175.8,90.8L175.8,90.8z"/>
	<path class="st1" d="M205.1,83.4l0.7-0.7l-4-0.5c0.7,1.1,1.3,2.3,1.8,3.6c0.5,1.8-0.4,2.2-1.9,2.7c-2.1,0.8-4,2.3-6.4,2.5
		c-3.3,0.2-3.3,5.3,0,5.1c2.2-0.2,4.3-0.8,6.3-1.9c1.7-0.9,3.7-1.2,5.1-2.5c3.9-3.6,1.8-8.4-0.4-12.2c-0.7-1.2-2.3-1.6-3.6-0.9
		c-0.2,0.1-0.3,0.2-0.4,0.3l-0.7,0.7C199.1,82.1,202.8,85.7,205.1,83.4L205.1,83.4z"/>
	<path class="st1" d="M54.2,133.4l0,0.5c-0.2,2.9,4.3,3.4,5,0.7c0.5-1.9,0.5-3.9-0.2-5.8c-0.9-2.3-4.1-5.6-0.9-7.5
		c1.3-0.6,2.7-0.7,4.1-0.3c1,0.5,0.5,0.5,1.3,1.2c0.1,0.1,1.6,1.5,1.6,1.2c-0.2,0.9-5.5,2.5-6,2.5c-1.4,0-2.6,1.2-2.6,2.6
		c0.1,2.4-0.1,4.9-0.6,7.3c-0.5,2.4,2.4,4.4,4.3,2.5s3.9-3.9,6-5.7c1.8-1.6,3.8-2.8,4.8-5l-4.7-0.6c1.7,4.4,3.6,8.8,5.8,13l1.5-3.8
		c-1.8,0.4-3.6,1-5.3,1.6c-0.9,0.4-3.9,2.1-4.8,1.7c-0.4,0.7-0.1,0.5,0.8-0.5c0.7-0.6,1.3-1.2,1.9-1.8c0.8-0.8,1.9-2.8,2.9-3.3h-2.6
		c1.4,0.8-3.9,3.4-4.5,3.8c-2.6,2,0,6.4,2.6,4.4c3.1-2.3,9.8-4.5,7.6-9.7c-0.7-1.6-2.5-3.4-4.3-3.3c-2.3,0-3.5,2.5-4.8,4
		c-2.8,3-7.9,6-3,10c4.5,3.7,10.3-1,15-2.1c1.4-0.4,2.2-1.8,1.8-3.2c-0.1-0.2-0.1-0.4-0.2-0.5c-2-3.8-3.8-7.8-5.3-11.8
		c-0.7-1.9-3.6-2.8-4.7-0.6s-3.5,3.5-5.1,5s-3.3,3.1-4.9,4.7l4.3,2.5c0.6-2.9,0.8-5.8,0.8-8.7l-2.6,2.6c4.1-0.1,10.1-3,10.4-7.7
		c0.1-2.1-0.7-3-1.9-4.4c-0.9-1.1,0.7,0.7-0.4-0.6c-0.4-0.7-1-1.3-1.6-1.7c-3.6-2.1-10.3-1.1-12.9,2.3c-1.3,1.7-1.7,3.9-1.3,5.9
		c0.6,2.9,3.6,5.2,2.8,8.3l5,0.7v-0.5C59.6,130.1,54.4,130.1,54.2,133.4L54.2,133.4z"/>
	<path class="st1" d="M92,115.2c-2-0.6-3.8-2.9-1.6-4.6c2-1.5,4.7,0.2,5.7,2c0.3,1,0.6,2,0.8,3c0.6,1.2,1.1,2.5,1.4,3.8l4.3-2.5
		c-1.8-2.1-3.2-4.5-6.2-3.6s-4.4,3.9-7,5.3c-1.2,0.7-1.6,2.3-0.9,3.5c2.5,5.7,9.5-0.1,13-1l-2.9-3.8c-1.9,2.7-7.1,3.6-7.2,7.4
		c0,1.4,1.2,2.6,2.7,2.5c0.4,0,0.8-0.1,1.2-0.3c2.9-1.6,5.5-3.9,8.8-4.6l-2.9-1.2l0.2,0.5l0.4-3.1c-2.6,2.5-14.5,8.6-10.5,14
		c1.7,2.3,4.5,0.9,6.6,0.1c3.3-1.4,6.1-3,9.5-3.8c0.9-0.2,1.6-0.9,1.8-1.8c0.5-2.3-0.9-4.7-3.3-5.2c-0.5-0.1-1.1-0.1-1.7-0.1
		c-3.2,0.4-3.3,5.5,0,5.1v-1.3l1.8-1.8c-3.8,0.9-7.4,2.4-10.8,4.4l-1.2,0.5l2.8,0.3c1.1-0.7,2.2-1.4,3.2-2.3
		c1.9-1.3,3.7-2.8,5.4-4.4c0.8-0.8,1-2.1,0.4-3.1l-0.2-0.5c-0.6-1-1.8-1.5-2.9-1.2c-3.8,0.8-6.7,3.3-10,5.1l3.9,2.2
		c0,1.2,3.5-1.8,4-2.2c1-0.7,1.8-1.6,2.5-2.6c1.3-1.9-0.9-4.2-2.9-3.8c-0.9,0.2-7.5,2.7-7.2,3.3l-0.9,3.5c1.1-0.6,2-1.4,2.9-2.3
		c2-1.9,2.2-2.6,4.1-0.3c1.8,2.1,4.8-0.2,4.3-2.5c-0.5-2.5-1.7-4.6-2.2-7.1c-0.2-1.7-1-3.2-2.2-4.3c-2.8-2.5-6.7-2.2-10-0.9
		c-7.3,3.1-5.4,12.5,1.8,14.4c3.2,0.8,4.6-4.1,1.4-5L92,115.2z"/>
	<path class="st1" d="M134.1,109.8c-0.7,1-1.9,1.5-3.1,1.4l2.6,2.6c-0.3,0.7-0.3,0.7,0.2,0c0.3-0.5,0.7-0.9,1.1-1.3
		c0.9-0.7,1.8-1.2,2.9-1.6c1.6-0.5,3.2-1.3,4.5-2.3c2.2-1.9-0.7-5.6-3.1-4c0.8-0.5-2.5-6.4-2.9-7c-1.7-3-4.9-4.7-8.3-4.7
		c-3.1,0-6.9,1-8.3,4c-1.5,3.3,0.4,7.1,2.6,9.6c2,2.3,5.6,5,8.9,4.3c2.5-0.6,4.5-3.6,4.2-6.1c-0.3-2.7-2.9-3.5-5.1-2.4
		c-3.4,1.7-4.3,5.4-4.1,8.8c0,1.4,1.2,2.6,2.7,2.6c0.2,0,0.4,0,0.6-0.1c1.5-0.3,3-0.7,4.4-1.3c3.1-1.1,1.8-6.1-1.4-5
		c-1.5,0.5-2.9,0.9-4.4,1.3l3.2,2.5c0-0.9-0.3-4.3,1.3-4.2l-2.2-1.3c-0.4-0.5-1-0.2-1.6-0.4c-0.8-0.4-1.5-0.9-2.1-1.6
		c-1.2-1.2-3.4-4.1-1.2-5.3c2.1-0.9,4.5-0.4,6,1.2c0.9,1.1,0.9,2.4,1.5,3.6c0.3,0.6,0.6,1.2,0.8,1.8c0.3,1.2,0.8,2.3,1.6,3.2
		c1.6,1.8,4.3,2.2,6.3,0.8l-3.1-4c-2.1,1.8-5.2,1.8-7.4,3.9c-1.3,1.2-3,3-2.8,5c0,1.4,1.2,2.5,2.6,2.6c2.6,0,5-1.1,6.7-3
		c2.3-2.4-1.3-6-3.6-3.6L134.1,109.8z"/>
	<path class="st1" d="M164.7,96.7c0.2-1.2-0.3-2.4-1.3-3.1c-0.5-0.3-1-0.5-1.5-0.7c-0.9-0.5-0.6-0.2-0.3,0.2c-1-1.3-1.8-2.7-2.3-4.2
		c-0.5-2.1,2-3.1,3.8-2.4c1.3,0.5,1.5,0.8,1.9,2.1c0.3,1.2,0.3,2.2,1.1,3.2c1.1,1.4,2.4,2.3,3.4,3.9c1.7,2.7,4.9,4.9,7.6,6.6v-4.4
		c-3.9,1.7-8.1,2.4-11.8,4.6l3.5,3.5c1.2-2.8,3.4-4.2,6.1-5.6l-2.6-4.4c-1.1,0.6-2.4,1.7-3.6,1.8c0.2,0-4.1,1.5-2.4-1.3l4-0.5
		c-1.9-2.1-2.4-3.7-5.5-4.3l0.6,4.7c0.6-0.5,1.3-0.9,2-1.1c3.1-1,1.8-6-1.4-5c-1.2,0.4-2.2,0.9-3.2,1.6c-1.6,1.2-1.8,4.2,0.6,4.7
		c1,0.2,2.4,2.1,3.2,3c1,1,2.7,0.9,3.7-0.1c0.1-0.1,0.2-0.3,0.3-0.4c3.4-5.5-5.3-9.2-7.9-3.5c-1.1,2.3-0.5,6.2,1.9,7.6
		c3,1.7,7.7-1.3,10.3-2.8c2.9-1.7,0.3-5.9-2.6-4.4c-3.4,1.7-6.4,3.8-7.9,7.4c-1,2.2,1.1,5,3.5,3.5c3.6-2.2,7.9-2.9,11.8-4.6
		c1.9-0.8,1.4-3.5,0-4.4c-2.4-1.5-4.5-3.5-6.2-5.8c-1.2-1.8-2.8-3-3.2-5c-1.1-4.2-4.9-6.2-9.3-5.9s-8,4-6.8,8.4
		c0.8,2.3,1.9,4.5,3.4,6.5c0.5,0.6,1,1.2,1.7,1.6c0.4,0.2,0.8,0.4,1.3,0.4c1.2,0.1,0.9-0.3-0.8-1.3C159.3,100,164.4,99.9,164.7,96.7
		L164.7,96.7z"/>
	<path class="st1" d="M189.1,78.6c-2.1-2.6,4.2-2.3,4.2-2.2c1.2,0.6,1.8,2.1,2.3,3.2c0.5,1.2,1.4,2.3,2.6,3l-1.2-1.6
		c0.3,1.2,0.8,2.4,1.5,3.4c0.4,0.5,1.1,1,1,1.7c-0.1,1.5-2.8,1.9-3.7,1.3c-0.5-0.3-0.8-1.6-1.3-2.1s-1.3-1.1-1.9-1.7
		c-1.1-1.3-2.1-2.5-3.2-3.7l-1.1,4.3c4.2-1.7,6.1,2.6,8.6,5.2c1.7,1.7,5.3,0,4.3-2.5s-2-4.6-3.1-6.8c-1.5-2.9-6-0.3-4.4,2.6
		c0.9,1.8,1.8,3.7,2.6,5.6l4.3-2.5c-3.9-4-7.2-9.1-13.6-6.5c-1.4,0.4-2.2,1.9-1.7,3.3c0.1,0.4,0.3,0.7,0.6,1c2,2,3.9,4.2,5.6,6.5
		c1.6,2.5,3.9,3.6,6.9,2.8c2.9-0.7,5.2-2.8,6.2-5.5c1-3.2-1.2-4.2-2.4-6.7c-1.9-3.9-4.5-9.7-10.1-9.7c-6.2,0-10.8,6.1-6.5,11.3
		C187.6,84.8,191.2,81.2,189.1,78.6L189.1,78.6z"/>
	<path class="st9" d="M54.4,124.2c0.1,0.4,0.3,0.8,0.5,1.2c0.5,0.6,1.2,1.1,2,1.3c2.9,1.1,6.5,0.4,8.3-2.3c1.3-2-1.3-4.1-2.7-4.7
		c-2.3-1-5.1-0.6-7,1.1C54.6,121.7,54.2,123,54.4,124.2z"/>
	<path d="M54.1,124.3c0.9,2.8,4.2,3.5,6.9,3.1c2.1-0.3,5.5-2.2,4.8-4.8C64.4,117,53.4,117.9,54.1,124.3c0,0.3,0.7,0.3,0.6-0.1
		c-0.6-5.3,7.4-6,9.9-2.4c2.8,4.2-8.2,7.8-9.9,2.3C54.6,123.7,54,123.9,54.1,124.3z"/>
	<path class="st9" d="M87,113.1c0.1,0.5,0.3,1,0.5,1.4c0.5,0.7,1.2,1.3,2,1.6c3,1.4,6.7,0.2,8.3-2.7c1.3-2.4-1.3-4.9-2.8-5.6
		c-2.4-1.3-5.3-0.7-7,1.3C87.1,110.2,86.7,111.7,87,113.1z"/>
	<path d="M86.7,113.2c0.8,3.1,4.2,4.3,7.2,3.6c2.5-0.6,5.3-3.1,4.4-5.9C96.1,104.5,85.9,106.1,86.7,113.2c0,0.3,0.7,0.3,0.6-0.1
		c-0.6-5.7,6.7-7.5,9.7-3.2c3.6,5.2-8,9.7-9.7,3.1c0-0.2-0.2-0.3-0.4-0.2S86.6,113,86.7,113.2z"/>
	<path class="st9" d="M120.9,101.4c0.1,0.5,0.3,1,0.6,1.5c0.6,0.8,1.4,1.4,2.3,1.7c2.9,1.2,6.2,0.6,8.6-1.5c0.6-0.5,1.1-1.2,1.4-2
		c0.7-2.3-1.6-4.4-3.5-5.2c-2.7-1.3-6-0.8-8.2,1.4C121.1,98.4,120.7,99.9,120.9,101.4z"/>
	<path d="M120.6,101.5c2,6.7,15.8,3.9,13.4-2.6S119.8,93.9,120.6,101.5c0,0.3,0.7,0.3,0.6-0.1c-0.7-6,6.8-7.4,10.6-4.3
		c3.4,2.9,0.6,6.5-2.8,7.4c-2.9,0.8-6.8,0-7.8-3.2C121.1,100.9,120.5,101.1,120.6,101.5z"/>
	<path class="st9" d="M155.3,89.8c0.1,0.5,0.3,1.1,0.6,1.5c0.6,0.8,1.4,1.4,2.3,1.7c2.9,1.2,6.2,0.6,8.5-1.5
		c0.6-0.6,1.1-1.3,1.4-2.1c0.7-2.3-1.6-4.5-3.5-5.3c-2.7-1.4-6-0.8-8.2,1.4C155.5,86.6,155.1,88.2,155.3,89.8z"/>
	<path d="M155,89.9c2,6.8,15.7,4,13.3-2.6S154.2,82.2,155,89.9c0,0.3,0.7,0.3,0.6-0.1c-0.6-6,6.7-7.7,10.5-4.4
		c6.3,5.5-8.2,12.2-10.5,4.3c0-0.2-0.2-0.3-0.4-0.2C155.1,89.5,155,89.7,155,89.9z"/>
	<path class="st9" d="M185.3,79.7c0.1,0.5,0.3,1,0.6,1.5c0.6,0.8,1.4,1.4,2.3,1.7c2.9,1.2,6.2,0.6,8.5-1.5c0.6-0.6,1.1-1.3,1.4-2.1
		c0.7-2.3-1.6-4.5-3.4-5.3c-2.7-1.4-6-0.8-8.1,1.4C185.5,76.6,185.1,78.2,185.3,79.7z"/>
	<path d="M185,79.8c2,6.8,15.6,4,13.2-2.6S184.2,72.2,185,79.8c0,0.3,0.7,0.3,0.6-0.1c-0.6-6.1,6.9-7.8,10.7-4.2
		c5.7,5.5-8.4,11.9-10.7,4.1c0-0.2-0.2-0.3-0.4-0.2C185.1,79.4,185,79.6,185,79.8L185,79.8z"/>
	<path d="M54.8,123.3c1.2-1.3,2.9-2,4.7-1.8c1.3,0,6.3,1,4.5,3.7c-0.2,0.3,0.3,0.7,0.6,0.3c1.5-2.3-1.2-4-3.1-4.4
		c-2.4-0.6-5.6-0.1-7.2,1.9C54,123.3,54.5,123.7,54.8,123.3z"/>
	<path d="M87.4,112.1c0.5-2,4.4-3.1,6-2.7c2.1,0.7,3.5,2.5,3.6,4.7c0,0.4,0.7,0.4,0.7,0c-0.1-2.4-1.9-5-4.3-5.5
		c-2.1-0.4-5.9,1.1-6.4,3.3c0,0.2,0.1,0.3,0.2,0.4C87.2,112.4,87.4,112.3,87.4,112.1L87.4,112.1z"/>
	<path d="M121.2,101.6c2.3-4.7,12.2-4.4,10.1,2.2c-0.1,0.4,0.5,0.6,0.6,0.2c2.3-7.2-8.6-8.2-11.3-2.7
		C120.5,101.7,121.1,102,121.2,101.6z"/>
	<path d="M155.8,88.9c1.3-2.3,3.8-2.7,6.2-2.5c1.7,0.1,2.7,0.6,3.1,2.4c0.4,1.1,0.3,2.4-0.3,3.5c-0.2,0.3,0.3,0.7,0.6,0.3
		c1.2-1.8,0.7-5.7-1.6-6.5c-2.9-1.1-7-0.2-8.6,2.6c-0.1,0.2,0,0.4,0.2,0.4C155.5,89.1,155.7,89.1,155.8,88.9L155.8,88.9z"/>
	<path d="M185.6,78.8c1.4-1.7,4-3.1,6.2-2.7s4.4,4.4,2.1,6.3c-0.3,0.3,0.1,0.7,0.4,0.4c1.9-1.6,1.2-5.3-0.7-6.7
		c-2.7-2-6.7-0.2-8.6,2.1C184.9,78.7,185.4,79.1,185.6,78.8L185.6,78.8z"/>
	<path d="M67.9,136.5c1-0.8,1.3-2.3,0.6-3.4c-0.4-0.8-1.4-1.1-2.2-0.7c-0.2,0.1-0.5,0.3-0.6,0.5c-0.7,0.8-0.9,2-0.3,3
		c0.4,0.8,1.4,1.2,2.2,0.8C67.7,136.6,67.8,136.6,67.9,136.5c0.3-0.2,0-0.8-0.3-0.5c-1.4,1-2.2-1.1-1.6-2.2c0.4-0.8,1.5-1.4,2.1-0.3
		c0.4,0.8,0.3,1.9-0.4,2.5C67.2,136.1,67.5,136.7,67.9,136.5z"/>
	<path d="M97.4,122.9c0.1-0.3,0.3-0.5,0.5-0.8h-0.4c0.7,0.8,1.3,1.7,1.9,2.6c0.2,0.3,0.8,0,0.6-0.3c-0.6-0.9-1.3-1.8-2-2.7
		c-0.1-0.1-0.3-0.1-0.4,0c-0.3,0.3-0.5,0.6-0.7,0.9C96.7,122.9,97.2,123.3,97.4,122.9L97.4,122.9z"/>
	<path d="M133.1,110.2c0.3-0.3,1-0.9,1.4-0.3c0.1,0.3,0.1,0.7,0,1c0,0.8-0.1,1.6-0.2,2.4c0,0.2,0.2,0.5,0.5,0.4
		c0.6-0.4,1.2-0.7,1.9-1c0.4-0.2,0.2-0.8-0.2-0.6c-0.7,0.3-1.4,0.7-2.1,1.1l0.5,0.4c0.1-0.8,0.2-1.5,0.2-2.3c0.1-0.6,0-1.2-0.1-1.8
		c-0.5-1-1.8-0.1-2.3,0.4C132.3,110.1,132.8,110.5,133.1,110.2L133.1,110.2z"/>
	<path d="M165.1,99c0-0.2,0.4-1.1,0.8-1.1c0.2,0,0.3,0.5,0.3,0.7c0,0.3-0.1,0.6-0.3,0.9c-0.2,0.3,0.2,0.6,0.4,0.4l0.4-0.2l0.2-0.1
		c0.2-0.2,0.3-0.2,0.3,0.1c0.5,0.6-0.2,1.2-0.8,1.2c-0.2,0-0.3,0.1-0.3,0.3c0,0.2,0.1,0.3,0.3,0.3c0.8,0.1,1.5-0.6,1.6-1.4
		c0-0.1,0-0.3,0-0.4c-0.1-0.3-0.3-0.9-0.7-0.9s-1,0.4-1.4,0.6l0.4,0.4c0.4-0.6,0.8-2-0.1-2.5s-1.6,0.9-1.8,1.6
		C164.4,99.2,165.1,99.4,165.1,99L165.1,99z"/>
	<path d="M168.6,97.9c0.8,0.5,1.6,1,2.4,1.6c0.1,0.1,0.3,0.1,0.5,0c0,0,0.1-0.1,0.1-0.1c0.1-0.5,0.1-1,0-1.5v-1.9
		c0-0.4-0.7-0.4-0.6,0v1.7c0.1,0.5,0.1,1.1,0,1.6l0.5-0.1c-0.8-0.7-1.6-1.2-2.5-1.7C168.5,97.2,168.2,97.7,168.6,97.9L168.6,97.9z"
		/>
	<path d="M195.3,88.1c-1-0.1-2.4,0.1-2.5,1.4c-0.2,1.1,0.6,2.2,1.7,2.4c1.1,0.1,1.7-0.8,1.8-1.8c0.2-1.4-1.6-0.4-2.1,0
		c-0.3,0.3,0.1,0.7,0.4,0.5s0.9-0.7,1.2-0.6l-0.2-0.3c0,0.5-0.1,1-0.4,1.3c-0.5,0.3-1.1,0.2-1.5-0.2c0-0.1-0.1-0.1-0.1-0.2
		c-0.3-0.5-0.3-1.1,0-1.6c0.4-0.4,1.1-0.3,1.6-0.3S195.8,88.2,195.3,88.1L195.3,88.1z"/>
	<path d="M198.5,90.2c-0.4-0.7-0.7-1.4-1.1-2.1l-0.4,0.5c1.1,0.3,2.2,0.8,3.1,1.4c0.2,0.2,0.5-0.1,0.5-0.4c-0.1-0.5-0.4-0.9-0.7-1.2
		c-0.3-0.5-0.6-1-0.9-1.5c-0.2-0.4-0.7-0.1-0.6,0.3c0.2,0.5,0.5,0.9,0.8,1.4c0.3,0.4,0.6,0.8,0.8,1.2l0.5-0.4
		c-1-0.7-2.1-1.2-3.2-1.5c-0.2,0-0.4,0.1-0.4,0.2c0,0.1,0,0.2,0,0.2c0.4,0.7,0.7,1.4,1.1,2.1C198.1,90.9,198.7,90.5,198.5,90.2z"/>
	<path d="M200.4,86.8c0.5,0.5,0.9,1,1.2,1.5c0.2,0.3,0.4,1,0.9,1c0.9,0.2,1.6-0.9,1.8-1.7c0.1-0.9-0.3-1.7-1.1-2.2
		c-0.9-0.5-2-0.3-2.7,0.4c-0.3,0.3,0.1,0.7,0.4,0.4c0.6-0.6,1.5-0.6,2.1-0.1c0.6,0.5,0.7,1.3,0.4,1.9c-0.2,0.3-0.6,0.7-0.9,0.4
		c-0.2-0.3-0.4-0.5-0.5-0.8c-0.3-0.5-0.7-1-1.2-1.4c-0.1-0.1-0.4-0.1-0.5,0.1C200.4,86.5,200.4,86.7,200.4,86.8L200.4,86.8z"/>
	<path d="M62.8,145c-2.9-3.8-4.6-8.1-6.7-12.4c-1-2-2.2-3.8-3.4-5.8c-2.6-4.4-0.5-8.8,4.5-10.3c3.9-1.2,8.7-0.6,10.9,3.1
		c1.2,2.1,1.1,4.3,1.8,6.6c1.4,4.7,4.3,9.4,6.2,14c0.2,0.4,0.8,0.2,0.6-0.2c-1.4-3.4-2.8-6.8-4.4-10.1c-1.5-3.1-1.7-6.4-3.1-9.5
		c-2.3-5.1-7.9-6-12.9-4.2c-3.9,1.4-7.3,5.5-5.2,9.7c1.5,3.1,3.8,5.8,5.3,9c1.6,3.7,3.6,7.2,5.9,10.5C62.5,145.7,63,145.4,62.8,145
		L62.8,145z"/>
	<path d="M94.7,133.2c-2.2-4.4-4.2-9.1-6.5-13.4c-1.3-2.3-4.4-5.1-4.1-7.9c0.6-4.5,4.4-6.2,8.4-6.7c4.8-0.6,7.5,1.9,8.3,6.6
		c0.1,0.8,0.3,1.6,0.6,2.3c1.9,4.7,5,9.2,7.4,13.7c0.2,0.4,0.8,0,0.6-0.3c-2.1-3.9-4.5-7.8-6.4-11.9c-1.2-2.4-1.1-4.9-2.2-7.2
		c-2.2-4.7-7.3-4.4-11.5-3.2c-3.8,1.1-6.5,4.2-5.6,8.3c0.6,2.9,3.3,5.2,4.7,7.9c2,4,3.9,8,5.8,12C94.4,133.9,94.9,133.5,94.7,133.2
		L94.7,133.2z"/>
	<path d="M130.6,119.8c-1.7-3.9-3.8-7.5-6.2-11c-1.2-1.9-3.2-3.8-4.2-5.8c-2.6-5.2,0.8-9.7,6.2-9.7c2.6,0,7,0.5,8.5,2.9
		c1,1.6,1.6,3.7,2.6,5.3c2.4,4.3,5.4,8.2,7.6,12.6c0.2,0.4,0.8,0,0.6-0.3c-1.7-3.3-3.8-6.4-5.8-9.6c-1.6-2.7-2.7-5.8-4.4-8.4
		c-2.3-3.4-8.9-3.9-12.6-2.8c-3.4,1.1-5.3,4.8-4.2,8.2c0,0,0,0.1,0,0.1c0.8,2.8,3.4,5.2,5,7.7c2.4,3.4,4.5,7,6.2,10.8
		C130.1,120.3,130.8,120.1,130.6,119.8L130.6,119.8z"/>
	<path d="M165.8,107.2c-3.3-3.6-5.4-7.9-8.1-11.9c-1-1.4-2.4-2.8-3.1-4.3c-2-4.3,0.6-8.7,5.4-9.4c3.3-0.5,8.2,0.5,9.6,4
		c0.6,1.6,0.6,2.5,1.6,4c2.8,4.2,5.8,8.3,8.8,12.4c0.2,0.3,0.8,0,0.6-0.3c-2.4-3.3-4.7-6.7-7.1-10c-1.2-1.7-2.6-3.2-3.2-5.3
		c-0.4-1.2-0.2-1.8-1-2.9c-2.7-3.2-9.2-3.5-12.6-1.5c-4,2.4-4.7,6.1-2.4,9.8c3.3,5.3,6.8,11.3,11.1,15.9
		C165.7,108,166.1,107.6,165.8,107.2L165.8,107.2z"/>
	<path d="M208.8,88.8c-2.3-3.1-4.5-6.3-6.6-9.5c-1.5-2.3-3-5.6-5.3-7.3c-3-2.1-7.9-1.7-10.7,0.5c-2.6,2-3.6,5.4-2.4,8.5
		c1.2,2.7,4.1,4.7,5.8,7c1.9,2.7,3.6,5.4,5.2,8.3c0.2,0.4,0.8,0,0.6-0.3c-1.8-3.3-3.8-6.4-6-9.4c-2.9-3.7-8.1-7.8-3.7-12.7
		c2.4-2.3,5.8-3.2,9-2.2c3.2,1,4.5,4,6.2,6.6c2.4,3.7,4.9,7.3,7.5,10.8C208.6,89.5,209.1,89.2,208.8,88.8L208.8,88.8z"/>
	<path class="st1" d="M70.4,123.9c0.2-0.2,0.5-0.4,0.8-0.5c0.6-0.4,1.3-0.6,2-0.6c0.3,0,0.5,0,0.8,0.2c0.2,0.1,0.4,0.3,0.5,0.6
		c0,0.2,0,0.4,0.1,0.6"/>
	<path d="M70.6,124.1c0.5-0.5,1.2-0.8,1.9-1c0.4-0.2,0.9-0.2,1.3,0c0.4,0.3,0.3,0.6,0.4,1s0.8,0.2,0.6-0.2s-0.1-0.9-0.5-1.2
		c-0.3-0.3-0.7-0.4-1.1-0.4c-1.1,0.1-2.2,0.5-3,1.2C69.8,123.9,70.3,124.3,70.6,124.1L70.6,124.1z"/>
	<path class="st1" d="M73.9,122.9c0-0.1,0.1-0.1,0.1-0.2c0.6-0.5,1.3-0.9,2.1-1.1c0.8-0.2,1.7,0.2,2.1,0.8"/>
	<path d="M74.2,123.1c0.8-1,3-1.9,3.9-0.5c0.2,0.3,0.8,0,0.6-0.3c-1.1-1.8-3.8-1-4.9,0.4C73.5,123,73.9,123.4,74.2,123.1z"/>
	<path class="st1" d="M77.5,121.5c0.5-0.5,1-0.9,1.5-1.3c0.5-0.4,1.2-0.6,1.9-0.7c0.9,0,1.7,0.4,2.2,1.1"/>
	<path d="M77.7,121.8c1.4-1.4,3.5-2.8,5.1-0.9c0.3,0.3,0.7-0.1,0.4-0.4c-1.9-2.3-4.4-0.8-6,0.9C77,121.6,77.4,122.1,77.7,121.8
		L77.7,121.8z"/>
	<path class="st1" d="M171.4,89.6c0.5-0.5,1.1-0.8,1.7-0.9c0.5-0.2,1-0.3,1.5-0.3c0.5,0,1,0.1,1.4,0.5"/>
	<path d="M171.7,89.8c0.8-0.9,3.1-1.6,4.1-0.8c0.3,0.2,0.8-0.2,0.5-0.5c-0.7-0.5-1.6-0.7-2.4-0.4c-1,0.1-1.9,0.5-2.6,1.2
		C171,89.7,171.4,90.1,171.7,89.8z"/>
	<path class="st1" d="M175.6,88.4c0.7-0.6,1.6-1.1,2.5-1.3c0.5-0.1,1.1-0.1,1.6,0"/>
	<path d="M175.8,88.6c1-1,2.4-1.4,3.8-1.2c0.4,0.1,0.6-0.5,0.2-0.6c-1.6-0.2-3.2,0.3-4.4,1.4C175.1,88.4,175.5,88.9,175.8,88.6
		L175.8,88.6z"/>
	<path class="st1" d="M179.6,86.9c0.7-0.4,1.3-0.7,2.1-1.1c0.3-0.1,0.6-0.2,0.9-0.3c0.3-0.1,0.7,0,0.9,0.2"/>
	<path d="M179.7,87.2c0.9-0.5,2.6-1.8,3.6-1.1c0.3,0.2,0.7-0.3,0.3-0.6c-1.3-0.8-3.1,0.5-4.2,1.1c-0.1,0.1-0.2,0.3-0.1,0.4
		C179.4,87.2,179.6,87.2,179.7,87.2L179.7,87.2z"/>
	<path class="st1" d="M183.4,85.8c0.2-0.5,0.5-0.9,1-1.1c0.6-0.3,1.3-0.4,1.9-0.3"/>
	<path d="M183.7,85.9c0.4-1.1,1.6-1.2,2.6-1.2c0.4,0,0.4-0.6,0-0.6c-1.4-0.1-2.6,0.3-3.2,1.7C183,86.1,183.6,86.2,183.7,85.9z"/>
	<path class="st1" d="M202,79.4c0.1-0.4,0.4-0.6,0.8-0.8c0.6-0.3,1.2-0.3,1.9-0.2"/>
	<path d="M202.3,79.5c0.3-0.8,1.7-0.8,2.4-0.8c0.4,0,0.4-0.6,0-0.7c-1.1-0.1-2.6,0.1-3,1.2C201.5,79.7,202.1,79.9,202.3,79.5z"/>
	<path d="M175.7,89.1c2.4,3.9,5.2,7.6,7.8,11.3c0.2,0.3,0.8,0,0.6-0.3c-2.6-3.8-5.3-7.5-7.8-11.3C176.1,88.4,175.5,88.8,175.7,89.1z
		"/>
	<path d="M179.5,87.4c2.7,3.8,5.2,7.6,7.6,11.6c0.1,0.1,0.3,0.2,0.5,0c0.1-0.1,0.1-0.2,0.1-0.4c-2.3-4-4.9-7.9-7.6-11.6
		C179.8,86.8,179.3,87.1,179.5,87.4z"/>
	<path d="M183.3,86.1c2.5,3.9,4.8,7.9,7,11.9c0.2,0.4,0.8,0,0.6-0.3c-2.2-4.1-4.5-8.1-7-11.9C183.6,85.5,183.1,85.8,183.3,86.1z"/>
	<path class="st1" d="M137.8,101c0.5-0.1,0.9-0.4,1.3-0.8c0.4-0.3,0.9-0.6,1.4-0.6c0.4,0,0.7,0.2,1,0.5c0.3,0.3,0.5,0.6,0.7,1"/>
	<path d="M137.9,101.3c0.6-0.2,1.1-0.5,1.6-0.9c1.2-0.8,1.9-0.1,2.5,0.9c0.2,0.3,0.8,0,0.6-0.3c-0.5-0.7-1-1.6-2-1.6
		s-1.8,1.1-2.8,1.3c-0.2,0-0.3,0.2-0.2,0.4C137.6,101.2,137.8,101.3,137.9,101.3L137.9,101.3z"/>
	<path class="st1" d="M141.4,99.7c0.2-0.1,0.3-0.1,0.5-0.2c0.7-0.4,1.5-0.7,2.3-0.8c0.7,0,1.4,0.4,1.8,1"/>
	<path d="M141.5,100c1.4-0.5,3.1-1.8,4.3-0.2c0.2,0.3,0.8,0,0.6-0.3c-0.4-0.7-1.1-1.1-1.9-1.1c-1.1-0.1-2.1,0.7-3.1,1
		C140.9,99.5,141.1,100.1,141.5,100L141.5,100z"/>
	<path class="st1" d="M145.3,98.6c0.3-0.1,0.6-0.2,0.9-0.4c0.4-0.3,0.8-0.5,1.3-0.7c0.3-0.1,0.7-0.1,1-0.1c0.2,0,0.5,0,0.7,0.1
		c0.4,0.2,0.7,0.6,0.8,1.1"/>
	<path d="M145.4,98.9c1.3-0.5,3.4-2.3,4.2-0.3c0.2,0.4,0.8,0.2,0.6-0.2c-0.3-0.8-0.7-1.4-1.6-1.4c-1.4-0.1-2.2,0.8-3.4,1.3
		C144.8,98.4,145,99,145.4,98.9z"/>
	<path class="st1" d="M149.1,97.4c0-0.1,0.1-0.2,0.2-0.2c0.9-0.5,1.8-0.9,2.8-1c0.4-0.1,0.8-0.1,1.2,0.1c0.4,0.1,0.7,0.5,0.7,0.9"/>
	<path d="M149.4,97.5c0.2-0.4,1.4-0.7,1.8-0.8c0.7-0.2,2.2-0.6,2.4,0.5c0.1,0.4,0.7,0.2,0.6-0.2c-0.2-1.1-1.3-1.3-2.3-1.2
		s-2.8,0.5-3.2,1.4C148.7,97.7,149.3,97.9,149.4,97.5L149.4,97.5z"/>
	<path class="st1" d="M153.4,96.2c0.2-0.3,0.4-0.5,0.7-0.7c0.7-0.4,1.6-0.6,2.4-0.7"/>
	<path d="M153.7,96.3c0.6-0.9,1.9-1.1,2.8-1.2c0.4,0,0.4-0.7,0-0.6c-1.2,0.2-2.7,0.4-3.4,1.5c-0.1,0.2,0,0.3,0.1,0.4
		S153.6,96.5,153.7,96.3z"/>
	<path d="M142,101.3c2.3,4,5.3,7.4,7.1,11.8c0.1,0.4,0.8,0.2,0.6-0.2c-1.8-4.4-4.8-7.9-7.2-11.9c-0.1-0.2-0.3-0.2-0.4-0.1
		S141.9,101.1,142,101.3L142,101.3L142,101.3z"/>
	<path d="M145.8,99.9c3.5,3.1,5.2,7.8,7.2,11.9c0.2,0.4,0.7,0.1,0.6-0.3c-2-4.2-3.7-8.9-7.3-12C146,99.2,145.5,99.7,145.8,99.9
		L145.8,99.9z"/>
	<path d="M149.7,98.7c2.5,3.8,5.6,7.1,7.1,11.4c0.1,0.4,0.8,0.2,0.6-0.2c-1.6-4.4-4.7-7.7-7.2-11.6C150,98,149.4,98.3,149.7,98.7z"
		/>
	<path d="M153.7,97.3c2.4,4,5.8,7.1,7.2,11.7c0,0.2,0.2,0.3,0.4,0.2c0.2,0,0.3-0.2,0.2-0.4c-1.4-4.6-4.8-7.8-7.2-11.8
		C154,96.6,153.5,97,153.7,97.3z"/>
	<path class="st1" d="M101.9,113l2-0.8c0.2-0.1,0.4-0.1,0.6-0.2c0.5,0,1,0.1,1.3,0.5c0.4,0.3,0.7,0.7,0.9,1.1"/>
	<path d="M102,113.3c0.7-0.3,1.4-0.6,2.1-0.8c1.2-0.3,1.7,0.4,2.3,1.3c0.2,0.3,0.8,0,0.6-0.3c-0.4-0.8-1.1-1.4-2-1.7
		c-1-0.2-2.2,0.6-3.2,0.9C101.4,112.8,101.6,113.5,102,113.3L102,113.3z"/>
	<path class="st1" d="M105.8,112.3c0.8-1,1.9-1.7,3.2-1.8c0.3-0.1,0.5-0.1,0.8,0c0.6,0.3,1.1,0.8,1.4,1.4"/>
	<path d="M106,112.5c0.5-0.7,1.3-1.2,2.2-1.5c0.5-0.2,1-0.2,1.5-0.1c0.5,0.3,1,0.7,1.2,1.2c0.1,0.2,0.3,0.2,0.4,0.1s0.2-0.3,0.1-0.4
		c-0.7-1.1-1.4-1.8-2.7-1.6c-1.2,0.2-2.4,0.9-3.1,1.9C105.3,112.4,105.8,112.8,106,112.5z"/>
	<path class="st1" d="M110.3,110.5c0.3-0.4,0.8-0.7,1.2-1c0.6-0.2,1.2-0.3,1.8-0.3c0.2,0,0.4,0,0.6,0.1c0.2,0.1,0.4,0.2,0.6,0.4
		c0.3,0.3,0.5,0.5,0.8,0.8"/>
	<path d="M110.5,110.7c0.6-0.8,1.5-1.2,2.5-1.2c0.9,0,1.7,0.5,2.1,1.2c0.3,0.3,0.7-0.1,0.4-0.4c-0.5-0.9-1.5-1.4-2.6-1.4
		c-1.1,0-2.2,0.5-2.9,1.4C109.7,110.6,110.2,111,110.5,110.7z"/>
	<path class="st1" d="M114.1,109.2c0.9-0.8,2-1.3,3.1-1.4c0.3-0.1,0.6,0,0.9,0.1c0.2,0.1,0.5,0.3,0.6,0.5c0.4,0.4,0.7,0.8,1,1.3"/>
	<path d="M114.3,109.4c0.7-0.6,1.7-1.1,2.6-1.3c1.2-0.2,1.8,0.6,2.4,1.6c0.1,0.1,0.3,0.2,0.5,0c0.1-0.1,0.1-0.2,0.1-0.4
		c-0.5-0.9-1.3-2-2.4-2c-1.3,0.1-2.6,0.6-3.6,1.5C113.5,109.2,114,109.7,114.3,109.4z"/>
	<path class="st1" d="M118.4,107.8c0.2-0.3,0.5-0.5,0.8-0.7c0.9-0.5,1.9-0.7,2.9-0.7"/>
	<path d="M118.7,108c0.6-0.9,2.4-1.2,3.4-1.2c0.2,0,0.3-0.1,0.3-0.3c0-0.2-0.1-0.3-0.3-0.3c-1.3,0-3.2,0.4-4,1.5
		C117.8,108,118.4,108.3,118.7,108L118.7,108z"/>
	<path d="M106.4,113.8c1.2,1.9,2.7,3.6,3.8,5.6c1.2,2.1,2.2,4.3,3,6.6c0.2,0.4,0.8,0.2,0.6-0.2c-0.8-2.1-1.7-4.1-2.7-6
		c-1.2-2.2-2.9-4.1-4.2-6.3C106.7,113.1,106.1,113.5,106.4,113.8L106.4,113.8z"/>
	<path d="M110.9,112.1c2.3,4.1,4,8.6,6.2,12.7c0.1,0.2,0.3,0.2,0.4,0.1c0.2-0.1,0.2-0.3,0.1-0.4l0,0c-2.3-4.1-3.9-8.6-6.2-12.7
		C111.3,111.4,110.7,111.8,110.9,112.1z"/>
	<path d="M115,110.6c2.4,4.2,4.5,8.5,6.4,12.8c0.2,0.4,0.7,0.1,0.6-0.3c-1.9-4.4-4.1-8.7-6.4-12.8c-0.1-0.1-0.3-0.2-0.4-0.1
		C115,110.3,114.9,110.5,115,110.6z"/>
	<path d="M119.4,109.8c2,4,4.4,7.9,5.7,12.2c0,0.2,0.2,0.3,0.4,0.2c0.2,0,0.3-0.2,0.2-0.4c-1.3-4.3-3.8-8.3-5.8-12.3
		C119.8,109.1,119.2,109.5,119.4,109.8z"/>
	<path class="st1" d="M82.3,120c0-0.2,0.2-0.2,0.3-0.3c0.6-0.3,1.3-0.6,2-0.8c0.7-0.2,1.4-0.2,2.1-0.1"/>
	<path d="M82.5,120.1c0.3-0.5,1.3-0.7,1.8-0.8c0.7-0.2,1.5-0.3,2.2-0.2c0.4,0.1,0.6-0.6,0.2-0.6c-0.9-0.1-1.8-0.1-2.7,0.2
		c-0.8,0.1-1.5,0.5-2.1,1.1C81.7,120.1,82.3,120.5,82.5,120.1z"/>
	<path d="M74.2,124.2c0.8,2,1.7,4,2.7,5.9c1.3,2.9,2.3,5.9,3.5,8.7c0.2,0.4,0.7,0.1,0.6-0.3c-1.1-2.6-2-5.2-3.1-7.7
		c-1-2.3-2.2-4.4-3.1-6.7C74.6,123.7,74,123.8,74.2,124.2L74.2,124.2z"/>
	<path d="M78,122.5c1,2.5,1.9,5.1,3,7.6s2.5,4.5,3.4,7c0.1,0.4,0.8,0.2,0.6-0.2c-0.9-2.4-2.2-4.4-3.2-6.7c-1.2-2.6-2.1-5.3-3.2-7.9
		C78.5,121.9,77.9,122.1,78,122.5L78,122.5z"/>
	<path d="M82.8,120.8c1.3,2.5,2.4,5.1,3.5,7.7c0.9,2.3,2.3,4.4,3.2,6.7c0.2,0.4,0.8,0.2,0.6-0.2c-1.1-2.6-2.5-4.9-3.6-7.5
		c-1-2.4-2-4.7-3.2-7C83.2,120.1,82.6,120.5,82.8,120.8L82.8,120.8z"/>
	<path class="st1" d="M53.4,129.7c-1-0.2-2.1,0-2.9,0.7c-0.8,0.7-1.2,1.7-1.2,2.7"/>
	<path d="M53.5,129.4c-2-0.4-4,0.8-4.4,2.8c-0.1,0.3-0.1,0.6-0.1,0.9c0,0.2,0.1,0.3,0.3,0.3c0.2,0,0.3-0.1,0.3-0.3
		c0-1.7,1.3-3.1,3-3.1c0.2,0,0.5,0,0.7,0.1C53.7,130.1,53.9,129.5,53.5,129.4z"/>
	<path class="st3" d="M40.2,37.5c-2.2,3.9-4.6,7.7-7.2,11.4c-0.5,0.6-0.9,1.3-1.3,2s-0.8,1.7-1.2,2.5c-0.6,1.1-1.2,2.2-1.9,3.2
		L27.1,59c-2.4,3.9-3.4,6.2-6,10l-2,3.2L14,63c-0.7-1.3-1.4-2.7-2-4.1c-0.5-1.2-0.9-2.5-1.5-3.7c-0.5-0.9-1-1.8-1.3-2.8
		c-0.5-2,0.1-4.1,1.4-5.7c1.4-1.5,3.1-2.6,5-3.3c1.9-0.7,3.9-1.1,5.9-1.6s4-1.2,5.9-1.9c4.6-1.6,9.3-2.5,13.8-4.1
		c0.2-0.3,0.3-0.6,0.3-0.9c0-0.1-0.5-0.1-0.4,0L40.2,37.5z"/>
	<path class="st3" d="M39.7,37.2c-4,6.8-8.2,13.6-12.3,20.3c-3,4.8-5.8,9.7-8.8,14.5h1.1c-2.6-4.8-5.5-9.4-7.5-14.5
		c-1.3-3.1-3.1-6-1.6-9.4c1.4-3.2,6-4.3,9-5.1c5.1-1.3,10-3.1,15.1-4.5c2.3-0.6,6.9-0.7,7.7-3.3c0.1-0.3-0.1-0.7-0.5-0.8
		c-1.5-0.4-1.8,1.9-2.2,2.9c-0.3,0.8,0.9,1.1,1.2,0.3c0.2-0.4,0.8-1.5,0.7-1.9c-0.2-0.8-4.1,0.6-5.1,0.9c-3.1,0.9-6.2,1.7-9.2,2.7
		c-5,1.6-11.6,2.3-15.8,5.7c-3.4,2.8-3.5,6-1.9,9.8c2.7,6.1,5.7,11.9,8.9,17.7c0.2,0.3,0.6,0.4,0.9,0.2c0.1-0.1,0.2-0.1,0.2-0.2
		c3-4.8,5.8-9.7,8.8-14.5c4.2-6.7,8.3-13.5,12.3-20.3c0.2-0.3,0.1-0.7-0.2-0.9C40.2,36.8,39.8,36.9,39.7,37.2L39.7,37.2z"/>
	<path class="st3" d="M92.1,19.2c-4.6,1.4-9.2,2.8-13.6,4.6c-1.5,0.6-3.2,1-4.8,1.6c-3.4,1.2-6.8,2.1-10.2,3.2c-2,0.6-4,1.5-6,2.2
		c-4.6,1.7-9.4,3-14.2,4l0.7,0.3c0.7,2,1.7,4,3,5.7c4.1,6.3,8,12.8,11.8,19.2c0.2-0.4,0.4-0.8,0.7-1.2c2-3.5,4.1-6.9,6.1-10.3
		c3.8-6.6,7.5-13.3,11.3-19.9l3.4-4.6c0.7,0.4,1.3,0.9,1.8,1.5c0.4,0.6,0.7,1.2,1,1.8c0.5,0.9,1.1,1.7,1.8,2.4l7.7,9
		c0.3,0.3,0.5,0.6,0.6,0.9c0.2,0.5-0.1,1.1,0,1.7s0.7,1,1,1.5l2.2,3.8l0.1,0.3c0.8-1.7,1.9-3.4,3.1-4.8c0.2-0.2,0.4-0.5,0.5-0.7
		s0.3-0.5,0.4-0.7c1.1-2.2,2.2-4.3,3.4-6.4c0.4-0.7,0.7-1.4,1.1-2.1l0.4-0.5c1.2-2.3,2.5-4.5,3.9-6.6c0.7-1.1,1.4-2.2,2.1-3.3
		s1.2-2.2,1.8-3.3s1.1-2,1.6-3.1c0.4-0.9,0.8-2.1,1.5-2.6l0.7,0.6c0.8,0.6,1.5,1.3,2,2.2c0.8,1.1,1.7,2.1,2.5,3.2l2.2,2.9
		c0.4,0.5,0.7,1,1.1,1.5l0.5,0.5c1.8-2.9,3.5-6,5.1-9.1l0.9-1.7c0.9-1.4,1.8-2.9,2.4-4.4l1.3-0.7c2.5,3.1,5,6.3,7.4,9.5l0.9,1.4
		c2.6-4.3,5-8.7,7.3-13.2l0.8-1.2c-0.2-0.5-0.6-0.8-1-1.1c-0.8-0.5-1.6-1-2.4-1.4c-0.3-0.2-0.6-0.3-1-0.3l-0.6-0.2l-8.8,2.3
		c-1.2,0.3-2.5,0.7-3.7,1c-1.6,0.5-3.2,1.1-4.7,1.6c-2.5,0.9-5,1.8-7.5,2.6l-10.8,3.7l-5.1,1.8l-12.3,4.2L92.1,19.2z"/>
	<path class="st3" d="M91.9,18.6C84,21,76.4,24,68.4,26.4c-8.5,2.6-16.7,5.9-25.4,7.8c-0.3,0.1-0.5,0.4-0.5,0.8
		c0,0.2,0.1,0.3,0.3,0.4c0.9,0.4,1.6,2.7,2.1,3.6c1.4,2.4,3,4.6,4.4,7c3,4.8,5.9,9.7,8.8,14.5c0.2,0.3,0.6,0.4,0.9,0.2
		c0.1-0.1,0.2-0.1,0.2-0.2c2.8-6,6.8-11.5,10-17.2c2.9-5.1,5.5-10.5,8.9-15.3c0.3-0.4,2-3.4,2.5-3.4c-0.1,0,5.4,7.7,5.9,8.2
		c1.1,1.3,2.3,2.5,3.3,3.9c1.1,1.1,2,2.4,2.7,3.8c-0.1,0.3-0.1,0.7,0,1c1,1.9,2.5,3.6,3.3,5.6c0.2,0.5,0.9,0.7,1.2,0.2
		c1.1-2.2,2.7-4.1,4-6.2s2.3-4.3,3.4-6.4c2.3-4,4.7-8,7.2-11.9c1.2-1.9,2.3-3.9,3.3-5.9c1.1-2.3,0.8-4.2,3-1.6
		c2.4,2.8,4.2,6.4,7,8.9c0.3,0.2,0.7,0.2,0.9,0c0,0,0.1-0.1,0.1-0.1c2.8-4.5,4.9-9.6,8-13.9c1-1.4,0.5-1.6,1.8-0.6
		c1.1,1.1,2,2.3,2.8,3.6c1.6,1.9,3.1,3.9,4.4,6c0.2,0.3,0.6,0.4,0.9,0.2c0.1-0.1,0.2-0.1,0.2-0.2c2.8-4.8,5.1-9.8,8.1-14.4
		c0.1-0.2,0.1-0.4,0-0.7c-1.6-2.4-4.4-3.5-7.2-2.9c-6.6,1.6-13,3.6-19.4,5.9c-11.2,3.9-22.9,7-33.8,11.7c-0.8,0.3-0.1,1.4,0.7,1.1
		c12.3-5.2,25.4-8.7,38-13.1c3-1.1,6-2,9.1-2.8c3.3-0.9,6.4-2.6,9.5-0.8c1.4,0.8,1.6,0.7,1.4,1.9s-1.7,3.2-2.3,4.3
		c-1.7,3.1-3.4,6.2-5.2,9.2h1.1c-2.6-3.8-5.4-7.5-8.4-11c-0.2-0.2-0.5-0.2-0.8-0.1c-1.9,0.9-2.2,2.3-3.3,4.1c-1.9,3-3.6,6.2-5.2,9.4
		c-1,2.2-0.6,2.4-2,0.5c-0.8-1-1.5-2-2.3-3c-1.5-2.2-3.3-4.2-5.2-6c-0.3-0.2-0.7-0.2-0.9,0c-1.7,1.9-2.6,4.7-3.8,7
		c-1.9,3.4-4.2,6.6-6.1,10c-1.5,2.6-3,5.1-4.4,7.7c-1.7,3.2-4,6.2-5.6,9.4l1.2,0.2c-0.7-1.8-2.3-3.2-3-5s-0.5-2.5-1.8-4.1
		c-2.3-2.9-4.9-5.5-7.2-8.4c-1.7-2.2-2.4-4.2-4.7-5.8c-0.3-0.2-0.7-0.1-0.9,0.2c-3.2,4.4-6.1,9-8.7,13.8
		c-4.2,7.4-9.2,14.6-12.9,22.2h1.1c-3.2-5.3-6.3-10.6-9.6-15.9c-1.4-2.2-3-4.4-4.2-6.7c-0.7-1.3-0.6-2.3-1.9-2.9l-0.2,1.2
		c8.7-1.8,16.9-5.2,25.4-7.8c7.9-2.4,15.6-5.4,23.5-7.8c0.3-0.1,0.5-0.4,0.5-0.8C92.6,18.7,92.3,18.5,91.9,18.6L91.9,18.6z"/>
	<path d="M204.6,92.5l-100,36.9c-13.8,5.1-27.5,10.8-41.5,15.3c-7.3,2.3-9.4-4-12-9.1l-12.9-25.3L10.9,56.6
		c-1.6-3.1-3.3-6.2-0.6-9.6c1.5-1.8,3.4-2.3,5.5-3l18.8-6.2l64.7-21.5c14.8-4.9,29.5-10.4,44.5-14.7c6.7-1.9,9.3,3.7,12.5,8.2
		l16.7,23.7L206.5,81c2.8,4,3.3,9-2.1,11.5c-0.8,0.3-0.1,1.4,0.6,1.1c4.1-1.7,6-6.3,4.3-10.4c-0.2-0.5-0.5-1-0.8-1.5
		c-1-1.7-2.3-3.2-3.4-4.8l-17.5-24.8C176.3,36,165.2,19.7,153.5,3.8c-3.4-4.6-7.6-4.3-12.4-2.7l-21.4,7.1L51.3,30.8l-28,9.3
		c-3.8,1.3-9.1,2.1-12.4,4.5C4.5,49,9,55.7,11.5,60.7l14.1,27.6c9,17.7,17.8,35.7,27.2,53.2c2.8,5.2,7.3,5.6,12.3,3.8l19-7
		l118.1-43.5l2.8-1C205.7,93.4,205.4,92.2,204.6,92.5z"/>
	<path d="M19.4,73.8L36.3,46l4.3-7.1c0.5-0.8,1.4-3.2,2.2-3.7c-0.2,0.1-0.6-0.2-0.1,0.5s1,1.6,1.5,2.4l5,8.2l9.1,15
		c0.1,0.2,0.3,0.2,0.4,0.1c0,0,0.1-0.1,0.1-0.1l20.1-34c0.4-0.8,0.8-1.5,1.3-2.3c0.6-0.7-0.6-0.6,0-0.1c2,2,3.5,5,5.1,7.3l11.1,15.7
		c0.1,0.2,0.3,0.2,0.5,0.1c0,0,0.1-0.1,0.1-0.1L112,22.6l3.6-6.2c0.3-0.6,0.6-1.2,1-1.8c0.6-0.6,0-0.3-0.1-0.3
		c1.5,0.5,3.6,4.5,4.6,5.7l4.2,5.2c0.1,0.1,0.3,0.1,0.5,0c0,0,0,0,0-0.1c2.9-5.1,5.6-10.5,8.8-15.5c0.7-1.1-0.2-0.8,0.4-0.2
		c1.1,1.1,2,2.4,2.9,3.6l5.5,6.9c0.1,0.1,0.3,0.1,0.5,0c0,0,0,0,0-0.1c3-5.2,6-10.4,9-15.6c0.2-0.4-0.4-0.7-0.6-0.3
		c-2.6,4.6-6.1,9.4-8.1,14.2c0,0.1-0.6,1.3-0.8,1.3c0.6-0.1,0.3-0.3-0.2-0.7c-1.1-1.2-2.1-2.5-3-3.8l-5.2-6.6
		c-0.1-0.1-0.3-0.1-0.5,0c0,0,0,0,0,0.1c-2.9,5.2-5.6,10.5-8.8,15.5c-0.7,1.1,0.2,0.8-0.5,0.2c-1-1.1-2-2.3-2.9-3.6l-5.5-6.8
		c-0.1-0.1-0.3-0.1-0.5,0c0,0,0,0,0,0.1L97.5,46c-0.2,0.4-0.6,1.4-1,1.7c0.5-0.3,0.4,0.2-0.1-0.8c-1.5-2.7-3.7-5.2-5.4-7.8
		L80.6,24.3c-0.1-0.2-0.3-0.2-0.4-0.1c0,0-0.1,0.1-0.1,0.1L59.6,58.9c-0.3,0.5-0.7,1.6-1.2,2c0.3-0.2,0.4,0.4-0.1-0.7
		c-1.3-3-3.5-5.8-5.3-8.6L42.9,34.8c-0.1-0.2-0.3-0.2-0.5-0.1c0,0-0.1,0.1-0.1,0.1L18.9,73.5c-0.1,0.2,0,0.4,0.2,0.4
		C19.2,74,19.3,73.9,19.4,73.8L19.4,73.8z"/>
	<path class="st1" d="M77.7,32.4l17.5-5.1c2.6-0.8,5.4,0.7,6.2,3.4l0.8,2.6c0.8,2.6-0.7,5.4-3.4,6.2l-17.5,5.1
		c-2.6,0.8-5.4-0.7-6.2-3.4l-0.8-2.6C73.6,35.9,75.1,33.1,77.7,32.4z"/>
	<path d="M98.6,38.8l-12,3.5c-1.6,0.5-3.6,1.4-5.2,1.5c-2.4,0-4.7-1.3-5.9-3.4c-1.1-2.4-0.7-5.7,1.9-7.2c3.4-2,8.6-2.6,12.4-3.7
		c1.7-0.7,3.5-1.2,5.3-1.6c5.9-0.8,9.2,8.4,3.3,10.9c-0.8,0.3-0.1,1.4,0.7,1.1c7.1-3,3.4-14.7-4.1-13.3c-3.2,0.6-6.4,1.9-9.5,2.8
		c-2.6,0.8-5.5,1.3-8,2.4c-7.2,2.9-3.5,14.7,4,13.3c5.9-1.1,11.8-3.5,17.5-5.1c0.3-0.1,0.5-0.5,0.4-0.8
		C99.3,38.9,98.9,38.7,98.6,38.8z"/>
	<path class="st0" d="M95.1,36.9l-4.8,1.6L84.4,40c-0.8,0.2-3.2,0.2-3.8-0.3c-0.4-0.3-0.7-0.8-0.8-1.3l0,0c-0.2-0.6-0.2-1.2-0.1-1.8
		c0.3-0.8,2.4-1.7,3.3-2l9.6-2.7c0.8-0.2,3.2-0.7,3.8-0.2c0.4,0.3,1.5,1.1,1.6,1.6l0,0c0,0.7-0.2,1.4-0.5,2
		C97.2,36.1,95.8,36.7,95.1,36.9z"/>
	<path d="M95,36.6c-1.9,0.6-3.7,1.3-5.6,1.8c-1.4,0.4-2.8,0.8-4.2,1.1c-2.8,0.6-7.8-1.5-3.4-4c2.2-1.3,5.4-1.6,7.8-2.3
		c1-0.3,2-0.6,3-0.8c0.8-0.2,1.6-0.4,2.4-0.4C98.6,32.2,97.6,35.7,95,36.6c-0.4,0.1-0.3,0.7,0.1,0.6c4.4-1.5,3.7-6.4-1.1-5.8
		c-4,0.6-8,1.7-11.8,3.2c-4.6,1.8-3.1,6.4,1.6,5.8c3.8-0.5,7.7-2,11.3-3.2C95.5,37.1,95.4,36.4,95,36.6z"/>
	<path class="st1" d="M82.6,35.9c-0.3,0-0.6,0.2-0.9,0.3c-0.6,0.5-0.7,1.4-0.3,2.1c0.3,0.6,1,1,1.7,1c0.7,0,1.4-0.3,1.7-0.9
		c0.3-0.6,0.3-1.4-0.2-2c-0.5-0.5-1.2-0.7-1.9-0.5L82.6,35.9z"/>
	<path d="M82.5,35.6c-1,0.1-1.8,1-1.7,2.1c0,0.1,0,0.2,0,0.3c0.3,1.2,1.5,1.9,2.7,1.7c1.2-0.2,1.9-1.4,1.7-2.5
		C85.1,35.8,83.8,35.4,82.5,35.6c-0.3,0-0.3,0.7,0.1,0.6c0.7-0.1,1.6-0.1,1.9,0.7c0.4,0.7,0.1,1.7-0.7,2c-0.1,0-0.2,0.1-0.3,0.1
		c-1.9,0.5-3.1-2.4-0.9-2.8C83.1,36.1,82.9,35.5,82.5,35.6z"/>
	<path class="st1" d="M94.3,32.5c-0.3,0-0.6,0.2-0.9,0.3c-0.6,0.5-0.7,1.4-0.3,2.1c0.4,0.6,1,1,1.7,1c1,0.1,1.9-0.7,2-1.7
		c0-0.5-0.1-0.9-0.4-1.3c-0.5-0.5-1.2-0.6-1.9-0.5L94.3,32.5z"/>
	<path d="M94.2,32.2c-1,0.1-1.8,1-1.7,2.1c0,0.1,0,0.2,0.1,0.3c0.3,1.2,1.5,1.9,2.7,1.7c1.2-0.2,1.9-1.4,1.7-2.5
		C96.7,32.4,95.5,32,94.2,32.2c-0.3,0-0.3,0.7,0.1,0.6c0.7-0.1,1.6-0.1,1.9,0.7c0.4,0.7,0.1,1.7-0.7,2c-0.1,0-0.2,0.1-0.2,0.1
		c-1.9,0.6-3.1-2.4-0.9-2.8C94.8,32.8,94.6,32.1,94.2,32.2z"/>
	<path class="st2" d="M176.3,48.6l-11.6,4.8c-1.6,0.7-4.5,0.1-5.1-1.6l-4.9-9.3c-0.7-1.6,0-4.4,1.6-5l12.6-4.5
		c1.6-0.7,3.5,0.1,4.1,1.7l5.1,9.8C178.7,46.1,177.9,47.9,176.3,48.6z"/>
	<path d="M176.2,48.3c-3.8,1.5-7.7,3.7-11.6,4.7c-4.1,1-5.2-2.1-6.7-4.9c-1.4-2.6-4.5-6.5-2.3-9.3c1.4-1.8,4.4-2.3,6.6-3.1
		c1.8-0.7,4.6-2.3,6.5-2.3c3.7-0.1,4.6,2.7,5.9,5.3C175.9,41,179.9,46,176.2,48.3c-0.4,0.2-0.1,0.8,0.2,0.6
		c4.8-2.9-0.5-9.2-2.3-12.5c-0.8-1.6-1.5-3.4-3.4-3.8s-5,1.2-6.8,1.9c-3.6,1.3-11.2,2.2-9.8,7.8c0.5,2.2,2.1,4.3,3.2,6.2
		c0.9,1.7,1.6,4,3.3,5c2.4,1.4,5-0.1,7.3-1l8.4-3.4C176.7,48.7,176.6,48.1,176.2,48.3z"/>
	<path class="st0" d="M170.6,40.7c0.2,0.6,0.2,1.2,0,1.7c-0.3,0.6-0.7,1-1.3,1.2l0,0c-1.8,0.7-5.3,0.7-5.4-1.8
		c0-1.9,1.4-3.4,3.3-3.4c0.1,0,0.1,0,0.2,0C169,38.3,170.2,39,170.6,40.7z"/>
	<path d="M170,40.9c0.4,1.8-1.1,2.4-2.5,2.5c-1,0.1-2.4,0-2.9-1C163.2,39.3,169,37.5,170,40.9c0.1,0.3,0.5,0.5,0.8,0.4
		c0.3-0.1,0.5-0.5,0.4-0.8c-1.4-4.8-9.5-2.7-7.9,2.1c0.6,1.8,2.9,2.1,4.6,1.9c2.3-0.3,3.8-1.6,3.3-4.1C171,39.7,169.8,40.1,170,40.9
		z"/>
</g>
<path class="st10" d="M0,174.1c0.3,4.2,1.2,8.3,2.5,12.2c0.2,0.8,1.1,1.3,1.9,1c0.1,0,0.2-0.1,0.3-0.1c1.3-0.9,2.5-2.1,3.4-3.5
	c0.6-0.8,1.1-1.7,1.7-2.5c0.2-0.4,1.4-1.6,0.5-1.2l-1.5-0.4c1.5,1.3,3.4,8.5,6.8,6.5c1.2-0.7,1.9-2.9,2.4-4.1
	c0.9-2.6,1.5-5.3,1.8-8.1c0.3-1.9-2.6-2.7-2.9-0.8c-0.5,3-0.7,6.9-2.5,9.5c-0.4,0.6,0.6,0.6,0,0.3s-1.2-1.6-1.6-2.2
	c-0.5-1.2-1.1-2.2-1.9-3.2c-0.4-0.4-0.9-0.5-1.5-0.4c-2.9,1.2-3.6,5.8-6.3,7.5l2.2,0.9c-1.3-3.7-2.1-7.5-2.5-11.4
	C2.8,172.2-0.2,172.2,0,174.1z"/>
<path class="st10" d="M24,180.6c2.4-0.2,8.5,0.5,7.7-3.6c-0.6-2.9-3.7-6.1-6.7-3.8c-2.5,2-4,6.6-2.7,9.6c1.5,3,5,4.5,8.2,3.4
	c1.8-0.6,1-3.5-0.8-2.9c-1.4,0.6-3.1,0.2-4.2-0.9c-1.2-1.5-0.6-3.5,0.2-5c0.3-0.6,0.8-2,1.6-1.9c0.5,0.1,1.7,1.8,1.5,2.2
	c0.5-0.7-1.2-0.3-1.5-0.3l-3.2,0.2C22.1,177.7,22.1,180.7,24,180.6L24,180.6z"/>
<path class="st10" d="M38.9,179.1c2.8,0.5,7.9,0.1,7.2-4.1c-0.6-3.6-5.1-4.1-7.4-1.9c-2.5,2.6-3.1,6.5-1.3,9.7
	c1.6,2.7,5.1,3.7,7.9,2.1c0.3-0.1,0.5-0.3,0.7-0.5c1.5-1.2-0.6-3.3-2.1-2.1c-1.2,0.7-2.7,0.5-3.5-0.6c-0.9-1.2-1.1-2.8-0.7-4.3
	c0.3-1.1,1.2-2.9,2.7-2.6c1.1,0.2,1,1,0.1,1.5c-0.9,0.3-1.8,0.3-2.6,0C37.9,176,37.1,178.9,38.9,179.1L38.9,179.1z"/>
<path class="st10" d="M50.7,171.2c0.6,5,0.8,10.1,0.7,15.2c0,1.9,3,1.9,3,0c0.1-5.1-0.1-10.1-0.7-15.2
	C53.5,169.4,50.5,169.3,50.7,171.2z"/>
<path class="st10" d="M59.3,173.6c-1.7,1.2-3.4,2.3-5.1,3.5c-1,0.7-2.2,1.5-1.9,3c0.3,1.3,2.1,2.1,3,2.8l5,3.7
	c1.6,1.1,3.1-1.5,1.5-2.6l-3.5-2.5c-0.9-0.7-2.9-1.6-3.4-2.6l0.2,1.2c0.2-0.6,2.3-1.6,2.8-1.9l2.9-1.9
	C62.4,175.2,60.9,172.6,59.3,173.6L59.3,173.6z"/>
<path class="st10" d="M66,171c0.1,4.8-1,10.5,0.6,15.1c1.5,4.4,7.2,1.4,9.9-0.2c0.6-0.5,0.7-1.5,0.2-2.1c-0.4-0.5-1.1-0.7-1.7-0.4
	c-1.1,0.7-4.4,2.8-5.6,1.7c-0.6-0.5-0.4-3.1-0.4-3.9c0-3.4,0.1-6.7,0-10.1C69,169.1,66,169.1,66,171L66,171z"/>
<path class="st10" d="M78.6,173.6c0.5,2.8,0.7,8,4.5,8.5c3.4,0.4,5.9-4.3,7.2-6.7l-2.8-0.8c0.3,3.3,1.3,7,1.1,10.3
	c-0.1,1.7-1.7,8.8-4.2,4.7c-1-1.6-3.6-0.1-2.6,1.5c2,3.3,6.5,3.8,8.2,0.1c2.5-5.5,1.1-10.8,0.6-16.6c-0.1-1.4-2.1-2.2-2.8-0.8
	c-0.6,1.2-2.8,6-4.9,4.6c-0.9-0.6-1.1-4.7-1.2-5.7C81.2,170.9,78.3,171.7,78.6,173.6z"/>
<path class="st10" d="M109.1,172.7c0.3,6.1,0.4,12.2,0.2,18.3c-0.1,1.9,2.9,1.9,3,0c0.2-6.1,0.1-12.2-0.2-18.3
	C112,170.8,109,170.7,109.1,172.7z"/>
<path class="st10" d="M111.8,175.1c1.1-0.9,3.3-0.5,3.6,1.1s-1.9,2.8-3.2,2.1c-1.7-0.9-3.2,1.7-1.5,2.6c3.3,1.8,8-0.9,7.7-4.8
	c-0.3-3.7-5.2-5.9-8.1-3.6C108.8,173.6,110.3,176.2,111.8,175.1L111.8,175.1z"/>
<path class="st10" d="M121.9,174l0.3,10.6l2.9-0.4c-0.6-2.9-0.3-7.4,3.6-7.4c0.8,0,1.5-0.7,1.5-1.5s-0.7-1.5-1.5-1.5
	c-6.1,0-7.5,6.4-6.5,11.2c0.3,1.7,3,1.3,3-0.4l-0.3-10.6C124.9,172.1,121.9,172.1,121.9,174L121.9,174z"/>
<path class="st10" d="M138,185.7c4.2-1.1,4.7-6.1,3.1-9.5c-0.8-1.7-2.5-2.9-4.4-2.3c-3.2,1.1-5.4,6-4.5,9.2
	C133,185.7,135.7,186.1,138,185.7c1.9-0.3,1.1-3.2-0.8-2.9c-0.6,0.2-1.3,0.1-1.8-0.1c-0.2-0.2-0.3-0.4-0.4-0.7
	c-0.1-1.4,0.4-2.8,1.2-3.9c0.3-0.4,0.7-0.8,1.1-1.1c0.1-0.1,0.3-0.2,0.4-0.2c0,0,0.1,0,0.1,0c0.1,0.1,0.2,0.2,0.4,0.4
	c0.2,0.3,0.4,0.7,0.5,1.1c0.5,1.6,0.6,4.1-1.5,4.6c-0.8,0.3-1.2,1.1-1,1.9C136.5,185.4,137.2,185.9,138,185.7z"/>
<path class="st10" d="M154.9,170.3c-2.4-1.5-5.6-1.2-7.6,0.8c-2,2.1-2.2,5.3-0.4,7.6c1.6,2.4,4.8,3.1,7.2,1.5
	c0.1-0.1,0.2-0.2,0.3-0.2c2.5-2,3.4-5.4,2.2-8.4c-0.7-1.8-3.6-1-2.9,0.8c0.6,1.5,0.5,3.2-0.5,4.5c-0.7,1.1-2.1,1.5-3.2,0.8
	c-0.3-0.2-0.6-0.5-0.8-0.8c-1.9-2.8,1.5-5.7,4.2-4C155,174,156.5,171.4,154.9,170.3L154.9,170.3z"/>
<path class="st10" d="M154.1,172.9c1.6,5.7,2.8,11.7,1.6,17.6c-0.4,2.2-1.2,5-2.6,6.8c-3.5,4.3-8.3,0.4-10.1-3.3
	c-0.8-1.8-3.4-0.2-2.6,1.5c2.6,5.5,10.5,10.1,14.8,4c5.6-7.9,4.2-18.6,1.8-27.4c-0.3-0.8-1.2-1.2-1.9-0.9
	C154.3,171.5,153.9,172.2,154.1,172.9L154.1,172.9z"/>
<path class="st10" d="M163.2,172.9c0.6,4.2,1,8.3,1.2,12.6h3c-0.4-3.2-0.9-9.3,3.8-9.6c1.9-0.1,1.9-3.1,0-3
	c-6.6,0.4-7.3,7.4-6.8,12.6c0.2,1.9,3.1,2,3,0c-0.2-4.5-0.7-8.9-1.3-13.4C165.8,170.2,162.9,171,163.2,172.9z"/>
<path class="st10" d="M178.3,173.8l7.4-1.4c1.9-0.4,1.1-3.2-0.8-2.9l-7.4,1.4C175.6,171.3,176.4,174.2,178.3,173.8z"/>
<path class="st10" d="M178.8,180.5l7.2-1.2c1.9-0.3,1.1-3.2-0.8-2.9l-7.2,1.2C176.1,178,176.9,180.9,178.8,180.5L178.8,180.5z"/>
<path class="st10" d="M176.4,172.4c0,2.4,0.1,4.8,0.3,7.1c0.2,2.2,0.2,4.9,1,6.9c1.2,3.5,6.8,1.3,9.3,0.5c1.8-0.6,1-3.5-0.8-2.9
	c-1.5,0.6-3,1-4.6,1.1c-1.3,0-0.7,0.4-1.2-0.5c-0.4-0.7-0.3-2.4-0.4-3.2c-0.4-3-0.5-6.1-0.5-9.1c0-0.8-0.7-1.5-1.5-1.5
	S176.4,171.5,176.4,172.4L176.4,172.4z"/>
<path class="st10" d="M201.6,172.7c-2-0.7-4.1-0.6-6,0.3c-1.5,0.7-2.3,2.4-1.9,4c0.5,1.7,2.1,2.9,3.6,3.7c1.1,0.6,2.8,1.6,0.7,2.1
	c-1.3,0.3-2.8,0-3.9-0.8c-1.6-1.1-3.1,1.5-1.5,2.6c2.4,1.8,9,2.3,9.5-1.9c0.3-2-1.3-3.4-2.9-4.4c-0.6-0.4-2.8-1.3-2.7-2.2
	c0.2-1.6,3.5-0.8,4.2-0.6c0.8,0.2,1.6-0.3,1.8-1.1C202.7,173.8,202.3,173,201.6,172.7L201.6,172.7z"/>
<path class="st10" d="M215.7,172.4c-1.9-0.7-4.1-0.6-5.9,0.3c-1.5,0.7-2.4,2.4-2,4c0.5,1.7,2.1,2.9,3.6,3.7c1.1,0.6,2.8,1.6,0.7,2.1
	c-1.3,0.3-2.8,0-3.9-0.8c-1.6-1.1-3.1,1.5-1.5,2.6c2.5,1.8,9,2.3,9.5-1.9c0.3-2-1.3-3.4-2.9-4.4c-0.6-0.4-2.8-1.3-2.7-2.2
	c0.2-1.6,3.5-0.8,4.2-0.6c0.8,0.2,1.6-0.3,1.8-1.1C216.8,173.5,216.4,172.7,215.7,172.4L215.7,172.4z"/>
</svg>
