<svg xmlns="http://www.w3.org/2000/svg" viewBox="0 0 245.92 164.15"><defs><style>.cls-1{fill:#f4ede9;}.cls-2{fill:#f2d8aa;}.cls-3{fill:#fc6;}.cls-4{fill:#e5a1b1;}.cls-5{fill:#cfe0e5;}</style></defs><title>Asset 8</title><g id="Layer_2" data-name="Layer 2"><g id="Layer_1-2" data-name="Layer 1"><path class="cls-1" d="M226.33,161.28h-103a10,10,0,0,1-7-2.88L5.78,49.84a10,10,0,0,1,7-17.19h103a10.05,10.05,0,0,1,7,2.88L233.35,144.09A10,10,0,0,1,226.33,161.28Z"/><path d="M226.33,158.59H139.79c-5.23,0-11.22.85-16.4,0-5.43-.88-9.11-6-12.77-9.56l-20.3-19.94L37.85,77.57l-20.4-20c-3.07-3-7.15-6-9.69-9.52C-1.59,35.13,15,35.34,22,35.34H90.64c7.76,0,16-.81,23.73,0,5.22.54,7.41,2.95,10.81,6.29l17.2,16.88,57.76,56.72,23,22.6c4.38,4.3,20.8,19,3.18,20.76-3.4.35-3.44,5.72,0,5.37,11.57-1.18,16.38-13.12,8.75-21.93-3.62-4.19-8-7.89-12-11.77L168,76.19c-14-13.77-27.64-28.14-42.15-41.39C121.72,31,117.47,30,112,30H81.73c-22.46,0-45.07-.78-67.52,0-9.16.32-17.28,8.1-13.07,17.77,1.94,4.44,7,8.18,10.36,11.47l99.18,97.39c4.22,4.14,7.72,7.09,14.09,7.36,10.56.44,21.23,0,31.8,0h69.76C229.78,164,229.78,158.59,226.33,158.59Z"/><path d="M30.77,46.33c2.29,2.22,4.5,4.75,7,6.74,1.25,1,2.3,1.83,4,1.37s2.7-2.11,3.6-3.49C47.22,48,49,45.09,50.89,42.16c.93-1.46-1.39-2.81-2.31-1.35l-3,4.68c-.93,1.48-2.06,4.28-3.43,5.29-2.73,2-7.47-4.38-9.52-6.35-1.24-1.19-3.14.7-1.89,1.9Z"/><path d="M49.43,41.29c2.65,3.39,5.88,6.73,10.4,4.83a12.38,12.38,0,0,0,4.23-3.69c1.57-1.87,2.92-7.87,4.6-9.12C73.13,30,80.79,42,86.29,42c6,0,7.41-6.19,12.46-8.11,1.6-.61.91-3.2-.71-2.58-5.32,2-8.33,8.71-15.18,7-4.8-1.24-6.17-8.68-11.34-9.69-2.12-.42-3.09.19-4.5,1.58s-2,5.77-2.53,6.77c-2.92,5.8-8.3,8.67-13.17,2.46-1.06-1.36-2.94.55-1.89,1.89Z"/><path d="M59.17,75q7,5.6,13.75,11.43a1.36,1.36,0,0,0,2.29-1,21,21,0,0,1,7.35-15.21c1.3-1.14-.61-3-1.9-1.89a23.74,23.74,0,0,0-8.13,17.1l2.29-.94Q68,78.71,61.07,73.13c-1.34-1.07-3.25.82-1.9,1.89Z"/><path d="M80.69,69A73.33,73.33,0,0,0,87,74.57c1.48,1.15,3.74,3.59,5.9,3.16,1.84-.36,2.62-2.45,3.43-3.87l5.24-9.26a1.34,1.34,0,0,0-2.32-1.35L96.06,68.8c-.68,1.21-2,4.91-3.15,5.56-2.58,1.47-8.56-5.49-10.33-7.24A1.34,1.34,0,0,0,80.69,69Z"/><path d="M99.5,63.11a57.3,57.3,0,0,0,12.39,11.54,1.35,1.35,0,0,0,2-.8,37.69,37.69,0,0,1,5-10.31c2.06-2.9,3.9-3.51,7.6-2.69,1.76.39,4.16,2,5.8,2.74s2.91-1.58,1.35-2.32c-3.58-1.69-9.16-6.17-13.2-3.59-4.72,3-7.53,10.43-9.18,15.45l2-.8a54.65,54.65,0,0,1-11.85-11.12c-1.07-1.35-3,.56-1.89,1.9Z"/><path d="M84.71,104.79a89.31,89.31,0,0,1,10.38,9.92c.84.94,2.2.12,2.29-.95A46.56,46.56,0,0,1,98,107a7.45,7.45,0,0,1,2.85-4.83q6.36-1.89,7.68,3.66a1.34,1.34,0,0,0,2.58-.72c-1.29-4.56-5.62-7.6-10.35-5.83-6,2.25-5.6,9.26-6,14.51l2.29-1a89.18,89.18,0,0,0-10.38-9.91c-1.33-1.08-3.24.8-1.9,1.89Z"/><path d="M111.07,105a46.81,46.81,0,0,1,2-6,15,15,0,0,1,1.59-3.36c.94-1.2.41-1.16,1.84-.7,1.75.57,3.84,2.94,5.28,4l5.87,4.48c1.37,1,2.71-1.28,1.36-2.31L119.65,94c-1.23-.94-3-2.88-4.75-2.47s-2.48,2.66-3.11,3.94a48.6,48.6,0,0,0-3.3,8.83,1.34,1.34,0,0,0,2.58.71Z"/><path d="M129.25,102.89c2.31-4.5,5-9.9,10.23-11.48,4.43-1.33,9,1.59,13.48,1.83,1.73.09,1.72-2.6,0-2.69-5.59-.29-10.25-3.63-15.81-1.1-5.05,2.31-7.8,7.39-10.22,12.09-.78,1.53,1.53,2.89,2.32,1.35Z"/><path d="M109.38,131.1c2.62-4.28,7.08-10.94,13.07-8,1.55.75,2.91-1.56,1.36-2.32-7.52-3.63-13.21,3.24-16.74,9-.9,1.47,1.41,2.82,2.31,1.35Z"/><path d="M121.64,122.21c2.68,2.87,8.66,12.54,13.67,11,2.06-.63,3.65-3.71,4.79-5.22,2.1-2.8,3.27-4.14,6.58-5.59,3.92-1.71,6.94-1,11-.29,1.69.28,2.42-2.3.71-2.59-5.68-.94-11.13-2.25-15.92,1.72-2.19,1.81-3.61,5.46-5.82,7-5.07,3.54-10.11-4.77-13.1-8-1.18-1.26-3.07.64-1.89,1.9Z"/><path class="cls-1" d="M233.48,152.34h-103a10,10,0,0,1-7-2.87L12.93,40.9a10,10,0,0,1,7-17.18h103a10,10,0,0,1,7,2.87L240.5,135.15A10,10,0,0,1,233.48,152.34Z"/><path d="M233.48,149.66H146.94c-5.23,0-11.22.84-16.4,0-5.43-.89-9.11-6-12.77-9.57l-20.3-19.93L45,68.64l-20.4-20c-3.07-3-7.15-6-9.69-9.52C5.55,26.19,22.14,26.4,29.13,26.4H97.79c7.76,0,16-.81,23.73,0,5.22.54,7.41,3,10.81,6.29l17.2,16.89,57.76,56.71,23,22.6c4.38,4.3,20.8,19,3.18,20.77-3.4.34-3.44,5.71,0,5.36,11.57-1.17,16.37-13.12,8.75-21.93-3.62-4.19-8-7.89-12-11.77L175.18,67.25c-14-13.77-27.64-28.13-42.15-41.39-4.16-3.8-8.41-4.82-13.88-4.82H88.88c-22.46,0-45.07-.79-67.52,0-9.16.32-17.28,8.1-13.07,17.76,1.93,4.44,7,8.18,10.36,11.47l99.17,97.39c4.23,4.15,7.73,7.09,14.1,7.36,10.55.44,21.23,0,31.8,0h69.76C236.93,155,236.93,149.66,233.48,149.66Z"/><path d="M55.79,55.27c2.3,2.21,4.5,4.75,7,6.74,1.24,1,2.29,1.83,4,1.37s2.7-2.11,3.6-3.5C72.24,57,74.06,54,75.91,51.1c.93-1.47-1.39-2.81-2.31-1.36l-3,4.69c-.93,1.47-2,4.27-3.42,5.28-2.74,2-7.48-4.37-9.53-6.34-1.24-1.2-3.14.7-1.89,1.9Z"/><path d="M74.45,50.23c2.65,3.39,5.88,6.73,10.4,4.82a12.24,12.24,0,0,0,4.23-3.68c1.57-1.87,2.92-7.87,4.6-9.12,4.48-3.33,12.13,8.71,17.64,8.7,6,0,7.4-6.19,12.46-8.1,1.59-.61.9-3.2-.72-2.59-5.32,2-8.33,8.71-15.17,7-4.81-1.24-6.18-8.68-11.35-9.69-2.12-.42-3.09.19-4.5,1.58s-2,5.77-2.53,6.77c-2.91,5.8-8.3,8.67-13.16,2.45-1.06-1.35-2.95.56-1.9,1.9Z"/><path d="M84.19,84q7,5.58,13.76,11.43a1.35,1.35,0,0,0,2.28-1,21.08,21.08,0,0,1,7.35-15.21c1.3-1.14-.6-3-1.89-1.9a23.79,23.79,0,0,0-8.14,17.11l2.29-1q-6.77-5.83-13.75-11.43c-1.34-1.06-3.25.82-1.9,1.9Z"/><path d="M105.71,78A73.33,73.33,0,0,0,112,83.51c1.48,1.15,3.75,3.59,5.9,3.16,1.84-.36,2.62-2.45,3.43-3.88l5.24-9.25a1.34,1.34,0,0,0-2.31-1.36l-3.15,5.56c-.68,1.2-2,4.9-3.14,5.55-2.58,1.48-8.56-5.49-10.33-7.24-1.23-1.21-3.13.69-1.9,1.9Z"/><path d="M124.52,72a57.05,57.05,0,0,0,12.39,11.54,1.35,1.35,0,0,0,2-.8,37.91,37.91,0,0,1,5-10.3c2.06-2.9,3.9-3.51,7.6-2.69,1.77.39,4.17,2,5.8,2.73s2.92-1.57,1.36-2.31c-3.59-1.69-9.17-6.17-13.21-3.59-4.71,3-7.53,10.43-9.17,15.45l2-.8a54.38,54.38,0,0,1-11.84-11.12c-1.08-1.35-3,.56-1.9,1.89Z"/><path d="M109.74,113.73a88.35,88.35,0,0,1,10.37,9.92c.84.94,2.2.11,2.29-1a49.52,49.52,0,0,1,.61-6.8,7.47,7.47,0,0,1,2.86-4.82q6.34-1.89,7.67,3.65a1.34,1.34,0,0,0,2.58-.71c-1.29-4.56-5.62-7.61-10.34-5.83-6,2.24-5.6,9.26-6.06,14.51l2.29-1a89.31,89.31,0,0,0-10.38-9.92c-1.33-1.08-3.23.81-1.89,1.9Z"/><path d="M136.1,114a47.81,47.81,0,0,1,2-6,15.21,15.21,0,0,1,1.59-3.36c.94-1.2.41-1.17,1.84-.7,1.75.57,3.85,2.94,5.29,4l5.87,4.48c1.37,1.05,2.7-1.28,1.35-2.32L144.68,103c-1.23-.94-3-2.89-4.75-2.47s-2.48,2.66-3.12,3.94a49.54,49.54,0,0,0-3.3,8.82,1.35,1.35,0,0,0,2.59.72Z"/><path d="M154.27,111.83c2.31-4.5,5-9.91,10.24-11.48,4.42-1.33,9,1.59,13.47,1.82,1.73.09,1.72-2.59,0-2.68-5.59-.29-10.25-3.64-15.81-1.1-5,2.3-7.8,7.39-10.21,12.08-.79,1.54,1.52,2.89,2.31,1.36Z"/><path d="M134.41,140c2.62-4.28,7.07-10.95,13.07-8,1.54.74,2.9-1.57,1.35-2.32-7.52-3.64-13.21,3.24-16.74,9-.9,1.48,1.42,2.83,2.32,1.36Z"/><path d="M146.66,131.15c2.69,2.87,8.66,12.54,13.68,11,2-.62,3.64-3.7,4.78-5.22,2.11-2.79,3.27-4.14,6.59-5.58,3.91-1.71,6.93-1,11-.29,1.68.28,2.41-2.31.71-2.59-5.69-.94-11.14-2.25-15.93,1.71-2.18,1.81-3.6,5.47-5.82,7-5.07,3.53-10.11-4.77-13.09-8-1.18-1.26-3.08.64-1.9,1.9Z"/><path d="M182.85,130.2c1.94,2.31,3.94,6.44,7.5,5.2,2.49-.86,5.12-3.53,7.26-5.07L205,125c1.38-1,.05-3.32-1.36-2.31l-9.82,7.06c-1.46,1.05-3.58,3.47-5.61,2.63-1.12-.46-2.64-3.16-3.44-4.11-1.11-1.32-3,.58-1.9,1.9Z"/><path class="cls-2" d="M168.2,82.37a1.53,1.53,0,0,0-.11.49l-.89,20.53a1.2,1.2,0,0,0,1.91,1.08L186.3,93.2a1.67,1.67,0,0,0,.36-.34"/><path d="M167.11,82.07c-.83,3.92-.47,8.38-.64,12.37-.1,2.28-1.77,9.53.81,11s7.67-3.46,9.53-4.68c3.45-2.27,7.61-4.3,10.65-7.11,1.06-1-.53-2.58-1.59-1.6-2.38,2.2-5.66,3.79-8.37,5.56-1,.64-8.11,6.31-9,5.79s.27-9.22.31-10.29c.15-3.35-.19-7.16.51-10.45.3-1.42-1.87-2-2.17-.6Z"/><path class="cls-3" d="M207.29,13.11l-9.86,17.27-10,17.75L177.32,65.89l-8.69,15.27a3.32,3.32,0,0,0-.43,1.21l18.46,10.49a3.61,3.61,0,0,0,.82-1L193.67,81l10.44-19.51L217.3,39.39l8.85-15.56"/><path d="M206.32,12.54q-10,17.48-19.89,35-5,8.84-10,17.65c-3.1,5.44-7.22,11-9.32,16.88a1.14,1.14,0,0,0,.52,1.27l18.46,10.49a1.15,1.15,0,0,0,1.37-.17c3.72-4.49,6.23-10.33,9-15.49,3.09-5.78,6-11.67,9.35-17.33,7.12-12.15,14.36-24.2,21.32-36.45a1.13,1.13,0,0,0-2-1.13q-9,15.89-18.38,31.54c-5.31,8.88-9.88,18.16-15,27.17-1.68,3-3.15,6.37-5.18,9.12-.44.6,1.05.51.27.61-.28,0-1.11-.64-1.37-.78-1.54-.81-3-1.72-4.55-2.59l-10.23-5.81c-.37-.21-1.32-.52-1.53-.86-.56-.93.21.63.41,0a19.1,19.1,0,0,1,1.81-3.16q8.53-15,17-30,9.87-17.41,19.78-34.81a1.13,1.13,0,0,0-1.94-1.14Z"/><path class="cls-4" d="M226.15,23.83l4.7-8.28c2-3.43,1.8-6.81-1.25-8.54L221,1.76c-3-1.73-7.09-.35-9,3.08l-4.7,8.27"/><path d="M227.12,24.39c1.94-3.41,4.95-7.2,5.87-11.08,1.33-5.62-3.5-7.69-7.5-10.14s-8.23-5-12.61-1.18c-2.95,2.6-4.65,7.19-6.56,10.55a1.13,1.13,0,0,0,1.94,1.14c1.42-2.49,2.71-5.1,4.27-7.51,3.56-5.5,7.39-3.77,11.82-1.06,4.07,2.5,8.3,4.43,5.21,10.44-1.35,2.62-2.93,5.14-4.39,7.71a1.13,1.13,0,0,0,2,1.13Z"/><polyline class="cls-5" points="226.13 23.82 222.64 29.96 203.88 19.3 207.37 13.16 226.13 23.82"/><path d="M225.16,23.25l-3.49,6.14,1.54-.4L204.45,18.33l.4,1.54,3.49-6.15-1.54.41,18.76,10.66a1.13,1.13,0,0,0,1.14-1.94L207.94,12.18a1.14,1.14,0,0,0-1.54.41l-3.49,6.14a1.14,1.14,0,0,0,.4,1.54l18.76,10.66a1.14,1.14,0,0,0,1.54-.4l3.49-6.15a1.12,1.12,0,0,0-1.94-1.13Z"/><path d="M168.14,82.59a110,110,0,0,0,18.25,10.23c1.31.58,2.46-1.36,1.13-1.94a110.61,110.61,0,0,1-18.24-10.23c-1.19-.83-2.32,1.12-1.14,1.94Z"/><path d="M168.61,104.19a1.13,1.13,0,0,0,0-2.25,1.13,1.13,0,0,0,0,2.25Z"/></g></g></svg>