<svg xmlns="http://www.w3.org/2000/svg" viewBox="0 0 216.72 202.36"><defs><style>.cls-1{fill:#444;}.cls-2{fill:#eaca60;}.cls-3{fill:#bcbbaf;}.cls-4{fill:#00b572;}.cls-5{opacity:0.6;}.cls-6{opacity:0.5;}.cls-7{fill:#e8e2a7;}.cls-8{fill:#f9a5a5;}.cls-9{fill:#f41c1c;}.cls-10{fill:#bca15e;}.cls-11{fill:#353535;}</style></defs><title>Asset 20</title><g id="Layer_2" data-name="Layer 2"><g id="Layer_1-2" data-name="Layer 1"><path class="cls-1" d="M203.52,95.65,61.36,148.06a7.15,7.15,0,0,1-8.85-3.46L7.69,56.8a7.16,7.16,0,0,1,4.13-10L143.06,3.25a7.15,7.15,0,0,1,8.1,2.66L206.89,84.8A7.16,7.16,0,0,1,203.52,95.65Z"/><path d="M203.35,95l-100,36.86C89.6,137,75.89,142.71,61.9,147.18c-7.28,2.33-9.4-4-12-9.06L37,112.79,9.6,59.13C8,56,6.34,52.9,9,49.54c1.47-1.85,3.42-2.32,5.49-3l18.75-6.22L98,18.87C112.75,14,127.48,8.43,142.45,4.12c6.66-1.91,9.28,3.71,12.47,8.22L171.65,36l33.61,47.59c2.8,4,3.31,9-2.06,11.49-.76.34-.1,1.45.64,1.11a7.93,7.93,0,0,0,3.51-11.86c-1-1.67-2.28-3.24-3.42-4.84L186.4,54.69C175,38.59,163.92,22.27,152.27,6.37c-3.4-4.64-7.61-4.33-12.41-2.74l-21.4,7.1L50.07,33.4l-28,9.28C18.21,44,13,44.78,9.6,47.15c-6.34,4.43-1.88,11.12.68,16.13L24.34,90.83c9.06,17.74,17.79,35.69,27.18,53.25,2.79,5.21,7.34,5.59,12.3,3.76l19-7L200.93,97.29l2.76-1C204.46,96,204.13,94.75,203.35,95Z"/><path class="cls-2" d="M52.14,129.79H51.8a2.63,2.63,0,0,0-2.47,1.89l-.08.24A2.59,2.59,0,0,0,51,135.08l.48.09-1.89-2.48c.24,2.1,1,4.62,3.65,4.36L50.8,133.8c-.29,1.41-.57,2.61.45,3.79.09.11.89,1,.64.57.35.6.37,1.34.8,2,.83,1.2,2.93,1.93,4,.52l.43-.55-4.39-1.82a5,5,0,0,0,.76,3.13c.27.4.82.68,1,1-.54-.86,0,.51.24.73,1.5,1.82,3.75,2.2,6,2.34,3.3.21,3.29-4.93,0-5.14-.95-.06-1.6,0-2.19-.76-.24-.29-.36-.69-.63-1-1-1.12-.1,1-.07-.36.06-2.05-3-3.62-4.38-1.81l-.43.54,4,.52c-.4-.57-.39-1.39-.74-2s-1-1-1.5-1.54l.75,1.81c0-.2.08-.4.13-.6.3-1.48-.71-3.43-2.48-3.26,1.28,1.76,1.77,2,1.49.78a2.64,2.64,0,0,0-1.88-2.48l-.48-.09,1.79,3.16.08-.24-2.48,1.89h.34c3.31,0,3.32-5.19,0-5.13Z"/><path class="cls-2" d="M86.77,118.58c-5.48.43-10.48,3.61-15.78,4.9a2.6,2.6,0,0,0-1.8,3.16c1.08,4,3.32,7.38,4.11,11.56A2.59,2.59,0,0,0,76.46,140c5.16-1.54,11.27-3,16-5.73,3.53-2,1.19-5.13,0-8-1.24-3.12-2.6-5.47-6.48-4.68a63.85,63.85,0,0,0-8.13,2.67c-1.39.49-2.83.77-3.53,2.21-1.26,2.6.57,7.18,3.08,8.41,1.82.9,3.3.26,5.07-.33,2.32-.77,5.55-1.44,7.62-2.77a3.77,3.77,0,0,0,.27-5.92c-2.91-2.85-8.69.1-11.66,1.25s-1.73,6.16,1.36,5c1.34-.52,2.67-1,4-1.42l1.37-.39c1.37.11,1.72-.18,1-.88l1.27-2.22c-1.68,1-4.09,1.51-6,2.18-.4.15-3.51,1-2.49-.33-.59.77,1.74-.41,2-.51,1-.32,5.18-2.33,5.86-1.87a26.27,26.27,0,0,1,2,5l1.27-2.22c-2,1.46-5.06,2.15-7.33,3-2.68,1-5.39,1.85-8.12,2.66l3.16,1.8c-.78-4.2-3-7.57-4.1-11.56l-1.8,3.16c4.76-1.16,9.53-4.32,14.42-4.71,3.27-.26,3.3-5.4,0-5.14Z"/><path class="cls-2" d="M102.16,117.63c4.65-.15,7.71-2.3,12.06-3.66,2-.63,5.51-2.49,7.61-2,2.33.51,3.57,4.74,4.27,6.82l1.18-2.9c-2.92,1.62-6.13,1.58-9.09,3.16-3.29,1.76-7.25,2.26-10.29,4.49l3.12.4-6-7.07-1.14,4.3c3-1.08,5.94-2.1,9-3,1.07-.33,10.63-2.26,8.61-4.64-.06-.07-7.73,2.32-8.53,2.49a17.42,17.42,0,0,0-6.22,2.17c-1.66,1.06-1.72,4.35.62,4.69a15.43,15.43,0,0,0,6.2-.22c3.21-.78,1.85-5.74-1.37-5a6.92,6.92,0,0,1-3.47.23l.62,4.7c3.14-2,20.2-2.61,16.61-9.42-1.56-3-4.86-2.58-7.62-1.91a151.37,151.37,0,0,0-15.76,4.92,2.62,2.62,0,0,0-1.14,4.3l6,7.07a2.58,2.58,0,0,0,3.12.4c3.14-2.31,7.67-3.33,11.27-4.88,2.59-1.11,5.48-1.32,8.11-2.77a2.61,2.61,0,0,0,1.18-2.9c-1.45-4.3-3.84-11.17-9.48-10.88-6.81.34-12.75,5.76-19.42,6-3.29.11-3.31,5.25,0,5.14Z"/><path class="cls-2" d="M159.34,98.33l-.26-1.19a2.63,2.63,0,0,0-2.48-1.89l.87.37a2.57,2.57,0,0,0-3.11-.4c-2.16,1.51-4.82,1.69-7.31,2.44-2.79.83-5.54,1.82-8.31,2.74a2.6,2.6,0,0,0-1.13,4.3c1.14,1.23,3.16,2.83,3.66,4.46,0,.94.33,1.29.86,1a13.09,13.09,0,0,1-3.57,1.51l1.36,5c4.47-1.49,8.67-3.63,13.08-5.25,2-.75,4.12-1.19,6.17-1.84,1.77-.55,3.41-1.72,5.22-2s2.18-2.44,1.53-3.78c-2.29-4.78-5.18-5.23-9.9-3.79-3.68,1.13-10.71-.1-13.51,3.14-2.19,2.54,0,5.59,2.78,6.12,5.09,1,11.92-2.28,16.63-3.81a2.62,2.62,0,0,0,1.54-3.78L163,99.48a2.6,2.6,0,0,0-3.87-2.22c-3.53,2.23-7.13,4.34-10.82,6.3-3.1,1.64-6.52,2.94-9.28,5.14-2.12,1.68-8.48,8.71-1.87,9.24l-.68-5a45.56,45.56,0,0,1-6.25,1.92c-3.22.75-1.86,5.7,1.37,5a47,47,0,0,0,6.25-1.92,2.59,2.59,0,0,0-.69-5l-.29,0,2.21,1.27-.16-.29v2.59c2-4,6.91-5.72,10.6-7.63,4.17-2.16,8.23-4.52,12.2-7l-3.86-2.22a12.48,12.48,0,0,0,1.16,4.77l1.54-3.78c-2.63.86-5.27,1.67-7.93,2.4-1.16.32-2.91.39-3.88,1-.81,0-1.2.46-1.18,1.41-.94,1.37-.66,1.68.82.94,3.33.22,11.48-3.23,13.1.13l1.53-3.77a22,22,0,0,0-4.25,1.66c-2.31.91-4.8,1.34-7.13,2.2-4.42,1.63-8.62,3.76-13.08,5.25-3.12,1-1.86,5.8,1.36,5,2.57-.67,7.47-2.06,7.59-5.3.15-3.79-3.93-7.78-6.27-10.3l-1.13,4.3c3.16-1.06,6.32-2.26,9.55-3.1,2.63-.69,5-1,7.29-2.6l-3.11-.4a3.12,3.12,0,0,0,2.76,1.13l-2.48-1.88.26,1.19c.71,3.22,5.67,1.86,5-1.37Z"/><path class="cls-2" d="M175.44,90.82h0L173.67,94c4.49-1,9-3,13.31-4.54l-2.5-.66a61.81,61.81,0,0,1,7.31,7.07l1.14-4.3c-3.79,1.53-7.55,3.19-11.39,4.58a22.73,22.73,0,0,1-2.79.79c0-.27,1.82-.94,2.09-1.07,1.16-.56,5.13-3,6.48-2.67l-1.8-1.79c.14.36-6.24,3.35-6.66,3.56-2.94,1.5-.35,5.94,2.6,4.44s12.45-4.89,8.76-10c-1.4-1.94-3.64-1.65-5.59-.87-2.73,1.09-6.07,2.23-8.48,3.95-3.67,2.61-1.49,7.4,2.2,8.92,2.19.9,3.78,0,5.89-.86l10-4a2.61,2.61,0,0,0,1.14-4.29c-2.68-3-6.38-8.5-10.85-7.45-4.23,1-8.07,3.28-12.28,4.26a2.58,2.58,0,0,0-1.79,3.16,5.27,5.27,0,0,0,2.34,3.07c2.7,1.92,5.27-2.53,2.59-4.44Z"/><path class="cls-2" d="M204.7,83.43l.7-.67-4-.52a15.26,15.26,0,0,1,1.77,3.63c.48,1.85-.37,2.19-1.88,2.74-2.15.79-4,2.31-6.41,2.46-3.28.2-3.3,5.34,0,5.14a15.64,15.64,0,0,0,6.29-1.86c1.66-.87,3.69-1.16,5.1-2.47,3.87-3.58,1.84-8.39-.43-12.23a2.59,2.59,0,0,0-4-.52l-.71.67c-2.4,2.28,1.24,5.91,3.64,3.63Z"/><path class="cls-1" d="M204.38,93.08,62.22,145.5A7.16,7.16,0,0,1,53.37,142L8.55,54.24a7.16,7.16,0,0,1,4.12-10.06L143.92.68A7.15,7.15,0,0,1,152,3.34l55.73,78.9A7.16,7.16,0,0,1,204.38,93.08Z"/><path d="M204.21,92.46l-100,36.86c-13.77,5.08-27.48,10.82-41.47,15.29-7.28,2.33-9.4-4-12-9.06L37.85,110.22,10.46,56.56c-1.6-3.12-3.27-6.23-.59-9.59,1.47-1.85,3.42-2.32,5.49-3l18.75-6.22L98.82,16.3c14.79-4.9,29.51-10.43,44.49-14.74,6.66-1.92,9.28,3.7,12.46,8.21l16.74,23.68L206.12,81c2.8,4,3.31,9-2.07,11.49-.75.34-.1,1.45.65,1.11a7.94,7.94,0,0,0,3.51-11.86c-1-1.67-2.29-3.24-3.42-4.84L187.26,52.12C175.89,36,164.78,19.7,153.13,3.8c-3.41-4.64-7.61-4.33-12.42-2.74l-21.39,7.1L50.92,30.83l-28,9.28c-3.84,1.28-9.06,2.1-12.45,4.47C4.11,49,8.58,55.7,11.14,60.71L25.2,88.26C34.25,106,43,124,52.38,141.51c2.79,5.21,7.34,5.59,12.3,3.76l19-7L201.79,94.72l2.76-1C205.32,93.42,205,92.18,204.21,92.46Z"/><path d="M83.2,36.19a.33.33,0,0,0,0-.65.33.33,0,0,0,0,.65Z"/><path class="cls-3" d="M56.45,87,44.74,91.53c-1.63.64-4.46,0-5.1-1.64l-4.76-9.35c-.64-1.63,0-4.36,1.68-5L49.23,71.2A3.16,3.16,0,0,1,53.34,73l4.91,9.84A3.17,3.17,0,0,1,56.45,87Z"/><path d="M56.36,86.64c-3.76,1.48-7.71,3.64-11.64,4.56-4.11,1-5.18-2.2-6.63-5-1.26-2.48-4.81-7.25-2-9.78,1.6-1.42,4.47-1.87,6.46-2.56s4.63-2.23,6.58-2.25c3.7,0,4.51,2.81,5.81,5.42,1.17,2.36,5.1,7.46,1.32,9.7a.32.32,0,0,0,.32.55c4.81-2.84-.39-9.18-2.08-12.56-.79-1.59-1.42-3.43-3.33-3.91s-5,1.13-6.82,1.76c-3.67,1.26-11.2,2.07-9.92,7.66.5,2.17,2.08,4.33,3.08,6.3.85,1.67,1.55,4,3.26,5,2.41,1.42,5,0,7.29-.93l8.44-3.31C56.91,87.11,56.75,86.49,56.36,86.64Z"/><path class="cls-1" d="M42.24,80.18h0a3.77,3.77,0,0,0,.17,1.34,3.57,3.57,0,0,0,2.2,2.13,5.35,5.35,0,0,0,3.12,0,4.82,4.82,0,0,0,2.7-1.75c1.69-2.36-.22-5.68-2.82-6.36S42.31,77.68,42.24,80.18Z"/><path d="M41.59,80.18c-.2,6.44,11,5.19,10.06-.93a5.3,5.3,0,0,0-4.93-4.43c-2.81,0-4.9,2.76-5.13,5.36-.07.83,1.22.82,1.29,0a4.43,4.43,0,0,1,3.5-4A3.87,3.87,0,0,1,50.3,79c1.27,4.59-7.57,6-7.42,1.14C42.9,79.36,41.62,79.36,41.59,80.18Z"/><polygon class="cls-4" points="52.22 97.02 57.26 105.45 45.32 108.8 52.22 97.02"/><path d="M51.94,97.18,54.83,102a32.61,32.61,0,0,0,1.73,2.9,2.57,2.57,0,0,1,.41.68c-.18-.64.47-.29-.24-.33a10.93,10.93,0,0,0-2.65.75l-3.79,1.06-5.06,1.42.37.47,6.9-11.78a.33.33,0,0,0-.56-.33L45,108.63a.32.32,0,0,0,.36.47l11.94-3.34a.33.33,0,0,0,.2-.47l-5-8.44A.33.33,0,0,0,51.94,97.18Z"/><polygon class="cls-4" points="158.59 39.71 152.52 31.23 164.84 27.58 158.59 39.71"/><path d="M158.87,39.55l-3.46-4.83a33.58,33.58,0,0,0-2.14-3,2.89,2.89,0,0,1-.46-.64c.25.56-.53.33.23.31a11.22,11.22,0,0,0,2.62-.77l4-1.2,5.24-1.55-.36-.48-6.26,12.14c-.19.36.37.69.56.32l6.25-12.13a.32.32,0,0,0-.36-.47l-12.33,3.65a.33.33,0,0,0-.19.48l6.07,8.47C158.55,40.2,159.11,39.88,158.87,39.55Z"/><path class="cls-3" d="M44.76,96.13h0a1.14,1.14,0,0,0,.86-.41,1.88,1.88,0,0,0,.6-1.28,1.17,1.17,0,0,0-.75-1.12C43.37,92.67,43.11,96,44.76,96.13Z"/><path d="M44.76,96.45c1.19.09,2.05-1.59,1.67-2.59a1.59,1.59,0,0,0-2.26-.73c-1.3.79-1,3.14.59,3.32.41,0,.41-.59,0-.64-.85-.1-.93-1.34-.51-1.9a1,1,0,0,1,1.14-.28c1,.41.32,2.25-.63,2.18C44.35,95.78,44.35,96.42,44.76,96.45Z"/><path class="cls-3" d="M58,91.13h0a.59.59,0,0,0,.24-.23.88.88,0,0,0,.06-.28c0-1.08-1-2.22-1.88-1.07A1.13,1.13,0,0,0,58,91.13Z"/><path d="M58.18,91.41c1.34-.83-.36-3.56-1.73-2.34a1.49,1.49,0,0,0-.28,2,1.54,1.54,0,0,0,2,.31.32.32,0,0,0-.32-.55c-.77.43-1.74-.29-1.15-1.12.77-1.07,1.68.78,1.15,1.12C57.51,91.07,57.83,91.63,58.18,91.41Z"/><path class="cls-3" d="M165.15,56.34a.84.84,0,0,0,.36-.1.81.81,0,0,0,.3-.53,2.39,2.39,0,0,0,.12-.7.8.8,0,0,0-.3-.61h0C163.93,53.23,162.62,56.63,165.15,56.34Z"/><path d="M165.15,56.66c.68-.09.91-.51,1-1.14a1.27,1.27,0,0,0-.4-1.39,1.44,1.44,0,0,0-1.81.07,1.63,1.63,0,0,0-.52,1.59,1.46,1.46,0,0,0,1.69.87c.41,0,.41-.69,0-.64s-.85,0-1-.31a.82.82,0,0,1,.11-.81.81.81,0,0,1,.75-.42.93.93,0,0,1,.5.21c.28.3.09,1.27-.33,1.33S164.74,56.71,165.15,56.66Z"/><path class="cls-3" d="M176.17,52h0a1,1,0,0,0,1.23-.38,2,2,0,0,0,.19-.77,1.06,1.06,0,0,0-.08-.66.77.77,0,0,0-.62-.29C175.69,49.84,174.93,51.41,176.17,52Z"/><path d="M176,52.28a1.29,1.29,0,0,0,1.78-.76c.29-.83.16-1.9-.9-1.94a1.45,1.45,0,0,0-.88,2.7c.36.19.69-.36.32-.55a.78.78,0,0,1,.16-1.46.86.86,0,0,1,.55,0c.32.1.25.47.21.74s-.39,1-.92.74C176,51.55,175.63,52.1,176,52.28Z"/><g class="cls-5"><g class="cls-6"><path class="cls-7" d="M72.13,57.81A8.41,8.41,0,0,1,74,61c.52,1.56,3,.89,2.48-.68A11.27,11.27,0,0,0,74,56c-1.15-1.2-3,.62-1.82,1.81Z"/></g><g class="cls-6"><path class="cls-7" d="M88.34,85.36a8.25,8.25,0,0,1,1.9,3.21c.53,1.56,3,.89,2.48-.68a11.42,11.42,0,0,0-2.56-4.35c-1.15-1.19-3,.63-1.82,1.82Z"/></g><g class="cls-6"><path class="cls-7" d="M93.8,94.87a8.41,8.41,0,0,1,1.9,3.22c.52,1.55,3,.89,2.48-.69a11.42,11.42,0,0,0-2.56-4.35c-1.15-1.19-3,.63-1.82,1.82Z"/></g><g class="cls-6"><path class="cls-7" d="M105.82,90.8a8.41,8.41,0,0,1,1.9,3.22c.52,1.56,3,.89,2.48-.68A11.27,11.27,0,0,0,107.64,89c-1.15-1.2-3,.62-1.82,1.81Z"/></g><g class="cls-6"><path class="cls-7" d="M130,82.52a8.23,8.23,0,0,1,1.89,3.21c.53,1.56,3,.89,2.48-.68a11.15,11.15,0,0,0-2.56-4.35c-1.15-1.19-3,.62-1.81,1.82Z"/></g><g class="cls-6"><path class="cls-7" d="M136.56,69.43a8.27,8.27,0,0,1,1.89,3.22c.53,1.56,3,.89,2.48-.69a11.29,11.29,0,0,0-2.56-4.35c-1.15-1.19-3,.63-1.81,1.82Z"/></g><g class="cls-6"><path class="cls-7" d="M142,78.69a8.49,8.49,0,0,1,1.9,3.22c.53,1.56,3,.89,2.48-.68a11.27,11.27,0,0,0-2.56-4.35c-1.15-1.2-3,.62-1.82,1.81Z"/></g><g class="cls-6"><path class="cls-7" d="M119.65,42.91a8.38,8.38,0,0,1,1.9,3.21c.52,1.56,3,.89,2.47-.68a11.32,11.32,0,0,0-2.55-4.35c-1.15-1.19-3,.62-1.82,1.82Z"/></g><g class="cls-6"><path class="cls-7" d="M96.16,50.35a8.38,8.38,0,0,1,1.9,3.21c.52,1.56,3,.89,2.47-.68A11.4,11.4,0,0,0,98,48.53c-1.16-1.19-3,.63-1.82,1.82Z"/></g></g><path class="cls-8" d="M84.47,53.92a8.49,8.49,0,0,1,1.9,3.22c.53,1.56,3,.89,2.48-.68a11.27,11.27,0,0,0-2.56-4.35c-1.15-1.2-3,.62-1.82,1.81Z"/><path class="cls-8" d="M77.68,67a8.38,8.38,0,0,1,1.9,3.21c.52,1.56,3,.89,2.48-.68a11.27,11.27,0,0,0-2.56-4.35c-1.15-1.19-3,.62-1.82,1.82Z"/><path class="cls-8" d="M89.2,63a8.27,8.27,0,0,1,1.89,3.22c.53,1.56,3,.89,2.48-.69A11.29,11.29,0,0,0,91,61.21c-1.15-1.19-3,.63-1.81,1.82Z"/><path class="cls-8" d="M95.28,72.33a8.27,8.27,0,0,1,1.89,3.22c.53,1.56,3,.89,2.48-.69a11.29,11.29,0,0,0-2.56-4.35c-1.15-1.19-3,.63-1.81,1.82Z"/><path class="cls-8" d="M83,75.93a8.49,8.49,0,0,1,1.9,3.22c.52,1.56,3,.89,2.48-.68a11.27,11.27,0,0,0-2.56-4.35c-1.15-1.19-3,.62-1.82,1.81Z"/><path class="cls-8" d="M100.26,81.5a8.41,8.41,0,0,1,1.9,3.22c.52,1.56,3,.89,2.48-.69a11.42,11.42,0,0,0-2.56-4.35c-1.15-1.19-3,.63-1.82,1.82Z"/><path class="cls-8" d="M118.25,86.74a8.38,8.38,0,0,1,1.9,3.21c.53,1.56,3,.89,2.48-.68a11.42,11.42,0,0,0-2.56-4.35c-1.15-1.19-3,.63-1.82,1.82Z"/><path class="cls-8" d="M124.06,73.15a8.41,8.41,0,0,1,1.9,3.22c.52,1.56,3,.89,2.48-.68a11.27,11.27,0,0,0-2.56-4.35c-1.15-1.2-3,.62-1.82,1.81Z"/><path class="cls-8" d="M112.59,77.31a8.25,8.25,0,0,1,1.9,3.21c.53,1.56,3,.89,2.48-.68a11.42,11.42,0,0,0-2.56-4.35c-1.15-1.19-3,.63-1.82,1.82Z"/><path class="cls-8" d="M130.73,60.47a8.38,8.38,0,0,1,1.9,3.21c.53,1.56,3,.89,2.48-.68a11.35,11.35,0,0,0-2.56-4.35c-1.15-1.19-3,.62-1.82,1.82Z"/><path class="cls-8" d="M125,51.47a8.41,8.41,0,0,1,1.9,3.22c.52,1.56,3,.89,2.47-.69a11.4,11.4,0,0,0-2.55-4.35c-1.16-1.19-3,.63-1.82,1.82Z"/><path class="cls-8" d="M108,46.56a8.41,8.41,0,0,1,1.9,3.22c.53,1.56,3,.89,2.48-.69a11.42,11.42,0,0,0-2.56-4.35c-1.15-1.19-3,.63-1.82,1.82Z"/><path class="cls-8" d="M101.67,59a8.39,8.39,0,0,1,1.89,3.22c.53,1.55,3,.89,2.48-.69a11.42,11.42,0,0,0-2.56-4.35c-1.15-1.19-3,.63-1.81,1.82Z"/><path class="cls-8" d="M113.08,55.55a8.49,8.49,0,0,1,1.9,3.22c.52,1.56,3,.89,2.48-.68a11.27,11.27,0,0,0-2.56-4.35c-1.15-1.19-3,.62-1.82,1.81Z"/><path class="cls-8" d="M118.49,64.12a8.23,8.23,0,0,1,1.89,3.21c.53,1.56,3,.89,2.48-.68a11.22,11.22,0,0,0-2.56-4.35c-1.15-1.19-3,.62-1.81,1.82Z"/><path class="cls-8" d="M107,68.27a8.41,8.41,0,0,1,1.9,3.22c.52,1.56,3,.89,2.48-.69a11.42,11.42,0,0,0-2.56-4.35c-1.15-1.19-3,.63-1.82,1.82Z"/><path class="cls-9" d="M85.33,53.07a8.38,8.38,0,0,1,1.9,3.21c.52,1.56,3,.89,2.48-.68a11.42,11.42,0,0,0-2.56-4.35c-1.15-1.19-3,.63-1.82,1.82Z"/><path class="cls-9" d="M78.54,66.18a8.38,8.38,0,0,1,1.9,3.21c.52,1.56,3,.9,2.47-.68a11.4,11.4,0,0,0-2.55-4.35c-1.15-1.19-3,.63-1.82,1.82Z"/><path class="cls-9" d="M90.05,62.17A8.41,8.41,0,0,1,92,65.39c.53,1.56,3,.89,2.48-.68a11.27,11.27,0,0,0-2.56-4.35c-1.15-1.2-3,.62-1.82,1.81Z"/><path class="cls-9" d="M96.13,71.47A8.49,8.49,0,0,1,98,74.69c.52,1.56,3,.89,2.48-.68A11.27,11.27,0,0,0,98,69.66c-1.15-1.2-3,.62-1.82,1.81Z"/><path class="cls-9" d="M83.82,75.08a8.23,8.23,0,0,1,1.89,3.21c.53,1.56,3,.89,2.48-.68a11.29,11.29,0,0,0-2.56-4.35c-1.15-1.19-3,.63-1.81,1.82Z"/><path class="cls-9" d="M101.12,80.65A8.23,8.23,0,0,1,103,83.86c.53,1.56,3,.89,2.48-.68a11.15,11.15,0,0,0-2.56-4.35c-1.15-1.19-3,.62-1.81,1.82Z"/><path class="cls-9" d="M119.11,85.88A8.41,8.41,0,0,1,121,89.1c.52,1.56,3,.89,2.48-.69a11.42,11.42,0,0,0-2.56-4.35c-1.15-1.19-3,.63-1.82,1.82Z"/><path class="cls-9" d="M124.92,72.3a8.23,8.23,0,0,1,1.89,3.21c.53,1.56,3,.89,2.48-.68a11.22,11.22,0,0,0-2.56-4.35c-1.15-1.19-3,.63-1.81,1.82Z"/><path class="cls-9" d="M113.45,76.45a8.41,8.41,0,0,1,1.9,3.22c.52,1.56,3,.89,2.48-.69a11.42,11.42,0,0,0-2.56-4.35c-1.15-1.19-3,.63-1.82,1.82Z"/><path class="cls-9" d="M131.59,59.61a8.41,8.41,0,0,1,1.9,3.22c.52,1.55,3,.89,2.48-.69a11.42,11.42,0,0,0-2.56-4.35c-1.15-1.19-3,.63-1.82,1.82Z"/><path class="cls-9" d="M125.84,50.61a8.36,8.36,0,0,1,1.9,3.22c.53,1.56,3,.89,2.48-.68a11.27,11.27,0,0,0-2.56-4.35c-1.15-1.19-3,.62-1.82,1.81Z"/><path class="cls-9" d="M108.89,45.7a8.49,8.49,0,0,1,1.9,3.22c.52,1.56,3,.89,2.48-.68a11.27,11.27,0,0,0-2.56-4.35c-1.15-1.2-3,.62-1.82,1.81Z"/><path class="cls-9" d="M102.52,58.15a8.41,8.41,0,0,1,1.9,3.22c.52,1.56,3,.89,2.48-.68a11.27,11.27,0,0,0-2.56-4.35c-1.15-1.2-3,.62-1.82,1.81Z"/><path class="cls-9" d="M113.94,54.7a8.23,8.23,0,0,1,1.89,3.21c.53,1.56,3,.89,2.48-.68a11.29,11.29,0,0,0-2.56-4.35c-1.15-1.19-3,.63-1.81,1.82Z"/><path class="cls-9" d="M119.34,63.26a8.41,8.41,0,0,1,1.9,3.22c.53,1.55,3,.89,2.48-.69a11.42,11.42,0,0,0-2.56-4.35c-1.15-1.19-3,.63-1.82,1.82Z"/><path class="cls-9" d="M107.88,67.41a8.49,8.49,0,0,1,1.9,3.22c.52,1.56,3,.89,2.47-.68a11.25,11.25,0,0,0-2.55-4.35c-1.15-1.19-3,.62-1.82,1.81Z"/><path class="cls-2" d="M52.14,129.79H51.8a2.63,2.63,0,0,0-2.47,1.89l-.08.24A2.59,2.59,0,0,0,51,135.08l.48.09-1.89-2.48c.24,2.1,1,4.62,3.65,4.36L50.8,133.8c-.29,1.41-.57,2.61.45,3.79.09.11.89,1,.64.57.35.6.37,1.34.8,2,.83,1.2,2.93,1.93,4,.52l.43-.55-4.39-1.82a5,5,0,0,0,.76,3.13c.27.4.82.68,1,1-.54-.86,0,.51.24.73,1.5,1.82,3.75,2.2,6,2.34,3.3.21,3.29-4.93,0-5.14-.95-.06-1.6,0-2.19-.76-.24-.29-.36-.69-.63-1-1-1.12-.1,1-.07-.36.06-2.05-3-3.62-4.38-1.81l-.43.54,4,.52c-.4-.57-.39-1.39-.74-2s-1-1-1.5-1.54l.75,1.81c0-.2.08-.4.13-.6.3-1.48-.71-3.43-2.48-3.26,1.28,1.76,1.77,2,1.49.78a2.64,2.64,0,0,0-1.88-2.48l-.48-.09,1.79,3.16.08-.24-2.48,1.89h.34c3.31,0,3.32-5.19,0-5.13Z"/><path class="cls-2" d="M86.77,118.58c-5.48.43-10.48,3.61-15.78,4.9a2.6,2.6,0,0,0-1.8,3.16c1.08,4,3.32,7.38,4.11,11.56A2.59,2.59,0,0,0,76.46,140c5.16-1.54,11.27-3,16-5.73,3.53-2,1.19-5.13,0-8-1.24-3.12-2.6-5.47-6.48-4.68a63.85,63.85,0,0,0-8.13,2.67c-1.39.49-2.83.77-3.53,2.21-1.26,2.6.57,7.18,3.08,8.41,1.82.9,3.3.26,5.07-.33,2.32-.77,5.55-1.44,7.62-2.77a3.77,3.77,0,0,0,.27-5.92c-2.91-2.85-8.69.1-11.66,1.25s-1.73,6.16,1.36,5c1.34-.52,2.67-1,4-1.42l1.37-.39c1.37.11,1.72-.18,1-.88l1.27-2.22c-1.68,1-4.09,1.51-6,2.18-.4.15-3.51,1-2.49-.33-.59.77,1.74-.41,2-.51,1-.32,5.18-2.33,5.86-1.87a26.27,26.27,0,0,1,2,5l1.27-2.22c-2,1.46-5.06,2.15-7.33,3-2.68,1-5.39,1.85-8.12,2.66l3.16,1.8c-.78-4.2-3-7.57-4.1-11.56l-1.8,3.16c4.76-1.16,9.53-4.32,14.42-4.71,3.27-.26,3.3-5.4,0-5.14Z"/><path class="cls-2" d="M102.82,117.83A27.79,27.79,0,0,0,108,117c1.23-.44,2.34-1.31,3.6-1.72,1.06-.34,2.19-.46,3.27-.86,1.7-.63,4.6-2.43,6.42-2.44,2.84,0,4,4.43,4.83,6.8l1.18-2.9c-2.92,1.62-6.13,1.58-9.09,3.16-3.29,1.76-7.25,2.26-10.29,4.49l3.12.4-6-7.07-1.14,4.3c3-1.08,5.94-2.1,9-3,1.07-.33,10.63-2.26,8.61-4.64-.06-.07-7.73,2.32-8.53,2.49a17.42,17.42,0,0,0-6.22,2.17c-1.66,1.06-1.72,4.35.62,4.69a15.43,15.43,0,0,0,6.2-.22c3.21-.78,1.85-5.74-1.37-5a6.92,6.92,0,0,1-3.47.23l.62,4.7c3.14-2,20.2-2.61,16.61-9.42-1.56-3-4.86-2.58-7.62-1.91a151.37,151.37,0,0,0-15.76,4.92,2.62,2.62,0,0,0-1.14,4.3l6,7.07a2.58,2.58,0,0,0,3.12.4c3.14-2.31,7.67-3.33,11.27-4.88,2.59-1.11,5.48-1.32,8.11-2.77a2.61,2.61,0,0,0,1.18-2.9c-1.74-5.16-4.72-12.54-11.38-10.34-6.07,2-11.93,4.92-18.22,5.82-3.26.47-1.88,5.42,1.36,5Z"/><path class="cls-2" d="M159.34,98.33l-.26-1.19a2.63,2.63,0,0,0-2.48-1.89l.87.37a2.57,2.57,0,0,0-3.11-.4c-2.17,1.52-4.85,1.66-7.27,2.61-2.76,1.08-5.52,1.73-8.35,2.57a2.6,2.6,0,0,0-1.13,4.3c1.14,1.23,3.16,2.83,3.66,4.46,0,.94.33,1.29.86,1a13.09,13.09,0,0,1-3.57,1.51l1.36,5c4.47-1.49,8.67-3.63,13.08-5.25,2-.75,4.12-1.19,6.17-1.84,1.77-.55,3.41-1.72,5.22-2s2.18-2.44,1.53-3.78c-2.29-4.78-5.18-5.23-9.9-3.79-3.68,1.13-10.71-.1-13.51,3.14-2.19,2.54,0,5.59,2.78,6.12,5.09,1,11.92-2.28,16.63-3.81a2.62,2.62,0,0,0,1.54-3.78L163,99.48a2.6,2.6,0,0,0-3.87-2.22c-3.53,2.23-7.13,4.34-10.82,6.3-3.1,1.64-6.52,2.94-9.28,5.14-2.12,1.68-8.48,8.71-1.87,9.24l-.68-5a45.56,45.56,0,0,1-6.25,1.92c-3.22.75-1.86,5.7,1.37,5a47,47,0,0,0,6.25-1.92,2.59,2.59,0,0,0-.69-5l-.29,0,2.21,1.27-.16-.29v2.59c2-4,6.91-5.72,10.6-7.63,4.17-2.16,8.23-4.52,12.2-7l-3.86-2.22a12.48,12.48,0,0,0,1.16,4.77l1.54-3.78c-2.63.86-5.27,1.67-7.93,2.4-1.16.32-2.91.39-3.88,1-.81,0-1.2.46-1.18,1.41-.94,1.37-.66,1.68.82.94,3.33.22,11.48-3.23,13.1.13l1.53-3.77a22,22,0,0,0-4.25,1.66c-2.31.91-4.8,1.34-7.13,2.2-4.42,1.63-8.62,3.76-13.08,5.25-3.12,1-1.86,5.8,1.36,5,2.57-.67,7.47-2.06,7.59-5.3.15-3.79-3.93-7.78-6.27-10.3l-1.13,4.3a76.37,76.37,0,0,0,8.39-2.52c2.83-1.19,5.88-1.38,8.45-3.18l-3.11-.4a3.12,3.12,0,0,0,2.76,1.13l-2.48-1.88.26,1.19c.71,3.22,5.67,1.86,5-1.37Z"/><path class="cls-2" d="M175.44,90.82h0L173.67,94a76.08,76.08,0,0,0,7.26-2.39c2.33-.8,4.85-1.12,6.59-3h-3.63a65.79,65.79,0,0,1,7.9,7.21l1.14-4.3c-3.79,1.53-7.55,3.19-11.39,4.58a22.73,22.73,0,0,1-2.79.79c0-.27,1.82-.94,2.09-1.07,1.16-.56,5.13-3,6.48-2.67l-1.8-1.79c.14.36-6.24,3.35-6.66,3.56-2.94,1.5-.35,5.94,2.6,4.44s12.45-4.89,8.76-10c-1.4-1.94-3.64-1.65-5.59-.87-2.73,1.09-6.07,2.23-8.48,3.95-3.67,2.61-1.49,7.4,2.2,8.92,2.19.9,3.78,0,5.89-.86l10-4a2.61,2.61,0,0,0,1.14-4.29A65.21,65.21,0,0,0,187.52,85a2.63,2.63,0,0,0-3.63,0c-1.24,1.3-5,1.79-6.63,2.31s-3.19,1.31-5,1.72a2.58,2.58,0,0,0-1.79,3.16,5.27,5.27,0,0,0,2.34,3.07c2.7,1.92,5.27-2.53,2.59-4.44Z"/><path class="cls-2" d="M204.7,83.43l.7-.67-4-.52a15.26,15.26,0,0,1,1.77,3.63c.48,1.85-.37,2.19-1.88,2.74-2.15.79-4,2.31-6.41,2.46-3.28.2-3.3,5.34,0,5.14a15.64,15.64,0,0,0,6.29-1.86c1.66-.87,3.69-1.16,5.1-2.47,3.87-3.58,1.84-8.39-.43-12.23a2.59,2.59,0,0,0-4-.52l-.71.67c-2.4,2.28,1.24,5.91,3.64,3.63Z"/><path class="cls-2" d="M53.85,133.4l-.05.53c-.25,2.91,4.33,3.44,5.05.68a9.2,9.2,0,0,0-.2-5.75c-.86-2.34-4.1-5.58-.88-7.53a5.65,5.65,0,0,1,4.07-.31c1,.48.48.54,1.33,1.25.14.12,1.56,1.51,1.61,1.23-.17.87-5.47,2.52-6,2.53a2.6,2.6,0,0,0-2.57,2.57,33.75,33.75,0,0,1-.6,7.3c-.48,2.41,2.39,4.44,4.29,2.51s3.93-3.9,6-5.74c1.8-1.58,3.75-2.84,4.82-5l-4.7-.61a128.52,128.52,0,0,0,5.82,13l1.53-3.77a37.55,37.55,0,0,0-5.28,1.65c-.93.36-3.92,2.15-4.8,1.69-.41.68-.14.53.82-.46A23.37,23.37,0,0,0,66,137.37c.77-.8,1.87-2.82,2.92-3.28H66.33c1.45.81-3.9,3.35-4.55,3.84-2.61,2-.05,6.43,2.6,4.44,3.05-2.3,9.78-4.52,7.55-9.72-.66-1.55-2.52-3.35-4.3-3.34-2.31,0-3.5,2.52-4.83,4-2.78,3-7.9,6-3,10,4.5,3.73,10.29-1,15-2.09a2.6,2.6,0,0,0,1.54-3.77A114.52,114.52,0,0,1,71,125.66c-.7-1.88-3.64-2.77-4.7-.61s-3.53,3.53-5.14,5-3.29,3.1-4.88,4.72l4.29,2.5a40,40,0,0,0,.79-8.67l-2.57,2.57c4.07-.06,10.11-3,10.39-7.71.13-2.06-.73-3-1.91-4.45-.91-1.12.66.73-.36-.6a5.39,5.39,0,0,0-1.64-1.72c-3.59-2.14-10.35-1.07-12.89,2.28a7.33,7.33,0,0,0-1.29,5.93c.62,2.93,3.6,5.21,2.79,8.34l5,.69,0-.53c.29-3.3-4.85-3.28-5.13,0Z"/><path class="cls-2" d="M91.57,115.25c-2-.55-3.83-2.94-1.64-4.58,2-1.51,4.66.22,5.73,2a24.09,24.09,0,0,1,.77,3,21.29,21.29,0,0,1,1.4,3.8l4.3-2.5c-1.76-2.12-3.19-4.47-6.2-3.56s-4.42,3.87-7,5.34a2.64,2.64,0,0,0-.93,3.51c2.54,5.74,9.47-.12,13-1l-2.9-3.77c-1.86,2.71-7.13,3.58-7.18,7.38a2.6,2.6,0,0,0,3.86,2.22c2.94-1.61,5.47-3.92,8.83-4.58l-2.9-1.18.21.46.4-3.11c-2.63,2.53-14.51,8.56-10.51,14,1.7,2.29,4.54.91,6.59.05,3.26-1.38,6.12-3,9.51-3.84a2.58,2.58,0,0,0,1.8-1.79,4.34,4.34,0,0,0-4.92-5.25c-3.24.4-3.28,5.54,0,5.14l0-1.26,1.8-1.8a38.76,38.76,0,0,0-10.76,4.36l-1.25.5,2.78.28a21.89,21.89,0,0,0,3.25-2.27,43.24,43.24,0,0,0,5.38-4.45,2.65,2.65,0,0,0,.4-3.11l-.21-.47a2.6,2.6,0,0,0-2.9-1.18c-3.84.76-6.7,3.26-10,5.1l3.87,2.22c0,1.21,3.51-1.8,4-2.16a10.46,10.46,0,0,0,2.51-2.63c1.33-1.95-.87-4.25-2.91-3.77-.89.21-7.49,2.68-7.21,3.32l-.92,3.51a14.48,14.48,0,0,0,2.91-2.32c2-1.87,2.18-2.56,4.09-.26,1.78,2.14,4.75-.23,4.3-2.5-.49-2.46-1.71-4.6-2.21-7.06a7.27,7.27,0,0,0-2.18-4.35c-2.75-2.49-6.74-2.24-10-.9-7.35,3.07-5.4,12.52,1.77,14.44,3.2.85,4.57-4.1,1.37-5Z"/><path class="cls-2" d="M133.69,109.85a3.53,3.53,0,0,1-3.11,1.44l2.57,2.57c-.34.72-.28.71.19,0a5.09,5.09,0,0,1,1.12-1.28,8.67,8.67,0,0,1,2.9-1.56,13.32,13.32,0,0,0,4.53-2.31c2.24-1.88-.67-5.6-3.11-4,.8-.51-2.48-6.4-2.88-7a9.33,9.33,0,0,0-8.33-4.65c-3.1,0-6.89,1-8.28,4-1.53,3.32.37,7.11,2.59,9.64,2,2.31,5.58,5,8.87,4.32,2.52-.56,4.46-3.6,4.19-6.13-.29-2.74-2.89-3.5-5.14-2.4-3.39,1.66-4.27,5.37-4.1,8.84a2.61,2.61,0,0,0,3.25,2.48,34.64,34.64,0,0,0,4.45-1.26c3.1-1.09,1.76-6.06-1.37-5a36.33,36.33,0,0,1-4.45,1.26l3.25,2.47c0-.9-.27-4.26,1.27-4.25l-2.21-1.28c-.38-.54-1-.16-1.58-.39a7.25,7.25,0,0,1-2.06-1.55c-1.25-1.24-3.44-4.06-1.16-5.27a5.31,5.31,0,0,1,6,1.22c.93,1.08.94,2.37,1.54,3.57a9.25,9.25,0,0,1,.81,1.84,7.06,7.06,0,0,0,1.6,3.15,4.82,4.82,0,0,0,6.31.84l-3.11-4c-2.13,1.78-5.25,1.84-7.43,3.86-1.3,1.2-3,3-2.81,5a2.61,2.61,0,0,0,2.56,2.57,9.35,9.35,0,0,0,6.74-3c2.32-2.36-1.31-6-3.63-3.63Z"/><path class="cls-2" d="M164.26,96.7A3.17,3.17,0,0,0,163,93.56a7.43,7.43,0,0,0-1.48-.71c-.95-.46-.6-.15-.32.2a14.89,14.89,0,0,1-2.31-4.2c-.52-2.11,2-3.07,3.83-2.43,1.31.47,1.53.76,1.9,2.12.33,1.16.29,2.2,1.06,3.22,1.07,1.4,2.36,2.31,3.36,3.86,1.73,2.69,4.9,4.87,7.57,6.62V97.8c-3.91,1.72-8.1,2.4-11.8,4.63l3.52,3.51c1.24-2.83,3.44-4.25,6.11-5.6l-2.6-4.44c-1.07.62-2.4,1.68-3.64,1.81.19,0-4.12,1.47-2.41-1.27l4-.52c-1.93-2.09-2.44-3.69-5.47-4.27l.62,4.69a5,5,0,0,1,2-1.11c3.11-1,1.78-6-1.37-5a11.15,11.15,0,0,0-3.21,1.62c-1.58,1.18-1.78,4.24.62,4.7,1,.2,2.42,2.11,3.19,3a2.6,2.6,0,0,0,4-.52c3.45-5.54-5.29-9.25-7.93-3.51-1.07,2.34-.53,6.16,1.86,7.57,3,1.74,7.74-1.29,10.28-2.76,2.88-1.67.34-5.92-2.6-4.44-3.41,1.73-6.38,3.85-7.95,7.45-1,2.19,1.11,5,3.52,3.52,3.64-2.2,7.92-2.93,11.79-4.63,1.89-.83,1.45-3.49,0-4.44A23.63,23.63,0,0,1,172.9,92c-1.23-1.78-2.75-3-3.25-5-1.09-4.25-4.93-6.25-9.29-5.94s-8,4-6.8,8.44a24.68,24.68,0,0,0,3.36,6.54,5.39,5.39,0,0,0,1.71,1.55,2.57,2.57,0,0,0,1.3.36c1.19.09.93-.34-.81-1.29-.24,3.3,4.9,3.28,5.14,0Z"/><path class="cls-2" d="M188.75,78.62c-2.1-2.57,4.16-2.26,4.18-2.24,1.24.61,1.75,2.08,2.34,3.2a6.41,6.41,0,0,0,2.57,3L196.66,81a9.6,9.6,0,0,0,1.47,3.37c.4.54,1.09,1,1,1.69-.14,1.49-2.77,1.93-3.66,1.31-.51-.35-.83-1.59-1.29-2.09s-1.33-1.06-1.89-1.73c-1.06-1.3-2.06-2.47-3.18-3.73L188,84.14c4.19-1.66,6.12,2.64,8.58,5.2,1.67,1.74,5.29,0,4.29-2.5s-2-4.61-3.11-6.84c-1.51-2.94-6-.35-4.44,2.59.95,1.84,1.82,3.7,2.6,5.62l4.29-2.5c-3.88-4-7.17-9.07-13.58-6.53a2.62,2.62,0,0,0-1.13,4.3A58.12,58.12,0,0,1,191.07,90c1.65,2.52,3.85,3.58,6.92,2.8a9,9,0,0,0,6.24-5.5c1-3.17-1.23-4.22-2.45-6.67-1.94-3.93-4.52-9.68-10.14-9.68-6.16,0-10.77,6.11-6.52,11.31,2.09,2.57,5.71-1.09,3.63-3.63Z"/><path class="cls-10" d="M54.05,124.22a3,3,0,0,0,.52,1.17,4.32,4.32,0,0,0,2,1.32c2.89,1.05,6.49.36,8.28-2.28,1.34-2-1.29-4.07-2.74-4.66a6.5,6.5,0,0,0-7,1.1A3.75,3.75,0,0,0,54.05,124.22Z"/><path d="M53.74,124.31c.89,2.77,4.24,3.52,6.86,3.08,2.08-.35,5.5-2.16,4.84-4.76C64,117,53,117.88,53.73,124.22c0,.41.69.41.64,0-.62-5.3,7.41-6,9.88-2.43,2.85,4.19-8.15,7.75-9.89,2.35C54.23,123.74,53.61,123.91,53.74,124.31Z"/><path class="cls-10" d="M86.58,113.1a3.7,3.7,0,0,0,.53,1.4,4.34,4.34,0,0,0,2,1.6,6.42,6.42,0,0,0,8.29-2.72c1.33-2.36-1.3-4.89-2.76-5.6a5.67,5.67,0,0,0-7,1.31A5.11,5.11,0,0,0,86.58,113.1Z"/><path d="M86.27,113.19c.84,3.09,4.25,4.35,7.21,3.59,2.46-.63,5.31-3.14,4.38-5.91-2.14-6.33-12.36-4.75-11.6,2.23,0,.41.69.42.64,0-.62-5.67,6.7-7.51,9.72-3.16,3.62,5.22-8,9.67-9.73,3.08A.32.32,0,0,0,86.27,113.19Z"/><path class="cls-10" d="M120.54,101.42a3.74,3.74,0,0,0,.61,1.47,5.06,5.06,0,0,0,2.33,1.68,8.24,8.24,0,0,0,8.57-1.51,4.78,4.78,0,0,0,1.38-2c.7-2.27-1.61-4.39-3.49-5.22a7.14,7.14,0,0,0-8.2,1.39A5,5,0,0,0,120.54,101.42Z"/><path d="M120.23,101.5c2,6.7,15.8,3.94,13.4-2.56s-14.22-5-13.41,2.48c0,.41.68.41.64,0-.65-6,6.82-7.45,10.58-4.27,3.44,2.92.59,6.52-2.8,7.42-2.87.76-6.83,0-7.79-3.24C120.73,100.94,120.11,101.11,120.23,101.5Z"/><path class="cls-10" d="M154.94,89.78a3.85,3.85,0,0,0,.61,1.51A5.05,5.05,0,0,0,157.87,93a8,8,0,0,0,8.51-1.54,4.77,4.77,0,0,0,1.37-2.08c.7-2.32-1.6-4.5-3.46-5.35a7,7,0,0,0-8.16,1.42A5.24,5.24,0,0,0,154.94,89.78Z"/><path d="M154.63,89.87c2,6.85,15.72,4,13.33-2.62s-14.14-5-13.34,2.53c0,.41.69.41.64,0-.62-6,6.66-7.74,10.52-4.37,6.31,5.51-8.22,12.23-10.53,4.29A.32.32,0,0,0,154.63,89.87Z"/><path class="cls-10" d="M184.93,79.7a3.87,3.87,0,0,0,.61,1.5,5,5,0,0,0,2.3,1.72,7.92,7.92,0,0,0,8.46-1.53,4.93,4.93,0,0,0,1.36-2.09c.7-2.32-1.59-4.5-3.44-5.35a6.88,6.88,0,0,0-8.11,1.42A5.29,5.29,0,0,0,184.93,79.7Z"/><path d="M184.62,79.78c2,6.85,15.63,4,13.25-2.62s-14.05-5-13.26,2.54c0,.4.69.41.64,0-.63-6.06,6.9-7.83,10.69-4.19,5.73,5.5-8.44,11.92-10.7,4.1A.32.32,0,0,0,184.62,79.78Z"/><path d="M54.38,123.33a5.93,5.93,0,0,1,4.67-1.85c1.32,0,6.27,1,4.49,3.71-.23.35.33.67.55.32,1.47-2.27-1.15-4-3.11-4.44-2.4-.59-5.57-.12-7.16,1.94-.25.33.31.65.56.32Z"/><path d="M87,112.09c.53-2,4.37-3.1,6-2.65a5.13,5.13,0,0,1,3.57,4.68c0,.41.67.42.65,0-.11-2.36-1.89-5-4.34-5.49-2.1-.4-5.88,1.07-6.45,3.29a.32.32,0,0,0,.62.17Z"/><path d="M120.85,101.62c2.31-4.72,12.22-4.39,10.1,2.24-.13.39.49.56.62.17,2.3-7.19-8.58-8.24-11.27-2.73-.19.37.37.69.55.32Z"/><path d="M155.37,88.93c1.29-2.29,3.79-2.74,6.22-2.54,1.7.14,2.67.63,3.1,2.36a4.39,4.39,0,0,1-.28,3.48c-.23.34.32.66.55.32,1.24-1.81.66-5.69-1.59-6.52-2.92-1.08-7-.21-8.55,2.58a.32.32,0,0,0,.55.32Z"/><path d="M185.22,78.82c1.38-1.69,4-3.13,6.23-2.68s4.39,4.45,2.12,6.33c-.32.26.13.71.45.45,1.9-1.57,1.17-5.35-.67-6.69-2.69-2-6.72-.15-8.58,2.13-.26.32.19.78.45.46Z"/><path d="M67.47,136.46a2.75,2.75,0,0,0,.64-3.42,1.64,1.64,0,0,0-2.82-.17,2.6,2.6,0,0,0-.34,3,1.65,1.65,0,0,0,2.52.6c.34-.23,0-.79-.33-.56-1.44,1-2.25-1.09-1.64-2.21.45-.84,1.46-1.36,2.06-.32a2.11,2.11,0,0,1-.42,2.53C66.82,136.15,67.14,136.71,67.47,136.46Z"/><path d="M97.05,122.9a3.23,3.23,0,0,1,.54-.77h-.45A26.3,26.3,0,0,1,99,124.69c.22.35.77,0,.55-.32a26,26,0,0,0-2-2.7.33.33,0,0,0-.45,0,4.38,4.38,0,0,0-.65.9c-.18.37.37.7.56.33Z"/><path d="M132.73,110.21c.33-.28,1-.93,1.36-.32a2.74,2.74,0,0,1,0,1,14.09,14.09,0,0,1-.24,2.43c0,.25.22.54.47.36a9.19,9.19,0,0,1,1.9-1c.38-.15.22-.78-.17-.62a9.86,9.86,0,0,0-2.05,1.1l.47.36a14.72,14.72,0,0,0,.25-2.29,4.14,4.14,0,0,0-.13-1.79c-.49-1-1.79-.06-2.34.39-.32.27.14.72.45.46Z"/><path d="M164.74,99c0-.25.37-1.14.77-1.13.23,0,.31.53.3.69a1.59,1.59,0,0,1-.34.86c-.2.28.18.58.44.44l.42-.22.21-.12c.16-.17.27-.15.33.08.53.57-.25,1.24-.82,1.22a.32.32,0,0,0,0,.64,1.49,1.49,0,0,0,1.58-1.75c-.06-.35-.31-.86-.7-.95s-1,.36-1.35.55l.44.44c.44-.62.76-2-.11-2.48s-1.65.87-1.79,1.56c-.08.4.54.57.62.17Z"/><path d="M168.18,97.93a12.65,12.65,0,0,1,2.35,1.63.33.33,0,0,0,.54-.15,4.61,4.61,0,0,0,0-1.53l0-1.93c0-.41-.66-.42-.65,0l0,1.67a5.17,5.17,0,0,1,0,1.62l.53-.14a13.38,13.38,0,0,0-2.48-1.72c-.36-.2-.69.36-.32.55Z"/><path d="M194.92,88.14c-1-.1-2.35.07-2.48,1.36a2.11,2.11,0,0,0,1.69,2.38c1.14.14,1.7-.84,1.84-1.82.2-1.37-1.58-.4-2.09,0-.33.26.13.71.45.46s.93-.68,1.18-.55l-.16-.27a1.78,1.78,0,0,1-.44,1.34,1.06,1.06,0,0,1-1.58-.39,1.42,1.42,0,0,1,0-1.59c.41-.43,1.11-.33,1.63-.28s.41-.6,0-.64Z"/><path d="M198.12,90.17c-.36-.7-.72-1.4-1.09-2.08l-.37.47a8.68,8.68,0,0,1,3.1,1.43c.25.17.52-.1.47-.36a3.09,3.09,0,0,0-.69-1.22,8.74,8.74,0,0,1-.88-1.54c-.18-.37-.73-.05-.56.32a8.6,8.6,0,0,0,.76,1.36,3.57,3.57,0,0,1,.75,1.25l.47-.36a9.13,9.13,0,0,0-3.24-1.5.33.33,0,0,0-.37.47c.38.69.74,1.38,1.09,2.08.19.37.74.05.56-.32Z"/><path d="M200.05,86.81a7.73,7.73,0,0,1,1.25,1.54c.22.34.45,1,.9,1,.85.15,1.63-.95,1.75-1.66a2.15,2.15,0,0,0-1.07-2.16,2.35,2.35,0,0,0-2.72.37c-.31.27.14.72.45.45a1.67,1.67,0,0,1,2.14-.13,1.44,1.44,0,0,1,.35,1.91c-.18.28-.59.69-.91.4a4.57,4.57,0,0,1-.52-.82,9.61,9.61,0,0,0-1.16-1.39.33.33,0,0,0-.46.46Z"/><path d="M62.39,145c-2.86-3.8-4.64-8.12-6.74-12.36-1-2-2.24-3.84-3.39-5.77-2.64-4.44-.53-8.83,4.55-10.35,3.86-1.15,8.67-.63,10.91,3.1,1.24,2.08,1.13,4.33,1.78,6.56,1.37,4.75,4.3,9.43,6.16,14,.15.38.77.22.62-.17-1.38-3.4-2.79-6.78-4.37-10.09-1.5-3.14-1.7-6.44-3.08-9.54-2.28-5.12-7.94-6-12.88-4.25-3.87,1.39-7.35,5.53-5.24,9.69,1.54,3.06,3.76,5.79,5.26,9a60.94,60.94,0,0,0,5.86,10.54c.25.33.81,0,.56-.33Z"/><path d="M94.35,133.17c-2.17-4.45-4.15-9.06-6.54-13.39-1.29-2.35-4.42-5.12-4.07-7.87.57-4.5,4.39-6.2,8.38-6.66,4.82-.57,7.5,1.9,8.27,6.58a9.18,9.18,0,0,0,.62,2.31c1.95,4.71,5,9.22,7.4,13.7.2.37.75,0,.56-.32-2.13-3.94-4.49-7.82-6.41-11.86-1.15-2.39-1.11-4.91-2.19-7.22-2.19-4.72-7.29-4.4-11.54-3.16-3.8,1.11-6.48,4.17-5.59,8.34.63,2.94,3.35,5.21,4.71,7.87,2,4,3.9,8,5.85,12,.18.38.73,0,.55-.32Z"/><path d="M130.25,119.76a65.84,65.84,0,0,0-6.25-11c-1.25-1.89-3.18-3.78-4.18-5.79-2.58-5.19.78-9.69,6.25-9.65,2.61,0,7,.52,8.54,2.88,1,1.62,1.63,3.65,2.6,5.35,2.42,4.28,5.36,8.23,7.61,12.61.19.37.75,0,.56-.32-1.72-3.34-3.81-6.43-5.81-9.61-1.65-2.65-2.7-5.81-4.4-8.36-2.27-3.38-8.95-3.86-12.55-2.76a6.55,6.55,0,0,0-4.22,8.31c.79,2.8,3.45,5.25,5,7.66a65.29,65.29,0,0,1,6.19,10.83c.15.38.77.21.62-.17Z"/><path d="M165.41,107.25c-3.29-3.6-5.44-7.92-8.14-11.94-1-1.4-2.37-2.79-3.08-4.31-2-4.32.57-8.65,5.36-9.4,3.28-.52,8.22.48,9.57,4,.6,1.56.63,2.49,1.65,4,2.79,4.22,5.81,8.35,8.81,12.42.25.33.8,0,.56-.32-2.43-3.29-4.69-6.69-7.06-10-1.23-1.72-2.63-3.24-3.21-5.31-.35-1.21-.17-1.85-1-2.86-2.66-3.2-9.24-3.54-12.56-1.48-4,2.45-4.7,6.06-2.38,9.77,3.31,5.31,6.81,11.28,11.05,15.9.28.31.73-.15.45-.45Z"/><path d="M208.44,88.85c-2.26-3.12-4.47-6.27-6.6-9.48-1.53-2.29-3-5.63-5.34-7.28-3-2.09-7.85-1.66-10.69.53a7.27,7.27,0,0,0-2.44,8.51c1.19,2.67,4.11,4.66,5.82,7a86.57,86.57,0,0,1,5.18,8.3c.2.36.76,0,.55-.33a77.61,77.61,0,0,0-6-9.4C186,83,180.78,78.88,185.26,74a9.13,9.13,0,0,1,9-2.23c3.18,1,4.49,4,6.16,6.58q3.63,5.52,7.51,10.85c.24.33.8,0,.56-.32Z"/><path class="cls-2" d="M70,123.91a3.14,3.14,0,0,1,.79-.51,4.63,4.63,0,0,1,2-.63,1.5,1.5,0,0,1,.75.17.94.94,0,0,1,.47.6,1.63,1.63,0,0,0,.12.59"/><path d="M70.19,124.14a5.14,5.14,0,0,1,1.88-1,1.74,1.74,0,0,1,1.29,0c.38.26.31.64.44,1s.76.22.62-.17-.11-.87-.51-1.23a1.8,1.8,0,0,0-1.14-.38,5.12,5.12,0,0,0-3,1.24c-.32.28.14.73.45.46Z"/><path class="cls-2" d="M73.55,122.88a.27.27,0,0,1,.13-.15,5.35,5.35,0,0,1,2.14-1.14,2,2,0,0,1,2.12.85"/><path d="M73.78,123.11c.84-1,3-1.91,3.88-.51.22.35.78,0,.56-.33-1.12-1.76-3.77-1-4.9.39-.26.31.19.77.46.45Z"/><path class="cls-2" d="M77.08,121.53a11,11,0,0,1,1.51-1.31,3.54,3.54,0,0,1,1.87-.65,2.69,2.69,0,0,1,2.2,1.09"/><path d="M77.31,121.76c1.41-1.39,3.49-2.85,5.13-.88.26.32.71-.13.45-.45-1.88-2.26-4.37-.75-6,.88-.29.29.16.74.46.45Z"/><path class="cls-2" d="M171.05,89.59a3,3,0,0,1,1.71-.93,5.78,5.78,0,0,1,1.47-.28,2,2,0,0,1,1.39.46"/><path d="M171.28,89.82c.79-.94,3.09-1.55,4.11-.75.33.25.79-.2.46-.46a2.82,2.82,0,0,0-2.44-.45,4.36,4.36,0,0,0-2.58,1.21c-.27.31.18.77.45.45Z"/><path class="cls-2" d="M175.22,88.36a5.87,5.87,0,0,1,2.49-1.28,3.29,3.29,0,0,1,1.62,0"/><path d="M175.45,88.59a4.65,4.65,0,0,1,3.8-1.22c.4.08.58-.53.17-.62A5.35,5.35,0,0,0,175,88.14c-.32.26.14.72.46.45Z"/><path class="cls-2" d="M179.16,86.91a22.06,22.06,0,0,1,2.05-1.06,3.44,3.44,0,0,1,.94-.3,1.21,1.21,0,0,1,.94.24"/><path d="M179.32,87.18c.89-.5,2.61-1.76,3.61-1.11.34.22.67-.33.32-.56-1.31-.85-3.12.47-4.25,1.12a.32.32,0,0,0,.32.55Z"/><path class="cls-2" d="M183,85.79a2.13,2.13,0,0,1,1-1.12,3.58,3.58,0,0,1,1.94-.31"/><path d="M183.34,85.88c.45-1.09,1.56-1.24,2.6-1.2.42,0,.42-.62,0-.64-1.38-.06-2.65.3-3.22,1.67-.16.38.46.54.62.17Z"/><path class="cls-2" d="M201.59,79.39a1.29,1.29,0,0,1,.8-.76,3.49,3.49,0,0,1,1.89-.24"/><path d="M201.9,79.47c.3-.81,1.68-.84,2.38-.76.41,0,.4-.6,0-.65-1.05-.12-2.58.11-3,1.24-.15.39.47.56.62.17Z"/><path d="M175.32,89.07c2.45,3.87,5.18,7.57,7.79,11.33.23.34.79,0,.55-.32-2.6-3.76-5.33-7.47-7.78-11.33-.22-.35-.78,0-.56.32Z"/><path d="M179.12,87.45q4,5.63,7.56,11.61a.33.33,0,0,0,.56-.33q-3.51-6-7.56-11.6c-.24-.33-.8,0-.56.32Z"/><path d="M182.9,86.14q3.73,5.83,7,11.94c.2.37.75,0,.56-.32q-3.25-6.11-7-11.94c-.22-.35-.78,0-.56.32Z"/><path class="cls-2" d="M137.45,101a3.39,3.39,0,0,0,1.33-.75,2.27,2.27,0,0,1,1.39-.58,1.64,1.64,0,0,1,1,.51,4.9,4.9,0,0,1,.69,1"/><path d="M137.54,101.27a6,6,0,0,0,1.61-.93c1.16-.75,1.85-.09,2.48.92.21.35.77,0,.55-.33-.46-.74-1-1.58-2-1.62s-1.8,1.06-2.8,1.34a.32.32,0,0,0,.17.62Z"/><path class="cls-2" d="M141,99.7a5.17,5.17,0,0,0,.51-.18,7,7,0,0,1,2.34-.84,2.11,2.11,0,0,1,1.8,1"/><path d="M141.09,100c1.4-.48,3.13-1.83,4.28-.16.23.34.79,0,.55-.32A2.43,2.43,0,0,0,144,98.37c-1.09-.05-2.07.68-3.06,1-.39.13-.22.75.17.61Z"/><path class="cls-2" d="M144.94,98.57a6.38,6.38,0,0,0,.9-.38,9.43,9.43,0,0,1,1.26-.74,3,3,0,0,1,1-.13,1.56,1.56,0,0,1,.68.09,1.79,1.79,0,0,1,.82,1.1"/><path d="M145,98.88c1.31-.47,3.37-2.35,4.22-.29.16.38.78.21.62-.17-.31-.76-.69-1.36-1.58-1.42-1.38-.1-2.21.82-3.43,1.26-.38.14-.22.76.17.62Z"/><path class="cls-2" d="M148.74,97.38c0-.1.1-.18.19-.23a7.47,7.47,0,0,1,2.79-1,2.21,2.21,0,0,1,1.17.07,1,1,0,0,1,.69.88"/><path d="M149.05,97.47c.18-.42,1.35-.66,1.79-.78.72-.19,2.25-.58,2.43.53.07.41.69.24.62-.17-.18-1.12-1.31-1.29-2.26-1.17s-2.82.49-3.2,1.42c-.15.38.47.55.62.17Z"/><path class="cls-2" d="M153,96.16a1.69,1.69,0,0,1,.67-.68,6,6,0,0,1,2.41-.67"/><path d="M153.27,96.32c.56-.92,1.85-1.06,2.81-1.19.41,0,.41-.7,0-.64-1.21.16-2.67.36-3.36,1.5a.32.32,0,0,0,.55.33Z"/><path d="M141.63,101.26c2.32,4,5.34,7.43,7.09,11.79.15.38.78.21.62-.17-1.77-4.41-4.81-7.88-7.16-11.95a.32.32,0,0,0-.55.33Z"/><path d="M145.42,99.91c3.52,3.11,5.19,7.77,7.17,11.91.18.37.73.05.55-.32-2-4.21-3.69-8.89-7.27-12-.3-.27-.76.18-.45.45Z"/><path d="M149.27,98.67c2.46,3.78,5.57,7.1,7.1,11.41.14.39.76.22.62-.17-1.55-4.37-4.67-7.73-7.16-11.57-.23-.34-.78,0-.56.33Z"/><path d="M153.31,97.3c2.37,4,5.83,7.11,7.16,11.65a.32.32,0,0,0,.62-.17c-1.35-4.62-4.82-7.79-7.23-11.8-.21-.36-.77,0-.55.32Z"/><path class="cls-2" d="M101.53,113l2-.75a2.66,2.66,0,0,1,.61-.18,1.71,1.71,0,0,1,1.31.47,4.82,4.82,0,0,1,.9,1.11"/><path d="M101.62,113.31a20.41,20.41,0,0,1,2.09-.8c1.16-.32,1.74.45,2.32,1.3.23.34.78,0,.55-.32a3.4,3.4,0,0,0-2-1.71c-1-.2-2.23.55-3.15.91-.39.14-.22.77.17.62Z"/><path class="cls-2" d="M105.42,112.27a4.63,4.63,0,0,1,3.22-1.8,1.82,1.82,0,0,1,.77,0,2.64,2.64,0,0,1,1.38,1.39"/><path d="M105.64,112.5a4.53,4.53,0,0,1,2.15-1.53,2.81,2.81,0,0,1,1.54-.14,2.44,2.44,0,0,1,1.18,1.25.32.32,0,0,0,.55-.33c-.65-1.11-1.37-1.77-2.74-1.56a5,5,0,0,0-3.13,1.86c-.26.31.19.77.45.45Z"/><path class="cls-2" d="M109.86,110.49a4.17,4.17,0,0,1,1.22-1,4.32,4.32,0,0,1,1.79-.28,2.32,2.32,0,0,1,.64.06,1.77,1.77,0,0,1,.61.41,7.38,7.38,0,0,1,.76.82"/><path d="M110.09,110.71a3.07,3.07,0,0,1,2.47-1.21,2.44,2.44,0,0,1,2.1,1.19c.26.32.71-.14.45-.45a2.88,2.88,0,0,0-2.55-1.39,3.78,3.78,0,0,0-2.93,1.41c-.28.3.18.76.46.45Z"/><path class="cls-2" d="M113.69,109.2a5.79,5.79,0,0,1,3.11-1.4,1.67,1.67,0,0,1,.86.06,1.8,1.8,0,0,1,.64.46,6.16,6.16,0,0,1,1,1.3"/><path d="M113.92,109.43a5.58,5.58,0,0,1,2.63-1.27c1.24-.22,1.85.64,2.43,1.62a.33.33,0,0,0,.56-.33c-.54-.91-1.27-2-2.45-2a6,6,0,0,0-3.63,1.52c-.31.27.14.72.46.46Z"/><path class="cls-2" d="M118,107.84a1.74,1.74,0,0,1,.83-.65,5.89,5.89,0,0,1,2.86-.69"/><path d="M118.26,108c.63-.9,2.4-1.2,3.41-1.18a.32.32,0,0,0,0-.64c-1.29,0-3.18.38-4,1.5-.24.34.32.66.56.32Z"/><path d="M106,113.81c1.16,1.94,2.67,3.63,3.82,5.58a47.42,47.42,0,0,1,3,6.55c.15.38.78.21.62-.17a56.59,56.59,0,0,0-2.69-6c-1.22-2.23-2.93-4.11-4.23-6.28-.21-.36-.77,0-.55.32Z"/><path d="M110.51,112.08c2.35,4.1,4,8.56,6.24,12.69a.32.32,0,0,0,.56-.32c-2.29-4.14-3.9-8.6-6.25-12.7-.2-.36-.76,0-.55.33Z"/><path d="M114.61,110.62c2.36,4.17,4.48,8.46,6.42,12.84.17.38.72.05.55-.32a142.32,142.32,0,0,0-6.42-12.84.32.32,0,0,0-.55.32Z"/><path d="M119,109.78c2,4,4.45,7.9,5.71,12.16a.32.32,0,0,0,.62-.17c-1.28-4.33-3.78-8.29-5.77-12.32-.18-.37-.74,0-.56.33Z"/><path class="cls-2" d="M81.86,120c0-.16.2-.25.35-.31a13.07,13.07,0,0,1,2-.75,4.49,4.49,0,0,1,2.09-.12"/><path d="M82.13,120.11c.34-.47,1.31-.66,1.85-.83a4.71,4.71,0,0,1,2.2-.2c.41.07.58-.55.18-.62a5.58,5.58,0,0,0-2.69.25,4,4,0,0,0-2.09,1.08c-.24.34.32.66.55.32Z"/><path d="M73.8,124.22a64.37,64.37,0,0,0,2.72,5.91C77.87,133,78.81,136,80,138.82c.16.38.71.05.55-.33-1.09-2.55-2-5.2-3.08-7.74-1-2.26-2.24-4.36-3.09-6.7-.14-.39-.77-.22-.62.17Z"/><path d="M77.63,122.52c1,2.52,1.93,5.1,3,7.6s2.49,4.53,3.41,7c.14.39.76.22.62-.17-.87-2.36-2.17-4.43-3.23-6.69-1.19-2.57-2.09-5.31-3.16-7.93-.16-.38-.78-.21-.62.17Z"/><path d="M82.39,120.82c1.26,2.52,2.4,5.07,3.47,7.68.94,2.29,2.27,4.38,3.2,6.66.15.38.77.21.62-.17-1.05-2.58-2.5-4.94-3.55-7.53-1-2.38-2-4.68-3.19-7-.18-.37-.74,0-.55.32Z"/><path class="cls-2" d="M53,129.69a3.45,3.45,0,0,0-2.9.68,3.4,3.4,0,0,0-1.21,2.71"/><path d="M53.07,129.38a3.72,3.72,0,0,0-4.51,3.7.32.32,0,0,0,.64,0A3.08,3.08,0,0,1,52.9,130c.41.08.58-.54.17-.62Z"/><path class="cls-4" d="M39.82,37.5q-3.37,5.8-7.17,11.36c-.45.64-.89,1.29-1.28,2s-.82,1.67-1.23,2.49c-.57,1.12-1.24,2.19-1.9,3.25L26.71,59c-2.43,3.86-3.43,6.25-6,10l-2,3.24L13.6,63a39.72,39.72,0,0,1-2-4.08c-.5-1.22-.89-2.5-1.46-3.69A18.17,18.17,0,0,1,8.8,52.44a6.41,6.41,0,0,1,1.41-5.67,11.63,11.63,0,0,1,5-3.29c1.91-.7,3.9-1.1,5.86-1.63s4-1.21,5.93-1.89c4.57-1.57,9.27-2.49,13.84-4.06a2.42,2.42,0,0,0,.34-.86c0-.11-.49-.08-.44,0Z"/><path class="cls-4" d="M39.26,37.17c-4,6.82-8.16,13.61-12.34,20.3-3,4.79-5.77,9.71-8.79,14.49h1.11c-2.6-4.75-5.47-9.43-7.53-14.45-1.26-3.09-3.13-6-1.64-9.41,1.4-3.21,6-4.27,9-5.06,5.07-1.33,10-3.12,15.06-4.49,2.28-.62,6.92-.67,7.71-3.34a.65.65,0,0,0-.45-.79c-1.51-.42-1.8,1.93-2.18,2.91-.3.77.94,1.1,1.24.34.16-.43.83-1.48.74-1.89-.2-.85-4.09.62-5.08.9-3.09.87-6.19,1.67-9.24,2.66-5,1.64-11.61,2.28-15.79,5.72-3.4,2.8-3.53,6-1.87,9.81,2.67,6.11,5.73,11.88,8.93,17.74a.65.65,0,0,0,1.11,0c3-4.78,5.79-9.7,8.79-14.49,4.18-6.7,8.35-13.48,12.34-20.3A.64.64,0,0,0,39.26,37.17Z"/><path class="cls-4" d="M91.72,19.24C87.14,20.63,82.54,22,78.1,23.81c-1.54.61-3.22,1-4.78,1.58-3.4,1.2-6.8,2.11-10.24,3.2-2,.65-4,1.45-6,2.18a97.39,97.39,0,0,1-14.21,4l.65.29a23.64,23.64,0,0,0,3,5.73c4.08,6.29,8,12.82,11.8,19.25A8.73,8.73,0,0,1,59,58.8c2-3.48,4.13-6.86,6.14-10.33,3.82-6.59,7.5-13.27,11.32-19.86L79.88,24a10.1,10.1,0,0,1,1.84,1.46,15.77,15.77,0,0,1,1,1.76,14,14,0,0,0,1.8,2.41l7.72,9a3.3,3.3,0,0,1,.63.91c.21.49-.07,1.14,0,1.66s.7,1,1,1.54l2.21,3.77.12.31A22.1,22.1,0,0,1,99.3,42c.18-.23.36-.46.52-.7s.26-.45.38-.68c1.1-2.15,2.2-4.3,3.44-6.37.4-.67.72-1.42,1.14-2.07l.37-.47c1.2-2.26,2.5-4.46,3.88-6.61.71-1.1,1.44-2.18,2.11-3.29s1.25-2.17,1.85-3.27,1.1-2,1.58-3.07c.4-.86.76-2.11,1.53-2.65l.73.62a8.11,8.11,0,0,1,2,2.16c.85,1.12,1.67,2.06,2.52,3.18l2.2,2.91a17.64,17.64,0,0,1,1.08,1.53l.5.46c1.85-2.89,3.45-6,5.1-9.06l.94-1.7a27.1,27.1,0,0,0,2.42-4.41l1.31-.65q3.78,4.71,7.43,9.51l.85,1.38q3.83-6.49,7.28-13.2l.77-1.24a2.33,2.33,0,0,0-1-1.09c-.77-.51-1.55-1-2.36-1.44a1.6,1.6,0,0,0-1-.29l-.56-.19L137.5,3.65c-1.23.33-2.46.66-3.68,1-1.59.49-3.16,1.07-4.73,1.63-2.49.9-5,1.75-7.5,2.61l-10.85,3.69-5.13,1.75L93.36,18.55Z"/><path class="cls-4" d="M91.55,18.62C83.64,21,76,24,68.05,26.41c-8.5,2.58-16.67,5.91-25.38,7.76a.64.64,0,0,0-.16,1.17c.91.41,1.56,2.73,2.06,3.58,1.36,2.38,3,4.64,4.41,7,3,4.79,5.87,9.65,8.77,14.49a.65.65,0,0,0,1.11,0c2.83-5.95,6.78-11.51,10-17.24,2.89-5.09,5.48-10.55,8.91-15.3.3-.41,2-3.37,2.54-3.37-.13,0,5.45,7.72,5.89,8.23,1.1,1.29,2.26,2.54,3.31,3.87a15.56,15.56,0,0,1,2.71,3.85,3.11,3.11,0,0,0,0,1c1,1.9,2.52,3.61,3.33,5.62.18.46.91.7,1.17.15,1.1-2.24,2.71-4.08,4-6.21s2.26-4.27,3.44-6.37c2.28-4,4.72-7.95,7.16-11.89,1.18-1.89,2.28-3.85,3.27-5.85,1.14-2.3.81-4.17,3-1.62,2.45,2.79,4.24,6.45,7,8.92a.65.65,0,0,0,1-.13c2.82-4.52,4.91-9.56,8-13.94,1-1.42.49-1.57,1.76-.57a21.34,21.34,0,0,1,2.8,3.55,70.29,70.29,0,0,1,4.44,6,.64.64,0,0,0,1.1,0c2.78-4.75,5.15-9.78,8.06-14.44a.66.66,0,0,0,0-.65,6.85,6.85,0,0,0-7.19-2.91A193.38,193.38,0,0,0,125.17,7c-11.18,3.87-22.88,7-33.77,11.67-.76.32-.11,1.43.65,1.11,12.26-5.22,25.44-8.67,38-13.14,3-1.06,6-2,9.07-2.77,3.28-.88,6.39-2.62,9.54-.82,1.44.83,1.57.74,1.4,1.88s-1.69,3.17-2.3,4.32q-2.5,4.65-5.17,9.2h1.1a113,113,0,0,0-8.38-11,.65.65,0,0,0-.78-.1c-1.89.94-2.18,2.27-3.27,4.13a93.31,93.31,0,0,0-5.19,9.38c-1,2.21-.6,2.41-2,.55-.77-1-1.53-2-2.31-3a37.11,37.11,0,0,0-5.21-6,.65.65,0,0,0-.91,0c-1.72,1.95-2.55,4.68-3.81,7-1.91,3.43-4.17,6.64-6.13,10.05-1.47,2.57-3,5.1-4.39,7.71-1.73,3.24-4,6.15-5.64,9.43l1.17.15c-.71-1.77-2.27-3.25-3-5s-.47-2.53-1.76-4.14c-2.3-2.87-4.89-5.5-7.18-8.37C83.18,27,82.5,25.08,80.2,23.48a.65.65,0,0,0-.88.23,121.48,121.48,0,0,0-8.71,13.8c-4.17,7.37-9.22,14.58-12.86,22.22h1.11c-3.17-5.31-6.33-10.63-9.63-15.86-1.4-2.22-3-4.39-4.19-6.73-.66-1.32-.57-2.33-1.88-2.91L43,35.4c8.71-1.84,16.88-5.17,25.38-7.75,7.9-2.4,15.59-5.39,23.5-7.79A.64.64,0,0,0,91.55,18.62Z"/><path d="M204.21,92.46l-100,36.86c-13.77,5.08-27.48,10.82-41.47,15.29-7.28,2.33-9.4-4-12-9.06L37.85,110.22,10.46,56.56c-1.6-3.12-3.27-6.23-.59-9.59,1.47-1.85,3.42-2.32,5.49-3l18.75-6.22L98.82,16.3c14.79-4.9,29.51-10.43,44.49-14.74,6.66-1.92,9.28,3.7,12.46,8.21l16.74,23.68L206.12,81c2.8,4,3.31,9-2.07,11.49-.75.34-.1,1.45.65,1.11a7.94,7.94,0,0,0,3.51-11.86c-1-1.67-2.29-3.24-3.42-4.84L187.26,52.12C175.89,36,164.78,19.7,153.13,3.8c-3.41-4.64-7.61-4.33-12.42-2.74l-21.39,7.1L50.92,30.83l-28,9.28c-3.84,1.28-9.06,2.1-12.45,4.47C4.11,49,8.58,55.7,11.14,60.71L25.2,88.26C34.25,106,43,124,52.38,141.51c2.79,5.21,7.34,5.59,12.3,3.76l19-7L201.79,94.72l2.76-1C205.32,93.42,205,92.18,204.21,92.46Z"/><path d="M19,73.81,35.91,46l4.31-7.11c.49-.8,1.39-3.18,2.24-3.68-.23.14-.56-.25-.1.52s1,1.62,1.49,2.44l5,8.24,9.12,15a.32.32,0,0,0,.55,0l20.06-34a18.93,18.93,0,0,1,1.34-2.26c.55-.68-.55-.61,0-.06,2,2,3.48,5,5.09,7.26L96.11,48.06a.33.33,0,0,0,.56,0l14.91-25.51,3.61-6.17a12,12,0,0,1,1-1.81c.55-.61,0-.3-.1-.32,1.46.48,3.62,4.48,4.6,5.69l4.17,5.17a.33.33,0,0,0,.51-.07c2.91-5.15,5.62-10.5,8.78-15.5.68-1.07-.24-.82.45-.16a33.07,33.07,0,0,1,2.9,3.64L143,19.91a.32.32,0,0,0,.5-.07q4.51-7.8,9-15.64c.21-.36-.35-.69-.55-.33-2.61,4.58-6.12,9.35-8.15,14.24,0,.07-.59,1.28-.75,1.3.59-.09.26-.3-.17-.72a39.77,39.77,0,0,1-3-3.81l-5.22-6.56a.33.33,0,0,0-.51.06c-2.92,5.15-5.62,10.5-8.78,15.5-.68,1.07.24.82-.46.18a37.28,37.28,0,0,1-2.9-3.59l-5.49-6.8a.32.32,0,0,0-.5.07L97.14,46c-.22.38-.59,1.43-1,1.67.53-.32.44.2-.12-.81-1.51-2.7-3.67-5.23-5.44-7.76L80.21,24.28a.32.32,0,0,0-.55,0L59.25,58.9c-.29.48-.69,1.64-1.16,2,.3-.21.4.37-.1-.73-1.35-3-3.55-5.83-5.26-8.63L42.53,34.77a.33.33,0,0,0-.56,0L18.48,73.48a.33.33,0,0,0,.56.33Z"/><rect class="cls-2" x="73.77" y="29.55" width="28.14" height="12.65" rx="4.96" ry="4.96" transform="translate(-6.55 26.2) rotate(-16.36)"/><path d="M98.19,38.75l-12,3.51c-1.59.47-3.56,1.44-5.22,1.54a6.68,6.68,0,0,1-5.86-3.42c-1.09-2.41-.69-5.69,1.9-7.21,3.44-2,8.58-2.57,12.38-3.69a38.41,38.41,0,0,1,5.34-1.57c5.89-.78,9.16,8.41,3.26,10.91-.76.32-.1,1.43.65,1.11,7.08-3,3.37-14.69-4.11-13.3-3.19.6-6.4,1.88-9.51,2.8-2.63.77-5.47,1.33-8,2.35-7.16,2.91-3.49,14.72,4,13.34C86.94,44,92.81,41.67,98.54,40A.64.64,0,0,0,98.19,38.75Z"/><path class="cls-1" d="M94.66,36.88l-4.81,1.58L84,40c-.82.23-3.19.21-3.8-.29a2.56,2.56,0,0,1-.84-1.29h0a3.93,3.93,0,0,1-.06-1.8c.26-.78,2.42-1.72,3.27-1.95L92.14,32c.85-.23,3.22-.71,3.84-.18.37.31,1.48,1.06,1.62,1.57h0a3.85,3.85,0,0,1-.5,2C96.81,36.1,95.43,36.67,94.66,36.88Z"/><path d="M94.58,36.57c-1.86.61-3.71,1.26-5.6,1.78-1.4.39-2.83.79-4.25,1.1-2.76.6-7.77-1.45-3.41-4,2.21-1.29,5.39-1.64,7.81-2.31,1-.28,2-.6,3-.84a9.26,9.26,0,0,1,2.43-.42c3.63.31,2.61,3.79,0,4.67-.39.13-.23.75.17.62,4.39-1.47,3.73-6.43-1.07-5.83a53.83,53.83,0,0,0-11.81,3.17c-4.59,1.76-3.12,6.4,1.59,5.85,3.79-.45,7.68-2,11.29-3.19C95.14,37.06,95,36.44,94.58,36.57Z"/><path class="cls-2" d="M82.22,35.87a2,2,0,0,0-.9.35,1.7,1.7,0,0,0-.29,2.1,2,2,0,0,0,1.67,1,1.92,1.92,0,0,0,1.71-.94,1.88,1.88,0,0,0-.15-2,2.17,2.17,0,0,0-1.92-.53Z"/><path d="M82.14,35.56a1.88,1.88,0,0,0-1.61,2.34,2.34,2.34,0,0,0,2.67,1.72,2.17,2.17,0,0,0,1.71-2.53c-.24-1.34-1.48-1.69-2.69-1.54-.4.05-.41.69,0,.64.71-.09,1.58-.09,1.94.65A1.52,1.52,0,0,1,83.23,39c-1.87.55-3.07-2.38-.92-2.77C82.71,36.1,82.54,35.48,82.14,35.56Z"/><path class="cls-2" d="M93.87,32.51a2,2,0,0,0-.9.35,1.7,1.7,0,0,0-.29,2.1,2.05,2.05,0,0,0,1.68,1,1.85,1.85,0,0,0,1.56-3A2.2,2.2,0,0,0,94,32.49Z"/><path d="M93.79,32.2a1.87,1.87,0,0,0-1.6,2.35,2.32,2.32,0,0,0,2.66,1.71,2.17,2.17,0,0,0,1.71-2.53c-.24-1.34-1.48-1.69-2.69-1.54-.4.05-.41.69,0,.64.72-.09,1.58-.09,1.94.65a1.51,1.51,0,0,1-.93,2.11c-1.87.56-3.07-2.38-.92-2.77C94.36,32.75,94.19,32.13,93.79,32.2Z"/><path class="cls-3" d="M175.88,48.58l-11.64,4.75c-1.62.67-4.46.07-5.12-1.56l-4.9-9.28c-.67-1.62,0-4.36,1.6-5l12.61-4.54a3.18,3.18,0,0,1,4.14,1.74l5.05,9.77A3.18,3.18,0,0,1,175.88,48.58Z"/><path d="M175.8,48.27C172.05,49.8,168.14,52,164.22,53c-4.09,1-5.21-2.12-6.7-4.94-1.38-2.62-4.52-6.52-2.3-9.33,1.45-1.83,4.43-2.3,6.6-3.08,1.83-.66,4.58-2.31,6.54-2.35,3.7-.09,4.55,2.73,5.89,5.33,1.21,2.33,5.22,7.38,1.47,9.67-.35.21,0,.77.32.55,4.76-2.9-.52-9.17-2.26-12.53-.81-1.57-1.48-3.4-3.39-3.85s-5,1.2-6.79,1.86c-3.65,1.31-11.17,2.22-9.8,7.8.52,2.16,2.14,4.3,3.17,6.25.87,1.66,1.61,4,3.33,5,2.43,1.38,5-.12,7.27-1l8.4-3.43C176.34,48.73,176.18,48.11,175.8,48.27Z"/><path class="cls-1" d="M170.19,40.69a2.76,2.76,0,0,1,0,1.73,2.3,2.3,0,0,1-1.33,1.19h0c-1.75.67-5.33.72-5.43-1.82a3.36,3.36,0,0,1,3.45-3.42C168.57,38.33,169.76,39,170.19,40.69Z"/><path d="M169.57,40.87c.36,1.8-1.06,2.36-2.52,2.47-1,.07-2.4,0-2.87-1-1.4-3,4.4-4.86,5.39-1.47a.64.64,0,0,0,1.24-.35c-1.41-4.82-9.51-2.65-7.89,2.12.62,1.84,2.88,2.14,4.55,1.94,2.3-.28,3.83-1.59,3.34-4.06C170.65,39.71,169.41,40.06,169.57,40.87Z"/><path class="cls-11" d="M0,174.1a49.38,49.38,0,0,0,2.55,12.19,1.52,1.52,0,0,0,2.2.9,12.83,12.83,0,0,0,3.38-3.47c.59-.82,1.13-1.67,1.68-2.51.24-.36,1.45-1.63.5-1.23l-1.46-.39c1.48,1.34,3.4,8.52,6.77,6.54,1.23-.72,1.88-2.91,2.38-4.14a39.09,39.09,0,0,0,1.78-8.09c.33-1.88-2.56-2.7-2.89-.79-.53,3-.67,6.9-2.46,9.54-.4.58.58.57,0,.26s-1.17-1.59-1.55-2.25A11.84,11.84,0,0,0,11,177.47a1.49,1.49,0,0,0-1.46-.38c-2.86,1.2-3.56,5.78-6.27,7.5l2.2.9A46.21,46.21,0,0,1,3,174.1c-.17-1.91-3.17-1.93-3,0Z"/><path class="cls-11" d="M24,180.62c2.39-.18,8.54.49,7.69-3.57-.62-2.93-3.71-6.1-6.7-3.82-2.54,2-4,6.65-2.71,9.61a6.66,6.66,0,0,0,8.17,3.35c1.82-.61,1-3.51-.8-2.89a3.81,3.81,0,0,1-4.16-.93c-1.23-1.46-.6-3.46.16-5,.28-.57.81-2,1.63-1.9.53.06,1.73,1.76,1.46,2.17.49-.73-1.19-.29-1.54-.26l-3.2.23c-1.91.13-1.93,3.13,0,3Z"/><path class="cls-11" d="M38.94,179.14c2.85.5,7.9.05,7.21-4.15-.58-3.55-5.06-4.07-7.38-1.93a8.15,8.15,0,0,0-1.35,9.67A5.75,5.75,0,0,0,46,184.32c1.52-1.18-.62-3.29-2.13-2.12a2.72,2.72,0,0,1-3.55-.59,4.72,4.72,0,0,1-.65-4.26c.32-1.12,1.23-2.9,2.65-2.59,1.08.24,1,1,.1,1.53a4.33,4.33,0,0,1-2.64,0c-1.89-.33-2.7,2.56-.8,2.89Z"/><path class="cls-11" d="M50.74,171.25a107.09,107.09,0,0,1,.69,15.19c0,1.94,3,1.93,3,0a107.09,107.09,0,0,0-.69-15.19c-.22-1.89-3.23-1.92-3,0Z"/><path class="cls-11" d="M59.35,173.65c-1.71,1.16-3.43,2.29-5.13,3.46-1,.71-2.25,1.54-1.92,3,.29,1.31,2.07,2.14,3,2.84l5,3.66c1.56,1.14,3.06-1.46,1.51-2.59l-3.45-2.51c-.89-.66-2.86-1.59-3.37-2.56l.15,1.16c.19-.58,2.33-1.61,2.79-1.92l2.89-1.95c1.59-1.07.09-3.67-1.52-2.59Z"/><path class="cls-11" d="M66,171c.08,4.79-1,10.47.61,15.09,1.5,4.45,7.16,1.4,9.88-.24A1.5,1.5,0,0,0,75,183.3c-1.1.66-4.36,2.84-5.58,1.73-.58-.54-.42-3.13-.43-3.88,0-3.37.09-6.74,0-10.11,0-1.93-3-1.93-3,0Z"/><path class="cls-11" d="M78.62,173.58c.48,2.83.73,8,4.47,8.54,3.42.45,5.92-4.27,7.17-6.71l-2.8-.76c.3,3.34,1.29,7,1.09,10.33-.1,1.74-1.66,8.81-4.24,4.67-1-1.64-3.62-.13-2.59,1.51,2,3.3,6.51,3.82,8.18.14,2.52-5.54,1.08-10.84.56-16.65-.12-1.36-2.06-2.2-2.79-.76-.62,1.21-2.85,6-4.91,4.62-.87-.59-1.07-4.7-1.24-5.73-.33-1.9-3.22-1.09-2.9.8Z"/><path class="cls-11" d="M109.1,172.68q.5,9.16.22,18.34c-.06,1.94,2.94,1.93,3,0q.27-9.18-.22-18.34c-.1-1.92-3.1-1.94-3,0Z"/><path class="cls-11" d="M111.81,175.06c1.14-.87,3.3-.47,3.63,1.12s-1.86,2.84-3.16,2.15c-1.7-.9-3.22,1.69-1.51,2.59,3.34,1.78,8-.88,7.67-4.81-.3-3.69-5.18-5.89-8.14-3.64-1.52,1.15,0,3.75,1.51,2.59Z"/><path class="cls-11" d="M121.86,174l.3,10.62,2.94-.4c-.55-2.85-.27-7.45,3.64-7.45a1.5,1.5,0,0,0,0-3c-6.05,0-7.47,6.42-6.53,11.25.32,1.67,3,1.28,3-.4l-.3-10.62c0-1.93-3-1.94-3,0Z"/><path class="cls-11" d="M138,185.69c4.21-1.07,4.69-6.08,3.1-9.46-.81-1.73-2.48-2.93-4.43-2.29-3.21,1.07-5.45,6-4.47,9.16.81,2.58,3.46,3,5.8,2.59,1.9-.33,1.1-3.22-.79-2.89a2.73,2.73,0,0,1-1.84-.14,1.34,1.34,0,0,1-.37-.7,5.79,5.79,0,0,1,1.21-3.87,5.57,5.57,0,0,1,1.11-1.15.87.87,0,0,1,.4-.19s.11,0,.09,0a2.87,2.87,0,0,1,.35.35,4,4,0,0,1,.51,1.11c.52,1.62.6,4.06-1.46,4.59A1.5,1.5,0,0,0,138,185.69Z"/><path class="cls-11" d="M154.89,170.34a6.22,6.22,0,0,0-7.64.79,5.89,5.89,0,0,0-.42,7.6A5.23,5.23,0,0,0,154.4,180a7.39,7.39,0,0,0,2.21-8.37c-.7-1.78-3.6-1-2.89.8a4.62,4.62,0,0,1-.49,4.54,2.34,2.34,0,0,1-4,0c-1.93-2.84,1.5-5.73,4.18-4,1.62,1.06,3.12-1.53,1.51-2.59Z"/><path class="cls-11" d="M154.05,172.91c1.57,5.68,2.75,11.69,1.55,17.57-.45,2.23-1.16,5-2.61,6.83-3.49,4.34-8.34.42-10.09-3.34-.81-1.75-3.4-.23-2.59,1.51,2.55,5.5,10.52,10.09,14.84,4,5.62-7.94,4.21-18.58,1.8-27.35a1.51,1.51,0,0,0-2.9.8Z"/><path class="cls-11" d="M163.21,172.93q.9,6.25,1.21,12.55h3c-.36-3.19-.9-9.32,3.75-9.59,1.92-.12,1.93-3.12,0-3-6.6.38-7.33,7.42-6.75,12.59.2,1.88,3.09,2,3,0q-.34-6.71-1.32-13.35c-.27-1.9-3.16-1.09-2.89.8Z"/><path class="cls-11" d="M178.3,173.82l7.42-1.35c1.9-.35,1.09-3.24-.8-2.9l-7.42,1.35c-1.9.35-1.09,3.24.8,2.9Z"/><path class="cls-11" d="M178.75,180.54l7.21-1.25c1.9-.33,1.1-3.22-.79-2.89L178,177.64c-1.9.33-1.1,3.22.79,2.9Z"/><path class="cls-11" d="M176.4,172.37a68,68,0,0,0,.31,7.14c.21,2.18.23,4.86,1,6.94,1.25,3.52,6.84,1.32,9.27.52,1.82-.61,1-3.51-.8-2.9a15.43,15.43,0,0,1-4.61,1.14c-1.3,0-.7.37-1.18-.51-.41-.73-.33-2.36-.43-3.18a71.78,71.78,0,0,1-.53-9.15,1.5,1.5,0,0,0-3,0Z"/><path class="cls-11" d="M201.59,172.73a7.55,7.55,0,0,0-6,.34,3.48,3.48,0,0,0-1.95,4c.47,1.71,2.12,2.92,3.58,3.74,1.1.61,2.78,1.55.74,2.09a4.61,4.61,0,0,1-3.85-.82c-1.56-1.14-3.06,1.47-1.51,2.59,2.45,1.79,9,2.3,9.54-1.85.27-2-1.33-3.43-2.91-4.35-.63-.37-2.79-1.29-2.7-2.19.16-1.55,3.48-.81,4.21-.61a1.5,1.5,0,0,0,.8-2.89Z"/><path class="cls-11" d="M215.66,172.42a7.59,7.59,0,0,0-5.95.34,3.49,3.49,0,0,0-2,4c.47,1.71,2.12,2.92,3.58,3.73,1.1.62,2.78,1.56.74,2.1a4.64,4.64,0,0,1-3.85-.82c-1.56-1.14-3.06,1.46-1.51,2.59,2.46,1.78,9,2.29,9.54-1.86.27-2-1.32-3.42-2.91-4.35-.63-.36-2.79-1.28-2.7-2.19.16-1.55,3.48-.81,4.21-.61a1.5,1.5,0,0,0,.8-2.89Z"/></g></g></svg>