<svg xmlns="http://www.w3.org/2000/svg" viewBox="0 0 245.92 143.46"><defs><style>.cls-1{fill:#f4ede9;}</style></defs><title>Asset 7</title><g id="Layer_2" data-name="Layer 2"><g id="Layer_1-2" data-name="Layer 1"><path class="cls-1" d="M226.33,140.59h-103a10,10,0,0,1-7-2.88L5.78,29.15a10,10,0,0,1,7-17.18h103a10,10,0,0,1,7,2.87L233.35,123.4A10,10,0,0,1,226.33,140.59Z"/><path d="M226.33,137.91H139.79c-5.23,0-11.22.84-16.4,0-5.43-.89-9.11-6-12.77-9.57l-20.3-19.93L37.85,56.89l-20.4-20c-3.07-3-7.15-6-9.69-9.52C-1.59,14.44,15,14.65,22,14.65H90.64c7.76,0,16-.81,23.73,0,5.22.54,7.41,3,10.81,6.29l17.2,16.88,57.76,56.72,23,22.6c4.38,4.3,20.8,19,3.18,20.77-3.4.34-3.44,5.71,0,5.36,11.57-1.18,16.38-13.12,8.75-21.93-3.62-4.19-8-7.89-12-11.77L168,55.5c-14-13.77-27.64-28.14-42.15-41.39-4.16-3.8-8.41-4.83-13.88-4.83H81.73c-22.46,0-45.07-.78-67.52,0C5.05,9.6-3.07,17.38,1.14,27.05c1.94,4.44,7,8.18,10.36,11.47l99.18,97.39c4.22,4.15,7.72,7.09,14.09,7.36,10.56.44,21.23,0,31.8,0h69.76C229.78,143.27,229.78,137.91,226.33,137.91Z"/><path d="M30.77,25.64c2.29,2.22,4.5,4.75,7,6.74,1.25,1,2.3,1.83,4,1.37s2.7-2.11,3.6-3.49c1.89-2.91,3.71-5.86,5.56-8.79.93-1.46-1.39-2.81-2.31-1.35l-3,4.68c-.93,1.48-2.06,4.28-3.43,5.29-2.73,2-7.47-4.37-9.52-6.34-1.24-1.2-3.14.69-1.89,1.89Z"/><path d="M49.43,20.6c2.65,3.39,5.88,6.74,10.4,4.83a12.38,12.38,0,0,0,4.23-3.69c1.57-1.87,2.92-7.86,4.6-9.12,4.47-3.33,12.13,8.71,17.63,8.71,6,0,7.41-6.19,12.46-8.11,1.6-.6.91-3.2-.71-2.58-5.32,2-8.33,8.71-15.18,7-4.8-1.23-6.17-8.67-11.34-9.69-2.12-.42-3.09.19-4.5,1.58s-2,5.77-2.53,6.77c-2.92,5.8-8.3,8.67-13.17,2.46-1.06-1.36-2.94.55-1.89,1.89Z"/><path d="M59.17,54.33q7,5.6,13.75,11.43a1.36,1.36,0,0,0,2.29-1A21.06,21.06,0,0,1,82.56,49.6c1.3-1.14-.61-3-1.9-1.89a23.76,23.76,0,0,0-8.13,17.1l2.29-.94Q68,58,61.07,52.44c-1.34-1.07-3.25.82-1.9,1.89Z"/><path d="M80.69,48.32A71.66,71.66,0,0,0,87,53.88c1.48,1.15,3.74,3.59,5.9,3.16,1.84-.36,2.62-2.44,3.43-3.87l5.24-9.26a1.34,1.34,0,0,0-2.32-1.35l-3.14,5.55c-.68,1.21-2,4.91-3.15,5.56-2.58,1.47-8.56-5.49-10.33-7.24-1.23-1.21-3.12.68-1.89,1.89Z"/><path d="M99.5,42.42A57.3,57.3,0,0,0,111.89,54a1.35,1.35,0,0,0,2-.8,37.69,37.69,0,0,1,5-10.31c2.06-2.9,3.9-3.51,7.6-2.69,1.76.39,4.16,2,5.8,2.74s2.91-1.58,1.35-2.32c-3.58-1.69-9.16-6.17-13.2-3.59-4.72,3-7.53,10.43-9.18,15.45l2-.8a54.65,54.65,0,0,1-11.85-11.12c-1.07-1.35-3,.56-1.89,1.9Z"/><path d="M84.71,84.1A89.31,89.31,0,0,1,95.09,94c.84.94,2.2.12,2.29-1A46.56,46.56,0,0,1,98,86.28a7.45,7.45,0,0,1,2.85-4.83q6.36-1.89,7.68,3.66a1.34,1.34,0,0,0,2.58-.72c-1.29-4.56-5.62-7.6-10.35-5.83-6,2.25-5.6,9.26-6,14.51L97,92.12a89.18,89.18,0,0,0-10.38-9.91c-1.33-1.08-3.24.8-1.9,1.89Z"/><path d="M111.07,84.35a46.81,46.81,0,0,1,2-6A15,15,0,0,1,114.7,75c.94-1.2.41-1.16,1.84-.7,1.75.57,3.84,2.94,5.28,4l5.87,4.48c1.37,1,2.71-1.28,1.36-2.31l-9.4-7.18c-1.23-.93-3-2.88-4.75-2.46s-2.48,2.65-3.11,3.93a48.87,48.87,0,0,0-3.3,8.83,1.34,1.34,0,0,0,2.58.71Z"/><path d="M129.25,82.2c2.31-4.5,5-9.9,10.23-11.48,4.43-1.33,9,1.59,13.48,1.83,1.73.09,1.72-2.59,0-2.68-5.59-.3-10.25-3.64-15.81-1.11-5.05,2.31-7.8,7.39-10.22,12.09-.78,1.53,1.53,2.89,2.32,1.35Z"/><path d="M109.38,110.41c2.62-4.28,7.08-10.94,13.07-8,1.55.75,2.91-1.56,1.36-2.32-7.52-3.63-13.21,3.24-16.74,9-.9,1.47,1.41,2.82,2.31,1.35Z"/><path d="M121.64,101.52c2.68,2.87,8.66,12.54,13.67,11,2.06-.62,3.65-3.71,4.79-5.22,2.1-2.8,3.27-4.14,6.58-5.59,3.92-1.71,6.94-1,11-.29,1.69.28,2.42-2.3.71-2.58-5.68-1-11.13-2.26-15.92,1.71-2.19,1.81-3.61,5.46-5.82,7-5.07,3.53-10.11-4.78-13.1-8-1.18-1.26-3.07.64-1.89,1.9Z"/><path class="cls-1" d="M233.48,131.65h-103a10,10,0,0,1-7-2.87L12.93,20.21A10,10,0,0,1,20,3h103a10,10,0,0,1,7,2.87L240.5,114.46A10,10,0,0,1,233.48,131.65Z"/><path d="M233.48,129H146.94c-5.23,0-11.22.84-16.4,0-5.43-.89-9.11-6-12.77-9.56L97.47,99.47,45,48l-20.4-20c-3.07-3-7.15-6-9.69-9.53C5.55,5.5,22.14,5.71,29.13,5.71H97.79c7.76,0,16-.81,23.73,0,5.22.54,7.41,3,10.81,6.29l17.2,16.89L207.29,85.6l23,22.6c4.38,4.3,20.8,19,3.18,20.77-3.4.34-3.44,5.71,0,5.36,11.57-1.17,16.37-13.11,8.75-21.93-3.62-4.19-8-7.89-12-11.77L175.18,46.56c-14-13.77-27.64-28.13-42.15-41.39-4.16-3.8-8.41-4.82-13.88-4.82H88.88c-22.46,0-45.07-.78-67.52,0C12.2.67,4.08,8.45,8.29,18.11c1.93,4.44,7,8.18,10.36,11.48L117.82,127c4.23,4.15,7.73,7.1,14.1,7.36,10.55.44,21.23,0,31.8,0h69.76C236.93,134.33,236.93,129,233.48,129Z"/><path d="M55.79,34.58c2.3,2.21,4.5,4.75,7,6.74,1.24,1,2.29,1.83,4,1.37s2.7-2.11,3.6-3.5c1.89-2.9,3.71-5.85,5.56-8.78.93-1.46-1.39-2.81-2.31-1.36l-3,4.69c-.93,1.47-2,4.27-3.42,5.28-2.74,2-7.48-4.37-9.53-6.34-1.24-1.2-3.14.7-1.89,1.9Z"/><path d="M74.45,29.54c2.65,3.39,5.88,6.73,10.4,4.82a12.24,12.24,0,0,0,4.23-3.68c1.57-1.87,2.92-7.87,4.6-9.12,4.48-3.33,12.13,8.71,17.64,8.7,6,0,7.4-6.19,12.46-8.1,1.59-.61.9-3.2-.72-2.59-5.32,2-8.33,8.72-15.17,7-4.81-1.24-6.18-8.68-11.35-9.69-2.12-.42-3.09.19-4.5,1.58s-2,5.77-2.53,6.77c-2.91,5.8-8.3,8.67-13.16,2.45-1.06-1.35-2.95.56-1.9,1.9Z"/><path d="M84.19,63.27q7,5.59,13.76,11.43a1.35,1.35,0,0,0,2.28-1,21.08,21.08,0,0,1,7.35-15.21c1.3-1.14-.6-3-1.89-1.9a23.79,23.79,0,0,0-8.14,17.11l2.29-1Q93.07,67,86.09,61.38c-1.34-1.07-3.25.81-1.9,1.89Z"/><path d="M105.71,57.26A73.33,73.33,0,0,0,112,62.82c1.48,1.15,3.75,3.59,5.9,3.16,1.84-.36,2.62-2.45,3.43-3.87l5.24-9.26a1.34,1.34,0,0,0-2.31-1.36l-3.15,5.56c-.68,1.21-2,4.9-3.14,5.55-2.58,1.48-8.56-5.49-10.33-7.23-1.23-1.22-3.13.68-1.9,1.89Z"/><path d="M124.52,51.35A57.34,57.34,0,0,0,136.91,62.9a1.36,1.36,0,0,0,2-.81,38.06,38.06,0,0,1,5-10.3c2.06-2.9,3.9-3.51,7.6-2.69,1.77.39,4.17,2,5.8,2.74s2.92-1.58,1.36-2.32c-3.59-1.69-9.17-6.17-13.21-3.59-4.71,3-7.53,10.43-9.17,15.45l2-.8a54.38,54.38,0,0,1-11.84-11.12c-1.08-1.35-3,.56-1.9,1.89Z"/><path d="M109.74,93A88.35,88.35,0,0,1,120.11,103c.84.94,2.2.12,2.29-.95a49.66,49.66,0,0,1,.61-6.8,7.47,7.47,0,0,1,2.86-4.82q6.34-1.89,7.67,3.65a1.34,1.34,0,0,0,2.58-.71c-1.29-4.56-5.62-7.61-10.34-5.83-6,2.24-5.6,9.26-6.06,14.51l2.29-1a89.31,89.31,0,0,0-10.38-9.92c-1.33-1.07-3.23.81-1.89,1.9Z"/><path d="M136.1,93.29a48.37,48.37,0,0,1,2-6A15.21,15.21,0,0,1,139.72,84c.94-1.2.41-1.16,1.84-.7,1.75.57,3.85,2.94,5.29,4l5.87,4.48c1.37,1,2.7-1.28,1.35-2.31l-9.39-7.18c-1.23-.94-3-2.89-4.75-2.47s-2.48,2.66-3.12,3.94a49.54,49.54,0,0,0-3.3,8.82,1.35,1.35,0,0,0,2.59.72Z"/><path d="M154.27,91.14c2.31-4.5,5-9.91,10.24-11.48,4.42-1.33,9,1.59,13.47,1.82,1.73.09,1.72-2.59,0-2.68-5.59-.29-10.25-3.64-15.81-1.1-5,2.3-7.8,7.39-10.21,12.08-.79,1.54,1.52,2.89,2.31,1.36Z"/><path d="M134.41,119.35c2.62-4.28,7.07-10.94,13.07-8,1.54.74,2.9-1.57,1.35-2.32-7.52-3.64-13.21,3.24-16.74,9-.9,1.48,1.42,2.83,2.32,1.36Z"/><path d="M146.66,110.46c2.69,2.87,8.66,12.54,13.68,11,2-.62,3.64-3.7,4.78-5.22,2.11-2.79,3.27-4.14,6.59-5.58,3.91-1.71,6.93-1,11-.29,1.68.28,2.41-2.3.71-2.59-5.69-.94-11.14-2.25-15.93,1.71-2.18,1.82-3.6,5.47-5.82,7-5.07,3.53-10.11-4.77-13.09-8-1.18-1.26-3.08.64-1.9,1.9Z"/><path d="M182.85,109.51c1.94,2.31,3.94,6.44,7.5,5.2,2.49-.85,5.12-3.53,7.26-5.07l7.37-5.29c1.38-1,.05-3.33-1.36-2.32l-9.82,7.06c-1.46,1-3.58,3.47-5.61,2.63-1.12-.46-2.64-3.16-3.44-4.11-1.11-1.32-3,.58-1.9,1.9Z"/></g></g></svg>