<svg xmlns="http://www.w3.org/2000/svg" viewBox="0 0 216.72 202.23"><defs><style>.cls-1{opacity:0.3;}.cls-2{fill:#353535;}.cls-3{fill:#444;}.cls-4{fill:#eaca60;}.cls-5{fill:#bcbbaf;}.cls-6{fill:#00b572;}.cls-7{opacity:0.5;}.cls-8{fill:#e8e2a7;}.cls-9{fill:#bca15e;}</style></defs><title>Asset 26</title><g id="Layer_2" data-name="Layer 2"><g id="Layer_1-2" data-name="Layer 1"><g class="cls-1"><path class="cls-2" d="M0,174a49.38,49.38,0,0,0,2.55,12.19,1.51,1.51,0,0,0,2.2.9,12.69,12.69,0,0,0,3.38-3.47c.59-.82,1.13-1.66,1.68-2.51.24-.36,1.45-1.63.5-1.23l-1.46-.39c1.48,1.34,3.4,8.52,6.77,6.54,1.23-.72,1.88-2.91,2.38-4.14a39,39,0,0,0,1.78-8.09c.33-1.88-2.56-2.69-2.89-.79-.53,3-.67,6.9-2.46,9.54-.4.58.58.57,0,.26s-1.17-1.59-1.55-2.25A11.84,11.84,0,0,0,11,177.33,1.49,1.49,0,0,0,9.52,177c-2.86,1.2-3.56,5.78-6.27,7.51l2.2.89A46.21,46.21,0,0,1,3,174c-.17-1.91-3.17-1.93-3,0Z"/><path class="cls-2" d="M24,180.48c2.39-.18,8.54.49,7.69-3.57-.62-2.93-3.71-6.1-6.7-3.82-2.54,1.95-4,6.65-2.71,9.61a6.66,6.66,0,0,0,8.17,3.35c1.82-.61,1-3.51-.8-2.89a3.81,3.81,0,0,1-4.16-.93c-1.23-1.46-.6-3.46.16-5,.28-.57.81-2,1.63-1.9.53.06,1.73,1.77,1.46,2.17.49-.73-1.19-.29-1.54-.26l-3.2.23c-1.91.13-1.93,3.14,0,3Z"/><path class="cls-2" d="M38.94,179c2.85.5,7.9.05,7.21-4.14-.58-3.56-5.06-4.08-7.38-1.94a8.15,8.15,0,0,0-1.35,9.67A5.75,5.75,0,0,0,46,184.18c1.52-1.18-.62-3.29-2.13-2.12a2.72,2.72,0,0,1-3.55-.59,4.71,4.71,0,0,1-.65-4.26c.32-1.12,1.23-2.9,2.65-2.59,1.08.24,1,1,.1,1.53a4.33,4.33,0,0,1-2.64,0c-1.89-.33-2.7,2.56-.8,2.89Z"/><path class="cls-2" d="M50.74,171.11a107.16,107.16,0,0,1,.69,15.2c0,1.93,3,1.93,3,0a107.16,107.16,0,0,0-.69-15.2c-.22-1.89-3.23-1.92-3,0Z"/><path class="cls-2" d="M59.35,173.51c-1.71,1.16-3.43,2.29-5.13,3.46-1,.71-2.25,1.54-1.92,3,.29,1.31,2.07,2.14,3,2.84l5,3.66c1.56,1.14,3.06-1.46,1.51-2.59l-3.45-2.51c-.89-.65-2.86-1.59-3.37-2.56l.15,1.16c.19-.58,2.33-1.61,2.79-1.92l2.89-2c1.59-1.07.09-3.67-1.52-2.59Z"/><path class="cls-2" d="M66,170.9c.08,4.79-1,10.47.61,15.09,1.5,4.46,7.16,1.4,9.88-.23A1.5,1.5,0,0,0,75,183.17c-1.1.65-4.36,2.84-5.58,1.72-.58-.54-.42-3.13-.43-3.88,0-3.37.09-6.74,0-10.11,0-1.93-3-1.93-3,0Z"/><path class="cls-2" d="M78.62,173.44c.48,2.83.73,8.05,4.47,8.55,3.42.44,5.92-4.28,7.17-6.72l-2.8-.76c.3,3.34,1.29,7,1.09,10.33-.1,1.74-1.66,8.81-4.24,4.67-1-1.64-3.62-.13-2.59,1.51,2,3.31,6.51,3.82,8.18.14,2.52-5.54,1.08-10.84.56-16.65-.12-1.36-2.06-2.2-2.79-.76-.62,1.21-2.85,6-4.91,4.62-.87-.59-1.07-4.7-1.24-5.73-.33-1.9-3.22-1.09-2.9.8Z"/><path class="cls-2" d="M109.1,172.54q.5,9.17.22,18.35c-.06,1.93,2.94,1.92,3,0q.27-9.19-.22-18.35c-.1-1.92-3.1-1.94-3,0Z"/><path class="cls-2" d="M111.81,174.92c1.14-.87,3.3-.47,3.63,1.12s-1.86,2.84-3.16,2.15c-1.7-.9-3.22,1.69-1.51,2.6,3.34,1.77,8-.89,7.67-4.82-.3-3.69-5.18-5.89-8.14-3.64-1.52,1.15,0,3.75,1.51,2.59Z"/><path class="cls-2" d="M121.86,173.88l.3,10.62,2.94-.4c-.55-2.85-.27-7.45,3.64-7.45a1.5,1.5,0,0,0,0-3c-6.05,0-7.47,6.42-6.53,11.25.32,1.67,3,1.28,3-.4l-.3-10.62c0-1.93-3-1.94-3,0Z"/><path class="cls-2" d="M138,185.55c4.21-1.07,4.69-6.08,3.1-9.46-.81-1.73-2.48-2.93-4.43-2.29-3.21,1.07-5.45,6-4.47,9.16.81,2.58,3.46,3,5.8,2.59,1.9-.33,1.1-3.22-.79-2.89a2.73,2.73,0,0,1-1.84-.14,1.34,1.34,0,0,1-.37-.7,5.79,5.79,0,0,1,1.21-3.87,5.57,5.57,0,0,1,1.11-1.15.87.87,0,0,1,.4-.19s.11,0,.09,0a2.87,2.87,0,0,1,.35.35,4.14,4.14,0,0,1,.51,1.11c.52,1.62.6,4.06-1.46,4.59A1.5,1.5,0,0,0,138,185.55Z"/><path class="cls-2" d="M154.89,170.2a6.22,6.22,0,0,0-7.64.79,5.89,5.89,0,0,0-.42,7.6,5.23,5.23,0,0,0,7.57,1.24,7.39,7.39,0,0,0,2.21-8.37c-.7-1.78-3.6-1-2.89.8a4.62,4.62,0,0,1-.49,4.54,2.34,2.34,0,0,1-4,0c-1.93-2.84,1.5-5.73,4.18-4,1.62,1.06,3.12-1.53,1.51-2.59Z"/><path class="cls-2" d="M154.05,172.77c1.57,5.68,2.75,11.69,1.55,17.57-.45,2.23-1.16,5-2.61,6.83-3.49,4.34-8.34.42-10.09-3.34-.81-1.75-3.4-.23-2.59,1.51,2.55,5.5,10.52,10.09,14.84,4,5.62-7.94,4.21-18.58,1.8-27.35a1.51,1.51,0,0,0-2.9.8Z"/><path class="cls-2" d="M163.21,172.79q.9,6.26,1.21,12.55h3c-.36-3.19-.9-9.32,3.75-9.59,1.92-.12,1.93-3.12,0-3-6.6.39-7.33,7.42-6.75,12.59.2,1.88,3.09,2,3,0-.23-4.47-.67-8.91-1.32-13.35-.27-1.9-3.16-1.09-2.89.8Z"/><path class="cls-2" d="M178.3,173.68l7.42-1.35c1.9-.35,1.09-3.24-.8-2.9l-7.42,1.35c-1.9.35-1.09,3.24.8,2.9Z"/><path class="cls-2" d="M178.75,180.4l7.21-1.25c1.9-.33,1.1-3.22-.79-2.89L178,177.5c-1.9.33-1.1,3.22.79,2.9Z"/><path class="cls-2" d="M176.4,172.23a68,68,0,0,0,.31,7.14c.21,2.18.23,4.87,1,6.94,1.25,3.52,6.84,1.32,9.27.52,1.82-.61,1-3.51-.8-2.9a14.85,14.85,0,0,1-4.61,1.14c-1.3,0-.7.37-1.18-.51-.41-.73-.33-2.36-.43-3.18a71.78,71.78,0,0,1-.53-9.15,1.5,1.5,0,0,0-3,0Z"/><path class="cls-2" d="M201.59,172.59a7.55,7.55,0,0,0-6,.34,3.48,3.48,0,0,0-1.95,3.95c.47,1.71,2.12,2.92,3.58,3.74,1.1.61,2.78,1.55.74,2.09a4.61,4.61,0,0,1-3.85-.82c-1.56-1.14-3.06,1.47-1.51,2.59,2.45,1.79,9,2.3,9.54-1.85.27-2-1.33-3.43-2.91-4.35-.63-.37-2.79-1.29-2.7-2.19.16-1.55,3.48-.81,4.21-.61a1.5,1.5,0,0,0,.8-2.89Z"/><path class="cls-2" d="M215.66,172.28a7.59,7.59,0,0,0-5.95.34,3.49,3.49,0,0,0-2,4c.47,1.71,2.12,2.92,3.58,3.73,1.1.62,2.78,1.56.74,2.1a4.61,4.61,0,0,1-3.85-.82c-1.56-1.14-3.06,1.46-1.51,2.59,2.46,1.78,9,2.29,9.54-1.86.27-2-1.32-3.42-2.91-4.34-.63-.37-2.79-1.29-2.7-2.2.16-1.55,3.48-.81,4.21-.6a1.51,1.51,0,0,0,.8-2.9Z"/></g><path class="cls-3" d="M204,95.73,61.74,148.18a7.17,7.17,0,0,1-8.86-3.47L8,56.85a7.17,7.17,0,0,1,4.13-10.06L143.49,3.25a7.17,7.17,0,0,1,8.11,2.67l55.77,79A7.17,7.17,0,0,1,204,95.73Z"/><path d="M203.83,95.11,103.78,132C90,137.08,76.27,142.82,62.27,147.3c-7.28,2.32-9.4-4-12-9.07L37.34,112.87,9.93,59.18c-1.59-3.12-3.26-6.24-.58-9.61,1.47-1.84,3.42-2.31,5.49-3l18.77-6.22L98.36,18.89C113.16,14,127.9,8.44,142.88,4.13c6.67-1.92,9.29,3.71,12.48,8.22l16.75,23.7,33.64,47.63c2.8,4,3.31,9-2.07,11.49-.76.34-.1,1.45.65,1.11a7.94,7.94,0,0,0,3.51-11.86c-1-1.67-2.29-3.24-3.43-4.85L186.87,54.73c-11.38-16.11-22.5-32.44-34.16-48.35C149.3,1.73,145.1,2,140.29,3.63l-21.42,7.1L50.43,33.42l-28,9.3C18.55,44,13.33,44.81,9.93,47.19c-6.34,4.43-1.88,11.13.68,16.14L24.69,90.9c9.06,17.75,17.8,35.71,27.2,53.29,2.79,5.22,7.34,5.59,12.31,3.76l19-7L201.41,97.36l2.76-1C204.94,96.06,204.61,94.82,203.83,95.11Z"/><path class="cls-4" d="M52.51,129.88h-.34a2.64,2.64,0,0,0-2.48,1.89l-.08.24a2.58,2.58,0,0,0,1.8,3.16l.47.09L50,132.79c.24,2.1,1,4.63,3.65,4.37l-2.48-3.26c-.29,1.41-.57,2.61.44,3.8.1.11.9,1,.65.57a21,21,0,0,0,.79,1.95c.84,1.2,2.94,1.94,4,.52l.43-.54-4.39-1.82a5.11,5.11,0,0,0,.75,3.13c.28.4.82.68,1,1.05-.53-.87.06.51.24.73,1.51,1.82,3.76,2.2,6,2.34,3.31.21,3.3-4.93,0-5.14-.95-.06-1.6-.05-2.19-.76-.24-.3-.36-.69-.63-1-1-1.12-.1.95-.07-.36.06-2.06-3-3.62-4.39-1.82l-.43.55,4,.52c-.4-.58-.39-1.4-.74-2s-1-1-1.5-1.54l.75,1.82c0-.21.08-.41.13-.61.3-1.48-.71-3.43-2.48-3.26,1.27,1.77,1.77,2,1.49.78a2.65,2.65,0,0,0-1.89-2.48l-.47-.09,1.79,3.16.08-.24L52.17,135h.34c3.3-.05,3.31-5.2,0-5.15Z"/><path class="cls-4" d="M87.16,118.67c-5.49.43-10.49,3.61-15.79,4.9a2.61,2.61,0,0,0-1.8,3.16c1.08,4,3.33,7.39,4.11,11.57a2.59,2.59,0,0,0,3.16,1.8c5.17-1.54,11.28-3,16-5.74,3.54-2,1.2-5.14.05-8-1.25-3.13-2.61-5.48-6.49-4.69a64.51,64.51,0,0,0-8.14,2.67c-1.39.49-2.83.78-3.52,2.21-1.27,2.61.56,7.19,3.07,8.43,1.83.89,3.31.26,5.08-.34,2.32-.77,5.56-1.44,7.62-2.77s2-4.22.27-5.93c-2.9-2.85-8.69.11-11.67,1.26s-1.72,6.16,1.37,5c1.33-.52,2.67-1,4-1.42l1.38-.39c1.38.11,1.72-.18,1-.88l1.28-2.22c-1.69,1-4.1,1.51-6,2.18-.41.15-3.51,1-2.5-.33-.58.77,1.75-.41,2-.51.94-.32,5.18-2.33,5.86-1.87a25.39,25.39,0,0,1,2,5l1.28-2.22c-2,1.46-5.07,2.15-7.34,3-2.68,1-5.39,1.85-8.13,2.67l3.17,1.79c-.79-4.19-3-7.57-4.11-11.56l-1.8,3.16c4.77-1.16,9.53-4.33,14.43-4.71,3.28-.26,3.3-5.41,0-5.15Z"/><path class="cls-4" d="M102.57,117.72c4.64-.15,7.71-2.3,12.07-3.66,2-.63,5.51-2.49,7.6-2,2.34.51,3.58,4.74,4.28,6.82l1.18-2.9c-2.92,1.62-6.13,1.58-9.09,3.16-3.3,1.76-7.26,2.26-10.3,4.5l3.12.4-6-7.08-1.13,4.3c3-1.08,5.94-2.1,8.95-3,1.07-.33,10.64-2.26,8.62-4.64-.07-.08-7.74,2.32-8.54,2.49a17.42,17.42,0,0,0-6.22,2.17c-1.67,1.06-1.73,4.35.61,4.7a15.47,15.47,0,0,0,6.21-.23c3.22-.78,1.85-5.74-1.37-5a6.92,6.92,0,0,1-3.47.23l.61,4.7c3.15-2,20.22-2.61,16.63-9.42-1.56-3-4.86-2.59-7.62-1.91a150.08,150.08,0,0,0-15.78,4.92,2.61,2.61,0,0,0-1.13,4.3l6,7.08a2.58,2.58,0,0,0,3.12.4c3.14-2.32,7.67-3.33,11.27-4.88,2.6-1.12,5.49-1.32,8.12-2.78a2.58,2.58,0,0,0,1.18-2.9c-1.45-4.3-3.84-11.18-9.48-10.89-6.82.34-12.76,5.76-19.43,6-3.3.11-3.32,5.25,0,5.14Z"/><path class="cls-4" d="M159.78,98.4l-.26-1.19A2.59,2.59,0,0,0,157,95.33l.88.37a2.57,2.57,0,0,0-3.12-.41c-2.16,1.52-4.82,1.7-7.31,2.44-2.79.84-5.55,1.83-8.32,2.75a2.6,2.6,0,0,0-1.13,4.3c1.15,1.23,3.16,2.84,3.66,4.47.05.94.33,1.28.87,1a13.29,13.29,0,0,1-3.58,1.51l1.37,5c4.47-1.5,8.67-3.63,13.09-5.26,2-.74,4.11-1.19,6.17-1.84,1.77-.55,3.41-1.72,5.22-2s2.18-2.44,1.54-3.78c-2.3-4.79-5.19-5.24-9.92-3.79-3.68,1.12-10.71-.1-13.51,3.14-2.2,2.54,0,5.59,2.78,6.12,5.09,1,11.92-2.28,16.64-3.81a2.62,2.62,0,0,0,1.54-3.78l-.47-2.17a2.59,2.59,0,0,0-3.86-2.22c-3.54,2.22-7.14,4.34-10.83,6.3-3.1,1.64-6.52,2.94-9.29,5.14-2.12,1.69-8.48,8.72-1.87,9.25l-.68-5a46.67,46.67,0,0,1-6.26,1.92c-3.22.74-1.85,5.7,1.37,5a47.12,47.12,0,0,0,6.26-1.92,2.58,2.58,0,0,0-.69-5l-.29,0,2.22,1.28-.16-.29v2.59c2-4,6.91-5.73,10.6-7.64,4.18-2.16,8.23-4.52,12.21-7l-3.87-2.22a12.68,12.68,0,0,0,1.17,4.77l1.53-3.78c-2.62.85-5.26,1.67-7.93,2.4-1.15.32-2.91.39-3.88,1-.81,0-1.2.46-1.18,1.41q-1.41,2.05.82.94c3.33.22,11.49-3.24,13.1.14l1.54-3.78a21.49,21.49,0,0,0-4.26,1.66c-2.3.91-4.79,1.34-7.13,2.2-4.42,1.63-8.62,3.77-13.09,5.26-3.12,1-1.86,5.8,1.37,5,2.56-.67,7.47-2.07,7.59-5.31.14-3.79-3.93-7.78-6.28-10.3l-1.13,4.3c3.17-1.06,6.33-2.26,9.56-3.1,2.64-.69,5-1,7.3-2.61l-3.12-.4a3.1,3.1,0,0,0,2.76,1.14l-2.48-1.89.26,1.19c.72,3.23,5.68,1.87,5-1.37Z"/><path class="cls-4" d="M175.9,90.89h0l-1.79,3.16c4.49-1,9-3,13.32-4.54l-2.5-.66a62.59,62.59,0,0,1,7.31,7.07l1.14-4.3c-3.79,1.53-7.56,3.2-11.4,4.59a26.94,26.94,0,0,1-2.79.79c0-.28,1.82-1,2.09-1.08,1.17-.56,5.14-3,6.49-2.67L186,91.46c.14.36-6.25,3.35-6.67,3.56-2.95,1.5-.35,5.94,2.6,4.44s12.46-4.89,8.77-10c-1.4-1.94-3.64-1.65-5.59-.87-2.74,1.09-6.08,2.23-8.49,4-3.67,2.61-1.49,7.41,2.21,8.93,2.18.9,3.78,0,5.88-.86l10.07-4a2.61,2.61,0,0,0,1.13-4.29c-2.68-3.05-6.38-8.5-10.85-7.45-4.23,1-8.08,3.28-12.29,4.25a2.6,2.6,0,0,0-1.8,3.17,5.29,5.29,0,0,0,2.35,3.07c2.7,1.93,5.27-2.53,2.59-4.44Z"/><path class="cls-4" d="M205.18,83.49l.7-.67-4-.52a15.64,15.64,0,0,1,1.77,3.63c.48,1.86-.37,2.2-1.88,2.75-2.15.79-4,2.31-6.41,2.46-3.29.2-3.31,5.35,0,5.14a15.48,15.48,0,0,0,6.29-1.86c1.66-.87,3.69-1.16,5.1-2.47,3.87-3.58,1.84-8.4-.43-12.24a2.58,2.58,0,0,0-4-.52l-.71.67c-2.4,2.28,1.24,5.92,3.64,3.63Z"/><path class="cls-3" d="M204.86,93.15,62.59,145.61a7.18,7.18,0,0,1-8.86-3.47L8.88,54.28A7.16,7.16,0,0,1,13,44.22L144.35.68a7.16,7.16,0,0,1,8.11,2.66l55.77,79A7.15,7.15,0,0,1,204.86,93.15Z"/><path d="M204.69,92.53l-100,36.89c-13.79,5.09-27.51,10.83-41.51,15.3-7.29,2.33-9.41-4-12-9.06L38.2,110.3,10.79,56.61C9.2,53.48,7.52,50.37,10.21,47c1.47-1.85,3.42-2.31,5.49-3l18.77-6.22L99.22,16.31c14.8-4.9,29.54-10.44,44.52-14.75,6.67-1.92,9.29,3.7,12.48,8.22L173,33.48,206.6,81.1c2.8,4,3.31,9.06-2.07,11.5-.75.34-.1,1.45.65,1.11,4.82-2.18,6.28-7.42,3.52-11.87-1-1.67-2.29-3.24-3.43-4.84L187.73,52.16c-11.38-16.11-22.5-32.44-34.16-48.35C150.16-.84,146-.53,141.15,1.06l-21.42,7.1L51.29,30.85l-28,9.3c-3.84,1.27-9.06,2.09-12.46,4.47-6.35,4.43-1.88,11.13.68,16.14L25.54,88.33c9.07,17.75,17.81,35.71,27.21,53.29,2.78,5.21,7.34,5.59,12.31,3.76l19-7L202.27,94.79l2.76-1C205.8,93.49,205.47,92.25,204.69,92.53Z"/><path d="M83.59,36.21a.32.32,0,0,0,0-.64.32.32,0,0,0,0,.64Z"/><path class="cls-5" d="M56.82,87,45.1,91.6c-1.63.64-4.47,0-5.11-1.64L35.23,80.6c-.64-1.63.05-4.36,1.68-5l12.68-4.35a3.18,3.18,0,0,1,4.12,1.8l4.91,9.85A3.18,3.18,0,0,1,56.82,87Z"/><path d="M56.73,86.71C53,88.18,49,90.35,45.08,91.27c-4.11,1-5.18-2.21-6.63-5-1.26-2.48-4.82-7.26-2-9.79,1.61-1.42,4.47-1.88,6.47-2.56s4.63-2.24,6.58-2.26c3.7,0,4.51,2.81,5.82,5.43,1.17,2.36,5.11,7.47,1.31,9.7a.33.33,0,0,0,.33.56c4.81-2.84-.39-9.19-2.08-12.58-.79-1.58-1.42-3.42-3.34-3.9s-5,1.12-6.82,1.76c-3.67,1.25-11.21,2.07-9.93,7.66.5,2.17,2.08,4.34,3.08,6.3.85,1.67,1.56,4,3.26,5,2.42,1.42,5,0,7.3-.93l8.45-3.31C57.28,87.18,57.12,86.56,56.73,86.71Z"/><path class="cls-3" d="M42.59,80.24h0a3.83,3.83,0,0,0,.18,1.35A3.53,3.53,0,0,0,45,83.71a5.27,5.27,0,0,0,3.12,0A4.82,4.82,0,0,0,50.8,82c1.68-2.36-.22-5.69-2.83-6.36S42.67,77.74,42.59,80.24Z"/><path d="M42,80.24c-.2,6.45,11,5.19,10.06-.93a5.29,5.29,0,0,0-4.93-4.43c-2.82,0-4.9,2.76-5.13,5.36-.07.83,1.22.82,1.29,0a4.44,4.44,0,0,1,3.5-4,3.89,3.89,0,0,1,3.92,2.89c1.28,4.59-7.58,6-7.42,1.14C43.26,79.42,42,79.42,42,80.24Z"/><polygon class="cls-6" points="52.58 97.09 57.63 105.53 45.68 108.88 52.58 97.09"/><path d="M52.31,97.25l2.88,4.83A31.5,31.5,0,0,0,56.93,105a2.44,2.44,0,0,1,.4.68c-.17-.64.48-.29-.23-.32a10.55,10.55,0,0,0-2.66.74l-3.79,1.06-5.06,1.42L46,109l6.9-11.79a.32.32,0,0,0-.55-.32L45.4,108.72a.32.32,0,0,0,.36.47l12-3.35a.33.33,0,0,0,.2-.47l-5-8.44C52.65,96.57,52.09,96.9,52.31,97.25Z"/><polygon class="cls-6" points="159.04 39.74 152.96 31.26 165.3 27.6 159.04 39.74"/><path d="M159.31,39.58l-3.46-4.84a34.84,34.84,0,0,0-2.13-3,3,3,0,0,1-.47-.65c.25.56-.53.33.23.32a12,12,0,0,0,2.63-.78l4-1.2,5.25-1.55-.36-.48-6.26,12.15c-.19.37.36.69.55.32l6.26-12.14a.32.32,0,0,0-.36-.47L152.87,31a.33.33,0,0,0-.19.47l6.08,8.48C159,40.24,159.56,39.92,159.31,39.58Z"/><path class="cls-5" d="M45.12,96.2h0a1.11,1.11,0,0,0,.86-.41,1.86,1.86,0,0,0,.6-1.28,1.17,1.17,0,0,0-.75-1.12C43.73,92.74,43.46,96.08,45.12,96.2Z"/><path d="M45.12,96.53c1.19.09,2.05-1.6,1.67-2.6a1.6,1.6,0,0,0-2.27-.73c-1.3.79-1,3.14.6,3.33.41,0,.4-.6,0-.65-.85-.1-.93-1.33-.51-1.89a1,1,0,0,1,1.14-.29c1,.41.32,2.26-.63,2.18C44.71,95.85,44.71,96.49,45.12,96.53Z"/><path class="cls-5" d="M58.39,91.2h0a.66.66,0,0,0,.24-.23.88.88,0,0,0,.06-.28c.05-1.09-1-2.22-1.88-1.07A1.13,1.13,0,0,0,58.39,91.2Z"/><path d="M58.55,91.48c1.34-.83-.36-3.56-1.74-2.34a1.5,1.5,0,0,0-.27,2,1.54,1.54,0,0,0,2,.31.32.32,0,0,0-.32-.55c-.78.43-1.75-.3-1.15-1.12.77-1.07,1.68.78,1.15,1.12C57.88,91.14,58.2,91.7,58.55,91.48Z"/><path class="cls-5" d="M165.6,56.38a.72.72,0,0,0,.36-.1.81.81,0,0,0,.3-.53,2.09,2.09,0,0,0,.12-.69.77.77,0,0,0-.3-.61h0C164.38,53.28,163.07,56.67,165.6,56.38Z"/><path d="M165.6,56.7c.68-.09.91-.51,1-1.14a1.27,1.27,0,0,0-.4-1.39,1.43,1.43,0,0,0-1.81.08,1.61,1.61,0,0,0-.52,1.58,1.45,1.45,0,0,0,1.69.87c.41,0,.41-.68,0-.64s-.85.06-1-.31a.94.94,0,0,1,.86-1.23.94.94,0,0,1,.5.22c.28.29.1,1.26-.33,1.32S165.19,56.76,165.6,56.7Z"/><path class="cls-5" d="M176.63,52h0a1,1,0,0,0,1.23-.38,2,2,0,0,0,.19-.77,1.06,1.06,0,0,0-.08-.66.77.77,0,0,0-.62-.29C176.15,49.88,175.39,51.45,176.63,52Z"/><path d="M176.47,52.32a1.29,1.29,0,0,0,1.78-.76c.29-.83.16-1.9-.9-2a1.46,1.46,0,0,0-.88,2.71c.36.19.69-.36.32-.55a.78.78,0,0,1,.16-1.46.94.94,0,0,1,.55,0c.32.11.25.48.21.74-.05.43-.39,1-.92.75C176.42,51.59,176.09,52.14,176.47,52.32Z"/><g class="cls-7"><path class="cls-8" d="M72.51,57.86a8.41,8.41,0,0,1,1.9,3.22c.53,1.56,3,.89,2.48-.69A11.42,11.42,0,0,0,74.33,56c-1.15-1.19-3,.63-1.82,1.82Z"/><path class="cls-8" d="M84.86,54a8.38,8.38,0,0,1,1.9,3.21c.53,1.56,3,.9,2.48-.68a11.27,11.27,0,0,0-2.56-4.35c-1.15-1.2-3,.62-1.82,1.82Z"/><path class="cls-8" d="M78.07,67.09A8.38,8.38,0,0,1,80,70.3c.52,1.57,3,.9,2.48-.68a11.44,11.44,0,0,0-2.57-4.35c-1.15-1.2-3,.62-1.81,1.82Z"/><path class="cls-8" d="M89.59,63.08a8.41,8.41,0,0,1,1.9,3.22c.52,1.56,3,.89,2.48-.69a11.42,11.42,0,0,0-2.56-4.35c-1.15-1.19-3,.63-1.82,1.82Z"/><path class="cls-8" d="M95.67,72.39a8.25,8.25,0,0,1,1.9,3.21c.53,1.56,3,.89,2.48-.68a11.15,11.15,0,0,0-2.56-4.35c-1.15-1.2-3,.62-1.82,1.82Z"/><path class="cls-8" d="M83.35,76a8.49,8.49,0,0,1,1.9,3.22c.52,1.56,3,.89,2.48-.68a11.38,11.38,0,0,0-2.56-4.36C84,73,82.2,74.8,83.35,76Z"/><path class="cls-8" d="M88.74,85.42a8.41,8.41,0,0,1,1.9,3.22c.52,1.56,3,.89,2.48-.68a11.38,11.38,0,0,0-2.56-4.36c-1.16-1.19-3,.63-1.82,1.82Z"/><path class="cls-8" d="M100.66,81.56a8.49,8.49,0,0,1,1.9,3.22c.53,1.56,3,.89,2.48-.68a11.27,11.27,0,0,0-2.56-4.35c-1.15-1.2-3,.62-1.82,1.81Z"/><path class="cls-8" d="M94.2,94.94a8.41,8.41,0,0,1,1.9,3.22c.52,1.56,3,.89,2.48-.68A11.38,11.38,0,0,0,96,93.12c-1.15-1.19-3,.63-1.82,1.82Z"/><path class="cls-8" d="M106.23,90.87a8.41,8.41,0,0,1,1.9,3.22c.52,1.56,3,.89,2.48-.68a11.38,11.38,0,0,0-2.56-4.36c-1.15-1.19-3,.63-1.82,1.82Z"/><path class="cls-8" d="M118.67,86.8a8.49,8.49,0,0,1,1.9,3.22c.52,1.56,3,.89,2.48-.68A11.38,11.38,0,0,0,120.49,85c-1.15-1.19-3,.63-1.82,1.82Z"/><path class="cls-8" d="M130.39,82.58a8.41,8.41,0,0,1,1.9,3.22c.53,1.56,3,.89,2.48-.69a11.42,11.42,0,0,0-2.56-4.35c-1.15-1.19-3,.63-1.82,1.82Z"/><path class="cls-8" d="M124.48,73.21a8.41,8.41,0,0,1,1.9,3.22c.52,1.56,3,.89,2.48-.69a11.42,11.42,0,0,0-2.56-4.35c-1.15-1.19-3,.63-1.82,1.82Z"/><path class="cls-8" d="M113,77.37a8.2,8.2,0,0,1,1.89,3.22c.53,1.56,3,.89,2.48-.69a11.29,11.29,0,0,0-2.56-4.35c-1.15-1.19-3,.63-1.81,1.82Z"/><path class="cls-8" d="M137,69.48a8.34,8.34,0,0,1,1.89,3.22c.53,1.56,3,.89,2.48-.68a11.15,11.15,0,0,0-2.56-4.35c-1.15-1.2-3,.62-1.81,1.81Z"/><path class="cls-8" d="M142.4,78.75A8.49,8.49,0,0,1,144.3,82c.52,1.56,3,.89,2.48-.68a11.27,11.27,0,0,0-2.56-4.35c-1.16-1.2-3,.62-1.82,1.81Z"/><path class="cls-8" d="M131.16,60.51a8.41,8.41,0,0,1,1.9,3.22c.52,1.56,3,.89,2.48-.68A11.38,11.38,0,0,0,133,58.69c-1.15-1.19-3,.63-1.82,1.82Z"/><path class="cls-8" d="M125.41,51.51a8.41,8.41,0,0,1,1.9,3.22c.52,1.56,3,.89,2.48-.68a11.38,11.38,0,0,0-2.56-4.36c-1.15-1.19-3,.63-1.82,1.82Z"/><path class="cls-8" d="M120.07,42.94A8.39,8.39,0,0,1,122,46.16c.53,1.56,3,.89,2.48-.69a11.29,11.29,0,0,0-2.56-4.35c-1.15-1.19-3,.63-1.81,1.82Z"/><path class="cls-8" d="M108.44,46.6a8.38,8.38,0,0,1,1.9,3.21c.52,1.57,3,.9,2.48-.68a11.35,11.35,0,0,0-2.56-4.35c-1.15-1.2-3,.62-1.82,1.82Z"/><path class="cls-8" d="M96.56,50.39a8.38,8.38,0,0,1,1.9,3.21c.52,1.57,3,.9,2.48-.68a11.42,11.42,0,0,0-2.56-4.35c-1.16-1.2-3,.62-1.82,1.82Z"/><path class="cls-8" d="M102.07,59.05a8.49,8.49,0,0,1,1.9,3.22c.52,1.56,3,.89,2.48-.68a11.27,11.27,0,0,0-2.56-4.35c-1.15-1.2-3,.62-1.82,1.81Z"/><path class="cls-8" d="M113.49,55.6a8.34,8.34,0,0,1,1.9,3.22c.53,1.56,3,.89,2.48-.69a11.42,11.42,0,0,0-2.56-4.35c-1.15-1.19-3,.63-1.82,1.82Z"/><path class="cls-8" d="M118.9,64.17a8.38,8.38,0,0,1,1.9,3.21c.53,1.56,3,.89,2.48-.68a11.27,11.27,0,0,0-2.56-4.35c-1.15-1.2-3,.62-1.82,1.82Z"/><path class="cls-8" d="M107.43,68.32a8.49,8.49,0,0,1,1.9,3.22c.52,1.56,3,.89,2.48-.68a11.27,11.27,0,0,0-2.56-4.35c-1.15-1.2-3,.62-1.82,1.81Z"/></g><path class="cls-4" d="M52.51,129.88h-.34a2.64,2.64,0,0,0-2.48,1.89l-.08.24a2.58,2.58,0,0,0,1.8,3.16l.47.09L50,132.79c.24,2.1,1,4.63,3.65,4.37l-2.48-3.26c-.29,1.41-.57,2.61.44,3.8.1.11.9,1,.65.57a21,21,0,0,0,.79,1.95c.84,1.2,2.94,1.94,4,.52l.43-.54-4.39-1.82a5.11,5.11,0,0,0,.75,3.13c.28.4.82.68,1,1.05-.53-.87.06.51.24.73,1.51,1.82,3.76,2.2,6,2.34,3.31.21,3.3-4.93,0-5.14-.95-.06-1.6-.05-2.19-.76-.24-.3-.36-.69-.63-1-1-1.12-.1.95-.07-.36.06-2.06-3-3.62-4.39-1.82l-.43.55,4,.52c-.4-.58-.39-1.4-.74-2s-1-1-1.5-1.54l.75,1.82c0-.21.08-.41.13-.61.3-1.48-.71-3.43-2.48-3.26,1.27,1.77,1.77,2,1.49.78a2.65,2.65,0,0,0-1.89-2.48l-.47-.09,1.79,3.16.08-.24L52.17,135h.34c3.3-.05,3.31-5.2,0-5.15Z"/><path class="cls-4" d="M87.16,118.67c-5.49.43-10.49,3.61-15.79,4.9a2.61,2.61,0,0,0-1.8,3.16c1.08,4,3.33,7.39,4.11,11.57a2.59,2.59,0,0,0,3.16,1.8c5.17-1.54,11.28-3,16-5.74,3.54-2,1.2-5.14.05-8-1.25-3.13-2.61-5.48-6.49-4.69a64.51,64.51,0,0,0-8.14,2.67c-1.39.49-2.83.78-3.52,2.21-1.27,2.61.56,7.19,3.07,8.43,1.83.89,3.31.26,5.08-.34,2.32-.77,5.56-1.44,7.62-2.77s2-4.22.27-5.93c-2.9-2.85-8.69.11-11.67,1.26s-1.72,6.16,1.37,5c1.33-.52,2.67-1,4-1.42l1.38-.39c1.38.11,1.72-.18,1-.88l1.28-2.22c-1.69,1-4.1,1.51-6,2.18-.41.15-3.51,1-2.5-.33-.58.77,1.75-.41,2-.51.94-.32,5.18-2.33,5.86-1.87a25.39,25.39,0,0,1,2,5l1.28-2.22c-2,1.46-5.07,2.15-7.34,3-2.68,1-5.39,1.85-8.13,2.67l3.17,1.79c-.79-4.19-3-7.57-4.11-11.56l-1.8,3.16c4.77-1.16,9.53-4.33,14.43-4.71,3.28-.26,3.3-5.41,0-5.15Z"/><path class="cls-4" d="M103.23,117.92a27.79,27.79,0,0,0,5.16-.85c1.23-.44,2.34-1.31,3.6-1.72,1.06-.35,2.19-.46,3.27-.86,1.71-.63,4.6-2.43,6.42-2.44,2.85,0,4,4.43,4.84,6.8l1.18-2.9c-2.92,1.62-6.13,1.58-9.09,3.16-3.3,1.76-7.26,2.26-10.3,4.5l3.12.4-6-7.08-1.13,4.3c3-1.08,5.94-2.1,8.95-3,1.07-.33,10.64-2.26,8.62-4.64-.07-.08-7.74,2.32-8.54,2.49a17.42,17.42,0,0,0-6.22,2.17c-1.67,1.06-1.73,4.35.61,4.7a15.47,15.47,0,0,0,6.21-.23c3.22-.78,1.85-5.74-1.37-5a6.92,6.92,0,0,1-3.47.23l.61,4.7c3.15-2,20.22-2.61,16.63-9.42-1.56-3-4.86-2.59-7.62-1.91a150.08,150.08,0,0,0-15.78,4.92,2.61,2.61,0,0,0-1.13,4.3l6,7.08a2.58,2.58,0,0,0,3.12.4c3.14-2.32,7.67-3.33,11.27-4.88,2.6-1.12,5.49-1.32,8.12-2.78a2.58,2.58,0,0,0,1.18-2.9c-1.74-5.16-4.72-12.55-11.38-10.35-6.08,2-11.94,4.92-18.24,5.83-3.26.46-1.87,5.42,1.37,5Z"/><path class="cls-4" d="M159.78,98.4l-.26-1.19A2.59,2.59,0,0,0,157,95.33l.88.37a2.57,2.57,0,0,0-3.12-.41c-2.17,1.52-4.85,1.66-7.28,2.62-2.75,1.08-5.51,1.73-8.35,2.57a2.6,2.6,0,0,0-1.13,4.3c1.15,1.23,3.16,2.84,3.66,4.47.05.94.33,1.28.87,1a13.29,13.29,0,0,1-3.58,1.51l1.37,5c4.47-1.5,8.67-3.63,13.09-5.26,2-.74,4.11-1.19,6.17-1.84,1.77-.55,3.41-1.72,5.22-2s2.18-2.44,1.54-3.78c-2.3-4.79-5.19-5.24-9.92-3.79-3.68,1.12-10.71-.1-13.51,3.14-2.2,2.54,0,5.59,2.78,6.12,5.09,1,11.92-2.28,16.64-3.81a2.62,2.62,0,0,0,1.54-3.78l-.47-2.17a2.59,2.59,0,0,0-3.86-2.22c-3.54,2.22-7.14,4.34-10.83,6.3-3.1,1.64-6.52,2.94-9.29,5.14-2.12,1.69-8.48,8.72-1.87,9.25l-.68-5a46.67,46.67,0,0,1-6.26,1.92c-3.22.74-1.85,5.7,1.37,5a47.12,47.12,0,0,0,6.26-1.92,2.58,2.58,0,0,0-.69-5l-.29,0,2.22,1.28-.16-.29v2.59c2-4,6.91-5.73,10.6-7.64,4.18-2.16,8.23-4.52,12.21-7l-3.87-2.22a12.68,12.68,0,0,0,1.17,4.77l1.53-3.78c-2.62.85-5.26,1.67-7.93,2.4-1.15.32-2.91.39-3.88,1-.81,0-1.2.46-1.18,1.41q-1.41,2.05.82.94c3.33.22,11.49-3.24,13.1.14l1.54-3.78a21.49,21.49,0,0,0-4.26,1.66c-2.3.91-4.79,1.34-7.13,2.2-4.42,1.63-8.62,3.77-13.09,5.26-3.12,1-1.86,5.8,1.37,5,2.56-.67,7.47-2.07,7.59-5.31.14-3.79-3.93-7.78-6.28-10.3l-1.13,4.3a76.54,76.54,0,0,0,8.4-2.52c2.83-1.19,5.88-1.38,8.46-3.19l-3.12-.4a3.1,3.1,0,0,0,2.76,1.14l-2.48-1.89.26,1.19c.72,3.23,5.68,1.87,5-1.37Z"/><path class="cls-4" d="M175.9,90.89h0l-1.79,3.16a74.42,74.42,0,0,0,7.27-2.39c2.33-.8,4.84-1.13,6.59-3h-3.63a66.72,66.72,0,0,1,7.9,7.22l1.14-4.3c-3.79,1.53-7.56,3.2-11.4,4.59a26.94,26.94,0,0,1-2.79.79c0-.28,1.82-1,2.09-1.08,1.17-.56,5.14-3,6.49-2.67L186,91.46c.14.36-6.25,3.35-6.67,3.56-2.95,1.5-.35,5.94,2.6,4.44s12.46-4.89,8.77-10c-1.4-1.94-3.64-1.65-5.59-.87-2.74,1.09-6.08,2.23-8.49,4-3.67,2.61-1.49,7.41,2.21,8.93,2.18.9,3.78,0,5.88-.86l10.07-4a2.61,2.61,0,0,0,1.13-4.29A64.41,64.41,0,0,0,188,85.07a2.61,2.61,0,0,0-3.63,0c-1.25,1.3-5,1.78-6.64,2.31s-3.19,1.3-5,1.71a2.6,2.6,0,0,0-1.8,3.17,5.29,5.29,0,0,0,2.35,3.07c2.7,1.93,5.27-2.53,2.59-4.44Z"/><path class="cls-4" d="M205.18,83.49l.7-.67-4-.52a15.64,15.64,0,0,1,1.77,3.63c.48,1.86-.37,2.2-1.88,2.75-2.15.79-4,2.31-6.41,2.46-3.29.2-3.31,5.35,0,5.14a15.48,15.48,0,0,0,6.29-1.86c1.66-.87,3.69-1.16,5.1-2.47,3.87-3.58,1.84-8.4-.43-12.24a2.58,2.58,0,0,0-4-.52l-.71.67c-2.4,2.28,1.24,5.92,3.64,3.63Z"/><path class="cls-4" d="M54.21,133.5l0,.53c-.26,2.92,4.33,3.44,5,.68A9.2,9.2,0,0,0,59,129c-.87-2.34-4.1-5.58-.88-7.54a5.65,5.65,0,0,1,4.07-.31c1,.48.48.54,1.33,1.26.14.12,1.56,1.5,1.61,1.22-.16.88-5.47,2.53-6,2.54a2.62,2.62,0,0,0-2.58,2.57A33.27,33.27,0,0,1,56,136c-.47,2.41,2.4,4.44,4.3,2.5s3.94-3.9,6-5.74c1.8-1.58,3.75-2.84,4.82-5l-4.7-.61a128.68,128.68,0,0,0,5.82,13l1.54-3.78a39.18,39.18,0,0,0-5.3,1.65c-.92.37-3.91,2.15-4.8,1.7-.41.68-.13.53.82-.46.65-.55,1.27-1.13,1.87-1.74.77-.79,1.87-2.81,2.92-3.27H66.7c1.46.8-3.9,3.35-4.54,3.83-2.62,2-.06,6.44,2.59,4.44,3.06-2.29,9.79-4.52,7.56-9.72-.66-1.55-2.52-3.35-4.31-3.35-2.3,0-3.5,2.53-4.83,4-2.78,3-7.9,6-3,10,4.5,3.73,10.3-1,15-2.09a2.6,2.6,0,0,0,1.54-3.78,114.52,114.52,0,0,1-5.3-11.74c-.7-1.88-3.64-2.78-4.7-.62s-3.53,3.54-5.14,5-3.3,3.11-4.9,4.72l4.3,2.51a40.13,40.13,0,0,0,.79-8.68l-2.57,2.57c4.07-.06,10.12-3,10.4-7.72.12-2.06-.73-3-1.91-4.44-.91-1.13.66.72-.37-.61a5.36,5.36,0,0,0-1.63-1.72c-3.6-2.14-10.36-1.07-12.9,2.28a7.34,7.34,0,0,0-1.3,5.93c.63,2.94,3.61,5.22,2.8,8.35l5.05.69,0-.53c.28-3.3-4.86-3.28-5.15,0Z"/><path class="cls-4" d="M92,115.34c-2-.55-3.83-2.94-1.64-4.58,2-1.51,4.67.21,5.74,2a23.63,23.63,0,0,1,.77,2.95,21.29,21.29,0,0,1,1.4,3.8l4.3-2.51c-1.76-2.11-3.19-4.46-6.2-3.55s-4.42,3.87-7,5.34a2.63,2.63,0,0,0-.92,3.51c2.54,5.75,9.47-.12,13-1l-2.9-3.77c-1.86,2.71-7.13,3.58-7.19,7.38a2.6,2.6,0,0,0,3.87,2.22c2.94-1.61,5.47-3.92,8.83-4.58l-2.9-1.18.21.46.4-3.11c-2.63,2.54-14.52,8.57-10.51,14,1.69,2.29,4.54.91,6.59.05,3.27-1.38,6.12-3,9.52-3.84a2.54,2.54,0,0,0,1.79-1.8,4.33,4.33,0,0,0-4.92-5.24c-3.24.39-3.28,5.54,0,5.14l0-1.26,1.8-1.8a39.16,39.16,0,0,0-10.76,4.35l-1.25.51,2.78.28a22,22,0,0,0,3.25-2.28,42.46,42.46,0,0,0,5.39-4.45,2.64,2.64,0,0,0,.4-3.11l-.21-.47a2.61,2.61,0,0,0-2.9-1.18c-3.85.76-6.71,3.26-10.07,5.1L96.44,125c0,1.21,3.53-1.8,4-2.15a10.5,10.5,0,0,0,2.51-2.64c1.34-2-.86-4.25-2.9-3.78-.9.21-7.51,2.69-7.22,3.33l-.93,3.52a14.19,14.19,0,0,0,2.91-2.33c2-1.87,2.19-2.56,4.1-.26,1.79,2.15,4.75-.23,4.3-2.5-.49-2.46-1.71-4.6-2.21-7.07a7.27,7.27,0,0,0-2.18-4.35c-2.75-2.49-6.75-2.25-10-.9-7.35,3.07-5.41,12.53,1.78,14.45,3.2.86,4.56-4.1,1.36-5Z"/><path class="cls-4" d="M134.12,109.93a3.56,3.56,0,0,1-3.11,1.45l2.57,2.57c-.34.72-.28.71.19,0a5.1,5.1,0,0,1,1.12-1.29,8.67,8.67,0,0,1,2.9-1.56,13.15,13.15,0,0,0,4.53-2.31c2.24-1.88-.67-5.6-3.11-4,.81-.51-2.48-6.4-2.88-7.06A9.35,9.35,0,0,0,128,93c-3.1,0-6.89,1-8.29,4-1.52,3.31.38,7.11,2.6,9.64,2,2.31,5.59,5,8.88,4.32,2.52-.56,4.46-3.6,4.19-6.13-.29-2.74-2.9-3.51-5.15-2.4-3.38,1.66-4.27,5.37-4.1,8.85a2.61,2.61,0,0,0,3.25,2.48,36,36,0,0,0,4.46-1.26c3.1-1.1,1.76-6.07-1.37-5a36,36,0,0,1-4.46,1.26l3.26,2.48c0-.9-.27-4.27,1.27-4.26l-2.22-1.27c-.38-.55-1-.17-1.57-.39a7.38,7.38,0,0,1-2.07-1.56c-1.25-1.25-3.44-4.06-1.16-5.27a5.34,5.34,0,0,1,6,1.21c.93,1.09.94,2.38,1.54,3.58a9.87,9.87,0,0,1,.81,1.84,7.06,7.06,0,0,0,1.6,3.15,4.81,4.81,0,0,0,6.31.84l-3.11-4c-2.13,1.78-5.26,1.85-7.44,3.86-1.29,1.21-3,3.05-2.81,5a2.62,2.62,0,0,0,2.57,2.57,9.35,9.35,0,0,0,6.74-3c2.32-2.37-1.31-6-3.63-3.64Z"/><path class="cls-4" d="M164.71,96.77a3.19,3.19,0,0,0-1.28-3.14,7.43,7.43,0,0,0-1.48-.71c-.95-.46-.61-.15-.32.2a15.08,15.08,0,0,1-2.32-4.21c-.51-2.1,2-3.07,3.84-2.42,1.31.46,1.53.76,1.91,2.11.32,1.17.28,2.21,1.05,3.23,1.07,1.4,2.37,2.31,3.36,3.86,1.73,2.69,4.91,4.87,7.58,6.63V97.88c-3.91,1.71-8.11,2.4-11.8,4.63l3.51,3.52c1.24-2.84,3.44-4.26,6.12-5.62L172.28,96c-1.07.62-2.4,1.68-3.64,1.81.19,0-4.13,1.48-2.42-1.26l4-.52c-1.93-2.1-2.43-3.7-5.47-4.28l.62,4.7a4.86,4.86,0,0,1,2-1.11c3.12-1.06,1.78-6-1.36-5A11.08,11.08,0,0,0,162.81,92c-1.58,1.19-1.78,4.24.62,4.7,1,.2,2.42,2.12,3.19,3a2.6,2.6,0,0,0,4-.52c3.46-5.54-5.29-9.25-7.93-3.51-1.07,2.34-.53,6.17,1.86,7.58,3,1.74,7.74-1.3,10.29-2.77,2.88-1.66.34-5.92-2.6-4.44-3.42,1.73-6.39,3.86-8,7.46-.95,2.19,1.11,5,3.52,3.52,3.64-2.2,7.93-2.93,11.81-4.63,1.89-.83,1.44-3.5,0-4.44a23.59,23.59,0,0,1-6.3-5.8c-1.23-1.78-2.75-3-3.25-5-1.08-4.26-4.93-6.26-9.29-6s-8,4-6.81,8.45a25,25,0,0,0,3.37,6.54,5.22,5.22,0,0,0,1.71,1.56,2.55,2.55,0,0,0,1.29.35c1.2.09.93-.33-.8-1.29-.24,3.31,4.9,3.29,5.14,0Z"/><path class="cls-4" d="M189.22,78.68c-2.1-2.57,4.16-2.26,4.19-2.25,1.23.62,1.74,2.09,2.34,3.21a6.35,6.35,0,0,0,2.57,3l-1.18-1.53a9.72,9.72,0,0,0,1.46,3.37c.41.53,1.1,1,1,1.68-.13,1.5-2.76,1.93-3.65,1.32-.51-.35-.84-1.59-1.29-2.1s-1.34-1-1.9-1.73c-1.06-1.29-2.06-2.47-3.18-3.73l-1.13,4.3c4.19-1.66,6.12,2.64,8.58,5.21,1.68,1.74,5.3,0,4.3-2.5s-2-4.61-3.11-6.85c-1.51-2.94-5.95-.35-4.44,2.6.94,1.84,1.82,3.69,2.59,5.61l4.3-2.5c-3.88-4-7.18-9.07-13.59-6.53a2.61,2.61,0,0,0-1.13,4.3,60,60,0,0,1,5.56,6.51c1.65,2.54,3.86,3.59,6.93,2.81a9,9,0,0,0,6.24-5.5c1-3.17-1.23-4.23-2.45-6.68-1.95-3.93-4.52-9.69-10.15-9.69-6.16,0-10.78,6.12-6.52,11.33,2.09,2.56,5.71-1.1,3.63-3.64Z"/><path class="cls-9" d="M54.41,124.32a3,3,0,0,0,.53,1.16,4.24,4.24,0,0,0,2,1.33c2.89,1,6.49.36,8.29-2.28,1.34-2-1.29-4.08-2.75-4.67a6.5,6.5,0,0,0-7,1.1A3.8,3.8,0,0,0,54.41,124.32Z"/><path d="M54.1,124.4c.9,2.78,4.25,3.53,6.87,3.09,2.09-.36,5.51-2.17,4.84-4.76-1.44-5.61-12.45-4.76-11.72,1.59,0,.4.69.41.65,0-.62-5.31,7.41-6,9.88-2.44,2.86,4.19-8.15,7.76-9.9,2.35C54.6,123.84,54,124,54.1,124.4Z"/><path class="cls-9" d="M87,113.19a3.83,3.83,0,0,0,.53,1.4,4.41,4.41,0,0,0,2,1.6,6.41,6.41,0,0,0,8.28-2.72c1.34-2.36-1.3-4.9-2.75-5.61a5.69,5.69,0,0,0-7,1.31A5.13,5.13,0,0,0,87,113.19Z"/><path d="M86.66,113.28c.84,3.09,4.25,4.35,7.22,3.59,2.46-.63,5.31-3.14,4.38-5.92-2.14-6.33-12.37-4.74-11.61,2.24,0,.41.69.41.64,0C86.67,107.51,94,105.67,97,110c3.62,5.22-8,9.67-9.74,3.08A.32.32,0,0,0,86.66,113.28Z"/><path class="cls-9" d="M121,101.5a3.91,3.91,0,0,0,.62,1.47,5.06,5.06,0,0,0,2.33,1.68,8.24,8.24,0,0,0,8.57-1.51,4.7,4.7,0,0,0,1.38-2c.71-2.27-1.61-4.4-3.48-5.23a7.17,7.17,0,0,0-8.22,1.39A5,5,0,0,0,121,101.5Z"/><path d="M120.64,101.58c2,6.71,15.82,3.94,13.42-2.57s-14.24-5-13.43,2.49c.05.4.69.41.65,0-.65-6,6.82-7.46,10.59-4.27,3.44,2.91.58,6.52-2.81,7.42-2.87.76-6.83,0-7.8-3.24A.32.32,0,0,0,120.64,101.58Z"/><path class="cls-9" d="M155.38,89.85a4.09,4.09,0,0,0,.62,1.51,5,5,0,0,0,2.31,1.72,8,8,0,0,0,8.53-1.54,5,5,0,0,0,1.37-2.08c.69-2.33-1.61-4.51-3.47-5.36a7,7,0,0,0-8.16,1.42A5.24,5.24,0,0,0,155.38,89.85Z"/><path d="M155.07,89.94c2,6.85,15.73,4,13.34-2.63s-14.14-5-13.35,2.54c.05.41.69.41.65,0-.63-6,6.66-7.75,10.52-4.37,6.32,5.51-8.22,12.24-10.54,4.29A.32.32,0,0,0,155.07,89.94Z"/><path class="cls-9" d="M185.4,79.76a3.87,3.87,0,0,0,.61,1.5,5,5,0,0,0,2.3,1.73,8,8,0,0,0,8.47-1.54,4.93,4.93,0,0,0,1.36-2.09c.69-2.32-1.59-4.5-3.45-5.35a6.88,6.88,0,0,0-8.11,1.42A5.22,5.22,0,0,0,185.4,79.76Z"/><path d="M185.09,79.84c2,6.86,15.63,4,13.26-2.62s-14.06-5-13.27,2.54c0,.4.68.41.64,0-.63-6.06,6.9-7.83,10.7-4.19,5.73,5.5-8.45,11.93-10.71,4.1A.32.32,0,0,0,185.09,79.84Z"/><path d="M54.75,123.43a6,6,0,0,1,4.67-1.86c1.32,0,6.28,1,4.49,3.71-.22.35.33.67.56.33,1.47-2.28-1.16-4-3.12-4.45-2.4-.59-5.57-.12-7.16,1.94-.25.33.31.65.56.33Z"/><path d="M87.37,112.18c.52-2.06,4.36-3.11,5.95-2.65a5.12,5.12,0,0,1,3.57,4.68c0,.41.66.41.65,0-.11-2.36-1.89-5-4.35-5.5-2.09-.4-5.87,1.07-6.44,3.3a.32.32,0,0,0,.62.17Z"/><path d="M121.27,101.7c2.31-4.72,12.23-4.4,10.1,2.23a.32.32,0,0,0,.62.18c2.31-7.19-8.58-8.25-11.28-2.74-.18.37.38.7.56.33Z"/><path d="M155.81,89c1.3-2.29,3.8-2.74,6.23-2.54,1.7.14,2.67.63,3.1,2.35a4.41,4.41,0,0,1-.28,3.49c-.23.34.32.66.55.32,1.24-1.82.66-5.69-1.59-6.52-2.92-1.08-7-.21-8.56,2.58a.32.32,0,0,0,.55.32Z"/><path d="M185.69,78.88c1.38-1.69,4-3.13,6.23-2.68s4.39,4.45,2.12,6.33c-.32.26.14.72.45.46,1.9-1.57,1.17-5.36-.67-6.7-2.69-2-6.72-.15-8.58,2.13-.26.32.19.78.45.46Z"/><path d="M67.84,136.56a2.74,2.74,0,0,0,.65-3.42,1.64,1.64,0,0,0-2.82-.17,2.63,2.63,0,0,0-.35,3,1.64,1.64,0,0,0,2.52.59c.34-.23,0-.79-.32-.55-1.44,1-2.26-1.09-1.65-2.21.46-.85,1.46-1.37,2.06-.33a2.11,2.11,0,0,1-.41,2.54C67.19,136.25,67.51,136.81,67.84,136.56Z"/><path d="M97.45,123a3.44,3.44,0,0,1,.54-.77h-.45a26.44,26.44,0,0,1,1.88,2.57c.22.35.78,0,.55-.32a24.94,24.94,0,0,0-2-2.7.32.32,0,0,0-.45,0,3.9,3.9,0,0,0-.65.9c-.19.36.37.69.56.32Z"/><path d="M133.16,110.29c.33-.27,1-.93,1.35-.32a2.34,2.34,0,0,1,0,1,14.29,14.29,0,0,1-.23,2.44c-.05.24.22.54.47.36a9.73,9.73,0,0,1,1.9-1c.38-.15.22-.77-.17-.62a10.73,10.73,0,0,0-2.06,1.1l.48.37a14.72,14.72,0,0,0,.25-2.29,4.05,4.05,0,0,0-.14-1.8c-.48-1-1.79-.06-2.33.4-.32.26.13.71.45.45Z"/><path d="M165.19,99.07c.05-.24.37-1.14.77-1.12.23,0,.31.52.3.69a1.51,1.51,0,0,1-.34.86c-.2.28.18.58.44.44l.42-.23.21-.11c.16-.18.28-.15.34.07.52.58-.26,1.24-.83,1.23-.42,0-.42.63,0,.64a1.49,1.49,0,0,0,1.59-1.75c-.07-.36-.31-.87-.7-1s-1,.36-1.35.55l.44.44c.44-.61.76-2-.12-2.47s-1.65.87-1.79,1.55c-.08.4.54.58.62.17Z"/><path d="M168.63,98A12.67,12.67,0,0,1,171,99.63a.32.32,0,0,0,.53-.14,4.18,4.18,0,0,0,0-1.54l0-1.93a.32.32,0,0,0-.64,0l0,1.68a5.17,5.17,0,0,1,0,1.62l.54-.14A13.84,13.84,0,0,0,169,97.45c-.36-.19-.69.36-.32.56Z"/><path d="M195.39,88.21c-1-.1-2.35.07-2.47,1.36A2.1,2.1,0,0,0,194.61,92c1.14.14,1.7-.84,1.84-1.82.2-1.37-1.59-.4-2.1,0-.33.26.13.71.45.46s.94-.68,1.18-.55l-.16-.27a1.77,1.77,0,0,1-.43,1.34,1.07,1.07,0,0,1-1.59-.39,1.44,1.44,0,0,1,0-1.59c.41-.43,1.11-.33,1.63-.28s.41-.6,0-.64Z"/><path d="M198.59,90.24c-.35-.7-.71-1.4-1.09-2.09l-.36.48a8.84,8.84,0,0,1,3.1,1.43c.25.17.52-.1.47-.36a3.2,3.2,0,0,0-.69-1.23,9,9,0,0,1-.89-1.53c-.17-.38-.72,0-.55.32a9.07,9.07,0,0,0,.76,1.36,3.72,3.72,0,0,1,.75,1.25l.47-.36a9.17,9.17,0,0,0-3.25-1.5.32.32,0,0,0-.36.47c.37.69.73,1.38,1.09,2.08.18.37.74,0,.55-.32Z"/><path d="M200.53,86.87a8.49,8.49,0,0,1,1.25,1.55c.21.34.45,1,.9,1,.85.15,1.63-1,1.75-1.67a2.17,2.17,0,0,0-1.07-2.16,2.37,2.37,0,0,0-2.72.37c-.32.27.14.72.45.46a1.67,1.67,0,0,1,2.14-.14,1.45,1.45,0,0,1,.35,1.92c-.18.28-.59.69-.91.4a4.57,4.57,0,0,1-.52-.82A8.21,8.21,0,0,0,201,86.42c-.29-.29-.75.16-.45.45Z"/><path d="M62.76,145.14C59.9,141.32,58.12,137,56,132.76c-1-2-2.23-3.85-3.38-5.78-2.65-4.44-.53-8.83,4.54-10.35,3.87-1.15,8.68-.64,10.92,3.1,1.25,2.08,1.14,4.34,1.78,6.56,1.38,4.76,4.31,9.44,6.17,14,.15.38.77.21.62-.17-1.38-3.4-2.79-6.79-4.37-10.1-1.5-3.14-1.7-6.45-3.08-9.55-2.29-5.12-7.95-6-12.89-4.25-3.87,1.39-7.36,5.53-5.25,9.7,1.55,3.06,3.76,5.79,5.27,9a60.42,60.42,0,0,0,5.87,10.55c.24.33.8,0,.55-.32Z"/><path d="M94.75,133.27c-2.17-4.45-4.15-9.06-6.54-13.4-1.3-2.35-4.43-5.13-4.08-7.87.57-4.5,4.39-6.21,8.39-6.67,4.82-.57,7.51,1.9,8.27,6.58a8.86,8.86,0,0,0,.63,2.32c1.94,4.71,5,9.23,7.4,13.71.2.36.75,0,.56-.32-2.13-3.94-4.49-7.83-6.42-11.87-1.14-2.39-1.11-4.91-2.19-7.23-2.19-4.72-7.29-4.4-11.55-3.16-3.8,1.11-6.48,4.17-5.59,8.34.63,3,3.35,5.22,4.71,7.88,2,4,3.9,8,5.85,12,.18.37.74,0,.56-.33Z"/><path d="M130.67,119.85a66.34,66.34,0,0,0-6.25-11c-1.25-1.89-3.18-3.78-4.18-5.79-2.58-5.2.77-9.7,6.26-9.66,2.6,0,7,.52,8.54,2.88,1.05,1.62,1.63,3.65,2.6,5.36,2.43,4.28,5.36,8.23,7.62,12.62.19.37.74,0,.55-.32-1.72-3.35-3.81-6.44-5.8-9.62-1.66-2.65-2.71-5.82-4.42-8.37-2.26-3.38-8.94-3.86-12.55-2.76a6.56,6.56,0,0,0-4.23,8.32c.8,2.8,3.46,5.25,5,7.67A65.29,65.29,0,0,1,130.05,120c.16.38.78.21.62-.17Z"/><path d="M165.86,107.33c-3.29-3.6-5.44-7.93-8.15-11.94-1-1.41-2.36-2.79-3.08-4.33-2-4.31.57-8.65,5.37-9.4,3.28-.52,8.23.48,9.57,4a16,16,0,0,0,1.65,4C174,93.88,177,98,180.05,102.09c.24.33.8,0,.55-.33-2.43-3.29-4.69-6.69-7.07-10-1.23-1.72-2.62-3.24-3.21-5.32-.34-1.2-.17-1.84-1-2.86-2.67-3.2-9.25-3.54-12.58-1.48-4,2.46-4.7,6.07-2.38,9.78,3.32,5.31,6.82,11.29,11.06,15.92.28.3.73-.15.45-.46Z"/><path d="M208.92,88.91c-2.26-3.12-4.47-6.27-6.6-9.47-1.54-2.3-3-5.65-5.35-7.29-3-2.1-7.85-1.66-10.69.53a7.28,7.28,0,0,0-2.45,8.51c1.19,2.68,4.11,4.67,5.83,7a85.83,85.83,0,0,1,5.18,8.3.32.32,0,0,0,.56-.32,78.24,78.24,0,0,0-6-9.41c-2.92-3.71-8.14-7.82-3.65-12.73a9.11,9.11,0,0,1,9-2.23c3.19,1,4.5,4,6.17,6.58,2.42,3.68,4.94,7.29,7.52,10.86.24.33.8,0,.55-.33Z"/><path class="cls-4" d="M70.34,124a2.75,2.75,0,0,1,.79-.51,4.65,4.65,0,0,1,2-.64,1.62,1.62,0,0,1,.75.17,1,1,0,0,1,.47.6,1.73,1.73,0,0,0,.12.6"/><path d="M70.57,124.23a5.12,5.12,0,0,1,1.88-.94,1.74,1.74,0,0,1,1.29,0c.38.26.31.65.44,1s.76.22.62-.17-.11-.87-.51-1.22a1.74,1.74,0,0,0-1.14-.38,5.06,5.06,0,0,0-3,1.24c-.32.27.14.72.45.45Z"/><path class="cls-4" d="M73.93,123a.27.27,0,0,1,.13-.15,5.24,5.24,0,0,1,2.14-1.14,2,2,0,0,1,2.12.84"/><path d="M74.16,123.2c.84-1,3-1.91,3.89-.51.22.35.77,0,.55-.32-1.12-1.77-3.76-1-4.9.38-.26.32.19.77.46.45Z"/><path class="cls-4" d="M77.46,121.63A10.58,10.58,0,0,1,79,120.31a3.54,3.54,0,0,1,1.87-.65,2.69,2.69,0,0,1,2.2,1.09"/><path d="M77.69,121.85c1.42-1.39,3.5-2.85,5.13-.87.27.32.72-.14.46-.46-1.88-2.26-4.38-.75-6,.88-.3.29.16.74.45.45Z"/><path class="cls-4" d="M171.51,89.66a3,3,0,0,1,1.71-.93,5.7,5.7,0,0,1,1.47-.28,2,2,0,0,1,1.39.46"/><path d="M171.74,89.89c.79-.94,3.09-1.55,4.11-.75.33.25.78-.2.46-.46a2.84,2.84,0,0,0-2.45-.45,4.46,4.46,0,0,0-2.58,1.2c-.26.32.19.78.46.46Z"/><path class="cls-4" d="M175.68,88.43a5.76,5.76,0,0,1,2.49-1.28,3.33,3.33,0,0,1,1.63,0"/><path d="M175.9,88.66a4.65,4.65,0,0,1,3.81-1.22c.41.08.58-.54.17-.62a5.34,5.34,0,0,0-4.43,1.38c-.32.27.14.72.45.46Z"/><path class="cls-4" d="M179.62,87c.67-.38,1.35-.73,2-1a3.15,3.15,0,0,1,.94-.31,1.25,1.25,0,0,1,.94.24"/><path d="M179.78,87.25c.89-.51,2.62-1.76,3.61-1.12.35.23.67-.33.32-.55-1.3-.85-3.12.47-4.25,1.11a.32.32,0,0,0,.32.56Z"/><path class="cls-4" d="M183.49,85.86a2.13,2.13,0,0,1,1-1.13,3.76,3.76,0,0,1,1.94-.31"/><path d="M183.8,85.94c.46-1.08,1.56-1.24,2.61-1.19.42,0,.41-.63,0-.65-1.39-.06-2.65.3-3.23,1.67-.16.38.46.55.62.17Z"/><path class="cls-4" d="M202.07,79.45a1.29,1.29,0,0,1,.8-.76,3.49,3.49,0,0,1,1.89-.24"/><path d="M202.38,79.53c.3-.81,1.68-.84,2.38-.76.41,0,.4-.6,0-.65-1-.12-2.58.11-3,1.24-.15.39.47.56.62.17Z"/><path d="M175.78,89.14c2.45,3.87,5.18,7.58,7.79,11.34.23.34.79,0,.56-.32-2.61-3.77-5.34-7.47-7.79-11.34-.22-.35-.78,0-.56.32Z"/><path d="M179.58,87.52q4.06,5.63,7.57,11.61a.32.32,0,0,0,.56-.32q-3.53-6-7.57-11.62c-.24-.33-.8,0-.56.33Z"/><path d="M183.37,86.21q3.74,5.83,7,12c.2.36.75,0,.56-.33q-3.27-6.1-7-12c-.22-.34-.77,0-.55.33Z"/><path class="cls-4" d="M137.88,101a3.25,3.25,0,0,0,1.33-.74,2.21,2.21,0,0,1,1.39-.58,1.64,1.64,0,0,1,1,.51,4.76,4.76,0,0,1,.7,1"/><path d="M138,101.34a5.41,5.41,0,0,0,1.61-.93c1.16-.75,1.86-.08,2.48.92.22.35.77,0,.55-.32-.46-.75-1-1.58-2-1.62-1.12,0-1.8,1.06-2.8,1.33a.32.32,0,0,0,.17.62Z"/><path class="cls-4" d="M141.44,99.78c.17-.06.34-.11.5-.18a6.94,6.94,0,0,1,2.34-.84,2.06,2.06,0,0,1,1.8,1"/><path d="M141.52,100.09c1.4-.48,3.14-1.83,4.29-.16.23.33.79,0,.55-.33a2.51,2.51,0,0,0-1.94-1.16c-1.1,0-2.07.69-3.07,1-.39.14-.22.76.17.62Z"/><path class="cls-4" d="M145.37,98.64a5.49,5.49,0,0,0,.9-.37,8.08,8.08,0,0,1,1.27-.74,3,3,0,0,1,1-.14,1.72,1.72,0,0,1,.68.09,1.79,1.79,0,0,1,.82,1.1"/><path d="M145.46,99c1.3-.47,3.37-2.34,4.22-.28.15.37.78.21.62-.17-.31-.76-.69-1.37-1.58-1.43-1.38-.09-2.21.82-3.43,1.26-.39.14-.22.76.17.62Z"/><path class="cls-4" d="M149.18,97.46c0-.11.1-.18.19-.23a7.32,7.32,0,0,1,2.79-1,2.48,2.48,0,0,1,1.18.07,1,1,0,0,1,.68.88"/><path d="M149.49,97.54c.17-.41,1.35-.65,1.79-.77.72-.2,2.26-.59,2.43.53.07.41.69.23.62-.17-.18-1.13-1.3-1.3-2.25-1.18s-2.83.49-3.21,1.42c-.15.39.47.55.62.17Z"/><path class="cls-4" d="M153.44,96.23a1.6,1.6,0,0,1,.67-.67,5.92,5.92,0,0,1,2.42-.68"/><path d="M153.72,96.39c.55-.92,1.84-1.06,2.81-1.19.4,0,.41-.69,0-.64-1.22.16-2.67.36-3.37,1.51a.32.32,0,0,0,.56.32Z"/><path d="M142.06,101.33c2.32,4,5.35,7.45,7.1,11.81.15.38.78.21.62-.17-1.77-4.42-4.81-7.89-7.17-12a.32.32,0,0,0-.55.32Z"/><path d="M145.86,100c3.52,3.1,5.19,7.77,7.17,11.91.18.38.73,0,.56-.32-2-4.2-3.7-8.89-7.28-12-.31-.28-.76.18-.45.45Z"/><path d="M149.71,98.74c2.46,3.79,5.58,7.11,7.11,11.42.14.39.76.22.62-.17-1.55-4.37-4.68-7.73-7.17-11.57-.23-.35-.78,0-.56.32Z"/><path d="M153.75,97.38c2.37,4,5.84,7.11,7.17,11.65a.32.32,0,0,0,.62-.17c-1.35-4.62-4.83-7.79-7.24-11.81a.32.32,0,0,0-.55.33Z"/><path class="cls-4" d="M101.93,113.08l1.95-.74a2.24,2.24,0,0,1,.61-.18,1.76,1.76,0,0,1,1.32.46,5.46,5.46,0,0,1,.9,1.12"/><path d="M102,113.39c.69-.26,1.39-.61,2.1-.8,1.15-.31,1.74.45,2.31,1.31.23.34.79,0,.56-.33a3.4,3.4,0,0,0-2-1.7c-1-.2-2.22.55-3.15.9-.38.15-.22.77.17.62Z"/><path class="cls-4" d="M105.82,112.36a4.68,4.68,0,0,1,3.22-1.81,2.27,2.27,0,0,1,.78,0,2.7,2.7,0,0,1,1.38,1.4"/><path d="M106.05,112.59a4.46,4.46,0,0,1,2.15-1.53,2.81,2.81,0,0,1,1.54-.15,2.44,2.44,0,0,1,1.18,1.25.32.32,0,0,0,.55-.32c-.65-1.12-1.38-1.78-2.74-1.57a5.07,5.07,0,0,0-3.14,1.86c-.26.32.2.78.46.46Z"/><path class="cls-4" d="M110.27,110.57a4.17,4.17,0,0,1,1.22-1,4.32,4.32,0,0,1,1.79-.28,2,2,0,0,1,.64.07,1.62,1.62,0,0,1,.61.4,6.76,6.76,0,0,1,.77.83"/><path d="M110.5,110.8a3.08,3.08,0,0,1,2.47-1.22,2.49,2.49,0,0,1,2.1,1.19c.26.32.71-.13.45-.45a2.85,2.85,0,0,0-2.55-1.38,3.77,3.77,0,0,0-2.93,1.4c-.28.31.18.76.46.46Z"/><path class="cls-4" d="M114.1,109.28a5.78,5.78,0,0,1,3.12-1.4,1.48,1.48,0,0,1,1.49.52,6.47,6.47,0,0,1,1,1.3"/><path d="M114.33,109.51a5.58,5.58,0,0,1,2.63-1.27c1.24-.21,1.86.65,2.44,1.62a.32.32,0,0,0,.56-.32c-.55-.92-1.27-2-2.45-2a5.87,5.87,0,0,0-3.63,1.52c-.32.26.13.71.45.45Z"/><path class="cls-4" d="M118.4,107.92a1.69,1.69,0,0,1,.83-.65,6,6,0,0,1,2.85-.69"/><path d="M118.67,108.08c.64-.9,2.4-1.2,3.41-1.18a.32.32,0,0,0,0-.64c-1.28,0-3.18.38-4,1.5-.24.34.32.66.55.32Z"/><path d="M106.43,113.9c1.16,1.94,2.68,3.63,3.83,5.58a48.08,48.08,0,0,1,3,6.56c.16.38.78.21.62-.17a55.86,55.86,0,0,0-2.69-6c-1.22-2.23-2.93-4.11-4.23-6.29a.33.33,0,0,0-.56.33Z"/><path d="M110.92,112.16c2.35,4.1,4,8.57,6.25,12.71.2.36.75,0,.55-.33-2.29-4.14-3.89-8.6-6.25-12.7a.32.32,0,0,0-.55.32Z"/><path d="M115,110.71a142.58,142.58,0,0,1,6.43,12.85c.16.37.72,0,.55-.33-1.94-4.38-4.06-8.67-6.43-12.85-.2-.36-.76,0-.55.33Z"/><path d="M119.4,109.86c2,4,4.45,7.91,5.71,12.17a.32.32,0,0,0,.62-.17c-1.28-4.33-3.78-8.29-5.77-12.32-.19-.37-.74-.05-.56.32Z"/><path class="cls-4" d="M82.25,120c0-.16.2-.25.35-.31a13.07,13.07,0,0,1,2-.75,4.62,4.62,0,0,1,2.09-.12"/><path d="M82.52,120.2c.34-.47,1.31-.66,1.85-.83a4.87,4.87,0,0,1,2.21-.2c.4.07.57-.55.17-.62a5.63,5.63,0,0,0-2.7.25A4.05,4.05,0,0,0,82,119.88c-.24.34.32.66.55.32Z"/><path d="M74.18,124.31a64.64,64.64,0,0,0,2.73,5.92c1.35,2.82,2.29,5.82,3.51,8.69.16.38.72.06.56-.32-1.09-2.56-2-5.21-3.08-7.75-1-2.27-2.25-4.36-3.1-6.71-.14-.39-.76-.22-.62.17Z"/><path d="M78,122.62c1,2.51,1.93,5.09,3,7.6s2.49,4.54,3.41,7c.14.38.76.21.62-.17-.87-2.37-2.17-4.44-3.23-6.71-1.2-2.56-2.1-5.3-3.17-7.93-.15-.37-.77-.21-.62.18Z"/><path d="M82.77,120.91c1.27,2.53,2.41,5.08,3.48,7.69.94,2.29,2.27,4.38,3.2,6.66.15.38.78.22.62-.17-1-2.57-2.5-5-3.55-7.54-1-2.37-2-4.67-3.19-7-.19-.37-.74,0-.56.32Z"/><path class="cls-4" d="M53.35,129.79a3.36,3.36,0,0,0-4.11,3.39"/><path d="M53.44,129.48a3.73,3.73,0,0,0-4.52,3.7.32.32,0,0,0,.64,0,3.09,3.09,0,0,1,3.71-3.08c.4.08.58-.54.17-.62Z"/><path class="cls-6" d="M40.17,37.52Q36.8,43.34,33,48.89c-.45.65-.89,1.3-1.28,2s-.82,1.68-1.24,2.51c-.56,1.11-1.23,2.18-1.9,3.24l-1.53,2.43c-2.43,3.87-3.43,6.26-6,10l-2,3.24-5.09-9.29a40.85,40.85,0,0,1-2-4.08c-.5-1.23-.88-2.5-1.46-3.69a17.73,17.73,0,0,1-1.3-2.8,6.35,6.35,0,0,1,1.41-5.67,11.56,11.56,0,0,1,5-3.3c1.9-.69,3.9-1.1,5.86-1.63s4-1.21,5.94-1.89c4.57-1.57,9.28-2.49,13.84-4.06a2.51,2.51,0,0,0,.35-.86c0-.11-.49-.08-.44,0Z"/><path class="cls-6" d="M39.62,37.2c-4,6.83-8.17,13.62-12.36,20.31-3,4.8-5.77,9.72-8.79,14.5h1.11c-2.6-4.75-5.48-9.43-7.53-14.45-1.27-3.1-3.14-6-1.64-9.42,1.39-3.21,6-4.28,9-5.07,5.08-1.33,10-3.12,15.07-4.49,2.29-.62,6.92-.68,7.72-3.34a.65.65,0,0,0-.45-.79c-1.51-.42-1.8,1.93-2.19,2.9-.3.77,1,1.11,1.24.35.17-.43.84-1.48.74-1.89-.19-.85-4.09.62-5.08.9-3.09.87-6.19,1.66-9.24,2.66-5,1.64-11.63,2.29-15.81,5.73-3.4,2.79-3.52,6-1.87,9.82,2.68,6.1,5.73,11.88,8.94,17.74a.65.65,0,0,0,1.11,0c3-4.78,5.79-9.7,8.79-14.5,4.19-6.7,8.36-13.48,12.36-20.31A.64.64,0,0,0,39.62,37.2Z"/><path class="cls-6" d="M92.12,19.26c-4.59,1.39-9.19,2.78-13.64,4.56-1.54.62-3.21,1-4.78,1.59-3.4,1.2-6.81,2.11-10.24,3.2-2,.65-4,1.45-6,2.19a98.55,98.55,0,0,1-14.23,4l.66.29a23.64,23.64,0,0,0,3,5.73c4.08,6.3,8,12.83,11.81,19.27a8.83,8.83,0,0,1,.65-1.26c2-3.48,4.13-6.86,6.15-10.34C69.3,41.91,73,35.23,76.81,28.64l3.45-4.59a9.76,9.76,0,0,1,1.85,1.46,15.77,15.77,0,0,1,1,1.76,14,14,0,0,0,1.8,2.41l7.73,9a3.53,3.53,0,0,1,.63.91c.21.49-.07,1.14,0,1.66s.71,1,1,1.54L96.5,46.6l.12.31a21.87,21.87,0,0,1,3.08-4.83c.18-.24.36-.46.52-.71s.26-.45.38-.68c1.1-2.15,2.21-4.3,3.44-6.38.4-.66.72-1.42,1.14-2.07l.37-.47c1.21-2.25,2.51-4.46,3.89-6.61.71-1.1,1.44-2.18,2.11-3.3s1.25-2.16,1.85-3.26,1.1-2,1.59-3.08c.39-.85.75-2.11,1.52-2.65l.73.62a8.32,8.32,0,0,1,2,2.16c.85,1.12,1.66,2.06,2.52,3.19l2.2,2.91A17.64,17.64,0,0,1,125,23.28l.5.46c1.85-2.89,3.45-6,5.11-9.06l.94-1.71A27.1,27.1,0,0,0,134,8.56l1.31-.65q3.78,4.69,7.43,9.52l.85,1.37q3.84-6.5,7.29-13.2l.77-1.25a2.38,2.38,0,0,0-1-1.09c-.77-.51-1.56-1-2.36-1.43a1.69,1.69,0,0,0-1-.3l-.56-.19-8.69,2.32c-1.23.32-2.46.65-3.68,1-1.59.49-3.16,1.07-4.73,1.64-2.5.89-5,1.75-7.52,2.6l-10.85,3.7L106,14.38,93.76,18.56Z"/><path class="cls-6" d="M92,18.64C84,21,76.33,24,68.42,26.43,59.92,29,51.74,32.35,43,34.19a.65.65,0,0,0-.15,1.18c.91.4,1.56,2.72,2.05,3.58,1.37,2.38,3,4.64,4.42,7,3,4.79,5.88,9.65,8.78,14.5a.65.65,0,0,0,1.11,0c2.84-6,6.79-11.52,10.05-17.26,2.89-5.09,5.49-10.56,8.92-15.31.3-.41,2-3.37,2.54-3.37-.13,0,5.45,7.72,5.89,8.24,1.1,1.28,2.26,2.54,3.32,3.86a15.76,15.76,0,0,1,2.7,3.86,3.79,3.79,0,0,0,0,1c1,1.9,2.53,3.62,3.34,5.63.18.46.91.7,1.17.15,1.1-2.25,2.71-4.09,4-6.22s2.26-4.28,3.45-6.37c2.28-4,4.72-8,7.16-11.9,1.18-1.89,2.29-3.86,3.28-5.86,1.14-2.3.8-4.17,3-1.62,2.45,2.79,4.23,6.45,7,8.93a.66.66,0,0,0,1-.13c2.82-4.53,4.92-9.57,7.95-14,1-1.41.5-1.57,1.77-.56a21.45,21.45,0,0,1,2.8,3.55,70.44,70.44,0,0,1,4.44,6,.65.65,0,0,0,1.11,0c2.78-4.76,5.15-9.79,8.06-14.46a.61.61,0,0,0,0-.64A6.84,6.84,0,0,0,145,1.11,193,193,0,0,0,125.59,7c-11.19,3.87-22.9,7-33.8,11.67-.75.33-.1,1.43.65,1.11,12.27-5.22,25.47-8.68,38-13.14,3-1.07,6-2,9.08-2.78,3.28-.87,6.4-2.62,9.55-.81,1.44.82,1.57.73,1.4,1.87s-1.69,3.18-2.3,4.33q-2.5,4.65-5.18,9.2h1.11a114.45,114.45,0,0,0-8.39-11,.65.65,0,0,0-.78-.1c-1.89.94-2.18,2.27-3.27,4.14a93.54,93.54,0,0,0-5.2,9.39c-1,2.21-.6,2.41-2,.55-.77-1-1.53-2-2.31-3.05a37.55,37.55,0,0,0-5.21-6,.65.65,0,0,0-.91,0c-1.73,1.95-2.55,4.68-3.82,7-1.91,3.44-4.18,6.65-6.13,10.06-1.47,2.57-3,5.11-4.39,7.72-1.74,3.24-4,6.15-5.66,9.43l1.18.16c-.71-1.78-2.27-3.26-3-5s-.47-2.53-1.77-4.14c-2.3-2.87-4.89-5.5-7.18-8.38-1.77-2.22-2.44-4.13-4.74-5.74a.67.67,0,0,0-.88.23A122.05,122.05,0,0,0,71,37.53c-4.18,7.38-9.23,14.59-12.87,22.24h1.11c-3.18-5.31-6.34-10.63-9.64-15.87-1.4-2.22-3-4.39-4.19-6.74-.66-1.32-.57-2.32-1.88-2.9l-.16,1.17c8.72-1.84,16.9-5.18,25.4-7.76,7.92-2.4,15.61-5.39,23.53-7.79C93.08,19.64,92.74,18.4,92,18.64Z"/><path d="M204.69,92.53l-100,36.89c-13.79,5.09-27.51,10.83-41.51,15.3-7.29,2.33-9.41-4-12-9.06L38.2,110.3,10.79,56.61C9.2,53.48,7.52,50.37,10.21,47c1.47-1.85,3.42-2.31,5.49-3l18.77-6.22L99.22,16.31c14.8-4.9,29.54-10.44,44.52-14.75,6.67-1.92,9.29,3.7,12.48,8.22L173,33.48,206.6,81.1c2.8,4,3.31,9.06-2.07,11.5-.75.34-.1,1.45.65,1.11,4.82-2.18,6.28-7.42,3.52-11.87-1-1.67-2.29-3.24-3.43-4.84L187.73,52.16c-11.38-16.11-22.5-32.44-34.16-48.35C150.16-.84,146-.53,141.15,1.06l-21.42,7.1L51.29,30.85l-28,9.3c-3.84,1.27-9.06,2.09-12.46,4.47-6.35,4.43-1.88,11.13.68,16.14L25.54,88.33c9.07,17.75,17.81,35.71,27.21,53.29,2.78,5.21,7.34,5.59,12.31,3.76l19-7L202.27,94.79l2.76-1C205.8,93.49,205.47,92.25,204.69,92.53Z"/><path d="M19.38,73.86,36.26,46l4.32-7.12c.49-.8,1.39-3.18,2.24-3.68-.24.13-.56-.26-.1.52l1.48,2.43,5,8.26,9.12,15a.33.33,0,0,0,.56,0L79,27.35a18.86,18.86,0,0,1,1.33-2.26c.56-.68-.55-.61,0-.06,2,2,3.49,5,5.1,7.27L96.51,48.1a.33.33,0,0,0,.56,0L112,22.57l3.61-6.18a11.28,11.28,0,0,1,1.06-1.81c.55-.61,0-.3-.11-.32,1.47.48,3.63,4.49,4.61,5.7l4.17,5.16a.33.33,0,0,0,.51-.06c2.92-5.15,5.62-10.51,8.79-15.51.68-1.07-.24-.83.45-.17A34.15,34.15,0,0,1,138,13l5.48,6.89a.33.33,0,0,0,.51-.06q4.51-7.81,9-15.66c.21-.36-.35-.69-.55-.33-2.61,4.59-6.13,9.36-8.15,14.25a5.58,5.58,0,0,1-.76,1.31c.59-.1.26-.31-.16-.73a38.66,38.66,0,0,1-3-3.81l-5.22-6.56a.33.33,0,0,0-.51.06c-2.92,5.15-5.63,10.51-8.79,15.51-.68,1.07.24.82-.45.17a33.78,33.78,0,0,1-2.91-3.59l-5.49-6.8a.33.33,0,0,0-.51.07L97.54,46c-.22.39-.59,1.44-1,1.68.52-.33.44.19-.12-.81A92.61,92.61,0,0,0,91,39.11L80.6,24.3a.33.33,0,0,0-.56,0L59.62,58.94c-.29.49-.69,1.65-1.16,2,.3-.21.4.37-.1-.73-1.35-3-3.55-5.83-5.26-8.63L42.89,34.8a.33.33,0,0,0-.56,0L18.82,73.54a.32.32,0,0,0,.56.32Z"/><rect class="cls-4" x="74.15" y="29.57" width="28.17" height="12.66" rx="4.96" ry="4.96" transform="translate(-6.54 26.31) rotate(-16.36)"/><path d="M98.59,38.78l-12,3.52c-1.59.46-3.56,1.44-5.23,1.53a6.64,6.64,0,0,1-5.85-3.42c-1.1-2.42-.7-5.7,1.89-7.21,3.44-2,8.59-2.58,12.39-3.7a37.81,37.81,0,0,1,5.34-1.56c5.9-.79,9.18,8.41,3.27,10.91-.76.32-.1,1.43.65,1.11,7.08-3,3.37-14.7-4.11-13.31a98.81,98.81,0,0,0-9.52,2.8c-2.63.77-5.47,1.33-8,2.36-7.17,2.9-3.5,14.72,4,13.34C87.33,44.08,93.2,41.71,98.94,40A.64.64,0,0,0,98.59,38.78Z"/><path class="cls-3" d="M95.06,36.91l-4.81,1.58L84.42,40c-.82.23-3.19.21-3.81-.29a2.48,2.48,0,0,1-.83-1.29h0a3.8,3.8,0,0,1-.06-1.8c.25-.78,2.42-1.72,3.27-2L92.54,32c.84-.23,3.22-.72,3.84-.19.37.32,1.48,1.07,1.62,1.57h0a3.88,3.88,0,0,1-.5,2C97.21,36.12,95.83,36.7,95.06,36.91Z"/><path d="M95,36.6c-1.86.61-3.71,1.26-5.6,1.78-1.4.39-2.83.79-4.25,1.1-2.77.6-7.78-1.45-3.41-4,2.21-1.28,5.39-1.64,7.81-2.31,1-.27,2-.6,3-.83A9.43,9.43,0,0,1,95,31.92c3.63.32,2.61,3.8,0,4.68-.39.13-.22.75.18.62,4.39-1.47,3.73-6.44-1.07-5.84a53.24,53.24,0,0,0-11.82,3.18c-4.59,1.76-3.12,6.4,1.59,5.85,3.8-.45,7.68-2,11.3-3.19C95.54,37.09,95.37,36.47,95,36.6Z"/><path class="cls-4" d="M82.61,35.9a1.85,1.85,0,0,0-.9.35,1.69,1.69,0,0,0-.29,2.1,2,2,0,0,0,1.67,1,1.92,1.92,0,0,0,1.71-.94,1.88,1.88,0,0,0-.15-2,2.12,2.12,0,0,0-1.92-.53Z"/><path d="M82.52,35.59a1.88,1.88,0,0,0-1.6,2.34,2.33,2.33,0,0,0,2.67,1.72,2.17,2.17,0,0,0,1.71-2.53c-.24-1.34-1.48-1.7-2.69-1.55-.4,0-.41.7,0,.65.71-.09,1.58-.09,1.94.65A1.52,1.52,0,0,1,83.61,39c-1.86.55-3.07-2.38-.91-2.77C83.1,36.13,82.93,35.51,82.52,35.59Z"/><path class="cls-4" d="M94.27,32.53a1.93,1.93,0,0,0-.9.36,1.69,1.69,0,0,0-.29,2.1,2,2,0,0,0,1.67,1,1.92,1.92,0,0,0,1.71-.94,1.88,1.88,0,0,0-.15-2,2.12,2.12,0,0,0-1.92-.53Z"/><path d="M94.18,32.22a1.89,1.89,0,0,0-1.6,2.35,2.33,2.33,0,0,0,2.67,1.72A2.17,2.17,0,0,0,97,33.76c-.24-1.34-1.48-1.7-2.69-1.55-.41,0-.41.7,0,.65.71-.09,1.58-.09,1.94.65a1.52,1.52,0,0,1-.94,2.11c-1.87.55-3.07-2.38-.91-2.78C94.76,32.77,94.59,32.15,94.18,32.22Z"/><path class="cls-5" d="M176.34,48.61,164.7,53.38c-1.63.66-4.47.06-5.14-1.57l-4.9-9.29c-.66-1.62,0-4.36,1.6-5L168.88,33A3.17,3.17,0,0,1,173,34.69l5.06,9.78A3.17,3.17,0,0,1,176.34,48.61Z"/><path d="M176.26,48.3c-3.75,1.54-7.67,3.76-11.59,4.74-4.09,1-5.21-2.12-6.7-4.94-1.39-2.62-4.53-6.53-2.31-9.34,1.45-1.84,4.44-2.3,6.6-3.08,1.84-.66,4.59-2.31,6.55-2.36,3.7-.09,4.56,2.73,5.9,5.34,1.21,2.33,5.22,7.39,1.47,9.68-.35.21,0,.77.32.55,4.76-2.9-.52-9.18-2.26-12.54-.81-1.57-1.48-3.4-3.39-3.86s-5,1.2-6.8,1.86c-3.65,1.32-11.18,2.23-9.81,7.81.53,2.17,2.14,4.31,3.17,6.26.87,1.66,1.61,4,3.33,5,2.44,1.39,5-.12,7.29-1l8.4-3.44C176.8,48.77,176.64,48.15,176.26,48.3Z"/><path class="cls-3" d="M170.65,40.73a2.76,2.76,0,0,1,0,1.73,2.31,2.31,0,0,1-1.33,1.18h0c-1.76.67-5.34.72-5.44-1.82a3.37,3.37,0,0,1,3.46-3.42C169,38.36,170.22,39,170.65,40.73Z"/><path d="M170,40.9c.36,1.8-1.06,2.36-2.53,2.47-1,.07-2.39,0-2.87-1-1.4-3,4.41-4.86,5.4-1.47a.64.64,0,0,0,1.24-.35c-1.42-4.83-9.52-2.66-7.9,2.13.62,1.83,2.89,2.13,4.55,1.93,2.3-.27,3.84-1.59,3.35-4.06C171.11,39.74,169.87,40.09,170,40.9Z"/></g></g></svg>